<svg width="192" height="192" viewBox="0 0 192 192" fill="none" xmlns="http://www.w3.org/2000/svg">
<g clip-path="url(#clip0_2413_28868)">
<mask id="path-2-inside-1_2413_28868" fill="white">
<path d="M0 0H192V192H0V0Z"/>
</mask>
<path d="M0 0H192V192H0V0Z" fill="url(#paint0_linear_2413_28868)"/>
<path d="M0 0.993104H192V-0.993104H0V0.993104Z" fill="url(#paint1_linear_2413_28868)" mask="url(#path-2-inside-1_2413_28868)"/>
<g filter="url(#filter0_f_2413_28868)">
<circle cx="17.1885" cy="21.1822" r="15.2276" fill="url(#paint2_linear_2413_28868)"/>
</g>
<path d="M168.661 17.1685C150.13 6.94066 133.916 11.5606 95.1999 2.65155C89.2655 1.28596 80.3148 0.587666 71.1427 0.258481L35.6367 0.334411C35.6367 0.334411 53.7859 -0.364457 71.1427 0.258481L192.012 0V57.75C192.012 57.75 187.192 27.3964 168.661 17.1685Z" fill="url(#paint3_linear_2413_28868)"/>
<g filter="url(#filter1_f_2413_28868)">
<ellipse cx="151.067" cy="27.4741" rx="12.1886" ry="12.1923" fill="url(#paint4_linear_2413_28868)"/>
<path d="M163.172 27.4741C163.172 34.1613 157.753 39.5823 151.067 39.5823C144.382 39.5823 138.963 34.1613 138.963 27.4741C138.963 20.7869 144.382 15.3658 151.067 15.3658C157.753 15.3658 163.172 20.7869 163.172 27.4741Z" stroke="url(#paint5_linear_2413_28868)" stroke-width="0.168223"/>
</g>
<g filter="url(#filter2_d_2413_28868)">
<ellipse cx="151.899" cy="26.6298" rx="12.1886" ry="12.1923" fill="url(#paint6_linear_2413_28868)"/>
</g>
<g filter="url(#filter3_d_2413_28868)">
<ellipse cx="96.0234" cy="102.726" rx="74.8125" ry="74.8357" fill="url(#paint7_linear_2413_28868)"/>
<path d="M169.995 102.726C169.995 143.593 136.876 176.721 96.0234 176.721C55.1704 176.721 22.0521 143.593 22.0521 102.726C22.0521 61.86 55.1704 28.7317 96.0234 28.7317C136.876 28.7317 169.995 61.86 169.995 102.726Z" stroke="url(#paint8_linear_2413_28868)" stroke-width="1.68223"/>
</g>
<g filter="url(#filter4_d_2413_28868)">
<ellipse cx="96.0087" cy="102.728" rx="53.7978" ry="53.8145" fill="url(#paint9_linear_2413_28868)"/>
<path d="M148.965 102.728C148.965 131.985 125.256 155.701 96.0087 155.701C66.7618 155.701 43.0521 131.985 43.0521 102.728C43.0521 73.4714 66.7618 49.7547 96.0087 49.7547C125.256 49.7547 148.965 73.4714 148.965 102.728Z" stroke="url(#paint10_linear_2413_28868)" stroke-width="1.68223"/>
</g>
<g filter="url(#filter5_di_2413_28868)">
<ellipse cx="97.2916" cy="103.156" rx="31.5221" ry="31.5319" fill="url(#paint11_linear_2413_28868)"/>
<path d="M127.973 103.156C127.973 120.107 114.236 133.847 97.2916 133.847C80.3472 133.847 66.6106 120.107 66.6106 103.156C66.6106 86.2061 80.3472 72.4656 97.2916 72.4656C114.236 72.4656 127.973 86.2061 127.973 103.156Z" stroke="url(#paint12_linear_2413_28868)" stroke-width="1.68223"/>
</g>
</g>
<defs>
<filter id="filter0_f_2413_28868" x="1.29887" y="5.29252" width="31.7812" height="31.7792" filterUnits="userSpaceOnUse" color-interpolation-filters="sRGB">
<feFlood flood-opacity="0" result="BackgroundImageFix"/>
<feBlend mode="normal" in="SourceGraphic" in2="BackgroundImageFix" result="shape"/>
<feGaussianBlur stdDeviation="0.331035" result="effect1_foregroundBlur_2413_28868"/>
</filter>
<filter id="filter1_f_2413_28868" x="136.356" y="12.7584" width="29.4256" height="29.4315" filterUnits="userSpaceOnUse" color-interpolation-filters="sRGB">
<feFlood flood-opacity="0" result="BackgroundImageFix"/>
<feBlend mode="normal" in="SourceGraphic" in2="BackgroundImageFix" result="shape"/>
<feGaussianBlur stdDeviation="1.26168" result="effect1_foregroundBlur_2413_28868"/>
</filter>
<filter id="filter2_d_2413_28868" x="121.206" y="13.5964" width="42.8835" height="42.8893" filterUnits="userSpaceOnUse" color-interpolation-filters="sRGB">
<feFlood flood-opacity="0" result="BackgroundImageFix"/>
<feColorMatrix in="SourceAlpha" type="matrix" values="0 0 0 0 0 0 0 0 0 0 0 0 0 0 0 0 0 0 127 0" result="hardAlpha"/>
<feOffset dx="-9.25228" dy="8.41117"/>
<feGaussianBlur stdDeviation="4.62614"/>
<feComposite in2="hardAlpha" operator="out"/>
<feColorMatrix type="matrix" values="0 0 0 0 0.980392 0 0 0 0 0.498039 0 0 0 0 0.0117647 0 0 0 0.79 0"/>
<feBlend mode="normal" in2="BackgroundImageFix" result="effect1_dropShadow_2413_28868"/>
<feBlend mode="normal" in="SourceGraphic" in2="effect1_dropShadow_2413_28868" result="shape"/>
</filter>
<filter id="filter3_d_2413_28868" x="-13.2748" y="24.5262" width="200.092" height="200.138" filterUnits="userSpaceOnUse" color-interpolation-filters="sRGB">
<feFlood flood-opacity="0" result="BackgroundImageFix"/>
<feColorMatrix in="SourceAlpha" type="matrix" values="0 0 0 0 0 0 0 0 0 0 0 0 0 0 0 0 0 0 127 0" result="hardAlpha"/>
<feOffset dx="-9.25228" dy="21.869"/>
<feGaussianBlur stdDeviation="12.6168"/>
<feComposite in2="hardAlpha" operator="out"/>
<feColorMatrix type="matrix" values="0 0 0 0 0.956863 0 0 0 0 0.419608 0 0 0 0 0.0862745 0 0 0 0.82 0"/>
<feBlend mode="normal" in2="BackgroundImageFix" result="effect1_dropShadow_2413_28868"/>
<feBlend mode="normal" in="SourceGraphic" in2="effect1_dropShadow_2413_28868" result="shape"/>
</filter>
<filter id="filter4_d_2413_28868" x="27.0708" y="43.0258" width="126.098" height="126.133" filterUnits="userSpaceOnUse" color-interpolation-filters="sRGB">
<feFlood flood-opacity="0" result="BackgroundImageFix"/>
<feColorMatrix in="SourceAlpha" type="matrix" values="0 0 0 0 0 0 0 0 0 0 0 0 0 0 0 0 0 0 127 0" result="hardAlpha"/>
<feOffset dx="-5.88782" dy="3.36447"/>
<feGaussianBlur stdDeviation="4.62614"/>
<feComposite in2="hardAlpha" operator="out"/>
<feColorMatrix type="matrix" values="0 0 0 0 0.968627 0 0 0 0 0.0470588 0 0 0 0 0.309804 0 0 0 1 0"/>
<feBlend mode="normal" in2="BackgroundImageFix" result="effect1_dropShadow_2413_28868"/>
<feBlend mode="normal" in="SourceGraphic" in2="effect1_dropShadow_2413_28868" result="shape"/>
</filter>
<filter id="filter5_di_2413_28868" x="53.1528" y="71.6245" width="78.1831" height="84.0919" filterUnits="userSpaceOnUse" color-interpolation-filters="sRGB">
<feFlood flood-opacity="0" result="BackgroundImageFix"/>
<feColorMatrix in="SourceAlpha" type="matrix" values="0 0 0 0 0 0 0 0 0 0 0 0 0 0 0 0 0 0 127 0" result="hardAlpha"/>
<feOffset dx="-5.0467" dy="7.57005"/>
<feGaussianBlur stdDeviation="3.78503"/>
<feComposite in2="hardAlpha" operator="out"/>
<feColorMatrix type="matrix" values="0 0 0 0 0.968627 0 0 0 0 0.113725 0 0 0 0 0.270588 0 0 0 1 0"/>
<feBlend mode="normal" in2="BackgroundImageFix" result="effect1_dropShadow_2413_28868"/>
<feBlend mode="normal" in="SourceGraphic" in2="effect1_dropShadow_2413_28868" result="shape"/>
<feColorMatrix in="SourceAlpha" type="matrix" values="0 0 0 0 0 0 0 0 0 0 0 0 0 0 0 0 0 0 127 0" result="hardAlpha"/>
<feOffset dx="-5.88782" dy="21.0279"/>
<feGaussianBlur stdDeviation="14.7195"/>
<feComposite in2="hardAlpha" operator="arithmetic" k2="-1" k3="1"/>
<feColorMatrix type="matrix" values="0 0 0 0 0.992157 0 0 0 0 0.584314 0 0 0 0 0.0784314 0 0 0 1 0"/>
<feBlend mode="normal" in2="shape" result="effect2_innerShadow_2413_28868"/>
</filter>
<linearGradient id="paint0_linear_2413_28868" x1="165.848" y1="-11.4286" x2="18.7915" y2="182.844" gradientUnits="userSpaceOnUse">
<stop stop-color="#FDD01F"/>
<stop offset="0.369907" stop-color="#FDD320"/>
<stop offset="0.496817" stop-color="#F8C240"/>
<stop offset="1" stop-color="#F8861B"/>
</linearGradient>
<linearGradient id="paint1_linear_2413_28868" x1="96" y1="0" x2="96" y2="192" gradientUnits="userSpaceOnUse">
<stop stop-color="#FDE77F"/>
<stop offset="1" stop-color="#F99D40"/>
</linearGradient>
<linearGradient id="paint2_linear_2413_28868" x1="30.4299" y1="19.858" x2="7.58852" y2="26.1477" gradientUnits="userSpaceOnUse">
<stop stop-color="#FCAF0C"/>
<stop offset="1" stop-color="#FCB50D" stop-opacity="0"/>
</linearGradient>
<linearGradient id="paint3_linear_2413_28868" x1="167.337" y1="29.0384" x2="177.544" y2="5.59122" gradientUnits="userSpaceOnUse">
<stop stop-color="#FFDD4D"/>
<stop offset="1" stop-color="#FEF4CB"/>
</linearGradient>
<linearGradient id="paint4_linear_2413_28868" x1="142.241" y1="31.2579" x2="156.117" y2="12.3429" gradientUnits="userSpaceOnUse">
<stop stop-color="#F97B04"/>
<stop offset="1" stop-color="#FEE43B"/>
</linearGradient>
<linearGradient id="paint5_linear_2413_28868" x1="157.792" y1="16.1226" x2="136.351" y2="35.4555" gradientUnits="userSpaceOnUse">
<stop stop-color="#FEF1AC"/>
<stop offset="1" stop-color="#FB7C06"/>
</linearGradient>
<linearGradient id="paint6_linear_2413_28868" x1="158.204" y1="16.1192" x2="153.579" y2="22.4242" gradientUnits="userSpaceOnUse">
<stop stop-color="#FEF3B3"/>
<stop offset="1" stop-color="#FEE43B"/>
</linearGradient>
<linearGradient id="paint7_linear_2413_28868" x1="145.198" y1="55.2183" x2="34.6309" y2="151.041" gradientUnits="userSpaceOnUse">
<stop stop-color="#FFBF26"/>
<stop offset="1" stop-color="#FF2872"/>
</linearGradient>
<linearGradient id="paint8_linear_2413_28868" x1="138.473" y1="73.2966" x2="90.1342" y2="95.1474" gradientUnits="userSpaceOnUse">
<stop stop-color="#FFE171"/>
<stop offset="0.516562" stop-color="#FE9A15"/>
<stop offset="1" stop-color="#FF2086" stop-opacity="0.49"/>
</linearGradient>
<linearGradient id="paint9_linear_2413_28868" x1="180.488" y1="69.5144" x2="33.3677" y2="140.11" gradientUnits="userSpaceOnUse">
<stop stop-color="#FFBF26"/>
<stop offset="1" stop-color="#FF2872"/>
</linearGradient>
<linearGradient id="paint10_linear_2413_28868" x1="126.534" y1="81.565" x2="74.1406" y2="123.733" gradientUnits="userSpaceOnUse">
<stop stop-color="#FFE171"/>
<stop offset="0.550196" stop-color="#FE9A15"/>
<stop offset="1" stop-color="#F92A4B" stop-opacity="0"/>
</linearGradient>
<linearGradient id="paint11_linear_2413_28868" x1="90.1466" y1="102.736" x2="170.038" y2="-24.6305" gradientUnits="userSpaceOnUse">
<stop stop-color="#FFBF26"/>
<stop offset="1" stop-color="#FF2872"/>
</linearGradient>
<linearGradient id="paint12_linear_2413_28868" x1="115.178" y1="90.7562" x2="60.2966" y2="123.742" gradientUnits="userSpaceOnUse">
<stop stop-color="#FFE171"/>
<stop offset="0.550196" stop-color="#FE9A15"/>
<stop offset="1" stop-color="#F92A4B"/>
</linearGradient>
<clipPath id="clip0_2413_28868">
<path d="M0 63.75C0 33.698 0 18.6719 9.33597 9.33597C18.6719 0 33.698 0 63.75 0H128.25C158.302 0 173.328 0 182.664 9.33597C192 18.6719 192 33.698 192 63.75V128.25C192 158.302 192 173.328 182.664 182.664C173.328 192 158.302 192 128.25 192H63.75C33.698 192 18.6719 192 9.33597 182.664C0 173.328 0 158.302 0 128.25V63.75Z" fill="white"/>
</clipPath>
</defs>
</svg>
