<svg width="57" height="174" viewBox="0 0 57 174" fill="none" xmlns="http://www.w3.org/2000/svg">
<g clip-path="url(#clip0_1214_6390)">
<g clip-path="url(#clip1_1214_6390)">
<g clip-path="url(#clip2_1214_6390)">
<path d="M28.8555 111V1" stroke="url(#paint0_linear_1214_6390)" stroke-width="2.15198" stroke-linecap="round"/>
<path d="M28.3152 159.247C41.6859 159.247 52.5249 148.408 52.5249 135.037C52.5249 121.666 41.6859 110.827 28.3152 110.827C14.9445 110.827 4.10547 121.666 4.10547 135.037C4.10547 148.408 14.9445 159.247 28.3152 159.247Z" fill="url(#paint1_linear_1214_6390)"/>
<g filter="url(#filter0_f_1214_6390)">
<path d="M51.9869 135.037C51.9869 148.11 41.3887 158.709 28.3152 158.709C15.2417 158.709 4.64346 148.11 4.64346 135.037C4.64346 121.963 15.2417 111.365 28.3152 111.365C41.3887 111.365 51.9869 121.963 51.9869 135.037Z" stroke="url(#paint2_linear_1214_6390)" stroke-width="1.07599"/>
</g>
<path d="M23.7194 142.738V140.027L29.0649 135.185C29.4006 134.862 29.6717 134.533 29.8783 134.197C30.0849 133.861 30.1882 133.487 30.1882 133.074C30.1882 132.583 30.0332 132.189 29.7234 131.892C29.4135 131.582 29.0003 131.427 28.4838 131.427C27.9415 131.427 27.4961 131.621 27.1475 132.009C26.8117 132.383 26.6116 132.88 26.547 133.5L23.4288 133.074C23.5063 132.377 23.6935 131.757 23.9905 131.214C24.3004 130.672 24.6877 130.214 25.1526 129.839C25.6174 129.452 26.1468 129.161 26.7407 128.968C27.3476 128.761 27.9867 128.658 28.6581 128.658C29.2908 128.658 29.9041 128.742 30.4981 128.91C31.092 129.078 31.6214 129.336 32.0862 129.684C32.5511 130.033 32.919 130.472 33.1902 131.001C33.4743 131.531 33.6163 132.151 33.6163 132.861C33.6163 133.351 33.5517 133.797 33.4226 134.197C33.2935 134.584 33.1127 134.946 32.8803 135.282C32.6608 135.617 32.4026 135.934 32.1056 136.231C31.8215 136.515 31.5246 136.799 31.2147 137.083L28.0384 139.911H33.6357V142.738H23.7194Z" fill="white"/>
</g>
</g>
</g>
<defs>
<filter id="filter0_f_1214_6390" x="-0.198483" y="106.523" width="57.0259" height="57.0273" filterUnits="userSpaceOnUse" color-interpolation-filters="sRGB">
<feFlood flood-opacity="0" result="BackgroundImageFix"/>
<feBlend mode="normal" in="SourceGraphic" in2="BackgroundImageFix" result="shape"/>
<feGaussianBlur stdDeviation="2.15198" result="effect1_foregroundBlur_1214_6390"/>
</filter>
<linearGradient id="paint0_linear_1214_6390" x1="30.3555" y1="75.8106" x2="64.0509" y2="49.5847" gradientUnits="userSpaceOnUse">
<stop stop-color="#1EB941"/>
<stop offset="1" stop-color="#1EB941" stop-opacity="0"/>
</linearGradient>
<linearGradient id="paint1_linear_1214_6390" x1="23.355" y1="111" x2="24.3693" y2="79.3785" gradientUnits="userSpaceOnUse">
<stop stop-color="#1EB941"/>
<stop offset="1" stop-color="#1EB941" stop-opacity="0"/>
</linearGradient>
<linearGradient id="paint2_linear_1214_6390" x1="76.7343" y1="143.757" x2="77.0916" y2="113.161" gradientUnits="userSpaceOnUse">
<stop stop-color="#1EB941"/>
<stop offset="1" stop-color="#1EB941" stop-opacity="0"/>
</linearGradient>
<clipPath id="clip0_1214_6390">
<rect width="55.9514" height="173.234" fill="white" transform="translate(0.878906)"/>
</clipPath>
<clipPath id="clip1_1214_6390">
<rect width="59.1793" height="163.55" fill="white" transform="translate(-0.195312)"/>
</clipPath>
<clipPath id="clip2_1214_6390">
<rect width="75.3191" height="164.626" fill="white" transform="translate(-2.34766)"/>
</clipPath>
</defs>
</svg>
