<svg width="33" height="17" viewBox="0 0 33 17" fill="none" xmlns="http://www.w3.org/2000/svg">
<rect x="1.09082" y="1" width="31" height="15" rx="2.72727" fill="#2666AC"/>
<rect x="0.749911" y="0.659091" width="31.6818" height="15.6818" rx="3.06818" stroke="black" stroke-opacity="0.1" stroke-width="0.681818"/>
<mask id="path-3-outside-1_509_17488" maskUnits="userSpaceOnUse" x="3.61719" y="3.5" width="23" height="10" fill="black">
<rect fill="white" x="3.61719" y="3.5" width="23" height="10"/>
<path d="M5.89861 4.56166H6.46591L7.5965 7.5H7.01522L6.78551 6.89475H5.587L5.3473 7.5H4.76602L5.89861 4.56166ZM6.18625 5.34069L5.79474 6.34943H6.57577L6.18625 5.34069ZM8.31561 4.56166H8.86293L9.54208 6.61111L10.2312 4.56166H10.7706L11.2659 7.5H10.7266L10.411 5.64431L9.78578 7.5H9.29239L8.67516 5.64431L8.35356 7.5H7.80824L8.31561 4.56166ZM11.7174 4.56166H13.3214V5.10898H12.2727V5.64031H13.3214V6.17765H12.2727V6.95068H13.3214V7.5H11.7174V4.56166ZM13.8827 4.56166H14.4759C14.8009 4.56166 15.0319 4.59095 15.1691 4.64955C15.3076 4.70681 15.4188 4.80269 15.5027 4.93719C15.5866 5.07169 15.6285 5.23082 15.6285 5.4146C15.6285 5.60769 15.5819 5.76949 15.4887 5.89999C15.3968 6.02916 15.2576 6.12704 15.0712 6.19363L15.7663 7.5H15.1551L14.4939 6.25555H14.442V7.5H13.8827V4.56166ZM14.442 5.71023H14.6178C14.7962 5.71023 14.9187 5.68692 14.9853 5.64031C15.0532 5.59371 15.0872 5.51647 15.0872 5.4086C15.0872 5.34468 15.0705 5.28942 15.0372 5.24281C15.004 5.19487 14.9593 5.16091 14.9034 5.14094C14.8475 5.11963 14.7449 5.10898 14.5958 5.10898H14.442V5.71023ZM16.1778 4.56166H16.7331V7.5H16.1778V4.56166ZM20.065 5.07901L19.6735 5.45255C19.4071 5.17156 19.1075 5.03107 18.7746 5.03107C18.4936 5.03107 18.2566 5.12695 18.0635 5.31871C17.8717 5.51048 17.7758 5.74685 17.7758 6.02783C17.7758 6.22359 17.8184 6.39737 17.9037 6.54918C17.9889 6.70099 18.1094 6.82018 18.2652 6.90674C18.421 6.9933 18.5941 7.03658 18.7846 7.03658C18.947 7.03658 19.0955 7.00661 19.23 6.94669C19.3645 6.88543 19.5123 6.7749 19.6735 6.6151L20.053 7.01061C19.8359 7.22235 19.6309 7.3695 19.4378 7.45206C19.2447 7.53329 19.0243 7.57391 18.7766 7.57391C18.3198 7.57391 17.9456 7.42942 17.654 7.14045C17.3637 6.85014 17.2185 6.4786 17.2185 6.02583C17.2185 5.73287 17.2844 5.47252 17.4163 5.24481C17.5494 5.01709 17.7392 4.83398 17.9856 4.69549C18.2333 4.557 18.4996 4.48775 18.7846 4.48775C19.0269 4.48775 19.26 4.53902 19.4837 4.64156C19.7088 4.7441 19.9025 4.88991 20.065 5.07901ZM21.4513 4.56166H22.0186L23.1492 7.5H22.5679L22.3382 6.89475H21.1397L20.8999 7.5H20.3187L21.4513 4.56166ZM21.7389 5.34069L21.3474 6.34943H22.1284L21.7389 5.34069ZM23.5866 4.56166H24.1219L25.3824 6.49525V4.56166H25.9417V7.5H25.4043L24.1459 5.5724V7.5H23.5866V4.56166ZM10.6467 9.56166H12.2507V10.109H11.202V10.6403H12.2507V11.1776H11.202V11.9507H12.2507V12.5H10.6467V9.56166ZM12.5823 9.56166H13.2115L13.8267 10.5025L14.448 9.56166H15.0772L14.1424 10.9839L15.1351 12.5H14.5059L13.8267 11.4673L13.1536 12.5H12.5204L13.5131 10.9839L12.5823 9.56166ZM15.5566 9.56166H16.1499C16.4708 9.56166 16.7018 9.59162 16.843 9.65154C16.9855 9.71014 17.0973 9.80602 17.1786 9.93919C17.2611 10.071 17.3024 10.2295 17.3024 10.4146C17.3024 10.6197 17.2485 10.7901 17.1406 10.926C17.0341 11.0618 16.8889 11.1563 16.7052 11.2096C16.5973 11.2402 16.4009 11.2555 16.1159 11.2555V12.5H15.5566V9.56166ZM16.1159 10.7102H16.2937C16.4335 10.7102 16.5307 10.7002 16.5853 10.6803C16.6399 10.6603 16.6825 10.6277 16.7132 10.5824C16.7451 10.5358 16.7611 10.4798 16.7611 10.4146C16.7611 10.3014 16.7172 10.2188 16.6293 10.1669C16.5653 10.1283 16.4468 10.109 16.2737 10.109H16.1159V10.7102ZM17.8897 9.56166H18.483C18.8079 9.56166 19.0389 9.59095 19.1761 9.64955C19.3146 9.70681 19.4258 9.80269 19.5097 9.93719C19.5936 10.0717 19.6355 10.2308 19.6355 10.4146C19.6355 10.6077 19.5889 10.7695 19.4957 10.9C19.4038 11.0292 19.2646 11.127 19.0782 11.1936L19.7734 12.5H19.1621L18.5009 11.2555H18.449V12.5H17.8897V9.56166ZM18.449 10.7102H18.6248C18.8032 10.7102 18.9257 10.6869 18.9923 10.6403C19.0602 10.5937 19.0942 10.5165 19.0942 10.4086C19.0942 10.3447 19.0775 10.2894 19.0443 10.2428C19.011 10.1949 18.9664 10.1609 18.9104 10.1409C18.8545 10.1196 18.752 10.109 18.6028 10.109H18.449V10.7102ZM20.2268 9.56166H21.8308V10.109H20.7821V10.6403H21.8308V11.1776H20.7821V11.9507H21.8308V12.5H20.2268V9.56166ZM23.8942 9.96116L23.4807 10.3267C23.3356 10.1243 23.1878 10.0231 23.0373 10.0231C22.964 10.0231 22.9041 10.0431 22.8575 10.083C22.8109 10.1216 22.7876 10.1656 22.7876 10.2148C22.7876 10.2641 22.8042 10.3107 22.8375 10.3547C22.8828 10.4133 23.0193 10.5391 23.247 10.7322C23.4601 10.9106 23.5893 11.0232 23.6345 11.0698C23.7477 11.1843 23.8276 11.2942 23.8742 11.3994C23.9222 11.5032 23.9462 11.6171 23.9462 11.7409C23.9462 11.982 23.8629 12.1811 23.6965 12.3382C23.53 12.4953 23.3129 12.5739 23.0453 12.5739C22.8362 12.5739 22.6538 12.5226 22.498 12.4201C22.3435 12.3176 22.211 12.1564 22.1005 11.9367L22.5699 11.6531C22.711 11.9127 22.8735 12.0426 23.0573 12.0426C23.1531 12.0426 23.2337 12.0146 23.299 11.9587C23.3642 11.9027 23.3968 11.8382 23.3968 11.7649C23.3968 11.6983 23.3722 11.6317 23.3229 11.5652C23.2737 11.4986 23.1651 11.3967 22.9973 11.2595C22.6777 10.9985 22.4713 10.7975 22.3781 10.6563C22.2849 10.5138 22.2383 10.372 22.2383 10.2308C22.2383 10.0271 22.3155 9.85263 22.47 9.70748C22.6258 9.56099 22.8176 9.48775 23.0453 9.48775C23.1918 9.48775 23.3309 9.52171 23.4628 9.58962C23.5959 9.65754 23.7397 9.78138 23.8942 9.96116ZM26.0236 9.96116L25.6101 10.3267C25.4649 10.1243 25.3171 10.0231 25.1666 10.0231C25.0934 10.0231 25.0335 10.0431 24.9869 10.083C24.9403 10.1216 24.917 10.1656 24.917 10.2148C24.917 10.2641 24.9336 10.3107 24.9669 10.3547C25.0122 10.4133 25.1487 10.5391 25.3764 10.7322C25.5895 10.9106 25.7186 11.0232 25.7639 11.0698C25.8771 11.1843 25.957 11.2942 26.0036 11.3994C26.0515 11.5032 26.0755 11.6171 26.0755 11.7409C26.0755 11.982 25.9923 12.1811 25.8258 12.3382C25.6594 12.4953 25.4423 12.5739 25.1746 12.5739C24.9656 12.5739 24.7831 12.5226 24.6273 12.4201C24.4728 12.3176 24.3403 12.1564 24.2298 11.9367L24.6992 11.6531C24.8404 11.9127 25.0028 12.0426 25.1866 12.0426C25.2825 12.0426 25.3631 12.0146 25.4283 11.9587C25.4936 11.9027 25.5262 11.8382 25.5262 11.7649C25.5262 11.6983 25.5016 11.6317 25.4523 11.5652C25.403 11.4986 25.2945 11.3967 25.1267 11.2595C24.8071 10.9985 24.6007 10.7975 24.5075 10.6563C24.4142 10.5138 24.3676 10.372 24.3676 10.2308C24.3676 10.0271 24.4449 9.85263 24.5993 9.70748C24.7552 9.56099 24.9469 9.48775 25.1746 9.48775C25.3211 9.48775 25.4603 9.52171 25.5921 9.58962C25.7253 9.65754 25.8691 9.78138 26.0236 9.96116Z"/>
</mask>
<path d="M5.89861 4.56166V4.10711C5.71066 4.10711 5.54208 4.2228 5.47448 4.39818L5.89861 4.56166ZM6.46591 4.56166L6.89013 4.39843C6.8226 4.22291 6.65396 4.10711 6.46591 4.10711V4.56166ZM7.5965 7.5V7.95455C7.74627 7.95455 7.88642 7.88077 7.9712 7.75731C8.05598 7.63385 8.07451 7.47655 8.02073 7.33677L7.5965 7.5ZM7.01522 7.5L6.59026 7.66129C6.65726 7.83782 6.82641 7.95455 7.01522 7.95455V7.5ZM6.78551 6.89475L7.21048 6.73346C7.14348 6.55693 6.97432 6.44021 6.78551 6.44021V6.89475ZM5.587 6.89475V6.44021C5.40057 6.44021 5.23304 6.55405 5.16439 6.72738L5.587 6.89475ZM5.3473 7.5V7.95455C5.53373 7.95455 5.70126 7.8407 5.76991 7.66737L5.3473 7.5ZM4.76602 7.5L4.34189 7.33652C4.28801 7.47631 4.30647 7.63367 4.39124 7.7572C4.47601 7.88072 4.61621 7.95455 4.76602 7.95455V7.5ZM6.18625 5.34069L6.61029 5.17695C6.54267 5.00184 6.37436 4.8863 6.18665 4.88614C5.99893 4.88598 5.83043 5.00123 5.76251 5.17622L6.18625 5.34069ZM5.79474 6.34943L5.37099 6.18497C5.31672 6.32481 5.33493 6.48242 5.41966 6.6062C5.5044 6.72997 5.64474 6.80398 5.79474 6.80398V6.34943ZM6.57577 6.34943V6.80398C6.72563 6.80398 6.86587 6.73011 6.95063 6.60652C7.03539 6.48293 7.05379 6.3255 6.9998 6.1857L6.57577 6.34943ZM5.89861 5.0162H6.46591V4.10711H5.89861V5.0162ZM6.04168 4.72489L7.17227 7.66323L8.02073 7.33677L6.89013 4.39843L6.04168 4.72489ZM7.5965 7.04545H7.01522V7.95455H7.5965V7.04545ZM7.44019 7.33871L7.21048 6.73346L6.36054 7.05604L6.59026 7.66129L7.44019 7.33871ZM6.78551 6.44021H5.587V7.3493H6.78551V6.44021ZM5.16439 6.72738L4.92469 7.33263L5.76991 7.66737L6.00961 7.06212L5.16439 6.72738ZM5.3473 7.04545H4.76602V7.95455H5.3473V7.04545ZM5.19015 7.66348L6.32274 4.72514L5.47448 4.39818L4.34189 7.33652L5.19015 7.66348ZM5.76251 5.17622L5.37099 6.18497L6.21849 6.5139L6.61 5.50515L5.76251 5.17622ZM5.79474 6.80398H6.57577V5.89489H5.79474V6.80398ZM6.9998 6.1857L6.61029 5.17695L5.76222 5.50442L6.15174 6.51317L6.9998 6.1857ZM8.31561 4.56166V4.10711C8.09441 4.10711 7.90533 4.26634 7.86769 4.48431L8.31561 4.56166ZM8.86292 4.56166L9.2944 4.41867C9.23276 4.23268 9.05887 4.10711 8.86292 4.10711V4.56166ZM9.54208 6.61111L9.11061 6.75409C9.17213 6.93974 9.34551 7.06522 9.54108 7.06565C9.73666 7.06608 9.91059 6.94136 9.97292 6.75598L9.54208 6.61111ZM10.2312 4.56166V4.10711C10.036 4.10711 9.8626 4.23175 9.80038 4.41678L10.2312 4.56166ZM10.7706 4.56166L11.2188 4.48609C11.1819 4.2673 10.9924 4.10711 10.7706 4.10711V4.56166ZM11.2659 7.5V7.95455C11.3997 7.95455 11.5267 7.89563 11.613 7.79348C11.6994 7.69134 11.7364 7.55634 11.7142 7.42443L11.2659 7.5ZM10.7266 7.5L10.2785 7.57621C10.3157 7.7947 10.505 7.95455 10.7266 7.95455V7.5ZM10.411 5.64431L10.8591 5.5681C10.8242 5.36276 10.6542 5.20744 10.4465 5.19116C10.2389 5.17487 10.0467 5.3018 9.98025 5.49918L10.411 5.64431ZM9.78578 7.5V7.95455C9.98089 7.95455 10.1542 7.83003 10.2165 7.64513L9.78578 7.5ZM9.29239 7.5L8.86108 7.64346C8.92286 7.82921 9.09663 7.95455 9.29239 7.95455V7.5ZM8.67516 5.64431L9.10647 5.50085C9.04071 5.30315 8.84897 5.17547 8.64121 5.19103C8.43345 5.20659 8.26287 5.36141 8.22729 5.56669L8.67516 5.64431ZM8.35356 7.5V7.95455C8.57465 7.95455 8.76368 7.79546 8.80143 7.57762L8.35356 7.5ZM7.80824 7.5L7.36032 7.42266C7.33751 7.55478 7.37419 7.69024 7.46055 7.79279C7.54692 7.89535 7.67416 7.95455 7.80824 7.95455V7.5ZM8.31561 5.0162H8.86292V4.10711H8.31561V5.0162ZM8.43145 4.70464L9.11061 6.75409L9.97355 6.46812L9.2944 4.41867L8.43145 4.70464ZM9.97292 6.75598L10.6621 4.70653L9.80038 4.41678L9.11124 6.46623L9.97292 6.75598ZM10.2312 5.0162H10.7706V4.10711H10.2312V5.0162ZM10.3223 4.63722L10.8177 7.57557L11.7142 7.42443L11.2188 4.48609L10.3223 4.63722ZM11.2659 7.04545H10.7266V7.95455H11.2659V7.04545ZM11.1747 7.42379L10.8591 5.5681L9.96289 5.72052L10.2785 7.57621L11.1747 7.42379ZM9.98025 5.49918L9.35502 7.35487L10.2165 7.64513L10.8418 5.78944L9.98025 5.49918ZM9.78578 7.04545H9.29239V7.95455H9.78578V7.04545ZM9.7237 7.35654L9.10647 5.50085L8.24385 5.78777L8.86108 7.64346L9.7237 7.35654ZM8.22729 5.56669L7.90569 7.42238L8.80143 7.57762L9.12303 5.72193L8.22729 5.56669ZM8.35356 7.04545H7.80824V7.95455H8.35356V7.04545ZM8.25616 7.57734L8.76352 4.639L7.86769 4.48431L7.36032 7.42266L8.25616 7.57734ZM11.7174 4.56166V4.10711C11.4663 4.10711 11.2628 4.31062 11.2628 4.56166H11.7174ZM13.3214 4.56166H13.7759C13.7759 4.31062 13.5724 4.10711 13.3214 4.10711V4.56166ZM13.3214 5.10898V5.56352C13.5724 5.56352 13.7759 5.36001 13.7759 5.10898H13.3214ZM12.2727 5.10898V4.65443C12.0216 4.65443 11.8181 4.85794 11.8181 5.10898H12.2727ZM12.2727 5.64031H11.8181C11.8181 5.89135 12.0216 6.09486 12.2727 6.09486V5.64031ZM13.3214 5.64031H13.7759C13.7759 5.38928 13.5724 5.18577 13.3214 5.18577V5.64031ZM13.3214 6.17765V6.63219C13.5724 6.63219 13.7759 6.42868 13.7759 6.17765H13.3214ZM12.2727 6.17765V5.7231C12.0216 5.7231 11.8181 5.92661 11.8181 6.17765H12.2727ZM12.2727 6.95068H11.8181C11.8181 7.20172 12.0216 7.40523 12.2727 7.40523V6.95068ZM13.3214 6.95068H13.7759C13.7759 6.69965 13.5724 6.49614 13.3214 6.49614V6.95068ZM13.3214 7.5V7.95455C13.5724 7.95455 13.7759 7.75104 13.7759 7.5H13.3214ZM11.7174 7.5H11.2628C11.2628 7.75104 11.4663 7.95455 11.7174 7.95455V7.5ZM11.7174 5.0162H13.3214V4.10711H11.7174V5.0162ZM12.8668 4.56166V5.10898H13.7759V4.56166H12.8668ZM13.3214 4.65443H12.2727V5.56352H13.3214V4.65443ZM11.8181 5.10898V5.64031H12.7272V5.10898H11.8181ZM12.2727 6.09486H13.3214V5.18577H12.2727V6.09486ZM12.8668 5.64031V6.17765H13.7759V5.64031H12.8668ZM13.3214 5.7231H12.2727V6.63219H13.3214V5.7231ZM11.8181 6.17765V6.95068H12.7272V6.17765H11.8181ZM12.2727 7.40523H13.3214V6.49614H12.2727V7.40523ZM12.8668 6.95068V7.5H13.7759V6.95068H12.8668ZM13.3214 7.04545H11.7174V7.95455H13.3214V7.04545ZM12.1719 7.5V4.56166H11.2628V7.5H12.1719ZM13.8827 4.56166V4.10711C13.6316 4.10711 13.4281 4.31062 13.4281 4.56166H13.8827ZM15.1691 4.64955L14.9905 5.06758L14.9954 5.0696L15.1691 4.64955ZM15.4887 5.89999L15.1188 5.63579L15.1183 5.63651L15.4887 5.89999ZM15.0712 6.19363L14.9183 5.76556C14.7939 5.80999 14.695 5.90633 14.6473 6.02952C14.5996 6.1527 14.6079 6.29054 14.6699 6.40715L15.0712 6.19363ZM15.7663 7.5V7.95455C15.9259 7.95455 16.0738 7.87085 16.156 7.73405C16.2382 7.59724 16.2426 7.42736 16.1676 7.28648L15.7663 7.5ZM15.1551 7.5L14.7537 7.71327C14.8326 7.86174 14.987 7.95455 15.1551 7.95455V7.5ZM14.4939 6.25555L14.8953 6.04228C14.8164 5.89381 14.662 5.801 14.4939 5.801V6.25555ZM14.442 6.25555V5.801C14.1909 5.801 13.9874 6.00451 13.9874 6.25555H14.442ZM14.442 7.5V7.95455C14.693 7.95455 14.8965 7.75104 14.8965 7.5H14.442ZM13.8827 7.5H13.4281C13.4281 7.75104 13.6316 7.95455 13.8827 7.95455V7.5ZM14.442 5.71023H13.9874C13.9874 5.96127 14.1909 6.16477 14.442 6.16477V5.71023ZM14.9853 5.64031L14.7281 5.26552L14.7246 5.26794L14.9853 5.64031ZM15.0372 5.24281L14.6639 5.5021L14.6674 5.50701L15.0372 5.24281ZM14.9034 5.14094L14.7416 5.5658L14.7505 5.569L14.9034 5.14094ZM14.442 5.10898V4.65443C14.1909 4.65443 13.9874 4.85794 13.9874 5.10898H14.442ZM13.8827 5.0162H14.4759V4.10711H13.8827V5.0162ZM14.4759 5.0162C14.795 5.0162 14.9449 5.04805 14.9905 5.06755L15.3476 4.23154C15.119 4.13386 14.8068 4.10711 14.4759 4.10711V5.0162ZM14.9954 5.0696C15.041 5.08846 15.0802 5.11881 15.117 5.17775L15.8883 4.69662C15.7573 4.48657 15.5741 4.32516 15.3428 4.22949L14.9954 5.0696ZM15.117 5.17775C15.1491 5.22921 15.174 5.30207 15.174 5.4146H16.0831C16.0831 5.15957 16.024 4.91417 15.8883 4.69662L15.117 5.17775ZM15.174 5.4146C15.174 5.53269 15.1465 5.59702 15.1188 5.63579L15.8586 6.16419C16.0173 5.94195 16.0831 5.68268 16.0831 5.4146H15.174ZM15.1183 5.63651C15.0924 5.67284 15.0391 5.72243 14.9183 5.76556L15.2241 6.62169C15.4762 6.53165 15.7011 6.38549 15.8591 6.16347L15.1183 5.63651ZM14.6699 6.40715L15.3651 7.71352L16.1676 7.28648L15.4725 5.9801L14.6699 6.40715ZM15.7663 7.04545H15.1551V7.95455H15.7663V7.04545ZM15.5565 7.28673L14.8953 6.04228L14.0925 6.46882L14.7537 7.71327L15.5565 7.28673ZM14.4939 5.801H14.442V6.71009H14.4939V5.801ZM13.9874 6.25555V7.5H14.8965V6.25555H13.9874ZM14.442 7.04545H13.8827V7.95455H14.442V7.04545ZM14.3372 7.5V4.56166H13.4281V7.5H14.3372ZM14.442 6.16477H14.6178V5.25568H14.442V6.16477ZM14.6178 6.16477C14.7244 6.16477 14.8301 6.158 14.9284 6.13929C15.0224 6.12141 15.1395 6.08724 15.246 6.01269L14.7246 5.26794C14.7464 5.25267 14.7627 5.24623 14.7673 5.24456C14.772 5.2428 14.77 5.24404 14.7585 5.24621C14.7344 5.2508 14.6896 5.25568 14.6178 5.25568V6.16477ZM15.2425 6.01509C15.471 5.85826 15.5417 5.61484 15.5417 5.4086H14.6326C14.6326 5.41642 14.6312 5.39719 14.6456 5.36449C14.6618 5.3276 14.6905 5.29134 14.7281 5.26554L15.2425 6.01509ZM15.5417 5.4086C15.5417 5.26143 15.5018 5.11116 15.4071 4.97861L14.6674 5.50701C14.6549 5.48951 14.6454 5.46995 14.6395 5.45031C14.6337 5.43113 14.6326 5.41633 14.6326 5.4086H15.5417ZM15.4106 4.98354C15.3222 4.85626 15.1998 4.76414 15.0563 4.71287L14.7505 5.569C14.7371 5.56422 14.7205 5.55601 14.7035 5.54307C14.6864 5.53008 14.6732 5.51555 14.6639 5.50208L15.4106 4.98354ZM15.0652 4.71617C14.9221 4.66165 14.7416 4.65443 14.5958 4.65443V5.56352C14.6609 5.56352 14.7071 5.56591 14.7376 5.56908C14.7525 5.57063 14.7605 5.57204 14.7629 5.57253C14.766 5.57317 14.7575 5.57175 14.7416 5.5657L15.0652 4.71617ZM14.5958 4.65443H14.442V5.56352H14.5958V4.65443ZM13.9874 5.10898V5.71023H14.8965V5.10898H13.9874ZM16.1778 4.56166V4.10711C15.9268 4.10711 15.7233 4.31062 15.7233 4.56166H16.1778ZM16.7331 4.56166H17.1877C17.1877 4.31062 16.9842 4.10711 16.7331 4.10711V4.56166ZM16.7331 7.5V7.95455C16.9842 7.95455 17.1877 7.75104 17.1877 7.5H16.7331ZM16.1778 7.5H15.7233C15.7233 7.75104 15.9268 7.95455 16.1778 7.95455V7.5ZM16.1778 5.0162H16.7331V4.10711H16.1778V5.0162ZM16.2786 4.56166V7.5H17.1877V4.56166H16.2786ZM16.7331 7.04545H16.1778V7.95455H16.7331V7.04545ZM16.6324 7.5V4.56166H15.7233V7.5H16.6324ZM20.065 5.07901L20.3788 5.40789C20.5537 5.24095 20.5674 4.96623 20.4098 4.7828L20.065 5.07901ZM19.6735 5.45255L19.3436 5.76525C19.4267 5.85293 19.5413 5.90391 19.6621 5.90695C19.7828 5.90999 19.8998 5.86482 19.9872 5.78142L19.6735 5.45255ZM18.0635 5.31871L17.7432 4.99619L17.7421 4.9973L18.0635 5.31871ZM19.23 6.94669L19.415 7.3619L19.4184 7.36035L19.23 6.94669ZM19.6735 6.6151L20.0014 6.30038C19.9171 6.21246 19.8009 6.1621 19.6791 6.16059C19.5573 6.15908 19.4399 6.20656 19.3534 6.29236L19.6735 6.6151ZM20.053 7.01061L20.3704 7.33599C20.5491 7.16171 20.5538 6.87597 20.381 6.69589L20.053 7.01061ZM19.4378 7.45206L19.614 7.87105L19.6165 7.87L19.4378 7.45206ZM17.654 7.14045L17.3326 7.46186L17.334 7.46333L17.654 7.14045ZM17.4163 5.24481L17.0239 5.01534L17.0229 5.01706L17.4163 5.24481ZM17.9856 4.69549L17.7637 4.29875L17.7628 4.29926L17.9856 4.69549ZM19.4837 4.64156L19.2943 5.05477L19.2952 5.05519L19.4837 4.64156ZM19.7512 4.75014L19.3597 5.12367L19.9872 5.78142L20.3788 5.40789L19.7512 4.75014ZM20.0034 5.13985C19.6664 4.78439 19.2528 4.57653 18.7746 4.57653V5.48562C18.9622 5.48562 19.1478 5.55874 19.3436 5.76525L20.0034 5.13985ZM18.7746 4.57653C18.378 4.57653 18.0245 4.71684 17.7432 4.99619L18.3838 5.64124C18.4887 5.53706 18.6093 5.48562 18.7746 5.48562V4.57653ZM17.7421 4.9973C17.4617 5.27768 17.3213 5.63116 17.3213 6.02783H18.2304C18.2304 5.86254 18.2817 5.74327 18.3849 5.64013L17.7421 4.9973ZM17.3213 6.02783C17.3213 6.29165 17.3794 6.54381 17.5073 6.7717L18.3 6.32667C18.2575 6.25093 18.2304 6.15553 18.2304 6.02783H17.3213ZM17.5073 6.7717C17.6348 6.99874 17.8169 7.17766 18.0445 7.30408L18.486 6.50939C18.4019 6.4627 18.343 6.40325 18.3 6.32667L17.5073 6.7717ZM18.0445 7.30408C18.2724 7.43072 18.5224 7.49112 18.7846 7.49112V6.58203C18.6659 6.58203 18.5696 6.55588 18.486 6.50939L18.0445 7.30408ZM18.7846 7.49112C19.0041 7.49112 19.2165 7.45032 19.415 7.36189L19.045 6.53149C18.9745 6.5629 18.8899 6.58203 18.7846 6.58203V7.49112ZM19.4184 7.36035C19.6208 7.2682 19.8125 7.11741 19.9935 6.93784L19.3534 6.29236C19.2122 6.43239 19.1083 6.50266 19.0416 6.53303L19.4184 7.36035ZM19.3455 6.92982L19.725 7.32533L20.381 6.69589L20.0014 6.30038L19.3455 6.92982ZM19.7356 6.68523C19.5424 6.87373 19.3832 6.98106 19.2591 7.03412L19.6165 7.87C19.8786 7.75793 20.1295 7.57096 20.3704 7.33599L19.7356 6.68523ZM19.2615 7.03308C19.1334 7.08696 18.9746 7.11936 18.7766 7.11936V8.02845C19.074 8.02845 19.3559 7.97962 19.614 7.87104L19.2615 7.03308ZM18.7766 7.11936C18.4249 7.11936 18.1705 7.01235 17.9739 6.81756L17.334 7.46333C17.7207 7.84649 18.2147 8.02845 18.7766 8.02845V7.11936ZM17.9754 6.81904C17.7795 6.62314 17.6731 6.37166 17.6731 6.02583H16.764C16.764 6.58555 16.9479 7.07715 17.3326 7.46186L17.9754 6.81904ZM17.6731 6.02583C17.6731 5.80355 17.7223 5.62344 17.8097 5.47255L17.0229 5.01706C16.8466 5.32161 16.764 5.66218 16.764 6.02583H17.6731ZM17.8087 5.47427C17.8982 5.32119 18.0271 5.19359 18.2083 5.09172L17.7628 4.29926C17.4513 4.47438 17.2007 4.71299 17.0239 5.01535L17.8087 5.47427ZM18.2074 5.09223C18.387 4.99181 18.5769 4.94229 18.7846 4.94229V4.0332C18.4223 4.0332 18.0795 4.12218 17.7637 4.29875L18.2074 5.09223ZM18.7846 4.94229C18.9605 4.94229 19.1291 4.97903 19.2943 5.05477L19.6731 4.22835C19.3909 4.099 19.0933 4.0332 18.7846 4.0332V4.94229ZM19.2952 5.05519C19.4598 5.13017 19.6004 5.23573 19.7202 5.37523L20.4098 4.7828C20.2047 4.5441 19.9577 4.35803 19.6722 4.22792L19.2952 5.05519ZM21.4513 4.56166V4.10711C21.2633 4.10711 21.0947 4.2228 21.0271 4.39818L21.4513 4.56166ZM22.0186 4.56166L22.4428 4.39843C22.3753 4.22291 22.2066 4.10711 22.0186 4.10711V4.56166ZM23.1492 7.5V7.95455C23.2989 7.95455 23.4391 7.88077 23.5239 7.75731C23.6086 7.63385 23.6272 7.47655 23.5734 7.33677L23.1492 7.5ZM22.5679 7.5L22.1429 7.66129C22.2099 7.83782 22.3791 7.95455 22.5679 7.95455V7.5ZM22.3382 6.89475L22.7631 6.73346C22.6961 6.55693 22.527 6.44021 22.3382 6.44021V6.89475ZM21.1397 6.89475V6.44021C20.9532 6.44021 20.7857 6.55405 20.717 6.72738L21.1397 6.89475ZM20.8999 7.5V7.95455C21.0864 7.95455 21.2539 7.8407 21.3226 7.66737L20.8999 7.5ZM20.3187 7.5L19.8945 7.33652C19.8407 7.47631 19.8591 7.63367 19.9439 7.7572C20.0287 7.88072 20.1689 7.95455 20.3187 7.95455V7.5ZM21.7389 5.34069L22.1629 5.17695C22.0953 5.00184 21.927 4.8863 21.7393 4.88614C21.5516 4.88598 21.3831 5.00123 21.3152 5.17622L21.7389 5.34069ZM21.3474 6.34943L20.9236 6.18497C20.8694 6.32481 20.8876 6.48242 20.9723 6.6062C21.057 6.72997 21.1974 6.80398 21.3474 6.80398V6.34943ZM22.1284 6.34943V6.80398C22.2783 6.80398 22.4185 6.73011 22.5033 6.60652C22.588 6.48293 22.6064 6.3255 22.5525 6.1857L22.1284 6.34943ZM21.4513 5.0162H22.0186V4.10711H21.4513V5.0162ZM21.5943 4.72489L22.7249 7.66323L23.5734 7.33677L22.4428 4.39843L21.5943 4.72489ZM23.1492 7.04545H22.5679V7.95455H23.1492V7.04545ZM22.9928 7.33871L22.7631 6.73346L21.9132 7.05604L22.1429 7.66129L22.9928 7.33871ZM22.3382 6.44021H21.1397V7.3493H22.3382V6.44021ZM20.717 6.72738L20.4773 7.33263L21.3226 7.66737L21.5623 7.06212L20.717 6.72738ZM20.8999 7.04545H20.3187V7.95455H20.8999V7.04545ZM20.7428 7.66348L21.8754 4.72514L21.0271 4.39818L19.8945 7.33652L20.7428 7.66348ZM21.3152 5.17622L20.9236 6.18497L21.7711 6.5139L22.1627 5.50515L21.3152 5.17622ZM21.3474 6.80398H22.1284V5.89489H21.3474V6.80398ZM22.5525 6.1857L22.1629 5.17695L21.3149 5.50442L21.7044 6.51317L22.5525 6.1857ZM23.5866 4.56166V4.10711C23.3356 4.10711 23.1321 4.31062 23.1321 4.56166H23.5866ZM24.1219 4.56166L24.5027 4.31344C24.4188 4.18473 24.2756 4.10711 24.1219 4.10711V4.56166ZM25.3824 6.49525L25.0016 6.74347C25.1114 6.912 25.319 6.98827 25.5118 6.93097C25.7047 6.87366 25.8369 6.69642 25.8369 6.49525H25.3824ZM25.3824 4.56166V4.10711C25.1313 4.10711 24.9278 4.31062 24.9278 4.56166H25.3824ZM25.9417 4.56166H26.3962C26.3962 4.31062 26.1927 4.10711 25.9417 4.10711V4.56166ZM25.9417 7.5V7.95455C26.1927 7.95455 26.3962 7.75104 26.3962 7.5H25.9417ZM25.4044 7.5L25.0237 7.74848C25.1077 7.87704 25.2508 7.95455 25.4044 7.95455V7.5ZM24.1459 5.5724L24.5265 5.32391C24.4166 5.15551 24.2091 5.07938 24.0163 5.13673C23.8235 5.19408 23.6914 5.37129 23.6914 5.5724H24.1459ZM24.1459 7.5V7.95455C24.397 7.95455 24.6005 7.75104 24.6005 7.5H24.1459ZM23.5866 7.5H23.1321C23.1321 7.75104 23.3356 7.95455 23.5866 7.95455V7.5ZM23.5866 5.0162H24.1219V4.10711H23.5866V5.0162ZM23.7412 4.80988L25.0016 6.74347L25.7632 6.24703L24.5027 4.31344L23.7412 4.80988ZM25.8369 6.49525V4.56166H24.9278V6.49525H25.8369ZM25.3824 5.0162H25.9417V4.10711H25.3824V5.0162ZM25.4871 4.56166V7.5H26.3962V4.56166H25.4871ZM25.9417 7.04545H25.4044V7.95455H25.9417V7.04545ZM25.785 7.25152L24.5265 5.32391L23.7653 5.82088L25.0237 7.74848L25.785 7.25152ZM23.6914 5.5724V7.5H24.6005V5.5724H23.6914ZM24.1459 7.04545H23.5866V7.95455H24.1459V7.04545ZM24.0412 7.5V4.56166H23.1321V7.5H24.0412ZM10.6467 9.56166V9.10711C10.3957 9.10711 10.1922 9.31062 10.1922 9.56166H10.6467ZM12.2507 9.56166H12.7053C12.7053 9.31062 12.5017 9.10711 12.2507 9.10711V9.56166ZM12.2507 10.109V10.5635C12.5017 10.5635 12.7053 10.36 12.7053 10.109H12.2507ZM11.202 10.109V9.65443C10.951 9.65443 10.7475 9.85794 10.7475 10.109H11.202ZM11.202 10.6403H10.7475C10.7475 10.8914 10.951 11.0949 11.202 11.0949V10.6403ZM12.2507 10.6403H12.7053C12.7053 10.3893 12.5017 10.1858 12.2507 10.1858V10.6403ZM12.2507 11.1776V11.6322C12.5017 11.6322 12.7053 11.4287 12.7053 11.1776H12.2507ZM11.202 11.1776V10.7231C10.951 10.7231 10.7475 10.9266 10.7475 11.1776H11.202ZM11.202 11.9507H10.7475C10.7475 12.2017 10.951 12.4052 11.202 12.4052V11.9507ZM12.2507 11.9507H12.7053C12.7053 11.6996 12.5017 11.4961 12.2507 11.4961V11.9507ZM12.2507 12.5V12.9545C12.5017 12.9545 12.7053 12.751 12.7053 12.5H12.2507ZM10.6467 12.5H10.1922C10.1922 12.751 10.3957 12.9545 10.6467 12.9545V12.5ZM10.6467 10.0162H12.2507V9.10711H10.6467V10.0162ZM11.7962 9.56166V10.109H12.7053V9.56166H11.7962ZM12.2507 9.65443H11.202V10.5635H12.2507V9.65443ZM10.7475 10.109V10.6403H11.6566V10.109H10.7475ZM11.202 11.0949H12.2507V10.1858H11.202V11.0949ZM11.7962 10.6403V11.1776H12.7053V10.6403H11.7962ZM12.2507 10.7231H11.202V11.6322H12.2507V10.7231ZM10.7475 11.1776V11.9507H11.6566V11.1776H10.7475ZM11.202 12.4052H12.2507V11.4961H11.202V12.4052ZM11.7962 11.9507V12.5H12.7053V11.9507H11.7962ZM12.2507 12.0455H10.6467V12.9545H12.2507V12.0455ZM11.1012 12.5V9.56166H10.1922V12.5H11.1012ZM12.5823 9.56166V9.10711C12.4154 9.10711 12.2618 9.19863 12.1824 9.34548C12.1031 9.49233 12.1105 9.67089 12.202 9.81058L12.5823 9.56166ZM13.2115 9.56166L13.5919 9.31289C13.508 9.18449 13.3649 9.10711 13.2115 9.10711V9.56166ZM13.8267 10.5025L13.4463 10.7513C13.5301 10.8794 13.6727 10.9567 13.8257 10.957C13.9788 10.9574 14.1217 10.8807 14.2061 10.7529L13.8267 10.5025ZM14.448 9.56166V9.10711C14.2953 9.10711 14.1528 9.18378 14.0687 9.3112L14.448 9.56166ZM15.0772 9.56166L15.457 9.81133C15.5488 9.67169 15.5566 9.49295 15.4773 9.34587C15.3979 9.1988 15.2443 9.10711 15.0772 9.10711V9.56166ZM14.1424 10.9839L13.7625 10.7342C13.6631 10.8855 13.6629 11.0814 13.7621 11.2329L14.1424 10.9839ZM15.1351 12.5V12.9545C15.3021 12.9545 15.4556 12.863 15.535 12.7161C15.6144 12.5693 15.6069 12.3907 15.5154 12.251L15.1351 12.5ZM14.5059 12.5L14.1261 12.7498C14.2102 12.8776 14.3529 12.9545 14.5059 12.9545V12.5ZM13.8267 11.4673L14.2065 11.2175C14.1223 11.0894 13.9791 11.0124 13.8258 11.0127C13.6725 11.0131 13.5297 11.0906 13.446 11.2191L13.8267 11.4673ZM13.1536 12.5V12.9545C13.3072 12.9545 13.4505 12.8769 13.5344 12.7482L13.1536 12.5ZM12.5204 12.5L12.1401 12.251C12.0486 12.3907 12.0411 12.5693 12.1205 12.7161C12.1999 12.863 12.3534 12.9545 12.5204 12.9545V12.5ZM13.5131 10.9839L13.8934 11.2329C13.9924 11.0817 13.9924 10.8862 13.8935 10.735L13.5131 10.9839ZM12.5823 10.0162H13.2115V9.10711H12.5823V10.0162ZM12.8311 9.81043L13.4463 10.7513L14.2072 10.2537L13.5919 9.31289L12.8311 9.81043ZM14.2061 10.7529L14.8273 9.81212L14.0687 9.3112L13.4474 10.252L14.2061 10.7529ZM14.448 10.0162H15.0772V9.10711H14.448V10.0162ZM14.6974 9.31199L13.7625 10.7342L14.5222 11.2336L15.457 9.81133L14.6974 9.31199ZM13.7621 11.2329L14.7548 12.749L15.5154 12.251L14.5226 10.7349L13.7621 11.2329ZM15.1351 12.0455H14.5059V12.9545H15.1351V12.0455ZM14.8857 12.2502L14.2065 11.2175L13.447 11.717L14.1261 12.7498L14.8857 12.2502ZM13.446 11.2191L12.7728 12.2518L13.5344 12.7482L14.2075 11.7155L13.446 11.2191ZM13.1536 12.0455H12.5204V12.9545H13.1536V12.0455ZM12.9006 12.749L13.8934 11.2329L13.1329 10.7349L12.1401 12.251L12.9006 12.749ZM13.8935 10.735L12.9626 9.31273L12.202 9.81058L13.1328 11.2328L13.8935 10.735ZM15.5566 9.56166V9.10711C15.3056 9.10711 15.1021 9.31062 15.1021 9.56166H15.5566ZM16.843 9.65154L16.6654 10.07L16.6701 10.0719L16.843 9.65154ZM17.1786 9.93919L16.7905 10.1759L16.7933 10.1804L17.1786 9.93919ZM17.1406 10.926L16.7847 10.6433L16.783 10.6454L17.1406 10.926ZM16.7052 11.2096L16.8293 11.6469L16.8317 11.6462L16.7052 11.2096ZM16.1159 11.2555V10.801C15.8649 10.801 15.6614 11.0045 15.6614 11.2555H16.1159ZM16.1159 12.5V12.9545C16.3669 12.9545 16.5704 12.751 16.5704 12.5H16.1159ZM15.5566 12.5H15.1021C15.1021 12.751 15.3056 12.9545 15.5566 12.9545V12.5ZM16.1159 10.7102H15.6614C15.6614 10.9613 15.8649 11.1648 16.1159 11.1648V10.7102ZM16.7132 10.5824L16.3383 10.3253L16.3367 10.3277L16.7132 10.5824ZM16.6293 10.1669L16.3942 10.556L16.398 10.5582L16.6293 10.1669ZM16.1159 10.109V9.65443C15.8649 9.65443 15.6614 9.85794 15.6614 10.109H16.1159ZM15.5566 10.0162H16.1499V9.10711H15.5566V10.0162ZM16.1499 10.0162C16.4619 10.0162 16.614 10.0481 16.6654 10.0699L17.0206 9.23314C16.7897 9.13509 16.4797 9.10711 16.1499 9.10711V10.0162ZM16.6701 10.0719C16.722 10.0933 16.759 10.1242 16.7905 10.1759L17.5666 9.70248C17.4357 9.48786 17.249 9.32702 17.0159 9.23116L16.6701 10.0719ZM16.7933 10.1804C16.8226 10.2272 16.8479 10.2984 16.8479 10.4146H17.757C17.757 10.1606 17.6996 9.91482 17.5638 9.69793L16.7933 10.1804ZM16.8479 10.4146C16.8479 10.5365 16.8176 10.6019 16.7847 10.6433L17.4966 11.2086C17.6794 10.9784 17.757 10.7028 17.757 10.4146H16.8479ZM16.783 10.6454C16.7416 10.6982 16.6813 10.7433 16.5786 10.773L16.8317 11.6462C17.0966 11.5694 17.3266 11.4253 17.4983 11.2065L16.783 10.6454ZM16.581 10.7723C16.5414 10.7836 16.404 10.801 16.1159 10.801V11.7101C16.3978 11.7101 16.6532 11.6969 16.8293 11.6469L16.581 10.7723ZM15.6614 11.2555V12.5H16.5704V11.2555H15.6614ZM16.1159 12.0455H15.5566V12.9545H16.1159V12.0455ZM16.0111 12.5V9.56166H15.1021V12.5H16.0111ZM16.1159 11.1648H16.2937V10.2557H16.1159V11.1648ZM16.2937 11.1648C16.4327 11.1648 16.6034 11.1577 16.7415 11.1071L16.4291 10.2534C16.4436 10.2481 16.4512 10.2469 16.4484 10.2474C16.4462 10.2479 16.4388 10.2492 16.425 10.2506C16.3968 10.2535 16.3541 10.2557 16.2937 10.2557V11.1648ZM16.7415 11.1071C16.8797 11.0566 17.002 10.9666 17.0896 10.8371L16.3367 10.3277C16.3483 10.3105 16.3636 10.2939 16.3819 10.2799C16.4 10.2661 16.4169 10.2579 16.4291 10.2534L16.7415 11.1071ZM17.088 10.8394C17.1796 10.7059 17.2156 10.557 17.2156 10.4146H16.3066C16.3066 10.41 16.3071 10.3978 16.3121 10.3806C16.3171 10.3628 16.3257 10.3436 16.3383 10.3253L17.088 10.8394ZM17.2156 10.4146C17.2156 10.1617 17.104 9.91946 16.8605 9.77557L16.398 10.5582C16.3768 10.5457 16.3477 10.5205 16.3269 10.4813C16.3072 10.4444 16.3066 10.417 16.3066 10.4146H17.2156ZM16.8643 9.77785C16.7617 9.71582 16.6515 9.68883 16.5655 9.67483C16.4741 9.65993 16.375 9.65443 16.2737 9.65443V10.5635C16.3455 10.5635 16.3922 10.5677 16.4193 10.5721C16.4324 10.5742 16.4363 10.5757 16.4335 10.5748C16.4312 10.5741 16.416 10.5691 16.3942 10.556L16.8643 9.77785ZM16.2737 9.65443H16.1159V10.5635H16.2737V9.65443ZM15.6614 10.109V10.7102H16.5704V10.109H15.6614ZM17.8897 9.56166V9.10711C17.6387 9.10711 17.4352 9.31062 17.4352 9.56166H17.8897ZM19.1761 9.64955L18.9975 10.0676L19.0024 10.0696L19.1761 9.64955ZM19.4957 10.9L19.1258 10.6358L19.1253 10.6365L19.4957 10.9ZM19.0782 11.1936L18.9253 10.7656C18.8009 10.81 18.702 10.9063 18.6543 11.0295C18.6066 11.1527 18.6149 11.2905 18.6769 11.4071L19.0782 11.1936ZM19.7733 12.5V12.9545C19.9329 12.9545 20.0808 12.8709 20.163 12.734C20.2452 12.5972 20.2496 12.4274 20.1746 12.2865L19.7733 12.5ZM19.1621 12.5L18.7607 12.7133C18.8396 12.8617 18.994 12.9545 19.1621 12.9545V12.5ZM18.5009 11.2555L18.9023 11.0423C18.8235 10.8938 18.6691 10.801 18.5009 10.801V11.2555ZM18.449 11.2555V10.801C18.198 10.801 17.9945 11.0045 17.9945 11.2555H18.449ZM18.449 12.5V12.9545C18.7 12.9545 18.9035 12.751 18.9035 12.5H18.449ZM17.8897 12.5H17.4352C17.4352 12.751 17.6387 12.9545 17.8897 12.9545V12.5ZM18.449 10.7102H17.9945C17.9945 10.9613 18.198 11.1648 18.449 11.1648V10.7102ZM18.9923 10.6403L18.7351 10.2655L18.7317 10.2679L18.9923 10.6403ZM19.0443 10.2428L18.6709 10.5021L18.6744 10.507L19.0443 10.2428ZM18.9104 10.1409L18.7486 10.5658L18.7575 10.569L18.9104 10.1409ZM18.449 10.109V9.65443C18.198 9.65443 17.9945 9.85794 17.9945 10.109H18.449ZM17.8897 10.0162H18.483V9.10711H17.8897V10.0162ZM18.483 10.0162C18.802 10.0162 18.9519 10.0481 18.9975 10.0676L19.3547 9.23154C19.126 9.13386 18.8138 9.10711 18.483 9.10711V10.0162ZM19.0024 10.0696C19.048 10.0885 19.0872 10.1188 19.124 10.1778L19.8953 9.69662C19.7643 9.48657 19.5812 9.32516 19.3498 9.22949L19.0024 10.0696ZM19.124 10.1778C19.1561 10.2292 19.181 10.3021 19.181 10.4146H20.0901C20.0901 10.1596 20.031 9.91417 19.8953 9.69662L19.124 10.1778ZM19.181 10.4146C19.181 10.5327 19.1535 10.597 19.1258 10.6358L19.8656 11.1642C20.0243 10.942 20.0901 10.6827 20.0901 10.4146H19.181ZM19.1253 10.6365C19.0995 10.6728 19.0461 10.7224 18.9253 10.7656L19.2311 11.6217C19.4832 11.5316 19.7082 11.3855 19.8661 11.1635L19.1253 10.6365ZM18.6769 11.4071L19.3721 12.7135L20.1746 12.2865L19.4795 10.9801L18.6769 11.4071ZM19.7733 12.0455H19.1621V12.9545H19.7733V12.0455ZM19.5635 12.2867L18.9023 11.0423L18.0995 11.4688L18.7607 12.7133L19.5635 12.2867ZM18.5009 10.801H18.449V11.7101H18.5009V10.801ZM17.9945 11.2555V12.5H18.9035V11.2555H17.9945ZM18.449 12.0455H17.8897V12.9545H18.449V12.0455ZM18.3442 12.5V9.56166H17.4352V12.5H18.3442ZM18.449 11.1648H18.6248V10.2557H18.449V11.1648ZM18.6248 11.1648C18.7314 11.1648 18.8371 11.158 18.9354 11.1393C19.0294 11.1214 19.1465 11.0872 19.253 11.0127L18.7317 10.2679C18.7535 10.2527 18.7697 10.2462 18.7743 10.2446C18.779 10.2428 18.777 10.244 18.7656 10.2462C18.7414 10.2508 18.6966 10.2557 18.6248 10.2557V11.1648ZM19.2495 11.0151C19.4781 10.8583 19.5487 10.6148 19.5487 10.4086H18.6396C18.6396 10.4164 18.6382 10.3972 18.6526 10.3645C18.6688 10.3276 18.6975 10.2913 18.7351 10.2655L19.2495 11.0151ZM19.5487 10.4086C19.5487 10.2614 19.5088 10.1112 19.4141 9.97861L18.6744 10.507C18.6619 10.4895 18.6524 10.4699 18.6465 10.4503C18.6407 10.4311 18.6396 10.4163 18.6396 10.4086H19.5487ZM19.4176 9.98354C19.3292 9.85626 19.2069 9.76414 19.0633 9.71287L18.7575 10.569C18.7441 10.5642 18.7275 10.556 18.7105 10.5431C18.6935 10.5301 18.6803 10.5155 18.6709 10.5021L19.4176 9.98354ZM19.0722 9.71617C18.9291 9.66165 18.7486 9.65443 18.6028 9.65443V10.5635C18.668 10.5635 18.7141 10.5659 18.7446 10.5691C18.7595 10.5706 18.7675 10.572 18.7699 10.5725C18.7731 10.5732 18.7645 10.5717 18.7486 10.5657L19.0722 9.71617ZM18.6028 9.65443H18.449V10.5635H18.6028V9.65443ZM17.9945 10.109V10.7102H18.9035V10.109H17.9945ZM20.2268 9.56166V9.10711C19.9757 9.10711 19.7722 9.31062 19.7722 9.56166H20.2268ZM21.8308 9.56166H22.2853C22.2853 9.31062 22.0818 9.10711 21.8308 9.10711V9.56166ZM21.8308 10.109V10.5635C22.0818 10.5635 22.2853 10.36 22.2853 10.109H21.8308ZM20.7821 10.109V9.65443C20.5311 9.65443 20.3275 9.85794 20.3275 10.109H20.7821ZM20.7821 10.6403H20.3275C20.3275 10.8914 20.5311 11.0949 20.7821 11.0949V10.6403ZM21.8308 10.6403H22.2853C22.2853 10.3893 22.0818 10.1858 21.8308 10.1858V10.6403ZM21.8308 11.1776V11.6322C22.0818 11.6322 22.2853 11.4287 22.2853 11.1776H21.8308ZM20.7821 11.1776V10.7231C20.5311 10.7231 20.3275 10.9266 20.3275 11.1776H20.7821ZM20.7821 11.9507H20.3275C20.3275 12.2017 20.5311 12.4052 20.7821 12.4052V11.9507ZM21.8308 11.9507H22.2853C22.2853 11.6996 22.0818 11.4961 21.8308 11.4961V11.9507ZM21.8308 12.5V12.9545C22.0818 12.9545 22.2853 12.751 22.2853 12.5H21.8308ZM20.2268 12.5H19.7722C19.7722 12.751 19.9757 12.9545 20.2268 12.9545V12.5ZM20.2268 10.0162H21.8308V9.10711H20.2268V10.0162ZM21.3762 9.56166V10.109H22.2853V9.56166H21.3762ZM21.8308 9.65443H20.7821V10.5635H21.8308V9.65443ZM20.3275 10.109V10.6403H21.2366V10.109H20.3275ZM20.7821 11.0949H21.8308V10.1858H20.7821V11.0949ZM21.3762 10.6403V11.1776H22.2853V10.6403H21.3762ZM21.8308 10.7231H20.7821V11.6322H21.8308V10.7231ZM20.3275 11.1776V11.9507H21.2366V11.1776H20.3275ZM20.7821 12.4052H21.8308V11.4961H20.7821V12.4052ZM21.3762 11.9507V12.5H22.2853V11.9507H21.3762ZM21.8308 12.0455H20.2268V12.9545H21.8308V12.0455ZM20.6813 12.5V9.56166H19.7722V12.5H20.6813ZM23.8942 9.96116L24.1953 10.3017C24.3815 10.1371 24.401 9.85343 24.239 9.66493L23.8942 9.96116ZM23.4807 10.3267L23.1114 10.5916C23.1863 10.6961 23.302 10.764 23.4298 10.7784C23.5575 10.7928 23.6855 10.7524 23.7818 10.6673L23.4807 10.3267ZM22.8575 10.083L23.1476 10.4331L23.1533 10.4281L22.8575 10.083ZM22.8375 10.3547L22.4752 10.6292L22.4779 10.6326L22.8375 10.3547ZM23.247 10.7322L22.953 11.0789L22.9552 11.0807L23.247 10.7322ZM23.6345 11.0698L23.3085 11.3865L23.3113 11.3893L23.6345 11.0698ZM23.8742 11.3994L23.4586 11.5835L23.4615 11.5899L23.8742 11.3994ZM22.498 12.4201L22.2466 12.7988L22.2481 12.7998L22.498 12.4201ZM22.1005 11.9367L21.8654 11.5477C21.6622 11.6704 21.5877 11.9289 21.6944 12.141L22.1005 11.9367ZM22.5699 11.6531L22.9692 11.436C22.9099 11.3269 22.8086 11.2468 22.6888 11.2143C22.5689 11.1819 22.441 11.1998 22.3348 11.264L22.5699 11.6531ZM23.3229 11.5652L23.6883 11.2948L23.3229 11.5652ZM22.9973 11.2595L23.285 10.9076L23.2849 10.9075L22.9973 11.2595ZM22.3781 10.6563L21.9977 10.9051L21.9988 10.9068L22.3781 10.6563ZM22.47 9.70748L22.7813 10.0387L22.7813 10.0386L22.47 9.70748ZM23.4628 9.58962L23.2546 9.9937L23.2562 9.99455L23.4628 9.58962ZM23.5932 9.62061L23.1797 9.98616L23.7818 10.6673L24.1953 10.3017L23.5932 9.62061ZM23.8501 10.0618C23.6756 9.8185 23.4094 9.56854 23.0373 9.56854V10.4776C23.0045 10.4776 22.9912 10.4652 23.0042 10.474C23.0211 10.4856 23.0585 10.5178 23.1114 10.5916L23.8501 10.0618ZM23.0373 9.56854C22.8775 9.56854 22.706 9.61424 22.5617 9.73789L23.1533 10.4281C23.1307 10.4475 23.1053 10.4612 23.0812 10.4693C23.058 10.477 23.0419 10.4776 23.0373 10.4776V9.56854ZM22.5675 9.733C22.4428 9.83635 22.3331 9.99964 22.3331 10.2148H23.2421C23.2421 10.2652 23.2294 10.3149 23.2066 10.3579C23.1851 10.3985 23.1603 10.4224 23.1475 10.433L22.5675 9.733ZM22.3331 10.2148C22.3331 10.3749 22.3896 10.5161 22.4752 10.6292L23.1998 10.0802C23.208 10.091 23.2192 10.1089 23.2281 10.1339C23.2373 10.1594 23.2421 10.1871 23.2421 10.2148H22.3331ZM22.4779 10.6326C22.5266 10.6957 22.5984 10.7651 22.6658 10.8272C22.7405 10.8961 22.8369 10.9804 22.9531 11.0789L23.541 10.3855C23.4294 10.2909 23.3437 10.2157 23.282 10.1588C23.2128 10.095 23.1937 10.0722 23.1972 10.0767L22.4779 10.6326ZM22.9552 11.0807C23.0606 11.169 23.1437 11.2396 23.2051 11.2932C23.2359 11.3199 23.2601 11.3415 23.2785 11.3583C23.2877 11.3666 23.2948 11.3733 23.3002 11.3784C23.3028 11.3809 23.3049 11.3829 23.3063 11.3843C23.3071 11.385 23.3076 11.3856 23.308 11.386C23.3084 11.3864 23.3085 11.3865 23.3085 11.3865L23.9606 10.7531C23.8952 10.6857 23.7444 10.5559 23.5389 10.3837L22.9552 11.0807ZM23.3113 11.3893C23.4 11.4791 23.4413 11.5444 23.4587 11.5835L24.2898 11.2152C24.2139 11.0439 24.0954 10.8895 23.9578 10.7503L23.3113 11.3893ZM23.4615 11.5899C23.4797 11.6292 23.4916 11.6774 23.4916 11.7409H24.4007C24.4007 11.5568 24.3647 11.3773 24.287 11.2089L23.4615 11.5899ZM23.4916 11.7409C23.4916 11.8643 23.4547 11.9414 23.3844 12.0077L24.0085 12.6687C24.2712 12.4208 24.4007 12.0996 24.4007 11.7409H23.4916ZM23.3844 12.0077C23.3165 12.0718 23.2179 12.1194 23.0453 12.1194V13.0285C23.408 13.0285 23.7435 12.9189 24.0085 12.6687L23.3844 12.0077ZM23.0453 12.1194C22.9139 12.1194 22.8207 12.0883 22.7478 12.0404L22.2481 12.7998C22.4868 12.9569 22.7585 13.0285 23.0453 13.0285V12.1194ZM22.7493 12.0414C22.6788 11.9946 22.5928 11.9039 22.5065 11.7324L21.6944 12.141C21.8292 12.409 22.0082 12.6406 22.2466 12.7988L22.7493 12.0414ZM22.3355 12.3257L22.8049 12.0421L22.3348 11.264L21.8654 11.5477L22.3355 12.3257ZM22.1705 11.8701C22.3396 12.1812 22.6213 12.4971 23.0573 12.4971V11.588C23.0662 11.588 23.0756 11.5898 23.083 11.5926C23.0898 11.5952 23.0892 11.5964 23.0814 11.5901C23.063 11.5754 23.0221 11.5333 22.9692 11.436L22.1705 11.8701ZM23.0573 12.4971C23.2482 12.4971 23.4375 12.4386 23.5948 12.3038L23.0031 11.6136C23.0134 11.6048 23.0266 11.597 23.0405 11.5922C23.0538 11.5876 23.0607 11.588 23.0573 11.588V12.4971ZM23.5948 12.3038C23.7415 12.1781 23.8514 11.9943 23.8514 11.7649H22.9423C22.9423 11.7312 22.9505 11.6954 22.9667 11.6633C22.9819 11.6331 22.9986 11.6174 23.0031 11.6136L23.5948 12.3038ZM23.8514 11.7649C23.8514 11.5794 23.7812 11.4202 23.6883 11.2948L22.9576 11.8355C22.9608 11.8399 22.9569 11.8358 22.9521 11.8228C22.9469 11.8089 22.9423 11.7889 22.9423 11.7649H23.8514ZM23.6883 11.2948C23.6009 11.1767 23.4498 11.0423 23.285 10.9076L22.7097 11.6115C22.7888 11.6761 22.8493 11.7288 22.8935 11.7702C22.9154 11.7908 22.9316 11.8071 22.9431 11.8194C22.9552 11.8322 22.9588 11.8373 22.9576 11.8355L23.6883 11.2948ZM23.2849 10.9075C22.9643 10.6457 22.8083 10.4829 22.7574 10.4058L21.9988 10.9068C22.1343 11.112 22.3912 11.3514 22.7098 11.6116L23.2849 10.9075ZM22.7585 10.4074C22.7036 10.3235 22.6928 10.2668 22.6928 10.2308H21.7837C21.7837 10.4772 21.8662 10.7041 21.9977 10.9051L22.7585 10.4074ZM22.6928 10.2308C22.6928 10.1581 22.7141 10.1019 22.7813 10.0387L22.1587 9.37622C21.917 9.60338 21.7837 9.89602 21.7837 10.2308H22.6928ZM22.7813 10.0386C22.847 9.97688 22.925 9.94229 23.0453 9.94229V9.0332C22.7101 9.0332 22.4046 9.1451 22.1586 9.37631L22.7813 10.0386ZM23.0453 9.94229C23.1184 9.94229 23.1863 9.95852 23.2546 9.9937L23.6709 9.18554C23.4755 9.08489 23.2651 9.0332 23.0453 9.0332V9.94229ZM23.2562 9.99455C23.3149 10.0245 23.4136 10.0992 23.5495 10.2574L24.239 9.66493C24.0659 9.46353 23.8769 9.2906 23.6693 9.1847L23.2562 9.99455ZM26.0236 9.96116L26.3246 10.3017C26.5108 10.1371 26.5303 9.85343 26.3683 9.66493L26.0236 9.96116ZM25.6101 10.3267L25.2407 10.5916C25.3156 10.6961 25.4313 10.764 25.5591 10.7784C25.6869 10.7928 25.8148 10.7524 25.9112 10.6673L25.6101 10.3267ZM24.9869 10.083L25.2769 10.4331L25.2827 10.4281L24.9869 10.083ZM24.9669 10.3547L24.6046 10.6292L24.6072 10.6326L24.9669 10.3547ZM25.3764 10.7322L25.0824 11.0789L25.0845 11.0807L25.3764 10.7322ZM25.7639 11.0698L25.4379 11.3865L25.4406 11.3893L25.7639 11.0698ZM26.0036 11.3994L25.588 11.5835L25.5909 11.5899L26.0036 11.3994ZM24.6273 12.4201L24.3759 12.7988L24.3774 12.7998L24.6273 12.4201ZM24.2298 11.9367L23.9947 11.5477C23.7915 11.6704 23.7171 11.9289 23.8237 12.141L24.2298 11.9367ZM24.6992 11.6531L25.0986 11.436C25.0393 11.3269 24.938 11.2468 24.8181 11.2143C24.6983 11.1819 24.5704 11.1998 24.4641 11.264L24.6992 11.6531ZM25.4523 11.5652L25.8177 11.2948L25.4523 11.5652ZM25.1267 11.2595L25.4144 10.9076L25.4142 10.9075L25.1267 11.2595ZM24.5075 10.6563L24.1271 10.9051L24.1282 10.9068L24.5075 10.6563ZM24.5993 9.70748L24.9106 10.0387L24.9107 10.0386L24.5993 9.70748ZM25.5921 9.58962L25.3839 9.9937L25.3856 9.99455L25.5921 9.58962ZM25.7225 9.62061L25.309 9.98616L25.9112 10.6673L26.3246 10.3017L25.7225 9.62061ZM25.9795 10.0618C25.805 9.8185 25.5387 9.56854 25.1666 9.56854V10.4776C25.1339 10.4776 25.1206 10.4652 25.1336 10.474C25.1504 10.4856 25.1878 10.5178 25.2407 10.5916L25.9795 10.0618ZM25.1666 9.56854C25.0069 9.56854 24.8353 9.61424 24.6911 9.73789L25.2827 10.4281C25.26 10.4475 25.2347 10.4612 25.2105 10.4693C25.1874 10.477 25.1712 10.4776 25.1666 10.4776V9.56854ZM24.6969 9.733C24.5721 9.83635 24.4624 9.99964 24.4624 10.2148H25.3715C25.3715 10.2652 25.3588 10.3149 25.336 10.3579C25.3145 10.3985 25.2897 10.4224 25.2769 10.433L24.6969 9.733ZM24.4624 10.2148C24.4624 10.3749 24.5189 10.5161 24.6046 10.6292L25.3292 10.0802C25.3374 10.091 25.3486 10.1089 25.3575 10.1339C25.3666 10.1594 25.3715 10.1871 25.3715 10.2148H24.4624ZM24.6072 10.6326C24.656 10.6957 24.7278 10.7651 24.7951 10.8272C24.8699 10.8961 24.9663 10.9804 25.0824 11.0789L25.6704 10.3855C25.5588 10.2909 25.473 10.2157 25.4113 10.1588C25.3422 10.095 25.3231 10.0722 25.3266 10.0767L24.6072 10.6326ZM25.0845 11.0807C25.19 11.169 25.2731 11.2396 25.3345 11.2932C25.3652 11.3199 25.3895 11.3415 25.4079 11.3583C25.417 11.3666 25.4242 11.3733 25.4295 11.3784C25.4322 11.3809 25.4342 11.3829 25.4357 11.3843C25.4364 11.385 25.437 11.3856 25.4373 11.386C25.4377 11.3864 25.4379 11.3865 25.4379 11.3865L26.0899 10.7531C26.0245 10.6857 25.8738 10.5559 25.6682 10.3837L25.0845 11.0807ZM25.4406 11.3893C25.5294 11.4791 25.5707 11.5444 25.588 11.5835L26.4192 11.2152C26.3433 11.0439 26.2248 10.8895 26.0872 10.7503L25.4406 11.3893ZM25.5909 11.5899C25.6091 11.6292 25.621 11.6774 25.621 11.7409H26.5301C26.5301 11.5568 26.494 11.3773 26.4163 11.2089L25.5909 11.5899ZM25.621 11.7409C25.621 11.8643 25.584 11.9414 25.5138 12.0077L26.1378 12.6687C26.4005 12.4208 26.5301 12.0996 26.5301 11.7409H25.621ZM25.5138 12.0077C25.4458 12.0718 25.3473 12.1194 25.1746 12.1194V13.0285C25.5373 13.0285 25.8729 12.9189 26.1378 12.6687L25.5138 12.0077ZM25.1746 12.1194C25.0433 12.1194 24.95 12.0883 24.8772 12.0404L24.3774 12.7998C24.6162 12.9569 24.8879 13.0285 25.1746 13.0285V12.1194ZM24.8787 12.0414C24.8082 11.9946 24.7221 11.9039 24.6359 11.7324L23.8237 12.141C23.9586 12.409 24.1375 12.6406 24.3759 12.7988L24.8787 12.0414ZM24.4649 12.3257L24.9343 12.0421L24.4641 11.264L23.9947 11.5477L24.4649 12.3257ZM24.2999 11.8701C24.469 12.1812 24.7507 12.4971 25.1866 12.4971V11.588C25.1955 11.588 25.2049 11.5898 25.2124 11.5926C25.2192 11.5952 25.2185 11.5964 25.2107 11.5901C25.1923 11.5754 25.1515 11.5333 25.0986 11.436L24.2999 11.8701ZM25.1866 12.4971C25.3776 12.4971 25.5668 12.4386 25.7241 12.3038L25.1325 11.6136C25.1427 11.6048 25.156 11.597 25.1699 11.5922C25.1831 11.5876 25.1901 11.588 25.1866 11.588V12.4971ZM25.7241 12.3038C25.8708 12.1781 25.9807 11.9943 25.9807 11.7649H25.0717C25.0717 11.7312 25.0798 11.6954 25.096 11.6633C25.1113 11.6331 25.128 11.6174 25.1325 11.6136L25.7241 12.3038ZM25.9807 11.7649C25.9807 11.5794 25.9105 11.4202 25.8177 11.2948L25.0869 11.8355C25.0902 11.8399 25.0862 11.8358 25.0814 11.8228C25.0763 11.8089 25.0717 11.7889 25.0717 11.7649H25.9807ZM25.8177 11.2948C25.7303 11.1767 25.5791 11.0423 25.4144 10.9076L24.839 11.6115C24.9181 11.6761 24.9787 11.7288 25.0229 11.7702C25.0448 11.7908 25.061 11.8071 25.0725 11.8194C25.0845 11.8322 25.0882 11.8373 25.0869 11.8355L25.8177 11.2948ZM25.4142 10.9075C25.0936 10.6457 24.9377 10.4829 24.8868 10.4058L24.1282 10.9068C24.2637 11.112 24.5205 11.3514 24.8392 11.6116L25.4142 10.9075ZM24.8878 10.4074C24.8329 10.3235 24.8222 10.2668 24.8222 10.2308H23.9131C23.9131 10.4772 23.9956 10.7041 24.1271 10.9051L24.8878 10.4074ZM24.8222 10.2308C24.8222 10.1581 24.8434 10.1019 24.9106 10.0387L24.2881 9.37622C24.0463 9.60338 23.9131 9.89602 23.9131 10.2308H24.8222ZM24.9107 10.0386C24.9764 9.97688 25.0544 9.94229 25.1746 9.94229V9.0332C24.8395 9.0332 24.5339 9.1451 24.288 9.37631L24.9107 10.0386ZM25.1746 9.94229C25.2478 9.94229 25.3157 9.95852 25.384 9.9937L25.8003 9.18554C25.6049 9.08489 25.3945 9.0332 25.1746 9.0332V9.94229ZM25.3856 9.99455C25.4443 10.0245 25.5429 10.0992 25.6788 10.2574L26.3683 9.66493C26.1953 9.46353 26.0063 9.2906 25.7986 9.1847L25.3856 9.99455Z" fill="white" mask="url(#path-3-outside-1_509_17488)"/>
</svg>
