<svg width="43" height="51" viewBox="0 0 43 51" fill="none" xmlns="http://www.w3.org/2000/svg">
<path d="M35.3866 27.1036C35.4118 25.1511 35.9304 23.2368 36.8942 21.5386C37.858 19.8404 39.2358 18.4136 40.8992 17.391C39.8424 15.8818 38.4484 14.6398 36.8277 13.7637C35.207 12.8875 33.4044 12.4013 31.563 12.3437C27.6348 11.9314 23.8267 14.6942 21.825 14.6942C19.7846 14.6942 16.7027 12.3846 13.3839 12.4529C11.2373 12.5223 9.14522 13.1465 7.31155 14.2648C5.47789 15.3831 3.96517 16.9573 2.92078 18.834C-1.60327 26.6667 1.77127 38.1781 6.10493 44.5095C8.27315 47.6098 10.8072 51.0729 14.1229 50.9501C17.3676 50.8155 18.5794 48.8811 22.4959 48.8811C26.3761 48.8811 27.5131 50.9501 30.8961 50.872C34.3777 50.8155 36.5713 47.7579 38.6635 44.6283C40.2213 42.4192 41.4201 39.9777 42.2154 37.3942C40.1926 36.5387 38.4665 35.1067 37.2521 33.2767C36.0378 31.4467 35.389 29.2998 35.3866 27.1036Z" fill="white"/>
<path d="M28.9968 8.17998C30.8951 5.90109 31.8303 2.97197 31.6039 0.0146484C28.7036 0.319263 26.0246 1.70539 24.1006 3.89684C23.1599 4.96742 22.4395 6.21291 21.9804 7.5621C21.5213 8.91129 21.3327 10.3377 21.4252 11.7599C22.8759 11.7748 24.311 11.4604 25.6225 10.8403C26.934 10.2202 28.0877 9.31059 28.9968 8.17998Z" fill="white"/>
</svg>
