<svg width="348" height="307" viewBox="0 0 348 307" fill="none" xmlns="http://www.w3.org/2000/svg">
<path d="M124.131 9.00003L123.131 9.00003L123.131 9.00003L124.131 9.00003ZM124.131 291L125.131 291L124.131 291ZM0.292912 299.707C-0.0976213 299.317 -0.0976212 298.683 0.292912 298.293L6.65687 291.929C7.0474 291.538 7.68055 291.538 8.07108 291.929C8.46158 292.319 8.46158 292.953 8.07108 293.343L2.41422 299L8.07108 304.657C8.46158 305.047 8.46158 305.681 8.07108 306.071C7.68055 306.462 7.0474 306.462 6.65686 306.071L0.292912 299.707ZM132.131 1.00002L132.131 2.00002L132.131 1.00002ZM236.065 1.00054L236.065 2.00054L236.065 1.00054ZM125.131 9.00003L125.131 291L123.131 291L123.131 9.00003L125.131 9.00003ZM116.131 300L1 300L1 298L116.131 298L116.131 300ZM132.131 2.01692e-05L236.065 0.000536253L236.065 2.00054L132.131 2.00002L132.131 2.01692e-05ZM236.065 0.000536253L348 0.00109214L348 2.00109L236.065 2.00054L236.065 0.000536253ZM125.131 291C125.131 295.971 121.102 300 116.131 300L116.131 298C119.997 298 123.131 294.866 123.131 291L125.131 291ZM123.131 9.00003C123.131 4.02945 127.16 -4.52447e-06 132.131 2.01692e-05L132.131 2.00002C128.265 2 125.131 5.13402 125.131 9.00003L123.131 9.00003Z" fill="#1B2844"/>
</svg>
