<svg width="61" height="61" viewBox="0 0 61 61" fill="none" xmlns="http://www.w3.org/2000/svg">
<g filter="url(#filter0_d_639_30362)">
<rect x="0.5" y="0.855469" width="56.3829" height="56.3829" rx="13.2666" fill="white"/>
<path d="M38.0685 23.7666C38.6016 23.6334 39.1419 23.9575 39.2751 24.4906C39.4084 25.0237 39.0843 25.5639 38.5512 25.6972L33.2446 27.0239C32.7114 27.1571 32.1712 26.833 32.0379 26.2999C31.9047 25.7668 32.2288 25.2266 32.7619 25.0933L38.0685 23.7666Z" fill="#1C274D"/>
<path d="M38.0685 23.7666C38.6016 23.6334 39.1419 23.9575 39.2751 24.4906C39.4084 25.0237 39.0843 25.5639 38.5512 25.6972L33.2446 27.0239C32.7114 27.1571 32.1712 26.833 32.0379 26.2999C31.9047 25.7668 32.2288 25.2266 32.7619 25.0933L38.0685 23.7666Z" fill="url(#paint0_linear_639_30362)"/>
<path d="M38.0685 29.0733C38.6016 28.94 39.1419 29.2641 39.2751 29.7972C39.4084 30.3303 39.0843 30.8706 38.5512 31.0038L33.2446 32.3305C32.7114 32.4638 32.1712 32.1396 32.0379 31.6065C31.9047 31.0734 32.2288 30.5332 32.7619 30.3999L38.0685 29.0733Z" fill="#1C274D"/>
<path d="M38.0685 29.0733C38.6016 28.94 39.1419 29.2641 39.2751 29.7972C39.4084 30.3303 39.0843 30.8706 38.5512 31.0038L33.2446 32.3305C32.7114 32.4638 32.1712 32.1396 32.0379 31.6065C31.9047 31.0734 32.2288 30.5332 32.7619 30.3999L38.0685 29.0733Z" fill="url(#paint1_linear_639_30362)"/>
<path d="M18.7714 24.4906C18.9047 23.9575 19.4449 23.6334 19.978 23.7666L25.2846 25.0933C25.8177 25.2266 26.1419 25.7668 26.0086 26.2999C25.8753 26.833 25.3351 27.1571 24.802 27.0239L19.4954 25.6972C18.9622 25.5639 18.6381 25.0237 18.7714 24.4906Z" fill="#1C274D"/>
<path d="M18.7714 24.4906C18.9047 23.9575 19.4449 23.6334 19.978 23.7666L25.2846 25.0933C25.8177 25.2266 26.1419 25.7668 26.0086 26.2999C25.8753 26.833 25.3351 27.1571 24.802 27.0239L19.4954 25.6972C18.9622 25.5639 18.6381 25.0237 18.7714 24.4906Z" fill="url(#paint2_linear_639_30362)"/>
<path d="M18.7714 29.7972C18.9047 29.2641 19.4449 28.94 19.978 29.0733L25.2846 30.3999C25.8177 30.5332 26.1419 31.0734 26.0086 31.6065C25.8753 32.1396 25.3351 32.4638 24.802 32.3305L19.4954 31.0038C18.9622 30.8706 18.6381 30.3303 18.7714 29.7972Z" fill="#1C274D"/>
<path d="M18.7714 29.7972C18.9047 29.2641 19.4449 28.94 19.978 29.0733L25.2846 30.3999C25.8177 30.5332 26.1419 31.0734 26.0086 31.6065C25.8753 32.1396 25.3351 32.4638 24.802 32.3305L19.4954 31.0038C18.9622 30.8706 18.6381 30.3303 18.7714 29.7972Z" fill="url(#paint3_linear_639_30362)"/>
<path fill-rule="evenodd" clip-rule="evenodd" d="M43.2848 19.3367C43.2848 17.3954 41.7388 15.7305 39.7106 15.8012C38.2005 15.8538 36.2264 16.0109 34.7079 16.4655C33.3878 16.8607 31.903 17.6326 30.7455 18.3025C29.6602 18.9306 28.3091 18.9619 27.2095 18.3805C25.8889 17.6822 24.1513 16.8544 22.6439 16.4566C21.3692 16.1202 19.7568 15.9587 18.4477 15.8782C16.3805 15.7512 14.7617 17.4335 14.7617 19.4224V34.209C14.7617 36.247 16.4118 37.8382 18.3676 37.9605C19.6396 38.04 21.0708 38.193 22.1361 38.4741C23.4529 38.8216 25.0812 39.5942 26.396 40.295C28.0322 41.1672 30.0144 41.1672 31.6505 40.295C32.9653 39.5942 34.5936 38.8216 35.9104 38.4741C36.9757 38.193 38.407 38.04 39.6789 37.9605C41.6347 37.8382 43.2848 36.247 43.2848 34.209V19.3367ZM39.7799 17.7899C40.5955 17.7615 41.2948 18.4324 41.2948 19.3367V34.209C41.2948 35.1188 40.5409 35.9127 39.5547 35.9744C38.2545 36.0557 36.6636 36.2173 35.4027 36.55C33.85 36.9597 32.0517 37.8262 30.7145 38.539C30.4913 38.6579 30.2577 38.7517 30.0183 38.8201V20.6751C30.6183 20.5549 31.2017 20.3376 31.7423 20.0248C32.8705 19.3718 34.1904 18.6976 35.2786 18.3719C36.5378 17.9949 38.2956 17.8416 39.7799 17.7899ZM28.0283 20.7188C27.4246 20.6249 26.8329 20.4324 26.2793 20.1397C24.9834 19.4544 23.4125 18.7175 22.1361 18.3807C21.0586 18.0964 19.6072 17.9432 18.3256 17.8645C17.4846 17.8128 16.7517 18.4975 16.7517 19.4224V34.209C16.7517 35.1188 17.5057 35.9127 18.4918 35.9744C19.7921 36.0557 21.383 36.2173 22.6439 36.55C24.1965 36.9597 25.9949 37.8262 27.3321 38.539C27.5553 38.6579 27.7888 38.7517 28.0283 38.8201V20.7188Z" fill="#1C274D"/>
<path fill-rule="evenodd" clip-rule="evenodd" d="M43.2848 19.3367C43.2848 17.3954 41.7388 15.7305 39.7106 15.8012C38.2005 15.8538 36.2264 16.0109 34.7079 16.4655C33.3878 16.8607 31.903 17.6326 30.7455 18.3025C29.6602 18.9306 28.3091 18.9619 27.2095 18.3805C25.8889 17.6822 24.1513 16.8544 22.6439 16.4566C21.3692 16.1202 19.7568 15.9587 18.4477 15.8782C16.3805 15.7512 14.7617 17.4335 14.7617 19.4224V34.209C14.7617 36.247 16.4118 37.8382 18.3676 37.9605C19.6396 38.04 21.0708 38.193 22.1361 38.4741C23.4529 38.8216 25.0812 39.5942 26.396 40.295C28.0322 41.1672 30.0144 41.1672 31.6505 40.295C32.9653 39.5942 34.5936 38.8216 35.9104 38.4741C36.9757 38.193 38.407 38.04 39.6789 37.9605C41.6347 37.8382 43.2848 36.247 43.2848 34.209V19.3367ZM39.7799 17.7899C40.5955 17.7615 41.2948 18.4324 41.2948 19.3367V34.209C41.2948 35.1188 40.5409 35.9127 39.5547 35.9744C38.2545 36.0557 36.6636 36.2173 35.4027 36.55C33.85 36.9597 32.0517 37.8262 30.7145 38.539C30.4913 38.6579 30.2577 38.7517 30.0183 38.8201V20.6751C30.6183 20.5549 31.2017 20.3376 31.7423 20.0248C32.8705 19.3718 34.1904 18.6976 35.2786 18.3719C36.5378 17.9949 38.2956 17.8416 39.7799 17.7899ZM28.0283 20.7188C27.4246 20.6249 26.8329 20.4324 26.2793 20.1397C24.9834 19.4544 23.4125 18.7175 22.1361 18.3807C21.0586 18.0964 19.6072 17.9432 18.3256 17.8645C17.4846 17.8128 16.7517 18.4975 16.7517 19.4224V34.209C16.7517 35.1188 17.5057 35.9127 18.4918 35.9744C19.7921 36.0557 21.383 36.2173 22.6439 36.55C24.1965 36.9597 25.9949 37.8262 27.3321 38.539C27.5553 38.6579 27.7888 38.7517 28.0283 38.8201V20.7188Z" fill="url(#paint4_linear_639_30362)"/>
</g>
<defs>
<filter id="filter0_d_639_30362" x="-2.81664" y="-2.46117" width="63.0161" height="63.0162" filterUnits="userSpaceOnUse" color-interpolation-filters="sRGB">
<feFlood flood-opacity="0" result="BackgroundImageFix"/>
<feColorMatrix in="SourceAlpha" type="matrix" values="0 0 0 0 0 0 0 0 0 0 0 0 0 0 0 0 0 0 127 0" result="hardAlpha"/>
<feOffset/>
<feGaussianBlur stdDeviation="1.65832"/>
<feComposite in2="hardAlpha" operator="out"/>
<feColorMatrix type="matrix" values="0 0 0 0 0.992157 0 0 0 0 0.815686 0 0 0 0 0.12549 0 0 0 1 0"/>
<feBlend mode="normal" in2="BackgroundImageFix" result="effect1_dropShadow_639_30362"/>
<feBlend mode="normal" in="SourceGraphic" in2="effect1_dropShadow_639_30362" result="shape"/>
</filter>
<linearGradient id="paint0_linear_639_30362" x1="38.3974" y1="20.391" x2="19.6303" y2="38.8425" gradientUnits="userSpaceOnUse">
<stop stop-color="#FFBF26"/>
<stop offset="1" stop-color="#FF2872"/>
</linearGradient>
<linearGradient id="paint1_linear_639_30362" x1="38.3974" y1="20.391" x2="19.6303" y2="38.8425" gradientUnits="userSpaceOnUse">
<stop stop-color="#FFBF26"/>
<stop offset="1" stop-color="#FF2872"/>
</linearGradient>
<linearGradient id="paint2_linear_639_30362" x1="38.3974" y1="20.391" x2="19.6303" y2="38.8425" gradientUnits="userSpaceOnUse">
<stop stop-color="#FFBF26"/>
<stop offset="1" stop-color="#FF2872"/>
</linearGradient>
<linearGradient id="paint3_linear_639_30362" x1="38.3974" y1="20.391" x2="19.6303" y2="38.8425" gradientUnits="userSpaceOnUse">
<stop stop-color="#FFBF26"/>
<stop offset="1" stop-color="#FF2872"/>
</linearGradient>
<linearGradient id="paint4_linear_639_30362" x1="38.3974" y1="20.391" x2="19.6303" y2="38.8425" gradientUnits="userSpaceOnUse">
<stop stop-color="#FFBF26"/>
<stop offset="1" stop-color="#FF2872"/>
</linearGradient>
</defs>
</svg>
