<svg width="25" height="25" viewBox="0 0 25 25" fill="none" xmlns="http://www.w3.org/2000/svg">
<rect x="0.5" y="0.208496" width="24" height="24" rx="4" fill="white"/>
<path d="M17.7389 12.7378C15.3995 12.7378 13.5034 14.6339 13.5034 16.9728C13.5034 19.312 15.3995 21.2085 17.7389 21.2085C20.0778 21.2085 21.9739 19.312 21.9739 16.9728C21.9739 14.6339 20.0778 12.7378 17.7389 12.7378ZM6.73525 12.738C4.39628 12.7382 2.5 14.6339 2.5 16.973C2.5 19.312 4.39628 21.2083 6.73525 21.2083C9.07441 21.2083 10.9707 19.312 10.9707 16.973C10.9707 14.6339 9.07461 12.738 6.73525 12.738ZM16.4722 7.44374C16.4722 9.78271 14.5761 11.6794 12.2372 11.6794C9.8978 11.6794 8.00172 9.78271 8.00172 7.44374C8.00172 5.10478 9.8978 3.2085 12.2372 3.2085C14.5761 3.2085 16.472 5.10478 16.472 7.44374H16.4722Z" fill="url(#paint0_radial_1259_29484)"/>
<defs>
<radialGradient id="paint0_radial_1259_29484" cx="0" cy="0" r="1" gradientUnits="userSpaceOnUse" gradientTransform="translate(12.2369 13.0457) scale(12.9041 11.9272)">
<stop stop-color="#FFB900"/>
<stop offset="0.6" stop-color="#F95D8F"/>
<stop offset="0.9991" stop-color="#F95353"/>
</radialGradient>
</defs>
</svg>
