<svg width="74" height="69" viewBox="0 0 74 69" fill="none" xmlns="http://www.w3.org/2000/svg">
<path d="M57.7849 36.4513C48.9473 36.4513 41.7843 43.6142 41.7843 52.4503C41.7843 61.2872 48.9473 68.4517 57.7849 68.4517C66.621 68.4517 73.784 61.2872 73.784 52.4503C73.784 43.6142 66.621 36.4513 57.7849 36.4513ZM16.2156 36.452C7.37955 36.4528 0.21582 43.6142 0.21582 52.4511C0.21582 61.2872 7.37955 68.4509 16.2156 68.4509C25.0525 68.4509 32.2162 61.2872 32.2162 52.4511C32.2162 43.6142 25.0532 36.452 16.2156 36.452ZM52.9997 16.4515C52.9997 25.2876 45.8368 32.4528 37.0007 32.4528C28.1631 32.4528 21.0001 25.2876 21.0001 16.4515C21.0001 7.6154 28.1631 0.45166 37.0007 0.45166C45.8368 0.45166 52.999 7.6154 52.999 16.4515H52.9997Z" fill="url(#paint0_radial_1259_30106)"/>
<defs>
<radialGradient id="paint0_radial_1259_30106" cx="0" cy="0" r="1" gradientUnits="userSpaceOnUse" gradientTransform="translate(36.9997 37.6144) scale(48.7489 45.0585)">
<stop stop-color="#FFB900"/>
<stop offset="0.6" stop-color="#F95D8F"/>
<stop offset="0.9991" stop-color="#F95353"/>
</radialGradient>
</defs>
</svg>
