<svg width="1440" height="1327" viewBox="0 0 1440 1327" fill="none" xmlns="http://www.w3.org/2000/svg">
<path d="M12.1719 120.353L11.7284 121.026L12.0564 121.762L11.3833 121.319L10.6469 121.647L11.0905 120.974L10.7624 120.238L11.4356 120.681L12.1719 120.353Z" fill="white"/>
<path d="M203.582 177.762L203.138 178.436L203.466 179.172L202.793 178.728L202.057 179.056L202.5 178.383L202.172 177.647L202.845 178.091L203.582 177.762Z" fill="white"/>
<path d="M86.5816 243.762L86.138 244.436L86.4661 245.172L85.793 244.728L85.0566 245.056L85.5002 244.383L85.1721 243.647L85.8452 244.091L86.5816 243.762Z" fill="white"/>
<path d="M104.582 138.762L104.138 139.436L104.466 140.172L103.793 139.728L103.057 140.056L103.5 139.383L103.172 138.647L103.845 139.091L104.582 138.762Z" fill="white"/>
<path d="M49.5816 163.762L49.138 164.436L49.4661 165.172L48.793 164.728L48.0566 165.056L48.5002 164.383L48.1721 163.647L48.8452 164.091L49.5816 163.762Z" fill="white"/>
<path d="M397.582 226.762L397.138 227.436L397.466 228.172L396.793 227.728L396.057 228.056L396.5 227.383L396.172 226.647L396.845 227.091L397.582 226.762Z" fill="white"/>
<path d="M222.582 122.762L222.138 123.436L222.466 124.172L221.793 123.728L221.057 124.056L221.5 123.383L221.172 122.647L221.845 123.091L222.582 122.762Z" fill="white"/>
<path d="M646.582 180.762L646.138 181.436L646.466 182.172L645.793 181.728L645.057 182.056L645.5 181.383L645.172 180.647L645.845 181.091L646.582 180.762Z" fill="white"/>
<path d="M414.582 344.762L414.138 345.436L414.466 346.172L413.793 345.728L413.057 346.056L413.5 345.383L413.172 344.647L413.845 345.091L414.582 344.762Z" fill="white"/>
<path d="M221.582 265.762L221.138 266.436L221.466 267.172L220.793 266.728L220.057 267.056L220.5 266.383L220.172 265.647L220.845 266.091L221.582 265.762Z" fill="white"/>
<path d="M213.582 420.762L213.138 421.436L213.466 422.172L212.793 421.728L212.057 422.056L212.5 421.383L212.172 420.647L212.845 421.091L213.582 420.762Z" fill="white"/>
<path d="M811.582 406.762L811.138 407.436L811.466 408.172L810.793 407.728L810.057 408.056L810.5 407.383L810.172 406.647L810.845 407.091L811.582 406.762Z" fill="white"/>
<path d="M1004.58 209.762L1004.14 210.436L1004.47 211.172L1003.79 210.728L1003.06 211.056L1003.5 210.383L1003.17 209.647L1003.85 210.091L1004.58 209.762Z" fill="white"/>
<path d="M1279.58 385.762L1279.14 386.436L1279.47 387.172L1278.79 386.728L1278.06 387.056L1278.5 386.383L1278.17 385.647L1278.85 386.091L1279.58 385.762Z" fill="white"/>
<path d="M1153.58 699.762L1153.14 700.436L1153.47 701.172L1152.79 700.728L1152.06 701.056L1152.5 700.383L1152.17 699.647L1152.85 700.091L1153.58 699.762Z" fill="white"/>
<path d="M1282.58 899.762L1282.14 900.436L1282.47 901.172L1281.79 900.728L1281.06 901.056L1281.5 900.383L1281.17 899.647L1281.85 900.091L1282.58 899.762Z" fill="white"/>
<path d="M973.582 934.762L973.138 935.436L973.466 936.172L972.793 935.728L972.057 936.056L972.5 935.383L972.172 934.647L972.845 935.091L973.582 934.762Z" fill="white"/>
<path d="M617.582 896.762L617.138 897.436L617.466 898.172L616.793 897.728L616.057 898.056L616.5 897.383L616.172 896.647L616.845 897.091L617.582 896.762Z" fill="white"/>
<path d="M793.582 517.762L793.138 518.436L793.466 519.172L792.793 518.728L792.057 519.056L792.5 518.383L792.172 517.647L792.845 518.091L793.582 517.762Z" fill="white"/>
<path d="M521.582 438.762L521.138 439.436L521.466 440.172L520.793 439.728L520.057 440.056L520.5 439.383L520.172 438.647L520.845 439.091L521.582 438.762Z" fill="white"/>
<path d="M312.582 816.762L312.138 817.436L312.466 818.172L311.793 817.728L311.057 818.056L311.5 817.383L311.172 816.647L311.845 817.091L312.582 816.762Z" fill="white"/>
<path d="M69.5816 702.762L69.138 703.436L69.4661 704.172L68.793 703.728L68.0566 704.056L68.5002 703.383L68.1721 702.647L68.8452 703.091L69.5816 702.762Z" fill="white"/>
<path d="M72.5816 355.762L72.138 356.436L72.4661 357.172L71.793 356.728L71.0566 357.056L71.5002 356.383L71.1721 355.647L71.8452 356.091L72.5816 355.762Z" fill="white"/>
<path d="M394.582 388.762L394.138 389.436L394.466 390.172L393.793 389.728L393.057 390.056L393.5 389.383L393.172 388.647L393.845 389.091L394.582 388.762Z" fill="white"/>
<path d="M961.582 391.762L961.138 392.436L961.466 393.172L960.793 392.728L960.057 393.056L960.5 392.383L960.172 391.647L960.845 392.091L961.582 391.762Z" fill="white"/>
<path d="M852.582 626.762L852.138 627.436L852.466 628.172L851.793 627.728L851.057 628.056L851.5 627.383L851.172 626.647L851.845 627.091L852.582 626.762Z" fill="white"/>
<path d="M719.582 749.762L719.138 750.436L719.466 751.172L718.793 750.728L718.057 751.056L718.5 750.383L718.172 749.647L718.845 750.091L719.582 749.762Z" fill="white"/>
<path d="M535.582 471.762L535.138 472.436L535.466 473.172L534.793 472.728L534.057 473.056L534.5 472.383L534.172 471.647L534.845 472.091L535.582 471.762Z" fill="white"/>
<path d="M752.582 290.762L752.138 291.436L752.466 292.172L751.793 291.728L751.057 292.056L751.5 291.383L751.172 290.647L751.845 291.091L752.582 290.762Z" fill="white"/>
<path d="M107.582 805.762L107.138 806.436L107.466 807.172L106.793 806.728L106.057 807.056L106.5 806.383L106.172 805.647L106.845 806.091L107.582 805.762Z" fill="white"/>
<path d="M83.5816 503.762L83.138 504.436L83.4661 505.172L82.793 504.728L82.0566 505.056L82.5002 504.383L82.1721 503.647L82.8452 504.091L83.5816 503.762Z" fill="white"/>
<path d="M634.582 492.762L634.138 493.436L634.466 494.172L633.793 493.728L633.057 494.056L633.5 493.383L633.172 492.647L633.845 493.091L634.582 492.762Z" fill="white"/>
<path d="M855.582 917.762L855.138 918.436L855.466 919.172L854.793 918.728L854.057 919.056L854.5 918.383L854.172 917.647L854.845 918.091L855.582 917.762Z" fill="white"/>
<path d="M477.582 1005.76L477.138 1006.44L477.466 1007.17L476.793 1006.73L476.057 1007.06L476.5 1006.38L476.172 1005.65L476.845 1006.09L477.582 1005.76Z" fill="white"/>
<path d="M474.582 636.762L474.138 637.436L474.466 638.172L473.793 637.728L473.057 638.056L473.5 637.383L473.172 636.647L473.845 637.091L474.582 636.762Z" fill="white"/>
<path d="M1250.58 183.762L1250.14 184.436L1250.47 185.172L1249.79 184.728L1249.06 185.056L1249.5 184.383L1249.17 183.647L1249.85 184.091L1250.58 183.762Z" fill="white"/>
<path d="M1335.58 141.762L1335.14 142.436L1335.47 143.172L1334.79 142.728L1334.06 143.056L1334.5 142.383L1334.17 141.647L1334.85 142.091L1335.58 141.762Z" fill="white"/>
<path d="M1346.58 931.762L1346.14 932.436L1346.47 933.172L1345.79 932.728L1345.06 933.056L1345.5 932.383L1345.17 931.647L1345.85 932.091L1346.58 931.762Z" fill="white"/>
<path d="M1140.58 1052.76L1140.14 1053.44L1140.47 1054.17L1139.79 1053.73L1139.06 1054.06L1139.5 1053.38L1139.17 1052.65L1139.85 1053.09L1140.58 1052.76Z" fill="white"/>
<path d="M1005.58 621.762L1005.14 622.436L1005.47 623.172L1004.79 622.728L1004.06 623.056L1004.5 622.383L1004.17 621.647L1004.85 622.091L1005.58 621.762Z" fill="white"/>
<path d="M581.229 705.525L580.341 706.871L580.998 708.344L579.651 707.457L578.179 708.113L579.066 706.767L578.41 705.294L579.756 706.181L581.229 705.525Z" fill="white"/>
<path d="M333.753 535.525L332.866 536.871L333.523 538.344L332.176 537.457L330.704 538.113L331.591 536.767L330.935 535.294L332.281 536.181L333.753 535.525Z" fill="white"/>
<path d="M931.753 247.525L930.866 248.871L931.523 250.344L930.176 249.457L928.704 250.113L929.591 248.767L928.935 247.294L930.281 248.181L931.753 247.525Z" fill="white"/>
<path d="M698.753 121.525L697.866 122.871L698.523 124.344L697.176 123.457L695.704 124.113L696.591 122.767L695.935 121.294L697.281 122.181L698.753 121.525Z" fill="white"/>
<path d="M480.753 124.525L479.866 125.871L480.523 127.344L479.176 126.457L477.704 127.113L478.591 125.767L477.935 124.294L479.281 125.181L480.753 124.525Z" fill="white"/>
<path d="M1108.75 92.525L1107.87 93.8712L1108.52 95.3439L1107.18 94.4568L1105.7 95.113L1106.59 93.7667L1105.93 92.294L1107.28 93.1811L1108.75 92.525Z" fill="white"/>
<path d="M906.753 708.525L905.866 709.871L906.523 711.344L905.176 710.457L903.704 711.113L904.591 709.767L903.935 708.294L905.281 709.181L906.753 708.525Z" fill="white"/>
<path d="M208.753 684.525L207.866 685.871L208.523 687.344L207.176 686.457L205.704 687.113L206.591 685.767L205.935 684.294L207.281 685.181L208.753 684.525Z" fill="white"/>
<path d="M175.753 1000.52L174.866 1001.87L175.523 1003.34L174.176 1002.46L172.704 1003.11L173.591 1001.77L172.935 1000.29L174.281 1001.18L175.753 1000.52Z" fill="white"/>
<path d="M65.7535 625.525L64.8664 626.871L65.5225 628.344L64.1763 627.457L62.7036 628.113L63.5907 626.767L62.9345 625.294L64.2808 626.181L65.7535 625.525Z" fill="white"/>
<path d="M54.7535 938.525L53.8664 939.871L54.5225 941.344L53.1763 940.457L51.7036 941.113L52.5907 939.767L51.9345 938.294L53.2808 939.181L54.7535 938.525Z" fill="white"/>
<path d="M16.7535 392.525L15.8664 393.871L16.5225 395.344L15.1763 394.457L13.7036 395.113L14.5907 393.767L13.9345 392.294L15.2808 393.181L16.7535 392.525Z" fill="white"/>
<path d="M743.4 156.136L742.611 156.298L742.322 157.051L742.16 156.261L741.407 155.972L742.197 155.81L742.485 155.057L742.648 155.847L743.4 156.136Z" fill="white"/>
<path d="M951.997 299.678L951.207 299.841L950.919 300.593L950.756 299.804L950.004 299.515L950.793 299.353L951.082 298.6L951.244 299.39L951.997 299.678Z" fill="white"/>
<path d="M671.982 251.595L671.193 251.757L670.904 252.51L670.742 251.72L669.989 251.432L670.779 251.269L671.067 250.517L671.23 251.306L671.982 251.595Z" fill="white"/>
<path d="M591.372 59.262L590.583 59.4243L590.294 60.177L590.132 59.3874L589.379 59.0987L590.169 58.9363L590.457 58.1837L590.62 58.9733L591.372 59.262Z" fill="white"/>
<path d="M476.114 163.207L475.325 163.369L475.036 164.122L474.873 163.332L474.121 163.043L474.91 162.881L475.199 162.128L475.361 162.918L476.114 163.207Z" fill="white"/>
<path d="M908.863 576.157L908.074 576.319L907.785 577.072L907.623 576.282L906.87 575.994L907.659 575.831L907.948 575.079L908.111 575.868L908.863 576.157Z" fill="white"/>
<path d="M1184.63 573.329L1183.85 573.491L1183.56 574.244L1183.39 573.454L1182.64 573.165L1183.43 573.003L1183.72 572.25L1183.88 573.04L1184.63 573.329Z" fill="white"/>
<path d="M1254.64 892.234L1253.85 892.396L1253.56 893.149L1253.4 892.359L1252.65 892.07L1253.43 891.908L1253.72 891.155L1253.89 891.945L1254.64 892.234Z" fill="white"/>
<path d="M943.512 1025.17L942.722 1025.33L942.433 1026.08L942.271 1025.3L941.518 1025.01L942.308 1024.84L942.597 1024.09L942.759 1024.88L943.512 1025.17Z" fill="white"/>
<path d="M893.307 1257.81L892.517 1257.97L892.229 1258.72L892.066 1257.93L891.314 1257.64L892.103 1257.48L892.392 1256.73L892.554 1257.52L893.307 1257.81Z" fill="white"/>
<path d="M650.062 1064.06L649.273 1064.22L648.984 1064.98L648.822 1064.19L648.069 1063.9L648.859 1063.74L649.147 1062.98L649.31 1063.77L650.062 1064.06Z" fill="white"/>
<path d="M425.202 785.461L424.412 785.623L424.124 786.376L423.961 785.586L423.209 785.297L423.998 785.135L424.287 784.382L424.449 785.172L425.202 785.461Z" fill="white"/>
<path d="M817.646 641.918L816.857 642.08L816.568 642.833L816.406 642.043L815.653 641.755L816.443 641.592L816.731 640.84L816.894 641.629L817.646 641.918Z" fill="white"/>
<path d="M681.175 393.723L680.385 393.886L680.096 394.638L679.934 393.849L679.181 393.56L679.971 393.398L680.26 392.645L680.422 393.435L681.175 393.723Z" fill="white"/>
<path d="M266.103 513.225L265.314 513.387L265.025 514.14L264.863 513.35L264.11 513.061L264.9 512.899L265.188 512.146L265.351 512.936L266.103 513.225Z" fill="white"/>
<path d="M174.887 260.787L174.097 260.95L173.808 261.702L173.646 260.913L172.893 260.624L173.683 260.462L173.972 259.709L174.134 260.499L174.887 260.787Z" fill="white"/>
<path d="M422.374 17.5427L421.584 17.705L421.296 18.4577L421.133 17.6681L420.381 17.3794L421.17 17.217L421.459 16.4644L421.621 17.254L422.374 17.5427Z" fill="white"/>
<path d="M626.728 268.566L625.938 268.728L625.65 269.481L625.487 268.691L624.735 268.402L625.524 268.24L625.813 267.487L625.975 268.277L626.728 268.566Z" fill="white"/>
<path d="M1025.54 671.616L1024.75 671.779L1024.46 672.531L1024.3 671.742L1023.54 671.453L1024.33 671.291L1024.62 670.538L1024.78 671.328L1025.54 671.616Z" fill="white"/>
<path d="M782.291 760.712L781.502 760.874L781.213 761.627L781.051 760.837L780.298 760.549L781.088 760.386L781.376 759.634L781.539 760.423L782.291 760.712Z" fill="white"/>
<path d="M601.272 753.641L600.482 753.803L600.194 754.556L600.031 753.766L599.279 753.478L600.068 753.315L600.357 752.563L600.519 753.352L601.272 753.641Z" fill="white"/>
<path d="M667.74 426.957L666.95 427.12L666.661 427.873L666.499 427.083L665.746 426.794L666.536 426.632L666.825 425.879L666.987 426.669L667.74 426.957Z" fill="white"/>
<path d="M949.168 452.413L948.379 452.576L948.09 453.328L947.928 452.539L947.175 452.25L947.965 452.088L948.253 451.335L948.416 452.125L949.168 452.413Z" fill="white"/>
<path d="M128.925 360.489L128.135 360.652L127.846 361.404L127.684 360.615L126.931 360.326L127.721 360.164L128.01 359.411L128.172 360.201L128.925 360.489Z" fill="white"/>
<path d="M325.5 129.973L324.711 130.135L324.422 130.888L324.26 130.098L323.507 129.809L324.297 129.647L324.585 128.894L324.748 129.684L325.5 129.973Z" fill="white"/>
<path d="M722.894 511.81L722.105 511.973L721.816 512.725L721.654 511.936L720.901 511.647L721.691 511.485L721.979 510.732L722.142 511.522L722.894 511.81Z" fill="white"/>
<path d="M578.644 968.601L577.855 968.764L577.566 969.516L577.404 968.727L576.651 968.438L577.441 968.276L577.729 967.523L577.892 968.313L578.644 968.601Z" fill="white"/>
<path d="M249.133 763.54L248.343 763.703L248.054 764.455L247.892 763.666L247.139 763.377L247.929 763.215L248.218 762.462L248.38 763.252L249.133 763.54Z" fill="white"/>
<path d="M507.934 500.497L507.144 500.659L506.856 501.412L506.693 500.622L505.941 500.333L506.73 500.171L507.019 499.418L507.181 500.208L507.934 500.497Z" fill="white"/>
<path d="M1376.97 728.892L1376.18 729.054L1375.89 729.807L1375.73 729.017L1374.97 728.729L1375.76 728.566L1376.05 727.814L1376.22 728.603L1376.97 728.892Z" fill="white"/>
<path d="M915.934 1325.69L915.145 1325.85L914.856 1326.61L914.694 1325.82L913.941 1325.53L914.731 1325.36L915.019 1324.61L915.182 1325.4L915.934 1325.69Z" fill="white"/>
<path d="M684.71 1265.59L683.921 1265.75L683.632 1266.5L683.47 1265.71L682.717 1265.42L683.507 1265.26L683.795 1264.51L683.958 1265.3L684.71 1265.59Z" fill="white"/>
<path d="M894.014 865.364L893.224 865.526L892.936 866.279L892.773 865.489L892.021 865.2L892.81 865.038L893.099 864.285L893.261 865.075L894.014 865.364Z" fill="white"/>
<path d="M534.722 624.53L533.143 624.855L532.565 626.36L532.241 624.781L530.735 624.203L532.315 623.879L532.892 622.373L533.217 623.952L534.722 624.53Z" fill="white"/>
<path d="M479.939 329.33L478.36 329.655L477.783 331.16L477.458 329.581L475.953 329.004L477.532 328.679L478.109 327.174L478.434 328.753L479.939 329.33Z" fill="white"/>
<path d="M1106.44 548.534L1104.86 548.858L1104.28 550.364L1103.95 548.784L1102.45 548.207L1104.03 547.882L1104.61 546.377L1104.93 547.956L1106.44 548.534Z" fill="white"/>
<path d="M1030.78 294.682L1029.2 295.007L1028.62 296.512L1028.29 294.933L1026.79 294.356L1028.37 294.031L1028.95 292.526L1029.27 294.105L1030.78 294.682Z" fill="white"/>
<path d="M874.505 142.654L872.925 142.979L872.348 144.484L872.023 142.905L870.518 142.328L872.097 142.003L872.675 140.498L872.999 142.077L874.505 142.654Z" fill="white"/>
<path d="M1341.2 564.09L1339.62 564.415L1339.04 565.92L1338.71 564.341L1337.21 563.763L1338.79 563.439L1339.37 561.933L1339.69 563.513L1341.2 564.09Z" fill="white"/>
<path d="M762.782 856.832L761.202 857.157L760.625 858.662L760.3 857.083L758.795 856.505L760.374 856.181L760.952 854.675L761.276 856.255L762.782 856.832Z" fill="white"/>
<path d="M286.192 346.301L284.612 346.626L284.035 348.131L283.71 346.552L282.205 345.974L283.784 345.65L284.362 344.144L284.686 345.724L286.192 346.301Z" fill="white"/>
<path d="M39.4114 546.412L37.8322 546.737L37.2548 548.242L36.9301 546.663L35.4248 546.086L37.004 545.761L37.5814 544.256L37.9061 545.835L39.4114 546.412Z" fill="white"/>
<path d="M226.795 203.465L225.215 203.79L224.638 205.295L224.313 203.716L222.808 203.139L224.387 202.814L224.965 201.309L225.289 202.888L226.795 203.465Z" fill="white"/>
<path d="M356.903 4.06131L355.323 4.386L354.746 5.89133L354.421 4.3121L352.916 3.73471L354.495 3.41002L355.073 1.90469L355.397 3.48392L356.903 4.06131Z" fill="white"/>
</svg>
