<svg width="64" height="64" viewBox="0 0 64 64" fill="none" xmlns="http://www.w3.org/2000/svg">
<g clip-path="url(#clip0_3070_57887)">
<path d="M39 47.46C39.6077 47.8125 40.2975 47.9988 41 48V42L34 40L32 42V54H41V52L39 50V47.46Z" fill="#585858"/>
<path d="M54.63 13.6211L50.24 18.0011C49.0177 16.4088 47.5923 14.9833 46 13.7611L50.38 9.37109L54.63 13.6211Z" fill="#FDD320"/>
<path d="M61 29V35H43.62C43.8742 34.0203 44.0019 33.0121 44 32C44 28.8174 42.7357 25.7652 40.4853 23.5147C38.2348 21.2643 35.1826 20 32 20C28.8174 20 25.7652 21.2643 23.5147 23.5147C21.2643 25.7652 20 28.8174 20 32C19.9981 33.0121 20.1258 34.0203 20.38 35H3V29H9.2C9.71736 24.9938 11.2912 21.1973 13.76 18L9.37 13.62L13.62 9.37L18 13.76C21.1973 11.2912 24.9938 9.71736 29 9.2V3H35V9.2C39.0062 9.71736 42.8027 11.2912 46 13.76C47.5923 14.9823 49.0177 16.4077 50.24 18C52.7088 21.1973 54.2826 24.9938 54.8 29H61Z" fill="#909090"/>
<path d="M39 47.46C39.6077 47.8125 40.2975 47.9988 41 48V42L34 40L32 42L30 40L23.26 41.92L23 42V48C23.7025 47.9988 24.3923 47.8125 25 47.46V50L23 52V54H41V52L39 50V47.46Z" fill="#909090"/>
<path d="M36 33V35C36 36.0609 35.5786 37.0783 34.8284 37.8284C34.0783 38.5786 33.0609 39 32 39C30.9391 39 29.9217 38.5786 29.1716 37.8284C28.4214 37.0783 28 36.0609 28 35V33C28 31.9391 28.4214 30.9217 29.1716 30.1716C29.9217 29.4214 30.9391 29 32 29C33.0609 29 34.0783 29.4214 34.8284 30.1716C35.5786 30.9217 36 31.9391 36 33Z" fill="#FDDC51"/>
<path d="M45.0001 43.0015V45.0015C45.0001 46.0624 44.5787 47.0798 43.8285 47.8299C43.0784 48.5801 42.061 49.0015 41.0001 49.0015C39.9393 49.0015 38.9218 48.5801 38.1717 47.8299C37.4215 47.0798 37.0001 46.0624 37.0001 45.0015V43.0015C36.9971 42.6288 37.0511 42.2579 37.1601 41.9015C37.3417 41.2495 37.6858 40.6543 38.1601 40.1715C38.719 39.608 39.4329 39.2235 40.2109 39.0669C40.989 38.9103 41.796 38.9887 42.5294 39.2922C43.2627 39.5956 43.8893 40.1103 44.3292 40.7708C44.7692 41.4314 45.0027 42.2079 45.0001 43.0015Z" fill="#FDD320"/>
<path d="M43 50L41 52L39 50L32.26 51.92L32 52V61H41H50V52L43 50Z" fill="#FDD320"/>
<path d="M27 42.9992V44.9992C27 46.0601 26.5786 47.0775 25.8284 47.8277C25.0783 48.5778 24.0609 48.9992 23 48.9992C21.9391 48.9992 20.9217 48.5778 20.1716 47.8277C19.4214 47.0775 19 46.0601 19 44.9992V42.9992C18.9994 42.2077 19.2336 41.4337 19.6731 40.7753C20.1126 40.1169 20.7375 39.6038 21.4688 39.3008C22.2001 38.9977 23.0049 38.9185 23.7812 39.0731C24.5576 39.2277 25.2706 39.6092 25.83 40.1692C26.3043 40.652 26.6484 41.2473 26.83 41.8992C26.9424 42.2551 26.9997 42.6261 27 42.9992Z" fill="#FDDC51"/>
<path d="M25 50L23 52L21 50L14 52V61H23H32V52L25 50Z" fill="#FDDC51"/>
<path d="M9 40H7V58H9V40Z" fill="#585858"/>
<path d="M9 60H7V62H9V60Z" fill="#585858"/>
<path d="M10.2 43.6L8.00001 40.67L5.80001 43.6L4.20001 42.4L7.20001 38.4C7.29316 38.2758 7.41394 38.175 7.5528 38.1056C7.69165 38.0361 7.84477 38 8.00001 38C8.15526 38 8.30837 38.0361 8.44723 38.1056C8.58608 38.175 8.70687 38.2758 8.80001 38.4L11.8 42.4L10.2 43.6Z" fill="#585858"/>
<path d="M57 40H55V54H57V40Z" fill="#585858"/>
<path d="M57 60H55V62H57V60Z" fill="#585858"/>
<path d="M58.2 43.6L56 40.67L53.8 43.6L52.2 42.4L55.2 38.4C55.2932 38.2758 55.4139 38.175 55.5528 38.1056C55.6917 38.0361 55.8448 38 56 38C56.1553 38 56.3084 38.0361 56.4472 38.1056C56.5861 38.175 56.7069 38.2758 56.8 38.4L59.8 42.4L58.2 43.6Z" fill="#585858"/>
<path d="M57 56H55V58H57V56Z" fill="#585858"/>
</g>
<defs>
<clipPath id="clip0_3070_57887">
<rect width="64" height="64" fill="white"/>
</clipPath>
</defs>
</svg>
