<svg width="26" height="17" viewBox="0 0 26 17" fill="none" xmlns="http://www.w3.org/2000/svg">
<rect x="1.45361" y="1" width="23.1818" height="15" rx="2.72727" fill="white"/>
<rect x="1.1127" y="0.659091" width="23.8636" height="15.6818" rx="3.06818" stroke="black" stroke-opacity="0.1" stroke-width="0.681818"/>
<path d="M6.68213 10.0891H11.6926L14.4255 7.06694H19.4056L18.191 8.51759H20.4684C21.0029 8.51759 21.1972 8.07434 21.2276 7.85271V6.31139C21.2276 5.44099 20.6 5.30398 20.2862 5.34428H12.2392C11.2917 5.17504 10.488 5.81776 10.2046 6.16027L6.68213 10.0891Z" fill="#FBDD4B"/>
<path d="M19.6367 6.91087H14.6263L11.8933 9.93306H6.91324L8.12789 8.48241H5.85042C5.31597 8.48241 5.12163 8.92566 5.09126 9.14729V10.6886C5.09126 11.559 5.71883 11.696 6.03262 11.6557H14.0797C15.0271 11.825 15.8308 11.1822 16.1142 10.8397L19.6367 6.91087Z" fill="#1A4E8D"/>
</svg>
