<svg width="192" height="192" viewBox="0 0 192 192" fill="none" xmlns="http://www.w3.org/2000/svg">
<g filter="url(#filter0_d_1171_4179)">
<g clip-path="url(#clip0_1171_4179)">
<mask id="path-2-inside-1_1171_4179" fill="white">
<path d="M17 15.0002H174.999V173H17V15.0002Z"/>
</mask>
<path d="M17 15.0002H174.999V173H17V15.0002Z" fill="url(#paint0_linear_1171_4179)"/>
<path d="M17 15.8175H174.999V14.183H17V15.8175Z" fill="url(#paint1_linear_1171_4179)" mask="url(#path-2-inside-1_1171_4179)"/>
<g filter="url(#filter1_f_1171_4179)">
<ellipse cx="31.1423" cy="32.4324" rx="12.531" ry="12.531" fill="url(#paint2_linear_1171_4179)"/>
</g>
<path d="M155.793 29.1285C140.544 20.7118 127.201 24.5137 95.3415 17.1823C90.458 16.0585 83.0923 15.4838 75.5445 15.213L46.3262 15.2754C46.3262 15.2754 61.2614 14.7003 75.5445 15.213L175.009 15.0002V62.5237C175.009 62.5237 171.043 37.5452 155.793 29.1285Z" fill="url(#paint3_linear_1171_4179)"/>
<g filter="url(#filter2_f_1171_4179)">
<ellipse cx="141.323" cy="37.6134" rx="10.0301" ry="10.0333" fill="url(#paint4_linear_1171_4179)"/>
<path d="M151.284 37.6134C151.284 43.1164 146.824 47.5774 141.323 47.5774C135.822 47.5774 131.362 43.1164 131.362 37.6134C131.362 32.1103 135.822 27.6493 141.323 27.6493C146.824 27.6493 151.284 32.1103 151.284 37.6134Z" stroke="url(#paint5_linear_1171_4179)" stroke-width="0.138433"/>
</g>
<g filter="url(#filter3_d_1171_4179)">
<ellipse cx="142.016" cy="36.9178" rx="10.0301" ry="10.0333" fill="url(#paint6_linear_1171_4179)"/>
</g>
<g filter="url(#filter4_d_1171_4179)">
<ellipse cx="96.031" cy="99.5379" rx="61.5642" ry="61.5836" fill="url(#paint7_linear_1171_4179)"/>
<path d="M156.903 99.5379C156.903 133.168 129.649 160.429 96.031 160.429C62.4125 160.429 35.159 133.168 35.159 99.5379C35.159 65.9083 62.4125 38.6465 96.031 38.6465C129.649 38.6465 156.903 65.9083 156.903 99.5379Z" stroke="url(#paint8_linear_1171_4179)" stroke-width="1.38433"/>
</g>
<g filter="url(#filter5_d_1171_4179)">
<ellipse cx="96.0189" cy="99.5412" rx="44.2709" ry="44.2848" fill="url(#paint9_linear_1171_4179)"/>
<path d="M139.598 99.5412C139.598 123.617 120.087 143.134 96.0189 143.134C71.9513 143.134 52.4402 123.617 52.4402 99.5412C52.4402 75.4654 71.9513 55.9485 96.0189 55.9485C120.087 55.9485 139.598 75.4654 139.598 99.5412Z" stroke="url(#paint10_linear_1171_4179)" stroke-width="1.38433"/>
</g>
<g filter="url(#filter6_di_1171_4179)">
<ellipse cx="97.0786" cy="99.8932" rx="25.9399" ry="25.9481" fill="url(#paint11_linear_1171_4179)"/>
<path d="M122.326 99.8932C122.326 113.842 111.022 125.149 97.0786 125.149C83.1349 125.149 71.8308 113.842 71.8308 99.8932C71.8308 85.9445 83.1349 74.6372 97.0786 74.6372C111.022 74.6372 122.326 85.9445 122.326 99.8932Z" stroke="url(#paint12_linear_1171_4179)" stroke-width="1.38433"/>
</g>
</g>
</g>
<defs>
<filter id="filter0_d_1171_4179" x="0.560734" y="0.387319" width="190.879" height="190.879" filterUnits="userSpaceOnUse" color-interpolation-filters="sRGB">
<feFlood flood-opacity="0" result="BackgroundImageFix"/>
<feColorMatrix in="SourceAlpha" type="matrix" values="0 0 0 0 0 0 0 0 0 0 0 0 0 0 0 0 0 0 127 0" result="hardAlpha"/>
<feOffset dy="1.82659"/>
<feGaussianBlur stdDeviation="8.21963"/>
<feComposite in2="hardAlpha" operator="out"/>
<feColorMatrix type="matrix" values="0 0 0 0 1 0 0 0 0 0.866667 0 0 0 0 0.0352941 0 0 0 1 0"/>
<feBlend mode="normal" in2="BackgroundImageFix" result="effect1_dropShadow_1171_4179"/>
<feBlend mode="normal" in="SourceGraphic" in2="effect1_dropShadow_1171_4179" result="shape"/>
</filter>
<filter id="filter1_f_1171_4179" x="18.0665" y="19.3565" width="26.1522" height="26.1517" filterUnits="userSpaceOnUse" color-interpolation-filters="sRGB">
<feFlood flood-opacity="0" result="BackgroundImageFix"/>
<feBlend mode="normal" in="SourceGraphic" in2="BackgroundImageFix" result="shape"/>
<feGaussianBlur stdDeviation="0.272413" result="effect1_foregroundBlur_1171_4179"/>
</filter>
<filter id="filter2_f_1171_4179" x="129.216" y="25.5036" width="24.2136" height="24.2197" filterUnits="userSpaceOnUse" color-interpolation-filters="sRGB">
<feFlood flood-opacity="0" result="BackgroundImageFix"/>
<feBlend mode="normal" in="SourceGraphic" in2="BackgroundImageFix" result="shape"/>
<feGaussianBlur stdDeviation="1.03825" result="effect1_foregroundBlur_1171_4179"/>
</filter>
<filter id="filter3_d_1171_4179" x="116.759" y="26.1924" width="35.2882" height="35.2943" filterUnits="userSpaceOnUse" color-interpolation-filters="sRGB">
<feFlood flood-opacity="0" result="BackgroundImageFix"/>
<feColorMatrix in="SourceAlpha" type="matrix" values="0 0 0 0 0 0 0 0 0 0 0 0 0 0 0 0 0 0 127 0" result="hardAlpha"/>
<feOffset dx="-7.61384" dy="6.92167"/>
<feGaussianBlur stdDeviation="3.80692"/>
<feComposite in2="hardAlpha" operator="out"/>
<feColorMatrix type="matrix" values="0 0 0 0 0.980392 0 0 0 0 0.498039 0 0 0 0 0.0117647 0 0 0 0.79 0"/>
<feBlend mode="normal" in2="BackgroundImageFix" result="effect1_dropShadow_1171_4179"/>
<feBlend mode="normal" in="SourceGraphic" in2="effect1_dropShadow_1171_4179" result="shape"/>
</filter>
<filter id="filter4_d_1171_4179" x="6.08794" y="35.1857" width="164.659" height="164.697" filterUnits="userSpaceOnUse" color-interpolation-filters="sRGB">
<feFlood flood-opacity="0" result="BackgroundImageFix"/>
<feColorMatrix in="SourceAlpha" type="matrix" values="0 0 0 0 0 0 0 0 0 0 0 0 0 0 0 0 0 0 127 0" result="hardAlpha"/>
<feOffset dx="-7.61384" dy="17.9964"/>
<feGaussianBlur stdDeviation="10.3825"/>
<feComposite in2="hardAlpha" operator="out"/>
<feColorMatrix type="matrix" values="0 0 0 0 0.956863 0 0 0 0 0.419608 0 0 0 0 0.0862745 0 0 0 0.82 0"/>
<feBlend mode="normal" in2="BackgroundImageFix" result="effect1_dropShadow_1171_4179"/>
<feBlend mode="normal" in="SourceGraphic" in2="effect1_dropShadow_1171_4179" result="shape"/>
</filter>
<filter id="filter5_d_1171_4179" x="39.289" y="50.4112" width="103.769" height="103.797" filterUnits="userSpaceOnUse" color-interpolation-filters="sRGB">
<feFlood flood-opacity="0" result="BackgroundImageFix"/>
<feColorMatrix in="SourceAlpha" type="matrix" values="0 0 0 0 0 0 0 0 0 0 0 0 0 0 0 0 0 0 127 0" result="hardAlpha"/>
<feOffset dx="-4.84517" dy="2.76867"/>
<feGaussianBlur stdDeviation="3.80692"/>
<feComposite in2="hardAlpha" operator="out"/>
<feColorMatrix type="matrix" values="0 0 0 0 0.968627 0 0 0 0 0.0470588 0 0 0 0 0.309804 0 0 0 1 0"/>
<feBlend mode="normal" in2="BackgroundImageFix" result="effect1_dropShadow_1171_4179"/>
<feBlend mode="normal" in="SourceGraphic" in2="effect1_dropShadow_1171_4179" result="shape"/>
</filter>
<filter id="filter6_di_1171_4179" x="60.7562" y="73.9451" width="64.3379" height="69.2004" filterUnits="userSpaceOnUse" color-interpolation-filters="sRGB">
<feFlood flood-opacity="0" result="BackgroundImageFix"/>
<feColorMatrix in="SourceAlpha" type="matrix" values="0 0 0 0 0 0 0 0 0 0 0 0 0 0 0 0 0 0 127 0" result="hardAlpha"/>
<feOffset dx="-4.153" dy="6.22951"/>
<feGaussianBlur stdDeviation="3.11475"/>
<feComposite in2="hardAlpha" operator="out"/>
<feColorMatrix type="matrix" values="0 0 0 0 0.968627 0 0 0 0 0.113725 0 0 0 0 0.270588 0 0 0 1 0"/>
<feBlend mode="normal" in2="BackgroundImageFix" result="effect1_dropShadow_1171_4179"/>
<feBlend mode="normal" in="SourceGraphic" in2="effect1_dropShadow_1171_4179" result="shape"/>
<feColorMatrix in="SourceAlpha" type="matrix" values="0 0 0 0 0 0 0 0 0 0 0 0 0 0 0 0 0 0 127 0" result="hardAlpha"/>
<feOffset dx="-4.84517" dy="17.3042"/>
<feGaussianBlur stdDeviation="12.1129"/>
<feComposite in2="hardAlpha" operator="arithmetic" k2="-1" k3="1"/>
<feColorMatrix type="matrix" values="0 0 0 0 0.992157 0 0 0 0 0.584314 0 0 0 0 0.0784314 0 0 0 1 0"/>
<feBlend mode="normal" in2="shape" result="effect2_innerShadow_1171_4179"/>
</filter>
<linearGradient id="paint0_linear_1171_4179" x1="153.479" y1="5.59548" x2="32.463" y2="165.465" gradientUnits="userSpaceOnUse">
<stop stop-color="#FDD01F"/>
<stop offset="0.369907" stop-color="#FDD320"/>
<stop offset="0.496817" stop-color="#F8C240"/>
<stop offset="1" stop-color="#F8861B"/>
</linearGradient>
<linearGradient id="paint1_linear_1171_4179" x1="95.9996" y1="15.0002" x2="95.9996" y2="173" gradientUnits="userSpaceOnUse">
<stop stop-color="#FDE77F"/>
<stop offset="1" stop-color="#F99D40"/>
</linearGradient>
<linearGradient id="paint2_linear_1171_4179" x1="42.0388" y1="31.3427" x2="23.2423" y2="36.5186" gradientUnits="userSpaceOnUse">
<stop stop-color="#FCAF0C"/>
<stop offset="1" stop-color="#FCB50D" stop-opacity="0"/>
</linearGradient>
<linearGradient id="paint3_linear_1171_4179" x1="154.704" y1="38.8964" x2="163.104" y2="19.6014" gradientUnits="userSpaceOnUse">
<stop stop-color="#FFDD4D"/>
<stop offset="1" stop-color="#FEF4CB"/>
</linearGradient>
<linearGradient id="paint4_linear_1171_4179" x1="134.06" y1="40.7271" x2="145.478" y2="25.1617" gradientUnits="userSpaceOnUse">
<stop stop-color="#F97B04"/>
<stop offset="1" stop-color="#FEE43B"/>
</linearGradient>
<linearGradient id="paint5_linear_1171_4179" x1="146.857" y1="28.272" x2="129.213" y2="44.1813" gradientUnits="userSpaceOnUse">
<stop stop-color="#FEF1AC"/>
<stop offset="1" stop-color="#FB7C06"/>
</linearGradient>
<linearGradient id="paint6_linear_1171_4179" x1="147.204" y1="28.2684" x2="143.398" y2="33.4569" gradientUnits="userSpaceOnUse">
<stop stop-color="#FEF3B3"/>
<stop offset="1" stop-color="#FEE43B"/>
</linearGradient>
<linearGradient id="paint7_linear_1171_4179" x1="136.497" y1="60.4427" x2="45.5099" y2="139.297" gradientUnits="userSpaceOnUse">
<stop stop-color="#FFBF26"/>
<stop offset="1" stop-color="#FF2872"/>
</linearGradient>
<linearGradient id="paint8_linear_1171_4179" x1="130.963" y1="75.3197" x2="91.1846" y2="93.3009" gradientUnits="userSpaceOnUse">
<stop stop-color="#FFE171"/>
<stop offset="0.516562" stop-color="#FE9A15"/>
<stop offset="1" stop-color="#FF2086" stop-opacity="0.49"/>
</linearGradient>
<linearGradient id="paint9_linear_1171_4179" x1="165.538" y1="72.2091" x2="44.4706" y2="130.303" gradientUnits="userSpaceOnUse">
<stop stop-color="#FFBF26"/>
<stop offset="1" stop-color="#FF2872"/>
</linearGradient>
<linearGradient id="paint10_linear_1171_4179" x1="121.139" y1="82.1258" x2="78.0232" y2="116.827" gradientUnits="userSpaceOnUse">
<stop stop-color="#FFE171"/>
<stop offset="0.550196" stop-color="#FE9A15"/>
<stop offset="1" stop-color="#F92A4B" stop-opacity="0"/>
</linearGradient>
<linearGradient id="paint11_linear_1171_4179" x1="91.1989" y1="99.5472" x2="156.943" y2="-5.26452" gradientUnits="userSpaceOnUse">
<stop stop-color="#FFBF26"/>
<stop offset="1" stop-color="#FF2872"/>
</linearGradient>
<linearGradient id="paint12_linear_1171_4179" x1="111.797" y1="89.6889" x2="66.6348" y2="116.833" gradientUnits="userSpaceOnUse">
<stop stop-color="#FFE171"/>
<stop offset="0.550196" stop-color="#FE9A15"/>
<stop offset="1" stop-color="#F92A4B"/>
</linearGradient>
<clipPath id="clip0_1171_4179">
<path d="M17 67.4608C17 42.7305 17 30.3654 24.6827 22.6827C32.3654 15 44.7305 15 69.4608 15H122.538C147.269 15 159.634 15 167.316 22.6827C174.999 30.3654 174.999 42.7305 174.999 67.4608V120.539C174.999 145.269 174.999 157.635 167.316 165.317C159.634 173 147.269 173 122.538 173H69.4608C44.7306 173 32.3654 173 24.6827 165.317C17 157.635 17 145.269 17 120.539V67.4608Z" fill="white"/>
</clipPath>
</defs>
</svg>
