<svg width="15" height="16" viewBox="0 0 15 16" fill="none" xmlns="http://www.w3.org/2000/svg">
<path d="M5.66774 10.8163L5.03909 13.576C5.01232 13.7077 4.95509 13.8112 4.8674 13.8867C4.7797 13.9622 4.67262 14 4.54616 14C4.37815 14 4.24062 13.926 4.13355 13.7781C4.02647 13.6301 3.996 13.4674 4.04216 13.2898L4.60157 10.8163H2.54948C2.36947 10.8163 2.22477 10.7403 2.11539 10.5883C2.006 10.4362 1.97439 10.2648 2.02054 10.074C2.05192 9.93418 2.11631 9.82398 2.21369 9.74337C2.31108 9.66277 2.423 9.62247 2.54948 9.62247H4.87158L5.60545 6.37753H3.55336C3.37336 6.37753 3.22866 6.30152 3.11928 6.14948C3.00989 5.99745 2.97827 5.82603 3.02443 5.63522C3.05581 5.49541 3.12019 5.38521 3.21758 5.30461C3.31496 5.224 3.42689 5.18369 3.55336 5.18369H5.87546L6.50411 2.42397C6.53087 2.29234 6.5881 2.18877 6.6758 2.11326C6.76348 2.03775 6.87057 2 6.99704 2C7.16503 2 7.30257 2.07397 7.40965 2.22192C7.51673 2.36989 7.5472 2.53264 7.50104 2.71018L6.94163 5.18369H9.91869L10.5473 2.42397C10.5741 2.29234 10.6313 2.18877 10.719 2.11326C10.8067 2.03775 10.9138 2 11.0403 2C11.2083 2 11.3458 2.07397 11.4529 2.22192C11.56 2.36989 11.5904 2.53264 11.5443 2.71018L10.9849 5.18369H13.0369C13.217 5.18369 13.3617 5.25971 13.471 5.41174C13.5804 5.56378 13.612 5.7352 13.5659 5.92603C13.5345 6.06582 13.4701 6.17602 13.3727 6.25663C13.2754 6.33723 13.1634 6.37753 13.0369 6.37753H10.7148L9.98097 9.62247H12.0331C12.2131 9.62247 12.3578 9.69848 12.4672 9.85052C12.5765 10.0026 12.6082 10.174 12.562 10.3648C12.5306 10.5046 12.4662 10.6148 12.3688 10.6954C12.2715 10.776 12.1595 10.8163 12.0331 10.8163H9.71096L9.08232 13.576C9.05556 13.7077 8.99833 13.8112 8.91063 13.8867C8.82294 13.9622 8.71586 14 8.58939 14C8.42139 14 8.28385 13.926 8.17677 13.7781C8.06969 13.6301 8.03923 13.4674 8.08538 13.2898L8.64479 10.8163H5.66774ZM5.93775 9.62247H8.91481L9.64868 6.37753H6.67162L5.93775 9.62247Z" fill="#7344D3"/>
<path d="M5.66774 10.8163L5.03909 13.576C5.01232 13.7077 4.95509 13.8112 4.8674 13.8867C4.7797 13.9622 4.67262 14 4.54616 14C4.37815 14 4.24062 13.926 4.13355 13.7781C4.02647 13.6301 3.996 13.4674 4.04216 13.2898L4.60157 10.8163H2.54948C2.36947 10.8163 2.22477 10.7403 2.11539 10.5883C2.006 10.4362 1.97439 10.2648 2.02054 10.074C2.05192 9.93418 2.11631 9.82398 2.21369 9.74337C2.31108 9.66277 2.423 9.62247 2.54948 9.62247H4.87158L5.60545 6.37753H3.55336C3.37336 6.37753 3.22866 6.30152 3.11928 6.14948C3.00989 5.99745 2.97827 5.82603 3.02443 5.63522C3.05581 5.49541 3.12019 5.38521 3.21758 5.30461C3.31496 5.224 3.42689 5.18369 3.55336 5.18369H5.87546L6.50411 2.42397C6.53087 2.29234 6.5881 2.18877 6.6758 2.11326C6.76348 2.03775 6.87057 2 6.99704 2C7.16503 2 7.30257 2.07397 7.40965 2.22192C7.51673 2.36989 7.5472 2.53264 7.50104 2.71018L6.94163 5.18369H9.91869L10.5473 2.42397C10.5741 2.29234 10.6313 2.18877 10.719 2.11326C10.8067 2.03775 10.9138 2 11.0403 2C11.2083 2 11.3458 2.07397 11.4529 2.22192C11.56 2.36989 11.5904 2.53264 11.5443 2.71018L10.9849 5.18369H13.0369C13.217 5.18369 13.3617 5.25971 13.471 5.41174C13.5804 5.56378 13.612 5.7352 13.5659 5.92603C13.5345 6.06582 13.4701 6.17602 13.3727 6.25663C13.2754 6.33723 13.1634 6.37753 13.0369 6.37753H10.7148L9.98097 9.62247H12.0331C12.2131 9.62247 12.3578 9.69848 12.4672 9.85052C12.5765 10.0026 12.6082 10.174 12.562 10.3648C12.5306 10.5046 12.4662 10.6148 12.3688 10.6954C12.2715 10.776 12.1595 10.8163 12.0331 10.8163H9.71096L9.08232 13.576C9.05556 13.7077 8.99833 13.8112 8.91063 13.8867C8.82294 13.9622 8.71586 14 8.58939 14C8.42139 14 8.28385 13.926 8.17677 13.7781C8.06969 13.6301 8.03923 13.4674 8.08538 13.2898L8.64479 10.8163H5.66774ZM5.93775 9.62247H8.91481L9.64868 6.37753H6.67162L5.93775 9.62247Z" fill="#FFA3B4"/>
<g filter="url(#filter0_f_186_13628)">
<path d="M5.66774 10.8163L5.03909 13.576C5.01232 13.7077 4.95509 13.8112 4.8674 13.8867C4.7797 13.9622 4.67262 14 4.54616 14C4.37815 14 4.24062 13.926 4.13355 13.7781C4.02647 13.6301 3.996 13.4674 4.04216 13.2898L4.60157 10.8163H2.54948C2.36947 10.8163 2.22477 10.7403 2.11539 10.5883C2.006 10.4362 1.97439 10.2648 2.02054 10.074C2.05192 9.93418 2.11631 9.82398 2.21369 9.74337C2.31108 9.66277 2.423 9.62247 2.54948 9.62247H4.87158L5.60545 6.37753H3.55336C3.37336 6.37753 3.22866 6.30152 3.11928 6.14948C3.00989 5.99745 2.97827 5.82603 3.02443 5.63522C3.05581 5.49541 3.12019 5.38521 3.21758 5.30461C3.31496 5.224 3.42689 5.18369 3.55336 5.18369H5.87546L6.50411 2.42397C6.53087 2.29234 6.5881 2.18877 6.6758 2.11326C6.76348 2.03775 6.87057 2 6.99704 2C7.16503 2 7.30257 2.07397 7.40965 2.22192C7.51673 2.36989 7.5472 2.53264 7.50104 2.71018L6.94163 5.18369H9.91869L10.5473 2.42397C10.5741 2.29234 10.6313 2.18877 10.719 2.11326C10.8067 2.03775 10.9138 2 11.0403 2C11.2083 2 11.3458 2.07397 11.4529 2.22192C11.56 2.36989 11.5904 2.53264 11.5443 2.71018L10.9849 5.18369H13.0369C13.217 5.18369 13.3617 5.25971 13.471 5.41174C13.5804 5.56378 13.612 5.7352 13.5659 5.92603C13.5345 6.06582 13.4701 6.17602 13.3727 6.25663C13.2754 6.33723 13.1634 6.37753 13.0369 6.37753H10.7148L9.98097 9.62247H12.0331C12.2131 9.62247 12.3578 9.69849 12.4672 9.85052C12.5765 10.0026 12.6082 10.174 12.562 10.3648C12.5306 10.5046 12.4662 10.6148 12.3688 10.6954C12.2715 10.776 12.1595 10.8163 12.0331 10.8163H9.71096L9.08232 13.576C9.05556 13.7077 8.99833 13.8112 8.91063 13.8867C8.82294 13.9622 8.71586 14 8.58939 14C8.42139 14 8.28385 13.926 8.17677 13.7781C8.06969 13.6301 8.03923 13.4674 8.08538 13.2898L8.64479 10.8163H5.66774ZM5.93775 9.62247H8.91481L9.64868 6.37753H6.67162L5.93775 9.62247Z" fill="#7344D3"/>
<path d="M5.66774 10.8163L5.03909 13.576C5.01232 13.7077 4.95509 13.8112 4.8674 13.8867C4.7797 13.9622 4.67262 14 4.54616 14C4.37815 14 4.24062 13.926 4.13355 13.7781C4.02647 13.6301 3.996 13.4674 4.04216 13.2898L4.60157 10.8163H2.54948C2.36947 10.8163 2.22477 10.7403 2.11539 10.5883C2.006 10.4362 1.97439 10.2648 2.02054 10.074C2.05192 9.93418 2.11631 9.82398 2.21369 9.74337C2.31108 9.66277 2.423 9.62247 2.54948 9.62247H4.87158L5.60545 6.37753H3.55336C3.37336 6.37753 3.22866 6.30152 3.11928 6.14948C3.00989 5.99745 2.97827 5.82603 3.02443 5.63522C3.05581 5.49541 3.12019 5.38521 3.21758 5.30461C3.31496 5.224 3.42689 5.18369 3.55336 5.18369H5.87546L6.50411 2.42397C6.53087 2.29234 6.5881 2.18877 6.6758 2.11326C6.76348 2.03775 6.87057 2 6.99704 2C7.16503 2 7.30257 2.07397 7.40965 2.22192C7.51673 2.36989 7.5472 2.53264 7.50104 2.71018L6.94163 5.18369H9.91869L10.5473 2.42397C10.5741 2.29234 10.6313 2.18877 10.719 2.11326C10.8067 2.03775 10.9138 2 11.0403 2C11.2083 2 11.3458 2.07397 11.4529 2.22192C11.56 2.36989 11.5904 2.53264 11.5443 2.71018L10.9849 5.18369H13.0369C13.217 5.18369 13.3617 5.25971 13.471 5.41174C13.5804 5.56378 13.612 5.7352 13.5659 5.92603C13.5345 6.06582 13.4701 6.17602 13.3727 6.25663C13.2754 6.33723 13.1634 6.37753 13.0369 6.37753H10.7148L9.98097 9.62247H12.0331C12.2131 9.62247 12.3578 9.69849 12.4672 9.85052C12.5765 10.0026 12.6082 10.174 12.562 10.3648C12.5306 10.5046 12.4662 10.6148 12.3688 10.6954C12.2715 10.776 12.1595 10.8163 12.0331 10.8163H9.71096L9.08232 13.576C9.05556 13.7077 8.99833 13.8112 8.91063 13.8867C8.82294 13.9622 8.71586 14 8.58939 14C8.42139 14 8.28385 13.926 8.17677 13.7781C8.06969 13.6301 8.03923 13.4674 8.08538 13.2898L8.64479 10.8163H5.66774ZM5.93775 9.62247H8.91481L9.64868 6.37753H6.67162L5.93775 9.62247Z" fill="#FFA3B4"/>
</g>
<defs>
<filter id="filter0_f_186_13628" x="0.666667" y="0.666667" width="14.2531" height="14.6667" filterUnits="userSpaceOnUse" color-interpolation-filters="sRGB">
<feFlood flood-opacity="0" result="BackgroundImageFix"/>
<feBlend mode="normal" in="SourceGraphic" in2="BackgroundImageFix" result="shape"/>
<feGaussianBlur stdDeviation="0.666667" result="effect1_foregroundBlur_186_13628"/>
</filter>
</defs>
</svg>
