<svg width="32" height="32" viewBox="0 0 32 32" fill="none" xmlns="http://www.w3.org/2000/svg">
<g clip-path="url(#clip0_18629_92134)">
<path d="M24.3326 18.5979C24.9739 17.8224 25.313 16.9065 25.313 15.9483C25.313 13.8785 23.6737 12.0615 21.3899 11.5579C20.3243 9.35122 17.8112 7.79688 14.8876 7.79688C11.0013 7.79688 7.83984 10.5427 7.83984 13.9176C7.83984 15.2083 8.29687 16.4424 9.16179 17.4877C9.37904 17.7494 9.46757 17.8368 9.48931 17.8568C9.64735 18.0048 9.74617 18.2799 9.72248 18.4094L9.27342 20.8698C9.21751 21.1748 9.30643 21.3598 9.39108 21.461C9.49145 21.5811 9.63531 21.6473 9.79645 21.6473C9.9374 21.6473 10.0842 21.5965 10.2321 21.4965L12.5733 19.9154C12.6504 19.8631 12.8226 19.8078 12.99 19.8078C13.0381 19.8078 13.0705 19.8127 13.089 19.8167C13.1301 19.8259 14.1026 20.0373 14.8876 20.0373C15.6939 20.0373 16.4683 19.9175 17.1903 19.7002C18.0535 20.2103 19.0567 20.4823 20.1078 20.4823C20.6869 20.4823 21.4023 20.3254 21.4311 20.3192C21.5049 20.3025 21.6629 20.3334 21.7258 20.3755L23.4209 21.5206C23.5628 21.6165 23.6892 21.6475 23.7923 21.6475C23.9199 21.6475 24.013 21.6006 24.0608 21.5691C24.1476 21.5126 24.3419 21.3402 24.2736 20.9628L23.9486 19.1811C23.9402 19.1283 23.9928 18.9623 24.0858 18.8757C24.1076 18.8557 24.1752 18.7881 24.3326 18.5979ZM14.8874 19.2937C14.184 19.2937 13.2577 19.0928 13.2484 19.0906C12.9115 19.0163 12.4372 19.1098 12.1573 19.2991L10.057 20.7176L10.4538 18.5429C10.5253 18.1521 10.3286 17.6234 9.99953 17.3163C9.99662 17.3136 9.92556 17.2441 9.73452 17.0132C8.98143 16.1035 8.58343 15.0331 8.58343 13.9176C8.58343 10.9527 11.4114 8.54046 14.8876 8.54046C18.3636 8.54046 21.1917 10.9527 21.1917 13.9178C21.1915 16.882 18.3634 19.2937 14.8874 19.2937ZM23.7599 18.1245C23.6296 18.2822 23.5793 18.3317 23.5797 18.3317C23.3104 18.5823 23.1584 18.9967 23.2174 19.3151L23.4599 20.65L22.1411 19.7587C21.9093 19.6036 21.5439 19.5339 21.2719 19.5929C21.2655 19.5946 20.6067 19.7387 20.1078 19.7387C19.4133 19.7387 18.7443 19.6028 18.1351 19.3461C20.3907 18.3247 21.9353 16.2753 21.9353 13.9176C21.9353 13.4 21.8601 12.8975 21.7204 12.417C23.4046 12.9748 24.5697 14.3775 24.5697 15.9491C24.5697 16.7319 24.2897 17.4846 23.7599 18.1245Z" fill="#D6D5D5" stroke="#D6D5D5" stroke-width="0.316257"/>
</g>
<defs>
<clipPath id="clip0_18629_92134">
<rect width="18.9754" height="20.9754" fill="white" transform="translate(7 6)"/>
</clipPath>
</defs>
</svg>
