<svg width="21" height="18" viewBox="0 0 21 18" fill="none" xmlns="http://www.w3.org/2000/svg">
<path d="M17.1583 12.2722C17.7088 11.6065 18 10.8202 18 9.99769C18 8.22085 16.5927 6.66101 14.6322 6.22868C13.7173 4.33434 11.56 3 9.05017 3C5.714 3 3 5.35717 3 8.25435C3 9.36235 3.39233 10.4219 4.13483 11.3192C4.32133 11.5439 4.39733 11.6189 4.416 11.636C4.55167 11.763 4.6365 11.9992 4.61617 12.1104L4.23067 14.2225C4.18267 14.4844 4.259 14.6432 4.33167 14.73C4.41783 14.8332 4.54133 14.89 4.67967 14.89C4.80067 14.89 4.92667 14.8464 5.05367 14.7605L7.0635 13.4032C7.12967 13.3584 7.2775 13.3109 7.42117 13.3109C7.4625 13.3109 7.49033 13.315 7.50617 13.3185C7.5415 13.3264 8.37633 13.5079 9.05017 13.5079C9.74233 13.5079 10.4072 13.405 11.027 13.2185C11.768 13.6564 12.6292 13.8899 13.5315 13.8899C14.0287 13.8899 14.6428 13.7552 14.6675 13.7499C14.7308 13.7355 14.8665 13.762 14.9205 13.7982L16.3757 14.7812C16.4975 14.8635 16.606 14.8902 16.6945 14.8902C16.804 14.8902 16.884 14.8499 16.925 14.8229C16.9995 14.7744 17.1663 14.6264 17.1077 14.3024L16.8287 12.7729C16.8215 12.7275 16.8667 12.585 16.9465 12.5107C16.9652 12.4935 17.0232 12.4355 17.1583 12.2722ZM9.05 12.8695C8.44617 12.8695 7.651 12.697 7.643 12.6952C7.35383 12.6314 6.94667 12.7117 6.70633 12.8742L4.90333 14.0919L5.244 12.225C5.30533 11.8895 5.1365 11.4357 4.854 11.172C4.8515 11.1697 4.7905 11.11 4.6265 10.9119C3.98 10.1309 3.63833 9.21202 3.63833 8.25435C3.63833 5.70918 6.066 3.63834 9.05017 3.63834C12.0342 3.63834 14.462 5.70918 14.462 8.25452C14.4618 10.7992 12.034 12.8695 9.05 12.8695ZM16.6667 11.8659C16.5548 12.0012 16.5117 12.0437 16.512 12.0437C16.2808 12.2589 16.1503 12.6145 16.201 12.8879L16.4092 14.0339L15.277 13.2687C15.078 13.1355 14.7643 13.0757 14.5308 13.1264C14.5253 13.1279 13.9598 13.2515 13.5315 13.2515C12.9353 13.2515 12.361 13.1349 11.838 12.9145C13.7743 12.0377 15.1003 10.2784 15.1003 8.25435C15.1003 7.81002 15.0358 7.37868 14.9158 6.96618C16.3617 7.44501 17.3618 8.64918 17.3618 9.99836C17.3618 10.6704 17.1215 11.3165 16.6667 11.8659Z" fill="#3973E3"/>
<path d="M17.1583 12.2722C17.7088 11.6065 18 10.8202 18 9.99769C18 8.22085 16.5927 6.66101 14.6322 6.22868C13.7173 4.33434 11.56 3 9.05017 3C5.714 3 3 5.35717 3 8.25435C3 9.36235 3.39233 10.4219 4.13483 11.3192C4.32133 11.5439 4.39733 11.6189 4.416 11.636C4.55167 11.763 4.6365 11.9992 4.61617 12.1104L4.23067 14.2225C4.18267 14.4844 4.259 14.6432 4.33167 14.73C4.41783 14.8332 4.54133 14.89 4.67967 14.89C4.80067 14.89 4.92667 14.8464 5.05367 14.7605L7.0635 13.4032C7.12967 13.3584 7.2775 13.3109 7.42117 13.3109C7.4625 13.3109 7.49033 13.315 7.50617 13.3185C7.5415 13.3264 8.37633 13.5079 9.05017 13.5079C9.74233 13.5079 10.4072 13.405 11.027 13.2185C11.768 13.6564 12.6292 13.8899 13.5315 13.8899C14.0287 13.8899 14.6428 13.7552 14.6675 13.7499C14.7308 13.7355 14.8665 13.762 14.9205 13.7982L16.3757 14.7812C16.4975 14.8635 16.606 14.8902 16.6945 14.8902C16.804 14.8902 16.884 14.8499 16.925 14.8229C16.9995 14.7744 17.1663 14.6264 17.1077 14.3024L16.8287 12.7729C16.8215 12.7275 16.8667 12.585 16.9465 12.5107C16.9652 12.4935 17.0232 12.4355 17.1583 12.2722ZM9.05 12.8695C8.44617 12.8695 7.651 12.697 7.643 12.6952C7.35383 12.6314 6.94667 12.7117 6.70633 12.8742L4.90333 14.0919L5.244 12.225C5.30533 11.8895 5.1365 11.4357 4.854 11.172C4.8515 11.1697 4.7905 11.11 4.6265 10.9119C3.98 10.1309 3.63833 9.21202 3.63833 8.25435C3.63833 5.70918 6.066 3.63834 9.05017 3.63834C12.0342 3.63834 14.462 5.70918 14.462 8.25452C14.4618 10.7992 12.034 12.8695 9.05 12.8695ZM16.6667 11.8659C16.5548 12.0012 16.5117 12.0437 16.512 12.0437C16.2808 12.2589 16.1503 12.6145 16.201 12.8879L16.4092 14.0339L15.277 13.2687C15.078 13.1355 14.7643 13.0757 14.5308 13.1264C14.5253 13.1279 13.9598 13.2515 13.5315 13.2515C12.9353 13.2515 12.361 13.1349 11.838 12.9145C13.7743 12.0377 15.1003 10.2784 15.1003 8.25435C15.1003 7.81002 15.0358 7.37868 14.9158 6.96618C16.3617 7.44501 17.3618 8.64918 17.3618 9.99836C17.3618 10.6704 17.1215 11.3165 16.6667 11.8659Z" stroke="#4CA7CE" stroke-width="0.395321"/>
<path d="M17.1583 12.2722C17.7088 11.6065 18 10.8202 18 9.99769C18 8.22085 16.5927 6.66101 14.6322 6.22868C13.7173 4.33434 11.56 3 9.05017 3C5.714 3 3 5.35717 3 8.25435C3 9.36235 3.39233 10.4219 4.13483 11.3192C4.32133 11.5439 4.39733 11.6189 4.416 11.636C4.55167 11.763 4.6365 11.9992 4.61617 12.1104L4.23067 14.2225C4.18267 14.4844 4.259 14.6432 4.33167 14.73C4.41783 14.8332 4.54133 14.89 4.67967 14.89C4.80067 14.89 4.92667 14.8464 5.05367 14.7605L7.0635 13.4032C7.12967 13.3584 7.2775 13.3109 7.42117 13.3109C7.4625 13.3109 7.49033 13.315 7.50617 13.3185C7.5415 13.3264 8.37633 13.5079 9.05017 13.5079C9.74233 13.5079 10.4072 13.405 11.027 13.2185C11.768 13.6564 12.6292 13.8899 13.5315 13.8899C14.0287 13.8899 14.6428 13.7552 14.6675 13.7499C14.7308 13.7355 14.8665 13.762 14.9205 13.7982L16.3757 14.7812C16.4975 14.8635 16.606 14.8902 16.6945 14.8902C16.804 14.8902 16.884 14.8499 16.925 14.8229C16.9995 14.7744 17.1663 14.6264 17.1077 14.3024L16.8287 12.7729C16.8215 12.7275 16.8667 12.585 16.9465 12.5107C16.9652 12.4935 17.0232 12.4355 17.1583 12.2722ZM9.05 12.8695C8.44617 12.8695 7.651 12.697 7.643 12.6952C7.35383 12.6314 6.94667 12.7117 6.70633 12.8742L4.90333 14.0919L5.244 12.225C5.30533 11.8895 5.1365 11.4357 4.854 11.172C4.8515 11.1697 4.7905 11.11 4.6265 10.9119C3.98 10.1309 3.63833 9.21202 3.63833 8.25435C3.63833 5.70918 6.066 3.63834 9.05017 3.63834C12.0342 3.63834 14.462 5.70918 14.462 8.25452C14.4618 10.7992 12.034 12.8695 9.05 12.8695ZM16.6667 11.8659C16.5548 12.0012 16.5117 12.0437 16.512 12.0437C16.2808 12.2589 16.1503 12.6145 16.201 12.8879L16.4092 14.0339L15.277 13.2687C15.078 13.1355 14.7643 13.0757 14.5308 13.1264C14.5253 13.1279 13.9598 13.2515 13.5315 13.2515C12.9353 13.2515 12.361 13.1349 11.838 12.9145C13.7743 12.0377 15.1003 10.2784 15.1003 8.25435C15.1003 7.81002 15.0358 7.37868 14.9158 6.96618C16.3617 7.44501 17.3618 8.64918 17.3618 9.99836C17.3618 10.6704 17.1215 11.3165 16.6667 11.8659Z" stroke="#3973E3" stroke-width="0.395321"/>
<g filter="url(#filter0_f_186_13638)">
<path d="M17.1583 12.2722C17.7088 11.6065 18 10.8202 18 9.99769C18 8.22085 16.5927 6.66101 14.6322 6.22868C13.7173 4.33434 11.56 3 9.05017 3C5.714 3 3 5.35717 3 8.25435C3 9.36235 3.39233 10.4219 4.13483 11.3192C4.32133 11.5439 4.39733 11.6189 4.416 11.636C4.55167 11.763 4.6365 11.9992 4.61617 12.1104L4.23067 14.2225C4.18267 14.4844 4.259 14.6432 4.33167 14.73C4.41783 14.8332 4.54133 14.89 4.67967 14.89C4.80067 14.89 4.92667 14.8464 5.05367 14.7605L7.0635 13.4032C7.12967 13.3584 7.2775 13.3109 7.42117 13.3109C7.4625 13.3109 7.49033 13.315 7.50617 13.3185C7.5415 13.3264 8.37633 13.5079 9.05017 13.5079C9.74233 13.5079 10.4072 13.405 11.027 13.2185C11.768 13.6564 12.6292 13.8899 13.5315 13.8899C14.0287 13.8899 14.6428 13.7552 14.6675 13.7499C14.7308 13.7355 14.8665 13.762 14.9205 13.7982L16.3757 14.7812C16.4975 14.8635 16.606 14.8902 16.6945 14.8902C16.804 14.8902 16.884 14.8499 16.925 14.8229C16.9995 14.7744 17.1663 14.6264 17.1077 14.3024L16.8287 12.7729C16.8215 12.7275 16.8667 12.585 16.9465 12.5107C16.9652 12.4935 17.0232 12.4355 17.1583 12.2722ZM9.05 12.8695C8.44617 12.8695 7.651 12.697 7.643 12.6952C7.35383 12.6314 6.94667 12.7117 6.70633 12.8742L4.90333 14.0919L5.244 12.225C5.30533 11.8895 5.1365 11.4357 4.854 11.172C4.8515 11.1697 4.7905 11.11 4.6265 10.9119C3.98 10.1309 3.63833 9.21202 3.63833 8.25435C3.63833 5.70918 6.066 3.63834 9.05017 3.63834C12.0342 3.63834 14.462 5.70918 14.462 8.25452C14.4618 10.7992 12.034 12.8695 9.05 12.8695ZM16.6667 11.8659C16.5548 12.0012 16.5117 12.0437 16.512 12.0437C16.2808 12.2589 16.1503 12.6145 16.201 12.8879L16.4092 14.0339L15.277 13.2687C15.078 13.1355 14.7643 13.0757 14.5308 13.1264C14.5253 13.1279 13.9598 13.2515 13.5315 13.2515C12.9353 13.2515 12.361 13.1349 11.838 12.9145C13.7743 12.0377 15.1003 10.2784 15.1003 8.25435C15.1003 7.81002 15.0358 7.37868 14.9158 6.96618C16.3617 7.44501 17.3618 8.64918 17.3618 9.99836C17.3618 10.6704 17.1215 11.3165 16.6667 11.8659Z" fill="#3973E3"/>
<path d="M17.1583 12.2722C17.7088 11.6065 18 10.8202 18 9.99769C18 8.22085 16.5927 6.66101 14.6322 6.22868C13.7173 4.33434 11.56 3 9.05017 3C5.714 3 3 5.35717 3 8.25435C3 9.36235 3.39233 10.4219 4.13483 11.3192C4.32133 11.5439 4.39733 11.6189 4.416 11.636C4.55167 11.763 4.6365 11.9992 4.61617 12.1104L4.23067 14.2225C4.18267 14.4844 4.259 14.6432 4.33167 14.73C4.41783 14.8332 4.54133 14.89 4.67967 14.89C4.80067 14.89 4.92667 14.8464 5.05367 14.7605L7.0635 13.4032C7.12967 13.3584 7.2775 13.3109 7.42117 13.3109C7.4625 13.3109 7.49033 13.315 7.50617 13.3185C7.5415 13.3264 8.37633 13.5079 9.05017 13.5079C9.74233 13.5079 10.4072 13.405 11.027 13.2185C11.768 13.6564 12.6292 13.8899 13.5315 13.8899C14.0287 13.8899 14.6428 13.7552 14.6675 13.7499C14.7308 13.7355 14.8665 13.762 14.9205 13.7982L16.3757 14.7812C16.4975 14.8635 16.606 14.8902 16.6945 14.8902C16.804 14.8902 16.884 14.8499 16.925 14.8229C16.9995 14.7744 17.1663 14.6264 17.1077 14.3024L16.8287 12.7729C16.8215 12.7275 16.8667 12.585 16.9465 12.5107C16.9652 12.4935 17.0232 12.4355 17.1583 12.2722ZM9.05 12.8695C8.44617 12.8695 7.651 12.697 7.643 12.6952C7.35383 12.6314 6.94667 12.7117 6.70633 12.8742L4.90333 14.0919L5.244 12.225C5.30533 11.8895 5.1365 11.4357 4.854 11.172C4.8515 11.1697 4.7905 11.11 4.6265 10.9119C3.98 10.1309 3.63833 9.21202 3.63833 8.25435C3.63833 5.70918 6.066 3.63834 9.05017 3.63834C12.0342 3.63834 14.462 5.70918 14.462 8.25452C14.4618 10.7992 12.034 12.8695 9.05 12.8695ZM16.6667 11.8659C16.5548 12.0012 16.5117 12.0437 16.512 12.0437C16.2808 12.2589 16.1503 12.6145 16.201 12.8879L16.4092 14.0339L15.277 13.2687C15.078 13.1355 14.7643 13.0757 14.5308 13.1264C14.5253 13.1279 13.9598 13.2515 13.5315 13.2515C12.9353 13.2515 12.361 13.1349 11.838 12.9145C13.7743 12.0377 15.1003 10.2784 15.1003 8.25435C15.1003 7.81002 15.0358 7.37868 14.9158 6.96618C16.3617 7.44501 17.3618 8.64918 17.3618 9.99836C17.3618 10.6704 17.1215 11.3165 16.6667 11.8659Z" stroke="#4CA7CE" stroke-width="0.395321"/>
<path d="M17.1583 12.2722C17.7088 11.6065 18 10.8202 18 9.99769C18 8.22085 16.5927 6.66101 14.6322 6.22868C13.7173 4.33434 11.56 3 9.05017 3C5.714 3 3 5.35717 3 8.25435C3 9.36235 3.39233 10.4219 4.13483 11.3192C4.32133 11.5439 4.39733 11.6189 4.416 11.636C4.55167 11.763 4.6365 11.9992 4.61617 12.1104L4.23067 14.2225C4.18267 14.4844 4.259 14.6432 4.33167 14.73C4.41783 14.8332 4.54133 14.89 4.67967 14.89C4.80067 14.89 4.92667 14.8464 5.05367 14.7605L7.0635 13.4032C7.12967 13.3584 7.2775 13.3109 7.42117 13.3109C7.4625 13.3109 7.49033 13.315 7.50617 13.3185C7.5415 13.3264 8.37633 13.5079 9.05017 13.5079C9.74233 13.5079 10.4072 13.405 11.027 13.2185C11.768 13.6564 12.6292 13.8899 13.5315 13.8899C14.0287 13.8899 14.6428 13.7552 14.6675 13.7499C14.7308 13.7355 14.8665 13.762 14.9205 13.7982L16.3757 14.7812C16.4975 14.8635 16.606 14.8902 16.6945 14.8902C16.804 14.8902 16.884 14.8499 16.925 14.8229C16.9995 14.7744 17.1663 14.6264 17.1077 14.3024L16.8287 12.7729C16.8215 12.7275 16.8667 12.585 16.9465 12.5107C16.9652 12.4935 17.0232 12.4355 17.1583 12.2722ZM9.05 12.8695C8.44617 12.8695 7.651 12.697 7.643 12.6952C7.35383 12.6314 6.94667 12.7117 6.70633 12.8742L4.90333 14.0919L5.244 12.225C5.30533 11.8895 5.1365 11.4357 4.854 11.172C4.8515 11.1697 4.7905 11.11 4.6265 10.9119C3.98 10.1309 3.63833 9.21202 3.63833 8.25435C3.63833 5.70918 6.066 3.63834 9.05017 3.63834C12.0342 3.63834 14.462 5.70918 14.462 8.25452C14.4618 10.7992 12.034 12.8695 9.05 12.8695ZM16.6667 11.8659C16.5548 12.0012 16.5117 12.0437 16.512 12.0437C16.2808 12.2589 16.1503 12.6145 16.201 12.8879L16.4092 14.0339L15.277 13.2687C15.078 13.1355 14.7643 13.0757 14.5308 13.1264C14.5253 13.1279 13.9598 13.2515 13.5315 13.2515C12.9353 13.2515 12.361 13.1349 11.838 12.9145C13.7743 12.0377 15.1003 10.2784 15.1003 8.25435C15.1003 7.81002 15.0358 7.37868 14.9158 6.96618C16.3617 7.44501 17.3618 8.64918 17.3618 9.99836C17.3618 10.6704 17.1215 11.3165 16.6667 11.8659Z" stroke="#3973E3" stroke-width="0.395321"/>
</g>
<defs>
<filter id="filter0_f_186_13638" x="0.802246" y="0.802246" width="19.3955" height="16.2856" filterUnits="userSpaceOnUse" color-interpolation-filters="sRGB">
<feFlood flood-opacity="0" result="BackgroundImageFix"/>
<feBlend mode="normal" in="SourceGraphic" in2="BackgroundImageFix" result="shape"/>
<feGaussianBlur stdDeviation="1" result="effect1_foregroundBlur_186_13638"/>
</filter>
</defs>
</svg>
