<svg width="342" height="341" viewBox="0 0 342 341" fill="none" xmlns="http://www.w3.org/2000/svg">
<path d="M114.327 330.734C25.8477 299.58 -20.6232 202.598 10.5309 114.118C41.6851 25.6394 138.667 -20.8316 227.146 10.3226C315.625 41.4767 362.096 138.459 330.942 226.938C299.787 315.417 202.806 361.888 114.327 330.734Z" stroke="#FFBE98" stroke-opacity="0.6" stroke-width="0.862165"/>
<path d="M114.327 330.734C25.8477 299.58 -20.6232 202.598 10.5309 114.118C41.6851 25.6394 138.667 -20.8316 227.146 10.3226C315.625 41.4767 362.096 138.459 330.942 226.938C299.787 315.417 202.806 361.888 114.327 330.734Z" stroke="black" stroke-opacity="0.2" stroke-width="0.862165"/>
<path d="M114.327 330.734C25.8477 299.58 -20.6232 202.598 10.5309 114.118C41.6851 25.6394 138.667 -20.8316 227.146 10.3226C315.625 41.4767 362.096 138.459 330.942 226.938C299.787 315.417 202.806 361.888 114.327 330.734Z" stroke="black" stroke-opacity="0.2" stroke-width="0.862165"/>
</svg>
