<svg width="111" height="111" viewBox="0 0 111 111" fill="none" xmlns="http://www.w3.org/2000/svg">
<path d="M110.486 55.5326C110.486 85.7688 85.9747 110.28 55.7386 110.28C25.5024 110.28 0.991141 85.7688 0.991141 55.5326C0.991141 25.2964 25.5024 0.785086 55.7386 0.785086C85.9747 0.785086 110.486 25.2964 110.486 55.5326Z" stroke="#FFBE98" stroke-width="0.862165"/>
<path d="M110.486 55.5326C110.486 85.7688 85.9747 110.28 55.7386 110.28C25.5024 110.28 0.991141 85.7688 0.991141 55.5326C0.991141 25.2964 25.5024 0.785086 55.7386 0.785086C85.9747 0.785086 110.486 25.2964 110.486 55.5326Z" stroke="black" stroke-opacity="0.2" stroke-width="0.862165"/>
<path d="M110.486 55.5326C110.486 85.7688 85.9747 110.28 55.7386 110.28C25.5024 110.28 0.991141 85.7688 0.991141 55.5326C0.991141 25.2964 25.5024 0.785086 55.7386 0.785086C85.9747 0.785086 110.486 25.2964 110.486 55.5326Z" stroke="black" stroke-opacity="0.2" stroke-width="0.862165"/>
</svg>
