<svg width="280" height="217" viewBox="0 0 280 217" fill="none" xmlns="http://www.w3.org/2000/svg">
<path d="M241.073 108.533C241.073 167.815 193.016 215.872 133.734 215.872C74.452 215.872 26.3945 167.815 26.3945 108.533C26.3945 49.2509 74.452 1.19329 133.734 1.19329C193.016 1.19329 241.073 49.2509 241.073 108.533Z" stroke="#FFBE98" stroke-opacity="0.8" stroke-width="0.862165"/>
<path d="M241.073 108.533C241.073 167.815 193.016 215.872 133.734 215.872C74.452 215.872 26.3945 167.815 26.3945 108.533C26.3945 49.2509 74.452 1.19329 133.734 1.19329C193.016 1.19329 241.073 49.2509 241.073 108.533Z" stroke="black" stroke-opacity="0.2" stroke-width="0.862165"/>
<path d="M241.073 108.533C241.073 167.815 193.016 215.872 133.734 215.872C74.452 215.872 26.3945 167.815 26.3945 108.533C26.3945 49.2509 74.452 1.19329 133.734 1.19329C193.016 1.19329 241.073 49.2509 241.073 108.533Z" stroke="black" stroke-opacity="0.2" stroke-width="0.862165"/>
<g filter="url(#filter0_i_18817_1710)">
<rect x="215.641" y="82.6694" width="63.8001" height="63.8002" rx="31.9001" fill="url(#paint0_linear_18817_1710)"/>
<g opacity="0.7" filter="url(#filter1_f_18817_1710)">
<rect x="231.588" y="98.6191" width="31.9001" height="31.9001" rx="15.95" fill="url(#paint1_linear_18817_1710)"/>
</g>
<g clip-path="url(#clip0_18817_1710)">
<path d="M240.41 117.947C240.41 119.426 239.204 120.634 237.724 120.634C236.245 120.634 235.037 119.426 235.037 117.947C235.037 116.467 236.245 115.259 237.724 115.259H240.41L240.41 117.947ZM241.764 117.947C241.764 116.467 242.972 115.259 244.451 115.259C245.93 115.259 247.138 116.467 247.138 117.947V124.674C247.138 126.153 245.931 127.361 244.451 127.361C242.972 127.361 241.764 126.153 241.764 124.674V117.947Z" fill="#DE1C59"/>
<path d="M244.451 107.158C242.972 107.158 241.764 105.951 241.764 104.472C241.764 102.993 242.972 101.785 244.451 101.785C245.93 101.785 247.138 102.993 247.138 104.472V107.158L244.451 107.158ZM244.451 108.511C245.93 108.511 247.138 109.72 247.138 111.199C247.138 112.678 245.931 113.886 244.451 113.886H237.724C236.245 113.886 235.037 112.678 235.037 111.199C235.037 109.72 236.245 108.511 237.724 108.511H244.451Z" fill="#35C5F0"/>
<path d="M255.239 111.199C255.239 109.72 256.445 108.511 257.924 108.511C259.404 108.511 260.612 109.72 260.612 111.199C260.612 112.678 259.404 113.886 257.924 113.886H255.239V111.199ZM253.885 111.199C253.885 112.678 252.677 113.886 251.198 113.886C249.718 113.886 248.51 112.678 248.51 111.199V104.472C248.51 102.993 249.718 101.785 251.198 101.785C252.677 101.785 253.885 102.993 253.885 104.472V111.199Z" fill="#2EB57D"/>
<path d="M251.198 121.988C252.677 121.988 253.885 123.194 253.885 124.674C253.885 126.153 252.677 127.361 251.198 127.361C249.718 127.361 248.51 126.153 248.51 124.674V121.988H251.198ZM251.198 120.634C249.718 120.634 248.51 119.426 248.51 117.947C248.51 116.467 249.718 115.259 251.198 115.259H257.924C259.404 115.259 260.612 116.467 260.612 117.947C260.612 119.426 259.404 120.634 257.924 120.634H251.198Z" fill="#EBB02E"/>
</g>
</g>
<g filter="url(#filter2_i_18817_1710)">
<rect x="0.100586" y="82.6694" width="63.8001" height="63.8002" rx="31.9001" fill="url(#paint2_linear_18817_1710)"/>
<g opacity="0.7" filter="url(#filter3_f_18817_1710)">
<rect x="16.0508" y="98.6191" width="31.9001" height="31.9001" rx="15.95" fill="url(#paint3_linear_18817_1710)"/>
</g>
<path d="M41.2225 115.545V121.997C41.2042 122.747 40.8404 123.161 40.0892 123.223C39.2271 123.294 38.3607 123.34 37.4954 123.391C35.7519 123.499 34.0073 123.604 32.2637 123.708C30.7193 123.799 29.1749 123.88 27.6326 123.984C26.9503 124.028 26.4132 123.813 26.0355 123.228C25.9236 123.054 25.7804 122.898 25.6534 122.733C25.0077 121.9 24.3673 121.064 23.7183 120.236C23.2828 119.701 23.0513 119.028 23.065 118.338C23.0866 114.668 23.0736 111 23.0758 107.332C23.0758 107.193 23.0866 107.055 23.1081 106.918C23.2071 106.38 23.5407 106.046 24.0853 105.995C24.9765 105.911 25.8816 105.853 26.7802 105.785L31.0745 105.469C32.4499 105.368 33.8254 105.273 35.2008 105.164C35.8903 105.108 36.5758 105.311 37.123 105.734C38.3349 106.614 39.5661 107.464 40.7952 108.322C40.9374 108.413 41.0527 108.541 41.129 108.691C41.2052 108.842 41.2397 109.011 41.2289 109.179C41.2171 111.301 41.2225 113.423 41.2225 115.545ZM39.9719 115.628V110.135C39.9719 109.606 39.7857 109.423 39.2723 109.453L34.8059 109.707L29.3277 110.028C28.6841 110.065 28.0405 110.103 27.3969 110.146C27.0558 110.17 26.9008 110.32 26.8502 110.655C26.8373 110.752 26.8319 110.849 26.8341 110.946V121.557C26.8341 122.383 27.0536 122.59 27.8823 122.541C28.711 122.493 29.5387 122.439 30.376 122.39L39.2432 121.881C39.7189 121.854 39.9353 121.645 39.9729 121.172C39.9794 121.089 39.9729 121.006 39.9729 120.918L39.9719 115.628ZM38.6298 108.185L38.6588 108.13C38.5937 108.05 38.5216 107.977 38.4436 107.909C37.8559 107.48 37.2619 107.059 36.6753 106.636C36.2911 106.342 35.8143 106.195 35.3311 106.222C34.3689 106.28 33.4089 106.356 32.4467 106.426L26.2647 106.875C25.8213 106.907 25.3725 106.942 24.9399 106.994C24.8914 107.003 24.8458 107.024 24.8066 107.054C24.7674 107.084 24.7356 107.123 24.7138 107.167C24.6955 107.22 24.7827 107.338 24.8505 107.393C25.3348 107.784 25.8278 108.168 26.3164 108.553C26.5801 108.773 26.9169 108.887 27.2592 108.873C27.426 108.865 27.5928 108.873 27.7586 108.858L32.2444 108.582L38.2047 108.231C38.3467 108.215 38.4877 108.199 38.6298 108.185Z" fill="black"/>
<path d="M35.943 117.463V112.448C35.6718 112.415 35.4124 112.378 35.1509 112.358C35.0078 112.347 34.9744 112.283 34.9895 112.157C35.0038 112.021 35.064 111.893 35.1602 111.795C35.2564 111.698 35.3829 111.635 35.519 111.619C36.3832 111.554 37.2474 111.51 38.1074 111.458C38.2354 111.886 38.1074 112.096 37.6984 112.176C37.2474 112.27 37.2474 112.27 37.2474 112.727V120.094C37.2474 120.265 37.2022 120.37 37.0408 120.42C36.7562 120.527 36.4663 120.618 36.1723 120.695C35.6998 120.794 35.2811 120.663 35.0002 120.255C34.6092 119.691 34.227 119.121 33.854 118.546C32.9887 117.207 32.1342 115.863 31.2743 114.52C31.257 114.492 31.2334 114.466 31.1849 114.399C31.1742 114.491 31.1645 114.544 31.1645 114.599V119.614C31.1645 119.762 31.2118 119.822 31.3539 119.849C31.6725 119.911 31.99 119.988 32.301 120.058C32.2955 120.214 32.2336 120.363 32.1267 120.477C32.0199 120.591 31.8753 120.662 31.7198 120.678C31.4589 120.713 31.1963 120.734 30.9331 120.742C30.2959 120.781 29.6588 120.811 29.0227 120.856C28.8365 120.869 28.7989 120.792 28.8312 120.64C28.8405 120.549 28.8782 120.463 28.939 120.394C28.9999 120.326 29.0807 120.278 29.1702 120.258C29.3704 120.21 29.5684 120.146 29.7664 120.09V112.89L28.8742 112.81C28.8444 112.717 28.8364 112.619 28.8506 112.522C28.8649 112.426 28.9012 112.334 28.9566 112.254C29.012 112.173 29.0851 112.107 29.1703 112.059C29.2555 112.012 29.3504 111.984 29.4479 111.979C30.2281 111.917 31.0138 111.893 31.7919 111.805C32.1245 111.768 32.2795 111.891 32.4463 112.148C33.5473 113.845 34.6634 115.534 35.7751 117.225L35.943 117.463Z" fill="black"/>
</g>
<defs>
<filter id="filter0_i_18817_1710" x="215.641" y="82.6694" width="63.8003" height="64.6625" filterUnits="userSpaceOnUse" color-interpolation-filters="sRGB">
<feFlood flood-opacity="0" result="BackgroundImageFix"/>
<feBlend mode="normal" in="SourceGraphic" in2="BackgroundImageFix" result="shape"/>
<feColorMatrix in="SourceAlpha" type="matrix" values="0 0 0 0 0 0 0 0 0 0 0 0 0 0 0 0 0 0 127 0" result="hardAlpha"/>
<feOffset dy="0.862165"/>
<feGaussianBlur stdDeviation="0.431082"/>
<feComposite in2="hardAlpha" operator="arithmetic" k2="-1" k3="1"/>
<feColorMatrix type="matrix" values="0 0 0 0 1 0 0 0 0 1 0 0 0 0 1 0 0 0 0.25 0"/>
<feBlend mode="normal" in2="shape" result="effect1_innerShadow_18817_1710"/>
</filter>
<filter id="filter1_f_18817_1710" x="218.828" y="85.8591" width="57.42" height="57.42" filterUnits="userSpaceOnUse" color-interpolation-filters="sRGB">
<feFlood flood-opacity="0" result="BackgroundImageFix"/>
<feBlend mode="normal" in="SourceGraphic" in2="BackgroundImageFix" result="shape"/>
<feGaussianBlur stdDeviation="6.38002" result="effect1_foregroundBlur_18817_1710"/>
</filter>
<filter id="filter2_i_18817_1710" x="0.100586" y="82.6694" width="63.8003" height="64.6625" filterUnits="userSpaceOnUse" color-interpolation-filters="sRGB">
<feFlood flood-opacity="0" result="BackgroundImageFix"/>
<feBlend mode="normal" in="SourceGraphic" in2="BackgroundImageFix" result="shape"/>
<feColorMatrix in="SourceAlpha" type="matrix" values="0 0 0 0 0 0 0 0 0 0 0 0 0 0 0 0 0 0 127 0" result="hardAlpha"/>
<feOffset dy="0.862165"/>
<feGaussianBlur stdDeviation="0.431082"/>
<feComposite in2="hardAlpha" operator="arithmetic" k2="-1" k3="1"/>
<feColorMatrix type="matrix" values="0 0 0 0 1 0 0 0 0 1 0 0 0 0 1 0 0 0 0.25 0"/>
<feBlend mode="normal" in2="shape" result="effect1_innerShadow_18817_1710"/>
</filter>
<filter id="filter3_f_18817_1710" x="3.29074" y="85.8591" width="57.42" height="57.42" filterUnits="userSpaceOnUse" color-interpolation-filters="sRGB">
<feFlood flood-opacity="0" result="BackgroundImageFix"/>
<feBlend mode="normal" in="SourceGraphic" in2="BackgroundImageFix" result="shape"/>
<feGaussianBlur stdDeviation="6.38002" result="effect1_foregroundBlur_18817_1710"/>
</filter>
<linearGradient id="paint0_linear_18817_1710" x1="230.339" y1="76.0974" x2="264.742" y2="153.042" gradientUnits="userSpaceOnUse">
<stop offset="0.2192" stop-color="#18191C"/>
<stop offset="0.7749" stop-color="#212225"/>
</linearGradient>
<linearGradient id="paint1_linear_18817_1710" x1="231.588" y1="114.569" x2="263.488" y2="114.569" gradientUnits="userSpaceOnUse">
<stop offset="0.0004" stop-color="#FFF855"/>
<stop offset="0.4604" stop-color="#46E3B7"/>
</linearGradient>
<linearGradient id="paint2_linear_18817_1710" x1="14.7993" y1="76.0974" x2="49.2021" y2="153.042" gradientUnits="userSpaceOnUse">
<stop offset="0.2192" stop-color="#18191C"/>
<stop offset="0.7749" stop-color="#212225"/>
</linearGradient>
<linearGradient id="paint3_linear_18817_1710" x1="16.0508" y1="114.569" x2="47.9509" y2="114.569" gradientUnits="userSpaceOnUse">
<stop offset="0.0004" stop-color="#ECECEC"/>
<stop offset="0.4604" stop-color="white"/>
</linearGradient>
<clipPath id="clip0_18817_1710">
<rect width="25.83" height="25.8301" fill="white" transform="translate(234.91 101.657)"/>
</clipPath>
</defs>
</svg>
