<svg width="467" height="467" viewBox="0 0 467 467" fill="none" xmlns="http://www.w3.org/2000/svg">
<path d="M466.084 233.524C466.084 361.85 362.056 465.878 233.731 465.878C105.406 465.878 1.37786 361.85 1.37786 233.524C1.37786 105.199 105.406 1.17083 233.731 1.17083C362.056 1.17083 466.084 105.199 466.084 233.524Z" stroke="#FFBE98" stroke-opacity="0.4" stroke-width="0.862165"/>
<path d="M466.084 233.524C466.084 361.85 362.056 465.878 233.731 465.878C105.406 465.878 1.37786 361.85 1.37786 233.524C1.37786 105.199 105.406 1.17083 233.731 1.17083C362.056 1.17083 466.084 105.199 466.084 233.524Z" stroke="black" stroke-opacity="0.2" stroke-width="0.862165"/>
<path d="M466.084 233.524C466.084 361.85 362.056 465.878 233.731 465.878C105.406 465.878 1.37786 361.85 1.37786 233.524C1.37786 105.199 105.406 1.17083 233.731 1.17083C362.056 1.17083 466.084 105.199 466.084 233.524Z" stroke="black" stroke-opacity="0.2" stroke-width="0.862165"/>
<g filter="url(#filter0_i_18817_1724)">
<rect x="22.501" y="55.9175" width="63.8001" height="63.8002" rx="31.9001" fill="url(#paint0_linear_18817_1724)"/>
<g opacity="0.7" filter="url(#filter1_f_18817_1724)">
<rect x="38.4492" y="71.8667" width="31.9001" height="31.9001" rx="15.95" fill="url(#paint1_linear_18817_1724)"/>
</g>
<g clip-path="url(#clip0_18817_1724)">
<path d="M60.115 84.2202H67.2615C67.9368 84.2202 68.4841 84.7676 68.4841 85.4428V91.9523C68.4841 94.4337 66.4724 96.4454 63.991 96.4454H63.9697C61.4883 96.4457 59.4764 94.4344 59.4761 91.9529V84.8593C59.4761 84.7753 59.4926 84.6923 59.5247 84.6147C59.5568 84.5372 59.6038 84.4667 59.6632 84.4074C59.7225 84.3481 59.793 84.301 59.8705 84.2689C59.948 84.2367 60.0311 84.2202 60.115 84.2202Z" fill="#5059C9"/>
<path d="M64.9457 82.9306C66.5449 82.9306 67.8412 81.6342 67.8412 80.0351C67.8412 78.436 66.5449 77.1396 64.9457 77.1396C63.3466 77.1396 62.0503 78.436 62.0503 80.0351C62.0503 81.6342 63.3466 82.9306 64.9457 82.9306Z" fill="#5059C9"/>
<path d="M55.9372 82.931C58.247 82.931 60.1195 81.0585 60.1195 78.7487C60.1195 76.4389 58.247 74.5664 55.9372 74.5664C53.6274 74.5664 51.7549 76.4389 51.7549 78.7487C51.7549 81.0585 53.6274 82.931 55.9372 82.931Z" fill="#7B83EB"/>
<path d="M61.5151 84.2202H49.7185C49.0514 84.2368 48.5237 84.7904 48.5391 85.4576V92.882C48.446 96.8856 51.6133 100.208 55.6168 100.306C59.6202 100.208 62.7876 96.8856 62.6945 92.882V85.4576C62.71 84.7904 62.1822 84.2368 61.5151 84.2202Z" fill="#7B83EB"/>
<path opacity="0.1" d="M56.2601 84.2202V94.6244C56.2586 94.8578 56.1881 95.0855 56.0577 95.279C55.9272 95.4724 55.7424 95.623 55.5266 95.7119C55.3861 95.7713 55.2351 95.8019 55.0827 95.8019H49.1051C49.0215 95.5895 48.9443 95.3772 48.8799 95.1585C48.6547 94.4202 48.5398 93.6527 48.5389 92.8807V85.4556C48.5235 84.7896 49.0503 84.2368 49.7164 84.2203L56.2601 84.2202Z" fill="black"/>
<path opacity="0.2" d="M55.6164 84.2202V95.2679C55.6164 95.4204 55.5859 95.5714 55.5264 95.7119C55.4376 95.9277 55.287 96.1124 55.0935 96.2429C54.9 96.3734 54.6723 96.4439 54.439 96.4454H49.4075C49.2981 96.233 49.1951 96.0207 49.1051 95.8019C49.0186 95.5916 48.9434 95.3769 48.8799 95.1585C48.6547 94.4202 48.5398 93.6527 48.5389 92.8807V85.4556C48.5235 84.7896 49.0503 84.2368 49.7164 84.2203L55.6164 84.2202Z" fill="black"/>
<path opacity="0.2" d="M55.6165 84.2202V93.9811C55.6117 94.6293 55.0874 95.1537 54.4391 95.1585H48.8799C48.6547 94.4202 48.5398 93.6527 48.5389 92.8807V85.4556C48.5235 84.7896 49.0503 84.2368 49.7164 84.2203L55.6165 84.2202Z" fill="black"/>
<path opacity="0.2" d="M54.9732 84.2202V93.9811C54.9682 94.6293 54.4439 95.1537 53.7957 95.1585H48.8799C48.6547 94.4202 48.5398 93.6527 48.5389 92.8807V85.4556C48.5235 84.7896 49.0503 84.2368 49.7164 84.2203L54.9732 84.2202Z" fill="black"/>
<path opacity="0.1" d="M56.2588 80.8928V82.9196C56.1494 82.926 56.0464 82.9325 55.9371 82.9325C55.8277 82.9325 55.7247 82.926 55.6153 82.9196C55.3981 82.9052 55.1828 82.8707 54.9719 82.8167C54.3296 82.6646 53.7324 82.3626 53.2291 81.9354C52.7259 81.5082 52.3309 80.9679 52.0765 80.3588C51.9877 80.1513 51.9188 79.9358 51.8706 79.7153H55.0813C55.7305 79.7178 56.2563 80.2435 56.2588 80.8928Z" fill="black"/>
<path opacity="0.2" d="M55.6149 81.5372V82.9206C55.3977 82.9062 55.1823 82.8718 54.9715 82.8177C54.3292 82.6656 53.732 82.3636 53.2288 81.9364C52.7255 81.5092 52.3306 80.969 52.0762 80.3599H54.4374C55.0867 80.3622 55.6124 80.888 55.6149 81.5372Z" fill="black"/>
<path opacity="0.2" d="M55.6149 81.5372V82.9206C55.3977 82.9062 55.1823 82.8718 54.9715 82.8177C54.3292 82.6656 53.732 82.3636 53.2288 81.9364C52.7255 81.5092 52.3306 80.969 52.0762 80.3599H54.4374C55.0867 80.3622 55.6124 80.888 55.6149 81.5372Z" fill="black"/>
<path opacity="0.2" d="M54.9716 81.5373V82.8178C54.3293 82.6657 53.732 82.3637 53.2288 81.9365C52.7255 81.5093 52.3306 80.969 52.0762 80.3599H53.7941C54.4435 80.3623 54.9691 80.8881 54.9716 81.5373Z" fill="black"/>
<path d="M41.9983 80.36H53.7947C54.4462 80.36 54.9742 80.888 54.9742 81.5394V93.336C54.9742 93.9873 54.4462 94.5154 53.7948 94.5154H41.9983C41.3469 94.5154 40.8188 93.9873 40.8188 93.336V81.5395C40.8188 80.8879 41.3469 80.36 41.9983 80.36Z" fill="url(#paint2_linear_18817_1724)"/>
<path d="M50.9988 84.8507H48.6406V91.2721H47.1382V84.8507H44.791V83.605H50.9988V84.8507Z" fill="white"/>
</g>
</g>
<g filter="url(#filter2_i_18817_1724)">
<rect x="387.197" y="61.9551" width="63.8001" height="63.8002" rx="31.9001" fill="url(#paint3_linear_18817_1724)"/>
<g opacity="0.7" filter="url(#filter3_f_18817_1724)">
<rect x="403.149" y="77.9048" width="31.9001" height="31.9001" rx="15.95" fill="url(#paint4_linear_18817_1724)"/>
</g>
<g clip-path="url(#clip1_18817_1724)">
<path d="M425.716 80.709H411.994C408.65 80.709 405.94 83.4194 405.94 86.7629V100.485C405.94 103.829 408.65 106.539 411.994 106.539H425.716C429.06 106.539 431.77 103.829 431.77 100.485V86.7629C431.77 83.4194 429.06 80.709 425.716 80.709Z" fill="#F4F2ED"/>
<path d="M410.139 101.197H413.349V93.4001L408.763 89.9604V99.821C408.763 100.582 409.38 101.197 410.139 101.197Z" fill="#4285F4"/>
<path d="M424.358 101.197H427.568C428.33 101.197 428.944 100.58 428.944 99.8211V89.9604L424.358 93.4002" fill="#34A853"/>
<path d="M424.358 87.436V93.3982L428.944 89.9586V88.1238C428.944 86.4224 427.002 85.4524 425.642 86.4728" fill="#FBBC04"/>
<path d="M413.354 93.3988V87.4367L418.858 91.5642L424.361 87.4365V93.3987L418.858 97.5265" fill="#EA4335"/>
<path d="M408.763 88.1238V89.9584L413.349 93.3981V87.436L412.065 86.4728C410.703 85.4524 408.763 86.4224 408.763 88.1238Z" fill="#C5221F"/>
</g>
</g>
<g filter="url(#filter4_i_18817_1724)">
<rect x="399.269" y="336.124" width="63.8001" height="63.8002" rx="31.9001" fill="url(#paint5_linear_18817_1724)"/>
<g opacity="0.7" filter="url(#filter5_f_18817_1724)">
<rect x="415.216" y="352.074" width="31.9001" height="31.9001" rx="15.95" fill="url(#paint6_linear_18817_1724)"/>
</g>
<path d="M433.935 361.558V365.979L435.482 366.952C435.537 366.964 435.595 366.964 435.651 366.952L442.301 362.469C442.296 362.251 442.216 362.042 442.075 361.876C441.934 361.71 441.741 361.598 441.527 361.558H433.935Z" fill="#0093FF"/>
<path d="M433.935 367.63L435.345 368.599C435.411 368.639 435.487 368.66 435.564 368.66C435.641 368.66 435.717 368.639 435.783 368.599C435.541 368.745 442.3 364.258 442.3 364.258V372.383C442.317 372.548 442.299 372.714 442.245 372.871C442.192 373.028 442.105 373.171 441.99 373.29C441.876 373.41 441.736 373.503 441.582 373.563C441.428 373.623 441.262 373.649 441.097 373.638H433.934L433.935 367.63ZM426.635 365.592C426.4 365.591 426.17 365.653 425.968 365.772C425.766 365.891 425.601 366.063 425.488 366.269C425.182 366.814 425.035 367.434 425.064 368.059C425.032 368.682 425.179 369.302 425.488 369.844C425.6 370.042 425.762 370.206 425.957 370.321C426.153 370.436 426.375 370.497 426.602 370.499C426.828 370.501 427.051 370.443 427.249 370.331C427.446 370.219 427.61 370.058 427.725 369.862C428.031 369.322 428.175 368.706 428.141 368.086C428.176 367.447 428.036 366.811 427.737 366.245C427.63 366.046 427.471 365.88 427.277 365.765C427.083 365.65 426.86 365.59 426.635 365.592Z" fill="#0093FF"/>
<path d="M419.946 359.316V376.611L433.103 379.37V356.769L419.946 359.316ZM428.751 370.888C428.505 371.235 428.178 371.516 427.798 371.708C427.418 371.899 426.997 371.995 426.572 371.986C426.157 371.994 425.747 371.901 425.376 371.715C425.005 371.53 424.684 371.258 424.441 370.922C423.864 370.117 423.575 369.14 423.621 368.15C423.572 367.112 423.866 366.086 424.458 365.232C424.707 364.878 425.039 364.591 425.426 364.396C425.812 364.202 426.24 364.105 426.673 364.114C427.084 364.106 427.492 364.199 427.859 364.385C428.226 364.571 428.542 364.844 428.779 365.181C429.351 366.004 429.634 366.992 429.587 367.993C429.637 369.024 429.343 370.042 428.751 370.888Z" fill="#0093FF"/>
</g>
<g filter="url(#filter6_i_18817_1724)">
<rect x="28.54" y="348.193" width="63.8001" height="63.8002" rx="31.9001" fill="url(#paint7_linear_18817_1724)"/>
<g opacity="0.7" filter="url(#filter7_f_18817_1724)">
<rect x="44.4917" y="364.143" width="31.9001" height="31.9001" rx="15.95" fill="url(#paint8_linear_18817_1724)"/>
</g>
<g clip-path="url(#clip2_18817_1724)">
<path d="M47.665 367.421C47.665 372.285 51.5977 376.252 56.418 376.252H64.5181V384.469H73.2697V368.885C73.2697 368.128 72.6618 367.469 71.913 367.469L47.665 367.421Z" fill="url(#paint9_linear_18817_1724)"/>
<path d="M73.2236 393.25C73.2236 388.386 69.292 384.468 64.4693 384.468H56.418V376.25H47.665V391.834C47.665 392.589 48.2745 393.25 49.0215 393.25H73.2236Z" fill="url(#paint10_linear_18817_1724)"/>
</g>
</g>
<defs>
<filter id="filter0_i_18817_1724" x="22.501" y="55.9175" width="63.8003" height="64.6625" filterUnits="userSpaceOnUse" color-interpolation-filters="sRGB">
<feFlood flood-opacity="0" result="BackgroundImageFix"/>
<feBlend mode="normal" in="SourceGraphic" in2="BackgroundImageFix" result="shape"/>
<feColorMatrix in="SourceAlpha" type="matrix" values="0 0 0 0 0 0 0 0 0 0 0 0 0 0 0 0 0 0 127 0" result="hardAlpha"/>
<feOffset dy="0.862165"/>
<feGaussianBlur stdDeviation="0.431082"/>
<feComposite in2="hardAlpha" operator="arithmetic" k2="-1" k3="1"/>
<feColorMatrix type="matrix" values="0 0 0 0 1 0 0 0 0 1 0 0 0 0 1 0 0 0 0.25 0"/>
<feBlend mode="normal" in2="shape" result="effect1_innerShadow_18817_1724"/>
</filter>
<filter id="filter1_f_18817_1724" x="25.6892" y="59.1067" width="57.42" height="57.42" filterUnits="userSpaceOnUse" color-interpolation-filters="sRGB">
<feFlood flood-opacity="0" result="BackgroundImageFix"/>
<feBlend mode="normal" in="SourceGraphic" in2="BackgroundImageFix" result="shape"/>
<feGaussianBlur stdDeviation="6.38002" result="effect1_foregroundBlur_18817_1724"/>
</filter>
<filter id="filter2_i_18817_1724" x="387.197" y="61.9551" width="63.8003" height="64.6625" filterUnits="userSpaceOnUse" color-interpolation-filters="sRGB">
<feFlood flood-opacity="0" result="BackgroundImageFix"/>
<feBlend mode="normal" in="SourceGraphic" in2="BackgroundImageFix" result="shape"/>
<feColorMatrix in="SourceAlpha" type="matrix" values="0 0 0 0 0 0 0 0 0 0 0 0 0 0 0 0 0 0 127 0" result="hardAlpha"/>
<feOffset dy="0.862165"/>
<feGaussianBlur stdDeviation="0.431082"/>
<feComposite in2="hardAlpha" operator="arithmetic" k2="-1" k3="1"/>
<feColorMatrix type="matrix" values="0 0 0 0 1 0 0 0 0 1 0 0 0 0 1 0 0 0 0.25 0"/>
<feBlend mode="normal" in2="shape" result="effect1_innerShadow_18817_1724"/>
</filter>
<filter id="filter3_f_18817_1724" x="390.389" y="65.1447" width="57.42" height="57.42" filterUnits="userSpaceOnUse" color-interpolation-filters="sRGB">
<feFlood flood-opacity="0" result="BackgroundImageFix"/>
<feBlend mode="normal" in="SourceGraphic" in2="BackgroundImageFix" result="shape"/>
<feGaussianBlur stdDeviation="6.38002" result="effect1_foregroundBlur_18817_1724"/>
</filter>
<filter id="filter4_i_18817_1724" x="399.269" y="336.124" width="63.8003" height="64.6625" filterUnits="userSpaceOnUse" color-interpolation-filters="sRGB">
<feFlood flood-opacity="0" result="BackgroundImageFix"/>
<feBlend mode="normal" in="SourceGraphic" in2="BackgroundImageFix" result="shape"/>
<feColorMatrix in="SourceAlpha" type="matrix" values="0 0 0 0 0 0 0 0 0 0 0 0 0 0 0 0 0 0 127 0" result="hardAlpha"/>
<feOffset dy="0.862165"/>
<feGaussianBlur stdDeviation="0.431082"/>
<feComposite in2="hardAlpha" operator="arithmetic" k2="-1" k3="1"/>
<feColorMatrix type="matrix" values="0 0 0 0 1 0 0 0 0 1 0 0 0 0 1 0 0 0 0.25 0"/>
<feBlend mode="normal" in2="shape" result="effect1_innerShadow_18817_1724"/>
</filter>
<filter id="filter5_f_18817_1724" x="402.456" y="339.314" width="57.42" height="57.42" filterUnits="userSpaceOnUse" color-interpolation-filters="sRGB">
<feFlood flood-opacity="0" result="BackgroundImageFix"/>
<feBlend mode="normal" in="SourceGraphic" in2="BackgroundImageFix" result="shape"/>
<feGaussianBlur stdDeviation="6.38002" result="effect1_foregroundBlur_18817_1724"/>
</filter>
<filter id="filter6_i_18817_1724" x="28.54" y="348.193" width="63.8003" height="64.6625" filterUnits="userSpaceOnUse" color-interpolation-filters="sRGB">
<feFlood flood-opacity="0" result="BackgroundImageFix"/>
<feBlend mode="normal" in="SourceGraphic" in2="BackgroundImageFix" result="shape"/>
<feColorMatrix in="SourceAlpha" type="matrix" values="0 0 0 0 0 0 0 0 0 0 0 0 0 0 0 0 0 0 127 0" result="hardAlpha"/>
<feOffset dy="0.862165"/>
<feGaussianBlur stdDeviation="0.431082"/>
<feComposite in2="hardAlpha" operator="arithmetic" k2="-1" k3="1"/>
<feColorMatrix type="matrix" values="0 0 0 0 1 0 0 0 0 1 0 0 0 0 1 0 0 0 0.25 0"/>
<feBlend mode="normal" in2="shape" result="effect1_innerShadow_18817_1724"/>
</filter>
<filter id="filter7_f_18817_1724" x="31.7317" y="351.383" width="57.42" height="57.42" filterUnits="userSpaceOnUse" color-interpolation-filters="sRGB">
<feFlood flood-opacity="0" result="BackgroundImageFix"/>
<feBlend mode="normal" in="SourceGraphic" in2="BackgroundImageFix" result="shape"/>
<feGaussianBlur stdDeviation="6.38002" result="effect1_foregroundBlur_18817_1724"/>
</filter>
<linearGradient id="paint0_linear_18817_1724" x1="37.1997" y1="49.3455" x2="71.6025" y2="126.29" gradientUnits="userSpaceOnUse">
<stop offset="0.2192" stop-color="#18191C"/>
<stop offset="0.7749" stop-color="#212225"/>
</linearGradient>
<linearGradient id="paint1_linear_18817_1724" x1="36.9783" y1="73.6793" x2="71.8203" y2="101.954" gradientUnits="userSpaceOnUse">
<stop stop-color="#9A6AFF"/>
<stop offset="0.8816" stop-color="#5059C9"/>
</linearGradient>
<linearGradient id="paint2_linear_18817_1724" x1="286.726" y1="-11.7926" x2="1210.46" y2="1588.06" gradientUnits="userSpaceOnUse">
<stop stop-color="#5A62C3"/>
<stop offset="0.5" stop-color="#4D55BD"/>
<stop offset="1" stop-color="#3940AB"/>
</linearGradient>
<linearGradient id="paint3_linear_18817_1724" x1="401.896" y1="55.3831" x2="436.299" y2="132.327" gradientUnits="userSpaceOnUse">
<stop offset="0.2192" stop-color="#18191C"/>
<stop offset="0.7749" stop-color="#212225"/>
</linearGradient>
<linearGradient id="paint4_linear_18817_1724" x1="400.79" y1="81.3609" x2="437.408" y2="106.349" gradientUnits="userSpaceOnUse">
<stop offset="0.0018" stop-color="#46E3B7"/>
<stop offset="0.8982" stop-color="#527CAC"/>
</linearGradient>
<linearGradient id="paint5_linear_18817_1724" x1="413.968" y1="329.552" x2="448.371" y2="406.496" gradientUnits="userSpaceOnUse">
<stop offset="0.2192" stop-color="#18191C"/>
<stop offset="0.7749" stop-color="#212225"/>
</linearGradient>
<linearGradient id="paint6_linear_18817_1724" x1="450.084" y1="373.267" x2="412.249" y2="362.781" gradientUnits="userSpaceOnUse">
<stop stop-color="#94979D"/>
<stop offset="1" stop-color="#767CAF"/>
</linearGradient>
<linearGradient id="paint7_linear_18817_1724" x1="43.2388" y1="341.621" x2="77.6415" y2="418.565" gradientUnits="userSpaceOnUse">
<stop offset="0.2192" stop-color="#18191C"/>
<stop offset="0.7749" stop-color="#212225"/>
</linearGradient>
<linearGradient id="paint8_linear_18817_1724" x1="79.3592" y1="385.336" x2="41.5243" y2="374.85" gradientUnits="userSpaceOnUse">
<stop stop-color="#94979D"/>
<stop offset="1" stop-color="#767CAF"/>
</linearGradient>
<linearGradient id="paint9_linear_18817_1724" x1="58.3878" y1="386.67" x2="60.4094" y2="376.357" gradientUnits="userSpaceOnUse">
<stop offset="0.15" stop-color="#0052CC"/>
<stop offset="0.503" stop-color="#0E64DE"/>
<stop offset="1" stop-color="#2684FF"/>
</linearGradient>
<linearGradient id="paint10_linear_18817_1724" x1="62.5224" y1="374.019" x2="60.4994" y2="384.332" gradientUnits="userSpaceOnUse">
<stop offset="0.15" stop-color="#0052CC"/>
<stop offset="0.503" stop-color="#0E64DE"/>
<stop offset="1" stop-color="#2684FF"/>
</linearGradient>
<clipPath id="clip0_18817_1724">
<rect width="27.6673" height="25.8301" fill="white" transform="translate(40.8188 74.5664)"/>
</clipPath>
<clipPath id="clip1_18817_1724">
<rect width="25.83" height="25.8301" fill="white" transform="translate(405.941 80.7095)"/>
</clipPath>
<clipPath id="clip2_18817_1724">
<rect width="25.83" height="25.8301" fill="white" transform="translate(47.5522 367.421)"/>
</clipPath>
</defs>
</svg>
