<svg width="640" height="639" viewBox="0 0 640 639" fill="none" xmlns="http://www.w3.org/2000/svg">
<path d="M600.306 313.526C600.306 471.794 472.005 600.095 313.737 600.095C155.47 600.095 27.1684 471.794 27.1684 313.526C27.1684 155.258 155.47 26.9565 313.737 26.9565C472.005 26.9565 600.306 155.258 600.306 313.526Z" stroke="#FFBE98" stroke-opacity="0.35" stroke-width="1.06334"/>
<path d="M600.306 313.526C600.306 471.794 472.005 600.095 313.737 600.095C155.47 600.095 27.1684 471.794 27.1684 313.526C27.1684 155.258 155.47 26.9565 313.737 26.9565C472.005 26.9565 600.306 155.258 600.306 313.526Z" stroke="black" stroke-opacity="0.2" stroke-width="1.06334"/>
<path d="M600.306 313.526C600.306 471.794 472.005 600.095 313.737 600.095C155.47 600.095 27.1684 471.794 27.1684 313.526C27.1684 155.258 155.47 26.9565 313.737 26.9565C472.005 26.9565 600.306 155.258 600.306 313.526Z" stroke="black" stroke-opacity="0.2" stroke-width="1.06334"/>
<g filter="url(#filter0_i_18817_1764)">
<rect x="287.875" y="0.5625" width="63.8001" height="63.8002" rx="31.9001" fill="url(#paint0_linear_18817_1764)"/>
<g opacity="0.7" filter="url(#filter1_f_18817_1764)">
<rect x="303.824" y="16.5117" width="31.9001" height="31.9001" rx="15.95" fill="url(#paint1_linear_18817_1764)"/>
</g>
<g clip-path="url(#clip0_18817_1764)">
<path d="M326.853 19.2837H313.131C309.788 19.2837 307.077 21.9941 307.077 25.3376V39.0598C307.077 42.4033 309.788 45.1138 313.131 45.1138H326.853C330.197 45.1138 332.907 42.4033 332.907 39.0598V25.3376C332.907 21.9941 330.197 19.2837 326.853 19.2837Z" fill="#F4F2ED"/>
<mask id="mask0_18817_1764" style="mask-type:luminance" maskUnits="userSpaceOnUse" x="313" y="22" width="14" height="21">
<path d="M313.233 22.1094H326.689V42.2891H313.233V22.1094Z" fill="white"/>
</mask>
<g mask="url(#mask0_18817_1764)">
<path d="M316.596 42.2891C318.453 42.2891 319.96 40.7824 319.96 38.9259V35.5625H316.596C314.74 35.5625 313.233 37.0693 313.233 38.9259C313.233 40.7824 314.74 42.2891 316.596 42.2891Z" fill="#0ACF83"/>
<path d="M313.233 32.1987C313.233 30.3422 314.74 28.8354 316.596 28.8354H319.96V35.562H316.596C314.74 35.562 313.233 34.0552 313.233 32.1987Z" fill="#A259FF"/>
<path d="M313.233 25.4726C313.233 23.6161 314.74 22.1094 316.596 22.1094H319.96V28.836H316.596C314.74 28.836 313.233 27.3292 313.233 25.4726Z" fill="#F24E1E"/>
<path d="M319.959 22.1094H323.322C325.179 22.1094 326.686 23.6161 326.686 25.4726C326.686 27.3292 325.179 28.836 323.322 28.836H319.959V22.1094Z" fill="#FF7262"/>
<path d="M326.686 32.1987C326.686 34.0552 325.179 35.562 323.322 35.562C321.466 35.562 319.959 34.0552 319.959 32.1987C319.959 30.3422 321.466 28.8354 323.322 28.8354C325.179 28.8354 326.686 30.3422 326.686 32.1987Z" fill="#1ABCFE"/>
</g>
</g>
</g>
<g filter="url(#filter2_i_18817_1764)">
<rect x="287.875" y="574.762" width="63.8001" height="63.8002" rx="31.9001" fill="url(#paint2_linear_18817_1764)"/>
<g opacity="0.7" filter="url(#filter3_f_18817_1764)">
<rect x="303.824" y="590.712" width="31.9001" height="31.9001" rx="15.95" fill="url(#paint3_linear_18817_1764)"/>
</g>
<g clip-path="url(#clip1_18817_1764)">
<path d="M320.037 616.059C318.669 616.025 317.541 615.422 316.82 614.163C316.082 612.861 316.114 611.528 316.902 610.258C318.776 607.237 320.675 604.232 322.562 601.219C322.948 600.603 323.325 599.977 323.728 599.373C324.265 598.546 325.103 597.961 326.064 597.742C327.025 597.524 328.033 597.689 328.874 598.203C330.651 599.298 331.245 601.575 330.139 603.37C327.877 607.053 325.583 610.719 323.258 614.366C322.541 615.494 321.454 616.038 320.037 616.059Z" fill="#FFCB00"/>
<path d="M308.295 616.059C306.914 616.025 305.793 615.395 305.087 614.14C304.358 612.839 304.405 611.503 305.195 610.234C307.211 606.999 309.236 603.769 311.27 600.543C311.528 600.126 311.785 599.699 312.06 599.295C312.618 598.486 313.47 597.926 314.433 597.734C315.397 597.541 316.398 597.732 317.224 598.264C318.05 598.797 318.637 599.63 318.859 600.588C319.082 601.545 318.923 602.551 318.416 603.394C316.162 607.033 313.878 610.659 311.592 614.282C310.85 615.456 309.757 616.038 308.295 616.059Z" fill="#FF3D57"/>
<path d="M331.859 608.68C333.939 608.691 335.623 610.344 335.619 612.371C335.619 614.429 333.89 616.089 331.791 616.063C329.691 616.037 328.037 614.402 328.04 612.366C328.042 610.3 329.732 608.667 331.859 608.68Z" fill="#00D647"/>
</g>
</g>
<g filter="url(#filter4_i_18817_1764)">
<rect x="0.339844" y="299.731" width="63.8001" height="63.8002" rx="31.9001" fill="url(#paint4_linear_18817_1764)"/>
<g opacity="0.7" filter="url(#filter5_f_18817_1764)">
<rect x="16.2891" y="315.681" width="31.9001" height="31.9001" rx="15.95" fill="url(#paint5_linear_18817_1764)"/>
</g>
<g clip-path="url(#clip2_18817_1764)">
<path d="M19.7125 331.68C19.7119 333.85 20.279 335.969 21.3572 337.837L19.6094 344.219L26.1402 342.506C27.9465 343.49 29.9704 344.005 32.027 344.005H32.0324C38.8218 344.005 44.3485 338.48 44.3514 331.69C44.3527 328.399 43.0725 325.305 40.7463 322.977C38.4206 320.649 35.3275 319.367 32.0319 319.365C25.2417 319.365 19.7154 324.89 19.7126 331.68" fill="url(#paint6_linear_18817_1764)"/>
<path d="M19.2717 331.673C19.271 333.921 19.8584 336.116 20.9751 338.051L19.1646 344.661L25.9295 342.887C27.7935 343.904 29.8921 344.44 32.0276 344.44H32.0331C39.0661 344.44 44.7913 338.717 44.7943 331.683C44.7955 328.274 43.4692 325.069 41.06 322.658C38.6505 320.247 35.4468 318.918 32.0331 318.917C24.9989 318.917 19.2745 324.639 19.2717 331.673ZM23.3005 337.718L23.0479 337.317C21.986 335.628 21.4256 333.677 21.4264 331.674C21.4286 325.827 26.1865 321.071 32.0371 321.071C34.8704 321.072 37.5331 322.177 39.5358 324.181C41.5385 326.185 42.6404 328.849 42.6397 331.682C42.6371 337.529 37.8791 342.286 32.0331 342.286H32.0289C30.1254 342.285 28.2585 341.774 26.6304 340.807L26.243 340.578L22.2285 341.63L23.3005 337.718Z" fill="url(#paint7_linear_18817_1764)"/>
<path d="M28.8456 326.34C28.6067 325.809 28.3553 325.798 28.1282 325.789C27.9422 325.781 27.7295 325.782 27.5171 325.782C27.3044 325.782 26.9589 325.862 26.6669 326.181C26.3745 326.5 25.5508 327.271 25.5508 328.84C25.5508 330.409 26.6934 331.925 26.8527 332.138C27.0122 332.35 29.0586 335.672 32.2995 336.951C34.9931 338.013 35.5412 337.801 36.1258 337.748C36.7105 337.695 38.0124 336.977 38.278 336.233C38.5438 335.488 38.5438 334.85 38.4641 334.717C38.3844 334.584 38.1717 334.504 37.8529 334.345C37.5339 334.185 35.9663 333.414 35.674 333.307C35.3817 333.201 35.1692 333.148 34.9565 333.467C34.7439 333.786 34.1333 334.504 33.9471 334.717C33.7612 334.93 33.5751 334.956 33.2563 334.797C32.9373 334.637 31.9104 334.3 30.6921 333.214C29.7442 332.369 29.1042 331.325 28.9182 331.006C28.7322 330.687 28.8983 330.515 29.0582 330.356C29.2014 330.213 29.3771 329.983 29.5367 329.797C29.6957 329.611 29.7488 329.478 29.8551 329.266C29.9615 329.053 29.9082 328.866 29.8287 328.707C29.7488 328.547 29.1291 326.971 28.8456 326.34Z" fill="white"/>
</g>
</g>
<g filter="url(#filter6_i_18817_1764)">
<rect x="575.401" y="299.731" width="63.8001" height="63.8002" rx="31.9001" fill="url(#paint8_linear_18817_1764)"/>
<g opacity="0.7" filter="url(#filter7_f_18817_1764)">
<rect x="591.353" y="315.681" width="31.9001" height="31.9001" rx="15.95" fill="url(#paint9_linear_18817_1764)"/>
</g>
<g clip-path="url(#clip3_18817_1764)">
<path d="M615.224 332.896C611.873 332.896 609.156 335.612 609.156 338.964C609.156 342.315 611.873 345.032 615.224 345.032C618.575 345.032 621.292 342.315 621.292 338.964C621.292 335.612 618.575 332.896 615.224 332.896ZM599.459 332.896C596.108 332.896 593.391 335.612 593.391 338.964C593.391 342.315 596.108 345.032 599.459 345.032C602.81 345.032 605.527 342.315 605.527 338.964C605.527 335.612 602.81 332.896 599.459 332.896ZM613.409 325.311C613.409 328.662 610.693 331.379 607.342 331.379C603.99 331.379 601.274 328.662 601.274 325.311C601.274 321.96 603.99 319.243 607.342 319.243C610.693 319.243 613.409 321.96 613.409 325.31" fill="#F06A6A"/>
</g>
</g>
<defs>
<filter id="filter0_i_18817_1764" x="287.875" y="0.5625" width="63.8003" height="64.6625" filterUnits="userSpaceOnUse" color-interpolation-filters="sRGB">
<feFlood flood-opacity="0" result="BackgroundImageFix"/>
<feBlend mode="normal" in="SourceGraphic" in2="BackgroundImageFix" result="shape"/>
<feColorMatrix in="SourceAlpha" type="matrix" values="0 0 0 0 0 0 0 0 0 0 0 0 0 0 0 0 0 0 127 0" result="hardAlpha"/>
<feOffset dy="0.862165"/>
<feGaussianBlur stdDeviation="0.431082"/>
<feComposite in2="hardAlpha" operator="arithmetic" k2="-1" k3="1"/>
<feColorMatrix type="matrix" values="0 0 0 0 1 0 0 0 0 1 0 0 0 0 1 0 0 0 0.25 0"/>
<feBlend mode="normal" in2="shape" result="effect1_innerShadow_18817_1764"/>
</filter>
<filter id="filter1_f_18817_1764" x="291.064" y="3.75168" width="57.42" height="57.42" filterUnits="userSpaceOnUse" color-interpolation-filters="sRGB">
<feFlood flood-opacity="0" result="BackgroundImageFix"/>
<feBlend mode="normal" in="SourceGraphic" in2="BackgroundImageFix" result="shape"/>
<feGaussianBlur stdDeviation="6.38002" result="effect1_foregroundBlur_18817_1764"/>
</filter>
<filter id="filter2_i_18817_1764" x="287.875" y="574.762" width="63.8003" height="64.6625" filterUnits="userSpaceOnUse" color-interpolation-filters="sRGB">
<feFlood flood-opacity="0" result="BackgroundImageFix"/>
<feBlend mode="normal" in="SourceGraphic" in2="BackgroundImageFix" result="shape"/>
<feColorMatrix in="SourceAlpha" type="matrix" values="0 0 0 0 0 0 0 0 0 0 0 0 0 0 0 0 0 0 127 0" result="hardAlpha"/>
<feOffset dy="0.862165"/>
<feGaussianBlur stdDeviation="0.431082"/>
<feComposite in2="hardAlpha" operator="arithmetic" k2="-1" k3="1"/>
<feColorMatrix type="matrix" values="0 0 0 0 1 0 0 0 0 1 0 0 0 0 1 0 0 0 0.25 0"/>
<feBlend mode="normal" in2="shape" result="effect1_innerShadow_18817_1764"/>
</filter>
<filter id="filter3_f_18817_1764" x="291.064" y="577.952" width="57.42" height="57.42" filterUnits="userSpaceOnUse" color-interpolation-filters="sRGB">
<feFlood flood-opacity="0" result="BackgroundImageFix"/>
<feBlend mode="normal" in="SourceGraphic" in2="BackgroundImageFix" result="shape"/>
<feGaussianBlur stdDeviation="6.38002" result="effect1_foregroundBlur_18817_1764"/>
</filter>
<filter id="filter4_i_18817_1764" x="0.339844" y="299.731" width="63.8003" height="64.6625" filterUnits="userSpaceOnUse" color-interpolation-filters="sRGB">
<feFlood flood-opacity="0" result="BackgroundImageFix"/>
<feBlend mode="normal" in="SourceGraphic" in2="BackgroundImageFix" result="shape"/>
<feColorMatrix in="SourceAlpha" type="matrix" values="0 0 0 0 0 0 0 0 0 0 0 0 0 0 0 0 0 0 127 0" result="hardAlpha"/>
<feOffset dy="0.862165"/>
<feGaussianBlur stdDeviation="0.431082"/>
<feComposite in2="hardAlpha" operator="arithmetic" k2="-1" k3="1"/>
<feColorMatrix type="matrix" values="0 0 0 0 1 0 0 0 0 1 0 0 0 0 1 0 0 0 0.25 0"/>
<feBlend mode="normal" in2="shape" result="effect1_innerShadow_18817_1764"/>
</filter>
<filter id="filter5_f_18817_1764" x="3.52902" y="302.921" width="57.42" height="57.42" filterUnits="userSpaceOnUse" color-interpolation-filters="sRGB">
<feFlood flood-opacity="0" result="BackgroundImageFix"/>
<feBlend mode="normal" in="SourceGraphic" in2="BackgroundImageFix" result="shape"/>
<feGaussianBlur stdDeviation="6.38002" result="effect1_foregroundBlur_18817_1764"/>
</filter>
<filter id="filter6_i_18817_1764" x="575.401" y="299.731" width="63.8003" height="64.6625" filterUnits="userSpaceOnUse" color-interpolation-filters="sRGB">
<feFlood flood-opacity="0" result="BackgroundImageFix"/>
<feBlend mode="normal" in="SourceGraphic" in2="BackgroundImageFix" result="shape"/>
<feColorMatrix in="SourceAlpha" type="matrix" values="0 0 0 0 0 0 0 0 0 0 0 0 0 0 0 0 0 0 127 0" result="hardAlpha"/>
<feOffset dy="0.862165"/>
<feGaussianBlur stdDeviation="0.431082"/>
<feComposite in2="hardAlpha" operator="arithmetic" k2="-1" k3="1"/>
<feColorMatrix type="matrix" values="0 0 0 0 1 0 0 0 0 1 0 0 0 0 1 0 0 0 0.25 0"/>
<feBlend mode="normal" in2="shape" result="effect1_innerShadow_18817_1764"/>
</filter>
<filter id="filter7_f_18817_1764" x="578.592" y="302.921" width="57.42" height="57.42" filterUnits="userSpaceOnUse" color-interpolation-filters="sRGB">
<feFlood flood-opacity="0" result="BackgroundImageFix"/>
<feBlend mode="normal" in="SourceGraphic" in2="BackgroundImageFix" result="shape"/>
<feGaussianBlur stdDeviation="6.38002" result="effect1_foregroundBlur_18817_1764"/>
</filter>
<linearGradient id="paint0_linear_18817_1764" x1="302.574" y1="-6.0095" x2="336.977" y2="70.9347" gradientUnits="userSpaceOnUse">
<stop offset="0.2192" stop-color="#18191C"/>
<stop offset="0.7749" stop-color="#212225"/>
</linearGradient>
<linearGradient id="paint1_linear_18817_1764" x1="300.758" y1="26.7854" x2="338.791" y2="38.1381" gradientUnits="userSpaceOnUse">
<stop offset="0.0668" stop-color="#E84E38"/>
<stop offset="0.8269" stop-color="#1ABCFE"/>
</linearGradient>
<linearGradient id="paint2_linear_18817_1764" x1="302.574" y1="568.19" x2="336.977" y2="645.134" gradientUnits="userSpaceOnUse">
<stop offset="0.2192" stop-color="#18191C"/>
<stop offset="0.7749" stop-color="#212225"/>
</linearGradient>
<linearGradient id="paint3_linear_18817_1764" x1="300.758" y1="600.986" x2="338.791" y2="612.338" gradientUnits="userSpaceOnUse">
<stop offset="0.0668" stop-color="#FF3D57"/>
<stop offset="0.8269" stop-color="#00D647"/>
</linearGradient>
<linearGradient id="paint4_linear_18817_1764" x1="15.0386" y1="293.159" x2="49.4413" y2="370.104" gradientUnits="userSpaceOnUse">
<stop offset="0.2192" stop-color="#18191C"/>
<stop offset="0.7749" stop-color="#212225"/>
</linearGradient>
<linearGradient id="paint5_linear_18817_1764" x1="51.1565" y1="336.874" x2="13.3217" y2="326.389" gradientUnits="userSpaceOnUse">
<stop stop-color="white"/>
<stop offset="1" stop-color="#60D66A"/>
</linearGradient>
<linearGradient id="paint6_linear_18817_1764" x1="1256.71" y1="2804.71" x2="1256.71" y2="319.365" gradientUnits="userSpaceOnUse">
<stop stop-color="#1FAF38"/>
<stop offset="1" stop-color="#60D669"/>
</linearGradient>
<linearGradient id="paint7_linear_18817_1764" x1="1300.65" y1="2893.38" x2="1300.65" y2="318.917" gradientUnits="userSpaceOnUse">
<stop stop-color="#F9F9F9"/>
<stop offset="1" stop-color="white"/>
</linearGradient>
<linearGradient id="paint8_linear_18817_1764" x1="590.1" y1="293.159" x2="624.503" y2="370.104" gradientUnits="userSpaceOnUse">
<stop offset="0.2192" stop-color="#18191C"/>
<stop offset="0.7749" stop-color="#212225"/>
</linearGradient>
<linearGradient id="paint9_linear_18817_1764" x1="626.22" y1="336.874" x2="588.385" y2="326.389" gradientUnits="userSpaceOnUse">
<stop stop-color="#F537F9"/>
<stop offset="1" stop-color="#F06A6A"/>
</linearGradient>
<clipPath id="clip0_18817_1764">
<rect width="25.83" height="25.8301" fill="white" transform="translate(307.073 19.291)"/>
</clipPath>
<clipPath id="clip1_18817_1764">
<rect width="31.2662" height="19.3725" fill="white" transform="translate(304.357 596.916)"/>
</clipPath>
<clipPath id="clip2_18817_1764">
<rect width="25.6298" height="25.8301" fill="white" transform="translate(19.165 318.916)"/>
</clipPath>
<clipPath id="clip3_18817_1764">
<rect width="27.9008" height="25.8301" fill="white" transform="translate(593.392 319.243)"/>
</clipPath>
</defs>
</svg>
