<svg width="57" height="67" viewBox="0 0 57 67" fill="none" xmlns="http://www.w3.org/2000/svg">
<path d="M40 16L38 18L36 16L29 18V25.87C29.3503 25.7792 29.6868 25.6413 30 25.46V28L29 29V32H44V29H47V18L40 16Z" fill="#FDDC51"/>
<path d="M47 29H44V32H47V29Z" fill="#585858"/>
<path d="M42 9V11C42 12.0609 41.5786 13.0783 40.8284 13.8284C40.0783 14.5786 39.0609 15 38 15C36.9391 15 35.9217 14.5786 35.1716 13.8284C34.4214 13.0783 34 12.0609 34 11V9C34 7.93913 34.4214 6.92172 35.1716 6.17157C35.9217 5.42143 36.9391 5 38 5C39.0609 5 40.0783 5.42143 40.8284 6.17157C41.5786 6.92172 42 7.93913 42 9Z" fill="#585858"/>
<path d="M26 28V25.46C26.3132 25.6413 26.6497 25.7792 27 25.87V18L20 16L18 18L16 16L9 18V29H12V32H27V29L26 28Z" fill="#FDDC51"/>
<path d="M12 29H9V32H12V29Z" fill="#585858"/>
<path d="M22 9V11C22 12.0609 21.5786 13.0783 20.8284 13.8284C20.0783 14.5786 19.0609 15 18 15C16.9391 15 15.9217 14.5786 15.1716 13.8284C14.4214 13.0783 14 12.0609 14 11V9C14 7.93913 14.4214 6.92172 15.1716 6.17157C15.9217 5.42143 16.9391 5 18 5C19.0609 5 20.0783 5.42143 20.8284 6.17157C21.5786 6.92172 22 7.93913 22 9Z" fill="#585858"/>
<path d="M37 38.0156H34V42.0156H37V38.0156Z" fill="#909090"/>
<path d="M22 38.0156H19V42.0156H22V38.0156Z" fill="#909090"/>
<path d="M34 39V42H22V39H19V34V30V28L26 26L28 28L30 26L37 28V30V34V39H34Z" fill="#EDC001"/>
<path d="M32 19.9831V21.9831C32 23.044 31.5786 24.0614 30.8284 24.8116C30.0783 25.5617 29.0609 25.9831 28 25.9831C26.9391 25.9831 25.9217 25.5617 25.1716 24.8116C24.4214 24.0614 24 23.044 24 21.9831V19.9831C23.9991 18.9317 24.4123 17.9223 25.15 17.1731C25.5215 16.8012 25.9626 16.5062 26.4482 16.3049C26.9338 16.1036 27.4543 16 27.98 16C28.5057 16 29.0262 16.1036 29.5118 16.3049C29.9974 16.5062 30.4385 16.8012 30.81 17.1731C31.5624 17.9158 31.9902 18.926 32 19.9831Z" fill="#585858"/>
<path d="M26.1875 64C26.1875 64.5933 26.3634 65.1734 26.6931 65.6667C27.0227 66.1601 27.4913 66.5446 28.0394 66.7716C28.5876 66.9987 29.1908 67.0581 29.7728 66.9424C30.3547 66.8266 30.8893 66.5409 31.3088 66.1213C31.7284 65.7018 32.0141 65.1672 32.1299 64.5853C32.2456 64.0033 32.1862 63.4001 31.9591 62.852C31.7321 62.3038 31.3476 61.8352 30.8542 61.5056C30.3609 61.1759 29.7808 61 29.1875 61C28.3919 61 27.6288 61.3161 27.0662 61.8787C26.5036 62.4413 26.1875 63.2043 26.1875 64ZM30.1875 64C30.1875 64.1978 30.1289 64.3911 30.019 64.5556C29.9091 64.72 29.7529 64.8482 29.5702 64.9239C29.3875 64.9996 29.1864 65.0194 28.9924 64.9808C28.7984 64.9422 28.6202 64.847 28.4804 64.7071C28.3405 64.5673 28.2453 64.3891 28.2067 64.1951C28.1681 64.0011 28.1879 63.8 28.2636 63.6173C28.3393 63.4346 28.4675 63.2784 28.6319 63.1685C28.7964 63.0586 28.9897 63 29.1875 63C29.4527 63 29.7071 63.1054 29.8946 63.2929C30.0821 63.4804 30.1875 63.7348 30.1875 64Z" fill="#FDDC51"/>
<path d="M9.1875 50C9.1875 50.5933 9.01155 51.1734 8.68191 51.6667C8.35227 52.1601 7.88373 52.5446 7.33555 52.7716C6.78737 52.9987 6.18417 53.0581 5.60223 52.9424C5.02029 52.8266 4.48574 52.5409 4.06618 52.1213C3.64662 51.7018 3.3609 51.1672 3.24515 50.5853C3.12939 50.0033 3.1888 49.4001 3.41586 48.852C3.64293 48.3038 4.02744 47.8352 4.52079 47.5056C5.01414 47.1759 5.59416 47 6.1875 47C6.98315 47 7.74621 47.3161 8.30882 47.8787C8.87143 48.4413 9.1875 49.2043 9.1875 50ZM5.1875 50C5.1875 50.1978 5.24615 50.3911 5.35603 50.5556C5.46591 50.72 5.62209 50.8482 5.80482 50.9239C5.98754 50.9996 6.18861 51.0194 6.38259 50.9808C6.57657 50.9422 6.75476 50.847 6.89461 50.7071C7.03446 50.5673 7.1297 50.3891 7.16829 50.1951C7.20687 50.0011 7.18707 49.8 7.11138 49.6173C7.03569 49.4346 6.90752 49.2784 6.74307 49.1685C6.57862 49.0586 6.38528 49 6.1875 49C5.92228 49 5.66793 49.1054 5.48039 49.2929C5.29286 49.4804 5.1875 49.7348 5.1875 50Z" fill="#FDDC51"/>
<path d="M32.1875 50C32.1875 50.5933 32.0116 51.1734 31.6819 51.6667C31.3523 52.1601 30.8837 52.5446 30.3355 52.7716C29.7874 52.9987 29.1842 53.0581 28.6022 52.9424C28.0203 52.8266 27.4857 52.5409 27.0662 52.1213C26.6466 51.7018 26.3609 51.1672 26.2451 50.5853C26.1294 50.0033 26.1888 49.4001 26.4159 48.852C26.6429 48.3038 27.0274 47.8352 27.5208 47.5056C28.0141 47.1759 28.5942 47 29.1875 47C29.9832 47 30.7462 47.3161 31.3088 47.8787C31.8714 48.4413 32.1875 49.2043 32.1875 50ZM28.1875 50C28.1875 50.1978 28.2461 50.3911 28.356 50.5556C28.4659 50.72 28.6221 50.8482 28.8048 50.9239C28.9875 50.9996 29.1886 51.0194 29.3826 50.9808C29.5766 50.9422 29.7548 50.847 29.8946 50.7071C30.0345 50.5673 30.1297 50.3891 30.1683 50.1951C30.2069 50.0011 30.1871 49.8 30.1114 49.6173C30.0357 49.4346 29.9075 49.2784 29.7431 49.1685C29.5786 49.0586 29.3853 49 29.1875 49C28.9223 49 28.6679 49.1054 28.4804 49.2929C28.2929 49.4804 28.1875 49.7348 28.1875 50Z" fill="#FDDC51"/>
<path d="M55.1875 50C55.1875 50.5933 55.0116 51.1734 54.6819 51.6667C54.3523 52.1601 53.8837 52.5446 53.3355 52.7716C52.7874 52.9987 52.1842 53.0581 51.6022 52.9424C51.0203 52.8266 50.4857 52.5409 50.0662 52.1213C49.6466 51.7018 49.3609 51.1672 49.2451 50.5853C49.1294 50.0033 49.1888 49.4001 49.4159 48.852C49.6429 48.3038 50.0274 47.8352 50.5208 47.5056C51.0141 47.1759 51.5942 47 52.1875 47C52.9832 47 53.7462 47.3161 54.3088 47.8787C54.8714 48.4413 55.1875 49.2043 55.1875 50ZM51.1875 50C51.1875 50.1978 51.2461 50.3911 51.356 50.5556C51.4659 50.72 51.6221 50.8482 51.8048 50.9239C51.9875 50.9996 52.1886 51.0194 52.3826 50.9808C52.5766 50.9422 52.7548 50.847 52.8946 50.7071C53.0345 50.5673 53.1297 50.3891 53.1683 50.1951C53.2069 50.0011 53.1871 49.8 53.1114 49.6173C53.0357 49.4346 52.9075 49.2784 52.7431 49.1685C52.5786 49.0586 52.3853 49 52.1875 49C51.9223 49 51.6679 49.1054 51.4804 49.2929C51.2929 49.4804 51.1875 49.7348 51.1875 50Z" fill="#FDDC51"/>
<path d="M18.1875 57L18.1875 59L8.1875 59C7.39185 59 6.62879 58.6839 6.06618 58.1213C5.50357 57.5587 5.1875 56.7956 5.1875 56L5.1875 52L7.1875 52L7.1875 56C7.1875 56.2652 7.29286 56.5196 7.48039 56.7071C7.66793 56.8946 7.92228 57 8.1875 57L18.1875 57Z" fill="#FDDC51"/>
<path d="M28.1875 52L28.1875 62L30.1875 62L30.1875 52L28.1875 52Z" fill="#FDDC51"/>
<path d="M53.1875 52L53.1875 56C53.1875 56.7956 52.8714 57.5587 52.3088 58.1213C51.7462 58.6839 50.9831 59 50.1875 59L40.1875 59L40.1875 57L50.1875 57C50.4527 57 50.7071 56.8946 50.8946 56.7071C51.0821 56.5196 51.1875 56.2652 51.1875 56L51.1875 52L53.1875 52Z" fill="#FDDC51"/>
<path d="M32.1875 57L32.1875 59L34.1875 59L34.1875 57L32.1875 57Z" fill="#FDDC51"/>
<path d="M36.1875 57L36.1875 59L38.1875 59L38.1875 57L36.1875 57Z" fill="#FDDC51"/>
<path d="M24.1875 57L24.1875 59L26.1875 59L26.1875 57L24.1875 57Z" fill="#FDDC51"/>
<path d="M20.1875 57L20.1875 59L22.1875 59L22.1875 57L20.1875 57Z" fill="#FDDC51"/>
</svg>
