<svg width="154" height="46" viewBox="0 0 154 46" fill="none" xmlns="http://www.w3.org/2000/svg">
<path d="M61.6827 29.5H58.3027L55.5027 19.92H55.4427L52.6427 29.5H49.2427L45.2227 15.34H48.9027L51.1427 24.76H51.2027L53.7227 15.34H57.2827L59.8227 24.76H59.8827L62.1627 15.34H65.7227L61.6827 29.5ZM76.8478 24.48C76.8478 25.2933 76.7011 26.0333 76.4078 26.7C76.1145 27.3533 75.7145 27.9133 75.2078 28.38C74.7011 28.8333 74.1145 29.1867 73.4478 29.44C72.7811 29.6933 72.0678 29.82 71.3078 29.82C70.5611 29.82 69.8478 29.6933 69.1678 29.44C68.5011 29.1867 67.9145 28.8333 67.4078 28.38C66.9145 27.9133 66.5211 27.3533 66.2278 26.7C65.9345 26.0333 65.7878 25.2933 65.7878 24.48C65.7878 23.6667 65.9345 22.9333 66.2278 22.28C66.5211 21.6267 66.9145 21.0733 67.4078 20.62C67.9145 20.1667 68.5011 19.82 69.1678 19.58C69.8478 19.34 70.5611 19.22 71.3078 19.22C72.0678 19.22 72.7811 19.34 73.4478 19.58C74.1145 19.82 74.7011 20.1667 75.2078 20.62C75.7145 21.0733 76.1145 21.6267 76.4078 22.28C76.7011 22.9333 76.8478 23.6667 76.8478 24.48ZM73.6878 24.48C73.6878 24.16 73.6345 23.8467 73.5278 23.54C73.4211 23.2333 73.2678 22.9667 73.0678 22.74C72.8678 22.5 72.6211 22.3067 72.3278 22.16C72.0345 22.0133 71.6945 21.94 71.3078 21.94C70.9211 21.94 70.5811 22.0133 70.2878 22.16C69.9945 22.3067 69.7478 22.5 69.5478 22.74C69.3611 22.9667 69.2145 23.2333 69.1078 23.54C69.0145 23.8467 68.9678 24.16 68.9678 24.48C68.9678 24.8 69.0145 25.1133 69.1078 25.42C69.2145 25.7267 69.3678 26.0067 69.5678 26.26C69.7678 26.5 70.0145 26.6933 70.3078 26.84C70.6011 26.9867 70.9411 27.06 71.3278 27.06C71.7145 27.06 72.0545 26.9867 72.3478 26.84C72.6411 26.6933 72.8878 26.5 73.0878 26.26C73.2878 26.0067 73.4345 25.7267 73.5278 25.42C73.6345 25.1133 73.6878 24.8 73.6878 24.48ZM85.3845 22.22C85.2379 22.18 85.0912 22.1533 84.9445 22.14C84.8112 22.1267 84.6779 22.12 84.5445 22.12C84.1045 22.12 83.7312 22.2 83.4245 22.36C83.1312 22.52 82.8912 22.7133 82.7045 22.94C82.5312 23.1667 82.4045 23.4133 82.3245 23.68C82.2445 23.9467 82.2045 24.18 82.2045 24.38V29.5H78.9245V19.54H82.0845V20.98H82.1245C82.3779 20.4733 82.7379 20.06 83.2045 19.74C83.6712 19.42 84.2112 19.26 84.8245 19.26C84.9579 19.26 85.0845 19.2667 85.2045 19.28C85.3379 19.2933 85.4445 19.3133 85.5245 19.34L85.3845 22.22ZM97.5542 29.5H93.4942L90.2342 24.72H90.1742V29.5H86.8742V14.38H90.1742V23.58H90.2342L93.4142 19.54H97.3942L93.5542 24.04L97.5542 29.5ZM104.929 16.8C104.809 16.76 104.669 16.7267 104.509 16.7C104.349 16.6733 104.189 16.66 104.029 16.66C103.722 16.66 103.475 16.7133 103.289 16.82C103.102 16.9267 102.955 17.0733 102.849 17.26C102.742 17.4333 102.669 17.6333 102.629 17.86C102.589 18.0867 102.569 18.3133 102.569 18.54V19.54H104.789V22H102.569V29.5H99.2888V22H97.4688V19.54H99.2888V18.58C99.2888 17.9667 99.3554 17.3867 99.4888 16.84C99.6221 16.28 99.8488 15.7933 100.169 15.38C100.502 14.9533 100.942 14.62 101.489 14.38C102.049 14.1267 102.742 14 103.569 14C103.849 14 104.122 14.02 104.389 14.06C104.669 14.0867 104.922 14.1333 105.149 14.2L104.929 16.8ZM111.914 25.16H111.494C111.134 25.16 110.767 25.18 110.394 25.22C110.034 25.2467 109.707 25.3067 109.414 25.4C109.134 25.4933 108.901 25.6333 108.714 25.82C108.527 25.9933 108.434 26.2267 108.434 26.52C108.434 26.7067 108.474 26.8667 108.554 27C108.647 27.1333 108.761 27.24 108.894 27.32C109.027 27.4 109.181 27.46 109.354 27.5C109.527 27.5267 109.694 27.54 109.854 27.54C110.521 27.54 111.027 27.36 111.374 27C111.734 26.6267 111.914 26.1267 111.914 25.5V25.16ZM105.894 20.9C106.481 20.34 107.161 19.92 107.934 19.64C108.721 19.36 109.521 19.22 110.334 19.22C111.174 19.22 111.881 19.3267 112.454 19.54C113.041 19.74 113.514 20.06 113.874 20.5C114.234 20.9267 114.494 21.4733 114.654 22.14C114.827 22.7933 114.914 23.5733 114.914 24.48V29.5H111.914V28.44H111.854C111.601 28.8533 111.214 29.1733 110.694 29.4C110.187 29.6267 109.634 29.74 109.034 29.74C108.634 29.74 108.221 29.6867 107.794 29.58C107.367 29.4733 106.974 29.3 106.614 29.06C106.267 28.82 105.981 28.5 105.754 28.1C105.527 27.7 105.414 27.2067 105.414 26.62C105.414 25.9 105.607 25.32 105.994 24.88C106.394 24.44 106.901 24.1 107.514 23.86C108.141 23.62 108.834 23.46 109.594 23.38C110.354 23.3 111.094 23.26 111.814 23.26V23.1C111.814 22.6067 111.641 22.2467 111.294 22.02C110.947 21.78 110.521 21.66 110.014 21.66C109.547 21.66 109.094 21.76 108.654 21.96C108.227 22.16 107.861 22.4 107.554 22.68L105.894 20.9ZM123.222 22.48C122.955 22.2267 122.642 22.0133 122.282 21.84C121.922 21.6667 121.542 21.58 121.142 21.58C120.835 21.58 120.549 21.64 120.282 21.76C120.029 21.88 119.902 22.0867 119.902 22.38C119.902 22.66 120.042 22.86 120.322 22.98C120.615 23.1 121.082 23.2333 121.722 23.38C122.095 23.46 122.469 23.5733 122.842 23.72C123.229 23.8667 123.575 24.06 123.882 24.3C124.189 24.54 124.435 24.8333 124.622 25.18C124.809 25.5267 124.902 25.94 124.902 26.42C124.902 27.0467 124.775 27.58 124.522 28.02C124.269 28.4467 123.935 28.7933 123.522 29.06C123.122 29.3267 122.669 29.52 122.162 29.64C121.655 29.76 121.149 29.82 120.642 29.82C119.829 29.82 119.029 29.6933 118.242 29.44C117.469 29.1733 116.822 28.7867 116.302 28.28L118.142 26.34C118.435 26.66 118.795 26.9267 119.222 27.14C119.649 27.3533 120.102 27.46 120.582 27.46C120.849 27.46 121.109 27.4 121.362 27.28C121.629 27.1467 121.762 26.92 121.762 26.6C121.762 26.2933 121.602 26.0667 121.282 25.92C120.962 25.7733 120.462 25.62 119.782 25.46C119.435 25.38 119.089 25.2733 118.742 25.14C118.395 25.0067 118.082 24.8267 117.802 24.6C117.535 24.3733 117.315 24.0933 117.142 23.76C116.969 23.4267 116.882 23.0267 116.882 22.56C116.882 21.96 117.009 21.4533 117.262 21.04C117.515 20.6133 117.842 20.2667 118.242 20C118.642 19.7333 119.082 19.54 119.562 19.42C120.055 19.2867 120.542 19.22 121.022 19.22C121.769 19.22 122.495 19.34 123.202 19.58C123.922 19.8067 124.529 20.1533 125.022 20.62L123.222 22.48ZM130.356 22V25.8C130.356 26.2667 130.442 26.62 130.616 26.86C130.802 27.0867 131.129 27.2 131.596 27.2C131.756 27.2 131.922 27.1867 132.096 27.16C132.282 27.1333 132.436 27.0933 132.556 27.04L132.596 29.44C132.369 29.52 132.082 29.5867 131.736 29.64C131.389 29.7067 131.042 29.74 130.696 29.74C130.029 29.74 129.469 29.66 129.016 29.5C128.562 29.3267 128.196 29.0867 127.916 28.78C127.649 28.46 127.456 28.0867 127.336 27.66C127.216 27.22 127.156 26.7333 127.156 26.2V22H125.556V19.54H127.136V16.92H130.356V19.54H132.696V22H130.356ZM137.977 27.74C137.977 28.3 137.777 28.7667 137.377 29.14C136.99 29.5133 136.524 29.7 135.977 29.7C135.697 29.7 135.43 29.6467 135.177 29.54C134.937 29.4467 134.724 29.3133 134.537 29.14C134.35 28.9667 134.204 28.7667 134.097 28.54C133.99 28.3 133.937 28.04 133.937 27.76C133.937 27.4933 133.99 27.24 134.097 27C134.204 26.76 134.35 26.5533 134.537 26.38C134.724 26.1933 134.937 26.0467 135.177 25.94C135.43 25.8333 135.697 25.78 135.977 25.78C136.524 25.78 136.99 25.9667 137.377 26.34C137.777 26.7133 137.977 27.18 137.977 27.74ZM146.473 23.36C146.473 22.6533 146.26 22.1333 145.833 21.8C145.406 21.4533 144.84 21.28 144.133 21.28C143.6 21.28 143.093 21.3867 142.613 21.6C142.146 21.8 141.753 22.06 141.433 22.38L140.433 21.18C140.9 20.74 141.466 20.3933 142.133 20.14C142.813 19.8867 143.54 19.76 144.313 19.76C144.993 19.76 145.58 19.86 146.073 20.06C146.58 20.2467 146.993 20.5067 147.313 20.84C147.633 21.1733 147.873 21.5667 148.033 22.02C148.193 22.4733 148.273 22.96 148.273 23.48V27.62C148.273 27.94 148.28 28.28 148.293 28.64C148.32 28.9867 148.36 29.2733 148.413 29.5H146.713C146.606 29.0467 146.553 28.5933 146.553 28.14H146.493C146.146 28.6467 145.706 29.04 145.173 29.32C144.653 29.6 144.033 29.74 143.313 29.74C142.94 29.74 142.546 29.6867 142.133 29.58C141.733 29.4867 141.366 29.3267 141.033 29.1C140.7 28.8733 140.42 28.5733 140.193 28.2C139.98 27.8267 139.873 27.3667 139.873 26.82C139.873 26.1 140.066 25.5333 140.453 25.12C140.84 24.6933 141.346 24.3733 141.973 24.16C142.6 23.9333 143.306 23.7867 144.093 23.72C144.88 23.6533 145.673 23.62 146.473 23.62V23.36ZM146.013 24.98C145.546 24.98 145.06 25 144.553 25.04C144.06 25.08 143.606 25.16 143.193 25.28C142.793 25.4 142.46 25.58 142.193 25.82C141.926 26.06 141.793 26.38 141.793 26.78C141.793 27.06 141.846 27.2933 141.953 27.48C142.073 27.6667 142.226 27.82 142.413 27.94C142.6 28.06 142.806 28.1467 143.033 28.2C143.26 28.24 143.493 28.26 143.733 28.26C144.613 28.26 145.286 28 145.753 27.48C146.233 26.9467 146.473 26.28 146.473 25.48V24.98H146.013ZM153.313 29.5H151.433V20.02H153.313V29.5ZM153.633 16.6C153.633 16.9467 153.506 17.2333 153.253 17.46C153.013 17.6867 152.72 17.8 152.373 17.8C152.026 17.8 151.733 17.6867 151.493 17.46C151.253 17.22 151.133 16.9333 151.133 16.6C151.133 16.2533 151.253 15.9667 151.493 15.74C151.733 15.5 152.026 15.38 152.373 15.38C152.72 15.38 153.013 15.5 153.253 15.74C153.506 15.9667 153.633 16.2533 153.633 16.6Z" fill="url(#paint0_linear_1226_26869)"/>
<g clip-path="url(#clip0_1226_26869)">
<mask id="path-3-inside-1_1226_26869" fill="white">
<path d="M0.222656 6.5H32.2227V38.5H0.222656V6.5Z"/>
</mask>
<path d="M0.222656 6.5H32.2227V38.5H0.222656V6.5Z" fill="url(#paint1_linear_1226_26869)"/>
<path d="M0.222656 6.66552H32.2227V6.33448H0.222656V6.66552Z" fill="url(#paint2_linear_1226_26869)" mask="url(#path-3-inside-1_1226_26869)"/>
<g filter="url(#filter0_f_1226_26869)">
<circle cx="3.08871" cy="10.0301" r="2.53793" fill="url(#paint3_linear_1226_26869)"/>
</g>
<path d="M28.3308 9.36142C25.2424 7.65678 22.54 8.42677 16.0874 6.94193C15.0983 6.71433 13.6065 6.59794 12.0778 6.54308L6.16016 6.55574C6.16016 6.55574 9.18502 6.43926 12.0778 6.54308L32.2227 6.5V16.125C32.2227 16.125 31.4193 11.0661 28.3308 9.36142Z" fill="url(#paint4_linear_1226_26869)"/>
<g filter="url(#filter1_f_1226_26869)">
<ellipse cx="25.3986" cy="11.0789" rx="2.03143" ry="2.03206" fill="url(#paint5_linear_1226_26869)"/>
<path d="M27.416 11.0789C27.416 12.1935 26.5128 13.097 25.3986 13.097C24.2844 13.097 23.3812 12.1935 23.3812 11.0789C23.3812 9.9644 24.2844 9.06089 25.3986 9.06089C26.5128 9.06089 27.416 9.9644 27.416 11.0789Z" stroke="url(#paint6_linear_1226_26869)" stroke-width="0.0280372"/>
</g>
<g filter="url(#filter2_d_1226_26869)">
<ellipse cx="25.5392" cy="10.9383" rx="2.03143" ry="2.03206" fill="url(#paint7_linear_1226_26869)"/>
</g>
<g filter="url(#filter3_d_1226_26869)">
<ellipse cx="16.2227" cy="23.6211" rx="12.4688" ry="12.4726" fill="url(#paint8_linear_1226_26869)"/>
<path d="M28.5512 23.6211C28.5512 30.4321 23.0315 35.9535 16.2227 35.9535C9.41382 35.9535 3.89409 30.4321 3.89409 23.6211C3.89409 16.81 9.41382 11.2886 16.2227 11.2886C23.0315 11.2886 28.5512 16.81 28.5512 23.6211Z" stroke="url(#paint9_linear_1226_26869)" stroke-width="0.280372"/>
</g>
<g filter="url(#filter4_d_1226_26869)">
<ellipse cx="16.2202" cy="23.6214" rx="8.96629" ry="8.96908" fill="url(#paint10_linear_1226_26869)"/>
<path d="M25.0463 23.6214C25.0463 28.4975 21.0947 32.4503 16.2202 32.4503C11.3457 32.4503 7.39409 28.4975 7.39409 23.6214C7.39409 18.7453 11.3457 14.7925 16.2202 14.7925C21.0947 14.7925 25.0463 18.7453 25.0463 23.6214Z" stroke="url(#paint11_linear_1226_26869)" stroke-width="0.280372"/>
</g>
<g filter="url(#filter5_di_1226_26869)">
<ellipse cx="16.4334" cy="23.6928" rx="5.25368" ry="5.25532" fill="url(#paint12_linear_1226_26869)"/>
<path d="M21.5469 23.6928C21.5469 26.5179 19.2574 28.8079 16.4334 28.8079C13.6093 28.8079 11.3199 26.5179 11.3199 23.6928C11.3199 20.8678 13.6093 18.5777 16.4334 18.5777C19.2574 18.5777 21.5469 20.8678 21.5469 23.6928Z" stroke="url(#paint13_linear_1226_26869)" stroke-width="0.280372"/>
</g>
</g>
<defs>
<filter id="filter0_f_1226_26869" x="0.440436" y="7.38184" width="5.29491" height="5.29662" filterUnits="userSpaceOnUse" color-interpolation-filters="sRGB">
<feFlood flood-opacity="0" result="BackgroundImageFix"/>
<feBlend mode="normal" in="SourceGraphic" in2="BackgroundImageFix" result="shape"/>
<feGaussianBlur stdDeviation="0.0551724" result="effect1_foregroundBlur_1226_26869"/>
</filter>
<filter id="filter1_f_1226_26869" x="22.9466" y="8.62632" width="4.90362" height="4.90533" filterUnits="userSpaceOnUse" color-interpolation-filters="sRGB">
<feFlood flood-opacity="0" result="BackgroundImageFix"/>
<feBlend mode="normal" in="SourceGraphic" in2="BackgroundImageFix" result="shape"/>
<feGaussianBlur stdDeviation="0.210279" result="effect1_foregroundBlur_1226_26869"/>
</filter>
<filter id="filter2_d_1226_26869" x="20.4237" y="8.76606" width="7.14659" height="7.1483" filterUnits="userSpaceOnUse" color-interpolation-filters="sRGB">
<feFlood flood-opacity="0" result="BackgroundImageFix"/>
<feColorMatrix in="SourceAlpha" type="matrix" values="0 0 0 0 0 0 0 0 0 0 0 0 0 0 0 0 0 0 127 0" result="hardAlpha"/>
<feOffset dx="-1.54205" dy="1.40186"/>
<feGaussianBlur stdDeviation="0.771024"/>
<feComposite in2="hardAlpha" operator="out"/>
<feColorMatrix type="matrix" values="0 0 0 0 0.980392 0 0 0 0 0.498039 0 0 0 0 0.0117647 0 0 0 0.79 0"/>
<feBlend mode="normal" in2="BackgroundImageFix" result="effect1_dropShadow_1226_26869"/>
<feBlend mode="normal" in="SourceGraphic" in2="effect1_dropShadow_1226_26869" result="shape"/>
</filter>
<filter id="filter3_d_1226_26869" x="-1.99372" y="10.5877" width="33.3487" height="33.3565" filterUnits="userSpaceOnUse" color-interpolation-filters="sRGB">
<feFlood flood-opacity="0" result="BackgroundImageFix"/>
<feColorMatrix in="SourceAlpha" type="matrix" values="0 0 0 0 0 0 0 0 0 0 0 0 0 0 0 0 0 0 127 0" result="hardAlpha"/>
<feOffset dx="-1.54205" dy="3.64484"/>
<feGaussianBlur stdDeviation="2.10279"/>
<feComposite in2="hardAlpha" operator="out"/>
<feColorMatrix type="matrix" values="0 0 0 0 0.956863 0 0 0 0 0.419608 0 0 0 0 0.0862745 0 0 0 0.82 0"/>
<feBlend mode="normal" in2="BackgroundImageFix" result="effect1_dropShadow_1226_26869"/>
<feBlend mode="normal" in="SourceGraphic" in2="effect1_dropShadow_1226_26869" result="shape"/>
</filter>
<filter id="filter4_d_1226_26869" x="4.73056" y="13.671" width="21.0177" height="21.0223" filterUnits="userSpaceOnUse" color-interpolation-filters="sRGB">
<feFlood flood-opacity="0" result="BackgroundImageFix"/>
<feColorMatrix in="SourceAlpha" type="matrix" values="0 0 0 0 0 0 0 0 0 0 0 0 0 0 0 0 0 0 127 0" result="hardAlpha"/>
<feOffset dx="-0.981303" dy="0.560744"/>
<feGaussianBlur stdDeviation="0.771024"/>
<feComposite in2="hardAlpha" operator="out"/>
<feColorMatrix type="matrix" values="0 0 0 0 0.968627 0 0 0 0 0.0470588 0 0 0 0 0.309804 0 0 0 1 0"/>
<feBlend mode="normal" in2="BackgroundImageFix" result="effect1_dropShadow_1226_26869"/>
<feBlend mode="normal" in="SourceGraphic" in2="effect1_dropShadow_1226_26869" result="shape"/>
</filter>
<filter id="filter5_di_1226_26869" x="9.0769" y="18.4375" width="13.0312" height="14.0154" filterUnits="userSpaceOnUse" color-interpolation-filters="sRGB">
<feFlood flood-opacity="0" result="BackgroundImageFix"/>
<feColorMatrix in="SourceAlpha" type="matrix" values="0 0 0 0 0 0 0 0 0 0 0 0 0 0 0 0 0 0 127 0" result="hardAlpha"/>
<feOffset dx="-0.841117" dy="1.26168"/>
<feGaussianBlur stdDeviation="0.630838"/>
<feComposite in2="hardAlpha" operator="out"/>
<feColorMatrix type="matrix" values="0 0 0 0 0.968627 0 0 0 0 0.113725 0 0 0 0 0.270588 0 0 0 1 0"/>
<feBlend mode="normal" in2="BackgroundImageFix" result="effect1_dropShadow_1226_26869"/>
<feBlend mode="normal" in="SourceGraphic" in2="effect1_dropShadow_1226_26869" result="shape"/>
<feColorMatrix in="SourceAlpha" type="matrix" values="0 0 0 0 0 0 0 0 0 0 0 0 0 0 0 0 0 0 127 0" result="hardAlpha"/>
<feOffset dx="-0.981303" dy="3.50465"/>
<feGaussianBlur stdDeviation="2.45326"/>
<feComposite in2="hardAlpha" operator="arithmetic" k2="-1" k3="1"/>
<feColorMatrix type="matrix" values="0 0 0 0 0.992157 0 0 0 0 0.584314 0 0 0 0 0.0784314 0 0 0 1 0"/>
<feBlend mode="normal" in2="shape" result="effect2_innerShadow_1226_26869"/>
</filter>
<linearGradient id="paint0_linear_1226_26869" x1="17.7227" y1="24" x2="155.223" y2="23" gradientUnits="userSpaceOnUse">
<stop stop-color="#FFEFAD"/>
<stop offset="0.462368" stop-color="#FF903F"/>
<stop offset="1" stop-color="#FE4260"/>
</linearGradient>
<linearGradient id="paint1_linear_1226_26869" x1="27.864" y1="4.59524" x2="3.35457" y2="36.974" gradientUnits="userSpaceOnUse">
<stop stop-color="#FDD01F"/>
<stop offset="0.369907" stop-color="#FDD320"/>
<stop offset="0.496817" stop-color="#F8C240"/>
<stop offset="1" stop-color="#F8861B"/>
</linearGradient>
<linearGradient id="paint2_linear_1226_26869" x1="16.2227" y1="6.5" x2="16.2227" y2="38.5" gradientUnits="userSpaceOnUse">
<stop stop-color="#FDE77F"/>
<stop offset="1" stop-color="#F99D40"/>
</linearGradient>
<linearGradient id="paint3_linear_1226_26869" x1="5.29561" y1="9.80943" x2="1.48871" y2="10.8577" gradientUnits="userSpaceOnUse">
<stop stop-color="#FCAF0C"/>
<stop offset="1" stop-color="#FCB50D" stop-opacity="0"/>
</linearGradient>
<linearGradient id="paint4_linear_1226_26869" x1="28.1102" y1="11.3397" x2="29.8114" y2="7.43187" gradientUnits="userSpaceOnUse">
<stop stop-color="#FFDD4D"/>
<stop offset="1" stop-color="#FEF4CB"/>
</linearGradient>
<linearGradient id="paint5_linear_1226_26869" x1="23.9276" y1="11.7096" x2="26.2401" y2="8.55706" gradientUnits="userSpaceOnUse">
<stop stop-color="#F97B04"/>
<stop offset="1" stop-color="#FEE43B"/>
</linearGradient>
<linearGradient id="paint6_linear_1226_26869" x1="26.5194" y1="9.18702" x2="22.9459" y2="12.4092" gradientUnits="userSpaceOnUse">
<stop stop-color="#FEF1AC"/>
<stop offset="1" stop-color="#FB7C06"/>
</linearGradient>
<linearGradient id="paint7_linear_1226_26869" x1="26.59" y1="9.18653" x2="25.8191" y2="10.2374" gradientUnits="userSpaceOnUse">
<stop stop-color="#FEF3B3"/>
<stop offset="1" stop-color="#FEE43B"/>
</linearGradient>
<linearGradient id="paint8_linear_1226_26869" x1="24.4184" y1="15.703" x2="5.99057" y2="31.6735" gradientUnits="userSpaceOnUse">
<stop stop-color="#FFBF26"/>
<stop offset="1" stop-color="#FF2872"/>
</linearGradient>
<linearGradient id="paint9_linear_1226_26869" x1="23.2976" y1="18.7161" x2="15.2411" y2="22.3579" gradientUnits="userSpaceOnUse">
<stop stop-color="#FFE171"/>
<stop offset="0.516562" stop-color="#FE9A15"/>
<stop offset="1" stop-color="#FF2086" stop-opacity="0.49"/>
</linearGradient>
<linearGradient id="paint10_linear_1226_26869" x1="30.3001" y1="18.0858" x2="5.78003" y2="29.8518" gradientUnits="userSpaceOnUse">
<stop stop-color="#FFBF26"/>
<stop offset="1" stop-color="#FF2872"/>
</linearGradient>
<linearGradient id="paint11_linear_1226_26869" x1="21.3078" y1="20.0943" x2="12.5755" y2="27.1223" gradientUnits="userSpaceOnUse">
<stop stop-color="#FFE171"/>
<stop offset="0.550196" stop-color="#FE9A15"/>
<stop offset="1" stop-color="#F92A4B" stop-opacity="0"/>
</linearGradient>
<linearGradient id="paint12_linear_1226_26869" x1="15.2425" y1="23.6227" x2="28.5578" y2="2.39499" gradientUnits="userSpaceOnUse">
<stop stop-color="#FFBF26"/>
<stop offset="1" stop-color="#FF2872"/>
</linearGradient>
<linearGradient id="paint13_linear_1226_26869" x1="19.4144" y1="21.6261" x2="10.2675" y2="27.1238" gradientUnits="userSpaceOnUse">
<stop stop-color="#FFE171"/>
<stop offset="0.550196" stop-color="#FE9A15"/>
<stop offset="1" stop-color="#F92A4B"/>
</linearGradient>
<clipPath id="clip0_1226_26869">
<path d="M0.222656 17.125C0.222656 12.1163 0.222656 9.61199 1.77865 8.056C3.33465 6.5 5.83898 6.5 10.8477 6.5H21.5977C26.6063 6.5 29.1107 6.5 30.6667 8.056C32.2227 9.61199 32.2227 12.1163 32.2227 17.125V27.875C32.2227 32.8837 32.2227 35.388 30.6667 36.944C29.1107 38.5 26.6063 38.5 21.5977 38.5H10.8477C5.83898 38.5 3.33465 38.5 1.77865 36.944C0.222656 35.388 0.222656 32.8837 0.222656 27.875V17.125Z" fill="white"/>
</clipPath>
</defs>
</svg>
