<svg width="24" height="24" viewBox="0 0 24 24" fill="none" xmlns="http://www.w3.org/2000/svg">
<path d="M7.76574 7.68832H11.5016V7.28955C11.5016 5.36926 13.0706 3.80005 14.9909 3.80005H19.477C19.7524 3.80005 19.9755 4.0234 19.9755 4.29875V19.2029H21.4786C22.1345 19.2029 22.1345 20.2 21.4786 20.2C15.1596 20.2 8.84055 20.2 2.52154 20.2C1.86587 20.2 1.86587 19.2029 2.52154 19.2029H4.02461V11.4292C4.02461 9.37064 5.70717 7.68832 7.76574 7.68832ZM16.0127 19.2029V17.1874H15.4642V19.2029H16.0127ZM14.467 19.2029V16.6887C14.467 16.4134 14.6903 16.1903 14.9657 16.1903H16.5114C16.7868 16.1903 17.0099 16.4134 17.0099 16.6887V19.2029H18.9783V4.79722H14.9909C13.6213 4.79722 12.4985 5.91997 12.4985 7.28955V19.2029H14.467ZM6.17999 13.448H7.57617C7.85129 13.448 8.07464 13.6711 8.07464 13.9465V15.4423C8.07464 15.7177 7.85129 15.9408 7.57617 15.9408H6.17999C5.90464 15.9408 5.68153 15.7177 5.68153 15.4423V13.9465C5.68153 13.6711 5.90464 13.448 6.17999 13.448ZM7.07747 14.4452H6.6787V14.9436H7.07747V14.4452ZM8.94719 13.448H10.3434C10.6185 13.448 10.8418 13.6711 10.8418 13.9465V15.4423C10.8418 15.7177 10.6185 15.9408 10.3434 15.9408H8.94719C8.67184 15.9408 8.44873 15.7177 8.44873 15.4423V13.9465C8.44873 13.6711 8.67184 13.448 8.94719 13.448ZM9.84467 14.4452H9.4459V14.9436H9.84467V14.4452ZM6.17999 10.3815H7.57617C7.85129 10.3815 8.07464 10.6048 8.07464 10.8802V12.3761C8.07464 12.6512 7.85129 12.8745 7.57617 12.8745H6.17999C5.90464 12.8745 5.68153 12.6512 5.68153 12.3761V10.8802C5.68153 10.6048 5.90464 10.3815 6.17999 10.3815ZM7.07747 11.3786H6.6787V11.8773H7.07747V11.3786ZM8.94719 10.3815H10.3434C10.6185 10.3815 10.8418 10.6048 10.8418 10.8802V12.3761C10.8418 12.6512 10.6185 12.8745 10.3434 12.8745H8.94719C8.67184 12.8745 8.44873 12.6512 8.44873 12.3761V10.8802C8.44873 10.6048 8.67184 10.3815 8.94719 10.3815ZM9.84467 11.3786H9.4459V11.8773H9.84467V11.3786ZM13.6194 8.38713C12.9637 8.38713 12.9637 7.38996 13.6194 7.38996H17.8575C18.5134 7.38996 18.5134 8.38713 17.8575 8.38713H13.6194ZM13.6194 13.8717C12.9637 13.8717 12.9637 12.8745 13.6194 12.8745H17.8575C18.5134 12.8745 18.5134 13.8717 17.8575 13.8717H13.6194ZM13.6194 11.1294C12.9637 11.1294 12.9637 10.1322 13.6194 10.1322H17.8575C18.5134 10.1322 18.5134 11.1294 17.8575 11.1294H13.6194ZM11.5016 8.68549H7.76574C6.25764 8.68549 5.02178 9.92135 5.02178 11.4292V19.2029H11.5016V8.68549Z" fill="#28BFFF"/>
</svg>
