<svg width="64" height="64" viewBox="0 0 64 64" fill="none" xmlns="http://www.w3.org/2000/svg">
<path d="M5 24V38V54V58H23V54V52V38V24H5Z" fill="#909090"/>
<path d="M41 16V25V38V39V52V54V55V59H59V55V54V53V39V25V16H41Z" fill="#909090"/>
<path d="M24 8H23V24V38V52V54V58H41V54V52V38V24V16V8H24Z" fill="#585858"/>
<path d="M59 54V61H50H41V54L48 52L50 54L52 52L59 54Z" fill="#FDD320"/>
<path d="M41 54V61H32H23V54V52L30 50L32 52L34 50L41 52V54Z" fill="#FDDC51"/>
<path d="M41 4V8H24H23V4H41Z" fill="#FDDC51"/>
<path d="M23 54V61H14H5V54L12 52L14 54L16 52L23 54Z" fill="#FDD320"/>
<path d="M54 45V47C54 48.0609 53.5786 49.0783 52.8284 49.8284C52.0783 50.5786 51.0609 51 50 51C48.9391 51 47.9217 50.5786 47.1716 49.8284C46.4214 49.0783 46 48.0609 46 47V45C46 43.9391 46.4214 42.9217 47.1716 42.1716C47.9217 41.4214 48.9391 41 50 41C51.0609 41 52.0783 41.4214 52.8284 42.1716C53.5786 42.9217 54 43.9391 54 45Z" fill="#FDD320"/>
<path d="M36 43V45C36 46.0609 35.5786 47.0783 34.8284 47.8284C34.0783 48.5786 33.0609 49 32 49C30.9391 49 29.9217 48.5786 29.1716 47.8284C28.4214 47.0783 28 46.0609 28 45V43C28 41.9391 28.4214 40.9217 29.1716 40.1716C29.9217 39.4214 30.9391 39 32 39C33.0609 39 34.0783 39.4214 34.8284 40.1716C35.5786 40.9217 36 41.9391 36 43Z" fill="#FDDC51"/>
<path d="M18 45V47C18 48.0609 17.5786 49.0783 16.8284 49.8284C16.0783 50.5786 15.0609 51 14 51C12.9391 51 11.9217 50.5786 11.1716 49.8284C10.4214 49.0783 10 48.0609 10 47V45C10 43.9391 10.4214 42.9217 11.1716 42.1716C11.9217 41.4214 12.9391 41 14 41C15.0609 41 16.0783 41.4214 16.8284 42.1716C17.5786 42.9217 18 43.9391 18 45Z" fill="#FDD320"/>
<path d="M28 23H26V25H28V23Z" fill="#020202"/>
<path d="M33 23H31V25H33V23Z" fill="#020202"/>
<path d="M38 23H36V25H38V23Z" fill="#020202"/>
<path d="M28 27H26V29H28V27Z" fill="#020202"/>
<path d="M33 27H31V29H33V27Z" fill="#020202"/>
<path d="M38 27H36V29H38V27Z" fill="#020202"/>
<path d="M28 31H26V33H28V31Z" fill="#020202"/>
<path d="M33 31H31V33H33V31Z" fill="#020202"/>
<path d="M38 31H36V33H38V31Z" fill="#020202"/>
<path d="M10 27H8V29H10V27Z" fill="#020202"/>
<path d="M15 27H13V29H15V27Z" fill="#020202"/>
<path d="M20 27H18V29H20V27Z" fill="#020202"/>
<path d="M10 31H8V33H10V31Z" fill="#020202"/>
<path d="M15 31H13V33H15V31Z" fill="#020202"/>
<path d="M20 31H18V33H20V31Z" fill="#020202"/>
<path d="M10 35H8V37H10V35Z" fill="#020202"/>
<path d="M15 35H13V37H15V35Z" fill="#020202"/>
<path d="M20 35H18V37H20V35Z" fill="#020202"/>
<path d="M46 27H44V29H46V27Z" fill="#020202"/>
<path d="M51 27H49V29H51V27Z" fill="#020202"/>
<path d="M56 27H54V29H56V27Z" fill="#020202"/>
<path d="M46 31H44V33H46V31Z" fill="#020202"/>
<path d="M51 31H49V33H51V31Z" fill="#020202"/>
<path d="M56 31H54V33H56V31Z" fill="#020202"/>
<path d="M46 19H44V21H46V19Z" fill="#020202"/>
<path d="M51 19H49V21H51V19Z" fill="#020202"/>
<path d="M56 19H54V21H56V19Z" fill="#020202"/>
<path d="M46 23H44V25H46V23Z" fill="#020202"/>
<path d="M51 23H49V25H51V23Z" fill="#020202"/>
<path d="M56 23H54V25H56V23Z" fill="#020202"/>
<path d="M46 35H44V37H46V35Z" fill="#020202"/>
<path d="M51 35H49V37H51V35Z" fill="#020202"/>
<path d="M56 35H54V37H56V35Z" fill="#020202"/>
<path d="M28 15H26V17H28V15Z" fill="#020202"/>
<path d="M33 15H31V17H33V15Z" fill="#020202"/>
<path d="M38 15H36V17H38V15Z" fill="#020202"/>
<path d="M28 11H26V13H28V11Z" fill="#020202"/>
<path d="M33 11H31V13H33V11Z" fill="#020202"/>
<path d="M38 11H36V13H38V11Z" fill="#020202"/>
<path d="M28 19H26V21H28V19Z" fill="#020202"/>
<path d="M33 19H31V21H33V19Z" fill="#020202"/>
<path d="M38 19H36V21H38V19Z" fill="#020202"/>
<path d="M16 52L14 54V61H23V54L16 52Z" fill="#FDD320"/>
<path d="M34 50L32 52V61H41V54V52L34 50Z" fill="#FDDC51"/>
<path d="M52 52L50 54V61H59V54L52 52Z" fill="#FDD320"/>
</svg>
