<svg width="252" height="124" viewBox="0 0 252 124" fill="none" xmlns="http://www.w3.org/2000/svg">
<g filter="url(#filter0_d_35_27504)">
<rect x="34" y="25.9248" width="184.44" height="56" rx="18.4954" fill="url(#paint0_linear_35_27504)" fill-opacity="0.5" shape-rendering="crispEdges"/>
<rect x="33.7431" y="25.6679" width="184.954" height="56.5138" rx="18.7523" stroke="url(#paint1_angular_35_27504)" stroke-width="0.513762" shape-rendering="crispEdges"/>
</g>
<g filter="url(#filter1_bd_35_27504)">
<path d="M94.314 47.8328C93.8287 47.1741 93.196 46.6975 92.416 46.4028C91.636 46.0908 90.8733 45.9348 90.128 45.9348C89.1747 45.9348 88.308 46.1081 87.528 46.4548C86.748 46.8015 86.072 47.2781 85.5 47.8848C84.9453 48.4915 84.512 49.2021 84.2 50.0168C83.9053 50.8315 83.758 51.7155 83.758 52.6688C83.758 53.6741 83.9053 54.5928 84.2 55.4248C84.4947 56.2568 84.9107 56.9761 85.448 57.5828C86.0027 58.1721 86.6613 58.6315 87.424 58.9608C88.1867 59.2901 89.0447 59.4548 89.998 59.4548C90.986 59.4548 91.8613 59.2641 92.624 58.8828C93.3867 58.4841 94.002 57.9641 94.47 57.3228L97.096 59.1688C96.2813 60.1915 95.2847 60.9888 94.106 61.5608C92.9273 62.1155 91.5493 62.3928 89.972 62.3928C88.5333 62.3928 87.2073 62.1588 85.994 61.6908C84.798 61.2055 83.7667 60.5381 82.9 59.6888C82.0333 58.8221 81.3573 57.7995 80.872 56.6208C80.3867 55.4248 80.144 54.1075 80.144 52.6688C80.144 51.1955 80.3953 49.8695 80.898 48.6908C81.418 47.4948 82.12 46.4808 83.004 45.6488C83.9053 44.8168 84.9627 44.1755 86.176 43.7248C87.3893 43.2741 88.7067 43.0488 90.128 43.0488C90.7173 43.0488 91.3327 43.1095 91.974 43.2308C92.6153 43.3348 93.2307 43.5081 93.82 43.7508C94.4093 43.9761 94.964 44.2621 95.484 44.6088C96.004 44.9555 96.446 45.3715 96.81 45.8568L94.314 47.8328ZM97.9428 55.6328C97.9428 54.6448 98.1162 53.7521 98.4628 52.9548C98.8268 52.1401 99.3122 51.4468 99.9188 50.8748C100.525 50.3028 101.245 49.8608 102.077 49.5488C102.909 49.2368 103.793 49.0808 104.729 49.0808C105.665 49.0808 106.549 49.2368 107.381 49.5488C108.213 49.8608 108.932 50.3028 109.539 50.8748C110.145 51.4468 110.622 52.1401 110.969 52.9548C111.333 53.7521 111.515 54.6448 111.515 55.6328C111.515 56.6208 111.333 57.5221 110.969 58.3368C110.622 59.1515 110.145 59.8535 109.539 60.4428C108.932 61.0148 108.213 61.4655 107.381 61.7948C106.549 62.1241 105.665 62.2888 104.729 62.2888C103.793 62.2888 102.909 62.1241 102.077 61.7948C101.245 61.4655 100.525 61.0148 99.9188 60.4428C99.3122 59.8535 98.8268 59.1515 98.4628 58.3368C98.1162 57.5221 97.9428 56.6208 97.9428 55.6328ZM101.115 55.6328C101.115 56.1181 101.184 56.6035 101.323 57.0888C101.479 57.5741 101.704 58.0075 101.999 58.3888C102.293 58.7701 102.666 59.0821 103.117 59.3248C103.567 59.5675 104.105 59.6888 104.729 59.6888C105.353 59.6888 105.89 59.5675 106.341 59.3248C106.791 59.0821 107.164 58.7701 107.459 58.3888C107.753 58.0075 107.97 57.5741 108.109 57.0888C108.265 56.6035 108.343 56.1181 108.343 55.6328C108.343 55.1475 108.265 54.6708 108.109 54.2028C107.97 53.7175 107.753 53.2841 107.459 52.9028C107.164 52.5215 106.791 52.2181 106.341 51.9928C105.89 51.7501 105.353 51.6288 104.729 51.6288C104.105 51.6288 103.567 51.7501 103.117 51.9928C102.666 52.2181 102.293 52.5215 101.999 52.9028C101.704 53.2841 101.479 53.7175 101.323 54.2028C101.184 54.6708 101.115 55.1475 101.115 55.6328ZM114.54 49.4448H117.504V51.4468H117.556C117.833 50.8228 118.31 50.2768 118.986 49.8088C119.679 49.3235 120.494 49.0808 121.43 49.0808C122.245 49.0808 122.938 49.2281 123.51 49.5228C124.099 49.8001 124.576 50.1728 124.94 50.6408C125.321 51.1088 125.599 51.6461 125.772 52.2528C125.945 52.8595 126.032 53.4835 126.032 54.1248V61.9248H122.912V55.0088C122.912 54.6448 122.886 54.2635 122.834 53.8648C122.782 53.4661 122.669 53.1108 122.496 52.7988C122.323 52.4695 122.08 52.2008 121.768 51.9928C121.473 51.7848 121.075 51.6808 120.572 51.6808C120.069 51.6808 119.636 51.7848 119.272 51.9928C118.908 52.1835 118.605 52.4348 118.362 52.7468C118.137 53.0588 117.963 53.4228 117.842 53.8388C117.721 54.2375 117.66 54.6448 117.66 55.0608V61.9248H114.54V49.4448ZM127.879 51.9408V49.4448H130.063V45.8308H133.131V49.4448H136.251V51.9408H133.131V57.7388C133.131 58.2935 133.226 58.7528 133.417 59.1168C133.625 59.4808 134.075 59.6628 134.769 59.6628C134.977 59.6628 135.202 59.6455 135.445 59.6108C135.687 59.5588 135.904 59.4895 136.095 59.4028L136.199 61.8468C135.921 61.9508 135.592 62.0288 135.211 62.0808C134.829 62.1501 134.465 62.1848 134.119 62.1848C133.287 62.1848 132.611 62.0721 132.091 61.8468C131.571 61.6041 131.155 61.2835 130.843 60.8848C130.548 60.4688 130.34 60.0008 130.219 59.4808C130.115 58.9435 130.063 58.3715 130.063 57.7648V51.9408H127.879ZM146.257 60.3388H146.179C145.867 60.8935 145.364 61.3528 144.671 61.7168C143.977 62.0635 143.189 62.2368 142.305 62.2368C141.802 62.2368 141.273 62.1675 140.719 62.0288C140.181 61.9075 139.679 61.6995 139.211 61.4048C138.76 61.0928 138.379 60.6941 138.067 60.2088C137.772 59.7061 137.625 59.0908 137.625 58.3628C137.625 57.4268 137.885 56.6815 138.405 56.1268C138.942 55.5721 139.627 55.1475 140.459 54.8528C141.291 54.5581 142.209 54.3675 143.215 54.2808C144.237 54.1768 145.234 54.1248 146.205 54.1248V53.8128C146.205 53.0328 145.919 52.4608 145.347 52.0968C144.792 51.7155 144.125 51.5248 143.345 51.5248C142.686 51.5248 142.053 51.6635 141.447 51.9408C140.84 52.2181 140.337 52.5561 139.939 52.9548L138.327 51.0568C139.037 50.3981 139.852 49.9041 140.771 49.5748C141.707 49.2455 142.651 49.0808 143.605 49.0808C144.714 49.0808 145.624 49.2368 146.335 49.5488C147.063 49.8608 147.635 50.2681 148.051 50.7708C148.467 51.2735 148.753 51.8368 148.909 52.4608C149.082 53.0848 149.169 53.7088 149.169 54.3328V61.9248H146.257V60.3388ZM146.205 56.2308H145.503C145 56.2308 144.471 56.2568 143.917 56.3088C143.362 56.3435 142.851 56.4388 142.383 56.5948C141.915 56.7335 141.525 56.9415 141.213 57.2188C140.901 57.4788 140.745 57.8428 140.745 58.3108C140.745 58.6055 140.805 58.8568 140.927 59.0648C141.065 59.2555 141.239 59.4115 141.447 59.5328C141.655 59.6541 141.889 59.7408 142.149 59.7928C142.409 59.8448 142.669 59.8708 142.929 59.8708C144.003 59.8708 144.818 59.5848 145.373 59.0128C145.927 58.4408 146.205 57.6608 146.205 56.6728V56.2308ZM161.332 52.9028C161.089 52.5561 160.725 52.2701 160.24 52.0448C159.754 51.8021 159.26 51.6808 158.758 51.6808C158.186 51.6808 157.683 51.8021 157.25 52.0448C156.816 52.2701 156.452 52.5735 156.158 52.9548C155.88 53.3361 155.672 53.7695 155.534 54.2548C155.395 54.7228 155.326 55.1995 155.326 55.6848C155.326 56.1701 155.395 56.6555 155.534 57.1408C155.69 57.6088 155.915 58.0335 156.21 58.4148C156.504 58.7961 156.868 59.1081 157.302 59.3508C157.752 59.5761 158.272 59.6888 158.862 59.6888C159.347 59.6888 159.832 59.5935 160.318 59.4028C160.803 59.2121 161.193 58.9348 161.488 58.5708L163.438 60.5468C162.918 61.1015 162.25 61.5348 161.436 61.8468C160.638 62.1415 159.772 62.2888 158.836 62.2888C157.917 62.2888 157.042 62.1415 156.21 61.8468C155.395 61.5521 154.676 61.1188 154.052 60.5468C153.445 59.9748 152.96 59.2815 152.596 58.4668C152.249 57.6521 152.076 56.7248 152.076 55.6848C152.076 54.6795 152.249 53.7695 152.596 52.9548C152.96 52.1401 153.445 51.4468 154.052 50.8748C154.658 50.3028 155.36 49.8608 156.158 49.5488C156.972 49.2368 157.839 49.0808 158.758 49.0808C159.676 49.0808 160.56 49.2541 161.41 49.6008C162.276 49.9475 162.961 50.4241 163.464 51.0308L161.332 52.9028ZM163.705 51.9408V49.4448H165.889V45.8308H168.957V49.4448H172.077V51.9408H168.957V57.7388C168.957 58.2935 169.052 58.7528 169.243 59.1168C169.451 59.4808 169.902 59.6628 170.595 59.6628C170.803 59.6628 171.028 59.6455 171.271 59.6108C171.514 59.5588 171.73 59.4895 171.921 59.4028L172.025 61.8468C171.748 61.9508 171.418 62.0288 171.037 62.0808C170.656 62.1501 170.292 62.1848 169.945 62.1848C169.113 62.1848 168.437 62.0721 167.917 61.8468C167.397 61.6041 166.981 61.2835 166.669 60.8848C166.374 60.4688 166.166 60.0008 166.045 59.4808C165.941 58.9435 165.889 58.3715 165.889 57.7648V51.9408H163.705Z" fill="white"/>
</g>
<defs>
<filter id="filter0_d_35_27504" x="0.605591" y="0.75058" width="251.229" height="122.789" filterUnits="userSpaceOnUse" color-interpolation-filters="sRGB">
<feFlood flood-opacity="0" result="BackgroundImageFix"/>
<feColorMatrix in="SourceAlpha" type="matrix" values="0 0 0 0 0 0 0 0 0 0 0 0 0 0 0 0 0 0 127 0" result="hardAlpha"/>
<feOffset dy="8.22018"/>
<feGaussianBlur stdDeviation="16.4404"/>
<feComposite in2="hardAlpha" operator="out"/>
<feColorMatrix type="matrix" values="0 0 0 0 1 0 0 0 0 0.866667 0 0 0 0 0.0352941 0 0 0 0.12 0"/>
<feBlend mode="normal" in2="BackgroundImageFix" result="effect1_dropShadow_35_27504"/>
<feBlend mode="normal" in="SourceGraphic" in2="effect1_dropShadow_35_27504" result="shape"/>
</filter>
<filter id="filter1_bd_35_27504" x="66.2174" y="35.7828" width="119.786" height="47.197" filterUnits="userSpaceOnUse" color-interpolation-filters="sRGB">
<feFlood flood-opacity="0" result="BackgroundImageFix"/>
<feGaussianBlur in="BackgroundImageFix" stdDeviation="2.72477"/>
<feComposite in2="SourceAlpha" operator="in" result="effect1_backgroundBlur_35_27504"/>
<feColorMatrix in="SourceAlpha" type="matrix" values="0 0 0 0 0 0 0 0 0 0 0 0 0 0 0 0 0 0 127 0" result="hardAlpha"/>
<feOffset dy="6.66055"/>
<feGaussianBlur stdDeviation="6.9633"/>
<feComposite in2="hardAlpha" operator="out"/>
<feColorMatrix type="matrix" values="0 0 0 0 1 0 0 0 0 1 0 0 0 0 1 0 0 0 0.13 0"/>
<feBlend mode="normal" in2="effect1_backgroundBlur_35_27504" result="effect2_dropShadow_35_27504"/>
<feBlend mode="normal" in="SourceGraphic" in2="effect2_dropShadow_35_27504" result="shape"/>
</filter>
<linearGradient id="paint0_linear_35_27504" x1="40.9358" y1="85.5211" x2="213.817" y2="36.9707" gradientUnits="userSpaceOnUse">
<stop stop-color="#6801FE" stop-opacity="0.06"/>
<stop offset="1" stop-color="#D9D9D9" stop-opacity="0.06"/>
</linearGradient>
<radialGradient id="paint1_angular_35_27504" cx="0" cy="0" r="1" gradientUnits="userSpaceOnUse" gradientTransform="translate(126.22 53.9248) rotate(89.2748) scale(20.2952 66.8438)">
<stop offset="0.144806" stop-color="#FFDD09"/>
<stop offset="0.347377" stop-color="white" stop-opacity="0.04"/>
<stop offset="0.653019" stop-color="white"/>
<stop offset="0.847291" stop-color="white" stop-opacity="0.07"/>
</radialGradient>
</defs>
</svg>
