<svg width="21" height="17" viewBox="0 0 21 17" fill="none" xmlns="http://www.w3.org/2000/svg">
<path d="M12 1H8C4.22876 1 2.34315 1 1.17157 2.17157C0.328032 3.01511 0.0918467 4.22882 0.0257164 6.25H19.9743C19.9082 4.22882 19.672 3.01511 18.8284 2.17157C17.6569 1 15.7712 1 12 1Z" fill="#E2E2E4"/>
<path d="M8 17H12C15.7712 17 17.6569 17 18.8284 15.8284C20 14.6569 20 12.7712 20 9C20 8.55807 20 8.14203 19.9981 7.75H0.00188529C0 8.14203 0 8.55807 0 9C0 12.7712 0 14.6569 1.17157 15.8284C2.34315 17 4.22876 17 8 17Z" fill="#E2E2E4"/>
<path fill-rule="evenodd" clip-rule="evenodd" d="M3.25 13C3.25 12.5858 3.58579 12.25 4 12.25H8C8.41421 12.25 8.75 12.5858 8.75 13C8.75 13.4142 8.41421 13.75 8 13.75H4C3.58579 13.75 3.25 13.4142 3.25 13Z" fill="#E2E2E4"/>
<path fill-rule="evenodd" clip-rule="evenodd" d="M9.75 13C9.75 12.5858 10.0858 12.25 10.5 12.25H12C12.4142 12.25 12.75 12.5858 12.75 13C12.75 13.4142 12.4142 13.75 12 13.75H10.5C10.0858 13.75 9.75 13.4142 9.75 13Z" fill="#E2E2E4"/>
<circle cx="16.5" cy="4.5" r="4.5" fill="#6D6E78"/>
<path d="M13.62 6C13.572 6 13.5347 5.988 13.508 5.964C13.4813 5.93733 13.468 5.90133 13.468 5.856C13.468 5.81067 13.4813 5.77733 13.508 5.756C13.5347 5.732 13.572 5.72 13.62 5.72H14.14V3.452H14.312L13.732 3.836C13.6973 3.85467 13.664 3.86267 13.632 3.86C13.6027 3.85733 13.5773 3.84667 13.556 3.828C13.5373 3.80667 13.524 3.78267 13.516 3.756C13.508 3.72667 13.5093 3.69733 13.52 3.668C13.5307 3.636 13.5533 3.60933 13.588 3.588L14.14 3.224C14.1747 3.20267 14.208 3.18533 14.24 3.172C14.272 3.15867 14.304 3.152 14.336 3.152C14.3733 3.152 14.404 3.164 14.428 3.188C14.4547 3.20933 14.468 3.244 14.468 3.292V5.72H14.948C14.996 5.72 15.0333 5.732 15.06 5.756C15.0867 5.77733 15.1 5.81067 15.1 5.856C15.1 5.904 15.0867 5.94 15.06 5.964C15.0333 5.988 14.996 6 14.948 6H13.62ZM16.5664 6.036C16.4118 6.036 16.2558 6.01333 16.0984 5.968C15.9438 5.92267 15.8091 5.856 15.6944 5.768C15.6598 5.744 15.6371 5.71733 15.6264 5.688C15.6158 5.656 15.6131 5.62667 15.6184 5.6C15.6264 5.57067 15.6411 5.54667 15.6624 5.528C15.6838 5.50667 15.7091 5.49467 15.7384 5.492C15.7704 5.48933 15.8051 5.5 15.8424 5.524C15.9598 5.60133 16.0771 5.65733 16.1944 5.692C16.3118 5.72667 16.4331 5.744 16.5584 5.744C16.6944 5.744 16.8091 5.724 16.9024 5.684C16.9958 5.644 17.0664 5.58533 17.1144 5.508C17.1624 5.428 17.1864 5.33067 17.1864 5.216C17.1864 5.05067 17.1318 4.92533 17.0224 4.84C16.9131 4.75467 16.7544 4.712 16.5464 4.712H16.2624C16.2118 4.712 16.1731 4.7 16.1464 4.676C16.1198 4.64933 16.1064 4.61333 16.1064 4.568C16.1064 4.52533 16.1198 4.492 16.1464 4.468C16.1731 4.44133 16.2118 4.428 16.2624 4.428H16.5184C16.6411 4.428 16.7451 4.40667 16.8304 4.364C16.9184 4.32133 16.9864 4.26133 17.0344 4.184C17.0824 4.104 17.1064 4.008 17.1064 3.896C17.1064 3.74667 17.0584 3.63333 16.9624 3.556C16.8664 3.476 16.7278 3.436 16.5464 3.436C16.4264 3.436 16.3131 3.45333 16.2064 3.488C16.0998 3.52267 15.9944 3.58133 15.8904 3.664C15.8584 3.688 15.8264 3.7 15.7944 3.7C15.7651 3.69733 15.7398 3.688 15.7184 3.672C15.6998 3.65333 15.6851 3.62933 15.6744 3.6C15.6664 3.57067 15.6678 3.54133 15.6784 3.512C15.6891 3.48 15.7118 3.45067 15.7464 3.424C15.8531 3.33333 15.9784 3.264 16.1224 3.216C16.2664 3.168 16.4144 3.144 16.5664 3.144C16.7478 3.144 16.9024 3.17333 17.0304 3.232C17.1611 3.288 17.2611 3.37067 17.3304 3.48C17.3998 3.58667 17.4344 3.716 17.4344 3.868C17.4344 3.98267 17.4118 4.088 17.3664 4.184C17.3238 4.27733 17.2624 4.35733 17.1824 4.424C17.1051 4.49067 17.0104 4.53867 16.8984 4.568V4.524C17.0931 4.556 17.2438 4.636 17.3504 4.764C17.4598 4.88933 17.5144 5.048 17.5144 5.24C17.5144 5.40267 17.4758 5.544 17.3984 5.664C17.3238 5.78133 17.2158 5.87333 17.0744 5.94C16.9331 6.004 16.7638 6.036 16.5664 6.036ZM19.0569 6.036C18.9049 6.036 18.7529 6.01333 18.6009 5.968C18.4515 5.92267 18.3155 5.852 18.1929 5.756C18.1609 5.73467 18.1395 5.70933 18.1289 5.68C18.1182 5.65067 18.1169 5.62133 18.1249 5.592C18.1329 5.56267 18.1475 5.53867 18.1689 5.52C18.1902 5.49867 18.2155 5.48667 18.2449 5.484C18.2769 5.48133 18.3102 5.492 18.3449 5.516C18.4542 5.59333 18.5675 5.65067 18.6849 5.688C18.8022 5.72533 18.9249 5.744 19.0529 5.744C19.1835 5.744 19.2955 5.72 19.3889 5.672C19.4849 5.62133 19.5569 5.552 19.6049 5.464C19.6555 5.37333 19.6809 5.268 19.6809 5.148C19.6809 4.964 19.6275 4.81333 19.5209 4.696C19.4142 4.57867 19.2675 4.52 19.0809 4.52C18.9662 4.52 18.8609 4.54133 18.7649 4.584C18.6689 4.62667 18.5809 4.69467 18.5009 4.788C18.4822 4.80933 18.4595 4.828 18.4329 4.844C18.4089 4.85733 18.3809 4.864 18.3489 4.864C18.3035 4.864 18.2675 4.852 18.2409 4.828C18.2169 4.80133 18.2049 4.76667 18.2049 4.724V3.332C18.2049 3.28133 18.2182 3.244 18.2449 3.22C18.2715 3.19333 18.3089 3.18 18.3569 3.18H19.7169C19.7675 3.18 19.8049 3.192 19.8289 3.216C19.8555 3.24 19.8689 3.27467 19.8689 3.32C19.8689 3.36533 19.8555 3.4 19.8289 3.424C19.8049 3.448 19.7675 3.46 19.7169 3.46H18.5289V4.584H18.4409C18.5102 4.472 18.6062 4.38667 18.7289 4.328C18.8515 4.26667 18.9889 4.236 19.1409 4.236C19.3195 4.236 19.4729 4.27333 19.6009 4.348C19.7315 4.42267 19.8315 4.528 19.9009 4.664C19.9729 4.79733 20.0089 4.95333 20.0089 5.132C20.0089 5.308 19.9702 5.464 19.8929 5.6C19.8155 5.736 19.7062 5.84267 19.5649 5.92C19.4235 5.99733 19.2542 6.036 19.0569 6.036Z" fill="white"/>
</svg>
