<svg width="24" height="24" viewBox="0 0 24 24" fill="none" xmlns="http://www.w3.org/2000/svg">
<path d="M3.25 12C3.25 8.70017 3.25 7.05025 4.27513 6.02513C5.30025 5 6.95017 5 10.25 5H13.75C17.0498 5 18.6997 5 19.7249 6.02513C20.75 7.05025 20.75 8.70017 20.75 12C20.75 15.2998 20.75 16.9497 19.7249 17.9749C18.6997 19 17.0498 19 13.75 19H10.25C6.95017 19 5.30025 19 4.27513 17.9749C3.25 16.9497 3.25 15.2998 3.25 12Z" stroke="#FF9314" stroke-width="1.3125"/>
<path d="M6.75 8.5L8.63903 10.0742C10.2461 11.4134 11.0496 12.083 12 12.083C12.9504 12.083 13.7539 11.4134 15.361 10.0742L17.25 8.5" stroke="#FF9314" stroke-width="1.3125" stroke-linecap="round"/>
</svg>
