<svg width="32" height="32" viewBox="0 0 32 32" fill="none" xmlns="http://www.w3.org/2000/svg">
<path d="M13.2978 19.7346L12.3898 23.7209C12.3511 23.911 12.2685 24.0606 12.1418 24.1697C12.0151 24.2788 11.8604 24.3333 11.6778 24.3333C11.4351 24.3333 11.2364 24.2264 11.0818 24.0127C10.9271 23.799 10.8831 23.5639 10.9498 23.3075L11.7578 19.7346H8.79369C8.53368 19.7346 8.32467 19.6248 8.16667 19.4052C8.00867 19.1856 7.96301 18.938 8.02967 18.6624C8.075 18.4605 8.168 18.3013 8.30867 18.1848C8.44933 18.0684 8.61101 18.0102 8.79369 18.0102H12.1478L13.2079 13.3231H10.2437C9.98373 13.3231 9.77473 13.2133 9.61673 12.9937C9.45873 12.7741 9.41306 12.5265 9.47973 12.2509C9.52506 12.0489 9.61805 11.8897 9.75872 11.7733C9.89939 11.6569 10.0611 11.5987 10.2437 11.5987H13.5979L14.5059 7.6124C14.5446 7.42226 14.6272 7.27266 14.7539 7.1636C14.8806 7.05453 15.0352 7 15.2179 7C15.4606 7 15.6593 7.10685 15.8139 7.32056C15.9686 7.53428 16.0126 7.76936 15.9459 8.02582L15.1379 11.5987H19.4381L20.3461 7.6124C20.3848 7.42226 20.4675 7.27266 20.5941 7.1636C20.7208 7.05453 20.8755 7 21.0581 7C21.3008 7 21.4995 7.10685 21.6541 7.32056C21.8088 7.53428 21.8528 7.76936 21.7861 8.02582L20.9781 11.5987H23.9422C24.2022 11.5987 24.4112 11.7085 24.5692 11.9281C24.7272 12.1477 24.7729 12.3953 24.7062 12.6709C24.6609 12.8728 24.5679 13.032 24.4273 13.1485C24.2866 13.2649 24.1249 13.3231 23.9422 13.3231H20.5881L19.5281 18.0102H22.4922C22.7522 18.0102 22.9612 18.12 23.1192 18.3396C23.2772 18.5592 23.3229 18.8068 23.2562 19.0824C23.2109 19.2844 23.1179 19.4436 22.9772 19.56C22.8365 19.6764 22.6749 19.7346 22.4922 19.7346H19.138L18.23 23.7209C18.1913 23.911 18.1087 24.0606 17.982 24.1697C17.8553 24.2788 17.7007 24.3333 17.518 24.3333C17.2753 24.3333 17.0767 24.2264 16.922 24.0127C16.7673 23.799 16.7233 23.5639 16.79 23.3075L17.598 19.7346H13.2978ZM13.6878 18.0102H17.988L19.0481 13.3231H14.7479L13.6878 18.0102Z" fill="#D6D5D5"/>
</svg>
