<svg width="88" height="88" viewBox="0 0 88 88" fill="none" xmlns="http://www.w3.org/2000/svg">
<g clip-path="url(#clip0_18817_1796)">
<mask id="path-2-inside-1_18817_1796" fill="white">
<path d="M0.8125 0.5625H87.4375V87.1875H0.8125V0.5625Z"/>
</mask>
<path d="M0.8125 0.5625H87.4375V87.1875H0.8125V0.5625Z" fill="url(#paint0_linear_18817_1796)"/>
<path d="M0.8125 1.01056H87.4375V0.11444H0.8125V1.01056Z" fill="url(#paint1_linear_18817_1796)" mask="url(#path-2-inside-1_18817_1796)"/>
<g filter="url(#filter0_f_18817_1796)">
<circle cx="8.5768" cy="10.1207" r="6.87026" fill="url(#paint2_linear_18817_1796)"/>
</g>
<path d="M76.9025 8.30845C68.542 3.69393 61.2265 5.77834 43.759 1.75881C41.0816 1.14269 37.0432 0.827638 32.9051 0.679119L16.8857 0.713377C16.8857 0.713377 25.0741 0.398067 32.9051 0.679119L87.4377 0.5625V26.6177C87.4377 26.6177 85.263 12.923 76.9025 8.30845Z" fill="url(#paint3_linear_18817_1796)"/>
<g filter="url(#filter1_f_18817_1796)">
<ellipse cx="68.964" cy="12.9588" rx="5.49913" ry="5.50084" fill="url(#paint4_linear_18817_1796)"/>
<path d="M74.4252 12.9588C74.4252 15.9759 71.9801 18.4217 68.964 18.4217C65.9479 18.4217 63.5028 15.9759 63.5028 12.9588C63.5028 9.94177 65.9479 7.49596 68.964 7.49596C71.9801 7.49596 74.4252 9.94177 74.4252 12.9588Z" stroke="url(#paint5_linear_18817_1796)" stroke-width="0.0758976"/>
</g>
<g filter="url(#filter2_d_18817_1796)">
<ellipse cx="69.3448" cy="12.577" rx="5.49913" ry="5.50084" fill="url(#paint6_linear_18817_1796)"/>
</g>
<g filter="url(#filter3_d_18817_1796)">
<ellipse cx="44.1249" cy="46.9068" rx="33.7533" ry="33.7638" fill="url(#paint7_linear_18817_1796)"/>
<path d="M77.4987 46.9068C77.4987 65.3446 62.5566 80.2911 44.1249 80.2911C25.6931 80.2911 10.7511 65.3446 10.7511 46.9068C10.7511 28.4691 25.6931 13.5226 44.1249 13.5226C62.5566 13.5226 77.4987 28.4691 77.4987 46.9068Z" stroke="url(#paint8_linear_18817_1796)" stroke-width="0.758976"/>
</g>
<g filter="url(#filter4_d_18817_1796)">
<ellipse cx="44.1241" cy="46.909" rx="24.272" ry="24.2796" fill="url(#paint9_linear_18817_1796)"/>
<path d="M68.0166 46.909C68.0166 60.1087 57.3195 70.809 44.1241 70.809C30.9287 70.809 20.2315 60.1087 20.2315 46.909C20.2315 33.7092 30.9287 23.0089 44.1241 23.0089C57.3195 23.0089 68.0166 33.7092 68.0166 46.909Z" stroke="url(#paint10_linear_18817_1796)" stroke-width="0.758976"/>
</g>
<g filter="url(#filter5_di_18817_1796)">
<ellipse cx="44.695" cy="47.0964" rx="14.2219" ry="14.2263" fill="url(#paint11_linear_18817_1796)"/>
<path d="M58.5374 47.0964C58.5374 54.7439 52.3399 60.9432 44.695 60.9432C37.0502 60.9432 30.8526 54.7439 30.8526 47.0964C30.8526 39.4489 37.0502 33.2496 44.695 33.2496C52.3399 33.2496 58.5374 39.4489 58.5374 47.0964Z" stroke="url(#paint12_linear_18817_1796)" stroke-width="0.758976"/>
</g>
</g>
<defs>
<filter id="filter0_f_18817_1796" x="1.40784" y="2.95178" width="14.3381" height="14.3381" filterUnits="userSpaceOnUse" color-interpolation-filters="sRGB">
<feFlood flood-opacity="0" result="BackgroundImageFix"/>
<feBlend mode="normal" in="SourceGraphic" in2="BackgroundImageFix" result="shape"/>
<feGaussianBlur stdDeviation="0.149353" result="effect1_foregroundBlur_18817_1796"/>
</filter>
<filter id="filter1_f_18817_1796" x="62.3264" y="6.31954" width="13.275" height="13.2784" filterUnits="userSpaceOnUse" color-interpolation-filters="sRGB">
<feFlood flood-opacity="0" result="BackgroundImageFix"/>
<feBlend mode="normal" in="SourceGraphic" in2="BackgroundImageFix" result="shape"/>
<feGaussianBlur stdDeviation="0.569232" result="effect1_foregroundBlur_18817_1796"/>
</filter>
<filter id="filter2_d_18817_1796" x="55.497" y="6.69668" width="19.3468" height="19.3502" filterUnits="userSpaceOnUse" color-interpolation-filters="sRGB">
<feFlood flood-opacity="0" result="BackgroundImageFix"/>
<feColorMatrix in="SourceAlpha" type="matrix" values="0 0 0 0 0 0 0 0 0 0 0 0 0 0 0 0 0 0 127 0" result="hardAlpha"/>
<feOffset dx="-4.17437" dy="3.79488"/>
<feGaussianBlur stdDeviation="2.08718"/>
<feComposite in2="hardAlpha" operator="out"/>
<feColorMatrix type="matrix" values="0 0 0 0 0.980392 0 0 0 0 0.498039 0 0 0 0 0.0117647 0 0 0 0.79 0"/>
<feBlend mode="normal" in2="BackgroundImageFix" result="effect1_dropShadow_18817_1796"/>
<feBlend mode="normal" in="SourceGraphic" in2="effect1_dropShadow_18817_1796" result="shape"/>
</filter>
<filter id="filter3_d_18817_1796" x="-5.18743" y="11.6251" width="90.2756" height="90.2966" filterUnits="userSpaceOnUse" color-interpolation-filters="sRGB">
<feFlood flood-opacity="0" result="BackgroundImageFix"/>
<feColorMatrix in="SourceAlpha" type="matrix" values="0 0 0 0 0 0 0 0 0 0 0 0 0 0 0 0 0 0 127 0" result="hardAlpha"/>
<feOffset dx="-4.17437" dy="9.86669"/>
<feGaussianBlur stdDeviation="5.69232"/>
<feComposite in2="hardAlpha" operator="out"/>
<feColorMatrix type="matrix" values="0 0 0 0 0.956863 0 0 0 0 0.419608 0 0 0 0 0.0862745 0 0 0 0.82 0"/>
<feBlend mode="normal" in2="BackgroundImageFix" result="effect1_dropShadow_18817_1796"/>
<feBlend mode="normal" in="SourceGraphic" in2="effect1_dropShadow_18817_1796" result="shape"/>
</filter>
<filter id="filter4_d_18817_1796" x="13.0213" y="19.973" width="56.8927" height="56.9078" filterUnits="userSpaceOnUse" color-interpolation-filters="sRGB">
<feFlood flood-opacity="0" result="BackgroundImageFix"/>
<feColorMatrix in="SourceAlpha" type="matrix" values="0 0 0 0 0 0 0 0 0 0 0 0 0 0 0 0 0 0 127 0" result="hardAlpha"/>
<feOffset dx="-2.65642" dy="1.51795"/>
<feGaussianBlur stdDeviation="2.08718"/>
<feComposite in2="hardAlpha" operator="out"/>
<feColorMatrix type="matrix" values="0 0 0 0 0.968627 0 0 0 0 0.0470588 0 0 0 0 0.309804 0 0 0 1 0"/>
<feBlend mode="normal" in2="BackgroundImageFix" result="effect1_dropShadow_18817_1796"/>
<feBlend mode="normal" in="SourceGraphic" in2="effect1_dropShadow_18817_1796" result="shape"/>
</filter>
<filter id="filter5_di_18817_1796" x="24.7808" y="32.8701" width="35.2746" height="37.9398" filterUnits="userSpaceOnUse" color-interpolation-filters="sRGB">
<feFlood flood-opacity="0" result="BackgroundImageFix"/>
<feColorMatrix in="SourceAlpha" type="matrix" values="0 0 0 0 0 0 0 0 0 0 0 0 0 0 0 0 0 0 127 0" result="hardAlpha"/>
<feOffset dx="-2.27693" dy="3.41539"/>
<feGaussianBlur stdDeviation="1.7077"/>
<feComposite in2="hardAlpha" operator="out"/>
<feColorMatrix type="matrix" values="0 0 0 0 0.968627 0 0 0 0 0.113725 0 0 0 0 0.270588 0 0 0 1 0"/>
<feBlend mode="normal" in2="BackgroundImageFix" result="effect1_dropShadow_18817_1796"/>
<feBlend mode="normal" in="SourceGraphic" in2="effect1_dropShadow_18817_1796" result="shape"/>
<feColorMatrix in="SourceAlpha" type="matrix" values="0 0 0 0 0 0 0 0 0 0 0 0 0 0 0 0 0 0 127 0" result="hardAlpha"/>
<feOffset dx="-2.65642" dy="9.4872"/>
<feGaussianBlur stdDeviation="6.64104"/>
<feComposite in2="hardAlpha" operator="arithmetic" k2="-1" k3="1"/>
<feColorMatrix type="matrix" values="0 0 0 0 0.992157 0 0 0 0 0.584314 0 0 0 0 0.0784314 0 0 0 1 0"/>
<feBlend mode="normal" in2="shape" result="effect2_innerShadow_18817_1796"/>
</filter>
<linearGradient id="paint0_linear_18817_1796" x1="75.6386" y1="-4.59375" x2="9.29068" y2="83.0565" gradientUnits="userSpaceOnUse">
<stop stop-color="#FDD01F"/>
<stop offset="0.369907" stop-color="#FDD320"/>
<stop offset="0.496817" stop-color="#F8C240"/>
<stop offset="1" stop-color="#F8861B"/>
</linearGradient>
<linearGradient id="paint1_linear_18817_1796" x1="44.125" y1="0.5625" x2="44.125" y2="87.1875" gradientUnits="userSpaceOnUse">
<stop stop-color="#FDE77F"/>
<stop offset="1" stop-color="#F99D40"/>
</linearGradient>
<linearGradient id="paint2_linear_18817_1796" x1="14.5509" y1="9.52333" x2="4.24555" y2="12.361" gradientUnits="userSpaceOnUse">
<stop stop-color="#FCAF0C"/>
<stop offset="1" stop-color="#FCB50D" stop-opacity="0"/>
</linearGradient>
<linearGradient id="paint3_linear_18817_1796" x1="76.3052" y1="13.6638" x2="80.9104" y2="3.0851" gradientUnits="userSpaceOnUse">
<stop stop-color="#FFDD4D"/>
<stop offset="1" stop-color="#FEF4CB"/>
</linearGradient>
<linearGradient id="paint4_linear_18817_1796" x1="64.9818" y1="14.666" x2="71.242" y2="6.13207" gradientUnits="userSpaceOnUse">
<stop stop-color="#F97B04"/>
<stop offset="1" stop-color="#FEE43B"/>
</linearGradient>
<linearGradient id="paint5_linear_18817_1796" x1="71.998" y1="7.83738" x2="62.3244" y2="16.5599" gradientUnits="userSpaceOnUse">
<stop stop-color="#FEF1AC"/>
<stop offset="1" stop-color="#FB7C06"/>
</linearGradient>
<linearGradient id="paint6_linear_18817_1796" x1="72.1892" y1="7.83491" x2="70.1025" y2="10.6796" gradientUnits="userSpaceOnUse">
<stop stop-color="#FEF3B3"/>
<stop offset="1" stop-color="#FEE43B"/>
</linearGradient>
<linearGradient id="paint7_linear_18817_1796" x1="66.311" y1="25.4725" x2="16.4263" y2="68.7052" gradientUnits="userSpaceOnUse">
<stop stop-color="#FFBF26"/>
<stop offset="1" stop-color="#FF2872"/>
</linearGradient>
<linearGradient id="paint8_linear_18817_1796" x1="63.277" y1="33.629" x2="41.4678" y2="43.4874" gradientUnits="userSpaceOnUse">
<stop stop-color="#FFE171"/>
<stop offset="0.516562" stop-color="#FE9A15"/>
<stop offset="1" stop-color="#FF2086" stop-opacity="0.49"/>
</linearGradient>
<linearGradient id="paint9_linear_18817_1796" x1="82.2388" y1="31.9239" x2="15.8622" y2="63.7748" gradientUnits="userSpaceOnUse">
<stop stop-color="#FFBF26"/>
<stop offset="1" stop-color="#FF2872"/>
</linearGradient>
<linearGradient id="paint10_linear_18817_1796" x1="57.8964" y1="37.3608" x2="34.2578" y2="56.386" gradientUnits="userSpaceOnUse">
<stop stop-color="#FFE171"/>
<stop offset="0.550196" stop-color="#FE9A15"/>
<stop offset="1" stop-color="#F92A4B" stop-opacity="0"/>
</linearGradient>
<linearGradient id="paint11_linear_18817_1796" x1="41.4714" y1="46.9067" x2="77.5163" y2="-10.5574" gradientUnits="userSpaceOnUse">
<stop stop-color="#FFBF26"/>
<stop offset="1" stop-color="#FF2872"/>
</linearGradient>
<linearGradient id="paint12_linear_18817_1796" x1="52.7647" y1="41.5018" x2="28.0039" y2="56.3841" gradientUnits="userSpaceOnUse">
<stop stop-color="#FFE171"/>
<stop offset="0.550196" stop-color="#FE9A15"/>
<stop offset="1" stop-color="#F92A4B"/>
</linearGradient>
<clipPath id="clip0_18817_1796">
<path d="M0.8125 29.3247C0.8125 15.7661 0.8125 8.98676 5.02463 4.77463C9.23676 0.5625 16.0161 0.5625 29.5747 0.5625H58.6753C72.2339 0.5625 79.0132 0.5625 83.2254 4.77463C87.4375 8.98676 87.4375 15.7661 87.4375 29.3247V58.4253C87.4375 71.9839 87.4375 78.7632 83.2254 82.9754C79.0132 87.1875 72.2339 87.1875 58.6753 87.1875H29.5747C16.0161 87.1875 9.23676 87.1875 5.02463 82.9754C0.8125 78.7632 0.8125 71.9839 0.8125 58.4253V29.3247Z" fill="white"/>
</clipPath>
</defs>
</svg>
