<svg width="61" height="60" viewBox="0 0 61 60" fill="none" xmlns="http://www.w3.org/2000/svg">
<circle cx="30.5" cy="30" r="30" fill="#D9D9D9"/>
<path d="M16.1089 25.0676H22.4378V44.1132H16.1089V25.0676ZM19.3157 15.8867C17.1496 15.8867 15.7344 17.3088 15.7344 19.1753C15.7344 21.0034 17.1081 22.4668 19.2328 22.4668H19.2732C21.4807 22.4668 22.8555 21.0034 22.8555 19.1753C22.8141 17.3088 21.4808 15.8867 19.3157 15.8867ZM37.977 24.6202C34.6175 24.6202 33.1125 26.468 32.2729 27.7638V25.0676H25.9421C26.0259 26.8543 25.9421 44.1132 25.9421 44.1132H32.2729V33.4768C32.2729 32.9071 32.3143 32.3396 32.4808 31.9315C32.9392 30.7942 33.9808 29.6166 35.728 29.6166C38.0203 29.6166 38.9358 31.3639 38.9358 33.9231V44.1132H45.2656V33.192C45.2656 27.3421 42.1436 24.6202 37.977 24.6202Z" fill="black"/>
</svg>
