<svg width="19" height="19" viewBox="0 0 19 19" fill="none" xmlns="http://www.w3.org/2000/svg">
<path fill-rule="evenodd" clip-rule="evenodd" d="M4.15641 7.95982V6.33325C4.15641 3.38198 6.54889 0.989502 9.50016 0.989502C12.4514 0.989502 14.8439 3.38198 14.8439 6.33325V7.95982C15.7264 8.02573 16.3011 8.19212 16.7212 8.61221C17.4168 9.30783 17.4168 10.4274 17.4168 12.6666C17.4168 14.9058 17.4168 16.0253 16.7212 16.721C16.0256 17.4166 14.906 17.4166 12.6668 17.4166H6.3335C4.09432 17.4166 2.97474 17.4166 2.27912 16.721C1.5835 16.0253 1.5835 14.9058 1.5835 12.6666C1.5835 10.4274 1.5835 9.30783 2.27912 8.61221C2.6992 8.19212 3.2739 8.02573 4.15641 7.95982ZM5.34391 6.33325C5.34391 4.03782 7.20473 2.177 9.50016 2.177C11.7956 2.177 13.6564 4.03782 13.6564 6.33325V7.91941C13.3532 7.91658 13.0243 7.91658 12.6668 7.91658H6.3335C5.97605 7.91658 5.64713 7.91658 5.34391 7.91941V6.33325Z" fill="#1C274C"/>
</svg>
