<svg width="25" height="17" viewBox="0 0 25 17" fill="none" xmlns="http://www.w3.org/2000/svg">
<rect x="0.818359" y="1" width="23.1818" height="15" rx="2.72727" fill="#26365F"/>
<rect x="0.47745" y="0.659091" width="23.8636" height="15.6818" rx="3.06818" stroke="black" stroke-opacity="0.1" stroke-width="0.681818"/>
<path d="M13.8474 3.88281L10.1815 4.29013L8.55225 9.58528L10.7925 13.2512L13.8474 13.0475L16.6986 10.6036L13.8474 3.88281Z" fill="#FF5C00"/>
<path fill-rule="evenodd" clip-rule="evenodd" d="M12.6245 3.98044C11.0418 4.89602 9.97705 6.60722 9.97705 8.56713C9.97705 10.527 11.0418 12.2382 12.6245 13.1538C11.8456 13.6044 10.9413 13.8623 9.97679 13.8623C7.05236 13.8623 4.68164 11.4916 4.68164 8.56713C4.68164 5.64269 7.05236 3.27197 9.97679 3.27197C10.9413 3.27197 11.8456 3.52986 12.6245 3.98044Z" fill="#FC0101"/>
<path fill-rule="evenodd" clip-rule="evenodd" d="M12.4204 3.98044C14.0031 4.89602 15.0679 6.60722 15.0679 8.56713C15.0679 10.527 14.0031 12.2382 12.4204 13.1538C13.1993 13.6044 14.1036 13.8623 15.0681 13.8623C17.9926 13.8623 20.3633 11.4916 20.3633 8.56713C20.3633 5.64269 17.9926 3.27197 15.0681 3.27197C14.1036 3.27197 13.1993 3.52986 12.4204 3.98044Z" fill="#FCD401"/>
</svg>
