<svg width="101" height="61" viewBox="0 0 101 61" fill="none" xmlns="http://www.w3.org/2000/svg">
<path d="M13.2991 60.3058C8.79906 60.3058 4.59906 57.9058 2.39906 54.0058C0.199062 50.1058 0.299061 45.3058 2.69906 41.6058L25.0991 6.40579C27.3991 2.50579 31.6991 0.305794 36.1991 0.405794C40.6991 0.505794 44.7991 3.0058 46.8991 7.0058C48.9991 11.0058 48.6991 15.7058 46.1991 19.4058L23.8991 54.6058C21.5991 58.2058 17.5991 60.3058 13.2991 60.3058Z" fill="#F62B54"/>
<path d="M51.7991 60.3059C47.2991 60.3059 43.0991 57.9058 40.8991 54.0058C38.6991 50.1058 38.7991 45.4058 41.1991 41.6058L63.5991 6.50583C65.8991 2.60583 70.0991 0.205828 74.6991 0.405828C79.2991 0.505828 83.3991 3.00583 85.4991 7.00583C87.5991 11.0058 87.2991 15.8058 84.6991 19.5058L62.2991 54.6058C59.9991 58.2058 55.9991 60.3059 51.7991 60.3059Z" fill="#FFCC00"/>
<path d="M89.2983 60.6058C95.6496 60.6058 100.798 55.5466 100.798 49.3058C100.798 43.065 95.6496 38.0058 89.2983 38.0058C82.9471 38.0058 77.7983 43.065 77.7983 49.3058C77.7983 55.5466 82.9471 60.6058 89.2983 60.6058Z" fill="#00CA72"/>
</svg>
