<svg width="94" height="93" viewBox="0 0 94 93" fill="none" xmlns="http://www.w3.org/2000/svg">
<g filter="url(#filter0_d_266_26562)">
<rect x="14.501" y="14" width="65" height="65" rx="12" fill="white"/>
<g clip-path="url(#clip0_266_26562)">
<path d="M30.8526 59.0654C28.8585 59.0697 27.0163 58.0007 26.0307 56.2672C25.0592 54.5444 25.1175 52.4262 26.1821 50.7594L36.1121 35.166C37.1468 33.4598 39.0195 32.4423 41.014 32.5025C43.0071 32.5503 44.8199 33.6678 45.7581 35.4268C46.6838 37.1772 46.5681 39.2831 45.4594 40.9262L35.5357 56.5197C34.5129 58.1135 32.7463 59.0737 30.8526 59.0654Z" fill="#F62B54"/>
<path d="M47.8894 59.0651C45.8866 59.0651 44.0437 57.9943 43.0759 56.2733C42.1066 54.5552 42.1649 52.4424 43.2274 50.7803L53.1385 35.2226C54.1582 33.4919 56.0365 32.4505 58.0446 32.5023C60.0642 32.5465 61.8945 33.6763 62.8202 35.4435C63.7396 37.2107 63.6049 39.3292 62.4626 40.9681L52.5536 56.5258C51.5341 58.1127 49.7756 59.07 47.8894 59.0651Z" fill="#FFCC00"/>
<path d="M64.5351 59.196C67.3585 59.196 69.6474 56.9552 69.6474 54.191C69.6474 51.4268 67.3585 49.186 64.5351 49.186C61.7117 49.186 59.4229 51.4268 59.4229 54.191C59.4229 56.9552 61.7117 59.196 64.5351 59.196Z" fill="#00CA72"/>
</g>
</g>
<defs>
<filter id="filter0_d_266_26562" x="0.500977" y="0" width="93" height="93" filterUnits="userSpaceOnUse" color-interpolation-filters="sRGB">
<feFlood flood-opacity="0" result="BackgroundImageFix"/>
<feColorMatrix in="SourceAlpha" type="matrix" values="0 0 0 0 0 0 0 0 0 0 0 0 0 0 0 0 0 0 127 0" result="hardAlpha"/>
<feOffset/>
<feGaussianBlur stdDeviation="7"/>
<feComposite in2="hardAlpha" operator="out"/>
<feColorMatrix type="matrix" values="0 0 0 0 0 0 0 0 0 0.792157 0 0 0 0 0.447059 0 0 0 0.8 0"/>
<feBlend mode="normal" in2="BackgroundImageFix" result="effect1_dropShadow_266_26562"/>
<feBlend mode="normal" in="SourceGraphic" in2="effect1_dropShadow_266_26562" result="shape"/>
</filter>
<clipPath id="clip0_266_26562">
<rect width="44.3077" height="27" fill="white" transform="translate(25.3486 32.5)"/>
</clipPath>
</defs>
</svg>
