<svg width="25" height="25" viewBox="0 0 25 25" fill="none" xmlns="http://www.w3.org/2000/svg">
<rect x="0.5" y="0.0483398" width="24" height="24" rx="4" fill="white"/>
<path d="M4.98668 18.4888C4.08991 18.4888 3.25293 18.0105 2.81452 17.2332C2.3761 16.456 2.39603 15.4994 2.8743 14.762L7.33819 7.74683C7.79654 6.96958 8.65344 6.53114 9.55021 6.55107C10.447 6.571 11.264 7.06923 11.6825 7.86641C12.101 8.66359 12.0412 9.60027 11.543 10.3377L7.09905 17.3528C6.64071 18.0703 5.84358 18.4888 4.98668 18.4888Z" fill="#F62B54"/>
<path d="M12.6586 18.4884C11.7618 18.4884 10.9248 18.0101 10.4864 17.2328C10.048 16.4556 10.0679 15.5189 10.5462 14.7616L15.0101 7.76635C15.4684 6.9891 16.3054 6.51079 17.2221 6.55065C18.1388 6.57058 18.9558 7.06882 19.3743 7.866C19.7928 8.66317 19.733 9.61979 19.2149 10.3572L14.751 17.3524C14.2927 18.0699 13.4955 18.4884 12.6586 18.4884Z" fill="#FFCC00"/>
<path d="M20.1335 18.5484C21.3992 18.5484 22.4253 17.5401 22.4253 16.2963C22.4253 15.0526 21.3992 14.0443 20.1335 14.0443C18.8678 14.0443 17.8418 15.0526 17.8418 16.2963C17.8418 17.5401 18.8678 18.5484 20.1335 18.5484Z" fill="#00CA72"/>
</svg>
