<svg width="292" height="67" viewBox="0 0 292 67" fill="none" xmlns="http://www.w3.org/2000/svg">
<path d="M285.359 39.7321C287.497 39.7321 288.78 41.2595 288.78 43.7035V52.1962H291.652V43.5202C291.652 39.3044 289.636 36.8604 285.909 36.8604C284.442 36.8604 282.12 37.2881 280.715 39.9765C280.043 38.3879 278.577 37.227 276.866 37.0437C276.316 36.9215 275.766 36.9215 275.216 36.9215C274.055 37.0437 271.917 37.7769 271.123 39.4266V37.1659H268.251V52.1962H271.123V44.0701C271.123 40.893 273.2 39.671 275.277 39.671C277.233 39.671 278.516 41.1373 278.516 43.6424V52.1962H281.387V44.0701C281.387 41.565 282.854 39.671 285.359 39.7321ZM257.62 49.6912C258.964 49.6912 260.247 49.2024 261.164 48.2248C262.08 47.2472 262.569 45.9642 262.508 44.62C262.508 41.565 260.308 39.671 257.62 39.671C254.931 39.671 252.732 41.565 252.732 44.62C252.671 45.9642 253.16 47.2472 254.076 48.2248C254.993 49.2024 256.276 49.6912 257.62 49.6912ZM257.62 52.5017C253.404 52.5017 249.86 49.3857 249.86 44.62C249.86 39.8543 253.404 36.7993 257.62 36.7993C261.836 36.7993 265.379 39.8543 265.379 44.62C265.44 49.3857 261.836 52.5017 257.62 52.5017ZM234.952 44.62C234.952 39.8543 238.557 36.8604 242.834 36.7993C244.972 36.7382 247.05 37.6547 248.577 39.2433L246.378 41.1373C245.461 40.2209 244.178 39.7321 242.834 39.7321C240.146 39.7321 237.824 41.6261 237.824 44.6811C237.824 46.6973 239.046 48.5914 240.879 49.3246C242.773 50.1189 244.911 49.6912 246.317 48.2248L248.516 50.1189C247.05 51.7075 244.911 52.6239 242.773 52.5628C238.618 52.5017 234.952 49.3857 234.952 44.62ZM225.726 49.3246C225.726 48.2248 226.582 47.3083 227.681 47.3083C228.781 47.3083 229.698 48.2248 229.637 49.3246C229.575 50.3633 228.72 51.2187 227.681 51.2187C226.643 51.2187 225.787 50.3633 225.726 49.3246ZM233.608 18.042H223.282L216.073 36.6771L208.863 18.042H198.537L211.062 47.4305L203.303 66.86H213.506C213.568 66.9211 233.608 18.042 233.608 18.042ZM170.982 34.4165C170.982 39.1211 175.075 42.2371 179.108 42.2371C183.079 42.2371 186.99 39.3655 186.99 34.4165C186.99 29.5286 183.079 26.5958 179.108 26.5958C175.075 26.5958 170.982 29.7119 170.982 34.4165ZM186.99 50.8521V47.125C184.912 50.3022 180.024 51.463 177.519 51.463C169.21 51.463 160.961 44.9255 160.961 34.4165C160.961 23.9075 169.271 17.3699 177.519 17.3699C179.597 17.3699 184.484 18.042 186.99 21.7079V18.042H196.582V50.8521H186.99ZM158.212 50.8521H148.619V46.7584C147.031 49.7523 143.121 51.5241 139.088 51.5241C130.718 51.5241 123.386 44.8644 123.386 34.5387C123.386 24.0297 130.779 17.3088 139.088 17.3088C143.121 17.3088 147.031 19.0196 148.619 22.0134V0.140015H158.212V50.8521ZM148.436 34.3554C148.436 29.4675 144.892 26.5347 140.921 26.5347C136.827 26.5347 133.406 29.6508 133.406 34.3554C133.406 39.1822 136.827 42.2982 140.921 42.2982C144.954 42.2982 148.436 39.06 148.436 34.3554ZM99.6182 33.5C99.6182 28.4899 102.184 26.8402 105.606 26.8402C108.905 26.8402 111.227 29.0398 111.227 33.3778V50.8521H120.881V31.2393C120.881 21.8912 116.298 17.3088 108.966 17.3088C105.117 17.3088 101.329 19.5084 99.5571 22.8077V18.042H89.9035V50.8521H99.5571C99.6182 50.8521 99.6182 33.5 99.6182 33.5ZM70.2908 51.402C61.1259 51.402 53.4275 44.6811 53.4275 34.3554C53.4275 24.0297 61.0648 17.3699 70.2908 17.3699C79.4556 17.3699 87.2151 24.0297 87.2151 34.3554C87.2151 44.6811 79.5167 51.402 70.2908 51.402ZM70.2908 41.8705C74.3233 41.8705 77.6837 38.9378 77.6837 34.3554C77.6837 29.9563 74.3233 26.9013 70.2908 26.9013C68.3356 26.8402 66.4415 27.6345 65.0363 29.0398C63.631 30.4451 62.8978 32.3391 62.9589 34.3554C63.02 38.9378 66.3193 41.8705 70.2908 41.8705ZM36.1365 26.8402C39.0081 26.8402 41.5132 29.1009 41.5132 33.3778V50.8521H51.1057V32.2169C51.1057 22.3189 46.2789 17.3088 38.5805 17.3088C36.2587 17.3088 31.9818 17.9809 28.8657 23.1132C27.0328 19.3251 23.5501 17.3699 18.4178 17.3699C14.7519 17.3699 11.4526 19.4473 9.9251 22.8077V18.042H0.271484V50.8521H9.864V33.5C9.864 28.4899 12.5523 26.8402 15.4851 26.8402C18.2956 26.8402 20.8007 29.0398 20.8618 33.1334V50.8521H30.5154V33.5C30.5765 28.7343 33.0816 26.8402 36.1365 26.8402Z" fill="black"/>
</svg>
