<svg width="43" height="44" viewBox="0 0 43 44" fill="none" xmlns="http://www.w3.org/2000/svg">
<g clip-path="url(#clip0_292_964)">
<path d="M23.8495 28.2902C23.7664 28.2907 23.6841 28.2747 23.6072 28.2433C23.5303 28.2119 23.4603 28.1656 23.4013 28.1071C23.3422 28.0484 23.2952 27.9786 23.2631 27.9017C23.2311 27.8248 23.2146 27.7423 23.2146 27.6589C23.2146 27.5756 23.2311 27.4931 23.2631 27.4162C23.2952 27.3392 23.3422 27.2694 23.4013 27.2107L28.6407 21.9777L23.4013 16.7446C23.2825 16.6258 23.2157 16.4645 23.2157 16.2964C23.2157 16.1283 23.2825 15.9671 23.4013 15.8482C23.5202 15.7294 23.6814 15.6626 23.8495 15.6626C24.0176 15.6626 24.1788 15.7294 24.2977 15.8482L29.9789 21.5295C30.0381 21.5882 30.0851 21.658 30.1171 21.7349C30.1492 21.8118 30.1657 21.8943 30.1657 21.9777C30.1657 22.061 30.1492 22.1435 30.1171 22.2204C30.0851 22.2974 30.0381 22.3672 29.9789 22.4259L24.2977 28.1071C24.2387 28.1656 24.1688 28.2119 24.0919 28.2433C24.0149 28.2747 23.9326 28.2907 23.8495 28.2902Z" fill="white"/>
<path d="M29.5271 22.6089H14.3771C14.2097 22.6089 14.0491 22.5424 13.9307 22.424C13.8124 22.3057 13.7458 22.1451 13.7458 21.9777C13.7458 21.8103 13.8124 21.6497 13.9307 21.5313C14.0491 21.4129 14.2097 21.3464 14.3771 21.3464H29.5271C29.6945 21.3464 29.8551 21.4129 29.9735 21.5313C30.0918 21.6497 30.1583 21.8103 30.1583 21.9777C30.1583 22.1451 30.0918 22.3057 29.9735 22.424C29.8551 22.5424 29.6945 22.6089 29.5271 22.6089Z" fill="white"/>
</g>
<circle cx="21.9557" cy="21.9782" r="20.5417" fill="#D9D9D9" fill-opacity="0.03"/>
<circle cx="21.9557" cy="21.9782" r="20.5417" stroke="black"/>
<circle cx="21.9557" cy="21.9782" r="20.5417" stroke="url(#paint0_linear_292_964)"/>
<defs>
<linearGradient id="paint0_linear_292_964" x1="41.6357" y1="43.02" x2="5.82753" y2="42.8038" gradientUnits="userSpaceOnUse">
<stop stop-color="#FDD220"/>
<stop offset="1" stop-color="white"/>
</linearGradient>
<clipPath id="clip0_292_964">
<rect width="20.2" height="20.2" fill="white" transform="translate(11.8513 11.8779)"/>
</clipPath>
</defs>
</svg>
