<svg width="157" height="156" viewBox="0 0 157 156" fill="none" xmlns="http://www.w3.org/2000/svg">
<g filter="url(#filter0_d_266_26536)">
<g clip-path="url(#clip0_266_26536)">
<mask id="path-2-inside-1_266_26536" fill="white">
<path d="M16.5 15.9998H140.5V140H16.5V15.9998Z"/>
</mask>
<path d="M16.5 15.9998H140.5V140H16.5V15.9998Z" fill="url(#paint0_linear_266_26536)"/>
<path d="M16.5 16.6411H140.5V15.3584H16.5V16.6411Z" fill="url(#paint1_linear_266_26536)" mask="url(#path-2-inside-1_266_26536)"/>
<g filter="url(#filter1_f_266_26536)">
<circle cx="27.5962" cy="29.6795" r="9.83448" fill="url(#paint2_linear_266_26536)"/>
</g>
<path d="M125.423 27.0878C113.455 20.4823 102.984 23.466 77.9796 17.7122C74.147 16.8303 68.3663 16.3793 62.4427 16.1667L39.5117 16.2157C39.5117 16.2157 51.2331 15.7644 62.4427 16.1667L140.504 15.9998V53.2966C140.504 53.2966 137.391 33.6932 125.423 27.0878Z" fill="url(#paint3_linear_266_26536)"/>
<g filter="url(#filter2_f_266_26536)">
<ellipse cx="114.059" cy="33.7431" rx="7.87177" ry="7.87422" fill="url(#paint4_linear_266_26536)"/>
<path d="M121.876 33.7431C121.876 38.0619 118.376 41.563 114.059 41.563C109.742 41.563 106.242 38.0619 106.242 33.7431C106.242 29.4243 109.742 25.9232 114.059 25.9232C118.376 25.9232 121.876 29.4243 121.876 33.7431Z" stroke="url(#paint5_linear_266_26536)" stroke-width="0.108644"/>
</g>
<g filter="url(#filter3_d_266_26536)">
<ellipse cx="114.594" cy="33.1982" rx="7.87177" ry="7.87422" fill="url(#paint6_linear_266_26536)"/>
</g>
<g filter="url(#filter4_d_266_26536)">
<ellipse cx="78.5034" cy="82.3442" rx="48.3164" ry="48.3314" fill="url(#paint7_linear_266_26536)"/>
<path d="M126.277 82.3442C126.277 108.737 104.888 130.132 78.5034 130.132C52.1192 130.132 30.7302 108.737 30.7302 82.3442C30.7302 55.9514 52.1192 34.556 78.5034 34.556C104.888 34.556 126.277 55.9514 126.277 82.3442Z" stroke="url(#paint8_linear_266_26536)" stroke-width="1.08644"/>
</g>
<g filter="url(#filter5_d_266_26536)">
<ellipse cx="78.4937" cy="82.3453" rx="34.7444" ry="34.7552" fill="url(#paint9_linear_266_26536)"/>
<path d="M112.695 82.3453C112.695 101.24 97.3823 116.557 78.4937 116.557C59.605 116.557 44.2925 101.24 44.2925 82.3453C44.2925 63.4504 59.605 48.1333 78.4937 48.1333C97.3823 48.1333 112.695 63.4504 112.695 82.3453Z" stroke="url(#paint10_linear_266_26536)" stroke-width="1.08644"/>
</g>
<g filter="url(#filter6_di_266_26536)">
<ellipse cx="79.3185" cy="82.6223" rx="20.358" ry="20.3644" fill="url(#paint11_linear_266_26536)"/>
<path d="M99.1333 82.6223C99.1333 93.5694 90.2617 102.443 79.3185 102.443C68.3752 102.443 59.5037 93.5694 59.5037 82.6223C59.5037 71.6752 68.3752 62.8012 79.3185 62.8012C90.2617 62.8012 99.1333 71.6752 99.1333 82.6223Z" stroke="url(#paint12_linear_266_26536)" stroke-width="1.08644"/>
</g>
</g>
</g>
<defs>
<filter id="filter0_d_266_26536" x="0.5" y="-0.000244141" width="156" height="156" filterUnits="userSpaceOnUse" color-interpolation-filters="sRGB">
<feFlood flood-opacity="0" result="BackgroundImageFix"/>
<feColorMatrix in="SourceAlpha" type="matrix" values="0 0 0 0 0 0 0 0 0 0 0 0 0 0 0 0 0 0 127 0" result="hardAlpha"/>
<feOffset/>
<feGaussianBlur stdDeviation="8"/>
<feComposite in2="hardAlpha" operator="out"/>
<feColorMatrix type="matrix" values="0 0 0 0 0.992157 0 0 0 0 0.823529 0 0 0 0 0.12549 0 0 0 1 0"/>
<feBlend mode="normal" in2="BackgroundImageFix" result="effect1_dropShadow_266_26536"/>
<feBlend mode="normal" in="SourceGraphic" in2="effect1_dropShadow_266_26536" result="shape"/>
</filter>
<filter id="filter1_f_266_26536" x="17.3341" y="19.4174" width="20.5241" height="20.5241" filterUnits="userSpaceOnUse" color-interpolation-filters="sRGB">
<feFlood flood-opacity="0" result="BackgroundImageFix"/>
<feBlend mode="normal" in="SourceGraphic" in2="BackgroundImageFix" result="shape"/>
<feGaussianBlur stdDeviation="0.213793" result="effect1_foregroundBlur_266_26536"/>
</filter>
<filter id="filter2_f_266_26536" x="104.558" y="24.2392" width="19.003" height="19.0077" filterUnits="userSpaceOnUse" color-interpolation-filters="sRGB">
<feFlood flood-opacity="0" result="BackgroundImageFix"/>
<feBlend mode="normal" in="SourceGraphic" in2="BackgroundImageFix" result="shape"/>
<feGaussianBlur stdDeviation="0.814832" result="effect1_foregroundBlur_266_26536"/>
</filter>
<filter id="filter3_d_266_26536" x="94.7715" y="24.7808" width="27.6945" height="27.6993" filterUnits="userSpaceOnUse" color-interpolation-filters="sRGB">
<feFlood flood-opacity="0" result="BackgroundImageFix"/>
<feColorMatrix in="SourceAlpha" type="matrix" values="0 0 0 0 0 0 0 0 0 0 0 0 0 0 0 0 0 0 127 0" result="hardAlpha"/>
<feOffset dx="-5.97543" dy="5.43221"/>
<feGaussianBlur stdDeviation="2.98772"/>
<feComposite in2="hardAlpha" operator="out"/>
<feColorMatrix type="matrix" values="0 0 0 0 0.980392 0 0 0 0 0.498039 0 0 0 0 0.0117647 0 0 0 0.79 0"/>
<feBlend mode="normal" in2="BackgroundImageFix" result="effect1_dropShadow_266_26536"/>
<feBlend mode="normal" in="SourceGraphic" in2="effect1_dropShadow_266_26536" result="shape"/>
</filter>
<filter id="filter4_d_266_26536" x="7.91494" y="31.8399" width="129.226" height="129.256" filterUnits="userSpaceOnUse" color-interpolation-filters="sRGB">
<feFlood flood-opacity="0" result="BackgroundImageFix"/>
<feColorMatrix in="SourceAlpha" type="matrix" values="0 0 0 0 0 0 0 0 0 0 0 0 0 0 0 0 0 0 127 0" result="hardAlpha"/>
<feOffset dx="-5.97543" dy="14.1238"/>
<feGaussianBlur stdDeviation="8.14832"/>
<feComposite in2="hardAlpha" operator="out"/>
<feColorMatrix type="matrix" values="0 0 0 0 0.956863 0 0 0 0 0.419608 0 0 0 0 0.0862745 0 0 0 0.82 0"/>
<feBlend mode="normal" in2="BackgroundImageFix" result="effect1_dropShadow_266_26536"/>
<feBlend mode="normal" in="SourceGraphic" in2="effect1_dropShadow_266_26536" result="shape"/>
</filter>
<filter id="filter5_d_266_26536" x="33.9713" y="43.7875" width="81.4396" height="81.4612" filterUnits="userSpaceOnUse" color-interpolation-filters="sRGB">
<feFlood flood-opacity="0" result="BackgroundImageFix"/>
<feColorMatrix in="SourceAlpha" type="matrix" values="0 0 0 0 0 0 0 0 0 0 0 0 0 0 0 0 0 0 127 0" result="hardAlpha"/>
<feOffset dx="-3.80255" dy="2.17288"/>
<feGaussianBlur stdDeviation="2.98772"/>
<feComposite in2="hardAlpha" operator="out"/>
<feColorMatrix type="matrix" values="0 0 0 0 0.968627 0 0 0 0 0.0470588 0 0 0 0 0.309804 0 0 0 1 0"/>
<feBlend mode="normal" in2="BackgroundImageFix" result="effect1_dropShadow_266_26536"/>
<feBlend mode="normal" in="SourceGraphic" in2="effect1_dropShadow_266_26536" result="shape"/>
</filter>
<filter id="filter6_di_266_26536" x="50.8121" y="62.2579" width="50.494" height="54.3093" filterUnits="userSpaceOnUse" color-interpolation-filters="sRGB">
<feFlood flood-opacity="0" result="BackgroundImageFix"/>
<feColorMatrix in="SourceAlpha" type="matrix" values="0 0 0 0 0 0 0 0 0 0 0 0 0 0 0 0 0 0 127 0" result="hardAlpha"/>
<feOffset dx="-3.25933" dy="4.88899"/>
<feGaussianBlur stdDeviation="2.4445"/>
<feComposite in2="hardAlpha" operator="out"/>
<feColorMatrix type="matrix" values="0 0 0 0 0.968627 0 0 0 0 0.113725 0 0 0 0 0.270588 0 0 0 1 0"/>
<feBlend mode="normal" in2="BackgroundImageFix" result="effect1_dropShadow_266_26536"/>
<feBlend mode="normal" in="SourceGraphic" in2="effect1_dropShadow_266_26536" result="shape"/>
<feColorMatrix in="SourceAlpha" type="matrix" values="0 0 0 0 0 0 0 0 0 0 0 0 0 0 0 0 0 0 127 0" result="hardAlpha"/>
<feOffset dx="-3.80255" dy="13.5805"/>
<feGaussianBlur stdDeviation="9.50637"/>
<feComposite in2="hardAlpha" operator="arithmetic" k2="-1" k3="1"/>
<feColorMatrix type="matrix" values="0 0 0 0 0.992157 0 0 0 0 0.584314 0 0 0 0 0.0784314 0 0 0 1 0"/>
<feBlend mode="normal" in2="shape" result="effect2_innerShadow_266_26536"/>
</filter>
<linearGradient id="paint0_linear_266_26536" x1="123.61" y1="8.6188" x2="28.6362" y2="134.086" gradientUnits="userSpaceOnUse">
<stop stop-color="#FDD01F"/>
<stop offset="0.369907" stop-color="#FDD320"/>
<stop offset="0.496817" stop-color="#F8C240"/>
<stop offset="1" stop-color="#F8861B"/>
</linearGradient>
<linearGradient id="paint1_linear_266_26536" x1="78.5" y1="15.9998" x2="78.5" y2="140" gradientUnits="userSpaceOnUse">
<stop stop-color="#FDE77F"/>
<stop offset="1" stop-color="#F99D40"/>
</linearGradient>
<linearGradient id="paint2_linear_266_26536" x1="36.1479" y1="28.8243" x2="21.3962" y2="32.8864" gradientUnits="userSpaceOnUse">
<stop stop-color="#FCAF0C"/>
<stop offset="1" stop-color="#FCB50D" stop-opacity="0"/>
</linearGradient>
<linearGradient id="paint3_linear_266_26536" x1="124.568" y1="34.7537" x2="131.16" y2="19.6108" gradientUnits="userSpaceOnUse">
<stop stop-color="#FFDD4D"/>
<stop offset="1" stop-color="#FEF4CB"/>
</linearGradient>
<linearGradient id="paint4_linear_266_26536" x1="108.359" y1="36.1868" x2="117.32" y2="23.9709" gradientUnits="userSpaceOnUse">
<stop stop-color="#F97B04"/>
<stop offset="1" stop-color="#FEE43B"/>
</linearGradient>
<linearGradient id="paint5_linear_266_26536" x1="118.402" y1="26.4119" x2="104.555" y2="38.8978" gradientUnits="userSpaceOnUse">
<stop stop-color="#FEF1AC"/>
<stop offset="1" stop-color="#FB7C06"/>
</linearGradient>
<linearGradient id="paint6_linear_266_26536" x1="118.666" y1="26.4101" x2="115.679" y2="30.4821" gradientUnits="userSpaceOnUse">
<stop stop-color="#FEF3B3"/>
<stop offset="1" stop-color="#FEE43B"/>
</linearGradient>
<linearGradient id="paint7_linear_266_26536" x1="110.262" y1="51.6619" x2="38.8541" y2="113.548" gradientUnits="userSpaceOnUse">
<stop stop-color="#FFBF26"/>
<stop offset="1" stop-color="#FF2872"/>
</linearGradient>
<linearGradient id="paint8_linear_266_26536" x1="105.919" y1="63.3375" x2="74.7" y2="77.4495" gradientUnits="userSpaceOnUse">
<stop stop-color="#FFE171"/>
<stop offset="0.516562" stop-color="#FE9A15"/>
<stop offset="1" stop-color="#FF2086" stop-opacity="0.49"/>
</linearGradient>
<linearGradient id="paint9_linear_266_26536" x1="133.053" y1="60.8948" x2="38.038" y2="106.488" gradientUnits="userSpaceOnUse">
<stop stop-color="#FFBF26"/>
<stop offset="1" stop-color="#FF2872"/>
</linearGradient>
<linearGradient id="paint10_linear_266_26536" x1="98.2082" y1="68.6775" x2="64.3705" y2="95.9112" gradientUnits="userSpaceOnUse">
<stop stop-color="#FFE171"/>
<stop offset="0.550196" stop-color="#FE9A15"/>
<stop offset="1" stop-color="#F92A4B" stop-opacity="0"/>
</linearGradient>
<linearGradient id="paint11_linear_266_26536" x1="74.704" y1="82.3508" x2="126.301" y2="0.0932204" gradientUnits="userSpaceOnUse">
<stop stop-color="#FFBF26"/>
<stop offset="1" stop-color="#FF2872"/>
</linearGradient>
<linearGradient id="paint12_linear_266_26536" x1="90.8699" y1="74.6138" x2="55.4259" y2="95.9173" gradientUnits="userSpaceOnUse">
<stop stop-color="#FFE171"/>
<stop offset="0.550196" stop-color="#FE9A15"/>
<stop offset="1" stop-color="#F92A4B"/>
</linearGradient>
<clipPath id="clip0_266_26536">
<path d="M16.5 57.1716C16.5 37.763 16.5 28.0587 22.5295 22.0292C28.559 15.9998 38.2633 15.9998 57.6719 15.9998H99.3281C118.737 15.9998 128.441 15.9998 134.471 22.0292C140.5 28.0587 140.5 37.763 140.5 57.1716V98.8279C140.5 118.236 140.5 127.941 134.471 133.97C128.441 140 118.737 140 99.3281 140H57.6719C38.2633 140 28.559 140 22.5295 133.97C16.5 127.941 16.5 118.236 16.5 98.8279V57.1716Z" fill="white"/>
</clipPath>
</defs>
</svg>
