<svg width="105" height="32" viewBox="0 0 105 32" fill="none" xmlns="http://www.w3.org/2000/svg">
<path d="M57.22 15.86C57.22 16.98 57.0267 18.0067 56.64 18.94C56.2533 19.86 55.7133 20.6533 55.02 21.32C54.34 21.9733 53.5267 22.48 52.58 22.84C51.6333 23.2 50.6067 23.38 49.5 23.38C48.3933 23.38 47.3667 23.2 46.42 22.84C45.4867 22.48 44.6733 21.9733 43.98 21.32C43.3 20.6533 42.7667 19.86 42.38 18.94C41.9933 18.0067 41.8 16.98 41.8 15.86C41.8 14.7267 41.9933 13.7067 42.38 12.8C42.7667 11.88 43.3 11.1 43.98 10.46C44.6733 9.82 45.4867 9.32667 46.42 8.98C47.3667 8.63333 48.3933 8.46 49.5 8.46C50.6067 8.46 51.6333 8.63333 52.58 8.98C53.5267 9.32667 54.34 9.82 55.02 10.46C55.7133 11.1 56.2533 11.88 56.64 12.8C57.0267 13.7067 57.22 14.7267 57.22 15.86ZM53.56 15.86C53.56 15.2467 53.46 14.6733 53.26 14.14C53.06 13.6067 52.78 13.1533 52.42 12.78C52.0733 12.3933 51.6467 12.0933 51.14 11.88C50.6467 11.6533 50.1 11.54 49.5 11.54C48.9 11.54 48.3533 11.6533 47.86 11.88C47.3667 12.0933 46.94 12.3933 46.58 12.78C46.22 13.1533 45.94 13.6067 45.74 14.14C45.5533 14.6733 45.46 15.2467 45.46 15.86C45.46 16.5 45.56 17.0933 45.76 17.64C45.96 18.1733 46.2333 18.6333 46.58 19.02C46.94 19.4067 47.3667 19.7133 47.86 19.94C48.3533 20.1533 48.9 20.26 49.5 20.26C50.1 20.26 50.6467 20.1533 51.14 19.94C51.6333 19.7133 52.06 19.4067 52.42 19.02C52.78 18.6333 53.06 18.1733 53.26 17.64C53.46 17.0933 53.56 16.5 53.56 15.86ZM65.8317 23V17.56C65.8317 17.28 65.8051 17.0133 65.7517 16.76C65.7117 16.5067 65.6384 16.2867 65.5317 16.1C65.4251 15.9 65.2717 15.7467 65.0717 15.64C64.8851 15.52 64.6451 15.46 64.3517 15.46C64.0584 15.46 63.7984 15.52 63.5717 15.64C63.3584 15.7467 63.1784 15.9 63.0317 16.1C62.8851 16.3 62.7717 16.5333 62.6917 16.8C62.6251 17.0533 62.5917 17.32 62.5917 17.6V23H59.2917V13.04H62.4717V14.42H62.5117C62.6317 14.2067 62.7851 14 62.9717 13.8C63.1717 13.5867 63.3984 13.4067 63.6517 13.26C63.9184 13.1133 64.2051 12.9933 64.5117 12.9C64.8184 12.8067 65.1451 12.76 65.4917 12.76C66.1584 12.76 66.7251 12.88 67.1917 13.12C67.6584 13.36 68.0317 13.6733 68.3117 14.06C68.6051 14.4333 68.8117 14.8667 68.9317 15.36C69.0651 15.8533 69.1317 16.3467 69.1317 16.84V23H65.8317ZM78.4759 16.88C78.4759 16.36 78.3093 15.9133 77.9759 15.54C77.6559 15.1667 77.1693 14.98 76.5159 14.98C76.1959 14.98 75.9026 15.0333 75.6359 15.14C75.3693 15.2333 75.1359 15.3667 74.9359 15.54C74.7359 15.7133 74.5759 15.92 74.4559 16.16C74.3359 16.3867 74.2693 16.6267 74.2559 16.88H78.4759ZM81.4959 18.14C81.4959 18.2733 81.4959 18.4067 81.4959 18.54C81.4959 18.6733 81.4893 18.8 81.4759 18.92H74.2559C74.2826 19.2 74.3626 19.4533 74.4959 19.68C74.6426 19.9067 74.8226 20.1067 75.0359 20.28C75.2626 20.44 75.5093 20.5667 75.7759 20.66C76.0559 20.7533 76.3426 20.8 76.6359 20.8C77.1559 20.8 77.5959 20.7067 77.9559 20.52C78.3159 20.32 78.6093 20.0667 78.8359 19.76L81.1159 21.2C80.6493 21.88 80.0293 22.4067 79.2559 22.78C78.4959 23.14 77.6093 23.32 76.5959 23.32C75.8493 23.32 75.1426 23.2067 74.4759 22.98C73.8093 22.74 73.2226 22.4 72.7159 21.96C72.2226 21.5067 71.8293 20.9533 71.5359 20.3C71.2559 19.6467 71.1159 18.9 71.1159 18.06C71.1159 17.2467 71.2559 16.5133 71.5359 15.86C71.8159 15.1933 72.1959 14.6333 72.6759 14.18C73.1559 13.7133 73.7226 13.3533 74.3759 13.1C75.0293 12.8467 75.7359 12.72 76.4959 12.72C77.2293 12.72 77.9026 12.8467 78.5159 13.1C79.1293 13.34 79.6559 13.6933 80.0959 14.16C80.5359 14.6267 80.8759 15.1933 81.1159 15.86C81.3693 16.5267 81.4959 17.2867 81.4959 18.14ZM87.27 21.24C87.27 21.8 87.07 22.2667 86.67 22.64C86.2833 23.0133 85.8167 23.2 85.27 23.2C84.99 23.2 84.7233 23.1467 84.47 23.04C84.23 22.9467 84.0167 22.8133 83.83 22.64C83.6433 22.4667 83.4967 22.2667 83.39 22.04C83.2833 21.8 83.23 21.54 83.23 21.26C83.23 20.9933 83.2833 20.74 83.39 20.5C83.4967 20.26 83.6433 20.0533 83.83 19.88C84.0167 19.6933 84.23 19.5467 84.47 19.44C84.7233 19.3333 84.99 19.28 85.27 19.28C85.8167 19.28 86.2833 19.4667 86.67 19.84C87.07 20.2133 87.27 20.68 87.27 21.24ZM95.7661 16.86C95.7661 16.1533 95.5528 15.6333 95.1261 15.3C94.6994 14.9533 94.1328 14.78 93.4261 14.78C92.8928 14.78 92.3861 14.8867 91.9061 15.1C91.4394 15.3 91.0461 15.56 90.7261 15.88L89.7261 14.68C90.1928 14.24 90.7594 13.8933 91.4261 13.64C92.1061 13.3867 92.8328 13.26 93.6061 13.26C94.2861 13.26 94.8728 13.36 95.3661 13.56C95.8728 13.7467 96.2861 14.0067 96.6061 14.34C96.9261 14.6733 97.1661 15.0667 97.3261 15.52C97.4861 15.9733 97.5661 16.46 97.5661 16.98V21.12C97.5661 21.44 97.5728 21.78 97.5861 22.14C97.6128 22.4867 97.6528 22.7733 97.7061 23H96.0061C95.8994 22.5467 95.8461 22.0933 95.8461 21.64H95.7861C95.4394 22.1467 94.9994 22.54 94.4661 22.82C93.9461 23.1 93.3261 23.24 92.6061 23.24C92.2328 23.24 91.8394 23.1867 91.4261 23.08C91.0261 22.9867 90.6594 22.8267 90.3261 22.6C89.9928 22.3733 89.7128 22.0733 89.4861 21.7C89.2728 21.3267 89.1661 20.8667 89.1661 20.32C89.1661 19.6 89.3594 19.0333 89.7461 18.62C90.1328 18.1933 90.6394 17.8733 91.2661 17.66C91.8928 17.4333 92.5994 17.2867 93.3861 17.22C94.1728 17.1533 94.9661 17.12 95.7661 17.12V16.86ZM95.3061 18.48C94.8394 18.48 94.3528 18.5 93.8461 18.54C93.3528 18.58 92.8994 18.66 92.4861 18.78C92.0861 18.9 91.7528 19.08 91.4861 19.32C91.2194 19.56 91.0861 19.88 91.0861 20.28C91.0861 20.56 91.1394 20.7933 91.2461 20.98C91.3661 21.1667 91.5194 21.32 91.7061 21.44C91.8928 21.56 92.0994 21.6467 92.3261 21.7C92.5528 21.74 92.7861 21.76 93.0261 21.76C93.9061 21.76 94.5794 21.5 95.0461 20.98C95.5261 20.4467 95.7661 19.78 95.7661 18.98V18.48H95.3061ZM102.606 23H100.726V13.52H102.606V23ZM102.926 10.1C102.926 10.4467 102.799 10.7333 102.546 10.96C102.306 11.1867 102.013 11.3 101.666 11.3C101.319 11.3 101.026 11.1867 100.786 10.96C100.546 10.72 100.426 10.4333 100.426 10.1C100.426 9.75333 100.546 9.46667 100.786 9.24C101.026 9 101.319 8.88 101.666 8.88C102.013 8.88 102.306 9 102.546 9.24C102.799 9.46667 102.926 9.75333 102.926 10.1Z" fill="#ADB3C7"/>
<g clip-path="url(#clip0_18629_91166)">
<mask id="path-3-inside-1_18629_91166" fill="white">
<path d="M0 0H32V32H0V0Z"/>
</mask>
<path d="M0 0H32V32H0V0Z" fill="url(#paint0_linear_18629_91166)"/>
<path d="M0 0.165517H32V-0.165517H0V0.165517Z" fill="url(#paint1_linear_18629_91166)" mask="url(#path-3-inside-1_18629_91166)"/>
<g filter="url(#filter0_f_18629_91166)">
<circle cx="2.86606" cy="3.53012" r="2.53793" fill="url(#paint2_linear_18629_91166)"/>
</g>
<path d="M28.1082 2.86142C25.0197 1.15678 22.3174 1.92677 15.8647 0.441926C14.8756 0.214327 13.3838 0.0979443 11.8552 0.0430801L5.9375 0.0557352C5.9375 0.0557352 8.96236 -0.0607429 11.8552 0.0430801L32 0V9.625C32 9.625 31.1966 4.56606 28.1082 2.86142Z" fill="url(#paint3_linear_18629_91166)"/>
<g filter="url(#filter1_f_18629_91166)">
<ellipse cx="25.176" cy="4.57893" rx="2.03143" ry="2.03206" fill="url(#paint4_linear_18629_91166)"/>
<path d="M27.1934 4.57893C27.1934 5.69347 26.2901 6.59697 25.176 6.59697C24.0618 6.59697 23.1585 5.69347 23.1585 4.57893C23.1585 3.4644 24.0618 2.56089 25.176 2.56089C26.2901 2.56089 27.1934 3.4644 27.1934 4.57893Z" stroke="url(#paint5_linear_18629_91166)" stroke-width="0.0280372"/>
</g>
<g filter="url(#filter2_d_18629_91166)">
<ellipse cx="25.3166" cy="4.43831" rx="2.03143" ry="2.03206" fill="url(#paint6_linear_18629_91166)"/>
</g>
<g filter="url(#filter3_d_18629_91166)">
<ellipse cx="16" cy="17.1211" rx="12.4688" ry="12.4726" fill="url(#paint7_linear_18629_91166)"/>
<path d="M28.3286 17.1211C28.3286 23.9322 22.8088 29.4536 16 29.4536C9.19116 29.4536 3.67144 23.9322 3.67144 17.1211C3.67144 10.3101 9.19116 4.78868 16 4.78868C22.8088 4.78868 28.3286 10.3101 28.3286 17.1211Z" stroke="url(#paint8_linear_18629_91166)" stroke-width="0.280372"/>
</g>
<g filter="url(#filter4_d_18629_91166)">
<ellipse cx="15.9975" cy="17.1215" rx="8.96629" ry="8.96908" fill="url(#paint9_linear_18629_91166)"/>
<path d="M24.8237 17.1215C24.8237 21.9976 20.872 25.9504 15.9975 25.9504C11.1231 25.9504 7.17144 21.9976 7.17144 17.1215C7.17144 12.2454 11.1231 8.29259 15.9975 8.29259C20.872 8.29259 24.8237 12.2454 24.8237 17.1215Z" stroke="url(#paint10_linear_18629_91166)" stroke-width="0.280372"/>
</g>
<g filter="url(#filter5_di_18629_91166)">
<ellipse cx="16.2107" cy="17.1929" rx="5.25368" ry="5.25532" fill="url(#paint11_linear_18629_91166)"/>
<path d="M21.3242 17.1929C21.3242 20.0179 19.0348 22.308 16.2107 22.308C13.3866 22.308 11.0972 20.0179 11.0972 17.1929C11.0972 14.3678 13.3866 12.0777 16.2107 12.0777C19.0348 12.0777 21.3242 14.3678 21.3242 17.1929Z" stroke="url(#paint12_linear_18629_91166)" stroke-width="0.280372"/>
</g>
</g>
<defs>
<filter id="filter0_f_18629_91166" x="0.21778" y="0.881843" width="5.29637" height="5.29656" filterUnits="userSpaceOnUse" color-interpolation-filters="sRGB">
<feFlood flood-opacity="0" result="BackgroundImageFix"/>
<feBlend mode="normal" in="SourceGraphic" in2="BackgroundImageFix" result="shape"/>
<feGaussianBlur stdDeviation="0.0551724" result="effect1_foregroundBlur_18629_91166"/>
</filter>
<filter id="filter1_f_18629_91166" x="22.724" y="2.12632" width="4.90411" height="4.90523" filterUnits="userSpaceOnUse" color-interpolation-filters="sRGB">
<feFlood flood-opacity="0" result="BackgroundImageFix"/>
<feBlend mode="normal" in="SourceGraphic" in2="BackgroundImageFix" result="shape"/>
<feGaussianBlur stdDeviation="0.210279" result="effect1_foregroundBlur_18629_91166"/>
</filter>
<filter id="filter2_d_18629_91166" x="20.2011" y="2.26606" width="7.14708" height="7.14821" filterUnits="userSpaceOnUse" color-interpolation-filters="sRGB">
<feFlood flood-opacity="0" result="BackgroundImageFix"/>
<feColorMatrix in="SourceAlpha" type="matrix" values="0 0 0 0 0 0 0 0 0 0 0 0 0 0 0 0 0 0 127 0" result="hardAlpha"/>
<feOffset dx="-1.54205" dy="1.40186"/>
<feGaussianBlur stdDeviation="0.771024"/>
<feComposite in2="hardAlpha" operator="out"/>
<feColorMatrix type="matrix" values="0 0 0 0 0.980392 0 0 0 0 0.498039 0 0 0 0 0.0117647 0 0 0 0.79 0"/>
<feBlend mode="normal" in2="BackgroundImageFix" result="effect1_dropShadow_18629_91166"/>
<feBlend mode="normal" in="SourceGraphic" in2="effect1_dropShadow_18629_91166" result="shape"/>
</filter>
<filter id="filter3_d_18629_91166" x="-2.21638" y="4.08775" width="33.3487" height="33.3564" filterUnits="userSpaceOnUse" color-interpolation-filters="sRGB">
<feFlood flood-opacity="0" result="BackgroundImageFix"/>
<feColorMatrix in="SourceAlpha" type="matrix" values="0 0 0 0 0 0 0 0 0 0 0 0 0 0 0 0 0 0 127 0" result="hardAlpha"/>
<feOffset dx="-1.54205" dy="3.64484"/>
<feGaussianBlur stdDeviation="2.10279"/>
<feComposite in2="hardAlpha" operator="out"/>
<feColorMatrix type="matrix" values="0 0 0 0 0.956863 0 0 0 0 0.419608 0 0 0 0 0.0862745 0 0 0 0.82 0"/>
<feBlend mode="normal" in2="BackgroundImageFix" result="effect1_dropShadow_18629_91166"/>
<feBlend mode="normal" in="SourceGraphic" in2="effect1_dropShadow_18629_91166" result="shape"/>
</filter>
<filter id="filter4_d_18629_91166" x="4.5079" y="7.1711" width="21.0167" height="21.0222" filterUnits="userSpaceOnUse" color-interpolation-filters="sRGB">
<feFlood flood-opacity="0" result="BackgroundImageFix"/>
<feColorMatrix in="SourceAlpha" type="matrix" values="0 0 0 0 0 0 0 0 0 0 0 0 0 0 0 0 0 0 127 0" result="hardAlpha"/>
<feOffset dx="-0.981303" dy="0.560744"/>
<feGaussianBlur stdDeviation="0.771024"/>
<feComposite in2="hardAlpha" operator="out"/>
<feColorMatrix type="matrix" values="0 0 0 0 0.968627 0 0 0 0 0.0470588 0 0 0 0 0.309804 0 0 0 1 0"/>
<feBlend mode="normal" in2="BackgroundImageFix" result="effect1_dropShadow_18629_91166"/>
<feBlend mode="normal" in="SourceGraphic" in2="effect1_dropShadow_18629_91166" result="shape"/>
</filter>
<filter id="filter5_di_18629_91166" x="8.85424" y="11.9376" width="13.0307" height="14.0153" filterUnits="userSpaceOnUse" color-interpolation-filters="sRGB">
<feFlood flood-opacity="0" result="BackgroundImageFix"/>
<feColorMatrix in="SourceAlpha" type="matrix" values="0 0 0 0 0 0 0 0 0 0 0 0 0 0 0 0 0 0 127 0" result="hardAlpha"/>
<feOffset dx="-0.841117" dy="1.26168"/>
<feGaussianBlur stdDeviation="0.630838"/>
<feComposite in2="hardAlpha" operator="out"/>
<feColorMatrix type="matrix" values="0 0 0 0 0.968627 0 0 0 0 0.113725 0 0 0 0 0.270588 0 0 0 1 0"/>
<feBlend mode="normal" in2="BackgroundImageFix" result="effect1_dropShadow_18629_91166"/>
<feBlend mode="normal" in="SourceGraphic" in2="effect1_dropShadow_18629_91166" result="shape"/>
<feColorMatrix in="SourceAlpha" type="matrix" values="0 0 0 0 0 0 0 0 0 0 0 0 0 0 0 0 0 0 127 0" result="hardAlpha"/>
<feOffset dx="-0.981303" dy="3.50465"/>
<feGaussianBlur stdDeviation="2.45326"/>
<feComposite in2="hardAlpha" operator="arithmetic" k2="-1" k3="1"/>
<feColorMatrix type="matrix" values="0 0 0 0 0.992157 0 0 0 0 0.584314 0 0 0 0 0.0784314 0 0 0 1 0"/>
<feBlend mode="normal" in2="shape" result="effect2_innerShadow_18629_91166"/>
</filter>
<linearGradient id="paint0_linear_18629_91166" x1="27.6414" y1="-1.90476" x2="3.13191" y2="30.474" gradientUnits="userSpaceOnUse">
<stop stop-color="#FDD01F"/>
<stop offset="0.369907" stop-color="#FDD320"/>
<stop offset="0.496817" stop-color="#F8C240"/>
<stop offset="1" stop-color="#F8861B"/>
</linearGradient>
<linearGradient id="paint1_linear_18629_91166" x1="16" y1="0" x2="16" y2="32" gradientUnits="userSpaceOnUse">
<stop stop-color="#FDE77F"/>
<stop offset="1" stop-color="#F99D40"/>
</linearGradient>
<linearGradient id="paint2_linear_18629_91166" x1="5.07295" y1="3.30943" x2="1.26606" y2="4.3577" gradientUnits="userSpaceOnUse">
<stop stop-color="#FCAF0C"/>
<stop offset="1" stop-color="#FCB50D" stop-opacity="0"/>
</linearGradient>
<linearGradient id="paint3_linear_18629_91166" x1="27.8875" y1="4.83973" x2="29.5888" y2="0.93187" gradientUnits="userSpaceOnUse">
<stop stop-color="#FFDD4D"/>
<stop offset="1" stop-color="#FEF4CB"/>
</linearGradient>
<linearGradient id="paint4_linear_18629_91166" x1="23.7049" y1="5.20957" x2="26.0175" y2="2.05706" gradientUnits="userSpaceOnUse">
<stop stop-color="#F97B04"/>
<stop offset="1" stop-color="#FEE43B"/>
</linearGradient>
<linearGradient id="paint5_linear_18629_91166" x1="26.2967" y1="2.68702" x2="22.7232" y2="5.90917" gradientUnits="userSpaceOnUse">
<stop stop-color="#FEF1AC"/>
<stop offset="1" stop-color="#FB7C06"/>
</linearGradient>
<linearGradient id="paint6_linear_18629_91166" x1="26.3673" y1="2.68653" x2="25.5965" y2="3.73737" gradientUnits="userSpaceOnUse">
<stop stop-color="#FEF3B3"/>
<stop offset="1" stop-color="#FEE43B"/>
</linearGradient>
<linearGradient id="paint7_linear_18629_91166" x1="24.1958" y1="9.20311" x2="5.76792" y2="25.1736" gradientUnits="userSpaceOnUse">
<stop stop-color="#FFBF26"/>
<stop offset="1" stop-color="#FF2872"/>
</linearGradient>
<linearGradient id="paint8_linear_18629_91166" x1="23.075" y1="12.2162" x2="15.0185" y2="15.858" gradientUnits="userSpaceOnUse">
<stop stop-color="#FFE171"/>
<stop offset="0.516562" stop-color="#FE9A15"/>
<stop offset="1" stop-color="#FF2086" stop-opacity="0.49"/>
</linearGradient>
<linearGradient id="paint9_linear_18629_91166" x1="30.0774" y1="11.5859" x2="5.55737" y2="23.3519" gradientUnits="userSpaceOnUse">
<stop stop-color="#FFBF26"/>
<stop offset="1" stop-color="#FF2872"/>
</linearGradient>
<linearGradient id="paint10_linear_18629_91166" x1="21.0852" y1="13.5943" x2="12.3529" y2="20.6224" gradientUnits="userSpaceOnUse">
<stop stop-color="#FFE171"/>
<stop offset="0.550196" stop-color="#FE9A15"/>
<stop offset="1" stop-color="#F92A4B" stop-opacity="0"/>
</linearGradient>
<linearGradient id="paint11_linear_18629_91166" x1="15.0199" y1="17.1228" x2="28.3352" y2="-4.10495" gradientUnits="userSpaceOnUse">
<stop stop-color="#FFBF26"/>
<stop offset="1" stop-color="#FF2872"/>
</linearGradient>
<linearGradient id="paint12_linear_18629_91166" x1="19.1917" y1="15.1262" x2="10.0449" y2="20.6238" gradientUnits="userSpaceOnUse">
<stop stop-color="#FFE171"/>
<stop offset="0.550196" stop-color="#FE9A15"/>
<stop offset="1" stop-color="#F92A4B"/>
</linearGradient>
<clipPath id="clip0_18629_91166">
<path d="M0 10.625C0 5.61633 0 3.11199 1.556 1.556C3.11199 0 5.61633 0 10.625 0H21.375C26.3837 0 28.888 0 30.444 1.556C32 3.11199 32 5.61633 32 10.625V21.375C32 26.3837 32 28.888 30.444 30.444C28.888 32 26.3837 32 21.375 32H10.625C5.61633 32 3.11199 32 1.556 30.444C0 28.888 0 26.3837 0 21.375V10.625Z" fill="white"/>
</clipPath>
</defs>
</svg>
