<svg width="879" height="439" viewBox="0 0 879 439" fill="none" xmlns="http://www.w3.org/2000/svg">
<g filter="url(#filter0_b_379_259)">
<g filter="url(#filter1_b_379_259)">
<rect x="0.5" y="320" width="878" height="119" rx="30" fill="url(#paint0_linear_379_259)"/>
</g>
</g>
<path d="M77.2954 362.781L76.0621 368.195C76.0096 368.453 75.8973 368.657 75.7253 368.805C75.5532 368.953 75.3431 369.027 75.095 369.027C74.7654 369.027 74.4956 368.882 74.2856 368.592C74.0755 368.301 74.0157 367.982 74.1063 367.634L75.2037 362.781H71.1778C70.8247 362.781 70.5408 362.632 70.3262 362.334C70.1116 362.035 70.0496 361.699 70.1402 361.325C70.2017 361.05 70.328 360.834 70.5191 360.676C70.7101 360.518 70.9297 360.439 71.1778 360.439H75.7335L77.1732 354.073H73.1473C72.7942 354.073 72.5103 353.924 72.2957 353.625C72.0811 353.327 72.0191 352.991 72.1096 352.616C72.1712 352.342 72.2975 352.126 72.4886 351.968C72.6796 351.81 72.8992 351.731 73.1473 351.731H77.7029L78.9362 346.316C78.9887 346.058 79.101 345.855 79.2731 345.707C79.4451 345.559 79.6552 345.485 79.9033 345.485C80.2329 345.485 80.5027 345.63 80.7128 345.92C80.9229 346.21 80.9826 346.53 80.8921 346.878L79.7946 351.731H85.6352L86.8685 346.316C86.921 346.058 87.0333 345.855 87.2053 345.707C87.3774 345.559 87.5874 345.485 87.8355 345.485C88.1651 345.485 88.435 345.63 88.645 345.92C88.8551 346.21 88.9149 346.53 88.8243 346.878L87.7268 351.731H91.7527C92.1059 351.731 92.3898 351.88 92.6043 352.178C92.8189 352.476 92.881 352.813 92.7904 353.187C92.7289 353.461 92.6025 353.677 92.4115 353.836C92.2204 353.994 92.0009 354.073 91.7527 354.073H87.1971L85.7574 360.439H89.7833C90.1364 360.439 90.4203 360.588 90.6349 360.886C90.8495 361.185 90.9115 361.521 90.8209 361.895C90.7594 362.169 90.6331 362.386 90.442 362.544C90.251 362.702 90.0314 362.781 89.7833 362.781H85.2276L83.9943 368.195C83.9418 368.453 83.8295 368.657 83.6575 368.805C83.4855 368.953 83.2754 369.027 83.0273 369.027C82.6977 369.027 82.4279 368.882 82.2178 368.592C82.0077 368.301 81.9479 367.982 82.0385 367.634L83.136 362.781H77.2954ZM77.8251 360.439H83.6657L85.1054 354.073H79.2649L77.8251 360.439Z" fill="#D6D5D5"/>
<path d="M54.4212 407.112C54.1604 407.503 53.8417 407.873 53.465 408.22C53.1028 408.568 52.6754 408.872 52.1828 409.133C51.7047 409.394 51.1687 409.597 50.5747 409.742C49.9952 409.901 49.3578 409.981 48.6624 409.981C47.5033 409.981 46.4313 409.778 45.4461 409.372C44.461 408.967 43.6134 408.409 42.9035 407.699C42.1937 406.975 41.6359 406.12 41.2302 405.135C40.8391 404.149 40.6435 403.07 40.6435 401.897C40.6435 400.723 40.8463 399.644 41.252 398.659C41.6576 397.674 42.2154 396.826 42.9253 396.116C43.6497 395.392 44.4972 394.827 45.4678 394.421C46.453 394.015 47.5178 393.813 48.6624 393.813C49.2274 393.813 49.7779 393.871 50.3139 393.986C50.8645 394.102 51.3788 394.269 51.8569 394.486C52.335 394.689 52.7696 394.943 53.1607 395.247C53.5519 395.537 53.8779 395.87 54.1387 396.246L52.8348 397.203C52.6754 396.956 52.4581 396.71 52.1828 396.464C51.9221 396.218 51.6106 396 51.2484 395.812C50.8862 395.624 50.4878 395.471 50.0532 395.356C49.633 395.24 49.1767 395.182 48.6841 395.182C47.6844 395.182 46.7862 395.363 45.9894 395.725C45.2071 396.087 44.5406 396.58 43.9901 397.203C43.4396 397.811 43.0194 398.521 42.7297 399.332C42.4399 400.144 42.2951 400.998 42.2951 401.897C42.2951 402.795 42.4399 403.65 42.7297 404.461C43.0339 405.272 43.4613 405.989 44.0118 406.612C44.5624 407.221 45.2288 407.706 46.0111 408.068C46.8079 408.431 47.6989 408.612 48.6841 408.612C49.5678 408.612 50.4081 408.431 51.2049 408.068C52.0017 407.706 52.6682 407.127 53.2042 406.33L54.4212 407.112ZM58.5876 401.093C58.8629 400.499 59.3193 400.028 59.9567 399.68C60.5942 399.332 61.2751 399.158 61.9995 399.158C63.2889 399.158 64.2523 399.542 64.8897 400.31C65.5417 401.078 65.8676 402.092 65.8676 403.353V409.59H64.3899V403.961C64.3899 403.425 64.3464 402.94 64.2595 402.505C64.1726 402.07 64.0205 401.701 63.8032 401.397C63.6003 401.078 63.3178 400.832 62.9556 400.658C62.6079 400.484 62.1661 400.397 61.63 400.397C61.2389 400.397 60.8549 400.477 60.4783 400.636C60.1161 400.796 59.7901 401.042 59.5004 401.375C59.2106 401.694 58.9788 402.107 58.8049 402.614C58.6311 403.106 58.5442 403.693 58.5442 404.374V409.59H57.0664V393.161H58.5442V401.093H58.5876ZM76.1033 403.027C76.1033 402.143 75.8715 401.484 75.4079 401.049C74.9443 400.614 74.2706 400.397 73.3869 400.397C72.7784 400.397 72.2134 400.506 71.6918 400.723C71.1703 400.94 70.7284 401.23 70.3662 401.592L69.5404 400.614C69.9605 400.194 70.5111 399.847 71.192 399.571C71.8874 399.296 72.6697 399.158 73.539 399.158C74.0895 399.158 74.6038 399.238 75.0819 399.398C75.56 399.542 75.9801 399.767 76.3423 400.071C76.7045 400.375 76.987 400.759 77.1898 401.223C77.3927 401.687 77.4941 402.23 77.4941 402.853V407.308C77.4941 407.699 77.5086 408.105 77.5375 408.525C77.5665 408.945 77.61 409.3 77.6679 409.59H76.3423C76.2989 409.343 76.2626 409.075 76.2337 408.785C76.2047 408.496 76.1902 408.213 76.1902 407.938H76.1467C75.6831 408.619 75.1543 409.111 74.5603 409.416C73.9808 409.705 73.2782 409.85 72.4524 409.85C72.0612 409.85 71.6556 409.792 71.2354 409.676C70.8298 409.575 70.4531 409.401 70.1054 409.155C69.7722 408.909 69.4897 408.59 69.2579 408.199C69.0406 407.808 68.9319 407.329 68.9319 406.764C68.9319 405.982 69.1275 405.366 69.5187 404.917C69.9243 404.454 70.4604 404.113 71.1268 403.896C71.7932 403.664 72.5538 403.519 73.4086 403.461C74.2778 403.389 75.1761 403.353 76.1033 403.353V403.027ZM75.6686 404.504C75.0602 404.504 74.4444 404.533 73.8215 404.591C73.213 404.635 72.6552 404.736 72.1482 404.896C71.6556 405.04 71.2499 405.258 70.9312 405.548C70.6125 405.837 70.4531 406.221 70.4531 406.699C70.4531 407.061 70.5183 407.366 70.6487 407.612C70.7936 407.858 70.9819 408.061 71.2137 408.22C71.4455 408.365 71.6991 408.474 71.9743 408.546C72.2641 408.604 72.5538 408.633 72.8436 408.633C73.3651 408.633 73.8287 408.546 74.2344 408.373C74.64 408.184 74.9805 407.938 75.2557 407.634C75.531 407.315 75.7411 406.953 75.886 406.547C76.0308 406.141 76.1033 405.714 76.1033 405.265V404.504H75.6686ZM82.6266 399.419C82.6556 399.695 82.6773 399.999 82.6918 400.332C82.7063 400.665 82.7135 400.94 82.7135 401.158H82.757C83.0467 400.564 83.5176 400.086 84.1695 399.724C84.8214 399.347 85.5096 399.158 86.234 399.158C87.5234 399.158 88.4868 399.542 89.1242 400.31C89.7762 401.078 90.1022 402.092 90.1022 403.353V409.59H88.6244V403.961C88.6244 403.425 88.581 402.94 88.494 402.505C88.4071 402.07 88.255 401.701 88.0377 401.397C87.8349 401.078 87.5523 400.832 87.1902 400.658C86.8425 400.484 86.4006 400.397 85.8645 400.397C85.4734 400.397 85.0895 400.477 84.7128 400.636C84.3506 400.796 84.0246 401.042 83.7349 401.375C83.4451 401.694 83.2133 402.107 83.0395 402.614C82.8656 403.106 82.7787 403.693 82.7787 404.374V409.59H81.301V401.658C81.301 401.382 81.2937 401.027 81.2792 400.593C81.2647 400.158 81.243 399.767 81.214 399.419H82.6266ZM95.2537 399.419C95.2827 399.695 95.3044 399.999 95.3189 400.332C95.3334 400.665 95.3406 400.94 95.3406 401.158H95.3841C95.6738 400.564 96.1447 400.086 96.7966 399.724C97.4485 399.347 98.1367 399.158 98.8611 399.158C100.15 399.158 101.114 399.542 101.751 400.31C102.403 401.078 102.729 402.092 102.729 403.353V409.59H101.252V403.961C101.252 403.425 101.208 402.94 101.121 402.505C101.034 402.07 100.882 401.701 100.665 401.397C100.462 401.078 100.179 400.832 99.8173 400.658C99.4696 400.484 99.0277 400.397 98.4916 400.397C98.1005 400.397 97.7166 400.477 97.3399 400.636C96.9777 400.796 96.6517 401.042 96.362 401.375C96.0722 401.694 95.8404 402.107 95.6666 402.614C95.4927 403.106 95.4058 403.693 95.4058 404.374V409.59H93.9281V401.658C93.9281 401.382 93.9208 401.027 93.9063 400.593C93.8918 400.158 93.8701 399.767 93.8411 399.419H95.2537ZM114.313 403.722C114.27 402.766 113.958 401.976 113.379 401.353C112.814 400.716 112.002 400.397 110.945 400.397C110.452 400.397 109.996 400.491 109.576 400.68C109.156 400.854 108.786 401.1 108.468 401.419C108.149 401.723 107.895 402.078 107.707 402.483C107.519 402.875 107.41 403.287 107.381 403.722H114.313ZM115.813 404.2C115.813 404.302 115.813 404.41 115.813 404.526C115.813 404.642 115.805 404.765 115.791 404.896H107.359C107.374 405.403 107.475 405.881 107.663 406.33C107.852 406.779 108.113 407.17 108.446 407.503C108.779 407.837 109.17 408.105 109.619 408.307C110.068 408.496 110.554 408.59 111.075 408.59C111.843 408.59 112.502 408.416 113.053 408.068C113.618 407.706 114.045 407.293 114.335 406.83L115.443 407.699C114.835 408.467 114.161 409.017 113.422 409.35C112.698 409.684 111.916 409.85 111.075 409.85C110.322 409.85 109.619 409.72 108.967 409.459C108.33 409.184 107.779 408.807 107.316 408.329C106.852 407.851 106.483 407.286 106.207 406.634C105.947 405.982 105.816 405.272 105.816 404.504C105.816 403.737 105.947 403.027 106.207 402.375C106.468 401.723 106.83 401.158 107.294 400.68C107.758 400.202 108.301 399.832 108.924 399.571C109.547 399.296 110.221 399.158 110.945 399.158C111.742 399.158 112.444 399.296 113.053 399.571C113.661 399.832 114.168 400.194 114.574 400.658C114.98 401.107 115.284 401.636 115.487 402.244C115.704 402.853 115.813 403.505 115.813 404.2ZM120.512 409.59H119.035V393.161H120.512V409.59Z" fill="white"/>
<g clip-path="url(#clip0_379_259)">
<path d="M260.247 369.526C258.612 369.526 257.076 369.216 255.638 368.596C254.201 367.976 252.95 367.135 251.887 366.072C250.823 365.009 249.981 363.759 249.361 362.322C248.74 360.885 248.43 359.349 248.43 357.716C248.43 356.082 248.74 354.546 249.361 353.107C249.981 351.668 250.823 350.417 251.887 349.352C252.95 348.288 254.201 347.445 255.638 346.825C257.076 346.204 258.612 345.893 260.247 345.893C261.446 345.893 262.601 346.069 263.71 346.42C264.819 346.771 265.872 347.274 266.868 347.931C267.004 348.021 267.094 348.134 267.14 348.27C267.185 348.406 267.162 348.531 267.072 348.644C266.981 348.757 266.862 348.819 266.715 348.83C266.568 348.842 266.438 348.802 266.325 348.712C265.419 348.1 264.452 347.636 263.422 347.319C262.392 347.003 261.333 346.844 260.247 346.844C257.213 346.844 254.644 347.897 252.539 350.002C250.434 352.107 249.381 354.676 249.381 357.71C249.381 360.743 250.434 363.312 252.539 365.418C254.644 367.523 257.213 368.575 260.247 368.575C260.998 368.575 261.735 368.502 262.457 368.355C263.179 368.208 263.88 367.987 264.559 367.693C264.695 367.647 264.836 367.636 264.983 367.659C265.131 367.681 265.24 367.751 265.312 367.868C265.376 367.978 265.388 368.099 265.347 368.232C265.306 368.366 265.213 368.457 265.068 368.508C264.299 368.847 263.512 369.102 262.708 369.272C261.905 369.441 261.084 369.526 260.247 369.526ZM270.637 363.618H267.038C266.903 363.618 266.79 363.572 266.699 363.481C266.608 363.39 266.562 363.276 266.562 363.141C266.562 363.006 266.608 362.894 266.699 362.803C266.79 362.713 266.903 362.667 267.038 362.667H270.637V359.068C270.637 358.933 270.683 358.82 270.774 358.729C270.865 358.638 270.979 358.593 271.114 358.593C271.249 358.593 271.361 358.638 271.452 358.729C271.542 358.82 271.588 358.933 271.588 359.068V362.667H275.187C275.322 362.667 275.435 362.713 275.526 362.804C275.617 362.896 275.662 363.009 275.662 363.144C275.662 363.279 275.617 363.392 275.526 363.482C275.435 363.573 275.322 363.618 275.187 363.618H271.588V367.217C271.588 367.352 271.542 367.465 271.451 367.556C271.359 367.647 271.246 367.693 271.111 367.693C270.976 367.693 270.863 367.647 270.773 367.556C270.682 367.465 270.637 367.352 270.637 367.217V363.618ZM258.277 361.377L271.044 348.61C271.135 348.519 271.243 348.468 271.367 348.457C271.492 348.446 271.61 348.497 271.724 348.61C271.837 348.723 271.893 348.836 271.893 348.949C271.893 349.063 271.837 349.176 271.724 349.289L258.99 362.022C258.787 362.226 258.549 362.328 258.277 362.328C258.006 362.328 257.768 362.226 257.564 362.022L254.067 358.525C253.976 358.434 253.925 358.327 253.914 358.202C253.903 358.078 253.954 357.959 254.067 357.846C254.18 357.732 254.293 357.676 254.406 357.676C254.52 357.676 254.633 357.732 254.746 357.846L258.277 361.377Z" fill="white" stroke="white" stroke-width="1.08657"/>
</g>
<path d="M241.135 409.59H239.571V395.595H234.421V394.204H246.286V395.595H241.135V409.59ZM252.84 403.027C252.84 402.143 252.608 401.484 252.145 401.049C251.681 400.614 251.008 400.397 250.124 400.397C249.515 400.397 248.95 400.506 248.429 400.723C247.907 400.94 247.465 401.23 247.103 401.592L246.277 400.614C246.697 400.194 247.248 399.847 247.929 399.571C248.624 399.296 249.407 399.158 250.276 399.158C250.826 399.158 251.341 399.238 251.819 399.398C252.297 399.542 252.717 399.767 253.079 400.071C253.441 400.375 253.724 400.759 253.927 401.223C254.13 401.687 254.231 402.23 254.231 402.853V407.308C254.231 407.699 254.245 408.105 254.274 408.525C254.303 408.945 254.347 409.3 254.405 409.59H253.079C253.036 409.343 253 409.075 252.971 408.785C252.942 408.496 252.927 408.213 252.927 407.938H252.884C252.42 408.619 251.891 409.111 251.297 409.416C250.718 409.705 250.015 409.85 249.189 409.85C248.798 409.85 248.393 409.792 247.972 409.676C247.567 409.575 247.19 409.401 246.842 409.155C246.509 408.909 246.227 408.59 245.995 408.199C245.778 407.808 245.669 407.329 245.669 406.764C245.669 405.982 245.864 405.366 246.256 404.917C246.661 404.454 247.197 404.113 247.864 403.896C248.53 403.664 249.291 403.519 250.146 403.461C251.015 403.389 251.913 403.353 252.84 403.353V403.027ZM252.406 404.504C251.797 404.504 251.181 404.533 250.558 404.591C249.95 404.635 249.392 404.736 248.885 404.896C248.393 405.04 247.987 405.258 247.668 405.548C247.349 405.837 247.19 406.221 247.19 406.699C247.19 407.061 247.255 407.366 247.386 407.612C247.531 407.858 247.719 408.061 247.951 408.22C248.182 408.365 248.436 408.474 248.711 408.546C249.001 408.604 249.291 408.633 249.58 408.633C250.102 408.633 250.566 408.546 250.971 408.373C251.377 408.184 251.717 407.938 251.993 407.634C252.268 407.315 252.478 406.953 252.623 406.547C252.768 406.141 252.84 405.714 252.84 405.265V404.504H252.406ZM263.449 401.831C263.232 401.411 262.898 401.071 262.449 400.81C262.015 400.535 261.515 400.397 260.95 400.397C260.689 400.397 260.428 400.426 260.168 400.484C259.907 400.542 259.675 400.636 259.472 400.767C259.269 400.897 259.103 401.064 258.972 401.266C258.856 401.469 258.798 401.708 258.798 401.984C258.798 402.462 258.994 402.831 259.385 403.092C259.776 403.338 260.392 403.548 261.232 403.722C262.435 403.968 263.319 404.331 263.884 404.809C264.463 405.272 264.753 405.902 264.753 406.699C264.753 407.279 264.637 407.771 264.405 408.177C264.188 408.568 263.898 408.894 263.536 409.155C263.174 409.401 262.761 409.575 262.297 409.676C261.848 409.792 261.392 409.85 260.928 409.85C260.16 409.85 259.414 409.691 258.69 409.372C257.965 409.053 257.371 408.554 256.908 407.873L258.081 407.004C258.342 407.453 258.726 407.829 259.233 408.134C259.74 408.438 260.298 408.59 260.906 408.59C261.225 408.59 261.529 408.561 261.819 408.503C262.109 408.445 262.362 408.344 262.58 408.199C262.797 408.054 262.971 407.873 263.101 407.655C263.232 407.424 263.297 407.141 263.297 406.808C263.297 406.272 263.036 405.873 262.515 405.613C262.007 405.337 261.269 405.084 260.298 404.852C259.994 404.78 259.668 404.693 259.32 404.591C258.987 404.475 258.675 404.316 258.386 404.113C258.096 403.896 257.857 403.628 257.668 403.309C257.48 402.99 257.386 402.592 257.386 402.114C257.386 401.592 257.487 401.151 257.69 400.788C257.893 400.412 258.161 400.107 258.494 399.876C258.842 399.629 259.233 399.448 259.668 399.332C260.102 399.216 260.551 399.158 261.015 399.158C261.725 399.158 262.413 399.318 263.08 399.637C263.746 399.955 264.246 400.404 264.579 400.984L263.449 401.831ZM269.215 404.005H269.28L273.974 399.419H276.104L270.975 404.07L276.625 409.59H274.452L269.28 404.244H269.215V409.59H267.737V393.161H269.215V404.005ZM284.056 401.831C283.838 401.411 283.505 401.071 283.056 400.81C282.621 400.535 282.121 400.397 281.556 400.397C281.296 400.397 281.035 400.426 280.774 400.484C280.513 400.542 280.282 400.636 280.079 400.767C279.876 400.897 279.709 401.064 279.579 401.266C279.463 401.469 279.405 401.708 279.405 401.984C279.405 402.462 279.601 402.831 279.992 403.092C280.383 403.338 280.999 403.548 281.839 403.722C283.041 403.968 283.925 404.331 284.49 404.809C285.07 405.272 285.359 405.902 285.359 406.699C285.359 407.279 285.244 407.771 285.012 408.177C284.794 408.568 284.505 408.894 284.142 409.155C283.78 409.401 283.367 409.575 282.904 409.676C282.455 409.792 281.998 409.85 281.535 409.85C280.767 409.85 280.021 409.691 279.296 409.372C278.572 409.053 277.978 408.554 277.514 407.873L278.688 407.004C278.949 407.453 279.333 407.829 279.84 408.134C280.347 408.438 280.905 408.59 281.513 408.59C281.832 408.59 282.136 408.561 282.426 408.503C282.715 408.445 282.969 408.344 283.186 408.199C283.404 408.054 283.577 407.873 283.708 407.655C283.838 407.424 283.903 407.141 283.903 406.808C283.903 406.272 283.643 405.873 283.121 405.613C282.614 405.337 281.875 405.084 280.905 404.852C280.6 404.78 280.274 404.693 279.927 404.591C279.593 404.475 279.282 404.316 278.992 404.113C278.702 403.896 278.463 403.628 278.275 403.309C278.087 402.99 277.993 402.592 277.993 402.114C277.993 401.592 278.094 401.151 278.297 400.788C278.5 400.412 278.768 400.107 279.101 399.876C279.449 399.629 279.84 399.448 280.274 399.332C280.709 399.216 281.158 399.158 281.622 399.158C282.332 399.158 283.02 399.318 283.686 399.637C284.353 399.955 284.852 400.404 285.186 400.984L284.056 401.831Z" fill="white"/>
<path d="M453.015 363.049C454.116 361.717 454.699 360.143 454.699 358.497C454.699 354.942 451.883 351.82 447.96 350.955C446.129 347.165 441.812 344.494 436.79 344.494C430.114 344.494 424.683 349.211 424.683 355.009C424.683 357.226 425.468 359.346 426.954 361.142C427.327 361.592 427.479 361.742 427.516 361.776C427.788 362.03 427.957 362.503 427.917 362.725L427.145 366.952C427.049 367.476 427.202 367.794 427.347 367.967C427.52 368.174 427.767 368.288 428.044 368.288C428.286 368.288 428.538 368.2 428.792 368.028L432.814 365.312C432.946 365.223 433.242 365.127 433.53 365.127C433.613 365.127 433.668 365.136 433.7 365.143C433.771 365.158 435.441 365.522 436.79 365.522C438.175 365.522 439.505 365.316 440.745 364.943C442.228 365.819 443.951 366.286 445.757 366.286C446.752 366.286 447.981 366.017 448.03 366.006C448.157 365.977 448.429 366.03 448.537 366.103L451.449 368.07C451.692 368.234 451.91 368.288 452.087 368.288C452.306 368.288 452.466 368.207 452.548 368.153C452.697 368.056 453.031 367.76 452.913 367.112L452.355 364.051C452.341 363.96 452.431 363.675 452.591 363.526C452.628 363.492 452.744 363.376 453.015 363.049ZM436.789 364.244C435.581 364.244 433.99 363.899 433.974 363.895C433.395 363.768 432.58 363.928 432.099 364.254L428.491 366.69L429.173 362.955C429.296 362.283 428.958 361.375 428.393 360.847C428.388 360.843 428.266 360.723 427.937 360.327C426.644 358.764 425.96 356.925 425.96 355.009C425.96 349.916 430.818 345.772 436.79 345.772C442.761 345.772 447.619 349.916 447.619 355.009C447.619 360.101 442.761 364.244 436.789 364.244ZM452.031 362.236C451.807 362.507 451.721 362.592 451.721 362.592C451.259 363.022 450.998 363.734 451.099 364.281L451.516 366.574L449.25 365.043C448.852 364.777 448.224 364.657 447.757 364.758C447.746 364.761 446.614 365.009 445.757 365.009C444.564 365.009 443.415 364.775 442.368 364.334C446.243 362.58 448.897 359.059 448.897 355.009C448.897 354.12 448.767 353.257 448.527 352.431C451.421 353.389 453.422 355.799 453.422 358.499C453.422 359.844 452.941 361.137 452.031 362.236Z" fill="white" stroke="white" stroke-width="0.543284"/>
<path d="M431.229 407.112C430.968 407.503 430.649 407.873 430.272 408.22C429.91 408.568 429.483 408.872 428.99 409.133C428.512 409.394 427.976 409.597 427.382 409.742C426.803 409.901 426.165 409.981 425.47 409.981C424.311 409.981 423.239 409.778 422.254 409.372C421.268 408.967 420.421 408.409 419.711 407.699C419.001 406.975 418.443 406.12 418.038 405.135C417.647 404.149 417.451 403.07 417.451 401.897C417.451 400.723 417.654 399.644 418.059 398.659C418.465 397.674 419.023 396.826 419.733 396.116C420.457 395.392 421.305 394.827 422.275 394.421C423.26 394.015 424.325 393.813 425.47 393.813C426.035 393.813 426.585 393.871 427.121 393.986C427.672 394.102 428.186 394.269 428.664 394.486C429.142 394.689 429.577 394.943 429.968 395.247C430.359 395.537 430.685 395.87 430.946 396.246L429.642 397.203C429.483 396.956 429.266 396.71 428.99 396.464C428.73 396.218 428.418 396 428.056 395.812C427.694 395.624 427.295 395.471 426.861 395.356C426.44 395.24 425.984 395.182 425.492 395.182C424.492 395.182 423.594 395.363 422.797 395.725C422.015 396.087 421.348 396.58 420.798 397.203C420.247 397.811 419.827 398.521 419.537 399.332C419.247 400.144 419.103 400.998 419.103 401.897C419.103 402.795 419.247 403.65 419.537 404.461C419.841 405.272 420.269 405.989 420.819 406.612C421.37 407.221 422.036 407.706 422.819 408.068C423.615 408.431 424.506 408.612 425.492 408.612C426.375 408.612 427.216 408.431 428.012 408.068C428.809 407.706 429.476 407.127 430.012 406.33L431.229 407.112ZM435.395 401.093C435.67 400.499 436.127 400.028 436.764 399.68C437.402 399.332 438.083 399.158 438.807 399.158C440.096 399.158 441.06 399.542 441.697 400.31C442.349 401.078 442.675 402.092 442.675 403.353V409.59H441.197V403.961C441.197 403.425 441.154 402.94 441.067 402.505C440.98 402.07 440.828 401.701 440.611 401.397C440.408 401.078 440.125 400.832 439.763 400.658C439.415 400.484 438.974 400.397 438.437 400.397C438.046 400.397 437.662 400.477 437.286 400.636C436.924 400.796 436.598 401.042 436.308 401.375C436.018 401.694 435.786 402.107 435.612 402.614C435.439 403.106 435.352 403.693 435.352 404.374V409.59H433.874V393.161H435.352V401.093H435.395ZM452.911 403.027C452.911 402.143 452.679 401.484 452.215 401.049C451.752 400.614 451.078 400.397 450.194 400.397C449.586 400.397 449.021 400.506 448.499 400.723C447.978 400.94 447.536 401.23 447.174 401.592L446.348 400.614C446.768 400.194 447.319 399.847 447.999 399.571C448.695 399.296 449.477 399.158 450.346 399.158C450.897 399.158 451.411 399.238 451.889 399.398C452.367 399.542 452.788 399.767 453.15 400.071C453.512 400.375 453.794 400.759 453.997 401.223C454.2 401.687 454.302 402.23 454.302 402.853V407.308C454.302 407.699 454.316 408.105 454.345 408.525C454.374 408.945 454.417 409.3 454.475 409.59H453.15C453.106 409.343 453.07 409.075 453.041 408.785C453.012 408.496 452.998 408.213 452.998 407.938H452.954C452.491 408.619 451.962 409.111 451.368 409.416C450.788 409.705 450.086 409.85 449.26 409.85C448.869 409.85 448.463 409.792 448.043 409.676C447.637 409.575 447.261 409.401 446.913 409.155C446.58 408.909 446.297 408.59 446.065 408.199C445.848 407.808 445.739 407.329 445.739 406.764C445.739 405.982 445.935 405.366 446.326 404.917C446.732 404.454 447.268 404.113 447.934 403.896C448.601 403.664 449.361 403.519 450.216 403.461C451.085 403.389 451.984 403.353 452.911 403.353V403.027ZM452.476 404.504C451.868 404.504 451.252 404.533 450.629 404.591C450.02 404.635 449.463 404.736 448.956 404.896C448.463 405.04 448.057 405.258 447.739 405.548C447.42 405.837 447.261 406.221 447.261 406.699C447.261 407.061 447.326 407.366 447.456 407.612C447.601 407.858 447.789 408.061 448.021 408.22C448.253 408.365 448.507 408.474 448.782 408.546C449.072 408.604 449.361 408.633 449.651 408.633C450.173 408.633 450.636 408.546 451.042 408.373C451.447 408.184 451.788 407.938 452.063 407.634C452.338 407.315 452.549 406.953 452.693 406.547C452.838 406.141 452.911 405.714 452.911 405.265V404.504H452.476ZM462.482 400.658H459.613V406.591C459.613 406.967 459.649 407.279 459.722 407.525C459.794 407.771 459.895 407.967 460.026 408.112C460.171 408.242 460.337 408.336 460.526 408.394C460.714 408.438 460.917 408.46 461.134 408.46C461.337 408.46 461.547 408.431 461.764 408.373C461.996 408.315 462.213 408.235 462.416 408.134L462.482 409.416C462.221 409.517 461.945 409.59 461.656 409.633C461.38 409.691 461.076 409.72 460.743 409.72C460.468 409.72 460.178 409.684 459.874 409.611C459.57 409.539 459.287 409.401 459.026 409.198C458.765 408.996 458.548 408.72 458.374 408.373C458.215 408.025 458.135 407.569 458.135 407.004V400.658H456.027V399.419H458.135V396.551H459.613V399.419H462.482V400.658Z" fill="white"/>
<g clip-path="url(#clip1_379_259)">
<path d="M626.114 357.589C626.476 357.635 626.753 357.874 627.035 358.175C628.967 360.23 630.082 362.992 630.101 365.839C630.113 367.756 628.137 369.153 626.107 369.901C622.826 371.108 619.201 371.292 615.685 370.863C613.371 370.581 611.009 370.096 609.092 368.645C608.22 367.985 607.497 367.015 607.504 365.84C607.522 362.94 608.672 360.141 610.665 358.073C611.172 357.547 612.125 357.481 612.468 358.212C612.677 358.656 612.488 359.139 612.104 359.54C610.532 361.203 609.602 363.466 609.56 365.738C609.544 366.591 610.428 367.156 611.256 367.567C613.394 368.628 615.86 368.94 618.295 368.989C620.952 369.042 623.672 368.779 626.065 367.701C626.744 367.394 627.443 367.038 627.867 366.412C628.099 366.069 628.051 365.582 628.014 365.136C627.835 362.971 626.854 360.885 625.302 359.339C625.302 359.339 625.064 359.062 625.016 358.793C624.907 358.185 625.451 357.561 626.114 357.589ZM618.849 344.343C621.478 344.368 624.037 345.947 625.225 348.299C626.213 350.256 626.234 352.673 625.282 354.649C623.727 357.877 619.561 359.637 616.045 358.174C613.75 357.219 612.027 355.001 611.682 352.537C611.366 350.283 612.195 347.9 613.843 346.329C615.151 345.082 616.921 344.361 618.756 344.343C618.787 344.343 618.818 344.343 618.849 344.343ZM618.769 346.397C616.424 346.42 614.242 348.201 613.771 350.498C613.428 352.173 613.989 354.009 615.215 355.207C616.633 356.591 618.883 357.05 620.742 356.289C622.913 355.401 624.291 352.883 623.846 350.561C623.409 348.284 621.278 346.451 618.902 346.398C618.858 346.397 618.814 346.397 618.769 346.397Z" fill="white"/>
</g>
<path d="M586.631 394.205H590.977C591.76 394.205 592.47 394.292 593.107 394.466C593.744 394.625 594.288 394.879 594.737 395.227C595.2 395.56 595.555 395.987 595.802 396.509C596.048 397.016 596.171 397.617 596.171 398.312C596.171 399.008 596.041 399.616 595.78 400.138C595.534 400.645 595.179 401.072 594.715 401.42C594.266 401.753 593.716 402.007 593.064 402.181C592.426 402.354 591.716 402.441 590.934 402.441H588.196V409.591H586.631V394.205ZM588.196 401.116H590.847C592.078 401.116 593.013 400.877 593.65 400.399C594.288 399.921 594.606 399.225 594.606 398.312C594.606 397.356 594.273 396.661 593.607 396.226C592.955 395.777 592.035 395.553 590.847 395.553H588.196V401.116ZM605.338 403.724C605.294 402.767 604.983 401.978 604.403 401.355C603.838 400.717 603.027 400.399 601.969 400.399C601.477 400.399 601.02 400.493 600.6 400.681C600.18 400.855 599.811 401.101 599.492 401.42C599.173 401.724 598.92 402.079 598.731 402.485C598.543 402.876 598.434 403.289 598.405 403.724H605.338ZM606.837 404.202C606.837 404.303 606.837 404.412 606.837 404.528C606.837 404.644 606.83 404.767 606.815 404.897H598.384C598.398 405.404 598.5 405.882 598.688 406.331C598.876 406.78 599.137 407.172 599.47 407.505C599.803 407.838 600.195 408.106 600.644 408.309C601.093 408.497 601.578 408.591 602.1 408.591C602.868 408.591 603.527 408.418 604.077 408.07C604.642 407.708 605.07 407.295 605.359 406.831L606.468 407.7C605.859 408.468 605.186 409.019 604.447 409.352C603.722 409.685 602.94 409.852 602.1 409.852C601.346 409.852 600.644 409.721 599.992 409.461C599.354 409.185 598.804 408.809 598.34 408.331C597.877 407.853 597.507 407.288 597.232 406.636C596.971 405.984 596.841 405.274 596.841 404.506C596.841 403.738 596.971 403.028 597.232 402.376C597.493 401.724 597.855 401.159 598.318 400.681C598.782 400.203 599.325 399.834 599.948 399.573C600.571 399.298 601.245 399.16 601.969 399.16C602.766 399.16 603.469 399.298 604.077 399.573C604.686 399.834 605.193 400.196 605.598 400.659C606.004 401.109 606.308 401.637 606.511 402.246C606.729 402.854 606.837 403.506 606.837 404.202ZM620.121 404.506C620.121 405.274 619.983 405.984 619.708 406.636C619.447 407.288 619.078 407.853 618.6 408.331C618.122 408.809 617.549 409.185 616.883 409.461C616.216 409.721 615.485 409.852 614.688 409.852C613.906 409.852 613.181 409.721 612.515 409.461C611.848 409.185 611.276 408.809 610.798 408.331C610.32 407.853 609.943 407.288 609.668 406.636C609.407 405.984 609.277 405.274 609.277 404.506C609.277 403.738 609.407 403.028 609.668 402.376C609.943 401.724 610.32 401.159 610.798 400.681C611.276 400.203 611.848 399.834 612.515 399.573C613.181 399.298 613.906 399.16 614.688 399.16C615.485 399.16 616.216 399.298 616.883 399.573C617.549 399.834 618.122 400.203 618.6 400.681C619.078 401.159 619.447 401.724 619.708 402.376C619.983 403.028 620.121 403.738 620.121 404.506ZM618.556 404.506C618.556 403.941 618.462 403.412 618.274 402.92C618.1 402.412 617.846 401.978 617.513 401.616C617.18 401.239 616.774 400.942 616.296 400.725C615.818 400.507 615.282 400.399 614.688 400.399C614.094 400.399 613.558 400.507 613.08 400.725C612.616 400.942 612.218 401.239 611.885 401.616C611.551 401.978 611.291 402.412 611.102 402.92C610.928 403.412 610.842 403.941 610.842 404.506C610.842 405.071 610.928 405.607 611.102 406.114C611.291 406.607 611.551 407.041 611.885 407.418C612.218 407.78 612.616 408.07 613.08 408.287C613.558 408.49 614.094 408.591 614.688 408.591C615.282 408.591 615.818 408.49 616.296 408.287C616.774 408.07 617.18 407.78 617.513 407.418C617.846 407.041 618.1 406.607 618.274 406.114C618.462 405.607 618.556 405.071 618.556 404.506ZM624.778 414.807H623.301V399.421H624.778V401.181H624.844C625.264 400.515 625.822 400.015 626.517 399.682C627.227 399.334 627.944 399.16 628.668 399.16C629.465 399.16 630.182 399.298 630.82 399.573C631.472 399.848 632.022 400.225 632.471 400.703C632.935 401.181 633.29 401.746 633.536 402.398C633.797 403.05 633.927 403.753 633.927 404.506C633.927 405.259 633.797 405.962 633.536 406.614C633.29 407.266 632.935 407.831 632.471 408.309C632.022 408.787 631.472 409.164 630.82 409.439C630.182 409.714 629.465 409.852 628.668 409.852C627.944 409.852 627.227 409.685 626.517 409.352C625.822 409.004 625.264 408.512 624.844 407.874H624.778V414.807ZM632.363 404.506C632.363 403.941 632.276 403.412 632.102 402.92C631.928 402.412 631.675 401.978 631.341 401.616C631.023 401.239 630.624 400.942 630.146 400.725C629.668 400.507 629.125 400.399 628.516 400.399C627.951 400.399 627.43 400.507 626.952 400.725C626.473 400.927 626.061 401.217 625.713 401.594C625.365 401.956 625.09 402.391 624.887 402.898C624.699 403.39 624.605 403.926 624.605 404.506C624.605 405.085 624.699 405.629 624.887 406.136C625.09 406.628 625.365 407.056 625.713 407.418C626.061 407.78 626.473 408.07 626.952 408.287C627.43 408.49 627.951 408.591 628.516 408.591C629.125 408.591 629.668 408.49 630.146 408.287C630.624 408.07 631.023 407.78 631.341 407.418C631.675 407.041 631.928 406.607 632.102 406.114C632.276 405.607 632.363 405.071 632.363 404.506ZM638.616 409.591H637.138V393.162H638.616V409.591ZM650.328 403.724C650.285 402.767 649.973 401.978 649.394 401.355C648.829 400.717 648.018 400.399 646.96 400.399C646.467 400.399 646.011 400.493 645.591 400.681C645.171 400.855 644.801 401.101 644.483 401.42C644.164 401.724 643.91 402.079 643.722 402.485C643.534 402.876 643.425 403.289 643.396 403.724H650.328ZM651.828 404.202C651.828 404.303 651.828 404.412 651.828 404.528C651.828 404.644 651.821 404.767 651.806 404.897H643.374C643.389 405.404 643.49 405.882 643.679 406.331C643.867 406.78 644.128 407.172 644.461 407.505C644.794 407.838 645.185 408.106 645.634 408.309C646.084 408.497 646.569 408.591 647.09 408.591C647.858 408.591 648.517 408.418 649.068 408.07C649.633 407.708 650.06 407.295 650.35 406.831L651.458 407.7C650.85 408.468 650.176 409.019 649.437 409.352C648.713 409.685 647.931 409.852 647.09 409.852C646.337 409.852 645.634 409.721 644.982 409.461C644.345 409.185 643.794 408.809 643.331 408.331C642.867 407.853 642.498 407.288 642.223 406.636C641.962 405.984 641.831 405.274 641.831 404.506C641.831 403.738 641.962 403.028 642.223 402.376C642.483 401.724 642.846 401.159 643.309 400.681C643.773 400.203 644.316 399.834 644.939 399.573C645.562 399.298 646.236 399.16 646.96 399.16C647.757 399.16 648.459 399.298 649.068 399.573C649.676 399.834 650.184 400.196 650.589 400.659C650.995 401.109 651.299 401.637 651.502 402.246C651.719 402.854 651.828 403.506 651.828 404.202Z" fill="white"/>
<path d="M798.103 371.292C796.602 371.292 795.386 370.076 795.386 368.576H800.82C800.82 370.076 799.603 371.292 798.103 371.292ZM808.97 367.217H787.236V364.501L789.953 363.142V355.671C789.953 350.969 791.883 347.919 795.386 347.087V344.126H799.461C798.576 345.299 798.098 346.73 798.103 348.201C798.103 348.542 798.128 348.883 798.179 349.221H798.103C796.446 349.113 794.847 349.855 793.858 351.189C793.013 352.526 792.598 354.091 792.67 355.671V364.501H803.536V355.671C803.536 355.385 803.527 355.109 803.508 354.856C804.406 355.042 805.333 355.045 806.232 354.866C806.247 355.153 806.253 355.426 806.253 355.681V363.142L808.97 364.501V367.217ZM804.895 352.276C804.074 352.277 803.272 352.029 802.595 351.565C800.994 350.471 800.386 348.401 801.141 346.615C801.895 344.83 803.803 343.822 805.703 344.207C807.603 344.592 808.969 346.262 808.97 348.201C808.97 350.451 807.145 352.276 804.895 352.276Z" fill="white"/>
<path d="M776.237 409.591H774.52L781.17 394.205H782.691L789.297 409.591H787.559L785.863 405.549H777.91L776.237 409.591ZM778.497 404.115H785.277L781.887 395.944L778.497 404.115ZM792.996 409.591H791.518V393.162H792.996V409.591ZM804.708 403.724C804.664 402.767 804.353 401.978 803.773 401.355C803.208 400.717 802.397 400.399 801.339 400.399C800.847 400.399 800.39 400.493 799.97 400.681C799.55 400.855 799.181 401.101 798.862 401.42C798.543 401.724 798.29 402.079 798.101 402.485C797.913 402.876 797.804 403.289 797.775 403.724H804.708ZM806.207 404.202C806.207 404.303 806.207 404.412 806.207 404.528C806.207 404.644 806.2 404.767 806.186 404.897H797.754C797.768 405.404 797.87 405.882 798.058 406.331C798.246 406.78 798.507 407.172 798.84 407.505C799.174 407.838 799.565 408.106 800.014 408.309C800.463 408.497 800.948 408.591 801.47 408.591C802.238 408.591 802.897 408.418 803.447 408.07C804.012 407.708 804.44 407.295 804.73 406.831L805.838 407.7C805.229 408.468 804.556 409.019 803.817 409.352C803.092 409.685 802.31 409.852 801.47 409.852C800.716 409.852 800.014 409.721 799.362 409.461C798.724 409.185 798.174 408.809 797.71 408.331C797.247 407.853 796.877 407.288 796.602 406.636C796.341 405.984 796.211 405.274 796.211 404.506C796.211 403.738 796.341 403.028 796.602 402.376C796.863 401.724 797.225 401.159 797.689 400.681C798.152 400.203 798.695 399.834 799.318 399.573C799.941 399.298 800.615 399.16 801.339 399.16C802.136 399.16 802.839 399.298 803.447 399.573C804.056 399.834 804.563 400.196 804.969 400.659C805.374 401.109 805.678 401.637 805.881 402.246C806.099 402.854 806.207 403.506 806.207 404.202ZM809.386 401.659C809.386 401.384 809.379 401.029 809.364 400.594C809.35 400.16 809.328 399.768 809.299 399.421H810.711C810.74 399.696 810.762 400 810.777 400.333C810.791 400.667 810.798 400.942 810.798 401.159H810.842C811.132 400.565 811.566 400.087 812.146 399.725C812.725 399.348 813.377 399.16 814.102 399.16C814.29 399.16 814.456 399.167 814.601 399.182C814.761 399.196 814.92 399.225 815.079 399.269L814.884 400.659C814.797 400.63 814.652 400.602 814.449 400.573C814.246 400.544 814.044 400.529 813.841 400.529C813.45 400.529 813.073 400.602 812.711 400.746C812.349 400.891 812.03 401.123 811.755 401.442C811.494 401.746 811.276 402.144 811.103 402.637C810.943 403.115 810.864 403.695 810.864 404.376V409.591H809.386V401.659ZM821.547 400.659H818.679V406.592C818.679 406.969 818.715 407.28 818.787 407.527C818.86 407.773 818.961 407.968 819.092 408.113C819.237 408.244 819.403 408.338 819.592 408.396C819.78 408.439 819.983 408.461 820.2 408.461C820.403 408.461 820.613 408.432 820.83 408.374C821.062 408.316 821.279 408.236 821.482 408.135L821.547 409.417C821.287 409.519 821.011 409.591 820.722 409.634C820.446 409.692 820.142 409.721 819.809 409.721C819.534 409.721 819.244 409.685 818.94 409.613C818.635 409.54 818.353 409.403 818.092 409.2C817.831 408.997 817.614 408.722 817.44 408.374C817.281 408.026 817.201 407.57 817.201 407.005V400.659H815.093V399.421H817.201V396.552H818.679V399.421H821.547V400.659Z" fill="white"/>
<path opacity="0.3" d="M489.5 147C550.745 207 619.906 217.942 719 232.942C774.583 241.356 794.008 276.442 794.008 298.942" stroke="url(#paint1_linear_379_259)"/>
<path opacity="0.3" d="M463.5 150C489.939 212.308 530.558 230.357 574.007 243.462C607.291 253.5 619.5 280.635 619.5 304" stroke="url(#paint2_linear_379_259)"/>
<path opacity="0.3" d="M422.5 150C396.061 212.308 355.442 230.357 311.993 243.462C278.709 253.5 266.5 280.635 266.5 304" stroke="url(#paint3_linear_379_259)"/>
<path d="M444.5 149.5C440.316 224.097 435.203 223.5 442 296" stroke="url(#paint4_linear_379_259)"/>
<path opacity="0.3" d="M390.008 150C328.763 210 259.602 220.942 160.508 235.942C104.925 244.356 85.5 279.442 85.5 301.942" stroke="url(#paint5_linear_379_259)"/>
<g clip-path="url(#clip2_379_259)">
<mask id="path-18-inside-1_379_259" fill="white">
<path d="M361.938 0H512.055V150.117H361.938V0Z"/>
</mask>
<path d="M361.938 0H512.055V150.117H361.938V0Z" fill="url(#paint6_linear_379_259)"/>
<path d="M361.938 0.776468H512.055V-0.776468H361.938V0.776468Z" fill="url(#paint7_linear_379_259)" mask="url(#path-18-inside-1_379_259)"/>
<g filter="url(#filter2_f_379_259)">
<circle cx="375.382" cy="16.5611" r="11.9058" fill="url(#paint8_linear_379_259)"/>
</g>
<path d="M493.803 13.4234C479.315 5.42662 466.637 9.03881 436.367 2.07315C431.727 1.00544 424.729 0.459473 417.558 0.202096L389.797 0.261463C389.797 0.261463 403.987 -0.284955 417.558 0.202096L512.06 0V45.1525C512.06 45.1525 508.292 21.4201 493.803 13.4234Z" fill="url(#paint9_linear_379_259)"/>
<g filter="url(#filter3_f_379_259)">
<ellipse cx="480.045" cy="21.481" rx="9.52975" ry="9.53271" fill="url(#paint10_linear_379_259)"/>
<path d="M489.509 21.481C489.509 26.7094 485.272 30.9479 480.045 30.9479C474.818 30.9479 470.581 26.7094 470.581 21.481C470.581 16.2525 474.818 12.014 480.045 12.014C485.272 12.014 489.509 16.2525 489.509 21.481Z" stroke="url(#paint11_linear_379_259)" stroke-width="0.131527"/>
</g>
<g filter="url(#filter4_d_379_259)">
<ellipse cx="480.694" cy="20.8208" rx="9.52975" ry="9.53271" fill="url(#paint12_linear_379_259)"/>
</g>
<g filter="url(#filter5_d_379_259)">
<ellipse cx="436.993" cy="80.3185" rx="58.4929" ry="58.5111" fill="url(#paint13_linear_379_259)"/>
<path d="M494.828 80.3185C494.828 112.27 468.934 138.172 436.993 138.172C405.051 138.172 379.157 112.27 379.157 80.3185C379.157 48.3667 405.051 22.465 436.993 22.465C468.934 22.465 494.828 48.3667 494.828 80.3185Z" stroke="url(#paint14_linear_379_259)" stroke-width="1.31527"/>
</g>
<g filter="url(#filter6_d_379_259)">
<ellipse cx="436.984" cy="80.3193" rx="42.0623" ry="42.0754" fill="url(#paint15_linear_379_259)"/>
<path d="M478.389 80.3193C478.389 103.194 459.851 121.737 436.984 121.737C414.117 121.737 395.579 103.194 395.579 80.3193C395.579 57.4447 414.117 38.9016 436.984 38.9016C459.851 38.9016 478.389 57.4447 478.389 80.3193Z" stroke="url(#paint16_linear_379_259)" stroke-width="1.31527"/>
</g>
<g filter="url(#filter7_di_379_259)">
<ellipse cx="437.974" cy="80.6543" rx="24.6459" ry="24.6535" fill="url(#paint17_linear_379_259)"/>
<path d="M461.962 80.6543C461.962 93.9071 451.222 104.65 437.974 104.65C424.726 104.65 413.986 93.9071 413.986 80.6543C413.986 67.4015 424.726 56.6584 437.974 56.6584C451.222 56.6584 461.962 67.4015 461.962 80.6543Z" stroke="url(#paint18_linear_379_259)" stroke-width="1.31527"/>
</g>
<path d="M382 150L289 233" stroke="white"/>
</g>
<defs>
<filter id="filter0_b_379_259" x="-3.71676" y="315.783" width="886.434" height="127.434" filterUnits="userSpaceOnUse" color-interpolation-filters="sRGB">
<feFlood flood-opacity="0" result="BackgroundImageFix"/>
<feGaussianBlur in="BackgroundImageFix" stdDeviation="2.10838"/>
<feComposite in2="SourceAlpha" operator="in" result="effect1_backgroundBlur_379_259"/>
<feBlend mode="normal" in="SourceGraphic" in2="effect1_backgroundBlur_379_259" result="shape"/>
</filter>
<filter id="filter1_b_379_259" x="-28.8395" y="290.66" width="936.679" height="177.679" filterUnits="userSpaceOnUse" color-interpolation-filters="sRGB">
<feFlood flood-opacity="0" result="BackgroundImageFix"/>
<feGaussianBlur in="BackgroundImageFix" stdDeviation="14.6698"/>
<feComposite in2="SourceAlpha" operator="in" result="effect1_backgroundBlur_379_259"/>
<feBlend mode="normal" in="SourceGraphic" in2="effect1_backgroundBlur_379_259" result="shape"/>
</filter>
<filter id="filter2_f_379_259" x="362.959" y="4.13763" width="24.8469" height="24.847" filterUnits="userSpaceOnUse" color-interpolation-filters="sRGB">
<feFlood flood-opacity="0" result="BackgroundImageFix"/>
<feBlend mode="normal" in="SourceGraphic" in2="BackgroundImageFix" result="shape"/>
<feGaussianBlur stdDeviation="0.258823" result="effect1_foregroundBlur_379_259"/>
</filter>
<filter id="filter3_f_379_259" x="468.543" y="9.97536" width="23.0053" height="23.0112" filterUnits="userSpaceOnUse" color-interpolation-filters="sRGB">
<feFlood flood-opacity="0" result="BackgroundImageFix"/>
<feBlend mode="normal" in="SourceGraphic" in2="BackgroundImageFix" result="shape"/>
<feGaussianBlur stdDeviation="0.986454" result="effect1_foregroundBlur_379_259"/>
</filter>
<filter id="filter4_d_379_259" x="456.696" y="10.6305" width="33.5274" height="33.5334" filterUnits="userSpaceOnUse" color-interpolation-filters="sRGB">
<feFlood flood-opacity="0" result="BackgroundImageFix"/>
<feColorMatrix in="SourceAlpha" type="matrix" values="0 0 0 0 0 0 0 0 0 0 0 0 0 0 0 0 0 0 127 0" result="hardAlpha"/>
<feOffset dx="-7.23399" dy="6.57636"/>
<feGaussianBlur stdDeviation="3.617"/>
<feComposite in2="hardAlpha" operator="out"/>
<feColorMatrix type="matrix" values="0 0 0 0 0.980392 0 0 0 0 0.498039 0 0 0 0 0.0117647 0 0 0 0.79 0"/>
<feBlend mode="normal" in2="BackgroundImageFix" result="effect1_dropShadow_379_259"/>
<feBlend mode="normal" in="SourceGraphic" in2="effect1_dropShadow_379_259" result="shape"/>
</filter>
<filter id="filter5_d_379_259" x="351.537" y="19.1769" width="156.444" height="156.48" filterUnits="userSpaceOnUse" color-interpolation-filters="sRGB">
<feFlood flood-opacity="0" result="BackgroundImageFix"/>
<feColorMatrix in="SourceAlpha" type="matrix" values="0 0 0 0 0 0 0 0 0 0 0 0 0 0 0 0 0 0 127 0" result="hardAlpha"/>
<feOffset dx="-7.23399" dy="17.0985"/>
<feGaussianBlur stdDeviation="9.86454"/>
<feComposite in2="hardAlpha" operator="out"/>
<feColorMatrix type="matrix" values="0 0 0 0 0.956863 0 0 0 0 0.419608 0 0 0 0 0.0862745 0 0 0 0.82 0"/>
<feBlend mode="normal" in2="BackgroundImageFix" result="effect1_dropShadow_379_259"/>
<feBlend mode="normal" in="SourceGraphic" in2="effect1_dropShadow_379_259" result="shape"/>
</filter>
<filter id="filter6_d_379_259" x="383.084" y="33.6405" width="98.5926" height="98.6188" filterUnits="userSpaceOnUse" color-interpolation-filters="sRGB">
<feFlood flood-opacity="0" result="BackgroundImageFix"/>
<feColorMatrix in="SourceAlpha" type="matrix" values="0 0 0 0 0 0 0 0 0 0 0 0 0 0 0 0 0 0 127 0" result="hardAlpha"/>
<feOffset dx="-4.60345" dy="2.63054"/>
<feGaussianBlur stdDeviation="3.617"/>
<feComposite in2="hardAlpha" operator="out"/>
<feColorMatrix type="matrix" values="0 0 0 0 0.968627 0 0 0 0 0.0470588 0 0 0 0 0.309804 0 0 0 1 0"/>
<feBlend mode="normal" in2="BackgroundImageFix" result="effect1_dropShadow_379_259"/>
<feBlend mode="normal" in="SourceGraphic" in2="effect1_dropShadow_379_259" result="shape"/>
</filter>
<filter id="filter7_di_379_259" x="403.463" y="56.0008" width="61.1292" height="65.748" filterUnits="userSpaceOnUse" color-interpolation-filters="sRGB">
<feFlood flood-opacity="0" result="BackgroundImageFix"/>
<feColorMatrix in="SourceAlpha" type="matrix" values="0 0 0 0 0 0 0 0 0 0 0 0 0 0 0 0 0 0 127 0" result="hardAlpha"/>
<feOffset dx="-3.94582" dy="5.91872"/>
<feGaussianBlur stdDeviation="2.95936"/>
<feComposite in2="hardAlpha" operator="out"/>
<feColorMatrix type="matrix" values="0 0 0 0 0.968627 0 0 0 0 0.113725 0 0 0 0 0.270588 0 0 0 1 0"/>
<feBlend mode="normal" in2="BackgroundImageFix" result="effect1_dropShadow_379_259"/>
<feBlend mode="normal" in="SourceGraphic" in2="effect1_dropShadow_379_259" result="shape"/>
<feColorMatrix in="SourceAlpha" type="matrix" values="0 0 0 0 0 0 0 0 0 0 0 0 0 0 0 0 0 0 127 0" result="hardAlpha"/>
<feOffset dx="-4.60345" dy="16.4409"/>
<feGaussianBlur stdDeviation="11.5086"/>
<feComposite in2="hardAlpha" operator="arithmetic" k2="-1" k3="1"/>
<feColorMatrix type="matrix" values="0 0 0 0 0.992157 0 0 0 0 0.584314 0 0 0 0 0.0784314 0 0 0 1 0"/>
<feBlend mode="normal" in2="shape" result="effect2_innerShadow_379_259"/>
</filter>
<linearGradient id="paint0_linear_379_259" x1="416.793" y1="520.537" x2="426.409" y2="253.019" gradientUnits="userSpaceOnUse">
<stop stop-color="#1B2443"/>
<stop offset="1" stop-color="#0C1433" stop-opacity="0"/>
</linearGradient>
<linearGradient id="paint1_linear_379_259" x1="552.81" y1="164" x2="779.253" y2="370.778" gradientUnits="userSpaceOnUse">
<stop stop-color="#FFDD09"/>
<stop offset="1" stop-color="white" stop-opacity="0"/>
</linearGradient>
<linearGradient id="paint2_linear_379_259" x1="490.83" y1="167.654" x2="647.515" y2="227.13" gradientUnits="userSpaceOnUse">
<stop stop-color="#FFDD09"/>
<stop offset="1" stop-color="white" stop-opacity="0"/>
</linearGradient>
<linearGradient id="paint3_linear_379_259" x1="395.17" y1="167.654" x2="238.485" y2="227.13" gradientUnits="userSpaceOnUse">
<stop stop-color="#FFDD09"/>
<stop offset="1" stop-color="white" stop-opacity="0"/>
</linearGradient>
<linearGradient id="paint4_linear_379_259" x1="447.5" y1="107" x2="380.039" y2="132.014" gradientUnits="userSpaceOnUse">
<stop stop-color="#FFDD09"/>
<stop offset="1" stop-color="white" stop-opacity="0"/>
</linearGradient>
<linearGradient id="paint5_linear_379_259" x1="326.699" y1="167" x2="100.255" y2="373.778" gradientUnits="userSpaceOnUse">
<stop stop-color="#FFDD09"/>
<stop offset="1" stop-color="white" stop-opacity="0"/>
</linearGradient>
<linearGradient id="paint6_linear_379_259" x1="491.608" y1="-8.93555" x2="376.63" y2="142.958" gradientUnits="userSpaceOnUse">
<stop stop-color="#FDD01F"/>
<stop offset="0.369907" stop-color="#FDD320"/>
<stop offset="0.496817" stop-color="#F8C240"/>
<stop offset="1" stop-color="#F8861B"/>
</linearGradient>
<linearGradient id="paint7_linear_379_259" x1="436.996" y1="0" x2="436.996" y2="150.117" gradientUnits="userSpaceOnUse">
<stop stop-color="#FDE77F"/>
<stop offset="1" stop-color="#F99D40"/>
</linearGradient>
<linearGradient id="paint8_linear_379_259" x1="385.735" y1="15.5258" x2="367.877" y2="20.4435" gradientUnits="userSpaceOnUse">
<stop stop-color="#FCAF0C"/>
<stop offset="1" stop-color="#FCB50D" stop-opacity="0"/>
</linearGradient>
<linearGradient id="paint9_linear_379_259" x1="492.768" y1="22.7039" x2="500.749" y2="4.37155" gradientUnits="userSpaceOnUse">
<stop stop-color="#FFDD4D"/>
<stop offset="1" stop-color="#FEF4CB"/>
</linearGradient>
<linearGradient id="paint10_linear_379_259" x1="473.144" y1="24.4394" x2="483.993" y2="9.65048" gradientUnits="userSpaceOnUse">
<stop stop-color="#F97B04"/>
<stop offset="1" stop-color="#FEE43B"/>
</linearGradient>
<linearGradient id="paint11_linear_379_259" x1="485.303" y1="12.6057" x2="468.539" y2="27.7214" gradientUnits="userSpaceOnUse">
<stop stop-color="#FEF1AC"/>
<stop offset="1" stop-color="#FB7C06"/>
</linearGradient>
<linearGradient id="paint12_linear_379_259" x1="485.623" y1="12.603" x2="482.007" y2="17.5326" gradientUnits="userSpaceOnUse">
<stop stop-color="#FEF3B3"/>
<stop offset="1" stop-color="#FEE43B"/>
</linearGradient>
<linearGradient id="paint13_linear_379_259" x1="475.44" y1="43.1738" x2="388.992" y2="118.094" gradientUnits="userSpaceOnUse">
<stop stop-color="#FFBF26"/>
<stop offset="1" stop-color="#FF2872"/>
</linearGradient>
<linearGradient id="paint14_linear_379_259" x1="470.182" y1="57.3085" x2="432.388" y2="74.3928" gradientUnits="userSpaceOnUse">
<stop stop-color="#FFE171"/>
<stop offset="0.516562" stop-color="#FE9A15"/>
<stop offset="1" stop-color="#FF2086" stop-opacity="0.49"/>
</linearGradient>
<linearGradient id="paint15_linear_379_259" x1="503.035" y1="54.3509" x2="388.007" y2="109.547" gradientUnits="userSpaceOnUse">
<stop stop-color="#FFBF26"/>
<stop offset="1" stop-color="#FF2872"/>
</linearGradient>
<linearGradient id="paint16_linear_379_259" x1="460.851" y1="63.7728" x2="419.886" y2="96.7426" gradientUnits="userSpaceOnUse">
<stop stop-color="#FFE171"/>
<stop offset="0.550196" stop-color="#FE9A15"/>
<stop offset="1" stop-color="#F92A4B" stop-opacity="0"/>
</linearGradient>
<linearGradient id="paint17_linear_379_259" x1="432.387" y1="80.3256" x2="494.851" y2="-19.2572" gradientUnits="userSpaceOnUse">
<stop stop-color="#FFBF26"/>
<stop offset="1" stop-color="#FF2872"/>
</linearGradient>
<linearGradient id="paint18_linear_379_259" x1="451.958" y1="70.9591" x2="409.049" y2="96.7495" gradientUnits="userSpaceOnUse">
<stop stop-color="#FFE171"/>
<stop offset="0.550196" stop-color="#FE9A15"/>
<stop offset="1" stop-color="#F92A4B"/>
</linearGradient>
<clipPath id="clip0_379_259">
<rect width="32.597" height="32.597" fill="white" transform="translate(243.954 341.41)"/>
</clipPath>
<clipPath id="clip1_379_259">
<rect width="32.6" height="32.6" fill="white" transform="translate(602.519 341.409)"/>
</clipPath>
<clipPath id="clip2_379_259">
<path d="M361.938 49.8436C361.938 26.3471 361.938 14.5989 369.237 7.29943C376.536 0 388.285 0 411.781 0H462.211C485.708 0 497.456 0 504.755 7.29943C512.055 14.5989 512.055 26.3471 512.055 49.8436V100.274C512.055 123.77 512.055 135.518 504.755 142.818C497.456 150.117 485.708 150.117 462.211 150.117H411.781C388.285 150.117 376.536 150.117 369.237 142.818C361.938 135.518 361.938 123.77 361.938 100.274V49.8436Z" fill="white"/>
</clipPath>
</defs>
</svg>
