<svg width="194" height="38" viewBox="0 0 194 38" fill="none" xmlns="http://www.w3.org/2000/svg">
<g clip-path="url(#clip0_680_14625)">
<mask id="path-2-inside-1_680_14625" fill="white">
<path d="M0 2H34V36H0V2Z"/>
</mask>
<path d="M0 2H34V36H0V2Z" fill="url(#paint0_linear_680_14625)"/>
<path d="M0 2.17586H34V1.82414H0V2.17586Z" fill="url(#paint1_linear_680_14625)" mask="url(#path-2-inside-1_680_14625)"/>
<g filter="url(#filter0_f_680_14625)">
<circle cx="3.04811" cy="5.75124" r="2.69655" fill="url(#paint2_linear_680_14625)"/>
</g>
<path d="M29.865 5.04026C26.5835 3.22907 23.7122 4.0472 16.8562 2.46955C15.8054 2.22772 14.2203 2.10407 12.5961 2.04577L6.30859 2.05922C6.30859 2.05922 9.52251 1.93546 12.5961 2.04577L34 2V12.2266C34 12.2266 33.1464 6.85144 29.865 5.04026Z" fill="url(#paint3_linear_680_14625)"/>
<g filter="url(#filter1_f_680_14625)">
<ellipse cx="26.7502" cy="6.86609" rx="2.15839" ry="2.15906" fill="url(#paint4_linear_680_14625)"/>
<path d="M28.8937 6.86609C28.8937 8.05029 27.934 9.01026 26.7502 9.01026C25.5664 9.01026 24.6067 8.05029 24.6067 6.86609C24.6067 5.6819 25.5664 4.72193 26.7502 4.72193C27.934 4.72193 28.8937 5.6819 28.8937 6.86609Z" stroke="url(#paint5_linear_680_14625)" stroke-width="0.0297895"/>
</g>
<g filter="url(#filter2_d_680_14625)">
<ellipse cx="26.8986" cy="6.7157" rx="2.15839" ry="2.15906" fill="url(#paint6_linear_680_14625)"/>
</g>
<g filter="url(#filter3_d_680_14625)">
<ellipse cx="17" cy="20.1916" rx="13.248" ry="13.2522" fill="url(#paint7_linear_680_14625)"/>
<path d="M30.0991 20.1916C30.0991 27.4284 24.2344 33.2948 17 33.2948C9.76561 33.2948 3.9009 27.4284 3.9009 20.1916C3.9009 12.9549 9.76561 7.0884 17 7.0884C24.2344 7.0884 30.0991 12.9549 30.0991 20.1916Z" stroke="url(#paint8_linear_680_14625)" stroke-width="0.297895"/>
</g>
<g filter="url(#filter4_d_680_14625)">
<ellipse cx="17.0003" cy="20.1898" rx="9.52669" ry="9.52964" fill="url(#paint9_linear_680_14625)"/>
<path d="M26.3781 20.1898C26.3781 25.3707 22.1795 29.5705 17.0003 29.5705C11.8212 29.5705 7.62258 25.3707 7.62258 20.1898C7.62258 15.0089 11.8212 10.8091 17.0003 10.8091C22.1795 10.8091 26.3781 15.0089 26.3781 20.1898Z" stroke="url(#paint10_linear_680_14625)" stroke-width="0.297895"/>
</g>
<g filter="url(#filter5_di_680_14625)">
<ellipse cx="17.2232" cy="20.2654" rx="5.58204" ry="5.58378" fill="url(#paint11_linear_680_14625)"/>
<path d="M22.6562 20.2654C22.6562 23.267 20.2237 25.7002 17.2232 25.7002C14.2226 25.7002 11.7901 23.267 11.7901 20.2654C11.7901 17.2638 14.2226 14.8306 17.2232 14.8306C20.2237 14.8306 22.6562 17.2638 22.6562 20.2654Z" stroke="url(#paint12_linear_680_14625)" stroke-width="0.297895"/>
</g>
</g>
<path d="M54.932 28.196C54.5213 28.196 54.1853 28.0933 53.924 27.888C53.6813 27.6827 53.476 27.3653 53.308 26.936L47.288 9.772C47.12 9.28667 47.148 8.88533 47.372 8.568C47.6147 8.232 48.0067 8.064 48.548 8.064C48.9587 8.064 49.276 8.15733 49.5 8.344C49.7427 8.53067 49.9293 8.82933 50.06 9.24L55.52 25.312H54.484L60.084 9.296C60.252 8.88533 60.448 8.57733 60.672 8.372C60.896 8.16667 61.1947 8.064 61.568 8.064C61.9413 8.064 62.2307 8.16667 62.436 8.372C62.66 8.57733 62.856 8.89467 63.024 9.324L68.512 25.312H67.588L73.104 9.24C73.2347 8.848 73.412 8.55867 73.636 8.372C73.8787 8.16667 74.196 8.064 74.588 8.064C75.0733 8.064 75.428 8.232 75.652 8.568C75.8947 8.88533 75.9227 9.28667 75.736 9.772L69.688 26.964C69.52 27.3747 69.3147 27.6827 69.072 27.888C68.8293 28.0933 68.5027 28.196 68.092 28.196C67.6627 28.196 67.3267 28.0933 67.084 27.888C66.8413 27.6827 66.6453 27.3653 66.496 26.936L61.204 11.788H61.82L56.472 26.964C56.3227 27.3747 56.1267 27.6827 55.884 27.888C55.66 28.0933 55.3427 28.196 54.932 28.196ZM83.2365 28.252C81.8552 28.252 80.6605 27.9627 79.6525 27.384C78.6632 26.8053 77.8885 25.984 77.3285 24.92C76.7685 23.856 76.4885 22.6053 76.4885 21.168C76.4885 20.0667 76.6472 19.0867 76.9645 18.228C77.2818 17.3693 77.7298 16.632 78.3085 16.016C78.9058 15.3813 79.6152 14.9053 80.4365 14.588C81.2765 14.252 82.2098 14.084 83.2365 14.084C84.5992 14.084 85.7752 14.3733 86.7645 14.952C87.7725 15.5307 88.5565 16.352 89.1165 17.416C89.6765 18.4613 89.9565 19.712 89.9565 21.168C89.9565 22.2507 89.7978 23.2307 89.4805 24.108C89.1632 24.9853 88.7058 25.732 88.1085 26.348C87.5298 26.964 86.8205 27.44 85.9805 27.776C85.1592 28.0933 84.2445 28.252 83.2365 28.252ZM83.2365 26.068C84.0018 26.068 84.6738 25.8813 85.2525 25.508C85.8312 25.1347 86.2792 24.584 86.5965 23.856C86.9325 23.128 87.1005 22.232 87.1005 21.168C87.1005 19.5627 86.7458 18.3493 86.0365 17.528C85.3272 16.7067 84.3938 16.296 83.2365 16.296C82.4525 16.296 81.7712 16.4827 81.1925 16.856C80.6138 17.2107 80.1565 17.752 79.8205 18.48C79.5032 19.208 79.3445 20.104 79.3445 21.168C79.3445 22.7547 79.6992 23.968 80.4085 24.808C81.1178 25.648 82.0605 26.068 83.2365 26.068ZM94.5605 28.196C94.0939 28.196 93.7392 28.0747 93.4965 27.832C93.2539 27.5707 93.1325 27.216 93.1325 26.768V15.568C93.1325 15.1013 93.2539 14.7467 93.4965 14.504C93.7392 14.2613 94.0752 14.14 94.5045 14.14C94.9525 14.14 95.2885 14.2613 95.5125 14.504C95.7552 14.7467 95.8765 15.1013 95.8765 15.568V17.612H95.5965C95.8952 16.492 96.4459 15.6427 97.2485 15.064C98.0512 14.4853 99.0779 14.1493 100.329 14.056C100.665 14.0373 100.926 14.1213 101.113 14.308C101.318 14.4947 101.43 14.784 101.449 15.176C101.486 15.568 101.402 15.8853 101.197 16.128C100.991 16.352 100.674 16.4827 100.245 16.52L99.7125 16.576C98.4992 16.688 97.5752 17.0707 96.9405 17.724C96.3059 18.3773 95.9885 19.2733 95.9885 20.412V26.768C95.9885 27.216 95.8672 27.5707 95.6245 27.832C95.4005 28.0747 95.0459 28.196 94.5605 28.196ZM104.978 28.196C104.53 28.196 104.185 28.0747 103.942 27.832C103.699 27.5707 103.578 27.216 103.578 26.768V9.492C103.578 9.02533 103.699 8.67067 103.942 8.428C104.185 8.18533 104.53 8.064 104.978 8.064C105.426 8.064 105.771 8.18533 106.014 8.428C106.275 8.67067 106.406 9.02533 106.406 9.492V20.3H106.462L111.698 15.092C111.997 14.7933 112.267 14.56 112.51 14.392C112.753 14.224 113.07 14.14 113.462 14.14C113.854 14.14 114.153 14.2427 114.358 14.448C114.563 14.6533 114.666 14.9053 114.666 15.204C114.666 15.484 114.526 15.7733 114.246 16.072L108.702 21.56V20.244L114.75 26.264C115.049 26.5627 115.189 26.8613 115.17 27.16C115.151 27.4587 115.03 27.7107 114.806 27.916C114.582 28.1027 114.302 28.196 113.966 28.196C113.537 28.196 113.191 28.112 112.93 27.944C112.687 27.776 112.398 27.524 112.062 27.188L106.462 21.756H106.406V26.768C106.406 27.72 105.93 28.196 104.978 28.196ZM120.255 28.196C119.807 28.196 119.453 28.0747 119.191 27.832C118.949 27.5707 118.827 27.216 118.827 26.768V16.52H117.259C116.905 16.52 116.625 16.4267 116.419 16.24C116.214 16.0347 116.111 15.764 116.111 15.428C116.111 15.0733 116.214 14.8027 116.419 14.616C116.625 14.4293 116.905 14.336 117.259 14.336H119.639L118.827 15.092V14.084C118.827 12.236 119.285 10.8453 120.199 9.912C121.114 8.96 122.449 8.4 124.203 8.232L125.071 8.176C125.389 8.13867 125.641 8.18533 125.827 8.316C126.014 8.44667 126.135 8.61467 126.191 8.82C126.247 9.02533 126.247 9.24 126.191 9.464C126.154 9.66933 126.061 9.856 125.911 10.024C125.762 10.192 125.575 10.2853 125.351 10.304L124.819 10.332C123.718 10.4253 122.915 10.7427 122.411 11.284C121.907 11.8067 121.655 12.6093 121.655 13.692V14.784L121.263 14.336H124.371C124.763 14.336 125.053 14.4293 125.239 14.616C125.445 14.8027 125.547 15.0733 125.547 15.428C125.547 15.764 125.445 16.0347 125.239 16.24C125.053 16.4267 124.763 16.52 124.371 16.52H121.655V26.768C121.655 27.72 121.189 28.196 120.255 28.196ZM131.954 28.252C131.002 28.252 130.143 28.0653 129.378 27.692C128.631 27.3187 128.043 26.8147 127.614 26.18C127.184 25.5453 126.97 24.8267 126.97 24.024C126.97 23.016 127.222 22.2227 127.726 21.644C128.248 21.0467 129.098 20.6267 130.274 20.384C131.468 20.1227 133.074 19.992 135.09 19.992H136.406V21.728H135.118C133.774 21.728 132.71 21.7933 131.926 21.924C131.142 22.0547 130.582 22.2787 130.246 22.596C129.928 22.8947 129.77 23.3147 129.77 23.856C129.77 24.5653 130.012 25.144 130.498 25.592C130.983 26.0213 131.655 26.236 132.514 26.236C133.204 26.236 133.811 26.0773 134.334 25.76C134.856 25.424 135.267 24.976 135.566 24.416C135.883 23.856 136.042 23.212 136.042 22.484V19.264C136.042 18.2 135.818 17.4347 135.37 16.968C134.922 16.5013 134.184 16.268 133.158 16.268C132.56 16.268 131.935 16.3427 131.282 16.492C130.647 16.6413 129.984 16.8933 129.294 17.248C128.976 17.3973 128.706 17.444 128.482 17.388C128.258 17.332 128.08 17.2107 127.95 17.024C127.819 16.8187 127.744 16.604 127.726 16.38C127.726 16.1373 127.782 15.904 127.894 15.68C128.024 15.456 128.239 15.288 128.538 15.176C129.359 14.784 130.171 14.504 130.974 14.336C131.776 14.168 132.532 14.084 133.242 14.084C134.492 14.084 135.519 14.28 136.322 14.672C137.143 15.064 137.75 15.6613 138.142 16.464C138.534 17.2667 138.73 18.3027 138.73 19.572V26.768C138.73 27.216 138.618 27.5707 138.394 27.832C138.17 28.0747 137.843 28.196 137.414 28.196C137.003 28.196 136.676 28.0747 136.434 27.832C136.191 27.5707 136.07 27.216 136.07 26.768V24.948H136.322C136.172 25.6387 135.892 26.236 135.482 26.74C135.09 27.2253 134.595 27.5987 133.998 27.86C133.4 28.1213 132.719 28.252 131.954 28.252ZM147.413 28.252C146.591 28.252 145.742 28.1587 144.865 27.972C144.006 27.7853 143.213 27.468 142.485 27.02C142.242 26.852 142.074 26.6653 141.981 26.46C141.887 26.2547 141.85 26.0493 141.869 25.844C141.906 25.62 141.99 25.4333 142.121 25.284C142.27 25.116 142.447 25.0133 142.653 24.976C142.877 24.9387 143.11 24.9853 143.353 25.116C144.081 25.5267 144.781 25.816 145.453 25.984C146.125 26.1333 146.787 26.208 147.441 26.208C148.43 26.208 149.177 26.0307 149.681 25.676C150.185 25.3213 150.437 24.8453 150.437 24.248C150.437 23.7627 150.269 23.3893 149.933 23.128C149.597 22.848 149.093 22.6333 148.421 22.484L145.761 21.952C144.603 21.7093 143.726 21.28 143.129 20.664C142.531 20.048 142.233 19.264 142.233 18.312C142.233 17.4533 142.466 16.7067 142.933 16.072C143.399 15.4373 144.053 14.952 144.893 14.616C145.733 14.2613 146.703 14.084 147.805 14.084C148.626 14.084 149.401 14.1867 150.129 14.392C150.857 14.5973 151.529 14.9053 152.145 15.316C152.387 15.4467 152.546 15.624 152.621 15.848C152.695 16.0533 152.705 16.2587 152.649 16.464C152.611 16.6693 152.518 16.856 152.369 17.024C152.219 17.1733 152.033 17.2667 151.809 17.304C151.603 17.3227 151.37 17.2667 151.109 17.136C150.549 16.7813 149.989 16.5293 149.429 16.38C148.887 16.2307 148.346 16.156 147.805 16.156C146.815 16.156 146.069 16.3427 145.565 16.716C145.079 17.0707 144.837 17.556 144.837 18.172C144.837 18.6387 144.986 19.0213 145.285 19.32C145.583 19.6187 146.05 19.8333 146.685 19.964L149.345 20.496C150.558 20.7387 151.473 21.1493 152.089 21.728C152.723 22.3067 153.041 23.0907 153.041 24.08C153.041 25.368 152.527 26.3853 151.501 27.132C150.474 27.8787 149.111 28.252 147.413 28.252ZM161.875 28.252C160.755 28.252 159.812 28.056 159.047 27.664C158.281 27.272 157.712 26.6933 157.339 25.928C156.965 25.1627 156.779 24.2293 156.779 23.128V16.52H155.099C154.725 16.52 154.436 16.4267 154.231 16.24C154.025 16.0347 153.922 15.764 153.922 15.428C153.922 15.0733 154.025 14.8027 154.231 14.616C154.436 14.4293 154.725 14.336 155.099 14.336H156.779V11.452C156.779 10.9853 156.9 10.6307 157.143 10.388C157.404 10.1453 157.759 10.024 158.207 10.024C158.655 10.024 159 10.1453 159.243 10.388C159.485 10.6307 159.607 10.9853 159.607 11.452V14.336H162.883C163.256 14.336 163.545 14.4293 163.751 14.616C163.956 14.8027 164.059 15.0733 164.059 15.428C164.059 15.764 163.956 16.0347 163.751 16.24C163.545 16.4267 163.256 16.52 162.883 16.52H159.607V22.904C159.607 23.8933 159.812 24.64 160.223 25.144C160.652 25.648 161.343 25.9 162.294 25.9C162.631 25.9 162.92 25.872 163.163 25.816C163.424 25.7413 163.639 25.6947 163.807 25.676C164.012 25.676 164.18 25.7507 164.311 25.9C164.441 26.0307 164.507 26.292 164.507 26.684C164.507 26.964 164.451 27.2253 164.339 27.468C164.245 27.7107 164.068 27.8693 163.807 27.944C163.583 28.0187 163.275 28.084 162.883 28.14C162.509 28.2147 162.173 28.252 161.875 28.252ZM168.087 28.112C167.545 28.112 167.107 27.944 166.771 27.608C166.435 27.272 166.267 26.8427 166.267 26.32C166.267 25.7973 166.435 25.3773 166.771 25.06C167.107 24.724 167.545 24.556 168.087 24.556C168.628 24.556 169.057 24.724 169.375 25.06C169.692 25.3773 169.851 25.7973 169.851 26.32C169.851 26.8427 169.692 27.272 169.375 27.608C169.057 27.944 168.628 28.112 168.087 28.112ZM177.618 28.252C176.666 28.252 175.807 28.0653 175.042 27.692C174.295 27.3187 173.707 26.8147 173.278 26.18C172.848 25.5453 172.634 24.8267 172.634 24.024C172.634 23.016 172.886 22.2227 173.39 21.644C173.912 21.0467 174.762 20.6267 175.938 20.384C177.132 20.1227 178.738 19.992 180.754 19.992H182.07V21.728H180.782C179.438 21.728 178.374 21.7933 177.59 21.924C176.806 22.0547 176.246 22.2787 175.91 22.596C175.592 22.8947 175.434 23.3147 175.434 23.856C175.434 24.5653 175.676 25.144 176.162 25.592C176.647 26.0213 177.319 26.236 178.178 26.236C178.868 26.236 179.475 26.0773 179.998 25.76C180.52 25.424 180.931 24.976 181.23 24.416C181.547 23.856 181.706 23.212 181.706 22.484V19.264C181.706 18.2 181.482 17.4347 181.034 16.968C180.586 16.5013 179.848 16.268 178.822 16.268C178.224 16.268 177.599 16.3427 176.946 16.492C176.311 16.6413 175.648 16.8933 174.958 17.248C174.64 17.3973 174.37 17.444 174.146 17.388C173.922 17.332 173.744 17.2107 173.614 17.024C173.483 16.8187 173.408 16.604 173.39 16.38C173.39 16.1373 173.446 15.904 173.558 15.68C173.688 15.456 173.903 15.288 174.202 15.176C175.023 14.784 175.835 14.504 176.638 14.336C177.44 14.168 178.196 14.084 178.906 14.084C180.156 14.084 181.183 14.28 181.986 14.672C182.807 15.064 183.414 15.6613 183.806 16.464C184.198 17.2667 184.394 18.3027 184.394 19.572V26.768C184.394 27.216 184.282 27.5707 184.058 27.832C183.834 28.0747 183.507 28.196 183.078 28.196C182.667 28.196 182.34 28.0747 182.098 27.832C181.855 27.5707 181.734 27.216 181.734 26.768V24.948H181.986C181.836 25.6387 181.556 26.236 181.146 26.74C180.754 27.2253 180.259 27.5987 179.662 27.86C179.064 28.1213 178.383 28.252 177.618 28.252ZM189.689 28.168C189.241 28.168 188.895 28.0373 188.653 27.776C188.41 27.496 188.289 27.1133 188.289 26.628V15.708C188.289 15.2227 188.41 14.8493 188.653 14.588C188.895 14.3267 189.241 14.196 189.689 14.196C190.137 14.196 190.482 14.3267 190.725 14.588C190.986 14.8493 191.117 15.2227 191.117 15.708V26.628C191.117 27.1133 190.995 27.496 190.753 27.776C190.51 28.0373 190.155 28.168 189.689 28.168ZM189.689 11.284C189.129 11.284 188.69 11.144 188.373 10.864C188.074 10.584 187.925 10.192 187.925 9.688C187.925 9.16533 188.074 8.77333 188.373 8.512C188.69 8.232 189.129 8.092 189.689 8.092C190.249 8.092 190.678 8.232 190.977 8.512C191.294 8.77333 191.453 9.16533 191.453 9.688C191.453 10.192 191.294 10.584 190.977 10.864C190.678 11.144 190.249 11.284 189.689 11.284Z" fill="#030229"/>
<defs>
<filter id="filter0_f_680_14625" x="0.234321" y="2.93745" width="5.62755" height="5.62755" filterUnits="userSpaceOnUse" color-interpolation-filters="sRGB">
<feFlood flood-opacity="0" result="BackgroundImageFix"/>
<feBlend mode="normal" in="SourceGraphic" in2="BackgroundImageFix" result="shape"/>
<feGaussianBlur stdDeviation="0.0586207" result="effect1_foregroundBlur_680_14625"/>
</filter>
<filter id="filter1_f_680_14625" x="24.145" y="4.26019" width="5.21058" height="5.2118" filterUnits="userSpaceOnUse" color-interpolation-filters="sRGB">
<feFlood flood-opacity="0" result="BackgroundImageFix"/>
<feBlend mode="normal" in="SourceGraphic" in2="BackgroundImageFix" result="shape"/>
<feGaussianBlur stdDeviation="0.223422" result="effect1_foregroundBlur_680_14625"/>
</filter>
<filter id="filter2_d_680_14625" x="21.4634" y="4.40769" width="7.59374" height="7.59496" filterUnits="userSpaceOnUse" color-interpolation-filters="sRGB">
<feFlood flood-opacity="0" result="BackgroundImageFix"/>
<feColorMatrix in="SourceAlpha" type="matrix" values="0 0 0 0 0 0 0 0 0 0 0 0 0 0 0 0 0 0 127 0" result="hardAlpha"/>
<feOffset dx="-1.63842" dy="1.48948"/>
<feGaussianBlur stdDeviation="0.819212"/>
<feComposite in2="hardAlpha" operator="out"/>
<feColorMatrix type="matrix" values="0 0 0 0 0.980392 0 0 0 0 0.498039 0 0 0 0 0.0117647 0 0 0 0.79 0"/>
<feBlend mode="normal" in2="BackgroundImageFix" result="effect1_dropShadow_680_14625"/>
<feBlend mode="normal" in="SourceGraphic" in2="effect1_dropShadow_680_14625" result="shape"/>
</filter>
<filter id="filter3_d_680_14625" x="-2.3549" y="6.34366" width="35.433" height="35.4413" filterUnits="userSpaceOnUse" color-interpolation-filters="sRGB">
<feFlood flood-opacity="0" result="BackgroundImageFix"/>
<feColorMatrix in="SourceAlpha" type="matrix" values="0 0 0 0 0 0 0 0 0 0 0 0 0 0 0 0 0 0 127 0" result="hardAlpha"/>
<feOffset dx="-1.63842" dy="3.87264"/>
<feGaussianBlur stdDeviation="2.23422"/>
<feComposite in2="hardAlpha" operator="out"/>
<feColorMatrix type="matrix" values="0 0 0 0 0.956863 0 0 0 0 0.419608 0 0 0 0 0.0862745 0 0 0 0.82 0"/>
<feBlend mode="normal" in2="BackgroundImageFix" result="effect1_dropShadow_680_14625"/>
<feBlend mode="normal" in="SourceGraphic" in2="effect1_dropShadow_680_14625" result="shape"/>
</filter>
<filter id="filter4_d_680_14625" x="4.79257" y="9.61752" width="22.3301" height="22.3362" filterUnits="userSpaceOnUse" color-interpolation-filters="sRGB">
<feFlood flood-opacity="0" result="BackgroundImageFix"/>
<feColorMatrix in="SourceAlpha" type="matrix" values="0 0 0 0 0 0 0 0 0 0 0 0 0 0 0 0 0 0 127 0" result="hardAlpha"/>
<feOffset dx="-1.04263" dy="0.595791"/>
<feGaussianBlur stdDeviation="0.819212"/>
<feComposite in2="hardAlpha" operator="out"/>
<feColorMatrix type="matrix" values="0 0 0 0 0.968627 0 0 0 0 0.0470588 0 0 0 0 0.309804 0 0 0 1 0"/>
<feBlend mode="normal" in2="BackgroundImageFix" result="effect1_dropShadow_680_14625"/>
<feBlend mode="normal" in="SourceGraphic" in2="effect1_dropShadow_680_14625" result="shape"/>
</filter>
<filter id="filter5_di_680_14625" x="9.4069" y="14.6816" width="13.8451" height="14.8912" filterUnits="userSpaceOnUse" color-interpolation-filters="sRGB">
<feFlood flood-opacity="0" result="BackgroundImageFix"/>
<feColorMatrix in="SourceAlpha" type="matrix" values="0 0 0 0 0 0 0 0 0 0 0 0 0 0 0 0 0 0 127 0" result="hardAlpha"/>
<feOffset dx="-0.893687" dy="1.34053"/>
<feGaussianBlur stdDeviation="0.670265"/>
<feComposite in2="hardAlpha" operator="out"/>
<feColorMatrix type="matrix" values="0 0 0 0 0.968627 0 0 0 0 0.113725 0 0 0 0 0.270588 0 0 0 1 0"/>
<feBlend mode="normal" in2="BackgroundImageFix" result="effect1_dropShadow_680_14625"/>
<feBlend mode="normal" in="SourceGraphic" in2="effect1_dropShadow_680_14625" result="shape"/>
<feColorMatrix in="SourceAlpha" type="matrix" values="0 0 0 0 0 0 0 0 0 0 0 0 0 0 0 0 0 0 127 0" result="hardAlpha"/>
<feOffset dx="-1.04263" dy="3.72369"/>
<feGaussianBlur stdDeviation="2.60658"/>
<feComposite in2="hardAlpha" operator="arithmetic" k2="-1" k3="1"/>
<feColorMatrix type="matrix" values="0 0 0 0 0.992157 0 0 0 0 0.584314 0 0 0 0 0.0784314 0 0 0 1 0"/>
<feBlend mode="normal" in2="shape" result="effect2_innerShadow_680_14625"/>
</filter>
<linearGradient id="paint0_linear_680_14625" x1="29.369" y1="-0.0238104" x2="3.32766" y2="34.3786" gradientUnits="userSpaceOnUse">
<stop stop-color="#FDD01F"/>
<stop offset="0.369907" stop-color="#FDD320"/>
<stop offset="0.496817" stop-color="#F8C240"/>
<stop offset="1" stop-color="#F8861B"/>
</linearGradient>
<linearGradient id="paint1_linear_680_14625" x1="17" y1="2" x2="17" y2="36" gradientUnits="userSpaceOnUse">
<stop stop-color="#FDE77F"/>
<stop offset="1" stop-color="#F99D40"/>
</linearGradient>
<linearGradient id="paint2_linear_680_14625" x1="5.39294" y1="5.51676" x2="1.34811" y2="6.63055" gradientUnits="userSpaceOnUse">
<stop stop-color="#FCAF0C"/>
<stop offset="1" stop-color="#FCB50D" stop-opacity="0"/>
</linearGradient>
<linearGradient id="paint3_linear_680_14625" x1="29.6305" y1="7.14221" x2="31.4381" y2="2.99011" gradientUnits="userSpaceOnUse">
<stop stop-color="#FFDD4D"/>
<stop offset="1" stop-color="#FEF4CB"/>
</linearGradient>
<linearGradient id="paint4_linear_680_14625" x1="25.1872" y1="7.53614" x2="27.6443" y2="4.18661" gradientUnits="userSpaceOnUse">
<stop stop-color="#F97B04"/>
<stop offset="1" stop-color="#FEE43B"/>
</linearGradient>
<linearGradient id="paint5_linear_680_14625" x1="27.941" y1="4.85593" x2="24.1442" y2="8.27947" gradientUnits="userSpaceOnUse">
<stop stop-color="#FEF1AC"/>
<stop offset="1" stop-color="#FB7C06"/>
</linearGradient>
<linearGradient id="paint6_linear_680_14625" x1="28.015" y1="4.85444" x2="27.196" y2="5.97095" gradientUnits="userSpaceOnUse">
<stop stop-color="#FEF3B3"/>
<stop offset="1" stop-color="#FEE43B"/>
</linearGradient>
<linearGradient id="paint7_linear_680_14625" x1="25.708" y1="11.7787" x2="6.12841" y2="28.7474" gradientUnits="userSpaceOnUse">
<stop stop-color="#FFBF26"/>
<stop offset="1" stop-color="#FF2872"/>
</linearGradient>
<linearGradient id="paint8_linear_680_14625" x1="24.5171" y1="14.9801" x2="15.9571" y2="18.8495" gradientUnits="userSpaceOnUse">
<stop stop-color="#FFE171"/>
<stop offset="0.516562" stop-color="#FE9A15"/>
<stop offset="1" stop-color="#FF2086" stop-opacity="0.49"/>
</linearGradient>
<linearGradient id="paint9_linear_680_14625" x1="31.9602" y1="14.3082" x2="5.90763" y2="26.8096" gradientUnits="userSpaceOnUse">
<stop stop-color="#FFBF26"/>
<stop offset="1" stop-color="#FF2872"/>
</linearGradient>
<linearGradient id="paint10_linear_680_14625" x1="22.4059" y1="16.4422" x2="13.1278" y2="23.9095" gradientUnits="userSpaceOnUse">
<stop stop-color="#FFE171"/>
<stop offset="0.550196" stop-color="#FE9A15"/>
<stop offset="1" stop-color="#F92A4B" stop-opacity="0"/>
</linearGradient>
<linearGradient id="paint11_linear_680_14625" x1="15.9579" y1="20.191" x2="30.1054" y2="-2.36352" gradientUnits="userSpaceOnUse">
<stop stop-color="#FFBF26"/>
<stop offset="1" stop-color="#FF2872"/>
</linearGradient>
<linearGradient id="paint12_linear_680_14625" x1="20.3905" y1="18.0695" x2="10.672" y2="23.9108" gradientUnits="userSpaceOnUse">
<stop stop-color="#FFE171"/>
<stop offset="0.550196" stop-color="#FE9A15"/>
<stop offset="1" stop-color="#F92A4B"/>
</linearGradient>
<clipPath id="clip0_680_14625">
<path d="M0 13.2891C0 7.96735 0 5.30649 1.65324 3.65324C3.30649 2 5.96735 2 11.2891 2H22.7109C28.0327 2 30.6935 2 32.3468 3.65324C34 5.30649 34 7.96735 34 13.2891V24.7109C34 30.0327 34 32.6935 32.3468 34.3468C30.6935 36 28.0327 36 22.7109 36H11.2891C5.96735 36 3.30649 36 1.65324 34.3468C0 32.6935 0 30.0327 0 24.7109V13.2891Z" fill="white"/>
</clipPath>
</defs>
</svg>
