<svg width="25" height="28" viewBox="0 0 25 28" fill="none" xmlns="http://www.w3.org/2000/svg">
<path fill-rule="evenodd" clip-rule="evenodd" d="M13.8346 5.83057C14.1798 5.83057 14.4596 6.11039 14.4596 6.45557C14.4596 8.47707 14.9062 9.78995 15.7241 10.6078C16.5419 11.4257 17.8548 11.8723 19.8763 11.8723C20.2215 11.8723 20.5013 12.1521 20.5013 12.4973C20.5013 12.8424 20.2215 13.1223 19.8763 13.1223C17.8548 13.1223 16.5419 13.5688 15.7241 14.3867C14.9062 15.2045 14.4596 16.5174 14.4596 18.5389C14.4596 18.8841 14.1798 19.1639 13.8346 19.1639C13.4895 19.1639 13.2096 18.8841 13.2096 18.5389C13.2096 16.5174 12.7631 15.2045 11.9452 14.3867C11.1274 13.5688 9.81447 13.1223 7.79297 13.1223C7.44779 13.1223 7.16797 12.8424 7.16797 12.4973C7.16797 12.1521 7.44779 11.8723 7.79297 11.8723C9.81447 11.8723 11.1274 11.4257 11.9452 10.6078C12.7631 9.78995 13.2096 8.47707 13.2096 6.45557C13.2096 6.11039 13.4895 5.83057 13.8346 5.83057ZM13.8346 10.0044C13.5838 10.5717 13.2519 11.0689 12.8291 11.4917C12.4062 11.9146 11.909 12.2465 11.3418 12.4973C11.909 12.7481 12.4062 13.08 12.8291 13.5028C13.2519 13.9257 13.5838 14.4229 13.8346 14.9901C14.0854 14.4229 14.4173 13.9257 14.8402 13.5028C15.263 13.08 15.7602 12.7481 16.3275 12.4973C15.7602 12.2465 15.263 11.9146 14.8402 11.4917C14.4173 11.0689 14.0854 10.5717 13.8346 10.0044Z" fill="#CC60D5"/>
<path fill-rule="evenodd" clip-rule="evenodd" d="M13.8346 5.83057C14.1798 5.83057 14.4596 6.11039 14.4596 6.45557C14.4596 8.47707 14.9062 9.78995 15.7241 10.6078C16.5419 11.4257 17.8548 11.8723 19.8763 11.8723C20.2215 11.8723 20.5013 12.1521 20.5013 12.4973C20.5013 12.8424 20.2215 13.1223 19.8763 13.1223C17.8548 13.1223 16.5419 13.5688 15.7241 14.3867C14.9062 15.2045 14.4596 16.5174 14.4596 18.5389C14.4596 18.8841 14.1798 19.1639 13.8346 19.1639C13.4895 19.1639 13.2096 18.8841 13.2096 18.5389C13.2096 16.5174 12.7631 15.2045 11.9452 14.3867C11.1274 13.5688 9.81447 13.1223 7.79297 13.1223C7.44779 13.1223 7.16797 12.8424 7.16797 12.4973C7.16797 12.1521 7.44779 11.8723 7.79297 11.8723C9.81447 11.8723 11.1274 11.4257 11.9452 10.6078C12.7631 9.78995 13.2096 8.47707 13.2096 6.45557C13.2096 6.11039 13.4895 5.83057 13.8346 5.83057ZM13.8346 10.0044C13.5838 10.5717 13.2519 11.0689 12.8291 11.4917C12.4062 11.9146 11.909 12.2465 11.3418 12.4973C11.909 12.7481 12.4062 13.08 12.8291 13.5028C13.2519 13.9257 13.5838 14.4229 13.8346 14.9901C14.0854 14.4229 14.4173 13.9257 14.8402 13.5028C15.263 13.08 15.7602 12.7481 16.3275 12.4973C15.7602 12.2465 15.263 11.9146 14.8402 11.4917C14.4173 11.0689 14.0854 10.5717 13.8346 10.0044Z" fill="#CC8EFC"/>
<path d="M8.00276 4.58488C8.00276 4.35476 7.81621 4.16821 7.58609 4.16821C7.35598 4.16821 7.16943 4.35476 7.16943 4.58488C7.16943 5.40207 6.98842 5.89538 6.69251 6.19129C6.3966 6.4872 5.90329 6.66821 5.08609 6.66821C4.85598 6.66821 4.66943 6.85476 4.66943 7.08488C4.66943 7.31499 4.85598 7.50154 5.08609 7.50154C5.90329 7.50154 6.3966 7.68255 6.69251 7.97846C6.98842 8.27437 7.16943 8.76768 7.16943 9.58488C7.16943 9.81499 7.35598 10.0016 7.58609 10.0016C7.81621 10.0016 8.00276 9.81499 8.00276 9.58488C8.00276 8.76768 8.18377 8.27437 8.47968 7.97846C8.77559 7.68255 9.2689 7.50154 10.0861 7.50154C10.3162 7.50154 10.5028 7.31499 10.5028 7.08488C10.5028 6.85476 10.3162 6.66821 10.0861 6.66821C9.2689 6.66821 8.77559 6.4872 8.47968 6.19129C8.18377 5.89538 8.00276 5.40207 8.00276 4.58488Z" fill="#CC60D5"/>
<path d="M8.00276 4.58488C8.00276 4.35476 7.81621 4.16821 7.58609 4.16821C7.35598 4.16821 7.16943 4.35476 7.16943 4.58488C7.16943 5.40207 6.98842 5.89538 6.69251 6.19129C6.3966 6.4872 5.90329 6.66821 5.08609 6.66821C4.85598 6.66821 4.66943 6.85476 4.66943 7.08488C4.66943 7.31499 4.85598 7.50154 5.08609 7.50154C5.90329 7.50154 6.3966 7.68255 6.69251 7.97846C6.98842 8.27437 7.16943 8.76768 7.16943 9.58488C7.16943 9.81499 7.35598 10.0016 7.58609 10.0016C7.81621 10.0016 8.00276 9.81499 8.00276 9.58488C8.00276 8.76768 8.18377 8.27437 8.47968 7.97846C8.77559 7.68255 9.2689 7.50154 10.0861 7.50154C10.3162 7.50154 10.5028 7.31499 10.5028 7.08488C10.5028 6.85476 10.3162 6.66821 10.0861 6.66821C9.2689 6.66821 8.77559 6.4872 8.47968 6.19129C8.18377 5.89538 8.00276 5.40207 8.00276 4.58488Z" fill="#CC8EFC"/>
<path d="M12.1704 1.24967C12.1704 1.01955 11.9839 0.833008 11.7537 0.833008C11.5236 0.833008 11.3371 1.01955 11.3371 1.24967C11.3371 1.77751 11.2197 2.06249 11.0598 2.22241C10.8999 2.38232 10.6149 2.49967 10.0871 2.49967C9.85696 2.49967 9.67041 2.68622 9.67041 2.91634C9.67041 3.14646 9.85696 3.33301 10.0871 3.33301C10.6149 3.33301 10.8999 3.45036 11.0598 3.61027C11.2197 3.77019 11.3371 4.05517 11.3371 4.58301C11.3371 4.81312 11.5236 4.99967 11.7537 4.99967C11.9839 4.99967 12.1704 4.81312 12.1704 4.58301C12.1704 4.05517 12.2878 3.77019 12.4477 3.61027C12.6076 3.45036 12.8926 3.33301 13.4204 3.33301C13.6505 3.33301 13.837 3.14646 13.837 2.91634C13.837 2.68622 13.6505 2.49967 13.4204 2.49967C12.8926 2.49967 12.6076 2.38232 12.4477 2.22241C12.2878 2.06249 12.1704 1.77751 12.1704 1.24967Z" fill="#CC60D5"/>
<path d="M12.1704 1.24967C12.1704 1.01955 11.9839 0.833008 11.7537 0.833008C11.5236 0.833008 11.3371 1.01955 11.3371 1.24967C11.3371 1.77751 11.2197 2.06249 11.0598 2.22241C10.8999 2.38232 10.6149 2.49967 10.0871 2.49967C9.85696 2.49967 9.67041 2.68622 9.67041 2.91634C9.67041 3.14646 9.85696 3.33301 10.0871 3.33301C10.6149 3.33301 10.8999 3.45036 11.0598 3.61027C11.2197 3.77019 11.3371 4.05517 11.3371 4.58301C11.3371 4.81312 11.5236 4.99967 11.7537 4.99967C11.9839 4.99967 12.1704 4.81312 12.1704 4.58301C12.1704 4.05517 12.2878 3.77019 12.4477 3.61027C12.6076 3.45036 12.8926 3.33301 13.4204 3.33301C13.6505 3.33301 13.837 3.14646 13.837 2.91634C13.837 2.68622 13.6505 2.49967 13.4204 2.49967C12.8926 2.49967 12.6076 2.38232 12.4477 2.22241C12.2878 2.06249 12.1704 1.77751 12.1704 1.24967Z" fill="#CC8EFC"/>
<g clip-path="url(#clip0_186_13750)" filter="url(#filter0_d_186_13750)">
<g filter="url(#filter1_f_186_13750)">
<path fill-rule="evenodd" clip-rule="evenodd" d="M13.8346 5.83057C14.1798 5.83057 14.4596 6.11039 14.4596 6.45557C14.4596 8.47707 14.9062 9.78995 15.7241 10.6078C16.5419 11.4257 17.8548 11.8723 19.8763 11.8723C20.2215 11.8723 20.5013 12.1521 20.5013 12.4973C20.5013 12.8424 20.2215 13.1223 19.8763 13.1223C17.8548 13.1223 16.5419 13.5688 15.7241 14.3867C14.9062 15.2045 14.4596 16.5174 14.4596 18.5389C14.4596 18.8841 14.1798 19.1639 13.8346 19.1639C13.4895 19.1639 13.2096 18.8841 13.2096 18.5389C13.2096 16.5174 12.7631 15.2045 11.9452 14.3867C11.1274 13.5688 9.81447 13.1223 7.79297 13.1223C7.44779 13.1223 7.16797 12.8424 7.16797 12.4973C7.16797 12.1521 7.44779 11.8723 7.79297 11.8723C9.81447 11.8723 11.1274 11.4257 11.9452 10.6078C12.7631 9.78995 13.2096 8.47707 13.2096 6.45557C13.2096 6.11039 13.4895 5.83057 13.8346 5.83057ZM13.8346 10.0044C13.5838 10.5717 13.2519 11.0689 12.8291 11.4917C12.4062 11.9146 11.909 12.2465 11.3418 12.4973C11.909 12.7481 12.4062 13.08 12.8291 13.5028C13.2519 13.9257 13.5838 14.4229 13.8346 14.9901C14.0854 14.4229 14.4173 13.9257 14.8402 13.5028C15.263 13.08 15.7602 12.7481 16.3275 12.4973C15.7602 12.2465 15.263 11.9146 14.8402 11.4917C14.4173 11.0689 14.0854 10.5717 13.8346 10.0044Z" fill="#CC60D5"/>
<path fill-rule="evenodd" clip-rule="evenodd" d="M13.8346 5.83057C14.1798 5.83057 14.4596 6.11039 14.4596 6.45557C14.4596 8.47707 14.9062 9.78995 15.7241 10.6078C16.5419 11.4257 17.8548 11.8723 19.8763 11.8723C20.2215 11.8723 20.5013 12.1521 20.5013 12.4973C20.5013 12.8424 20.2215 13.1223 19.8763 13.1223C17.8548 13.1223 16.5419 13.5688 15.7241 14.3867C14.9062 15.2045 14.4596 16.5174 14.4596 18.5389C14.4596 18.8841 14.1798 19.1639 13.8346 19.1639C13.4895 19.1639 13.2096 18.8841 13.2096 18.5389C13.2096 16.5174 12.7631 15.2045 11.9452 14.3867C11.1274 13.5688 9.81447 13.1223 7.79297 13.1223C7.44779 13.1223 7.16797 12.8424 7.16797 12.4973C7.16797 12.1521 7.44779 11.8723 7.79297 11.8723C9.81447 11.8723 11.1274 11.4257 11.9452 10.6078C12.7631 9.78995 13.2096 8.47707 13.2096 6.45557C13.2096 6.11039 13.4895 5.83057 13.8346 5.83057ZM13.8346 10.0044C13.5838 10.5717 13.2519 11.0689 12.8291 11.4917C12.4062 11.9146 11.909 12.2465 11.3418 12.4973C11.909 12.7481 12.4062 13.08 12.8291 13.5028C13.2519 13.9257 13.5838 14.4229 13.8346 14.9901C14.0854 14.4229 14.4173 13.9257 14.8402 13.5028C15.263 13.08 15.7602 12.7481 16.3275 12.4973C15.7602 12.2465 15.263 11.9146 14.8402 11.4917C14.4173 11.0689 14.0854 10.5717 13.8346 10.0044Z" fill="#CC8EFC"/>
</g>
<g filter="url(#filter2_f_186_13750)">
<path d="M8.00276 4.58488C8.00276 4.35476 7.81621 4.16821 7.58609 4.16821C7.35598 4.16821 7.16943 4.35476 7.16943 4.58488C7.16943 5.40207 6.98842 5.89538 6.69251 6.19129C6.3966 6.4872 5.90329 6.66821 5.08609 6.66821C4.85598 6.66821 4.66943 6.85476 4.66943 7.08488C4.66943 7.31499 4.85598 7.50154 5.08609 7.50154C5.90329 7.50154 6.3966 7.68255 6.69251 7.97846C6.98842 8.27437 7.16943 8.76768 7.16943 9.58488C7.16943 9.81499 7.35598 10.0016 7.58609 10.0016C7.81621 10.0016 8.00276 9.81499 8.00276 9.58488C8.00276 8.76768 8.18377 8.27437 8.47968 7.97846C8.77559 7.68255 9.2689 7.50154 10.0861 7.50154C10.3162 7.50154 10.5028 7.31499 10.5028 7.08488C10.5028 6.85476 10.3162 6.66821 10.0861 6.66821C9.2689 6.66821 8.77559 6.4872 8.47968 6.19129C8.18377 5.89538 8.00276 5.40207 8.00276 4.58488Z" fill="#CC60D5"/>
<path d="M8.00276 4.58488C8.00276 4.35476 7.81621 4.16821 7.58609 4.16821C7.35598 4.16821 7.16943 4.35476 7.16943 4.58488C7.16943 5.40207 6.98842 5.89538 6.69251 6.19129C6.3966 6.4872 5.90329 6.66821 5.08609 6.66821C4.85598 6.66821 4.66943 6.85476 4.66943 7.08488C4.66943 7.31499 4.85598 7.50154 5.08609 7.50154C5.90329 7.50154 6.3966 7.68255 6.69251 7.97846C6.98842 8.27437 7.16943 8.76768 7.16943 9.58488C7.16943 9.81499 7.35598 10.0016 7.58609 10.0016C7.81621 10.0016 8.00276 9.81499 8.00276 9.58488C8.00276 8.76768 8.18377 8.27437 8.47968 7.97846C8.77559 7.68255 9.2689 7.50154 10.0861 7.50154C10.3162 7.50154 10.5028 7.31499 10.5028 7.08488C10.5028 6.85476 10.3162 6.66821 10.0861 6.66821C9.2689 6.66821 8.77559 6.4872 8.47968 6.19129C8.18377 5.89538 8.00276 5.40207 8.00276 4.58488Z" fill="#CC8EFC"/>
</g>
<g filter="url(#filter3_f_186_13750)">
<path d="M12.1704 1.24967C12.1704 1.01955 11.9839 0.833008 11.7537 0.833008C11.5236 0.833008 11.3371 1.01955 11.3371 1.24967C11.3371 1.77751 11.2197 2.06249 11.0598 2.22241C10.8999 2.38232 10.6149 2.49967 10.0871 2.49967C9.85696 2.49967 9.67041 2.68622 9.67041 2.91634C9.67041 3.14646 9.85696 3.33301 10.0871 3.33301C10.6149 3.33301 10.8999 3.45036 11.0598 3.61027C11.2197 3.77019 11.3371 4.05517 11.3371 4.58301C11.3371 4.81312 11.5236 4.99967 11.7537 4.99967C11.9839 4.99967 12.1704 4.81312 12.1704 4.58301C12.1704 4.05517 12.2878 3.77019 12.4477 3.61027C12.6076 3.45036 12.8926 3.33301 13.4204 3.33301C13.6505 3.33301 13.837 3.14646 13.837 2.91634C13.837 2.68622 13.6505 2.49967 13.4204 2.49967C12.8926 2.49967 12.6076 2.38232 12.4477 2.22241C12.2878 2.06249 12.1704 1.77751 12.1704 1.24967Z" fill="#CC60D5"/>
<path d="M12.1704 1.24967C12.1704 1.01955 11.9839 0.833008 11.7537 0.833008C11.5236 0.833008 11.3371 1.01955 11.3371 1.24967C11.3371 1.77751 11.2197 2.06249 11.0598 2.22241C10.8999 2.38232 10.6149 2.49967 10.0871 2.49967C9.85696 2.49967 9.67041 2.68622 9.67041 2.91634C9.67041 3.14646 9.85696 3.33301 10.0871 3.33301C10.6149 3.33301 10.8999 3.45036 11.0598 3.61027C11.2197 3.77019 11.3371 4.05517 11.3371 4.58301C11.3371 4.81312 11.5236 4.99967 11.7537 4.99967C11.9839 4.99967 12.1704 4.81312 12.1704 4.58301C12.1704 4.05517 12.2878 3.77019 12.4477 3.61027C12.6076 3.45036 12.8926 3.33301 13.4204 3.33301C13.6505 3.33301 13.837 3.14646 13.837 2.91634C13.837 2.68622 13.6505 2.49967 13.4204 2.49967C12.8926 2.49967 12.6076 2.38232 12.4477 2.22241C12.2878 2.06249 12.1704 1.77751 12.1704 1.24967Z" fill="#CC8EFC"/>
</g>
</g>
<defs>
<filter id="filter0_d_186_13750" x="-1" y="0" width="28" height="28" filterUnits="userSpaceOnUse" color-interpolation-filters="sRGB">
<feFlood flood-opacity="0" result="BackgroundImageFix"/>
<feColorMatrix in="SourceAlpha" type="matrix" values="0 0 0 0 0 0 0 0 0 0 0 0 0 0 0 0 0 0 127 0" result="hardAlpha"/>
<feOffset dy="4"/>
<feGaussianBlur stdDeviation="2"/>
<feComposite in2="hardAlpha" operator="out"/>
<feColorMatrix type="matrix" values="0 0 0 0 0 0 0 0 0 0 0 0 0 0 0 0 0 0 0.25 0"/>
<feBlend mode="normal" in2="BackgroundImageFix" result="effect1_dropShadow_186_13750"/>
<feBlend mode="normal" in="SourceGraphic" in2="effect1_dropShadow_186_13750" result="shape"/>
</filter>
<filter id="filter1_f_186_13750" x="5.16797" y="3.83057" width="17.3335" height="17.3333" filterUnits="userSpaceOnUse" color-interpolation-filters="sRGB">
<feFlood flood-opacity="0" result="BackgroundImageFix"/>
<feBlend mode="normal" in="SourceGraphic" in2="BackgroundImageFix" result="shape"/>
<feGaussianBlur stdDeviation="1" result="effect1_foregroundBlur_186_13750"/>
</filter>
<filter id="filter2_f_186_13750" x="2.66943" y="2.16821" width="9.8335" height="9.83325" filterUnits="userSpaceOnUse" color-interpolation-filters="sRGB">
<feFlood flood-opacity="0" result="BackgroundImageFix"/>
<feBlend mode="normal" in="SourceGraphic" in2="BackgroundImageFix" result="shape"/>
<feGaussianBlur stdDeviation="1" result="effect1_foregroundBlur_186_13750"/>
</filter>
<filter id="filter3_f_186_13750" x="7.67041" y="-1.16699" width="8.1665" height="8.16675" filterUnits="userSpaceOnUse" color-interpolation-filters="sRGB">
<feFlood flood-opacity="0" result="BackgroundImageFix"/>
<feBlend mode="normal" in="SourceGraphic" in2="BackgroundImageFix" result="shape"/>
<feGaussianBlur stdDeviation="1" result="effect1_foregroundBlur_186_13750"/>
</filter>
<clipPath id="clip0_186_13750">
<rect width="20" height="20" fill="white" transform="translate(3)"/>
</clipPath>
</defs>
</svg>
