<svg width="24" height="24" viewBox="0 0 24 24" fill="none" xmlns="http://www.w3.org/2000/svg">
<path d="M16.25 12C18.5972 12 20.5 10.0972 20.5 7.75C20.5 5.40279 18.5972 3.5 16.25 3.5C13.9028 3.5 12 5.40279 12 7.75C12 8.42986 12.1596 9.07244 12.4435 9.6423C12.5189 9.79374 12.544 9.96683 12.5003 10.1303L12.2471 11.0763C12.1373 11.487 12.513 11.8627 12.9237 11.7529L13.8697 11.4997C14.0332 11.456 14.2063 11.4811 14.3577 11.5565C14.9276 11.8404 15.5701 12 16.25 12Z" stroke="#FFDB2B" stroke-width="1.275"/>
<path d="M13.7856 15.4231L13.3234 14.984V14.984L13.7856 15.4231ZM14.1727 15.0155L14.635 15.4545L14.1727 15.0155ZM16.2269 14.7304L15.9089 15.2829L15.9089 15.2829L16.2269 14.7304ZM17.8508 15.6651L17.5328 16.2176L17.8508 15.6651ZM18.3084 18.5946L18.7706 19.0337H18.7706L18.3084 18.5946ZM17.101 19.8659L16.6387 19.4268L17.101 19.8659ZM15.9748 20.4686L16.0375 21.103L15.9748 20.4686ZM7.59306 16.6539L8.05528 16.2148L7.59306 16.6539ZM3.50245 8.571L2.86587 8.60516L2.86587 8.60517L3.50245 8.571ZM9.00589 9.8776L9.46812 10.3166V10.3166L9.00589 9.8776ZM9.13911 7.48909L9.65964 7.12105V7.12105L9.13911 7.48909ZM8.06727 5.97312L7.54673 6.34116L7.54673 6.34116L8.06727 5.97312ZM5.42223 5.7173L5.88446 6.15633V6.15633L5.42223 5.7173ZM4.08807 7.12192L3.62585 6.68288L3.62585 6.68288L4.08807 7.12192ZM10.3537 13.7475L10.8159 13.3084L10.3537 13.7475ZM14.2478 15.8621L14.635 15.4545L13.7105 14.5765L13.3234 14.984L14.2478 15.8621ZM15.9089 15.2829L17.5328 16.2176L18.1688 15.1126L16.5449 14.1779L15.9089 15.2829ZM17.8462 18.1556L16.6387 19.4268L17.5632 20.3049L18.7706 19.0337L17.8462 18.1556ZM15.9122 19.8342C14.6925 19.9546 11.5098 19.8518 8.05528 16.2148L7.13083 17.0929C10.8958 21.0567 14.4872 21.256 16.0375 21.103L15.9122 19.8342ZM8.05528 16.2148C4.76057 12.7461 4.20792 9.82017 4.13904 8.53683L2.86587 8.60517C2.95024 10.177 3.61764 13.3942 7.13083 17.0929L8.05528 16.2148ZM9.22432 10.5733L9.46812 10.3166L8.54367 9.43856L8.29987 9.69523L9.22432 10.5733ZM9.65964 7.12105L8.5878 5.60509L7.54673 6.34116L8.61857 7.85712L9.65964 7.12105ZM4.96001 5.27826L3.62585 6.68288L4.5503 7.56096L5.88446 6.15633L4.96001 5.27826ZM8.7621 10.1343C8.29987 9.69523 8.29929 9.69585 8.29869 9.69647C8.29849 9.69669 8.2979 9.69732 8.29749 9.69775C8.29668 9.69861 8.29586 9.69949 8.29502 9.70039C8.29335 9.70219 8.29162 9.70407 8.28984 9.70603C8.28627 9.70995 8.28249 9.71419 8.27851 9.71877C8.27056 9.72791 8.26183 9.73837 8.25249 9.75017C8.2338 9.77378 8.21266 9.8028 8.19049 9.83745C8.14602 9.90695 8.0978 9.99846 8.05696 10.1132C7.97391 10.3466 7.92865 10.6557 7.9852 11.0416C8.09631 11.7999 8.59318 12.8197 9.89143 14.1865L10.8159 13.3084C9.60237 12.0308 9.30347 11.244 9.24673 10.8568C9.21936 10.67 9.24717 10.5716 9.25817 10.5407C9.26435 10.5233 9.2684 10.5185 9.26444 10.5247C9.26252 10.5277 9.2587 10.5333 9.25227 10.5414C9.24905 10.5455 9.24518 10.5502 9.24056 10.5555C9.23825 10.5581 9.23574 10.561 9.23304 10.5639C9.23169 10.5654 9.23029 10.5669 9.22884 10.5685C9.22811 10.5693 9.22737 10.5701 9.22662 10.5709C9.22624 10.5713 9.22567 10.5719 9.22548 10.5721C9.2249 10.5727 9.22432 10.5733 8.7621 10.1343ZM9.89143 14.1865C11.1859 15.5493 12.1635 16.085 12.9093 16.2062C13.2921 16.2683 13.6019 16.2187 13.8365 16.1262C13.9512 16.0809 14.0419 16.0278 14.11 15.9795C14.1439 15.9554 14.1722 15.9326 14.1951 15.9126C14.2065 15.9025 14.2166 15.8932 14.2253 15.8847C14.2297 15.8805 14.2338 15.8765 14.2375 15.8727C14.2394 15.8708 14.2412 15.869 14.2429 15.8672C14.2438 15.8663 14.2446 15.8655 14.2454 15.8646C14.2458 15.8642 14.2464 15.8636 14.2467 15.8634C14.2472 15.8627 14.2478 15.8621 13.7856 15.4231C13.3234 14.984 13.324 14.9834 13.3245 14.9828C13.3247 14.9826 13.3253 14.982 13.3257 14.9816C13.3265 14.9808 13.3272 14.98 13.328 14.9793C13.3294 14.9777 13.3309 14.9763 13.3323 14.9748C13.3352 14.972 13.3379 14.9693 13.3404 14.9668C13.3456 14.9619 13.3502 14.9576 13.3543 14.9541C13.3624 14.9469 13.3685 14.9423 13.3724 14.9395C13.3803 14.9339 13.3795 14.9358 13.3687 14.9401C13.3522 14.9466 13.275 14.9739 13.1137 14.9477C12.7716 14.8921 12.0332 14.59 10.8159 13.3084L9.89143 14.1865ZM8.5878 5.60509C7.72625 4.38654 6.00226 4.18096 4.96001 5.27826L5.88446 6.15633C6.32887 5.68846 7.11123 5.72521 7.54673 6.34116L8.5878 5.60509ZM4.13904 8.53683C4.12082 8.19742 4.26861 7.85751 4.5503 7.56096L3.62585 6.68288C3.17037 7.16241 2.82419 7.82855 2.86587 8.60516L4.13904 8.53683ZM16.6387 19.4268C16.4015 19.6765 16.1534 19.8104 15.9122 19.8342L16.0375 21.103C16.6725 21.0403 17.1863 20.7016 17.5632 20.3049L16.6387 19.4268ZM9.46812 10.3166C10.2906 9.45076 10.3488 8.09572 9.65964 7.12105L8.61857 7.85712C8.9774 8.36463 8.92237 9.03985 8.54367 9.43856L9.46812 10.3166ZM17.5328 16.2176C18.2305 16.6193 18.3671 17.6072 17.8462 18.1556L18.7706 19.0337C19.8799 17.8658 19.5568 15.9115 18.1688 15.1126L17.5328 16.2176ZM14.635 15.4545C14.9626 15.1096 15.4731 15.0321 15.9089 15.2829L16.5449 14.1779C15.6112 13.6405 14.4532 13.7945 13.7105 14.5765L14.635 15.4545Z" fill="#FFDB2B"/>
</svg>
