<svg width="44" height="50" viewBox="0 0 44 50" fill="none" xmlns="http://www.w3.org/2000/svg">
<path d="M20.9201 23.9173L0.957031 45.1047C0.958906 45.1085 0.958906 45.1141 0.960781 45.1178C1.5739 47.4185 3.67389 49.1116 6.16763 49.1116C7.16513 49.1116 8.10075 48.8416 8.90324 48.3691L8.96699 48.3316L31.4369 35.366L20.9201 23.9173Z" fill="#EA4335"/>
<path d="M41.1151 20.3095L41.0963 20.2963L31.3951 14.6733L20.4658 24.3988L31.4345 35.3638L41.0832 29.7969C42.7745 28.8819 43.9238 27.0988 43.9238 25.0438C43.9238 23.0001 42.7913 21.2263 41.1151 20.3095Z" fill="#FBBC04"/>
<path d="M0.95621 4.89182C0.836211 5.33431 0.772461 5.79931 0.772461 6.27931V43.7191C0.772461 44.1991 0.836211 44.6641 0.958085 45.1047L21.6055 24.4592L0.95621 4.89182Z" fill="#4285F4"/>
<path d="M21.0672 24.9988L31.3984 14.6695L8.95476 1.65702C8.13914 1.16765 7.18665 0.886404 6.16853 0.886404C3.67479 0.886404 1.57105 2.58327 0.957929 4.88576C0.957929 4.88763 0.956055 4.88951 0.956055 4.89138L21.0672 24.9988Z" fill="#34A853"/>
</svg>
