<svg width="43" height="44" viewBox="0 0 43 44" fill="none" xmlns="http://www.w3.org/2000/svg">
<g clip-path="url(#clip0_292_972)">
<path d="M19.1463 28.2902C19.2294 28.2907 19.3118 28.2747 19.3887 28.2433C19.4656 28.2119 19.5355 28.1656 19.5945 28.1071C19.6537 28.0484 19.7007 27.9786 19.7327 27.9017C19.7648 27.8248 19.7812 27.7423 19.7812 27.6589C19.7812 27.5756 19.7648 27.4931 19.7327 27.4162C19.7007 27.3392 19.6537 27.2694 19.5945 27.2107L14.3552 21.9777L19.5945 16.7446C19.7134 16.6258 19.7802 16.4645 19.7802 16.2964C19.7802 16.1283 19.7134 15.9671 19.5945 15.8482C19.4757 15.7294 19.3144 15.6626 19.1463 15.6626C18.9782 15.6626 18.817 15.7294 18.6982 15.8482L13.0169 21.5295C12.9577 21.5882 12.9108 21.658 12.8787 21.7349C12.8467 21.8118 12.8302 21.8943 12.8302 21.9777C12.8302 22.061 12.8467 22.1435 12.8787 22.2204C12.9108 22.2974 12.9577 22.3672 13.0169 22.4259L18.6982 28.1071C18.7571 28.1656 18.8271 28.2119 18.904 28.2433C18.9809 28.2747 19.0633 28.2907 19.1463 28.2902Z" fill="white"/>
<path d="M13.4687 22.6089H28.6187C28.7862 22.6089 28.9467 22.5424 29.0651 22.424C29.1835 22.3057 29.25 22.1451 29.25 21.9777C29.25 21.8103 29.1835 21.6497 29.0651 21.5313C28.9467 21.4129 28.7862 21.3464 28.6187 21.3464H13.4687C13.3013 21.3464 13.1408 21.4129 13.0224 21.5313C12.904 21.6497 12.8375 21.8103 12.8375 21.9777C12.8375 22.1451 12.904 22.3057 13.0224 22.424C13.1408 22.5424 13.3013 22.6089 13.4687 22.6089Z" fill="white"/>
</g>
<circle cx="21.0417" cy="21.9782" r="20.5417" fill="#D9D9D9" fill-opacity="0.03"/>
<circle cx="21.0417" cy="21.9782" r="20.5417" stroke="#FEDC50"/>
<circle cx="21.0417" cy="21.9782" r="20.5417" stroke="url(#paint0_linear_292_972)"/>
<defs>
<linearGradient id="paint0_linear_292_972" x1="40.7216" y1="43.02" x2="4.91346" y2="42.8038" gradientUnits="userSpaceOnUse">
<stop stop-color="#FDD220"/>
<stop offset="1" stop-color="white"/>
</linearGradient>
<clipPath id="clip0_292_972">
<rect width="20.2" height="20.2" fill="white" transform="matrix(-1 0 0 1 31.1445 11.8779)"/>
</clipPath>
</defs>
</svg>
