<svg width="552" height="374" viewBox="0 0 552 374" fill="none" xmlns="http://www.w3.org/2000/svg">
<g filter="url(#filter0_b_779_3615)">
<rect x="0.444172" y="0.444172" width="551.112" height="373.112" rx="44.5558" stroke="url(#paint0_linear_779_3615)" stroke-opacity="0.8" stroke-width="0.888344"/>
</g>
<g filter="url(#filter1_b_779_3615)">
<rect x="13" y="13" width="525" height="348" rx="30" fill="url(#paint1_linear_779_3615)"/>
<rect x="13.4442" y="13.4442" width="524.112" height="347.112" rx="29.5558" stroke="url(#paint2_linear_779_3615)" stroke-opacity="0.8" stroke-width="0.888344"/>
<path d="M68.3277 292.92H74.8077V294H67.0677V282.74H74.6077V283.88H68.3277V287.76H73.3077V288.84H68.3277V292.92ZM76.258 294V285.86H77.358L77.438 287.88H77.478C77.5047 287.787 77.5647 287.633 77.658 287.42C77.7514 287.193 77.898 286.96 78.098 286.72C78.298 286.48 78.558 286.28 78.878 286.12C79.198 285.947 79.6047 285.86 80.098 285.86C80.8447 285.86 81.3914 286.067 81.738 286.48C82.098 286.893 82.338 287.36 82.458 287.88H82.498C82.538 287.787 82.6114 287.633 82.718 287.42C82.8247 287.193 82.9847 286.96 83.198 286.72C83.4114 286.48 83.6847 286.28 84.018 286.12C84.3647 285.947 84.7847 285.86 85.278 285.86C85.798 285.86 86.2247 285.967 86.558 286.18C86.8914 286.38 87.1447 286.653 87.318 287C87.5047 287.333 87.638 287.687 87.718 288.06C87.798 288.433 87.8447 288.793 87.858 289.14C87.8714 289.487 87.878 289.767 87.878 289.98V294H86.758V289.98C86.758 289.767 86.7447 289.493 86.718 289.16C86.6914 288.827 86.6247 288.5 86.518 288.18C86.4114 287.847 86.2247 287.573 85.958 287.36C85.7047 287.133 85.338 287.02 84.858 287.02C84.3247 287.02 83.898 287.167 83.578 287.46C83.258 287.753 83.0247 288.14 82.878 288.62C82.7314 289.087 82.658 289.593 82.658 290.14V294H81.538V289.98C81.538 289.767 81.5247 289.493 81.498 289.16C81.4714 288.827 81.4047 288.5 81.298 288.18C81.1914 287.847 81.0047 287.573 80.738 287.36C80.4847 287.133 80.118 287.02 79.638 287.02C79.1047 287.02 78.678 287.167 78.358 287.46C78.038 287.753 77.8047 288.14 77.658 288.62C77.5114 289.087 77.438 289.593 77.438 290.14V294H76.258ZM94.0012 294.2C93.4812 294.2 93.0345 294.113 92.6612 293.94C92.3012 293.753 92.0078 293.54 91.7812 293.3C91.5545 293.06 91.3812 292.833 91.2612 292.62C91.1545 292.407 91.0878 292.267 91.0612 292.2H91.0212V297.36H89.7012V285.86H90.8012L91.0212 287.9H91.0612C91.0878 287.833 91.1545 287.693 91.2612 287.48C91.3678 287.267 91.5278 287.033 91.7412 286.78C91.9678 286.527 92.2612 286.313 92.6212 286.14C92.9945 285.953 93.4545 285.86 94.0012 285.86C94.7878 285.86 95.4412 286.04 95.9612 286.4C96.4945 286.76 96.8945 287.26 97.1612 287.9C97.4412 288.527 97.5812 289.247 97.5812 290.06C97.5812 291.273 97.2745 292.267 96.6612 293.04C96.0478 293.813 95.1612 294.2 94.0012 294.2ZM93.7412 293.06C94.3678 293.06 94.8678 292.913 95.2412 292.62C95.6278 292.327 95.9012 291.953 96.0612 291.5C96.2345 291.033 96.3212 290.547 96.3212 290.04C96.3212 289.52 96.2278 289.033 96.0412 288.58C95.8545 288.127 95.5612 287.76 95.1612 287.48C94.7745 287.187 94.2612 287.04 93.6212 287.04C92.8478 287.04 92.2278 287.313 91.7612 287.86C91.2945 288.393 91.0612 289.12 91.0612 290.04C91.0612 290.973 91.3078 291.713 91.8012 292.26C92.2945 292.793 92.9412 293.06 93.7412 293.06ZM102.633 294.2C101.327 294.2 100.347 293.813 99.6934 293.04C99.0534 292.253 98.7334 291.253 98.7334 290.04C98.72 288.813 99.04 287.813 99.6934 287.04C100.36 286.253 101.34 285.853 102.633 285.84C103.913 285.84 104.88 286.227 105.533 287C106.2 287.76 106.533 288.773 106.533 290.04C106.533 290.827 106.393 291.533 106.113 292.16C105.833 292.787 105.407 293.287 104.833 293.66C104.26 294.02 103.527 294.2 102.633 294.2ZM102.633 293.08C103.327 293.08 103.86 292.927 104.233 292.62C104.62 292.313 104.887 291.927 105.033 291.46C105.193 290.98 105.273 290.493 105.273 290C105.273 289.507 105.193 289.02 105.033 288.54C104.887 288.06 104.62 287.667 104.233 287.36C103.86 287.053 103.327 286.9 102.633 286.9C101.94 286.9 101.4 287.053 101.013 287.36C100.64 287.667 100.373 288.06 100.213 288.54C100.067 289.02 99.9934 289.507 99.9934 290C99.9934 290.493 100.067 290.98 100.213 291.46C100.373 291.927 100.64 292.313 101.013 292.62C101.4 292.927 101.94 293.08 102.633 293.08ZM109.574 294L107.394 286.14V285.84H108.634L110.474 292.9H110.514L112.614 285.84H113.754L115.914 292.9H115.954L117.754 285.84H118.994V286.14L116.834 294H114.994L113.214 288.08H113.174L111.414 294H109.574ZM123.767 294.2C122.873 294.2 122.133 294 121.547 293.6C120.973 293.187 120.547 292.66 120.267 292.02C120 291.367 119.867 290.693 119.867 290C119.867 289.24 120.013 288.547 120.307 287.92C120.613 287.28 121.053 286.773 121.627 286.4C122.213 286.027 122.913 285.84 123.727 285.84C124.767 285.84 125.633 286.18 126.327 286.86C127.02 287.527 127.393 288.427 127.447 289.56C127.46 289.613 127.467 289.693 127.467 289.8C127.467 289.893 127.467 289.98 127.467 290.06H121.107C121.107 291.007 121.333 291.753 121.787 292.3C122.253 292.833 122.907 293.1 123.747 293.1C124.373 293.1 124.907 292.94 125.347 292.62C125.8 292.3 126.08 291.867 126.187 291.32H127.447C127.313 292.147 126.92 292.833 126.267 293.38C125.613 293.927 124.78 294.2 123.767 294.2ZM121.147 289.36H126.147C126.147 289.08 126.067 288.747 125.907 288.36C125.76 287.973 125.507 287.64 125.147 287.36C124.8 287.067 124.32 286.92 123.707 286.92C123.147 286.92 122.687 287.04 122.327 287.28C121.967 287.52 121.693 287.827 121.507 288.2C121.32 288.573 121.2 288.96 121.147 289.36ZM129.29 294V285.86H130.45L130.59 288C130.67 287.64 130.83 287.293 131.07 286.96C131.31 286.627 131.637 286.36 132.05 286.16C132.477 285.947 133.003 285.847 133.63 285.86H134.01V287.28H133.61C132.757 287.28 132.11 287.407 131.67 287.66C131.243 287.9 130.95 288.24 130.79 288.68C130.643 289.12 130.57 289.627 130.57 290.2V294H129.29ZM145.091 294.2C144.051 294.2 143.118 293.987 142.291 293.56C141.465 293.12 140.805 292.467 140.311 291.6C139.831 290.733 139.598 289.667 139.611 288.4C139.611 287.12 139.845 286.047 140.311 285.18C140.791 284.3 141.451 283.64 142.291 283.2C143.131 282.76 144.091 282.54 145.171 282.54C146.558 282.54 147.691 282.913 148.571 283.66C149.451 284.393 150.011 285.407 150.251 286.7H148.911C148.738 285.687 148.298 284.94 147.591 284.46C146.885 283.98 146.078 283.74 145.171 283.74C143.838 283.74 142.791 284.14 142.031 284.94C141.271 285.727 140.891 286.853 140.891 288.32C140.891 289.853 141.258 291.02 141.991 291.82C142.738 292.607 143.778 293 145.111 293C146.111 293 146.965 292.76 147.671 292.28C148.378 291.787 148.811 291.04 148.971 290.04H150.331C150.091 291.32 149.525 292.333 148.631 293.08C147.751 293.827 146.571 294.2 145.091 294.2ZM155.465 294.2C154.159 294.2 153.179 293.813 152.525 293.04C151.885 292.253 151.565 291.253 151.565 290.04C151.552 288.813 151.872 287.813 152.525 287.04C153.192 286.253 154.172 285.853 155.465 285.84C156.745 285.84 157.712 286.227 158.365 287C159.032 287.76 159.365 288.773 159.365 290.04C159.365 290.827 159.225 291.533 158.945 292.16C158.665 292.787 158.239 293.287 157.665 293.66C157.092 294.02 156.359 294.2 155.465 294.2ZM155.465 293.08C156.159 293.08 156.692 292.927 157.065 292.62C157.452 292.313 157.719 291.927 157.865 291.46C158.025 290.98 158.105 290.493 158.105 290C158.105 289.507 158.025 289.02 157.865 288.54C157.719 288.06 157.452 287.667 157.065 287.36C156.692 287.053 156.159 286.9 155.465 286.9C154.772 286.9 154.232 287.053 153.845 287.36C153.472 287.667 153.205 288.06 153.045 288.54C152.899 289.02 152.825 289.507 152.825 290C152.825 290.493 152.899 290.98 153.045 291.46C153.205 291.927 153.472 292.313 153.845 292.62C154.232 292.927 154.772 293.08 155.465 293.08ZM161.206 294V282.74H162.466V294H161.206ZM164.546 294V282.74H165.806V294H164.546ZM170.466 294.18C169.719 294.18 169.106 294 168.626 293.64C168.146 293.267 167.786 292.767 167.546 292.14C167.319 291.513 167.206 290.8 167.206 290C167.206 288.773 167.472 287.767 168.006 286.98C168.552 286.18 169.372 285.78 170.466 285.78C171.026 285.78 171.492 285.88 171.866 286.08C172.252 286.267 172.559 286.5 172.786 286.78C173.026 287.06 173.199 287.327 173.306 287.58H173.326V285.86H174.646V294H173.546L173.346 292.42H173.306C173.186 292.687 173.012 292.96 172.786 293.24C172.559 293.507 172.252 293.733 171.866 293.92C171.492 294.093 171.026 294.18 170.466 294.18ZM170.966 293.04C171.792 293.04 172.386 292.767 172.746 292.22C173.119 291.673 173.306 290.94 173.306 290.02C173.306 289.033 173.112 288.28 172.726 287.76C172.352 287.24 171.766 286.98 170.966 286.98C170.086 286.98 169.452 287.273 169.066 287.86C168.692 288.433 168.506 289.147 168.506 290C168.506 290.893 168.699 291.627 169.086 292.2C169.472 292.76 170.099 293.04 170.966 293.04ZM180.661 294.2C180.128 294.2 179.674 294.113 179.301 293.94C178.941 293.753 178.641 293.54 178.401 293.3C178.174 293.06 178.001 292.833 177.881 292.62C177.761 292.407 177.688 292.267 177.661 292.2H177.621L177.421 294H176.301V282.74H177.621L177.641 287.9H177.681C177.708 287.833 177.774 287.693 177.881 287.48C177.988 287.267 178.154 287.033 178.381 286.78C178.608 286.527 178.901 286.313 179.261 286.14C179.634 285.953 180.094 285.86 180.641 285.86C181.428 285.86 182.081 286.04 182.601 286.4C183.134 286.76 183.534 287.26 183.801 287.9C184.068 288.527 184.201 289.24 184.201 290.04C184.201 290.84 184.068 291.553 183.801 292.18C183.534 292.807 183.134 293.3 182.601 293.66C182.081 294.02 181.434 294.2 180.661 294.2ZM180.341 293.06C180.981 293.06 181.488 292.913 181.861 292.62C182.234 292.327 182.508 291.953 182.681 291.5C182.854 291.033 182.941 290.547 182.941 290.04C182.941 289.52 182.848 289.033 182.661 288.58C182.474 288.127 182.181 287.76 181.781 287.48C181.381 287.187 180.868 287.04 180.241 287.04C179.454 287.04 178.828 287.313 178.361 287.86C177.894 288.393 177.661 289.12 177.661 290.04C177.661 290.973 177.908 291.713 178.401 292.26C178.908 292.793 179.554 293.06 180.341 293.06ZM189.333 294.2C188.026 294.2 187.046 293.813 186.393 293.04C185.753 292.253 185.433 291.253 185.433 290.04C185.419 288.813 185.739 287.813 186.393 287.04C187.059 286.253 188.039 285.853 189.333 285.84C190.613 285.84 191.579 286.227 192.233 287C192.899 287.76 193.233 288.773 193.233 290.04C193.233 290.827 193.093 291.533 192.813 292.16C192.533 292.787 192.106 293.287 191.533 293.66C190.959 294.02 190.226 294.2 189.333 294.2ZM189.333 293.08C190.026 293.08 190.559 292.927 190.933 292.62C191.319 292.313 191.586 291.927 191.733 291.46C191.893 290.98 191.973 290.493 191.973 290C191.973 289.507 191.893 289.02 191.733 288.54C191.586 288.06 191.319 287.667 190.933 287.36C190.559 287.053 190.026 286.9 189.333 286.9C188.639 286.9 188.099 287.053 187.713 287.36C187.339 287.667 187.073 288.06 186.913 288.54C186.766 289.02 186.693 289.507 186.693 290C186.693 290.493 186.766 290.98 186.913 291.46C187.073 291.927 187.339 292.313 187.713 292.62C188.099 292.927 188.639 293.08 189.333 293.08ZM194.993 294V285.86H196.153L196.293 288C196.373 287.64 196.533 287.293 196.773 286.96C197.013 286.627 197.34 286.36 197.753 286.16C198.18 285.947 198.707 285.847 199.333 285.86H199.713V287.28H199.313C198.46 287.28 197.813 287.407 197.373 287.66C196.947 287.9 196.653 288.24 196.493 288.68C196.347 289.12 196.273 289.627 196.273 290.2V294H194.993ZM203.688 294.18C202.942 294.18 202.328 294 201.848 293.64C201.368 293.267 201.008 292.767 200.768 292.14C200.542 291.513 200.428 290.8 200.428 290C200.428 288.773 200.695 287.767 201.228 286.98C201.775 286.18 202.595 285.78 203.688 285.78C204.248 285.78 204.715 285.88 205.088 286.08C205.475 286.267 205.782 286.5 206.008 286.78C206.248 287.06 206.422 287.327 206.528 287.58H206.548V285.86H207.868V294H206.768L206.568 292.42H206.528C206.408 292.687 206.235 292.96 206.008 293.24C205.782 293.507 205.475 293.733 205.088 293.92C204.715 294.093 204.248 294.18 203.688 294.18ZM204.188 293.04C205.015 293.04 205.608 292.767 205.968 292.22C206.342 291.673 206.528 290.94 206.528 290.02C206.528 289.033 206.335 288.28 205.948 287.76C205.575 287.24 204.988 286.98 204.188 286.98C203.308 286.98 202.675 287.273 202.288 287.86C201.915 288.433 201.728 289.147 201.728 290C201.728 290.893 201.922 291.627 202.308 292.2C202.695 292.76 203.322 293.04 204.188 293.04ZM211.404 294C210.91 294 210.564 293.867 210.364 293.6C210.177 293.333 210.084 292.967 210.084 292.5V286.82H208.804V285.86C209.23 285.86 209.544 285.827 209.744 285.76C209.957 285.68 210.09 285.493 210.144 285.2C210.197 284.907 210.224 284.427 210.224 283.76H211.324V285.86H213.204V286.82H211.324V292.96H213.224V294H211.404ZM215.911 284.98C215.618 284.98 215.418 284.907 215.311 284.76C215.218 284.6 215.171 284.4 215.171 284.16C215.171 283.96 215.218 283.787 215.311 283.64C215.418 283.48 215.618 283.4 215.911 283.4C216.204 283.4 216.398 283.48 216.491 283.64C216.598 283.787 216.651 283.96 216.651 284.16C216.651 284.4 216.598 284.6 216.491 284.76C216.398 284.907 216.204 284.98 215.911 284.98ZM215.271 294V285.86H216.551V294H215.271ZM222.106 294.2C220.799 294.2 219.819 293.813 219.166 293.04C218.526 292.253 218.206 291.253 218.206 290.04C218.193 288.813 218.513 287.813 219.166 287.04C219.833 286.253 220.813 285.853 222.106 285.84C223.386 285.84 224.353 286.227 225.006 287C225.673 287.76 226.006 288.773 226.006 290.04C226.006 290.827 225.866 291.533 225.586 292.16C225.306 292.787 224.879 293.287 224.306 293.66C223.733 294.02 222.999 294.2 222.106 294.2ZM222.106 293.08C222.799 293.08 223.333 292.927 223.706 292.62C224.093 292.313 224.359 291.927 224.506 291.46C224.666 290.98 224.746 290.493 224.746 290C224.746 289.507 224.666 289.02 224.506 288.54C224.359 288.06 224.093 287.667 223.706 287.36C223.333 287.053 222.799 286.9 222.106 286.9C221.413 286.9 220.873 287.053 220.486 287.36C220.113 287.667 219.846 288.06 219.686 288.54C219.539 289.02 219.466 289.507 219.466 290C219.466 290.493 219.539 290.98 219.686 291.46C219.846 291.927 220.113 292.313 220.486 292.62C220.873 292.927 221.413 293.08 222.106 293.08ZM227.567 294V285.86H228.667L228.887 287.88H228.927C228.94 287.813 229 287.673 229.107 287.46C229.213 287.247 229.373 287.02 229.587 286.78C229.813 286.527 230.107 286.313 230.467 286.14C230.827 285.953 231.287 285.86 231.847 285.86C232.553 285.86 233.107 285.987 233.507 286.24C233.92 286.493 234.227 286.833 234.427 287.26C234.627 287.673 234.753 288.12 234.807 288.6C234.86 289.08 234.887 289.54 234.887 289.98V294H233.647V289.98C233.647 289.1 233.493 288.387 233.187 287.84C232.893 287.293 232.307 287.02 231.427 287.02C230.827 287.02 230.333 287.167 229.947 287.46C229.573 287.74 229.3 288.12 229.127 288.6C228.967 289.067 228.887 289.58 228.887 290.14V294H227.567ZM242.719 294L240.539 286.14V285.84H241.779L243.619 292.9H243.659L245.759 285.84H246.899L249.059 292.9H249.099L250.899 285.84H252.139V286.14L249.979 294H248.139L246.359 288.08H246.319L244.559 294H242.719ZM254.329 284.98C254.035 284.98 253.835 284.907 253.729 284.76C253.635 284.6 253.589 284.4 253.589 284.16C253.589 283.96 253.635 283.787 253.729 283.64C253.835 283.48 254.035 283.4 254.329 283.4C254.622 283.4 254.815 283.48 254.909 283.64C255.015 283.787 255.069 283.96 255.069 284.16C255.069 284.4 255.015 284.6 254.909 284.76C254.815 284.907 254.622 284.98 254.329 284.98ZM253.689 294V285.86H254.969V294H253.689ZM259.079 294C258.586 294 258.239 293.867 258.039 293.6C257.853 293.333 257.759 292.967 257.759 292.5V286.82H256.479V285.86C256.906 285.86 257.219 285.827 257.419 285.76C257.633 285.68 257.766 285.493 257.819 285.2C257.873 284.907 257.899 284.427 257.899 283.76H258.999V285.86H260.879V286.82H258.999V292.96H260.899V294H259.079ZM262.647 294V282.74H263.947V287.88H263.987C264.013 287.813 264.073 287.673 264.167 287.46C264.273 287.247 264.433 287.02 264.647 286.78C264.86 286.527 265.147 286.313 265.507 286.14C265.867 285.953 266.32 285.86 266.867 285.86C267.56 285.86 268.113 285.993 268.527 286.26C268.94 286.513 269.247 286.853 269.447 287.28C269.66 287.693 269.8 288.14 269.867 288.62C269.933 289.1 269.967 289.553 269.967 289.98V294H268.707V289.98C268.707 289.1 268.553 288.387 268.247 287.84C267.953 287.293 267.373 287.02 266.507 287.02C265.893 287.02 265.4 287.167 265.027 287.46C264.653 287.74 264.38 288.12 264.207 288.6C264.033 289.067 263.947 289.58 263.947 290.14V294H262.647ZM281.595 294.2C280.555 294.2 279.622 293.987 278.795 293.56C277.969 293.12 277.309 292.467 276.815 291.6C276.335 290.733 276.102 289.667 276.115 288.4C276.115 287.12 276.349 286.047 276.815 285.18C277.295 284.3 277.955 283.64 278.795 283.2C279.635 282.76 280.595 282.54 281.675 282.54C283.062 282.54 284.195 282.913 285.075 283.66C285.955 284.393 286.515 285.407 286.755 286.7H285.415C285.242 285.687 284.802 284.94 284.095 284.46C283.389 283.98 282.582 283.74 281.675 283.74C280.342 283.74 279.295 284.14 278.535 284.94C277.775 285.727 277.395 286.853 277.395 288.32C277.395 289.853 277.762 291.02 278.495 291.82C279.242 292.607 280.282 293 281.615 293C282.615 293 283.469 292.76 284.175 292.28C284.882 291.787 285.315 291.04 285.475 290.04H286.835C286.595 291.32 286.029 292.333 285.135 293.08C284.255 293.827 283.075 294.2 281.595 294.2ZM291.969 294.2C290.663 294.2 289.683 293.813 289.029 293.04C288.389 292.253 288.069 291.253 288.069 290.04C288.056 288.813 288.376 287.813 289.029 287.04C289.696 286.253 290.676 285.853 291.969 285.84C293.249 285.84 294.216 286.227 294.869 287C295.536 287.76 295.869 288.773 295.869 290.04C295.869 290.827 295.729 291.533 295.449 292.16C295.169 292.787 294.743 293.287 294.169 293.66C293.596 294.02 292.863 294.2 291.969 294.2ZM291.969 293.08C292.663 293.08 293.196 292.927 293.569 292.62C293.956 292.313 294.223 291.927 294.369 291.46C294.529 290.98 294.609 290.493 294.609 290C294.609 289.507 294.529 289.02 294.369 288.54C294.223 288.06 293.956 287.667 293.569 287.36C293.196 287.053 292.663 286.9 291.969 286.9C291.276 286.9 290.736 287.053 290.349 287.36C289.976 287.667 289.709 288.06 289.549 288.54C289.403 289.02 289.329 289.507 289.329 290C289.329 290.493 289.403 290.98 289.549 291.46C289.709 291.927 289.976 292.313 290.349 292.62C290.736 292.927 291.276 293.08 291.969 293.08ZM297.43 294V285.86H298.53L298.75 287.88H298.79C298.803 287.813 298.863 287.673 298.97 287.46C299.077 287.247 299.237 287.02 299.45 286.78C299.677 286.527 299.97 286.313 300.33 286.14C300.69 285.953 301.15 285.86 301.71 285.86C302.417 285.86 302.97 285.987 303.37 286.24C303.783 286.493 304.09 286.833 304.29 287.26C304.49 287.673 304.617 288.12 304.67 288.6C304.723 289.08 304.75 289.54 304.75 289.98V294H303.51V289.98C303.51 289.1 303.357 288.387 303.05 287.84C302.757 287.293 302.17 287.02 301.29 287.02C300.69 287.02 300.197 287.167 299.81 287.46C299.437 287.74 299.163 288.12 298.99 288.6C298.83 289.067 298.75 289.58 298.75 290.14V294H297.43ZM307.116 294.06V286.82H305.856V285.86H307.116V284.06C307.116 283.593 307.209 283.227 307.396 282.96C307.596 282.693 307.942 282.56 308.436 282.56H310.856V283.62H308.416V285.86H310.716V286.82H308.416V294.06H307.116ZM313.235 284.98C312.942 284.98 312.742 284.907 312.635 284.76C312.542 284.6 312.495 284.4 312.495 284.16C312.495 283.96 312.542 283.787 312.635 283.64C312.742 283.48 312.942 283.4 313.235 283.4C313.528 283.4 313.722 283.48 313.815 283.64C313.922 283.787 313.975 283.96 313.975 284.16C313.975 284.4 313.922 284.6 313.815 284.76C313.722 284.907 313.528 284.98 313.235 284.98ZM312.595 294V285.86H313.875V294H312.595ZM319.45 294.2C318.664 294.2 318.004 294.02 317.47 293.66C316.95 293.3 316.557 292.807 316.29 292.18C316.037 291.54 315.91 290.827 315.91 290.04C315.91 288.827 316.21 287.827 316.81 287.04C317.41 286.253 318.297 285.86 319.47 285.86C320.017 285.86 320.47 285.953 320.83 286.14C321.204 286.313 321.504 286.527 321.73 286.78C321.957 287.033 322.124 287.267 322.23 287.48C322.337 287.693 322.404 287.833 322.43 287.9H322.47L322.49 282.74H323.81V294H322.69L322.49 292.2H322.45C322.424 292.267 322.35 292.407 322.23 292.62C322.11 292.833 321.93 293.06 321.69 293.3C321.464 293.54 321.164 293.753 320.79 293.94C320.43 294.113 319.984 294.2 319.45 294.2ZM319.77 293.06C320.557 293.06 321.197 292.793 321.69 292.26C322.197 291.713 322.45 290.973 322.45 290.04C322.45 289.12 322.217 288.393 321.75 287.86C321.284 287.313 320.657 287.04 319.87 287.04C319.244 287.04 318.73 287.187 318.33 287.48C317.93 287.76 317.637 288.127 317.45 288.58C317.264 289.033 317.17 289.52 317.17 290.04C317.17 290.547 317.257 291.033 317.43 291.5C317.604 291.953 317.877 292.327 318.25 292.62C318.624 292.913 319.13 293.06 319.77 293.06ZM329.196 294.2C328.303 294.2 327.563 294 326.976 293.6C326.403 293.187 325.976 292.66 325.696 292.02C325.43 291.367 325.296 290.693 325.296 290C325.296 289.24 325.443 288.547 325.736 287.92C326.043 287.28 326.483 286.773 327.056 286.4C327.643 286.027 328.343 285.84 329.156 285.84C330.196 285.84 331.063 286.18 331.756 286.86C332.45 287.527 332.823 288.427 332.876 289.56C332.89 289.613 332.896 289.693 332.896 289.8C332.896 289.893 332.896 289.98 332.896 290.06H326.536C326.536 291.007 326.763 291.753 327.216 292.3C327.683 292.833 328.336 293.1 329.176 293.1C329.803 293.1 330.336 292.94 330.776 292.62C331.23 292.3 331.51 291.867 331.616 291.32H332.876C332.743 292.147 332.35 292.833 331.696 293.38C331.043 293.927 330.21 294.2 329.196 294.2ZM326.576 289.36H331.576C331.576 289.08 331.496 288.747 331.336 288.36C331.19 287.973 330.936 287.64 330.576 287.36C330.23 287.067 329.75 286.92 329.136 286.92C328.576 286.92 328.116 287.04 327.756 287.28C327.396 287.52 327.123 287.827 326.936 288.2C326.75 288.573 326.63 288.96 326.576 289.36ZM334.52 294V285.86H335.62L335.84 287.88H335.88C335.893 287.813 335.953 287.673 336.06 287.46C336.166 287.247 336.326 287.02 336.54 286.78C336.766 286.527 337.06 286.313 337.42 286.14C337.78 285.953 338.24 285.86 338.8 285.86C339.506 285.86 340.06 285.987 340.46 286.24C340.873 286.493 341.18 286.833 341.38 287.26C341.58 287.673 341.706 288.12 341.76 288.6C341.813 289.08 341.84 289.54 341.84 289.98V294H340.6V289.98C340.6 289.1 340.446 288.387 340.14 287.84C339.846 287.293 339.26 287.02 338.38 287.02C337.78 287.02 337.286 287.167 336.9 287.46C336.526 287.74 336.253 288.12 336.08 288.6C335.92 289.067 335.84 289.58 335.84 290.14V294H334.52ZM345.486 294C344.992 294 344.646 293.867 344.446 293.6C344.259 293.333 344.166 292.967 344.166 292.5V286.82H342.886V285.86C343.312 285.86 343.626 285.827 343.826 285.76C344.039 285.68 344.172 285.493 344.226 285.2C344.279 284.907 344.306 284.427 344.306 283.76H345.406V285.86H347.286V286.82H345.406V292.96H347.306V294H345.486ZM349.993 284.98C349.7 284.98 349.5 284.907 349.393 284.76C349.3 284.6 349.253 284.4 349.253 284.16C349.253 283.96 349.3 283.787 349.393 283.64C349.5 283.48 349.7 283.4 349.993 283.4C350.286 283.4 350.48 283.48 350.573 283.64C350.68 283.787 350.733 283.96 350.733 284.16C350.733 284.4 350.68 284.6 350.573 284.76C350.48 284.907 350.286 284.98 349.993 284.98ZM349.353 294V285.86H350.633V294H349.353ZM355.368 294.18C354.621 294.18 354.008 294 353.528 293.64C353.048 293.267 352.688 292.767 352.448 292.14C352.221 291.513 352.108 290.8 352.108 290C352.108 288.773 352.375 287.767 352.908 286.98C353.455 286.18 354.275 285.78 355.368 285.78C355.928 285.78 356.395 285.88 356.768 286.08C357.155 286.267 357.461 286.5 357.688 286.78C357.928 287.06 358.101 287.327 358.208 287.58H358.228V285.86H359.548V294H358.448L358.248 292.42H358.208C358.088 292.687 357.915 292.96 357.688 293.24C357.461 293.507 357.155 293.733 356.768 293.92C356.395 294.093 355.928 294.18 355.368 294.18ZM355.868 293.04C356.695 293.04 357.288 292.767 357.648 292.22C358.021 291.673 358.208 290.94 358.208 290.02C358.208 289.033 358.015 288.28 357.628 287.76C357.255 287.24 356.668 286.98 355.868 286.98C354.988 286.98 354.355 287.273 353.968 287.86C353.595 288.433 353.408 289.147 353.408 290C353.408 290.893 353.601 291.627 353.988 292.2C354.375 292.76 355.001 293.04 355.868 293.04ZM361.323 294V282.74H362.583V294H361.323ZM365.403 284.98C365.11 284.98 364.91 284.907 364.803 284.76C364.71 284.6 364.663 284.4 364.663 284.16C364.663 283.96 364.71 283.787 364.803 283.64C364.91 283.48 365.11 283.4 365.403 283.4C365.696 283.4 365.89 283.48 365.983 283.64C366.09 283.787 366.143 283.96 366.143 284.16C366.143 284.4 366.09 284.6 365.983 284.76C365.89 284.907 365.696 284.98 365.403 284.98ZM364.763 294V285.86H366.043V294H364.763ZM370.154 294C369.66 294 369.314 293.867 369.114 293.6C368.927 293.333 368.834 292.967 368.834 292.5V286.82H367.554V285.86C367.98 285.86 368.294 285.827 368.494 285.76C368.707 285.68 368.84 285.493 368.894 285.2C368.947 284.907 368.974 284.427 368.974 283.76H370.074V285.86H371.954V286.82H370.074V292.96H371.974V294H370.154ZM372.821 297.64V296.6H373.941C374.208 296.6 374.428 296.527 374.601 296.38C374.774 296.247 374.988 295.913 375.241 295.38L376.101 293.52L372.901 285.86H374.241L376.741 292.16L379.401 285.86H380.761L376.401 295.56C376.134 296.16 375.894 296.607 375.681 296.9C375.481 297.207 375.254 297.407 375.001 297.5C374.748 297.593 374.428 297.64 374.041 297.64H372.821ZM386.571 290V289.02H391.011V290H386.571ZM400.425 294V289.88L396.605 282.74H398.045L401.105 288.7L404.165 282.74H405.585L401.725 289.88V294H400.425ZM409.098 294.2C407.792 294.2 406.812 293.813 406.158 293.04C405.518 292.253 405.198 291.253 405.198 290.04C405.185 288.813 405.505 287.813 406.158 287.04C406.825 286.253 407.805 285.853 409.098 285.84C410.378 285.84 411.345 286.227 411.998 287C412.665 287.76 412.998 288.773 412.998 290.04C412.998 290.827 412.858 291.533 412.578 292.16C412.298 292.787 411.872 293.287 411.298 293.66C410.725 294.02 409.992 294.2 409.098 294.2ZM409.098 293.08C409.792 293.08 410.325 292.927 410.698 292.62C411.085 292.313 411.352 291.927 411.498 291.46C411.658 290.98 411.738 290.493 411.738 290C411.738 289.507 411.658 289.02 411.498 288.54C411.352 288.06 411.085 287.667 410.698 287.36C410.325 287.053 409.792 286.9 409.098 286.9C408.405 286.9 407.865 287.053 407.478 287.36C407.105 287.667 406.838 288.06 406.678 288.54C406.532 289.02 406.458 289.507 406.458 290C406.458 290.493 406.532 290.98 406.678 291.46C406.838 291.927 407.105 292.313 407.478 292.62C407.865 292.927 408.405 293.08 409.098 293.08ZM417.579 294.2C416.912 294.2 416.372 294.08 415.959 293.84C415.559 293.6 415.252 293.28 415.039 292.88C414.825 292.467 414.679 292.02 414.599 291.54C414.532 291.047 414.499 290.553 414.499 290.06V285.86H415.779V290.08C415.779 290.613 415.832 291.107 415.939 291.56C416.045 292.013 416.259 292.373 416.579 292.64C416.912 292.907 417.392 293.04 418.019 293.04C418.619 293.04 419.085 292.907 419.419 292.64C419.765 292.36 420.019 292 420.179 291.56C420.339 291.12 420.432 290.66 420.459 290.18V285.86H421.779V294H420.679L420.459 292.18H420.419C420.352 292.407 420.212 292.68 419.999 293C419.785 293.32 419.479 293.6 419.079 293.84C418.692 294.08 418.192 294.2 417.579 294.2ZM423.665 294V285.86H424.825L424.965 288C425.045 287.64 425.205 287.293 425.445 286.96C425.685 286.627 426.012 286.36 426.425 286.16C426.852 285.947 427.378 285.847 428.005 285.86H428.385V287.28H427.985C427.132 287.28 426.485 287.407 426.045 287.66C425.618 287.9 425.325 288.24 425.165 288.68C425.018 289.12 424.945 289.627 424.945 290.2V294H423.665ZM436.026 294H434.746V282.74H439.026C440.266 282.74 441.213 283.04 441.866 283.64C442.52 284.24 442.846 285.133 442.846 286.32C442.846 287.427 442.506 288.28 441.826 288.88C441.16 289.48 440.226 289.78 439.026 289.78H436.026V294ZM438.886 283.84H436.026V288.78H438.886C439.766 288.78 440.446 288.58 440.926 288.18C441.42 287.767 441.666 287.147 441.666 286.32C441.666 285.467 441.426 284.84 440.946 284.44C440.48 284.04 439.793 283.84 438.886 283.84ZM444.231 294V285.86H445.391L445.531 288C445.611 287.64 445.771 287.293 446.011 286.96C446.251 286.627 446.578 286.36 446.991 286.16C447.418 285.947 447.945 285.847 448.571 285.86H448.951V287.28H448.551C447.698 287.28 447.051 287.407 446.611 287.66C446.185 287.9 445.891 288.24 445.731 288.68C445.585 289.12 445.511 289.627 445.511 290.2V294H444.231ZM451.087 284.98C450.793 284.98 450.593 284.907 450.487 284.76C450.393 284.6 450.347 284.4 450.347 284.16C450.347 283.96 450.393 283.787 450.487 283.64C450.593 283.48 450.793 283.4 451.087 283.4C451.38 283.4 451.573 283.48 451.667 283.64C451.773 283.787 451.827 283.96 451.827 284.16C451.827 284.4 451.773 284.6 451.667 284.76C451.573 284.907 451.38 284.98 451.087 284.98ZM450.447 294V285.86H451.727V294H450.447ZM459.559 285.86H460.839V286.14L457.759 294H455.939L452.839 286.14V285.86H454.119L456.839 292.94H456.879L459.559 285.86ZM464.86 294.18C464.114 294.18 463.5 294 463.02 293.64C462.54 293.267 462.18 292.767 461.94 292.14C461.714 291.513 461.6 290.8 461.6 290C461.6 288.773 461.867 287.767 462.4 286.98C462.947 286.18 463.767 285.78 464.86 285.78C465.42 285.78 465.887 285.88 466.26 286.08C466.647 286.267 466.954 286.5 467.18 286.78C467.42 287.06 467.594 287.327 467.7 287.58H467.72V285.86H469.04V294H467.94L467.74 292.42H467.7C467.58 292.687 467.407 292.96 467.18 293.24C466.954 293.507 466.647 293.733 466.26 293.92C465.887 294.093 465.42 294.18 464.86 294.18ZM465.36 293.04C466.187 293.04 466.78 292.767 467.14 292.22C467.514 291.673 467.7 290.94 467.7 290.02C467.7 289.033 467.507 288.28 467.12 287.76C466.747 287.24 466.16 286.98 465.36 286.98C464.48 286.98 463.847 287.273 463.46 287.86C463.087 288.433 462.9 289.147 462.9 290C462.9 290.893 463.094 291.627 463.48 292.2C463.867 292.76 464.494 293.04 465.36 293.04ZM472.575 294C472.082 294 471.735 293.867 471.535 293.6C471.349 293.333 471.255 292.967 471.255 292.5V286.82H469.975V285.86C470.402 285.86 470.715 285.827 470.915 285.76C471.129 285.68 471.262 285.493 471.315 285.2C471.369 284.907 471.395 284.427 471.395 283.76H472.495V285.86H474.375V286.82H472.495V292.96H474.395V294H472.575ZM479.509 294.2C478.615 294.2 477.875 294 477.289 293.6C476.715 293.187 476.289 292.66 476.009 292.02C475.742 291.367 475.609 290.693 475.609 290C475.609 289.24 475.755 288.547 476.049 287.92C476.355 287.28 476.795 286.773 477.369 286.4C477.955 286.027 478.655 285.84 479.469 285.84C480.509 285.84 481.375 286.18 482.069 286.86C482.762 287.527 483.135 288.427 483.189 289.56C483.202 289.613 483.209 289.693 483.209 289.8C483.209 289.893 483.209 289.98 483.209 290.06H476.849C476.849 291.007 477.075 291.753 477.529 292.3C477.995 292.833 478.649 293.1 479.489 293.1C480.115 293.1 480.649 292.94 481.089 292.62C481.542 292.3 481.822 291.867 481.929 291.32H483.189C483.055 292.147 482.662 292.833 482.009 293.38C481.355 293.927 480.522 294.2 479.509 294.2ZM476.889 289.36H481.889C481.889 289.08 481.809 288.747 481.649 288.36C481.502 287.973 481.249 287.64 480.889 287.36C480.542 287.067 480.062 286.92 479.449 286.92C478.889 286.92 478.429 287.04 478.069 287.28C477.709 287.52 477.435 287.827 477.249 288.2C477.062 288.573 476.942 288.96 476.889 289.36ZM189.349 318H188.069V306.74H189.349V311.68H195.749V306.74H197.009V318H195.749V312.72H189.349V318ZM202.13 318.2C201.463 318.2 200.923 318.08 200.51 317.84C200.11 317.6 199.803 317.28 199.59 316.88C199.376 316.467 199.23 316.02 199.15 315.54C199.083 315.047 199.05 314.553 199.05 314.06V309.86H200.33V314.08C200.33 314.613 200.383 315.107 200.49 315.56C200.596 316.013 200.81 316.373 201.13 316.64C201.463 316.907 201.943 317.04 202.57 317.04C203.17 317.04 203.636 316.907 203.97 316.64C204.316 316.36 204.57 316 204.73 315.56C204.89 315.12 204.983 314.66 205.01 314.18V309.86H206.33V318H205.23L205.01 316.18H204.97C204.903 316.407 204.763 316.68 204.55 317C204.336 317.32 204.03 317.6 203.63 317.84C203.243 318.08 202.743 318.2 202.13 318.2ZM212.536 318.2C212.003 318.2 211.549 318.113 211.176 317.94C210.816 317.753 210.516 317.54 210.276 317.3C210.049 317.06 209.876 316.833 209.756 316.62C209.636 316.407 209.563 316.267 209.536 316.2H209.496L209.296 318H208.176V306.74H209.496L209.516 311.9H209.556C209.583 311.833 209.649 311.693 209.756 311.48C209.863 311.267 210.029 311.033 210.256 310.78C210.483 310.527 210.776 310.313 211.136 310.14C211.509 309.953 211.969 309.86 212.516 309.86C213.303 309.86 213.956 310.04 214.476 310.4C215.009 310.76 215.409 311.26 215.676 311.9C215.943 312.527 216.076 313.24 216.076 314.04C216.076 314.84 215.943 315.553 215.676 316.18C215.409 316.807 215.009 317.3 214.476 317.66C213.956 318.02 213.309 318.2 212.536 318.2ZM212.216 317.06C212.856 317.06 213.363 316.913 213.736 316.62C214.109 316.327 214.383 315.953 214.556 315.5C214.729 315.033 214.816 314.547 214.816 314.04C214.816 313.52 214.723 313.033 214.536 312.58C214.349 312.127 214.056 311.76 213.656 311.48C213.256 311.187 212.743 311.04 212.116 311.04C211.329 311.04 210.703 311.313 210.236 311.86C209.769 312.393 209.536 313.12 209.536 314.04C209.536 314.973 209.783 315.713 210.276 316.26C210.783 316.793 211.429 317.06 212.216 317.06ZM223.034 318.06V310.82H221.774V309.86H223.034V308.06C223.034 307.593 223.127 307.227 223.314 306.96C223.514 306.693 223.86 306.56 224.354 306.56H226.774V307.62H224.334V309.86H226.634V310.82H224.334V318.06H223.034ZM231.305 318.2C229.999 318.2 229.019 317.813 228.365 317.04C227.725 316.253 227.405 315.253 227.405 314.04C227.392 312.813 227.712 311.813 228.365 311.04C229.032 310.253 230.012 309.853 231.305 309.84C232.585 309.84 233.552 310.227 234.205 311C234.872 311.76 235.205 312.773 235.205 314.04C235.205 314.827 235.065 315.533 234.785 316.16C234.505 316.787 234.079 317.287 233.505 317.66C232.932 318.02 232.199 318.2 231.305 318.2ZM231.305 317.08C231.999 317.08 232.532 316.927 232.905 316.62C233.292 316.313 233.559 315.927 233.705 315.46C233.865 314.98 233.945 314.493 233.945 314C233.945 313.507 233.865 313.02 233.705 312.54C233.559 312.06 233.292 311.667 232.905 311.36C232.532 311.053 231.999 310.9 231.305 310.9C230.612 310.9 230.072 311.053 229.685 311.36C229.312 311.667 229.045 312.06 228.885 312.54C228.739 313.02 228.665 313.507 228.665 314C228.665 314.493 228.739 314.98 228.885 315.46C229.045 315.927 229.312 316.313 229.685 316.62C230.072 316.927 230.612 317.08 231.305 317.08ZM236.966 318V309.86H238.126L238.266 312C238.346 311.64 238.506 311.293 238.746 310.96C238.986 310.627 239.313 310.36 239.726 310.16C240.153 309.947 240.679 309.847 241.306 309.86H241.686V311.28H241.286C240.433 311.28 239.786 311.407 239.346 311.66C238.919 311.9 238.626 312.24 238.466 312.68C238.319 313.12 238.246 313.627 238.246 314.2V318H236.966ZM246.987 307.86V306.74H255.487V307.86H251.887V318H250.607V307.86H246.987ZM258.689 318.2C257.795 318.2 257.055 318 256.469 317.6C255.895 317.187 255.469 316.66 255.189 316.02C254.922 315.367 254.789 314.693 254.789 314C254.789 313.24 254.935 312.547 255.229 311.92C255.535 311.28 255.975 310.773 256.549 310.4C257.135 310.027 257.835 309.84 258.649 309.84C259.689 309.84 260.555 310.18 261.249 310.86C261.942 311.527 262.315 312.427 262.369 313.56C262.382 313.613 262.389 313.693 262.389 313.8C262.389 313.893 262.389 313.98 262.389 314.06H256.029C256.029 315.007 256.255 315.753 256.709 316.3C257.175 316.833 257.829 317.1 258.669 317.1C259.295 317.1 259.829 316.94 260.269 316.62C260.722 316.3 261.002 315.867 261.109 315.32H262.369C262.235 316.147 261.842 316.833 261.189 317.38C260.535 317.927 259.702 318.2 258.689 318.2ZM256.069 313.36H261.069C261.069 313.08 260.989 312.747 260.829 312.36C260.682 311.973 260.429 311.64 260.069 311.36C259.722 311.067 259.242 310.92 258.629 310.92C258.069 310.92 257.609 311.04 257.249 311.28C256.889 311.52 256.615 311.827 256.429 312.2C256.242 312.573 256.122 312.96 256.069 313.36ZM266.872 318.18C266.125 318.18 265.512 318 265.032 317.64C264.552 317.267 264.192 316.767 263.952 316.14C263.725 315.513 263.612 314.8 263.612 314C263.612 312.773 263.879 311.767 264.412 310.98C264.959 310.18 265.779 309.78 266.872 309.78C267.432 309.78 267.899 309.88 268.272 310.08C268.659 310.267 268.965 310.5 269.192 310.78C269.432 311.06 269.605 311.327 269.712 311.58H269.732V309.86H271.052V318H269.952L269.752 316.42H269.712C269.592 316.687 269.419 316.96 269.192 317.24C268.965 317.507 268.659 317.733 268.272 317.92C267.899 318.093 267.432 318.18 266.872 318.18ZM267.372 317.04C268.199 317.04 268.792 316.767 269.152 316.22C269.525 315.673 269.712 314.94 269.712 314.02C269.712 313.033 269.519 312.28 269.132 311.76C268.759 311.24 268.172 310.98 267.372 310.98C266.492 310.98 265.859 311.273 265.472 311.86C265.099 312.433 264.912 313.147 264.912 314C264.912 314.893 265.105 315.627 265.492 316.2C265.879 316.76 266.505 317.04 267.372 317.04ZM272.547 318V309.86H273.647L273.727 311.88H273.767C273.794 311.787 273.854 311.633 273.947 311.42C274.04 311.193 274.187 310.96 274.387 310.72C274.587 310.48 274.847 310.28 275.167 310.12C275.487 309.947 275.894 309.86 276.387 309.86C277.134 309.86 277.68 310.067 278.027 310.48C278.387 310.893 278.627 311.36 278.747 311.88H278.787C278.827 311.787 278.9 311.633 279.007 311.42C279.114 311.193 279.274 310.96 279.487 310.72C279.7 310.48 279.974 310.28 280.307 310.12C280.654 309.947 281.074 309.86 281.567 309.86C282.087 309.86 282.514 309.967 282.847 310.18C283.18 310.38 283.434 310.653 283.607 311C283.794 311.333 283.927 311.687 284.007 312.06C284.087 312.433 284.134 312.793 284.147 313.14C284.16 313.487 284.167 313.767 284.167 313.98V318H283.047V313.98C283.047 313.767 283.034 313.493 283.007 313.16C282.98 312.827 282.914 312.5 282.807 312.18C282.7 311.847 282.514 311.573 282.247 311.36C281.994 311.133 281.627 311.02 281.147 311.02C280.614 311.02 280.187 311.167 279.867 311.46C279.547 311.753 279.314 312.14 279.167 312.62C279.02 313.087 278.947 313.593 278.947 314.14V318H277.827V313.98C277.827 313.767 277.814 313.493 277.787 313.16C277.76 312.827 277.694 312.5 277.587 312.18C277.48 311.847 277.294 311.573 277.027 311.36C276.774 311.133 276.407 311.02 275.927 311.02C275.394 311.02 274.967 311.167 274.647 311.46C274.327 311.753 274.094 312.14 273.947 312.62C273.8 313.087 273.727 313.593 273.727 314.14V318H272.547ZM300.816 312.36C300.816 313.84 300.536 314.993 299.976 315.82C299.416 316.633 298.63 317.2 297.616 317.52C296.603 317.84 295.416 318 294.056 318H291.076V306.74H294.056C295.416 306.74 296.603 306.953 297.616 307.38C298.63 307.793 299.416 308.413 299.976 309.24C300.536 310.067 300.816 311.107 300.816 312.36ZM292.356 316.9H294.336C295.376 316.9 296.276 316.787 297.036 316.56C297.81 316.32 298.403 315.873 298.816 315.22C299.243 314.567 299.456 313.613 299.456 312.36C299.456 310.827 298.99 309.7 298.056 308.98C297.123 308.247 295.883 307.88 294.336 307.88H292.356V316.9ZM303.274 308.98C302.981 308.98 302.781 308.907 302.674 308.76C302.581 308.6 302.534 308.4 302.534 308.16C302.534 307.96 302.581 307.787 302.674 307.64C302.781 307.48 302.981 307.4 303.274 307.4C303.567 307.4 303.761 307.48 303.854 307.64C303.961 307.787 304.014 307.96 304.014 308.16C304.014 308.4 303.961 308.6 303.854 308.76C303.761 308.907 303.567 308.98 303.274 308.98ZM302.634 318V309.86H303.914V318H302.634ZM309.029 318.2C308.256 318.2 307.616 318.04 307.109 317.72C306.616 317.387 306.243 317 305.989 316.56C305.749 316.12 305.629 315.727 305.629 315.38H306.869C306.869 315.393 306.876 315.493 306.889 315.68C306.916 315.867 306.989 316.08 307.109 316.32C307.229 316.56 307.436 316.773 307.729 316.96C308.023 317.133 308.449 317.22 309.009 317.22C309.609 317.22 310.123 317.113 310.549 316.9C310.989 316.687 311.203 316.353 311.189 315.9C311.189 315.513 311.056 315.22 310.789 315.02C310.536 314.807 310.203 314.647 309.789 314.54C309.376 314.42 308.943 314.307 308.489 314.2C308.036 314.093 307.603 313.96 307.189 313.8C306.789 313.627 306.463 313.387 306.209 313.08C305.956 312.773 305.829 312.347 305.829 311.8C305.829 311.133 306.129 310.607 306.729 310.22C307.329 309.82 308.096 309.62 309.029 309.62C309.549 309.62 310.076 309.707 310.609 309.88C311.143 310.04 311.583 310.327 311.929 310.74C312.276 311.14 312.436 311.707 312.409 312.44H311.209C311.236 311.933 311.123 311.553 310.869 311.3C310.616 311.047 310.309 310.88 309.949 310.8C309.603 310.707 309.283 310.66 308.989 310.66C308.416 310.66 307.943 310.767 307.569 310.98C307.209 311.193 307.029 311.493 307.029 311.88C307.029 312.253 307.156 312.54 307.409 312.74C307.676 312.927 308.009 313.08 308.409 313.2C308.823 313.307 309.256 313.413 309.709 313.52C310.176 313.613 310.616 313.747 311.029 313.92C311.443 314.093 311.776 314.34 312.029 314.66C312.296 314.98 312.429 315.42 312.429 315.98C312.429 316.753 312.103 317.32 311.449 317.68C310.796 318.027 309.989 318.2 309.029 318.2ZM317.576 318.2C316.816 318.2 316.136 318.04 315.536 317.72C314.936 317.4 314.463 316.933 314.116 316.32C313.77 315.707 313.596 314.967 313.596 314.1C313.623 313.247 313.803 312.5 314.136 311.86C314.483 311.22 314.956 310.727 315.556 310.38C316.156 310.02 316.843 309.84 317.616 309.84C318.336 309.84 318.963 309.973 319.496 310.24C320.03 310.507 320.456 310.867 320.776 311.32C321.096 311.773 321.296 312.273 321.376 312.82H320.196C320.063 312.233 319.77 311.78 319.316 311.46C318.876 311.14 318.323 310.98 317.656 310.98C316.803 310.98 316.123 311.267 315.616 311.84C315.123 312.4 314.87 313.133 314.856 314.04C314.856 314.96 315.096 315.693 315.576 316.24C316.07 316.773 316.756 317.04 317.636 317.04C318.276 317.04 318.83 316.88 319.296 316.56C319.763 316.24 320.063 315.78 320.196 315.18H321.376C321.296 315.74 321.09 316.247 320.756 316.7C320.436 317.153 320.003 317.52 319.456 317.8C318.923 318.067 318.296 318.2 317.576 318.2ZM326.559 318.2C325.252 318.2 324.272 317.813 323.619 317.04C322.979 316.253 322.659 315.253 322.659 314.04C322.646 312.813 322.966 311.813 323.619 311.04C324.286 310.253 325.266 309.853 326.559 309.84C327.839 309.84 328.806 310.227 329.459 311C330.126 311.76 330.459 312.773 330.459 314.04C330.459 314.827 330.319 315.533 330.039 316.16C329.759 316.787 329.332 317.287 328.759 317.66C328.186 318.02 327.452 318.2 326.559 318.2ZM326.559 317.08C327.252 317.08 327.786 316.927 328.159 316.62C328.546 316.313 328.812 315.927 328.959 315.46C329.119 314.98 329.199 314.493 329.199 314C329.199 313.507 329.119 313.02 328.959 312.54C328.812 312.06 328.546 311.667 328.159 311.36C327.786 311.053 327.252 310.9 326.559 310.9C325.866 310.9 325.326 311.053 324.939 311.36C324.566 311.667 324.299 312.06 324.139 312.54C323.992 313.02 323.919 313.507 323.919 314C323.919 314.493 323.992 314.98 324.139 315.46C324.299 315.927 324.566 316.313 324.939 316.62C325.326 316.927 325.866 317.08 326.559 317.08ZM335.04 318.2C334.373 318.2 333.833 318.08 333.42 317.84C333.02 317.6 332.713 317.28 332.5 316.88C332.286 316.467 332.14 316.02 332.06 315.54C331.993 315.047 331.96 314.553 331.96 314.06V309.86H333.24V314.08C333.24 314.613 333.293 315.107 333.4 315.56C333.506 316.013 333.72 316.373 334.04 316.64C334.373 316.907 334.853 317.04 335.48 317.04C336.08 317.04 336.546 316.907 336.88 316.64C337.226 316.36 337.48 316 337.64 315.56C337.8 315.12 337.893 314.66 337.92 314.18V309.86H339.24V318H338.14L337.92 316.18H337.88C337.813 316.407 337.673 316.68 337.46 317C337.246 317.32 336.94 317.6 336.54 317.84C336.153 318.08 335.653 318.2 335.04 318.2ZM341.126 318V309.86H342.286L342.426 312C342.506 311.64 342.666 311.293 342.906 310.96C343.146 310.627 343.473 310.36 343.886 310.16C344.313 309.947 344.839 309.847 345.466 309.86H345.846V311.28H345.446C344.593 311.28 343.946 311.407 343.506 311.66C343.079 311.9 342.786 312.24 342.626 312.68C342.479 313.12 342.406 313.627 342.406 314.2V318H341.126ZM350.201 318.2C349.428 318.2 348.788 318.04 348.281 317.72C347.788 317.387 347.415 317 347.161 316.56C346.921 316.12 346.801 315.727 346.801 315.38H348.041C348.041 315.393 348.048 315.493 348.061 315.68C348.088 315.867 348.161 316.08 348.281 316.32C348.401 316.56 348.608 316.773 348.901 316.96C349.195 317.133 349.621 317.22 350.181 317.22C350.781 317.22 351.295 317.113 351.721 316.9C352.161 316.687 352.375 316.353 352.361 315.9C352.361 315.513 352.228 315.22 351.961 315.02C351.708 314.807 351.375 314.647 350.961 314.54C350.548 314.42 350.115 314.307 349.661 314.2C349.208 314.093 348.775 313.96 348.361 313.8C347.961 313.627 347.635 313.387 347.381 313.08C347.128 312.773 347.001 312.347 347.001 311.8C347.001 311.133 347.301 310.607 347.901 310.22C348.501 309.82 349.268 309.62 350.201 309.62C350.721 309.62 351.248 309.707 351.781 309.88C352.315 310.04 352.755 310.327 353.101 310.74C353.448 311.14 353.608 311.707 353.581 312.44H352.381C352.408 311.933 352.295 311.553 352.041 311.3C351.788 311.047 351.481 310.88 351.121 310.8C350.775 310.707 350.455 310.66 350.161 310.66C349.588 310.66 349.115 310.767 348.741 310.98C348.381 311.193 348.201 311.493 348.201 311.88C348.201 312.253 348.328 312.54 348.581 312.74C348.848 312.927 349.181 313.08 349.581 313.2C349.995 313.307 350.428 313.413 350.881 313.52C351.348 313.613 351.788 313.747 352.201 313.92C352.615 314.093 352.948 314.34 353.201 314.66C353.468 314.98 353.601 315.42 353.601 315.98C353.601 316.753 353.275 317.32 352.621 317.68C351.968 318.027 351.161 318.2 350.201 318.2ZM358.708 318.2C357.815 318.2 357.075 318 356.488 317.6C355.915 317.187 355.488 316.66 355.208 316.02C354.941 315.367 354.808 314.693 354.808 314C354.808 313.24 354.955 312.547 355.248 311.92C355.555 311.28 355.995 310.773 356.568 310.4C357.155 310.027 357.855 309.84 358.668 309.84C359.708 309.84 360.575 310.18 361.268 310.86C361.961 311.527 362.335 312.427 362.388 313.56C362.401 313.613 362.408 313.693 362.408 313.8C362.408 313.893 362.408 313.98 362.408 314.06H356.048C356.048 315.007 356.275 315.753 356.728 316.3C357.195 316.833 357.848 317.1 358.688 317.1C359.315 317.1 359.848 316.94 360.288 316.62C360.741 316.3 361.021 315.867 361.128 315.32H362.388C362.255 316.147 361.861 316.833 361.208 317.38C360.555 317.927 359.721 318.2 358.708 318.2ZM356.088 313.36H361.088C361.088 313.08 361.008 312.747 360.848 312.36C360.701 311.973 360.448 311.64 360.088 311.36C359.741 311.067 359.261 310.92 358.648 310.92C358.088 310.92 357.628 311.04 357.268 311.28C356.908 311.52 356.635 311.827 356.448 312.2C356.261 312.573 356.141 312.96 356.088 313.36Z" fill="#E4E8EB"/>
<g filter="url(#filter2_f_779_3615)">
<circle cx="303" cy="199" r="18" fill="#C7B45D" fill-opacity="0.5"/>
</g>
<g filter="url(#filter3_b_779_3615)">
<rect x="219" y="174" width="112" height="46" rx="23" fill="url(#paint3_linear_779_3615)"/>
<rect x="219.444" y="174.444" width="111.112" height="45.1117" rx="22.5558" stroke="url(#paint4_linear_779_3615)" stroke-opacity="0.8" stroke-width="0.888344"/>
</g>
<g filter="url(#filter4_bd_779_3615)">
<rect x="279" y="178" width="46.6522" height="37" rx="18.5" fill="url(#paint5_linear_779_3615)" shape-rendering="crispEdges"/>
<rect x="279.357" y="178.357" width="45.9376" height="36.2855" rx="18.1427" stroke="url(#paint6_linear_779_3615)" stroke-opacity="0.8" stroke-width="0.714538" shape-rendering="crispEdges"/>
</g>
<g clip-path="url(#clip0_779_3615)">
<g filter="url(#filter5_d_779_3615)">
<path d="M308.851 193.103V189.671C308.851 186.499 306.303 183.925 303.131 183.873C299.829 183.795 297.151 186.525 297.151 189.775V193.5C297.151 193.682 297.307 193.278 297.515 193.278H299.257C299.465 193.278 299.621 193.708 299.621 193.5V189.775C299.621 187.955 301.051 186.395 302.871 186.343C304.795 186.265 306.381 187.799 306.381 189.697V193.103H297.255C295.981 193.103 294.941 194.143 294.941 195.417V203.841C294.941 205.115 295.981 206.155 297.255 206.155H308.747C310.021 206.155 311.061 205.115 311.061 203.841V195.417C311.061 194.169 310.073 193.155 308.851 193.103Z" fill="#FFE269" fill-opacity="0.76" shape-rendering="crispEdges"/>
</g>
</g>
</g>
<path d="M156.481 69.24C155.233 69.24 154.113 68.984 153.121 68.472C152.129 67.944 151.337 67.16 150.745 66.12C150.169 65.08 149.889 63.8 149.905 62.28C149.905 60.744 150.185 59.456 150.745 58.416C151.321 57.36 152.113 56.568 153.121 56.04C154.129 55.512 155.281 55.248 156.577 55.248C158.241 55.248 159.601 55.696 160.657 56.592C161.713 57.472 162.385 58.688 162.673 60.24H161.065C160.857 59.024 160.329 58.128 159.481 57.552C158.633 56.976 157.665 56.688 156.577 56.688C154.977 56.688 153.721 57.168 152.809 58.128C151.897 59.072 151.441 60.424 151.441 62.184C151.441 64.024 151.881 65.424 152.761 66.384C153.657 67.328 154.905 67.8 156.505 67.8C157.705 67.8 158.729 67.512 159.577 66.936C160.425 66.344 160.945 65.448 161.137 64.248H162.769C162.481 65.784 161.801 67 160.729 67.896C159.673 68.792 158.257 69.24 156.481 69.24ZM168.93 69.24C167.362 69.24 166.186 68.776 165.402 67.848C164.634 66.904 164.25 65.704 164.25 64.248C164.234 62.776 164.618 61.576 165.402 60.648C166.202 59.704 167.378 59.224 168.93 59.208C170.466 59.208 171.626 59.672 172.41 60.6C173.21 61.512 173.61 62.728 173.61 64.248C173.61 65.192 173.442 66.04 173.106 66.792C172.77 67.544 172.258 68.144 171.57 68.592C170.882 69.024 170.002 69.24 168.93 69.24ZM168.93 67.896C169.762 67.896 170.402 67.712 170.85 67.344C171.314 66.976 171.634 66.512 171.81 65.952C172.002 65.376 172.098 64.792 172.098 64.2C172.098 63.608 172.002 63.024 171.81 62.448C171.634 61.872 171.314 61.4 170.85 61.032C170.402 60.664 169.762 60.48 168.93 60.48C168.098 60.48 167.45 60.664 166.986 61.032C166.538 61.4 166.218 61.872 166.026 62.448C165.85 63.024 165.762 63.608 165.762 64.2C165.762 64.792 165.85 65.376 166.026 65.952C166.218 66.512 166.538 66.976 166.986 67.344C167.45 67.712 168.098 67.896 168.93 67.896ZM175.482 69V59.232H176.802L177.066 61.656H177.114C177.13 61.576 177.202 61.408 177.33 61.152C177.458 60.896 177.65 60.624 177.906 60.336C178.178 60.032 178.53 59.776 178.962 59.568C179.394 59.344 179.946 59.232 180.618 59.232C181.466 59.232 182.13 59.384 182.61 59.688C183.106 59.992 183.474 60.4 183.714 60.912C183.954 61.408 184.106 61.944 184.17 62.52C184.234 63.096 184.266 63.648 184.266 64.176V69H182.778V64.176C182.778 63.12 182.594 62.264 182.226 61.608C181.874 60.952 181.17 60.624 180.114 60.624C179.394 60.624 178.802 60.8 178.338 61.152C177.89 61.488 177.562 61.944 177.354 62.52C177.162 63.08 177.066 63.696 177.066 64.368V69H175.482ZM187.105 69.072V60.384H185.593V59.232H187.105V57.072C187.105 56.512 187.217 56.072 187.441 55.752C187.681 55.432 188.097 55.272 188.689 55.272H191.593V56.544H188.665V59.232H191.425V60.384H188.665V69.072H187.105ZM194.449 58.176C194.097 58.176 193.857 58.088 193.729 57.912C193.617 57.72 193.561 57.48 193.561 57.192C193.561 56.952 193.617 56.744 193.729 56.568C193.857 56.376 194.097 56.28 194.449 56.28C194.801 56.28 195.033 56.376 195.145 56.568C195.273 56.744 195.337 56.952 195.337 57.192C195.337 57.48 195.273 57.72 195.145 57.912C195.033 58.088 194.801 58.176 194.449 58.176ZM193.681 69V59.232H195.217V69H193.681ZM201.907 69.24C200.963 69.24 200.171 69.024 199.531 68.592C198.907 68.16 198.435 67.568 198.115 66.816C197.811 66.048 197.659 65.192 197.659 64.248C197.659 62.792 198.019 61.592 198.739 60.648C199.459 59.704 200.523 59.232 201.931 59.232C202.587 59.232 203.131 59.344 203.563 59.568C204.011 59.776 204.371 60.032 204.643 60.336C204.915 60.64 205.115 60.92 205.243 61.176C205.371 61.432 205.451 61.6 205.483 61.68H205.531L205.555 55.488H207.139V69H205.795L205.555 66.84H205.507C205.475 66.92 205.387 67.088 205.243 67.344C205.099 67.6 204.883 67.872 204.595 68.16C204.323 68.448 203.963 68.704 203.515 68.928C203.083 69.136 202.547 69.24 201.907 69.24ZM202.291 67.872C203.235 67.872 204.003 67.552 204.595 66.912C205.203 66.256 205.507 65.368 205.507 64.248C205.507 63.144 205.227 62.272 204.667 61.632C204.107 60.976 203.355 60.648 202.411 60.648C201.659 60.648 201.043 60.824 200.563 61.176C200.083 61.512 199.731 61.952 199.507 62.496C199.283 63.04 199.171 63.624 199.171 64.248C199.171 64.856 199.275 65.44 199.483 66C199.691 66.544 200.019 66.992 200.467 67.344C200.915 67.696 201.523 67.872 202.291 67.872ZM213.602 69.24C212.53 69.24 211.642 69 210.938 68.52C210.25 68.024 209.738 67.392 209.402 66.624C209.082 65.84 208.922 65.032 208.922 64.2C208.922 63.288 209.098 62.456 209.45 61.704C209.818 60.936 210.346 60.328 211.034 59.88C211.738 59.432 212.578 59.208 213.554 59.208C214.802 59.208 215.842 59.616 216.674 60.432C217.506 61.232 217.954 62.312 218.018 63.672C218.034 63.736 218.042 63.832 218.042 63.96C218.042 64.072 218.042 64.176 218.042 64.272H210.41C210.41 65.408 210.682 66.304 211.226 66.96C211.786 67.6 212.57 67.92 213.578 67.92C214.33 67.92 214.97 67.728 215.498 67.344C216.042 66.96 216.378 66.44 216.506 65.784H218.018C217.858 66.776 217.386 67.6 216.602 68.256C215.818 68.912 214.818 69.24 213.602 69.24ZM210.458 63.432H216.458C216.458 63.096 216.362 62.696 216.17 62.232C215.994 61.768 215.69 61.368 215.258 61.032C214.842 60.68 214.266 60.504 213.53 60.504C212.858 60.504 212.306 60.648 211.874 60.936C211.442 61.224 211.114 61.592 210.89 62.04C210.666 62.488 210.522 62.952 210.458 63.432ZM219.99 69V59.232H221.31L221.574 61.656H221.622C221.638 61.576 221.71 61.408 221.838 61.152C221.966 60.896 222.158 60.624 222.414 60.336C222.686 60.032 223.038 59.776 223.47 59.568C223.902 59.344 224.454 59.232 225.126 59.232C225.974 59.232 226.638 59.384 227.118 59.688C227.614 59.992 227.982 60.4 228.222 60.912C228.462 61.408 228.614 61.944 228.678 62.52C228.742 63.096 228.774 63.648 228.774 64.176V69H227.286V64.176C227.286 63.12 227.102 62.264 226.734 61.608C226.382 60.952 225.678 60.624 224.622 60.624C223.902 60.624 223.31 60.8 222.846 61.152C222.398 61.488 222.07 61.944 221.862 62.52C221.67 63.08 221.574 63.696 221.574 64.368V69H219.99ZM233.149 69C232.557 69 232.141 68.84 231.901 68.52C231.677 68.2 231.565 67.76 231.565 67.2V60.384H230.029V59.232C230.541 59.232 230.917 59.192 231.157 59.112C231.413 59.016 231.573 58.792 231.637 58.44C231.701 58.088 231.733 57.512 231.733 56.712H233.053V59.232H235.309V60.384H233.053V67.752H235.333V69H233.149ZM238.558 58.176C238.206 58.176 237.966 58.088 237.838 57.912C237.726 57.72 237.67 57.48 237.67 57.192C237.67 56.952 237.726 56.744 237.838 56.568C237.966 56.376 238.206 56.28 238.558 56.28C238.91 56.28 239.142 56.376 239.254 56.568C239.382 56.744 239.446 56.952 239.446 57.192C239.446 57.48 239.382 57.72 239.254 57.912C239.142 58.088 238.91 58.176 238.558 58.176ZM237.79 69V59.232H239.326V69H237.79ZM245.008 69.216C244.112 69.216 243.376 69 242.8 68.568C242.224 68.12 241.792 67.52 241.504 66.768C241.232 66.016 241.096 65.16 241.096 64.2C241.096 62.728 241.416 61.52 242.056 60.576C242.712 59.616 243.696 59.136 245.008 59.136C245.68 59.136 246.24 59.256 246.688 59.496C247.152 59.72 247.52 60 247.792 60.336C248.08 60.672 248.288 60.992 248.416 61.296H248.44V59.232H250.024V69H248.704L248.464 67.104H248.416C248.272 67.424 248.064 67.752 247.792 68.088C247.52 68.408 247.152 68.68 246.688 68.904C246.24 69.112 245.68 69.216 245.008 69.216ZM245.608 67.848C246.6 67.848 247.312 67.52 247.744 66.864C248.192 66.208 248.416 65.328 248.416 64.224C248.416 63.04 248.184 62.136 247.72 61.512C247.272 60.888 246.568 60.576 245.608 60.576C244.552 60.576 243.792 60.928 243.328 61.632C242.88 62.32 242.656 63.176 242.656 64.2C242.656 65.272 242.888 66.152 243.352 66.84C243.816 67.512 244.568 67.848 245.608 67.848ZM252.154 69V55.488H253.666V69H252.154ZM266.009 69.24C265.097 69.24 264.281 69.048 263.561 68.664C262.841 68.28 262.273 67.72 261.857 66.984C261.441 66.248 261.233 65.36 261.233 64.32C261.265 63.296 261.481 62.4 261.881 61.632C262.297 60.864 262.865 60.272 263.585 59.856C264.305 59.424 265.129 59.208 266.057 59.208C266.921 59.208 267.673 59.368 268.313 59.688C268.953 60.008 269.465 60.44 269.849 60.984C270.233 61.528 270.473 62.128 270.569 62.784H269.153C268.993 62.08 268.641 61.536 268.097 61.152C267.569 60.768 266.905 60.576 266.105 60.576C265.081 60.576 264.265 60.92 263.657 61.608C263.065 62.28 262.761 63.16 262.745 64.248C262.745 65.352 263.033 66.232 263.609 66.888C264.201 67.528 265.025 67.848 266.081 67.848C266.849 67.848 267.513 67.656 268.073 67.272C268.633 66.888 268.993 66.336 269.153 65.616H270.569C270.473 66.288 270.225 66.896 269.825 67.44C269.441 67.984 268.921 68.424 268.265 68.76C267.625 69.08 266.873 69.24 266.009 69.24ZM276.789 69.24C275.221 69.24 274.045 68.776 273.261 67.848C272.493 66.904 272.109 65.704 272.109 64.248C272.093 62.776 272.477 61.576 273.261 60.648C274.061 59.704 275.237 59.224 276.789 59.208C278.325 59.208 279.485 59.672 280.269 60.6C281.069 61.512 281.469 62.728 281.469 64.248C281.469 65.192 281.301 66.04 280.965 66.792C280.629 67.544 280.117 68.144 279.429 68.592C278.741 69.024 277.861 69.24 276.789 69.24ZM276.789 67.896C277.621 67.896 278.261 67.712 278.709 67.344C279.173 66.976 279.493 66.512 279.669 65.952C279.861 65.376 279.957 64.792 279.957 64.2C279.957 63.608 279.861 63.024 279.669 62.448C279.493 61.872 279.173 61.4 278.709 61.032C278.261 60.664 277.621 60.48 276.789 60.48C275.957 60.48 275.309 60.664 274.845 61.032C274.397 61.4 274.077 61.872 273.885 62.448C273.709 63.024 273.621 63.608 273.621 64.2C273.621 64.792 273.709 65.376 273.885 65.952C274.077 66.512 274.397 66.976 274.845 67.344C275.309 67.712 275.957 67.896 276.789 67.896ZM283.342 69V59.232H284.662L284.926 61.656H284.974C284.99 61.576 285.062 61.408 285.19 61.152C285.318 60.896 285.51 60.624 285.766 60.336C286.038 60.032 286.39 59.776 286.822 59.568C287.254 59.344 287.806 59.232 288.478 59.232C289.326 59.232 289.99 59.384 290.47 59.688C290.966 59.992 291.334 60.4 291.574 60.912C291.814 61.408 291.966 61.944 292.03 62.52C292.094 63.096 292.126 63.648 292.126 64.176V69H290.638V64.176C290.638 63.12 290.454 62.264 290.086 61.608C289.734 60.952 289.03 60.624 287.974 60.624C287.254 60.624 286.662 60.8 286.198 61.152C285.75 61.488 285.422 61.944 285.214 62.52C285.022 63.08 284.926 63.696 284.926 64.368V69H283.342ZM301.037 59.232H302.573V59.568L298.877 69H296.693L292.973 59.568V59.232H294.509L297.773 67.728H297.821L301.037 59.232ZM308.219 69.24C307.147 69.24 306.259 69 305.555 68.52C304.867 68.024 304.355 67.392 304.019 66.624C303.699 65.84 303.539 65.032 303.539 64.2C303.539 63.288 303.715 62.456 304.067 61.704C304.435 60.936 304.963 60.328 305.651 59.88C306.355 59.432 307.195 59.208 308.171 59.208C309.419 59.208 310.459 59.616 311.291 60.432C312.123 61.232 312.571 62.312 312.635 63.672C312.651 63.736 312.659 63.832 312.659 63.96C312.659 64.072 312.659 64.176 312.659 64.272H305.027C305.027 65.408 305.299 66.304 305.843 66.96C306.403 67.6 307.187 67.92 308.195 67.92C308.947 67.92 309.587 67.728 310.115 67.344C310.659 66.96 310.995 66.44 311.123 65.784H312.635C312.475 66.776 312.003 67.6 311.219 68.256C310.435 68.912 309.435 69.24 308.219 69.24ZM305.075 63.432H311.075C311.075 63.096 310.979 62.696 310.787 62.232C310.611 61.768 310.307 61.368 309.875 61.032C309.459 60.68 308.883 60.504 308.147 60.504C307.475 60.504 306.923 60.648 306.491 60.936C306.059 61.224 305.731 61.592 305.507 62.04C305.283 62.488 305.139 62.952 305.075 63.432ZM314.847 69V59.232H316.239L316.407 61.8C316.503 61.368 316.695 60.952 316.983 60.552C317.271 60.152 317.663 59.832 318.159 59.592C318.671 59.336 319.303 59.216 320.055 59.232H320.511V60.936H320.031C319.007 60.936 318.231 61.088 317.703 61.392C317.191 61.68 316.839 62.088 316.647 62.616C316.471 63.144 316.383 63.752 316.383 64.44V69H314.847ZM325.738 69.24C324.81 69.24 324.042 69.048 323.434 68.664C322.842 68.264 322.394 67.8 322.09 67.272C321.802 66.744 321.658 66.272 321.658 65.856H323.146C323.146 65.872 323.154 65.992 323.17 66.216C323.202 66.44 323.29 66.696 323.434 66.984C323.578 67.272 323.826 67.528 324.178 67.752C324.53 67.96 325.042 68.064 325.714 68.064C326.434 68.064 327.05 67.936 327.562 67.68C328.09 67.424 328.346 67.024 328.33 66.48C328.33 66.016 328.17 65.664 327.85 65.424C327.546 65.168 327.146 64.976 326.65 64.848C326.154 64.704 325.634 64.568 325.09 64.44C324.546 64.312 324.026 64.152 323.53 63.96C323.05 63.752 322.658 63.464 322.354 63.096C322.05 62.728 321.898 62.216 321.898 61.56C321.898 60.76 322.258 60.128 322.978 59.664C323.698 59.184 324.618 58.944 325.738 58.944C326.362 58.944 326.994 59.048 327.634 59.256C328.274 59.448 328.802 59.792 329.218 60.288C329.634 60.768 329.826 61.448 329.794 62.328H328.354C328.386 61.72 328.25 61.264 327.946 60.96C327.642 60.656 327.274 60.456 326.842 60.36C326.426 60.248 326.042 60.192 325.69 60.192C325.002 60.192 324.434 60.32 323.986 60.576C323.554 60.832 323.338 61.192 323.338 61.656C323.338 62.104 323.49 62.448 323.794 62.688C324.114 62.912 324.514 63.096 324.994 63.24C325.49 63.368 326.01 63.496 326.554 63.624C327.114 63.736 327.642 63.896 328.138 64.104C328.634 64.312 329.034 64.608 329.338 64.992C329.658 65.376 329.818 65.904 329.818 66.576C329.818 67.504 329.426 68.184 328.642 68.616C327.858 69.032 326.89 69.24 325.738 69.24ZM334.938 69.216C334.042 69.216 333.306 69 332.73 68.568C332.154 68.12 331.722 67.52 331.434 66.768C331.162 66.016 331.026 65.16 331.026 64.2C331.026 62.728 331.346 61.52 331.986 60.576C332.642 59.616 333.626 59.136 334.938 59.136C335.61 59.136 336.17 59.256 336.618 59.496C337.082 59.72 337.45 60 337.722 60.336C338.01 60.672 338.218 60.992 338.346 61.296H338.37V59.232H339.954V69H338.634L338.394 67.104H338.346C338.202 67.424 337.994 67.752 337.722 68.088C337.45 68.408 337.082 68.68 336.618 68.904C336.17 69.112 335.61 69.216 334.938 69.216ZM335.538 67.848C336.53 67.848 337.242 67.52 337.674 66.864C338.122 66.208 338.346 65.328 338.346 64.224C338.346 63.04 338.114 62.136 337.65 61.512C337.202 60.888 336.498 60.576 335.538 60.576C334.482 60.576 333.722 60.928 333.258 61.632C332.81 62.32 332.586 63.176 332.586 64.2C332.586 65.272 332.818 66.152 333.282 66.84C333.746 67.512 334.498 67.848 335.538 67.848ZM344.196 69C343.604 69 343.188 68.84 342.948 68.52C342.724 68.2 342.612 67.76 342.612 67.2V60.384H341.076V59.232C341.588 59.232 341.964 59.192 342.204 59.112C342.46 59.016 342.62 58.792 342.684 58.44C342.748 58.088 342.78 57.512 342.78 56.712H344.1V59.232H346.356V60.384H344.1V67.752H346.38V69H344.196ZM349.605 58.176C349.253 58.176 349.013 58.088 348.885 57.912C348.773 57.72 348.717 57.48 348.717 57.192C348.717 56.952 348.773 56.744 348.885 56.568C349.013 56.376 349.253 56.28 349.605 56.28C349.957 56.28 350.189 56.376 350.301 56.568C350.429 56.744 350.493 56.952 350.493 57.192C350.493 57.48 350.429 57.72 350.301 57.912C350.189 58.088 349.957 58.176 349.605 58.176ZM348.837 69V59.232H350.373V69H348.837ZM357.039 69.24C355.471 69.24 354.295 68.776 353.511 67.848C352.743 66.904 352.359 65.704 352.359 64.248C352.343 62.776 352.727 61.576 353.511 60.648C354.311 59.704 355.487 59.224 357.039 59.208C358.575 59.208 359.735 59.672 360.519 60.6C361.319 61.512 361.719 62.728 361.719 64.248C361.719 65.192 361.551 66.04 361.215 66.792C360.879 67.544 360.367 68.144 359.679 68.592C358.991 69.024 358.111 69.24 357.039 69.24ZM357.039 67.896C357.871 67.896 358.511 67.712 358.959 67.344C359.423 66.976 359.743 66.512 359.919 65.952C360.111 65.376 360.207 64.792 360.207 64.2C360.207 63.608 360.111 63.024 359.919 62.448C359.743 61.872 359.423 61.4 358.959 61.032C358.511 60.664 357.871 60.48 357.039 60.48C356.207 60.48 355.559 60.664 355.095 61.032C354.647 61.4 354.327 61.872 354.135 62.448C353.959 63.024 353.871 63.608 353.871 64.2C353.871 64.792 353.959 65.376 354.135 65.952C354.327 66.512 354.647 66.976 355.095 67.344C355.559 67.712 356.207 67.896 357.039 67.896ZM363.592 69V59.232H364.912L365.176 61.656H365.224C365.24 61.576 365.312 61.408 365.44 61.152C365.568 60.896 365.76 60.624 366.016 60.336C366.288 60.032 366.64 59.776 367.072 59.568C367.504 59.344 368.056 59.232 368.728 59.232C369.576 59.232 370.24 59.384 370.72 59.688C371.216 59.992 371.584 60.4 371.824 60.912C372.064 61.408 372.216 61.944 372.28 62.52C372.344 63.096 372.376 63.648 372.376 64.176V69H370.888V64.176C370.888 63.12 370.704 62.264 370.336 61.608C369.984 60.952 369.28 60.624 368.224 60.624C367.504 60.624 366.912 60.8 366.448 61.152C366 61.488 365.672 61.944 365.464 62.52C365.272 63.08 365.176 63.696 365.176 64.368V69H363.592ZM378.191 69.24C377.263 69.24 376.495 69.048 375.887 68.664C375.295 68.264 374.847 67.8 374.543 67.272C374.255 66.744 374.111 66.272 374.111 65.856H375.599C375.599 65.872 375.607 65.992 375.623 66.216C375.655 66.44 375.743 66.696 375.887 66.984C376.031 67.272 376.279 67.528 376.631 67.752C376.983 67.96 377.495 68.064 378.167 68.064C378.887 68.064 379.503 67.936 380.015 67.68C380.543 67.424 380.799 67.024 380.783 66.48C380.783 66.016 380.623 65.664 380.303 65.424C379.999 65.168 379.599 64.976 379.103 64.848C378.607 64.704 378.087 64.568 377.543 64.44C376.999 64.312 376.479 64.152 375.983 63.96C375.503 63.752 375.111 63.464 374.807 63.096C374.503 62.728 374.351 62.216 374.351 61.56C374.351 60.76 374.711 60.128 375.431 59.664C376.151 59.184 377.071 58.944 378.191 58.944C378.815 58.944 379.447 59.048 380.087 59.256C380.727 59.448 381.255 59.792 381.671 60.288C382.087 60.768 382.279 61.448 382.247 62.328H380.807C380.839 61.72 380.703 61.264 380.399 60.96C380.095 60.656 379.727 60.456 379.295 60.36C378.879 60.248 378.495 60.192 378.143 60.192C377.455 60.192 376.887 60.32 376.439 60.576C376.007 60.832 375.791 61.192 375.791 61.656C375.791 62.104 375.943 62.448 376.247 62.688C376.567 62.912 376.967 63.096 377.447 63.24C377.943 63.368 378.463 63.496 379.007 63.624C379.567 63.736 380.095 63.896 380.591 64.104C381.087 64.312 381.487 64.608 381.791 64.992C382.111 65.376 382.271 65.904 382.271 66.576C382.271 67.504 381.879 68.184 381.095 68.616C380.311 69.032 379.343 69.24 378.191 69.24ZM390.878 58.176C390.526 58.176 390.286 58.088 390.158 57.912C390.046 57.72 389.99 57.48 389.99 57.192C389.99 56.952 390.046 56.744 390.158 56.568C390.286 56.376 390.526 56.28 390.878 56.28C391.23 56.28 391.462 56.376 391.574 56.568C391.702 56.744 391.766 56.952 391.766 57.192C391.766 57.48 391.702 57.72 391.574 57.912C391.462 58.088 391.23 58.176 390.878 58.176ZM390.11 69V59.232H391.646V69H390.11ZM393.896 69V59.232H395.216L395.48 61.656H395.528C395.544 61.576 395.616 61.408 395.744 61.152C395.872 60.896 396.064 60.624 396.32 60.336C396.592 60.032 396.944 59.776 397.376 59.568C397.808 59.344 398.36 59.232 399.032 59.232C399.88 59.232 400.544 59.384 401.024 59.688C401.52 59.992 401.888 60.4 402.128 60.912C402.368 61.408 402.52 61.944 402.584 62.52C402.648 63.096 402.68 63.648 402.68 64.176V69H401.192V64.176C401.192 63.12 401.008 62.264 400.64 61.608C400.288 60.952 399.584 60.624 398.528 60.624C397.808 60.624 397.216 60.8 396.752 61.152C396.304 61.488 395.976 61.944 395.768 62.52C395.576 63.08 395.48 63.696 395.48 64.368V69H393.896Z" fill="#E4E8EB"/>
<path d="M160.767 116H158.013V91.7716H167.222C169.89 91.7716 171.927 92.4171 173.333 93.7081C174.739 94.9992 175.442 96.9214 175.442 99.4748C175.442 101.856 174.71 103.692 173.247 104.983C171.813 106.274 169.804 106.92 167.222 106.92H160.767V116ZM166.921 94.1385H160.767V104.768H166.921C168.815 104.768 170.278 104.338 171.311 103.477C172.372 102.588 172.903 101.254 172.903 99.4748C172.903 97.6386 172.386 96.2902 171.354 95.4295C170.349 94.5688 168.872 94.1385 166.921 94.1385ZM178.422 116V98.485H180.918L181.22 103.09C181.392 102.315 181.736 101.569 182.252 100.852C182.769 100.135 183.472 99.5608 184.361 99.1305C185.279 98.6714 186.412 98.4563 187.761 98.485H188.578V101.54H187.718C185.882 101.54 184.49 101.813 183.543 102.358C182.625 102.874 181.994 103.606 181.65 104.553C181.334 105.5 181.177 106.59 181.177 107.823V116H178.422ZM193.173 96.5914C192.542 96.5914 192.111 96.4337 191.882 96.1181C191.681 95.7738 191.58 95.3434 191.58 94.827C191.58 94.3967 191.681 94.0237 191.882 93.7081C192.111 93.3639 192.542 93.1917 193.173 93.1917C193.804 93.1917 194.22 93.3639 194.421 93.7081C194.65 94.0237 194.765 94.3967 194.765 94.827C194.765 95.3434 194.65 95.7738 194.421 96.1181C194.22 96.4337 193.804 96.5914 193.173 96.5914ZM191.796 116V98.485H194.55V116H191.796ZM211.402 98.485H214.156V99.0874L207.529 116H203.613L196.942 99.0874V98.485H199.696L205.549 113.719H205.635L211.402 98.485ZM222.81 116.387C221.203 116.387 219.883 116 218.851 115.225C217.818 114.422 217.043 113.346 216.527 111.998C216.039 110.649 215.795 109.114 215.795 107.393C215.795 104.754 216.369 102.588 217.516 100.895C218.693 99.1735 220.457 98.3128 222.81 98.3128C224.015 98.3128 225.019 98.528 225.822 98.9583C226.654 99.36 227.314 99.8621 227.802 100.465C228.318 101.067 228.691 101.641 228.921 102.186H228.964V98.485H231.804V116H229.437L229.007 112.6H228.921C228.662 113.174 228.289 113.762 227.802 114.365C227.314 114.938 226.654 115.426 225.822 115.828C225.019 116.201 224.015 116.387 222.81 116.387ZM223.886 113.934C225.664 113.934 226.941 113.346 227.716 112.17C228.519 110.994 228.921 109.416 228.921 107.436C228.921 105.313 228.505 103.692 227.673 102.573C226.869 101.454 225.607 100.895 223.886 100.895C221.992 100.895 220.629 101.526 219.797 102.788C218.994 104.022 218.592 105.557 218.592 107.393C218.592 109.315 219.008 110.893 219.84 112.127C220.672 113.332 222.021 113.934 223.886 113.934ZM239.411 116C238.349 116 237.603 115.713 237.173 115.139C236.771 114.566 236.57 113.777 236.57 112.772V100.551H233.816V98.485C234.734 98.485 235.408 98.4132 235.839 98.2698C236.298 98.0977 236.585 97.696 236.699 97.0648C236.814 96.4337 236.872 95.4008 236.872 93.9663H239.238V98.485H243.284V100.551H239.238V113.762H243.327V116H239.411ZM254.329 116.43C252.407 116.43 250.815 116 249.553 115.139C248.319 114.25 247.401 113.117 246.798 111.74C246.225 110.334 245.938 108.885 245.938 107.393C245.938 105.758 246.253 104.266 246.884 102.918C247.544 101.54 248.491 100.45 249.725 99.6469C250.987 98.8436 252.493 98.4419 254.243 98.4419C256.481 98.4419 258.346 99.1735 259.838 100.637C261.33 102.071 262.133 104.008 262.248 106.446C262.276 106.561 262.291 106.733 262.291 106.963C262.291 107.164 262.291 107.35 262.291 107.522H248.606C248.606 109.559 249.094 111.166 250.069 112.342C251.073 113.49 252.479 114.063 254.286 114.063C255.635 114.063 256.782 113.719 257.729 113.031C258.705 112.342 259.307 111.41 259.537 110.233H262.248C261.961 112.012 261.115 113.49 259.709 114.666C258.303 115.842 256.51 116.43 254.329 116.43ZM248.692 106.016H259.451C259.451 105.414 259.278 104.696 258.934 103.864C258.619 103.032 258.073 102.315 257.299 101.713C256.553 101.081 255.52 100.766 254.2 100.766C252.995 100.766 252.006 101.024 251.231 101.54C250.456 102.057 249.868 102.717 249.467 103.52C249.065 104.323 248.807 105.155 248.692 106.016ZM284.044 116.43C282.408 116.43 280.945 116.086 279.654 115.398C278.363 114.709 277.345 113.705 276.599 112.385C275.853 111.065 275.48 109.473 275.48 107.608C275.537 105.772 275.925 104.166 276.642 102.788C277.388 101.411 278.406 100.35 279.697 99.6039C280.988 98.8292 282.466 98.4419 284.13 98.4419C285.679 98.4419 287.027 98.7288 288.175 99.3026C289.323 99.8764 290.241 100.651 290.929 101.626C291.618 102.602 292.048 103.678 292.22 104.854H289.681C289.394 103.592 288.763 102.616 287.788 101.928C286.841 101.239 285.65 100.895 284.216 100.895C282.38 100.895 280.917 101.512 279.826 102.745C278.765 103.95 278.22 105.528 278.191 107.479C278.191 109.459 278.707 111.037 279.74 112.213C280.802 113.361 282.279 113.934 284.173 113.934C285.55 113.934 286.741 113.59 287.745 112.902C288.749 112.213 289.394 111.223 289.681 109.932H292.22C292.048 111.137 291.603 112.227 290.886 113.203C290.198 114.178 289.265 114.967 288.089 115.57C286.941 116.143 285.593 116.43 284.044 116.43ZM295.626 116V91.7716H298.424V102.831H298.51C298.567 102.688 298.696 102.387 298.897 101.928C299.127 101.469 299.471 100.981 299.93 100.465C300.389 99.9194 301.006 99.4604 301.78 99.0874C302.555 98.6858 303.53 98.485 304.707 98.485C306.199 98.485 307.389 98.7719 308.279 99.3457C309.168 99.8908 309.828 100.622 310.258 101.54C310.717 102.43 311.018 103.391 311.162 104.424C311.305 105.457 311.377 106.432 311.377 107.35V116H308.666V107.35C308.666 105.457 308.336 103.922 307.676 102.745C307.045 101.569 305.797 100.981 303.932 100.981C302.612 100.981 301.551 101.297 300.748 101.928C299.944 102.53 299.356 103.348 298.983 104.381C298.61 105.385 298.424 106.489 298.424 107.694V116H295.626ZM321.108 116.387C319.502 116.387 318.182 116 317.149 115.225C316.116 114.422 315.342 113.346 314.825 111.998C314.337 110.649 314.094 109.114 314.094 107.393C314.094 104.754 314.667 102.588 315.815 100.895C316.991 99.1735 318.756 98.3128 321.108 98.3128C322.313 98.3128 323.317 98.528 324.121 98.9583C324.953 99.36 325.612 99.8621 326.1 100.465C326.617 101.067 326.99 101.641 327.219 102.186H327.262V98.485H330.102V116H327.736L327.305 112.6H327.219C326.961 113.174 326.588 113.762 326.1 114.365C325.612 114.938 324.953 115.426 324.121 115.828C323.317 116.201 322.313 116.387 321.108 116.387ZM322.184 113.934C323.963 113.934 325.24 113.346 326.014 112.17C326.817 110.994 327.219 109.416 327.219 107.436C327.219 105.313 326.803 103.692 325.971 102.573C325.168 101.454 323.905 100.895 322.184 100.895C320.291 100.895 318.928 101.526 318.096 102.788C317.292 104.022 316.891 105.557 316.891 107.393C316.891 109.315 317.307 110.893 318.139 112.127C318.971 113.332 320.319 113.934 322.184 113.934ZM333.32 116V98.485H335.686L336.16 102.831H336.246C336.275 102.688 336.404 102.387 336.633 101.928C336.863 101.469 337.207 100.981 337.666 100.465C338.154 99.9194 338.785 99.4604 339.56 99.0874C340.334 98.6858 341.324 98.485 342.529 98.485C344.05 98.485 345.24 98.7575 346.101 99.3026C346.99 99.8477 347.65 100.579 348.08 101.497C348.511 102.387 348.783 103.348 348.898 104.381C349.013 105.414 349.07 106.403 349.07 107.35V116H346.402V107.35C346.402 105.457 346.072 103.922 345.412 102.745C344.781 101.569 343.519 100.981 341.625 100.981C340.334 100.981 339.273 101.297 338.441 101.928C337.637 102.53 337.049 103.348 336.676 104.381C336.332 105.385 336.16 106.489 336.16 107.694V116H333.32ZM352.525 116V98.485H354.892L355.366 102.831H355.452C355.48 102.688 355.61 102.387 355.839 101.928C356.069 101.469 356.413 100.981 356.872 100.465C357.36 99.9194 357.991 99.4604 358.765 99.0874C359.54 98.6858 360.53 98.485 361.735 98.485C363.255 98.485 364.446 98.7575 365.307 99.3026C366.196 99.8477 366.856 100.579 367.286 101.497C367.717 102.387 367.989 103.348 368.104 104.381C368.219 105.414 368.276 106.403 368.276 107.35V116H365.608V107.35C365.608 105.457 365.278 103.922 364.618 102.745C363.987 101.569 362.725 100.981 360.831 100.981C359.54 100.981 358.479 101.297 357.647 101.928C356.843 102.53 356.255 103.348 355.882 104.381C355.538 105.385 355.366 106.489 355.366 107.694V116H352.525ZM379.693 116.43C377.77 116.43 376.178 116 374.916 115.139C373.682 114.25 372.764 113.117 372.162 111.74C371.588 110.334 371.301 108.885 371.301 107.393C371.301 105.758 371.616 104.266 372.248 102.918C372.908 101.54 373.854 100.45 375.088 99.6469C376.35 98.8436 377.856 98.4419 379.607 98.4419C381.844 98.4419 383.709 99.1735 385.201 100.637C386.693 102.071 387.496 104.008 387.611 106.446C387.64 106.561 387.654 106.733 387.654 106.963C387.654 107.164 387.654 107.35 387.654 107.522H373.969C373.969 109.559 374.457 111.166 375.432 112.342C376.436 113.49 377.842 114.063 379.65 114.063C380.998 114.063 382.146 113.719 383.092 113.031C384.068 112.342 384.67 111.41 384.9 110.233H387.611C387.324 112.012 386.478 113.49 385.072 114.666C383.666 115.842 381.873 116.43 379.693 116.43ZM374.055 106.016H384.814C384.814 105.414 384.642 104.696 384.297 103.864C383.982 103.032 383.437 102.315 382.662 101.713C381.916 101.081 380.883 100.766 379.564 100.766C378.359 100.766 377.369 101.024 376.594 101.54C375.82 102.057 375.231 102.717 374.83 103.52C374.428 104.323 374.17 105.155 374.055 106.016ZM391.75 116V91.7716H394.461V116H391.75Z" fill="url(#paint7_linear_779_3615)"/>
<defs>
<filter id="filter0_b_779_3615" x="-33.5449" y="-33.5449" width="619.09" height="441.09" filterUnits="userSpaceOnUse" color-interpolation-filters="sRGB">
<feFlood flood-opacity="0" result="BackgroundImageFix"/>
<feGaussianBlur in="BackgroundImageFix" stdDeviation="16.7725"/>
<feComposite in2="SourceAlpha" operator="in" result="effect1_backgroundBlur_779_3615"/>
<feBlend mode="normal" in="SourceGraphic" in2="effect1_backgroundBlur_779_3615" result="shape"/>
</filter>
<filter id="filter1_b_779_3615" x="-20.5449" y="-20.5449" width="592.09" height="415.09" filterUnits="userSpaceOnUse" color-interpolation-filters="sRGB">
<feFlood flood-opacity="0" result="BackgroundImageFix"/>
<feGaussianBlur in="BackgroundImageFix" stdDeviation="16.7725"/>
<feComposite in2="SourceAlpha" operator="in" result="effect1_backgroundBlur_779_3615"/>
<feBlend mode="normal" in="SourceGraphic" in2="effect1_backgroundBlur_779_3615" result="shape"/>
</filter>
<filter id="filter2_f_779_3615" x="245" y="141" width="116" height="116" filterUnits="userSpaceOnUse" color-interpolation-filters="sRGB">
<feFlood flood-opacity="0" result="BackgroundImageFix"/>
<feBlend mode="normal" in="SourceGraphic" in2="BackgroundImageFix" result="shape"/>
<feGaussianBlur stdDeviation="20" result="effect1_foregroundBlur_779_3615"/>
</filter>
<filter id="filter3_b_779_3615" x="185.455" y="140.455" width="179.09" height="113.09" filterUnits="userSpaceOnUse" color-interpolation-filters="sRGB">
<feFlood flood-opacity="0" result="BackgroundImageFix"/>
<feGaussianBlur in="BackgroundImageFix" stdDeviation="16.7725"/>
<feComposite in2="SourceAlpha" operator="in" result="effect1_backgroundBlur_779_3615"/>
<feBlend mode="normal" in="SourceGraphic" in2="effect1_backgroundBlur_779_3615" result="shape"/>
</filter>
<filter id="filter4_bd_779_3615" x="252.018" y="151.018" width="100.616" height="90.9636" filterUnits="userSpaceOnUse" color-interpolation-filters="sRGB">
<feFlood flood-opacity="0" result="BackgroundImageFix"/>
<feGaussianBlur in="BackgroundImageFix" stdDeviation="13.4909"/>
<feComposite in2="SourceAlpha" operator="in" result="effect1_backgroundBlur_779_3615"/>
<feColorMatrix in="SourceAlpha" type="matrix" values="0 0 0 0 0 0 0 0 0 0 0 0 0 0 0 0 0 0 127 0" result="hardAlpha"/>
<feOffset dy="4"/>
<feGaussianBlur stdDeviation="3.35"/>
<feComposite in2="hardAlpha" operator="out"/>
<feColorMatrix type="matrix" values="0 0 0 0 0 0 0 0 0 0 0 0 0 0 0 0 0 0 0.16 0"/>
<feBlend mode="normal" in2="effect1_backgroundBlur_779_3615" result="effect2_dropShadow_779_3615"/>
<feBlend mode="normal" in="SourceGraphic" in2="effect2_dropShadow_779_3615" result="shape"/>
</filter>
<filter id="filter5_d_779_3615" x="284.541" y="177.471" width="36.9191" height="43.0832" filterUnits="userSpaceOnUse" color-interpolation-filters="sRGB">
<feFlood flood-opacity="0" result="BackgroundImageFix"/>
<feColorMatrix in="SourceAlpha" type="matrix" values="0 0 0 0 0 0 0 0 0 0 0 0 0 0 0 0 0 0 127 0" result="hardAlpha"/>
<feOffset dy="4"/>
<feGaussianBlur stdDeviation="5.2"/>
<feComposite in2="hardAlpha" operator="out"/>
<feColorMatrix type="matrix" values="0 0 0 0 1 0 0 0 0 0.886851 0 0 0 0 0.410254 0 0 0 0.25 0"/>
<feBlend mode="normal" in2="BackgroundImageFix" result="effect1_dropShadow_779_3615"/>
<feBlend mode="normal" in="SourceGraphic" in2="effect1_dropShadow_779_3615" result="shape"/>
</filter>
<linearGradient id="paint0_linear_779_3615" x1="-620.45" y1="-401.177" x2="695.863" y2="874.938" gradientUnits="userSpaceOnUse">
<stop stop-color="#1F44C5"/>
<stop offset="1" stop-color="#223987" stop-opacity="0"/>
</linearGradient>
<linearGradient id="paint1_linear_779_3615" x1="-121.135" y1="-100.633" x2="518.817" y2="550.33" gradientUnits="userSpaceOnUse">
<stop stop-color="#10192C" stop-opacity="0.16"/>
<stop offset="0.432393" stop-color="#101B2E" stop-opacity="0.56"/>
<stop offset="1" stop-color="#29457B" stop-opacity="0"/>
</linearGradient>
<linearGradient id="paint2_linear_779_3615" x1="-577.102" y1="-360.287" x2="648.241" y2="853.942" gradientUnits="userSpaceOnUse">
<stop stop-color="#1F44C5"/>
<stop offset="1" stop-color="#223987" stop-opacity="0"/>
</linearGradient>
<linearGradient id="paint3_linear_779_3615" x1="190.385" y1="158.98" x2="265.561" y2="282.395" gradientUnits="userSpaceOnUse">
<stop stop-color="#10192C" stop-opacity="0.16"/>
<stop offset="0.432393" stop-color="#101B2E" stop-opacity="0.56"/>
<stop offset="1" stop-color="#29457B" stop-opacity="0"/>
</linearGradient>
<linearGradient id="paint4_linear_779_3615" x1="188.5" y1="153.5" x2="284.728" y2="322.178" gradientUnits="userSpaceOnUse">
<stop stop-color="#F2CD2C"/>
<stop offset="1" stop-color="#223987" stop-opacity="0"/>
</linearGradient>
<linearGradient id="paint5_linear_779_3615" x1="328" y1="229.5" x2="280.985" y2="171.699" gradientUnits="userSpaceOnUse">
<stop stop-color="#10192C" stop-opacity="0.16"/>
<stop offset="0.204633" stop-color="#101B2E" stop-opacity="0.56"/>
<stop offset="1" stop-color="#29457B" stop-opacity="0"/>
</linearGradient>
<linearGradient id="paint6_linear_779_3615" x1="226.563" y1="138.311" x2="354.568" y2="244.325" gradientUnits="userSpaceOnUse">
<stop stop-color="#FFD722"/>
<stop offset="1" stop-color="#010100" stop-opacity="0.85"/>
</linearGradient>
<linearGradient id="paint7_linear_779_3615" x1="155" y1="100" x2="417" y2="100" gradientUnits="userSpaceOnUse">
<stop stop-color="#C7B45D"/>
<stop offset="1" stop-color="white" stop-opacity="0.48"/>
</linearGradient>
<clipPath id="clip0_779_3615">
<rect width="37" height="33" fill="white" transform="translate(284 182)"/>
</clipPath>
</defs>
</svg>
