<svg width="88" height="88" viewBox="0 0 88 88" fill="none" xmlns="http://www.w3.org/2000/svg">
<g clip-path="url(#clip0_3070_57886)">
<path d="M27.0455 35.366L28.0455 33.634L23.7154 31.134L22.7154 32.866L27.0455 35.366Z" fill="#585858"/>
<path d="M54.366 28.0455L56.866 23.7154L55.134 22.7154L52.634 27.0455L54.366 28.0455Z" fill="#585858"/>
<path d="M23.2154 32L22.0814 35.9641L18.8853 29.5L26.0814 29.0359L23.2154 32Z" fill="#FDD320"/>
<path d="M64.2846 56.866L65.2846 55.134L60.9545 52.634L59.9545 54.366L64.2846 56.866Z" fill="#585858"/>
<path d="M65.9186 52.0359L69.1147 58.5L61.9186 58.9641L64.7846 56L65.9186 52.0359Z" fill="#FDDC51"/>
<path d="M59.5885 53C57.8085 56.0831 55.1542 58.5691 51.9612 60.1437C48.7683 61.7183 45.1802 62.3107 41.6506 61.846C38.121 61.3813 34.8084 59.8804 32.1318 57.5331C29.4552 55.1858 27.5348 52.0975 26.6134 48.6588C25.692 45.22 25.811 41.5852 26.9553 38.2141C28.0996 34.843 30.2179 31.8869 33.0423 29.7197C35.8667 27.5524 39.2703 26.2714 42.8228 26.0386C46.3752 25.8057 49.9169 26.6315 53 28.4116C57.1344 30.7985 60.1511 34.73 61.3867 39.3413C62.6223 43.9525 61.9754 48.8657 59.5885 53ZM37 56.1244C39.398 57.5088 42.1527 58.1511 44.9157 57.97C47.6787 57.7889 50.326 56.7926 52.5227 55.107C54.7194 53.4213 56.367 51.1222 57.2571 48.5002C58.1471 45.8782 58.2397 43.0511 57.523 40.3766C56.8063 37.702 55.3127 35.2999 53.2309 33.4743C51.1491 31.6486 48.5727 30.4812 45.8274 30.1198C43.0822 29.7584 40.2914 30.2191 37.808 31.4438C35.3246 32.6685 33.2602 34.602 31.8757 37C30.0192 40.2156 29.5161 44.037 30.4771 47.6235C31.4381 51.21 33.7845 54.2679 37 56.1244Z" fill="#FDDC51"/>
<path d="M56.1244 51C54.7399 53.3979 52.6755 55.3315 50.1921 56.5562C47.7087 57.7809 44.9179 58.2416 42.1727 57.8802C39.4274 57.5188 36.851 56.3514 34.7692 54.5257C32.6874 52.7 31.1937 50.298 30.4771 47.6234C29.7604 44.9488 29.853 42.1218 30.743 39.4998C31.6331 36.8778 33.2806 34.5786 35.4774 32.893C37.6741 31.2074 40.3214 30.211 43.0844 30.0299C45.8474 29.8488 48.6021 30.4911 51 31.8756C54.2156 33.7321 56.562 36.79 57.523 40.3765C58.484 43.963 57.9809 47.7844 56.1244 51ZM39.5 51.7942C41.0416 52.6842 42.8124 53.0971 44.5887 52.9807C46.3649 52.8643 48.0667 52.2238 49.4789 51.1401C50.8911 50.0565 51.9502 48.5785 52.5224 46.8929C53.0946 45.2074 53.1541 43.39 52.6934 41.6706C52.2327 39.9512 51.2724 38.4071 49.9341 37.2334C48.5958 36.0597 46.9396 35.3093 45.1748 35.077C43.41 34.8446 41.6159 35.1408 40.0194 35.9281C38.423 36.7154 37.0958 37.9584 36.2058 39.5C35.0123 41.5671 34.6889 44.0237 35.3067 46.3293C35.9245 48.635 37.4329 50.6007 39.5 51.7942Z" fill="#020202"/>
<path d="M51.7942 48.5C50.9042 50.0415 49.5771 51.2845 47.9806 52.0718C46.3842 52.8591 44.5901 53.1553 42.8253 52.923C41.0605 52.6906 39.4042 51.9402 38.0659 50.7665C36.7276 49.5929 35.7674 48.0487 35.3067 46.3293C34.846 44.61 34.9055 42.7926 35.4776 41.107C36.0498 39.4215 37.109 37.9434 38.5212 36.8598C39.9334 35.7762 41.6352 35.1357 43.4114 35.0192C45.1876 34.9028 46.9585 35.3157 48.5 36.2057C50.5672 37.3992 52.0756 39.365 52.6934 41.6706C53.3111 43.9762 52.9877 46.4328 51.7942 48.5ZM42 47.4641C42.6852 47.8596 43.4722 48.0432 44.2616 47.9914C45.0511 47.9397 45.8074 47.655 46.4351 47.1734C47.0627 46.6918 47.5334 46.0349 47.7877 45.2857C48.042 44.5366 48.0685 43.7289 47.8637 42.9647C47.659 42.2005 47.2322 41.5142 46.6374 40.9926C46.0426 40.471 45.3065 40.1375 44.5221 40.0342C43.7378 39.9309 42.9404 40.0626 42.2309 40.4125C41.5213 40.7624 40.9315 41.3148 40.5359 42C40.0055 42.9187 39.8617 44.0105 40.1363 45.0353C40.4109 46.06 41.0813 46.9336 42 47.4641Z" fill="#FDDC51"/>
<path d="M40.5359 42C39.4313 43.9132 40.0868 46.3595 42 47.4641C43.9132 48.5687 46.3595 47.9132 47.4641 46C48.5687 44.0868 47.9132 41.6405 46 40.5359C44.0868 39.4313 41.6405 40.0868 40.5359 42Z" fill="#909090"/>
<path d="M58.9641 26.0814L56 23.2154L52.0359 22.0814L58.5 18.8853L58.9641 26.0814Z" fill="#FDDC51"/>
<path d="M70.1272 35.4728L43.7629 43.1925L44.3249 45.1119L70.6892 37.3922L70.1272 35.4728Z" fill="#585858"/>
<path d="M74.2449 35.3076L76.3287 38.8654L71.5301 40.2705L67.527 37.2747L74.2449 35.3076Z" fill="#FDD320"/>
<path d="M74.0805 31.1877L74.2449 35.3075L67.5269 37.2746L69.282 32.5928L74.0805 31.1877Z" fill="#FDDC51"/>
<path d="M31.134 64.2846L32.866 65.2846L35.366 60.9545L33.634 59.9545L31.134 64.2846Z" fill="#585858"/>
<path d="M35.9641 65.9186L29.5 69.1147L29.0359 61.9186L32 64.7846L35.9641 65.9186Z" fill="#FDDC51"/>
</g>
<defs>
<clipPath id="clip0_3070_57886">
<rect width="64" height="64" fill="white" transform="translate(87.7128 32.2872) rotate(120)"/>
</clipPath>
</defs>
</svg>
