<svg width="32" height="32" viewBox="0 0 32 32" fill="none" xmlns="http://www.w3.org/2000/svg">
<path d="M23.1111 14.5556H9.88889M23.1111 14.5556C24.1543 14.5556 25 15.4012 25 16.4444V22.1111C25 23.1543 24.1543 24 23.1111 24H9.88889C8.84568 24 8 23.1543 8 22.1111V16.4444C8 15.4012 8.84568 14.5556 9.88889 14.5556M23.1111 14.5556V12.6667C23.1111 11.6235 22.2654 10.7778 21.2222 10.7778M9.88889 14.5556V12.6667C9.88889 11.6235 10.7346 10.7778 11.7778 10.7778M11.7778 10.7778V8.88889C11.7778 7.84568 12.6235 7 13.6667 7H19.3333C20.3765 7 21.2222 7.84568 21.2222 8.88889V10.7778M11.7778 10.7778H21.2222" stroke="white" stroke-width="0.864126" stroke-linecap="round" stroke-linejoin="round"/>
</svg>
