<svg width="38" height="33" viewBox="0 0 38 33" fill="none" xmlns="http://www.w3.org/2000/svg">
<g clip-path="url(#clip0_266_26379)">
<g clip-path="url(#clip1_266_26379)" filter="url(#filter0_d_266_26379)">
<path d="M26.6947 13.1834C26.5581 13.0013 26.2999 12.9645 26.1178 13.101C26.0304 13.1666 25.9725 13.2643 25.9571 13.3725L25.7285 14.9753C25.7229 14.9959 25.7157 15.016 25.707 15.0355C26.1272 14.4775 26.4664 13.8628 26.7144 13.2098L26.6947 13.1834Z" fill="#FFE269"/>
<path d="M25.3187 15.3281C25.2993 15.3281 25.2799 15.3268 25.2607 15.3244L22.8132 14.9746C22.5879 14.9423 22.4315 14.7335 22.4638 14.5082V14.5081L22.6925 12.9053C22.7244 12.68 22.5676 12.4715 22.3423 12.4397C22.2345 12.4244 22.125 12.4524 22.0378 12.5176L20.7423 13.4888C20.5603 13.6253 20.302 13.5884 20.1655 13.4064L18.6822 11.4286C18.5457 11.2466 18.5825 10.9883 18.7646 10.8518L20.0596 9.88064C20.2417 9.74411 20.2786 9.48587 20.142 9.3038C20.0764 9.21635 19.9788 9.15851 19.8705 9.14311L18.2677 8.91403C18.0424 8.88199 17.8858 8.67335 17.9178 8.44807C17.9178 8.44792 17.9179 8.44776 17.9179 8.44761L18.2677 6.00057C18.2997 5.77529 18.5084 5.61862 18.7337 5.65071C18.7338 5.65071 18.734 5.65076 18.7341 5.65076L20.3369 5.87985C20.5018 5.90374 20.6647 5.82536 20.7489 5.68166C20.8364 5.53884 20.8266 5.35683 20.7242 5.22431L19.7539 3.92971C19.6174 3.74765 19.6542 3.48941 19.8363 3.35287L20.0699 3.17776C19.6915 3.15948 19.3121 3.16962 18.9352 3.20825C14.8656 3.67292 11.9433 7.34868 12.4079 11.4183C12.6611 13.6353 13.8989 15.6204 15.7782 16.8233C16.4644 17.2487 16.8858 17.995 16.8956 18.8023V20.4673C16.8956 21.15 17.4491 21.7034 18.1317 21.7034H21.428C22.1106 21.7034 22.664 21.15 22.664 20.4673V18.8365C22.6745 18.0103 23.1046 17.2462 23.8054 16.8085C24.4549 16.3871 25.035 15.8672 25.5248 15.2675C25.4627 15.3056 25.3916 15.3265 25.3187 15.3281ZM20.1919 20.4673H19.3678V19.2312H20.1919V20.4673ZM19.3678 18.4072C19.3676 17.3178 18.6958 16.3413 17.6785 15.9515C14.7114 14.7913 13.2467 11.4456 14.4068 8.47851C14.8561 7.32962 15.6618 6.35502 16.7057 5.69773L17.1429 6.39488C14.8316 7.84919 14.137 10.9017 15.5913 13.2129C16.1548 14.1084 16.9906 14.7995 17.976 15.1847C19.3114 15.6955 20.1929 16.9774 20.1919 18.4072H19.3678Z" fill="#FFE269"/>
<path d="M18.1328 23.7637V24.1757C18.1328 24.6308 18.5017 24.9998 18.9569 24.9998H20.605C21.0601 24.9998 21.429 24.6308 21.429 24.1757V23.7637H18.1328Z" fill="#FFE269"/>
<path d="M15.5621 17.1713C15.318 17.013 15.0828 16.8412 14.8579 16.6566C14.2359 17.8675 12.7501 18.3448 11.5393 17.7229C10.7151 17.2995 10.198 16.4497 10.2008 15.5232C10.2027 14.2774 11.1304 13.2274 12.3664 13.072C12.2152 12.6172 12.1059 12.1495 12.0401 11.6748L11.968 12.0176C11.8743 12.463 11.4373 12.7481 10.992 12.6545C10.8853 12.6321 10.7841 12.5887 10.6944 12.5269L9.83736 11.9385L9.08664 12.6876L9.67667 13.5454C9.93491 13.9202 9.84045 14.4333 9.46571 14.6916C9.37584 14.7535 9.27458 14.797 9.16781 14.8194L8.14062 15.0357V16.0147L9.16781 16.231C9.61316 16.3248 9.89818 16.7619 9.8044 17.2072C9.78189 17.3141 9.73832 17.4155 9.67626 17.5054L9.08664 18.3587L9.83736 19.1078L10.6936 18.5178C11.0683 18.2595 11.5815 18.354 11.8397 18.7287C11.9016 18.8186 11.9451 18.9199 11.9675 19.0266L12.1835 20.0555H13.1628L13.3787 19.0283C13.4725 18.5829 13.9095 18.2979 14.3548 18.3916C14.4616 18.414 14.5629 18.4575 14.6527 18.5194L15.5085 19.1078L16.3923 18.224C16.2441 17.7885 15.9511 17.4169 15.5621 17.1713Z" fill="#FFE269"/>
<path d="M21.429 22.1162H18.1328V22.9403H21.429V22.1162Z" fill="#FFE269"/>
<path d="M30.0698 8.10328C29.394 8.00665 28.9245 7.38042 29.0211 6.70464C29.0675 6.38012 29.2409 6.08732 29.5032 5.89068L30.4686 5.16634L29.4798 3.84784L28.5144 4.57178C27.9683 4.98154 27.1935 4.87101 26.7838 4.32502C26.5873 4.06318 26.5027 3.73402 26.5486 3.40986L26.7192 2.21497L25.0879 1.98218L24.9174 3.17706C24.8207 3.85284 24.1945 4.32235 23.5187 4.22573C23.1942 4.17932 22.9014 4.00591 22.7048 3.7436L21.9804 2.77657L20.6619 3.76544L21.3859 4.73082C21.7955 5.27691 21.6849 6.05168 21.1389 6.46139C20.8764 6.65824 20.5466 6.74271 20.2219 6.6962L19.027 6.52562L18.793 8.15725L19.9879 8.32783C20.6636 8.4245 21.1331 9.05068 21.0365 9.72646C20.9901 10.051 20.8167 10.3438 20.5544 10.5404L19.5894 11.2648L20.5783 12.5833L21.5437 11.8593C22.0898 11.4497 22.8645 11.5602 23.2742 12.1063C23.4711 12.3688 23.5556 12.6986 23.509 13.0233L23.3385 14.2182L24.9734 14.4522L25.144 13.2573C25.2407 12.5816 25.8668 12.1121 26.5426 12.2087C26.8671 12.2551 27.1599 12.4285 27.3566 12.6908L28.0809 13.6558L29.3994 12.6669L28.673 11.6999C28.2635 11.1537 28.3743 10.3789 28.9205 9.9694C29.1823 9.77307 29.5113 9.68861 29.8353 9.7345L31.0302 9.90508L31.263 8.27386L30.0698 8.10328ZM25.0294 10.6879C23.6641 10.6879 22.5573 9.58112 22.5573 8.21576C22.5573 6.8504 23.6641 5.74359 25.0294 5.74359C26.3948 5.74359 27.5016 6.8504 27.5016 8.21576C27.5 9.58045 26.3941 10.6863 25.0294 10.6879Z" fill="#FFE269"/>
<path d="M30.4975 16.3477H27.6133V17.1717H30.4975V16.3477Z" fill="#FFE269"/>
<path d="M27.465 18.5036L26.9375 19.1367L29.4098 21.1965L29.9373 20.5634L27.465 18.5036Z" fill="#FFE269"/>
<path d="M25.9647 19.6445H25.1406V22.5287H25.9647V19.6445Z" fill="#FFE269"/>
<path d="M11.0304 7.2962L7.73438 8.12012L7.93411 8.91914L11.2301 8.09522L11.0304 7.2962Z" fill="#FFE269"/>
<path d="M8.90058 3.23996L8.42188 3.91016L11.3058 5.97009L11.7846 5.29989L8.90058 3.23996Z" fill="#FFE269"/>
<path d="M12.7473 0.999983L11.949 1.2041L12.7917 4.50008L13.59 4.29596L12.7473 0.999983Z" fill="#FFE269"/>
</g>
</g>
<defs>
<filter id="filter0_d_266_26379" x="-2.9" y="-5.4" width="44.8" height="44.8" filterUnits="userSpaceOnUse" color-interpolation-filters="sRGB">
<feFlood flood-opacity="0" result="BackgroundImageFix"/>
<feColorMatrix in="SourceAlpha" type="matrix" values="0 0 0 0 0 0 0 0 0 0 0 0 0 0 0 0 0 0 127 0" result="hardAlpha"/>
<feOffset dy="4"/>
<feGaussianBlur stdDeviation="5.2"/>
<feComposite in2="hardAlpha" operator="out"/>
<feColorMatrix type="matrix" values="0 0 0 0 1 0 0 0 0 0.886851 0 0 0 0 0.410254 0 0 0 0.25 0"/>
<feBlend mode="normal" in2="BackgroundImageFix" result="effect1_dropShadow_266_26379"/>
<feBlend mode="normal" in="SourceGraphic" in2="effect1_dropShadow_266_26379" result="shape"/>
</filter>
<clipPath id="clip0_266_26379">
<rect width="37" height="33" fill="white" transform="translate(0.5)"/>
</clipPath>
<clipPath id="clip1_266_26379">
<rect width="24" height="24" fill="white" transform="translate(7.5 1)"/>
</clipPath>
</defs>
</svg>
