<svg width="18" height="18" viewBox="0 0 18 18" fill="none" xmlns="http://www.w3.org/2000/svg">
<g filter="url(#filter0_f_186_13631)">
<path d="M4.33333 8.7654H13.6667V7.90127H4.33333V8.7654ZM14.5679 9.66667V13.6667H15.4321V9.66667H14.5679ZM13.6667 14.5679H4.33333V15.4321H13.6667V14.5679ZM3.43206 13.6667V9.66667H2.56794V13.6667H3.43206ZM4.33333 14.5679C3.83558 14.5679 3.43206 14.1644 3.43206 13.6667H2.56794C2.56794 14.6417 3.35833 15.4321 4.33333 15.4321V14.5679ZM14.5679 13.6667C14.5679 14.1644 14.1644 14.5679 13.6667 14.5679V15.4321C14.6417 15.4321 15.4321 14.6417 15.4321 13.6667H14.5679ZM13.6667 8.7654C14.1644 8.7654 14.5679 9.16891 14.5679 9.66667H15.4321C15.4321 8.69167 14.6417 7.90127 13.6667 7.90127V8.7654ZM4.33333 7.90127C3.35833 7.90127 2.56794 8.69167 2.56794 9.66667H3.43206C3.43206 9.16891 3.83558 8.7654 4.33333 8.7654V7.90127ZM7 3.43206H11V2.56794H7V3.43206ZM3.90127 7V8.33333H4.7654V7H3.90127ZM13.2346 7V8.33333H14.0987V7H13.2346ZM5.2346 4.33333V5.66667H6.09873V4.33333H5.2346ZM5.66667 6.09873H12.3333V5.2346H5.66667V6.09873ZM11.9013 4.33333V5.66667H12.7654V4.33333H11.9013ZM11 3.43206C11.4978 3.43206 11.9013 3.83558 11.9013 4.33333H12.7654C12.7654 3.35833 11.975 2.56794 11 2.56794V3.43206ZM7 2.56794C6.025 2.56794 5.2346 3.35833 5.2346 4.33333H6.09873C6.09873 3.83558 6.50224 3.43206 7 3.43206V2.56794ZM14.0987 7C14.0987 6.025 13.3083 5.2346 12.3333 5.2346V6.09873C12.8311 6.09873 13.2346 6.50224 13.2346 7H14.0987ZM4.7654 7C4.7654 6.50224 5.16891 6.09873 5.66667 6.09873V5.2346C4.69167 5.2346 3.90127 6.025 3.90127 7H4.7654Z" fill="#34C192"/>
<path d="M4.33333 8.7654H13.6667V7.90127H4.33333V8.7654ZM14.5679 9.66667V13.6667H15.4321V9.66667H14.5679ZM13.6667 14.5679H4.33333V15.4321H13.6667V14.5679ZM3.43206 13.6667V9.66667H2.56794V13.6667H3.43206ZM4.33333 14.5679C3.83558 14.5679 3.43206 14.1644 3.43206 13.6667H2.56794C2.56794 14.6417 3.35833 15.4321 4.33333 15.4321V14.5679ZM14.5679 13.6667C14.5679 14.1644 14.1644 14.5679 13.6667 14.5679V15.4321C14.6417 15.4321 15.4321 14.6417 15.4321 13.6667H14.5679ZM13.6667 8.7654C14.1644 8.7654 14.5679 9.16891 14.5679 9.66667H15.4321C15.4321 8.69167 14.6417 7.90127 13.6667 7.90127V8.7654ZM4.33333 7.90127C3.35833 7.90127 2.56794 8.69167 2.56794 9.66667H3.43206C3.43206 9.16891 3.83558 8.7654 4.33333 8.7654V7.90127ZM7 3.43206H11V2.56794H7V3.43206ZM3.90127 7V8.33333H4.7654V7H3.90127ZM13.2346 7V8.33333H14.0987V7H13.2346ZM5.2346 4.33333V5.66667H6.09873V4.33333H5.2346ZM5.66667 6.09873H12.3333V5.2346H5.66667V6.09873ZM11.9013 4.33333V5.66667H12.7654V4.33333H11.9013ZM11 3.43206C11.4978 3.43206 11.9013 3.83558 11.9013 4.33333H12.7654C12.7654 3.35833 11.975 2.56794 11 2.56794V3.43206ZM7 2.56794C6.025 2.56794 5.2346 3.35833 5.2346 4.33333H6.09873C6.09873 3.83558 6.50224 3.43206 7 3.43206V2.56794ZM14.0987 7C14.0987 6.025 13.3083 5.2346 12.3333 5.2346V6.09873C12.8311 6.09873 13.2346 6.50224 13.2346 7H14.0987ZM4.7654 7C4.7654 6.50224 5.16891 6.09873 5.66667 6.09873V5.2346C4.69167 5.2346 3.90127 6.025 3.90127 7H4.7654Z" fill="#2ADABB"/>
</g>
<path d="M4.33333 8.7654H13.6667V7.90127H4.33333V8.7654ZM14.5679 9.66667V13.6667H15.4321V9.66667H14.5679ZM13.6667 14.5679H4.33333V15.4321H13.6667V14.5679ZM3.43206 13.6667V9.66667H2.56794V13.6667H3.43206ZM4.33333 14.5679C3.83558 14.5679 3.43206 14.1644 3.43206 13.6667H2.56794C2.56794 14.6417 3.35833 15.4321 4.33333 15.4321V14.5679ZM14.5679 13.6667C14.5679 14.1644 14.1644 14.5679 13.6667 14.5679V15.4321C14.6417 15.4321 15.4321 14.6417 15.4321 13.6667H14.5679ZM13.6667 8.7654C14.1644 8.7654 14.5679 9.16891 14.5679 9.66667H15.4321C15.4321 8.69167 14.6417 7.90127 13.6667 7.90127V8.7654ZM4.33333 7.90127C3.35833 7.90127 2.56794 8.69167 2.56794 9.66667H3.43206C3.43206 9.16891 3.83558 8.7654 4.33333 8.7654V7.90127ZM7 3.43206H11V2.56794H7V3.43206ZM3.90127 7V8.33333H4.7654V7H3.90127ZM13.2346 7V8.33333H14.0987V7H13.2346ZM5.2346 4.33333V5.66667H6.09873V4.33333H5.2346ZM5.66667 6.09873H12.3333V5.2346H5.66667V6.09873ZM11.9013 4.33333V5.66667H12.7654V4.33333H11.9013ZM11 3.43206C11.4978 3.43206 11.9013 3.83558 11.9013 4.33333H12.7654C12.7654 3.35833 11.975 2.56794 11 2.56794V3.43206ZM7 2.56794C6.025 2.56794 5.2346 3.35833 5.2346 4.33333H6.09873C6.09873 3.83558 6.50224 3.43206 7 3.43206V2.56794ZM14.0987 7C14.0987 6.025 13.3083 5.2346 12.3333 5.2346V6.09873C12.8311 6.09873 13.2346 6.50224 13.2346 7H14.0987ZM4.7654 7C4.7654 6.50224 5.16891 6.09873 5.66667 6.09873V5.2346C4.69167 5.2346 3.90127 6.025 3.90127 7H4.7654Z" fill="#34C192"/>
<path d="M4.33333 8.7654H13.6667V7.90127H4.33333V8.7654ZM14.5679 9.66667V13.6667H15.4321V9.66667H14.5679ZM13.6667 14.5679H4.33333V15.4321H13.6667V14.5679ZM3.43206 13.6667V9.66667H2.56794V13.6667H3.43206ZM4.33333 14.5679C3.83558 14.5679 3.43206 14.1644 3.43206 13.6667H2.56794C2.56794 14.6417 3.35833 15.4321 4.33333 15.4321V14.5679ZM14.5679 13.6667C14.5679 14.1644 14.1644 14.5679 13.6667 14.5679V15.4321C14.6417 15.4321 15.4321 14.6417 15.4321 13.6667H14.5679ZM13.6667 8.7654C14.1644 8.7654 14.5679 9.16891 14.5679 9.66667H15.4321C15.4321 8.69167 14.6417 7.90127 13.6667 7.90127V8.7654ZM4.33333 7.90127C3.35833 7.90127 2.56794 8.69167 2.56794 9.66667H3.43206C3.43206 9.16891 3.83558 8.7654 4.33333 8.7654V7.90127ZM7 3.43206H11V2.56794H7V3.43206ZM3.90127 7V8.33333H4.7654V7H3.90127ZM13.2346 7V8.33333H14.0987V7H13.2346ZM5.2346 4.33333V5.66667H6.09873V4.33333H5.2346ZM5.66667 6.09873H12.3333V5.2346H5.66667V6.09873ZM11.9013 4.33333V5.66667H12.7654V4.33333H11.9013ZM11 3.43206C11.4978 3.43206 11.9013 3.83558 11.9013 4.33333H12.7654C12.7654 3.35833 11.975 2.56794 11 2.56794V3.43206ZM7 2.56794C6.025 2.56794 5.2346 3.35833 5.2346 4.33333H6.09873C6.09873 3.83558 6.50224 3.43206 7 3.43206V2.56794ZM14.0987 7C14.0987 6.025 13.3083 5.2346 12.3333 5.2346V6.09873C12.8311 6.09873 13.2346 6.50224 13.2346 7H14.0987ZM4.7654 7C4.7654 6.50224 5.16891 6.09873 5.66667 6.09873V5.2346C4.69167 5.2346 3.90127 6.025 3.90127 7H4.7654Z" fill="#2ADABB"/>
<defs>
<filter id="filter0_f_186_13631" x="0.567871" y="0.567871" width="16.8643" height="16.8643" filterUnits="userSpaceOnUse" color-interpolation-filters="sRGB">
<feFlood flood-opacity="0" result="BackgroundImageFix"/>
<feBlend mode="normal" in="SourceGraphic" in2="BackgroundImageFix" result="shape"/>
<feGaussianBlur stdDeviation="1" result="effect1_foregroundBlur_186_13631"/>
</filter>
</defs>
</svg>
