<svg width="552" height="374" viewBox="0 0 552 374" fill="none" xmlns="http://www.w3.org/2000/svg">
<g filter="url(#filter0_b_779_3616)">
<rect x="0.444172" y="0.444172" width="551.112" height="373.112" rx="44.5558" stroke="url(#paint0_linear_779_3616)" stroke-opacity="0.8" stroke-width="0.888344"/>
</g>
<g filter="url(#filter1_b_779_3616)">
<rect x="13" y="13" width="525" height="348" rx="30" fill="url(#paint1_linear_779_3616)"/>
<rect x="13.4442" y="13.4442" width="524.112" height="347.112" rx="29.5558" stroke="url(#paint2_linear_779_3616)" stroke-opacity="0.8" stroke-width="0.888344"/>
<g filter="url(#filter2_f_779_3616)">
<circle cx="233" cy="198" r="18" fill="#18599F" fill-opacity="0.67"/>
</g>
<g filter="url(#filter3_b_779_3616)">
<rect x="207" y="174" width="112" height="46" rx="23" fill="url(#paint3_linear_779_3616)"/>
<rect x="207.444" y="174.444" width="111.112" height="45.1117" rx="22.5558" stroke="url(#paint4_linear_779_3616)" stroke-opacity="0.8" stroke-width="0.888344"/>
</g>
<g filter="url(#filter4_bd_779_3616)">
<rect x="212" y="178" width="46.6522" height="37" rx="18.5" fill="url(#paint5_linear_779_3616)" shape-rendering="crispEdges"/>
<rect x="212.357" y="178.357" width="45.9376" height="36.2855" rx="18.1427" stroke="url(#paint6_linear_779_3616)" stroke-opacity="0.8" stroke-width="0.714538" shape-rendering="crispEdges"/>
</g>
<g clip-path="url(#clip0_779_3616)">
<g filter="url(#filter5_d_779_3616)">
<path d="M239.851 193.103V189.671C239.851 186.499 237.303 183.925 234.131 183.873C230.829 183.795 228.151 186.525 228.151 189.775V190.224C228.151 190.406 228.307 190.5 228.515 190.5H230.257C230.465 190.5 230.621 190.432 230.621 190.224V189.775C230.621 187.955 232.051 186.395 233.871 186.343C235.795 186.265 237.381 187.799 237.381 189.697V193.103H228.255C226.981 193.103 225.941 194.143 225.941 195.417V203.841C225.941 205.115 226.981 206.155 228.255 206.155H239.747C241.021 206.155 242.061 205.115 242.061 203.841V195.417C242.061 194.169 241.073 193.155 239.851 193.103Z" fill="#18599F"/>
</g>
</g>
</g>
<path d="M175.281 69.24C174.033 69.24 172.913 68.984 171.921 68.472C170.929 67.944 170.137 67.16 169.545 66.12C168.969 65.08 168.689 63.8 168.705 62.28C168.705 60.744 168.985 59.456 169.545 58.416C170.121 57.36 170.913 56.568 171.921 56.04C172.929 55.512 174.081 55.248 175.377 55.248C177.041 55.248 178.401 55.696 179.457 56.592C180.513 57.472 181.185 58.688 181.473 60.24H179.865C179.657 59.024 179.129 58.128 178.281 57.552C177.433 56.976 176.465 56.688 175.377 56.688C173.777 56.688 172.521 57.168 171.609 58.128C170.697 59.072 170.241 60.424 170.241 62.184C170.241 64.024 170.681 65.424 171.561 66.384C172.457 67.328 173.705 67.8 175.305 67.8C176.505 67.8 177.529 67.512 178.377 66.936C179.225 66.344 179.745 65.448 179.937 64.248H181.569C181.281 65.784 180.601 67 179.529 67.896C178.473 68.792 177.057 69.24 175.281 69.24ZM187.73 69.24C186.162 69.24 184.986 68.776 184.202 67.848C183.434 66.904 183.05 65.704 183.05 64.248C183.034 62.776 183.418 61.576 184.202 60.648C185.002 59.704 186.178 59.224 187.73 59.208C189.266 59.208 190.426 59.672 191.21 60.6C192.01 61.512 192.41 62.728 192.41 64.248C192.41 65.192 192.242 66.04 191.906 66.792C191.57 67.544 191.058 68.144 190.37 68.592C189.682 69.024 188.802 69.24 187.73 69.24ZM187.73 67.896C188.562 67.896 189.202 67.712 189.65 67.344C190.114 66.976 190.434 66.512 190.61 65.952C190.802 65.376 190.898 64.792 190.898 64.2C190.898 63.608 190.802 63.024 190.61 62.448C190.434 61.872 190.114 61.4 189.65 61.032C189.202 60.664 188.562 60.48 187.73 60.48C186.898 60.48 186.25 60.664 185.786 61.032C185.338 61.4 185.018 61.872 184.826 62.448C184.65 63.024 184.562 63.608 184.562 64.2C184.562 64.792 184.65 65.376 184.826 65.952C185.018 66.512 185.338 66.976 185.786 67.344C186.25 67.712 186.898 67.896 187.73 67.896ZM194.619 69V55.488H196.131V69H194.619ZM198.627 69V55.488H200.139V69H198.627ZM206.739 69.24C205.667 69.24 204.779 69 204.075 68.52C203.387 68.024 202.875 67.392 202.539 66.624C202.219 65.84 202.059 65.032 202.059 64.2C202.059 63.288 202.235 62.456 202.587 61.704C202.955 60.936 203.483 60.328 204.171 59.88C204.875 59.432 205.715 59.208 206.691 59.208C207.939 59.208 208.979 59.616 209.811 60.432C210.643 61.232 211.091 62.312 211.155 63.672C211.171 63.736 211.179 63.832 211.179 63.96C211.179 64.072 211.179 64.176 211.179 64.272H203.547C203.547 65.408 203.819 66.304 204.363 66.96C204.923 67.6 205.707 67.92 206.715 67.92C207.467 67.92 208.107 67.728 208.635 67.344C209.179 66.96 209.515 66.44 209.643 65.784H211.155C210.995 66.776 210.523 67.6 209.739 68.256C208.955 68.912 207.955 69.24 206.739 69.24ZM203.595 63.432H209.595C209.595 63.096 209.499 62.696 209.307 62.232C209.131 61.768 208.827 61.368 208.395 61.032C207.979 60.68 207.403 60.504 206.667 60.504C205.995 60.504 205.443 60.648 205.011 60.936C204.579 61.224 204.251 61.592 204.027 62.04C203.803 62.488 203.659 62.952 203.595 63.432ZM217.615 69.24C216.703 69.24 215.887 69.048 215.167 68.664C214.447 68.28 213.879 67.72 213.463 66.984C213.047 66.248 212.839 65.36 212.839 64.32C212.871 63.296 213.087 62.4 213.487 61.632C213.903 60.864 214.471 60.272 215.191 59.856C215.911 59.424 216.735 59.208 217.663 59.208C218.527 59.208 219.279 59.368 219.919 59.688C220.559 60.008 221.071 60.44 221.455 60.984C221.839 61.528 222.079 62.128 222.175 62.784H220.759C220.599 62.08 220.247 61.536 219.703 61.152C219.175 60.768 218.511 60.576 217.711 60.576C216.687 60.576 215.871 60.92 215.263 61.608C214.671 62.28 214.367 63.16 214.351 64.248C214.351 65.352 214.639 66.232 215.215 66.888C215.807 67.528 216.631 67.848 217.687 67.848C218.455 67.848 219.119 67.656 219.679 67.272C220.239 66.888 220.599 66.336 220.759 65.616H222.175C222.079 66.288 221.831 66.896 221.431 67.44C221.047 67.984 220.527 68.424 219.871 68.76C219.231 69.08 218.479 69.24 217.615 69.24ZM226.426 69C225.834 69 225.418 68.84 225.178 68.52C224.954 68.2 224.842 67.76 224.842 67.2V60.384H223.306V59.232C223.818 59.232 224.194 59.192 224.434 59.112C224.69 59.016 224.85 58.792 224.914 58.44C224.978 58.088 225.01 57.512 225.01 56.712H226.33V59.232H228.586V60.384H226.33V67.752H228.61V69H226.426ZM231.835 58.176C231.483 58.176 231.243 58.088 231.115 57.912C231.003 57.72 230.947 57.48 230.947 57.192C230.947 56.952 231.003 56.744 231.115 56.568C231.243 56.376 231.483 56.28 231.835 56.28C232.187 56.28 232.419 56.376 232.531 56.568C232.659 56.744 232.723 56.952 232.723 57.192C232.723 57.48 232.659 57.72 232.531 57.912C232.419 58.088 232.187 58.176 231.835 58.176ZM231.067 69V59.232H232.603V69H231.067ZM242.001 59.232H243.537V59.568L239.841 69H237.657L233.937 59.568V59.232H235.473L238.737 67.728H238.785L242.001 59.232ZM249.184 69.24C248.112 69.24 247.224 69 246.52 68.52C245.832 68.024 245.32 67.392 244.984 66.624C244.664 65.84 244.504 65.032 244.504 64.2C244.504 63.288 244.68 62.456 245.032 61.704C245.4 60.936 245.928 60.328 246.616 59.88C247.32 59.432 248.16 59.208 249.136 59.208C250.384 59.208 251.424 59.616 252.256 60.432C253.088 61.232 253.536 62.312 253.6 63.672C253.616 63.736 253.624 63.832 253.624 63.96C253.624 64.072 253.624 64.176 253.624 64.272H245.992C245.992 65.408 246.264 66.304 246.808 66.96C247.368 67.6 248.152 67.92 249.16 67.92C249.912 67.92 250.552 67.728 251.08 67.344C251.624 66.96 251.96 66.44 252.088 65.784H253.6C253.44 66.776 252.968 67.6 252.184 68.256C251.4 68.912 250.4 69.24 249.184 69.24ZM246.04 63.432H252.04C252.04 63.096 251.944 62.696 251.752 62.232C251.576 61.768 251.272 61.368 250.84 61.032C250.424 60.68 249.848 60.504 249.112 60.504C248.44 60.504 247.888 60.648 247.456 60.936C247.024 61.224 246.696 61.592 246.472 62.04C246.248 62.488 246.104 62.952 246.04 63.432ZM265.155 69.24C264.227 69.24 263.459 69.048 262.851 68.664C262.259 68.264 261.811 67.8 261.507 67.272C261.219 66.744 261.075 66.272 261.075 65.856H262.563C262.563 65.872 262.571 65.992 262.587 66.216C262.619 66.44 262.707 66.696 262.851 66.984C262.995 67.272 263.243 67.528 263.595 67.752C263.947 67.96 264.459 68.064 265.131 68.064C265.851 68.064 266.467 67.936 266.979 67.68C267.507 67.424 267.763 67.024 267.747 66.48C267.747 66.016 267.587 65.664 267.267 65.424C266.963 65.168 266.563 64.976 266.067 64.848C265.571 64.704 265.051 64.568 264.507 64.44C263.963 64.312 263.443 64.152 262.947 63.96C262.467 63.752 262.075 63.464 261.771 63.096C261.467 62.728 261.315 62.216 261.315 61.56C261.315 60.76 261.675 60.128 262.395 59.664C263.115 59.184 264.035 58.944 265.155 58.944C265.779 58.944 266.411 59.048 267.051 59.256C267.691 59.448 268.219 59.792 268.635 60.288C269.051 60.768 269.243 61.448 269.211 62.328H267.771C267.803 61.72 267.667 61.264 267.363 60.96C267.059 60.656 266.691 60.456 266.259 60.36C265.843 60.248 265.459 60.192 265.107 60.192C264.419 60.192 263.851 60.32 263.403 60.576C262.971 60.832 262.755 61.192 262.755 61.656C262.755 62.104 262.907 62.448 263.211 62.688C263.531 62.912 263.931 63.096 264.411 63.24C264.907 63.368 265.427 63.496 265.971 63.624C266.531 63.736 267.059 63.896 267.555 64.104C268.051 64.312 268.451 64.608 268.755 64.992C269.075 65.376 269.235 65.904 269.235 66.576C269.235 67.504 268.843 68.184 268.059 68.616C267.275 69.032 266.307 69.24 265.155 69.24ZM275.34 69.24C273.772 69.24 272.596 68.776 271.812 67.848C271.044 66.904 270.66 65.704 270.66 64.248C270.644 62.776 271.028 61.576 271.812 60.648C272.612 59.704 273.788 59.224 275.34 59.208C276.876 59.208 278.036 59.672 278.82 60.6C279.62 61.512 280.02 62.728 280.02 64.248C280.02 65.192 279.852 66.04 279.516 66.792C279.18 67.544 278.668 68.144 277.98 68.592C277.292 69.024 276.412 69.24 275.34 69.24ZM275.34 67.896C276.172 67.896 276.812 67.712 277.26 67.344C277.724 66.976 278.044 66.512 278.22 65.952C278.412 65.376 278.508 64.792 278.508 64.2C278.508 63.608 278.412 63.024 278.22 62.448C278.044 61.872 277.724 61.4 277.26 61.032C276.812 60.664 276.172 60.48 275.34 60.48C274.508 60.48 273.86 60.664 273.396 61.032C272.948 61.4 272.628 61.872 272.436 62.448C272.26 63.024 272.172 63.608 272.172 64.2C272.172 64.792 272.26 65.376 272.436 65.952C272.628 66.512 272.948 66.976 273.396 67.344C273.86 67.712 274.508 67.896 275.34 67.896ZM282.228 69V55.488H283.74V69H282.228ZM289.524 69.24C288.724 69.24 288.076 69.096 287.58 68.808C287.1 68.52 286.732 68.136 286.476 67.656C286.22 67.16 286.044 66.624 285.948 66.048C285.868 65.456 285.828 64.864 285.828 64.272V59.232H287.364V64.296C287.364 64.936 287.428 65.528 287.556 66.072C287.684 66.616 287.94 67.048 288.324 67.368C288.724 67.688 289.3 67.848 290.052 67.848C290.772 67.848 291.332 67.688 291.732 67.368C292.148 67.032 292.452 66.6 292.644 66.072C292.836 65.544 292.948 64.992 292.98 64.416V59.232H294.564V69H293.244L292.98 66.816H292.932C292.852 67.088 292.684 67.416 292.428 67.8C292.172 68.184 291.804 68.52 291.324 68.808C290.86 69.096 290.26 69.24 289.524 69.24ZM299.036 69C298.444 69 298.028 68.84 297.788 68.52C297.564 68.2 297.452 67.76 297.452 67.2V60.384H295.916V59.232C296.428 59.232 296.804 59.192 297.044 59.112C297.3 59.016 297.46 58.792 297.524 58.44C297.588 58.088 297.62 57.512 297.62 56.712H298.94V59.232H301.196V60.384H298.94V67.752H301.22V69H299.036ZM304.445 58.176C304.093 58.176 303.853 58.088 303.725 57.912C303.613 57.72 303.557 57.48 303.557 57.192C303.557 56.952 303.613 56.744 303.725 56.568C303.853 56.376 304.093 56.28 304.445 56.28C304.797 56.28 305.029 56.376 305.141 56.568C305.269 56.744 305.333 56.952 305.333 57.192C305.333 57.48 305.269 57.72 305.141 57.912C305.029 58.088 304.797 58.176 304.445 58.176ZM303.677 69V59.232H305.213V69H303.677ZM311.879 69.24C310.311 69.24 309.135 68.776 308.351 67.848C307.583 66.904 307.199 65.704 307.199 64.248C307.183 62.776 307.567 61.576 308.351 60.648C309.151 59.704 310.327 59.224 311.879 59.208C313.415 59.208 314.575 59.672 315.359 60.6C316.159 61.512 316.559 62.728 316.559 64.248C316.559 65.192 316.391 66.04 316.055 66.792C315.719 67.544 315.207 68.144 314.519 68.592C313.831 69.024 312.951 69.24 311.879 69.24ZM311.879 67.896C312.711 67.896 313.351 67.712 313.799 67.344C314.263 66.976 314.583 66.512 314.759 65.952C314.951 65.376 315.047 64.792 315.047 64.2C315.047 63.608 314.951 63.024 314.759 62.448C314.583 61.872 314.263 61.4 313.799 61.032C313.351 60.664 312.711 60.48 311.879 60.48C311.047 60.48 310.399 60.664 309.935 61.032C309.487 61.4 309.167 61.872 308.975 62.448C308.799 63.024 308.711 63.608 308.711 64.2C308.711 64.792 308.799 65.376 308.975 65.952C309.167 66.512 309.487 66.976 309.935 67.344C310.399 67.712 311.047 67.896 311.879 67.896ZM318.432 69V59.232H319.752L320.016 61.656H320.064C320.08 61.576 320.152 61.408 320.28 61.152C320.408 60.896 320.6 60.624 320.856 60.336C321.128 60.032 321.48 59.776 321.912 59.568C322.344 59.344 322.896 59.232 323.568 59.232C324.416 59.232 325.08 59.384 325.56 59.688C326.056 59.992 326.424 60.4 326.664 60.912C326.904 61.408 327.056 61.944 327.12 62.52C327.184 63.096 327.216 63.648 327.216 64.176V69H325.728V64.176C325.728 63.12 325.544 62.264 325.176 61.608C324.824 60.952 324.12 60.624 323.064 60.624C322.344 60.624 321.752 60.8 321.288 61.152C320.84 61.488 320.512 61.944 320.304 62.52C320.112 63.08 320.016 63.696 320.016 64.368V69H318.432ZM333.03 69.24C332.102 69.24 331.334 69.048 330.726 68.664C330.134 68.264 329.686 67.8 329.382 67.272C329.094 66.744 328.95 66.272 328.95 65.856H330.438C330.438 65.872 330.446 65.992 330.462 66.216C330.494 66.44 330.582 66.696 330.726 66.984C330.87 67.272 331.118 67.528 331.47 67.752C331.822 67.96 332.334 68.064 333.006 68.064C333.726 68.064 334.342 67.936 334.854 67.68C335.382 67.424 335.638 67.024 335.622 66.48C335.622 66.016 335.462 65.664 335.142 65.424C334.838 65.168 334.438 64.976 333.942 64.848C333.446 64.704 332.926 64.568 332.382 64.44C331.838 64.312 331.318 64.152 330.822 63.96C330.342 63.752 329.95 63.464 329.646 63.096C329.342 62.728 329.19 62.216 329.19 61.56C329.19 60.76 329.55 60.128 330.27 59.664C330.99 59.184 331.91 58.944 333.03 58.944C333.654 58.944 334.286 59.048 334.926 59.256C335.566 59.448 336.094 59.792 336.51 60.288C336.926 60.768 337.118 61.448 337.086 62.328H335.646C335.678 61.72 335.542 61.264 335.238 60.96C334.934 60.656 334.566 60.456 334.134 60.36C333.718 60.248 333.334 60.192 332.982 60.192C332.294 60.192 331.726 60.32 331.278 60.576C330.846 60.832 330.63 61.192 330.63 61.656C330.63 62.104 330.782 62.448 331.086 62.688C331.406 62.912 331.806 63.096 332.286 63.24C332.782 63.368 333.302 63.496 333.846 63.624C334.406 63.736 334.934 63.896 335.43 64.104C335.926 64.312 336.326 64.608 336.63 64.992C336.95 65.376 337.11 65.904 337.11 66.576C337.11 67.504 336.718 68.184 335.934 68.616C335.15 69.032 334.182 69.24 333.03 69.24ZM345.406 69.072V60.384H343.894V59.232H345.406V57.072C345.406 56.512 345.518 56.072 345.742 55.752C345.982 55.432 346.398 55.272 346.99 55.272H349.894V56.544H346.966V59.232H349.726V60.384H346.966V69.072H345.406ZM351.156 69V59.232H352.548L352.716 61.8C352.812 61.368 353.004 60.952 353.292 60.552C353.58 60.152 353.972 59.832 354.468 59.592C354.98 59.336 355.612 59.216 356.364 59.232H356.82V60.936H356.34C355.316 60.936 354.54 61.088 354.012 61.392C353.5 61.68 353.148 62.088 352.956 62.616C352.78 63.144 352.692 63.752 352.692 64.44V69H351.156ZM362.41 69.24C360.842 69.24 359.666 68.776 358.882 67.848C358.114 66.904 357.73 65.704 357.73 64.248C357.714 62.776 358.098 61.576 358.882 60.648C359.682 59.704 360.858 59.224 362.41 59.208C363.946 59.208 365.106 59.672 365.89 60.6C366.69 61.512 367.09 62.728 367.09 64.248C367.09 65.192 366.922 66.04 366.586 66.792C366.25 67.544 365.738 68.144 365.05 68.592C364.362 69.024 363.482 69.24 362.41 69.24ZM362.41 67.896C363.242 67.896 363.882 67.712 364.33 67.344C364.794 66.976 365.114 66.512 365.29 65.952C365.482 65.376 365.578 64.792 365.578 64.2C365.578 63.608 365.482 63.024 365.29 62.448C365.114 61.872 364.794 61.4 364.33 61.032C363.882 60.664 363.242 60.48 362.41 60.48C361.578 60.48 360.93 60.664 360.466 61.032C360.018 61.4 359.698 61.872 359.506 62.448C359.33 63.024 359.242 63.608 359.242 64.2C359.242 64.792 359.33 65.376 359.506 65.952C359.698 66.512 360.018 66.976 360.466 67.344C360.93 67.712 361.578 67.896 362.41 67.896ZM368.963 69V59.232H370.283L370.379 61.656H370.427C370.459 61.544 370.531 61.36 370.643 61.104C370.755 60.832 370.931 60.552 371.171 60.264C371.411 59.976 371.723 59.736 372.107 59.544C372.491 59.336 372.979 59.232 373.571 59.232C374.467 59.232 375.123 59.48 375.539 59.976C375.971 60.472 376.259 61.032 376.403 61.656H376.451C376.499 61.544 376.587 61.36 376.715 61.104C376.843 60.832 377.035 60.552 377.291 60.264C377.547 59.976 377.875 59.736 378.275 59.544C378.691 59.336 379.195 59.232 379.787 59.232C380.411 59.232 380.923 59.36 381.323 59.616C381.723 59.856 382.027 60.184 382.235 60.6C382.459 61 382.619 61.424 382.715 61.872C382.811 62.32 382.867 62.752 382.883 63.168C382.899 63.584 382.907 63.92 382.907 64.176V69H381.563V64.176C381.563 63.92 381.547 63.592 381.515 63.192C381.483 62.792 381.403 62.4 381.275 62.016C381.147 61.616 380.923 61.288 380.603 61.032C380.299 60.76 379.859 60.624 379.283 60.624C378.643 60.624 378.131 60.8 377.747 61.152C377.363 61.504 377.083 61.968 376.907 62.544C376.731 63.104 376.643 63.712 376.643 64.368V69H375.299V64.176C375.299 63.92 375.283 63.592 375.251 63.192C375.219 62.792 375.139 62.4 375.011 62.016C374.883 61.616 374.659 61.288 374.339 61.032C374.035 60.76 373.595 60.624 373.019 60.624C372.379 60.624 371.867 60.8 371.483 61.152C371.099 61.504 370.819 61.968 370.643 62.544C370.467 63.104 370.379 63.712 370.379 64.368V69H368.963Z" fill="#E4E8EB"/>
<path d="M43.9886 294H42.7086V282.74H50.4886V283.88H43.9886V287.48H49.1086V288.56H43.9886V294ZM54.4595 294.2C53.1529 294.2 52.1729 293.813 51.5195 293.04C50.8795 292.253 50.5595 291.253 50.5595 290.04C50.5462 288.813 50.8662 287.813 51.5195 287.04C52.1862 286.253 53.1662 285.853 54.4595 285.84C55.7395 285.84 56.7062 286.227 57.3595 287C58.0262 287.76 58.3595 288.773 58.3595 290.04C58.3595 290.827 58.2195 291.533 57.9395 292.16C57.6595 292.787 57.2329 293.287 56.6595 293.66C56.0862 294.02 55.3529 294.2 54.4595 294.2ZM54.4595 293.08C55.1529 293.08 55.6862 292.927 56.0595 292.62C56.4462 292.313 56.7129 291.927 56.8595 291.46C57.0195 290.98 57.0995 290.493 57.0995 290C57.0995 289.507 57.0195 289.02 56.8595 288.54C56.7129 288.06 56.4462 287.667 56.0595 287.36C55.6862 287.053 55.1529 286.9 54.4595 286.9C53.7662 286.9 53.2262 287.053 52.8395 287.36C52.4662 287.667 52.1995 288.06 52.0395 288.54C51.8929 289.02 51.8195 289.507 51.8195 290C51.8195 290.493 51.8929 290.98 52.0395 291.46C52.1995 291.927 52.4662 292.313 52.8395 292.62C53.2262 292.927 53.7662 293.08 54.4595 293.08ZM63.1602 294.2C62.3868 294.2 61.7468 294.04 61.2402 293.72C60.7468 293.387 60.3735 293 60.1202 292.56C59.8802 292.12 59.7602 291.727 59.7602 291.38H61.0002C61.0002 291.393 61.0068 291.493 61.0202 291.68C61.0468 291.867 61.1202 292.08 61.2402 292.32C61.3602 292.56 61.5668 292.773 61.8602 292.96C62.1535 293.133 62.5802 293.22 63.1402 293.22C63.7402 293.22 64.2535 293.113 64.6802 292.9C65.1202 292.687 65.3335 292.353 65.3202 291.9C65.3202 291.513 65.1868 291.22 64.9202 291.02C64.6668 290.807 64.3335 290.647 63.9202 290.54C63.5068 290.42 63.0735 290.307 62.6202 290.2C62.1668 290.093 61.7335 289.96 61.3202 289.8C60.9202 289.627 60.5935 289.387 60.3402 289.08C60.0868 288.773 59.9602 288.347 59.9602 287.8C59.9602 287.133 60.2602 286.607 60.8602 286.22C61.4602 285.82 62.2268 285.62 63.1602 285.62C63.6802 285.62 64.2068 285.707 64.7402 285.88C65.2735 286.04 65.7135 286.327 66.0602 286.74C66.4068 287.14 66.5668 287.707 66.5402 288.44H65.3402C65.3668 287.933 65.2535 287.553 65.0002 287.3C64.7468 287.047 64.4402 286.88 64.0802 286.8C63.7335 286.707 63.4135 286.66 63.1202 286.66C62.5468 286.66 62.0735 286.767 61.7002 286.98C61.3402 287.193 61.1602 287.493 61.1602 287.88C61.1602 288.253 61.2868 288.54 61.5402 288.74C61.8068 288.927 62.1402 289.08 62.5402 289.2C62.9535 289.307 63.3868 289.413 63.8402 289.52C64.3068 289.613 64.7468 289.747 65.1602 289.92C65.5735 290.093 65.9068 290.34 66.1602 290.66C66.4268 290.98 66.5602 291.42 66.5602 291.98C66.5602 292.753 66.2335 293.32 65.5802 293.68C64.9268 294.027 64.1202 294.2 63.1602 294.2ZM70.007 294C69.5137 294 69.167 293.867 68.967 293.6C68.7804 293.333 68.687 292.967 68.687 292.5V286.82H67.407V285.86C67.8337 285.86 68.147 285.827 68.347 285.76C68.5604 285.68 68.6937 285.493 68.747 285.2C68.8004 284.907 68.827 284.427 68.827 283.76H69.927V285.86H71.807V286.82H69.927V292.96H71.827V294H70.007ZM76.9405 294.2C76.0471 294.2 75.3071 294 74.7205 293.6C74.1471 293.187 73.7205 292.66 73.4405 292.02C73.1738 291.367 73.0405 290.693 73.0405 290C73.0405 289.24 73.1871 288.547 73.4805 287.92C73.7871 287.28 74.2271 286.773 74.8005 286.4C75.3871 286.027 76.0871 285.84 76.9005 285.84C77.9405 285.84 78.8071 286.18 79.5005 286.86C80.1938 287.527 80.5671 288.427 80.6205 289.56C80.6338 289.613 80.6405 289.693 80.6405 289.8C80.6405 289.893 80.6405 289.98 80.6405 290.06H74.2805C74.2805 291.007 74.5071 291.753 74.9605 292.3C75.4271 292.833 76.0805 293.1 76.9205 293.1C77.5471 293.1 78.0805 292.94 78.5205 292.62C78.9738 292.3 79.2538 291.867 79.3605 291.32H80.6205C80.4871 292.147 80.0938 292.833 79.4405 293.38C78.7871 293.927 77.9538 294.2 76.9405 294.2ZM74.3205 289.36H79.3205C79.3205 289.08 79.2405 288.747 79.0805 288.36C78.9338 287.973 78.6805 287.64 78.3205 287.36C77.9738 287.067 77.4938 286.92 76.8805 286.92C76.3205 286.92 75.8605 287.04 75.5005 287.28C75.1405 287.52 74.8671 287.827 74.6805 288.2C74.4938 288.573 74.3738 288.96 74.3205 289.36ZM82.4639 294V285.86H83.6239L83.7639 288C83.8439 287.64 84.0039 287.293 84.2439 286.96C84.4839 286.627 84.8106 286.36 85.2239 286.16C85.6506 285.947 86.1772 285.847 86.8039 285.86H87.1839V287.28H86.7839C85.9306 287.28 85.2839 287.407 84.8439 287.66C84.4172 287.9 84.1239 288.24 83.9639 288.68C83.8172 289.12 83.7439 289.627 83.7439 290.2V294H82.4639ZM92.4852 283.86V282.74H100.985V283.86H97.3852V294H96.1052V283.86H92.4852ZM100.882 294V285.86H102.042L102.182 288C102.262 287.64 102.422 287.293 102.662 286.96C102.902 286.627 103.229 286.36 103.642 286.16C104.069 285.947 104.595 285.847 105.222 285.86H105.602V287.28H105.202C104.349 287.28 103.702 287.407 103.262 287.66C102.835 287.9 102.542 288.24 102.382 288.68C102.235 289.12 102.162 289.627 102.162 290.2V294H100.882ZM109.577 294.18C108.83 294.18 108.217 294 107.737 293.64C107.257 293.267 106.897 292.767 106.657 292.14C106.43 291.513 106.317 290.8 106.317 290C106.317 288.773 106.584 287.767 107.117 286.98C107.664 286.18 108.484 285.78 109.577 285.78C110.137 285.78 110.604 285.88 110.977 286.08C111.364 286.267 111.67 286.5 111.897 286.78C112.137 287.06 112.31 287.327 112.417 287.58H112.437V285.86H113.757V294H112.657L112.457 292.42H112.417C112.297 292.687 112.124 292.96 111.897 293.24C111.67 293.507 111.364 293.733 110.977 293.92C110.604 294.093 110.137 294.18 109.577 294.18ZM110.077 293.04C110.904 293.04 111.497 292.767 111.857 292.22C112.23 291.673 112.417 290.94 112.417 290.02C112.417 289.033 112.224 288.28 111.837 287.76C111.464 287.24 110.877 286.98 110.077 286.98C109.197 286.98 108.564 287.273 108.177 287.86C107.804 288.433 107.617 289.147 107.617 290C107.617 290.893 107.81 291.627 108.197 292.2C108.584 292.76 109.21 293.04 110.077 293.04ZM115.252 294V285.86H116.352L116.572 287.88H116.612C116.626 287.813 116.686 287.673 116.792 287.46C116.899 287.247 117.059 287.02 117.272 286.78C117.499 286.527 117.792 286.313 118.152 286.14C118.512 285.953 118.972 285.86 119.532 285.86C120.239 285.86 120.792 285.987 121.192 286.24C121.606 286.493 121.912 286.833 122.112 287.26C122.312 287.673 122.439 288.12 122.492 288.6C122.546 289.08 122.572 289.54 122.572 289.98V294H121.332V289.98C121.332 289.1 121.179 288.387 120.872 287.84C120.579 287.293 119.992 287.02 119.112 287.02C118.512 287.02 118.019 287.167 117.632 287.46C117.259 287.74 116.986 288.12 116.812 288.6C116.652 289.067 116.572 289.58 116.572 290.14V294H115.252ZM127.418 294.2C126.645 294.2 126.005 294.04 125.498 293.72C125.005 293.387 124.631 293 124.378 292.56C124.138 292.12 124.018 291.727 124.018 291.38H125.258C125.258 291.393 125.265 291.493 125.278 291.68C125.305 291.867 125.378 292.08 125.498 292.32C125.618 292.56 125.825 292.773 126.118 292.96C126.411 293.133 126.838 293.22 127.398 293.22C127.998 293.22 128.511 293.113 128.938 292.9C129.378 292.687 129.591 292.353 129.578 291.9C129.578 291.513 129.445 291.22 129.178 291.02C128.925 290.807 128.591 290.647 128.178 290.54C127.765 290.42 127.331 290.307 126.878 290.2C126.425 290.093 125.991 289.96 125.578 289.8C125.178 289.627 124.851 289.387 124.598 289.08C124.345 288.773 124.218 288.347 124.218 287.8C124.218 287.133 124.518 286.607 125.118 286.22C125.718 285.82 126.485 285.62 127.418 285.62C127.938 285.62 128.465 285.707 128.998 285.88C129.531 286.04 129.971 286.327 130.318 286.74C130.665 287.14 130.825 287.707 130.798 288.44H129.598C129.625 287.933 129.511 287.553 129.258 287.3C129.005 287.047 128.698 286.88 128.338 286.8C127.991 286.707 127.671 286.66 127.378 286.66C126.805 286.66 126.331 286.767 125.958 286.98C125.598 287.193 125.418 287.493 125.418 287.88C125.418 288.253 125.545 288.54 125.798 288.74C126.065 288.927 126.398 289.08 126.798 289.2C127.211 289.307 127.645 289.413 128.098 289.52C128.565 289.613 129.005 289.747 129.418 289.92C129.831 290.093 130.165 290.34 130.418 290.66C130.685 290.98 130.818 291.42 130.818 291.98C130.818 292.753 130.491 293.32 129.838 293.68C129.185 294.027 128.378 294.2 127.418 294.2ZM136.765 294.2C136.245 294.2 135.798 294.113 135.425 293.94C135.065 293.753 134.772 293.54 134.545 293.3C134.318 293.06 134.145 292.833 134.025 292.62C133.918 292.407 133.852 292.267 133.825 292.2H133.785V297.36H132.465V285.86H133.565L133.785 287.9H133.825C133.852 287.833 133.918 287.693 134.025 287.48C134.132 287.267 134.292 287.033 134.505 286.78C134.732 286.527 135.025 286.313 135.385 286.14C135.758 285.953 136.218 285.86 136.765 285.86C137.552 285.86 138.205 286.04 138.725 286.4C139.258 286.76 139.658 287.26 139.925 287.9C140.205 288.527 140.345 289.247 140.345 290.06C140.345 291.273 140.038 292.267 139.425 293.04C138.812 293.813 137.925 294.2 136.765 294.2ZM136.505 293.06C137.132 293.06 137.632 292.913 138.005 292.62C138.392 292.327 138.665 291.953 138.825 291.5C138.998 291.033 139.085 290.547 139.085 290.04C139.085 289.52 138.992 289.033 138.805 288.58C138.618 288.127 138.325 287.76 137.925 287.48C137.538 287.187 137.025 287.04 136.385 287.04C135.612 287.04 134.992 287.313 134.525 287.86C134.058 288.393 133.825 289.12 133.825 290.04C133.825 290.973 134.072 291.713 134.565 292.26C135.058 292.793 135.705 293.06 136.505 293.06ZM144.577 294.18C143.83 294.18 143.217 294 142.737 293.64C142.257 293.267 141.897 292.767 141.657 292.14C141.43 291.513 141.317 290.8 141.317 290C141.317 288.773 141.584 287.767 142.117 286.98C142.664 286.18 143.484 285.78 144.577 285.78C145.137 285.78 145.604 285.88 145.977 286.08C146.364 286.267 146.67 286.5 146.897 286.78C147.137 287.06 147.31 287.327 147.417 287.58H147.437V285.86H148.757V294H147.657L147.457 292.42H147.417C147.297 292.687 147.124 292.96 146.897 293.24C146.67 293.507 146.364 293.733 145.977 293.92C145.604 294.093 145.137 294.18 144.577 294.18ZM145.077 293.04C145.904 293.04 146.497 292.767 146.857 292.22C147.23 291.673 147.417 290.94 147.417 290.02C147.417 289.033 147.224 288.28 146.837 287.76C146.464 287.24 145.877 286.98 145.077 286.98C144.197 286.98 143.564 287.273 143.177 287.86C142.804 288.433 142.617 289.147 142.617 290C142.617 290.893 142.81 291.627 143.197 292.2C143.584 292.76 144.21 293.04 145.077 293.04ZM150.452 294V285.86H151.612L151.752 288C151.832 287.64 151.992 287.293 152.232 286.96C152.472 286.627 152.799 286.36 153.212 286.16C153.639 285.947 154.166 285.847 154.792 285.86H155.172V287.28H154.772C153.919 287.28 153.272 287.407 152.832 287.66C152.406 287.9 152.112 288.24 151.952 288.68C151.806 289.12 151.732 289.627 151.732 290.2V294H150.452ZM159.851 294.2C158.957 294.2 158.217 294 157.631 293.6C157.057 293.187 156.631 292.66 156.351 292.02C156.084 291.367 155.951 290.693 155.951 290C155.951 289.24 156.097 288.547 156.391 287.92C156.697 287.28 157.137 286.773 157.711 286.4C158.297 286.027 158.997 285.84 159.811 285.84C160.851 285.84 161.717 286.18 162.411 286.86C163.104 287.527 163.477 288.427 163.531 289.56C163.544 289.613 163.551 289.693 163.551 289.8C163.551 289.893 163.551 289.98 163.551 290.06H157.191C157.191 291.007 157.417 291.753 157.871 292.3C158.337 292.833 158.991 293.1 159.831 293.1C160.457 293.1 160.991 292.94 161.431 292.62C161.884 292.3 162.164 291.867 162.271 291.32H163.531C163.397 292.147 163.004 292.833 162.351 293.38C161.697 293.927 160.864 294.2 159.851 294.2ZM157.231 289.36H162.231C162.231 289.08 162.151 288.747 161.991 288.36C161.844 287.973 161.591 287.64 161.231 287.36C160.884 287.067 160.404 286.92 159.791 286.92C159.231 286.92 158.771 287.04 158.411 287.28C158.051 287.52 157.777 287.827 157.591 288.2C157.404 288.573 157.284 288.96 157.231 289.36ZM165.174 294V285.86H166.274L166.494 287.88H166.534C166.547 287.813 166.607 287.673 166.714 287.46C166.821 287.247 166.981 287.02 167.194 286.78C167.421 286.527 167.714 286.313 168.074 286.14C168.434 285.953 168.894 285.86 169.454 285.86C170.161 285.86 170.714 285.987 171.114 286.24C171.527 286.493 171.834 286.833 172.034 287.26C172.234 287.673 172.361 288.12 172.414 288.6C172.467 289.08 172.494 289.54 172.494 289.98V294H171.254V289.98C171.254 289.1 171.101 288.387 170.794 287.84C170.501 287.293 169.914 287.02 169.034 287.02C168.434 287.02 167.941 287.167 167.554 287.46C167.181 287.74 166.907 288.12 166.734 288.6C166.574 289.067 166.494 289.58 166.494 290.14V294H165.174ZM177.84 294.2C177.08 294.2 176.4 294.04 175.8 293.72C175.2 293.4 174.727 292.933 174.38 292.32C174.033 291.707 173.86 290.967 173.86 290.1C173.887 289.247 174.067 288.5 174.4 287.86C174.747 287.22 175.22 286.727 175.82 286.38C176.42 286.02 177.107 285.84 177.88 285.84C178.6 285.84 179.227 285.973 179.76 286.24C180.293 286.507 180.72 286.867 181.04 287.32C181.36 287.773 181.56 288.273 181.64 288.82H180.46C180.327 288.233 180.033 287.78 179.58 287.46C179.14 287.14 178.587 286.98 177.92 286.98C177.067 286.98 176.387 287.267 175.88 287.84C175.387 288.4 175.133 289.133 175.12 290.04C175.12 290.96 175.36 291.693 175.84 292.24C176.333 292.773 177.02 293.04 177.9 293.04C178.54 293.04 179.093 292.88 179.56 292.56C180.027 292.24 180.327 291.78 180.46 291.18H181.64C181.56 291.74 181.353 292.247 181.02 292.7C180.7 293.153 180.267 293.52 179.72 293.8C179.187 294.067 178.56 294.2 177.84 294.2ZM182.323 297.64V296.6H183.443C183.709 296.6 183.929 296.527 184.103 296.38C184.276 296.247 184.489 295.913 184.743 295.38L185.603 293.52L182.403 285.86H183.743L186.243 292.16L188.903 285.86H190.263L185.903 295.56C185.636 296.16 185.396 296.607 185.183 296.9C184.983 297.207 184.756 297.407 184.503 297.5C184.249 297.593 183.929 297.64 183.543 297.64H182.323ZM198.893 294.18C198.147 294.18 197.533 294 197.053 293.64C196.573 293.267 196.213 292.767 195.973 292.14C195.747 291.513 195.633 290.8 195.633 290C195.633 288.773 195.9 287.767 196.433 286.98C196.98 286.18 197.8 285.78 198.893 285.78C199.453 285.78 199.92 285.88 200.293 286.08C200.68 286.267 200.987 286.5 201.213 286.78C201.453 287.06 201.627 287.327 201.733 287.58H201.753V285.86H203.073V294H201.973L201.773 292.42H201.733C201.613 292.687 201.44 292.96 201.213 293.24C200.987 293.507 200.68 293.733 200.293 293.92C199.92 294.093 199.453 294.18 198.893 294.18ZM199.393 293.04C200.22 293.04 200.813 292.767 201.173 292.22C201.547 291.673 201.733 290.94 201.733 290.02C201.733 289.033 201.54 288.28 201.153 287.76C200.78 287.24 200.193 286.98 199.393 286.98C198.513 286.98 197.88 287.273 197.493 287.86C197.12 288.433 196.933 289.147 196.933 290C196.933 290.893 197.127 291.627 197.513 292.2C197.9 292.76 198.527 293.04 199.393 293.04ZM204.569 294V285.86H205.669L205.889 287.88H205.929C205.942 287.813 206.002 287.673 206.109 287.46C206.215 287.247 206.375 287.02 206.589 286.78C206.815 286.527 207.109 286.313 207.469 286.14C207.829 285.953 208.289 285.86 208.849 285.86C209.555 285.86 210.109 285.987 210.509 286.24C210.922 286.493 211.229 286.833 211.429 287.26C211.629 287.673 211.755 288.12 211.809 288.6C211.862 289.08 211.889 289.54 211.889 289.98V294H210.649V289.98C210.649 289.1 210.495 288.387 210.189 287.84C209.895 287.293 209.309 287.02 208.429 287.02C207.829 287.02 207.335 287.167 206.949 287.46C206.575 287.74 206.302 288.12 206.129 288.6C205.969 289.067 205.889 289.58 205.889 290.14V294H204.569ZM217.194 294.2C216.408 294.2 215.748 294.02 215.214 293.66C214.694 293.3 214.301 292.807 214.034 292.18C213.781 291.54 213.654 290.827 213.654 290.04C213.654 288.827 213.954 287.827 214.554 287.04C215.154 286.253 216.041 285.86 217.214 285.86C217.761 285.86 218.214 285.953 218.574 286.14C218.948 286.313 219.248 286.527 219.474 286.78C219.701 287.033 219.868 287.267 219.974 287.48C220.081 287.693 220.148 287.833 220.174 287.9H220.214L220.234 282.74H221.554V294H220.434L220.234 292.2H220.194C220.168 292.267 220.094 292.407 219.974 292.62C219.854 292.833 219.674 293.06 219.434 293.3C219.208 293.54 218.908 293.753 218.534 293.94C218.174 294.113 217.728 294.2 217.194 294.2ZM217.514 293.06C218.301 293.06 218.941 292.793 219.434 292.26C219.941 291.713 220.194 290.973 220.194 290.04C220.194 289.12 219.961 288.393 219.494 287.86C219.028 287.313 218.401 287.04 217.614 287.04C216.988 287.04 216.474 287.187 216.074 287.48C215.674 287.76 215.381 288.127 215.194 288.58C215.008 289.033 214.914 289.52 214.914 290.04C214.914 290.547 215.001 291.033 215.174 291.5C215.348 291.953 215.621 292.327 215.994 292.62C216.368 292.913 216.874 293.06 217.514 293.06ZM232.947 294.28C231.44 294.28 230.28 293.84 229.467 292.96C228.667 292.067 228.267 290.813 228.267 289.2V282.74H229.587V289.2C229.587 290.547 229.907 291.527 230.547 292.14C231.187 292.753 231.987 293.06 232.947 293.06C233.987 293.06 234.807 292.76 235.407 292.16C236.02 291.547 236.327 290.56 236.327 289.2V282.74H237.647V289.2C237.647 290.84 237.247 292.1 236.447 292.98C235.66 293.847 234.493 294.28 232.947 294.28ZM239.53 294V285.86H240.63L240.85 287.88H240.89C240.903 287.813 240.963 287.673 241.07 287.46C241.176 287.247 241.336 287.02 241.55 286.78C241.776 286.527 242.07 286.313 242.43 286.14C242.79 285.953 243.25 285.86 243.81 285.86C244.516 285.86 245.07 285.987 245.47 286.24C245.883 286.493 246.19 286.833 246.39 287.26C246.59 287.673 246.716 288.12 246.77 288.6C246.823 289.08 246.85 289.54 246.85 289.98V294H245.61V289.98C245.61 289.1 245.456 288.387 245.15 287.84C244.856 287.293 244.27 287.02 243.39 287.02C242.79 287.02 242.296 287.167 241.91 287.46C241.536 287.74 241.263 288.12 241.09 288.6C240.93 289.067 240.85 289.58 240.85 290.14V294H239.53ZM249.475 284.98C249.182 284.98 248.982 284.907 248.875 284.76C248.782 284.6 248.735 284.4 248.735 284.16C248.735 283.96 248.782 283.787 248.875 283.64C248.982 283.48 249.182 283.4 249.475 283.4C249.769 283.4 249.962 283.48 250.055 283.64C250.162 283.787 250.215 283.96 250.215 284.16C250.215 284.4 250.162 284.6 250.055 284.76C249.962 284.907 249.769 284.98 249.475 284.98ZM248.835 294V285.86H250.115V294H248.835ZM254.226 294C253.732 294 253.386 293.867 253.186 293.6C252.999 293.333 252.906 292.967 252.906 292.5V286.82H251.626V285.86C252.052 285.86 252.366 285.827 252.566 285.76C252.779 285.68 252.912 285.493 252.966 285.2C253.019 284.907 253.046 284.427 253.046 283.76H254.146V285.86H256.026V286.82H254.146V292.96H256.046V294H254.226ZM256.893 297.64V296.6H258.013C258.28 296.6 258.5 296.527 258.673 296.38C258.846 296.247 259.06 295.913 259.313 295.38L260.173 293.52L256.973 285.86H258.313L260.813 292.16L263.473 285.86H264.833L260.473 295.56C260.206 296.16 259.966 296.607 259.753 296.9C259.553 297.207 259.326 297.407 259.073 297.5C258.82 297.593 258.5 297.64 258.113 297.64H256.893ZM270.644 290V289.02H275.084V290H270.644ZM283.338 292.92H289.818V294H282.078V282.74H289.618V283.88H283.338V287.76H288.318V288.84H283.338V292.92ZM291.268 294V285.86H292.368L292.588 287.88H292.628C292.641 287.813 292.701 287.673 292.808 287.46C292.914 287.247 293.074 287.02 293.288 286.78C293.514 286.527 293.808 286.313 294.168 286.14C294.528 285.953 294.988 285.86 295.548 285.86C296.254 285.86 296.808 285.987 297.208 286.24C297.621 286.493 297.928 286.833 298.128 287.26C298.328 287.673 298.454 288.12 298.508 288.6C298.561 289.08 298.588 289.54 298.588 289.98V294H297.348V289.98C297.348 289.1 297.194 288.387 296.888 287.84C296.594 287.293 296.008 287.02 295.128 287.02C294.528 287.02 294.034 287.167 293.648 287.46C293.274 287.74 293.001 288.12 292.828 288.6C292.668 289.067 292.588 289.58 292.588 290.14V294H291.268ZM302.194 297.36V296.14H306.254V292.2H306.214C306.187 292.267 306.114 292.407 305.994 292.62C305.887 292.833 305.714 293.06 305.474 293.3C305.247 293.54 304.947 293.753 304.574 293.94C304.214 294.113 303.774 294.2 303.254 294.2C302.467 294.2 301.807 294.02 301.274 293.66C300.754 293.287 300.36 292.787 300.094 292.16C299.827 291.533 299.694 290.827 299.694 290.04C299.694 288.813 299.994 287.813 300.594 287.04C301.207 286.253 302.1 285.86 303.274 285.86C303.82 285.86 304.274 285.953 304.634 286.14C305.007 286.313 305.3 286.527 305.514 286.78C305.74 287.033 305.907 287.267 306.014 287.48C306.12 287.693 306.187 287.833 306.214 287.9H306.254V285.86H307.574V295.4C307.574 296.04 307.454 296.527 307.214 296.86C306.974 297.193 306.54 297.36 305.914 297.36H302.194ZM303.534 293.06C304.334 293.06 304.98 292.793 305.474 292.26C305.967 291.713 306.214 290.973 306.214 290.04C306.214 289.12 305.98 288.393 305.514 287.86C305.047 287.313 304.427 287.04 303.654 287.04C303.014 287.04 302.494 287.187 302.094 287.48C301.707 287.76 301.42 288.127 301.234 288.58C301.047 289.033 300.954 289.52 300.954 290.04C300.954 290.547 301.034 291.033 301.194 291.5C301.367 291.953 301.64 292.327 302.014 292.62C302.4 292.913 302.907 293.06 303.534 293.06ZM312.136 294.18C311.389 294.18 310.776 294 310.296 293.64C309.816 293.267 309.456 292.767 309.216 292.14C308.989 291.513 308.876 290.8 308.876 290C308.876 288.773 309.142 287.767 309.676 286.98C310.222 286.18 311.042 285.78 312.136 285.78C312.696 285.78 313.162 285.88 313.536 286.08C313.922 286.267 314.229 286.5 314.456 286.78C314.696 287.06 314.869 287.327 314.976 287.58H314.996V285.86H316.316V294H315.216L315.016 292.42H314.976C314.856 292.687 314.682 292.96 314.456 293.24C314.229 293.507 313.922 293.733 313.536 293.92C313.162 294.093 312.696 294.18 312.136 294.18ZM312.636 293.04C313.462 293.04 314.056 292.767 314.416 292.22C314.789 291.673 314.976 290.94 314.976 290.02C314.976 289.033 314.782 288.28 314.396 287.76C314.022 287.24 313.436 286.98 312.636 286.98C311.756 286.98 311.122 287.273 310.736 287.86C310.362 288.433 310.176 289.147 310.176 290C310.176 290.893 310.369 291.627 310.756 292.2C311.142 292.76 311.769 293.04 312.636 293.04ZM319.811 297.36V296.14H323.871V292.2H323.831C323.804 292.267 323.731 292.407 323.611 292.62C323.504 292.833 323.331 293.06 323.091 293.3C322.864 293.54 322.564 293.753 322.191 293.94C321.831 294.113 321.391 294.2 320.871 294.2C320.084 294.2 319.424 294.02 318.891 293.66C318.371 293.287 317.977 292.787 317.711 292.16C317.444 291.533 317.311 290.827 317.311 290.04C317.311 288.813 317.611 287.813 318.211 287.04C318.824 286.253 319.717 285.86 320.891 285.86C321.437 285.86 321.891 285.953 322.251 286.14C322.624 286.313 322.917 286.527 323.131 286.78C323.357 287.033 323.524 287.267 323.631 287.48C323.737 287.693 323.804 287.833 323.831 287.9H323.871V285.86H325.191V295.4C325.191 296.04 325.071 296.527 324.831 296.86C324.591 297.193 324.157 297.36 323.531 297.36H319.811ZM321.151 293.06C321.951 293.06 322.597 292.793 323.091 292.26C323.584 291.713 323.831 290.973 323.831 290.04C323.831 289.12 323.597 288.393 323.131 287.86C322.664 287.313 322.044 287.04 321.271 287.04C320.631 287.04 320.111 287.187 319.711 287.48C319.324 287.76 319.037 288.127 318.851 288.58C318.664 289.033 318.571 289.52 318.571 290.04C318.571 290.547 318.651 291.033 318.811 291.5C318.984 291.953 319.257 292.327 319.631 292.62C320.017 292.913 320.524 293.06 321.151 293.06ZM330.593 294.2C329.699 294.2 328.959 294 328.373 293.6C327.799 293.187 327.373 292.66 327.093 292.02C326.826 291.367 326.693 290.693 326.693 290C326.693 289.24 326.839 288.547 327.133 287.92C327.439 287.28 327.879 286.773 328.453 286.4C329.039 286.027 329.739 285.84 330.553 285.84C331.593 285.84 332.459 286.18 333.153 286.86C333.846 287.527 334.219 288.427 334.273 289.56C334.286 289.613 334.293 289.693 334.293 289.8C334.293 289.893 334.293 289.98 334.293 290.06H327.933C327.933 291.007 328.159 291.753 328.613 292.3C329.079 292.833 329.733 293.1 330.573 293.1C331.199 293.1 331.733 292.94 332.173 292.62C332.626 292.3 332.906 291.867 333.013 291.32H334.273C334.139 292.147 333.746 292.833 333.093 293.38C332.439 293.927 331.606 294.2 330.593 294.2ZM327.973 289.36H332.973C332.973 289.08 332.893 288.747 332.733 288.36C332.586 287.973 332.333 287.64 331.973 287.36C331.626 287.067 331.146 286.92 330.533 286.92C329.973 286.92 329.513 287.04 329.153 287.28C328.793 287.52 328.519 287.827 328.333 288.2C328.146 288.573 328.026 288.96 327.973 289.36ZM341.682 284.98C341.389 284.98 341.189 284.907 341.082 284.76C340.989 284.6 340.942 284.4 340.942 284.16C340.942 283.96 340.989 283.787 341.082 283.64C341.189 283.48 341.389 283.4 341.682 283.4C341.976 283.4 342.169 283.48 342.262 283.64C342.369 283.787 342.422 283.96 342.422 284.16C342.422 284.4 342.369 284.6 342.262 284.76C342.169 284.907 341.976 284.98 341.682 284.98ZM341.042 294V285.86H342.322V294H341.042ZM344.198 294V285.86H345.298L345.518 287.88H345.558C345.571 287.813 345.631 287.673 345.738 287.46C345.844 287.247 346.004 287.02 346.218 286.78C346.444 286.527 346.738 286.313 347.098 286.14C347.458 285.953 347.918 285.86 348.478 285.86C349.184 285.86 349.738 285.987 350.138 286.24C350.551 286.493 350.858 286.833 351.058 287.26C351.258 287.673 351.384 288.12 351.438 288.6C351.491 289.08 351.518 289.54 351.518 289.98V294H350.278V289.98C350.278 289.1 350.124 288.387 349.818 287.84C349.524 287.293 348.938 287.02 348.058 287.02C347.458 287.02 346.964 287.167 346.578 287.46C346.204 287.74 345.931 288.12 345.758 288.6C345.598 289.067 345.518 289.58 345.518 290.14V294H344.198ZM357.309 283.86V282.74H365.809V283.86H362.209V294H360.929V283.86H357.309ZM369.011 294.2C368.117 294.2 367.377 294 366.791 293.6C366.217 293.187 365.791 292.66 365.511 292.02C365.244 291.367 365.111 290.693 365.111 290C365.111 289.24 365.257 288.547 365.551 287.92C365.857 287.28 366.297 286.773 366.871 286.4C367.457 286.027 368.157 285.84 368.971 285.84C370.011 285.84 370.877 286.18 371.571 286.86C372.264 287.527 372.637 288.427 372.691 289.56C372.704 289.613 372.711 289.693 372.711 289.8C372.711 289.893 372.711 289.98 372.711 290.06H366.351C366.351 291.007 366.577 291.753 367.031 292.3C367.497 292.833 368.151 293.1 368.991 293.1C369.617 293.1 370.151 292.94 370.591 292.62C371.044 292.3 371.324 291.867 371.431 291.32H372.691C372.557 292.147 372.164 292.833 371.511 293.38C370.857 293.927 370.024 294.2 369.011 294.2ZM366.391 289.36H371.391C371.391 289.08 371.311 288.747 371.151 288.36C371.004 287.973 370.751 287.64 370.391 287.36C370.044 287.067 369.564 286.92 368.951 286.92C368.391 286.92 367.931 287.04 367.571 287.28C367.211 287.52 366.937 287.827 366.751 288.2C366.564 288.573 366.444 288.96 366.391 289.36ZM377.194 294.18C376.448 294.18 375.834 294 375.354 293.64C374.874 293.267 374.514 292.767 374.274 292.14C374.048 291.513 373.934 290.8 373.934 290C373.934 288.773 374.201 287.767 374.734 286.98C375.281 286.18 376.101 285.78 377.194 285.78C377.754 285.78 378.221 285.88 378.594 286.08C378.981 286.267 379.288 286.5 379.514 286.78C379.754 287.06 379.928 287.327 380.034 287.58H380.054V285.86H381.374V294H380.274L380.074 292.42H380.034C379.914 292.687 379.741 292.96 379.514 293.24C379.288 293.507 378.981 293.733 378.594 293.92C378.221 294.093 377.754 294.18 377.194 294.18ZM377.694 293.04C378.521 293.04 379.114 292.767 379.474 292.22C379.848 291.673 380.034 290.94 380.034 290.02C380.034 289.033 379.841 288.28 379.454 287.76C379.081 287.24 378.494 286.98 377.694 286.98C376.814 286.98 376.181 287.273 375.794 287.86C375.421 288.433 375.234 289.147 375.234 290C375.234 290.893 375.428 291.627 375.814 292.2C376.201 292.76 376.828 293.04 377.694 293.04ZM382.869 294V285.86H383.969L384.049 287.88H384.089C384.116 287.787 384.176 287.633 384.269 287.42C384.363 287.193 384.509 286.96 384.709 286.72C384.909 286.48 385.169 286.28 385.489 286.12C385.809 285.947 386.216 285.86 386.709 285.86C387.456 285.86 388.003 286.067 388.349 286.48C388.709 286.893 388.949 287.36 389.069 287.88H389.109C389.149 287.787 389.223 287.633 389.329 287.42C389.436 287.193 389.596 286.96 389.809 286.72C390.023 286.48 390.296 286.28 390.629 286.12C390.976 285.947 391.396 285.86 391.889 285.86C392.409 285.86 392.836 285.967 393.169 286.18C393.503 286.38 393.756 286.653 393.929 287C394.116 287.333 394.249 287.687 394.329 288.06C394.409 288.433 394.456 288.793 394.469 289.14C394.483 289.487 394.489 289.767 394.489 289.98V294H393.369V289.98C393.369 289.767 393.356 289.493 393.329 289.16C393.303 288.827 393.236 288.5 393.129 288.18C393.023 287.847 392.836 287.573 392.569 287.36C392.316 287.133 391.949 287.02 391.469 287.02C390.936 287.02 390.509 287.167 390.189 287.46C389.869 287.753 389.636 288.14 389.489 288.62C389.343 289.087 389.269 289.593 389.269 290.14V294H388.149V289.98C388.149 289.767 388.136 289.493 388.109 289.16C388.083 288.827 388.016 288.5 387.909 288.18C387.803 287.847 387.616 287.573 387.349 287.36C387.096 287.133 386.729 287.02 386.249 287.02C385.716 287.02 385.289 287.167 384.969 287.46C384.649 287.753 384.416 288.14 384.269 288.62C384.123 289.087 384.049 289.593 384.049 290.14V294H382.869ZM406.039 294.2C404.999 294.2 404.065 293.987 403.239 293.56C402.412 293.12 401.752 292.467 401.259 291.6C400.779 290.733 400.545 289.667 400.559 288.4C400.559 287.12 400.792 286.047 401.259 285.18C401.739 284.3 402.399 283.64 403.239 283.2C404.079 282.76 405.039 282.54 406.119 282.54C407.505 282.54 408.639 282.913 409.519 283.66C410.399 284.393 410.959 285.407 411.199 286.7H409.859C409.685 285.687 409.245 284.94 408.539 284.46C407.832 283.98 407.025 283.74 406.119 283.74C404.785 283.74 403.739 284.14 402.979 284.94C402.219 285.727 401.839 286.853 401.839 288.32C401.839 289.853 402.205 291.02 402.939 291.82C403.685 292.607 404.725 293 406.059 293C407.059 293 407.912 292.76 408.619 292.28C409.325 291.787 409.759 291.04 409.919 290.04H411.279C411.039 291.32 410.472 292.333 409.579 293.08C408.699 293.827 407.519 294.2 406.039 294.2ZM416.413 294.2C415.106 294.2 414.126 293.813 413.473 293.04C412.833 292.253 412.513 291.253 412.513 290.04C412.499 288.813 412.819 287.813 413.473 287.04C414.139 286.253 415.119 285.853 416.413 285.84C417.693 285.84 418.659 286.227 419.313 287C419.979 287.76 420.313 288.773 420.313 290.04C420.313 290.827 420.173 291.533 419.893 292.16C419.613 292.787 419.186 293.287 418.613 293.66C418.039 294.02 417.306 294.2 416.413 294.2ZM416.413 293.08C417.106 293.08 417.639 292.927 418.013 292.62C418.399 292.313 418.666 291.927 418.813 291.46C418.973 290.98 419.053 290.493 419.053 290C419.053 289.507 418.973 289.02 418.813 288.54C418.666 288.06 418.399 287.667 418.013 287.36C417.639 287.053 417.106 286.9 416.413 286.9C415.719 286.9 415.179 287.053 414.793 287.36C414.419 287.667 414.153 288.06 413.993 288.54C413.846 289.02 413.773 289.507 413.773 290C413.773 290.493 413.846 290.98 413.993 291.46C414.153 291.927 414.419 292.313 414.793 292.62C415.179 292.927 415.719 293.08 416.413 293.08ZM421.873 294V285.86H422.973L423.193 287.88H423.233C423.247 287.813 423.307 287.673 423.413 287.46C423.52 287.247 423.68 287.02 423.893 286.78C424.12 286.527 424.413 286.313 424.773 286.14C425.133 285.953 425.593 285.86 426.153 285.86C426.86 285.86 427.413 285.987 427.813 286.24C428.227 286.493 428.533 286.833 428.733 287.26C428.933 287.673 429.06 288.12 429.113 288.6C429.167 289.08 429.193 289.54 429.193 289.98V294H427.953V289.98C427.953 289.1 427.8 288.387 427.493 287.84C427.2 287.293 426.613 287.02 425.733 287.02C425.133 287.02 424.64 287.167 424.253 287.46C423.88 287.74 423.607 288.12 423.433 288.6C423.273 289.067 423.193 289.58 423.193 290.14V294H421.873ZM436.619 285.86H437.899V286.14L434.819 294H432.999L429.899 286.14V285.86H431.179L433.899 292.94H433.939L436.619 285.86ZM442.605 294.2C441.711 294.2 440.971 294 440.385 293.6C439.811 293.187 439.385 292.66 439.105 292.02C438.838 291.367 438.705 290.693 438.705 290C438.705 289.24 438.851 288.547 439.145 287.92C439.451 287.28 439.891 286.773 440.465 286.4C441.051 286.027 441.751 285.84 442.565 285.84C443.605 285.84 444.471 286.18 445.165 286.86C445.858 287.527 446.231 288.427 446.285 289.56C446.298 289.613 446.305 289.693 446.305 289.8C446.305 289.893 446.305 289.98 446.305 290.06H439.945C439.945 291.007 440.171 291.753 440.625 292.3C441.091 292.833 441.745 293.1 442.585 293.1C443.211 293.1 443.745 292.94 444.185 292.62C444.638 292.3 444.918 291.867 445.025 291.32H446.285C446.151 292.147 445.758 292.833 445.105 293.38C444.451 293.927 443.618 294.2 442.605 294.2ZM439.985 289.36H444.985C444.985 289.08 444.905 288.747 444.745 288.36C444.598 287.973 444.345 287.64 443.985 287.36C443.638 287.067 443.158 286.92 442.545 286.92C441.985 286.92 441.525 287.04 441.165 287.28C440.805 287.52 440.531 287.827 440.345 288.2C440.158 288.573 440.038 288.96 439.985 289.36ZM448.128 294V285.86H449.288L449.428 288C449.508 287.64 449.668 287.293 449.908 286.96C450.148 286.627 450.475 286.36 450.888 286.16C451.315 285.947 451.841 285.847 452.468 285.86H452.848V287.28H452.448C451.595 287.28 450.948 287.407 450.508 287.66C450.081 287.9 449.788 288.24 449.628 288.68C449.481 289.12 449.408 289.627 449.408 290.2V294H448.128ZM457.203 294.2C456.43 294.2 455.79 294.04 455.283 293.72C454.79 293.387 454.416 293 454.163 292.56C453.923 292.12 453.803 291.727 453.803 291.38H455.043C455.043 291.393 455.05 291.493 455.063 291.68C455.09 291.867 455.163 292.08 455.283 292.32C455.403 292.56 455.61 292.773 455.903 292.96C456.196 293.133 456.623 293.22 457.183 293.22C457.783 293.22 458.296 293.113 458.723 292.9C459.163 292.687 459.376 292.353 459.363 291.9C459.363 291.513 459.23 291.22 458.963 291.02C458.71 290.807 458.376 290.647 457.963 290.54C457.55 290.42 457.116 290.307 456.663 290.2C456.21 290.093 455.776 289.96 455.363 289.8C454.963 289.627 454.636 289.387 454.383 289.08C454.13 288.773 454.003 288.347 454.003 287.8C454.003 287.133 454.303 286.607 454.903 286.22C455.503 285.82 456.27 285.62 457.203 285.62C457.723 285.62 458.25 285.707 458.783 285.88C459.316 286.04 459.756 286.327 460.103 286.74C460.45 287.14 460.61 287.707 460.583 288.44H459.383C459.41 287.933 459.296 287.553 459.043 287.3C458.79 287.047 458.483 286.88 458.123 286.8C457.776 286.707 457.456 286.66 457.163 286.66C456.59 286.66 456.116 286.767 455.743 286.98C455.383 287.193 455.203 287.493 455.203 287.88C455.203 288.253 455.33 288.54 455.583 288.74C455.85 288.927 456.183 289.08 456.583 289.2C456.996 289.307 457.43 289.413 457.883 289.52C458.35 289.613 458.79 289.747 459.203 289.92C459.616 290.093 459.95 290.34 460.203 290.66C460.47 290.98 460.603 291.42 460.603 291.98C460.603 292.753 460.276 293.32 459.623 293.68C458.97 294.027 458.163 294.2 457.203 294.2ZM464.87 294.18C464.123 294.18 463.51 294 463.03 293.64C462.55 293.267 462.19 292.767 461.95 292.14C461.723 291.513 461.61 290.8 461.61 290C461.61 288.773 461.877 287.767 462.41 286.98C462.957 286.18 463.777 285.78 464.87 285.78C465.43 285.78 465.897 285.88 466.27 286.08C466.657 286.267 466.963 286.5 467.19 286.78C467.43 287.06 467.603 287.327 467.71 287.58H467.73V285.86H469.05V294H467.95L467.75 292.42H467.71C467.59 292.687 467.417 292.96 467.19 293.24C466.963 293.507 466.657 293.733 466.27 293.92C465.897 294.093 465.43 294.18 464.87 294.18ZM465.37 293.04C466.197 293.04 466.79 292.767 467.15 292.22C467.523 291.673 467.71 290.94 467.71 290.02C467.71 289.033 467.517 288.28 467.13 287.76C466.757 287.24 466.17 286.98 465.37 286.98C464.49 286.98 463.857 287.273 463.47 287.86C463.097 288.433 462.91 289.147 462.91 290C462.91 290.893 463.103 291.627 463.49 292.2C463.877 292.76 464.503 293.04 465.37 293.04ZM472.585 294C472.092 294 471.745 293.867 471.545 293.6C471.358 293.333 471.265 292.967 471.265 292.5V286.82H469.985V285.86C470.412 285.86 470.725 285.827 470.925 285.76C471.138 285.68 471.272 285.493 471.325 285.2C471.378 284.907 471.405 284.427 471.405 283.76H472.505V285.86H474.385V286.82H472.505V292.96H474.405V294H472.585ZM477.093 284.98C476.799 284.98 476.599 284.907 476.493 284.76C476.399 284.6 476.353 284.4 476.353 284.16C476.353 283.96 476.399 283.787 476.493 283.64C476.599 283.48 476.799 283.4 477.093 283.4C477.386 283.4 477.579 283.48 477.673 283.64C477.779 283.787 477.833 283.96 477.833 284.16C477.833 284.4 477.779 284.6 477.673 284.76C477.579 284.907 477.386 284.98 477.093 284.98ZM476.453 294V285.86H477.733V294H476.453ZM483.288 294.2C481.981 294.2 481.001 293.813 480.348 293.04C479.708 292.253 479.388 291.253 479.388 290.04C479.374 288.813 479.694 287.813 480.348 287.04C481.014 286.253 481.994 285.853 483.288 285.84C484.568 285.84 485.534 286.227 486.188 287C486.854 287.76 487.188 288.773 487.188 290.04C487.188 290.827 487.048 291.533 486.768 292.16C486.488 292.787 486.061 293.287 485.488 293.66C484.914 294.02 484.181 294.2 483.288 294.2ZM483.288 293.08C483.981 293.08 484.514 292.927 484.888 292.62C485.274 292.313 485.541 291.927 485.688 291.46C485.848 290.98 485.928 290.493 485.928 290C485.928 289.507 485.848 289.02 485.688 288.54C485.541 288.06 485.274 287.667 484.888 287.36C484.514 287.053 483.981 286.9 483.288 286.9C482.594 286.9 482.054 287.053 481.668 287.36C481.294 287.667 481.028 288.06 480.868 288.54C480.721 289.02 480.648 289.507 480.648 290C480.648 290.493 480.721 290.98 480.868 291.46C481.028 291.927 481.294 292.313 481.668 292.62C482.054 292.927 482.594 293.08 483.288 293.08ZM488.748 294V285.86H489.848L490.068 287.88H490.108C490.122 287.813 490.182 287.673 490.288 287.46C490.395 287.247 490.555 287.02 490.768 286.78C490.995 286.527 491.288 286.313 491.648 286.14C492.008 285.953 492.468 285.86 493.028 285.86C493.735 285.86 494.288 285.987 494.688 286.24C495.102 286.493 495.408 286.833 495.608 287.26C495.808 287.673 495.935 288.12 495.988 288.6C496.042 289.08 496.068 289.54 496.068 289.98V294H494.828V289.98C494.828 289.1 494.675 288.387 494.368 287.84C494.075 287.293 493.488 287.02 492.608 287.02C492.008 287.02 491.515 287.167 491.128 287.46C490.755 287.74 490.482 288.12 490.308 288.6C490.148 289.067 490.068 289.58 490.068 290.14V294H488.748ZM500.914 294.2C500.141 294.2 499.501 294.04 498.994 293.72C498.501 293.387 498.127 293 497.874 292.56C497.634 292.12 497.514 291.727 497.514 291.38H498.754C498.754 291.393 498.761 291.493 498.774 291.68C498.801 291.867 498.874 292.08 498.994 292.32C499.114 292.56 499.321 292.773 499.614 292.96C499.907 293.133 500.334 293.22 500.894 293.22C501.494 293.22 502.007 293.113 502.434 292.9C502.874 292.687 503.087 292.353 503.074 291.9C503.074 291.513 502.941 291.22 502.674 291.02C502.421 290.807 502.087 290.647 501.674 290.54C501.261 290.42 500.827 290.307 500.374 290.2C499.921 290.093 499.487 289.96 499.074 289.8C498.674 289.627 498.347 289.387 498.094 289.08C497.841 288.773 497.714 288.347 497.714 287.8C497.714 287.133 498.014 286.607 498.614 286.22C499.214 285.82 499.981 285.62 500.914 285.62C501.434 285.62 501.961 285.707 502.494 285.88C503.027 286.04 503.467 286.327 503.814 286.74C504.161 287.14 504.321 287.707 504.294 288.44H503.094C503.121 287.933 503.007 287.553 502.754 287.3C502.501 287.047 502.194 286.88 501.834 286.8C501.487 286.707 501.167 286.66 500.874 286.66C500.301 286.66 499.827 286.767 499.454 286.98C499.094 287.193 498.914 287.493 498.914 287.88C498.914 288.253 499.041 288.54 499.294 288.74C499.561 288.927 499.894 289.08 500.294 289.2C500.707 289.307 501.141 289.413 501.594 289.52C502.061 289.613 502.501 289.747 502.914 289.92C503.327 290.093 503.661 290.34 503.914 290.66C504.181 290.98 504.314 291.42 504.314 291.98C504.314 292.753 503.987 293.32 503.334 293.68C502.681 294.027 501.874 294.2 500.914 294.2ZM505.961 295.76V294.8H506.321C506.641 294.8 506.841 294.727 506.921 294.58C507.014 294.433 507.061 294.247 507.061 294.02C506.701 294.047 506.441 293.98 506.281 293.82C506.121 293.66 506.041 293.433 506.041 293.14C506.041 292.9 506.101 292.7 506.221 292.54C506.341 292.38 506.561 292.3 506.881 292.3C507.161 292.3 507.368 292.387 507.501 292.56C507.634 292.72 507.701 293.02 507.701 293.46C507.701 294.14 507.601 294.693 507.401 295.12C507.201 295.547 506.854 295.76 506.361 295.76H505.961ZM127.743 318.26C126.957 318.26 126.197 318.133 125.463 317.88C124.743 317.613 124.15 317.207 123.683 316.66C123.217 316.1 122.977 315.38 122.963 314.5H124.243C124.243 314.54 124.257 314.653 124.283 314.84C124.31 315.027 124.377 315.247 124.483 315.5C124.603 315.74 124.79 315.987 125.043 316.24C125.297 316.48 125.65 316.68 126.103 316.84C126.557 317 127.137 317.08 127.843 317.08C128.63 317.08 129.23 316.967 129.643 316.74C130.057 316.5 130.337 316.233 130.483 315.94C130.643 315.633 130.723 315.393 130.723 315.22C130.737 314.753 130.61 314.38 130.343 314.1C130.077 313.82 129.717 313.593 129.263 313.42C128.823 313.247 128.337 313.093 127.803 312.96C127.27 312.827 126.737 312.687 126.203 312.54C125.683 312.38 125.203 312.18 124.763 311.94C124.323 311.687 123.977 311.36 123.723 310.96C123.47 310.56 123.357 310.047 123.383 309.42C123.41 308.82 123.617 308.307 124.003 307.88C124.39 307.453 124.903 307.127 125.543 306.9C126.197 306.66 126.937 306.54 127.763 306.54C128.523 306.54 129.223 306.68 129.863 306.96C130.517 307.227 131.037 307.633 131.423 308.18C131.81 308.727 131.99 309.407 131.963 310.22H130.703C130.717 309.713 130.617 309.3 130.403 308.98C130.203 308.647 129.937 308.393 129.603 308.22C129.27 308.047 128.923 307.927 128.563 307.86C128.217 307.78 127.91 307.74 127.643 307.74C126.803 307.74 126.11 307.907 125.563 308.24C125.017 308.573 124.737 309.007 124.723 309.54C124.723 310.007 124.857 310.38 125.123 310.66C125.39 310.94 125.743 311.167 126.183 311.34C126.637 311.5 127.13 311.64 127.663 311.76C128.197 311.88 128.723 312.02 129.243 312.18C129.777 312.327 130.263 312.52 130.703 312.76C131.143 313 131.49 313.327 131.743 313.74C131.997 314.153 132.11 314.68 132.083 315.32C132.057 315.947 131.85 316.48 131.463 316.92C131.077 317.347 130.563 317.68 129.923 317.92C129.283 318.147 128.557 318.26 127.743 318.26ZM133.711 318V306.74H135.011V311.88H135.051C135.078 311.813 135.138 311.673 135.231 311.46C135.338 311.247 135.498 311.02 135.711 310.78C135.924 310.527 136.211 310.313 136.571 310.14C136.931 309.953 137.384 309.86 137.931 309.86C138.624 309.86 139.178 309.993 139.591 310.26C140.004 310.513 140.311 310.853 140.511 311.28C140.724 311.693 140.864 312.14 140.931 312.62C140.998 313.1 141.031 313.553 141.031 313.98V318H139.771V313.98C139.771 313.1 139.618 312.387 139.311 311.84C139.018 311.293 138.438 311.02 137.571 311.02C136.958 311.02 136.464 311.167 136.091 311.46C135.718 311.74 135.444 312.12 135.271 312.6C135.098 313.067 135.011 313.58 135.011 314.14V318H133.711ZM145.554 318.18C144.807 318.18 144.194 318 143.714 317.64C143.234 317.267 142.874 316.767 142.634 316.14C142.407 315.513 142.294 314.8 142.294 314C142.294 312.773 142.56 311.767 143.094 310.98C143.64 310.18 144.46 309.78 145.554 309.78C146.114 309.78 146.58 309.88 146.954 310.08C147.34 310.267 147.647 310.5 147.874 310.78C148.114 311.06 148.287 311.327 148.394 311.58H148.414V309.86H149.734V318H148.634L148.434 316.42H148.394C148.274 316.687 148.1 316.96 147.874 317.24C147.647 317.507 147.34 317.733 146.954 317.92C146.58 318.093 146.114 318.18 145.554 318.18ZM146.054 317.04C146.88 317.04 147.474 316.767 147.834 316.22C148.207 315.673 148.394 314.94 148.394 314.02C148.394 313.033 148.2 312.28 147.814 311.76C147.44 311.24 146.854 310.98 146.054 310.98C145.174 310.98 144.54 311.273 144.154 311.86C143.78 312.433 143.594 313.147 143.594 314C143.594 314.893 143.787 315.627 144.174 316.2C144.56 316.76 145.187 317.04 146.054 317.04ZM151.429 318V309.86H152.589L152.729 312C152.809 311.64 152.969 311.293 153.209 310.96C153.449 310.627 153.775 310.36 154.189 310.16C154.615 309.947 155.142 309.847 155.769 309.86H156.149V311.28H155.749C154.895 311.28 154.249 311.407 153.809 311.66C153.382 311.9 153.089 312.24 152.929 312.68C152.782 313.12 152.709 313.627 152.709 314.2V318H151.429ZM160.827 318.2C159.934 318.2 159.194 318 158.607 317.6C158.034 317.187 157.607 316.66 157.327 316.02C157.061 315.367 156.927 314.693 156.927 314C156.927 313.24 157.074 312.547 157.367 311.92C157.674 311.28 158.114 310.773 158.687 310.4C159.274 310.027 159.974 309.84 160.787 309.84C161.827 309.84 162.694 310.18 163.387 310.86C164.081 311.527 164.454 312.427 164.507 313.56C164.521 313.613 164.527 313.693 164.527 313.8C164.527 313.893 164.527 313.98 164.527 314.06H158.167C158.167 315.007 158.394 315.753 158.847 316.3C159.314 316.833 159.967 317.1 160.807 317.1C161.434 317.1 161.967 316.94 162.407 316.62C162.861 316.3 163.141 315.867 163.247 315.32H164.507C164.374 316.147 163.981 316.833 163.327 317.38C162.674 317.927 161.841 318.2 160.827 318.2ZM158.207 313.36H163.207C163.207 313.08 163.127 312.747 162.967 312.36C162.821 311.973 162.567 311.64 162.207 311.36C161.861 311.067 161.381 310.92 160.767 310.92C160.207 310.92 159.747 311.04 159.387 311.28C159.027 311.52 158.754 311.827 158.567 312.2C158.381 312.573 158.261 312.96 158.207 313.36ZM175.657 316.88V318H171.297V316.88H172.837V307.86H171.297V306.74H175.657V307.86H174.117V316.88H175.657ZM181.433 318.2C180.646 318.2 179.986 318.02 179.453 317.66C178.933 317.3 178.539 316.807 178.273 316.18C178.019 315.54 177.893 314.827 177.893 314.04C177.893 312.827 178.193 311.827 178.793 311.04C179.393 310.253 180.279 309.86 181.453 309.86C181.999 309.86 182.453 309.953 182.813 310.14C183.186 310.313 183.486 310.527 183.713 310.78C183.939 311.033 184.106 311.267 184.213 311.48C184.319 311.693 184.386 311.833 184.413 311.9H184.453L184.473 306.74H185.793V318H184.673L184.473 316.2H184.433C184.406 316.267 184.333 316.407 184.213 316.62C184.093 316.833 183.913 317.06 183.673 317.3C183.446 317.54 183.146 317.753 182.773 317.94C182.413 318.113 181.966 318.2 181.433 318.2ZM181.753 317.06C182.539 317.06 183.179 316.793 183.673 316.26C184.179 315.713 184.433 314.973 184.433 314.04C184.433 313.12 184.199 312.393 183.733 311.86C183.266 311.313 182.639 311.04 181.853 311.04C181.226 311.04 180.713 311.187 180.313 311.48C179.913 311.76 179.619 312.127 179.433 312.58C179.246 313.033 179.153 313.52 179.153 314.04C179.153 314.547 179.239 315.033 179.413 315.5C179.586 315.953 179.859 316.327 180.233 316.62C180.606 316.913 181.113 317.06 181.753 317.06ZM191.179 318.2C190.285 318.2 189.545 318 188.959 317.6C188.385 317.187 187.959 316.66 187.679 316.02C187.412 315.367 187.279 314.693 187.279 314C187.279 313.24 187.425 312.547 187.719 311.92C188.025 311.28 188.465 310.773 189.039 310.4C189.625 310.027 190.325 309.84 191.139 309.84C192.179 309.84 193.045 310.18 193.739 310.86C194.432 311.527 194.805 312.427 194.859 313.56C194.872 313.613 194.879 313.693 194.879 313.8C194.879 313.893 194.879 313.98 194.879 314.06H188.519C188.519 315.007 188.745 315.753 189.199 316.3C189.665 316.833 190.319 317.1 191.159 317.1C191.785 317.1 192.319 316.94 192.759 316.62C193.212 316.3 193.492 315.867 193.599 315.32H194.859C194.725 316.147 194.332 316.833 193.679 317.38C193.025 317.927 192.192 318.2 191.179 318.2ZM188.559 313.36H193.559C193.559 313.08 193.479 312.747 193.319 312.36C193.172 311.973 192.919 311.64 192.559 311.36C192.212 311.067 191.732 310.92 191.119 310.92C190.559 310.92 190.099 311.04 189.739 311.28C189.379 311.52 189.105 311.827 188.919 312.2C188.732 312.573 188.612 312.96 188.559 313.36ZM199.362 318.18C198.616 318.18 198.002 318 197.522 317.64C197.042 317.267 196.682 316.767 196.442 316.14C196.216 315.513 196.102 314.8 196.102 314C196.102 312.773 196.369 311.767 196.902 310.98C197.449 310.18 198.269 309.78 199.362 309.78C199.922 309.78 200.389 309.88 200.762 310.08C201.149 310.267 201.456 310.5 201.682 310.78C201.922 311.06 202.096 311.327 202.202 311.58H202.222V309.86H203.542V318H202.442L202.242 316.42H202.202C202.082 316.687 201.909 316.96 201.682 317.24C201.456 317.507 201.149 317.733 200.762 317.92C200.389 318.093 199.922 318.18 199.362 318.18ZM199.862 317.04C200.689 317.04 201.282 316.767 201.642 316.22C202.016 315.673 202.202 314.94 202.202 314.02C202.202 313.033 202.009 312.28 201.622 311.76C201.249 311.24 200.662 310.98 199.862 310.98C198.982 310.98 198.349 311.273 197.962 311.86C197.589 312.433 197.402 313.147 197.402 314C197.402 314.893 197.596 315.627 197.982 316.2C198.369 316.76 198.996 317.04 199.862 317.04ZM208.277 318.2C207.504 318.2 206.864 318.04 206.357 317.72C205.864 317.387 205.491 317 205.237 316.56C204.997 316.12 204.877 315.727 204.877 315.38H206.117C206.117 315.393 206.124 315.493 206.137 315.68C206.164 315.867 206.237 316.08 206.357 316.32C206.477 316.56 206.684 316.773 206.977 316.96C207.271 317.133 207.697 317.22 208.257 317.22C208.857 317.22 209.371 317.113 209.797 316.9C210.237 316.687 210.451 316.353 210.437 315.9C210.437 315.513 210.304 315.22 210.037 315.02C209.784 314.807 209.451 314.647 209.037 314.54C208.624 314.42 208.191 314.307 207.737 314.2C207.284 314.093 206.851 313.96 206.437 313.8C206.037 313.627 205.711 313.387 205.457 313.08C205.204 312.773 205.077 312.347 205.077 311.8C205.077 311.133 205.377 310.607 205.977 310.22C206.577 309.82 207.344 309.62 208.277 309.62C208.797 309.62 209.324 309.707 209.857 309.88C210.391 310.04 210.831 310.327 211.177 310.74C211.524 311.14 211.684 311.707 211.657 312.44H210.457C210.484 311.933 210.371 311.553 210.117 311.3C209.864 311.047 209.557 310.88 209.197 310.8C208.851 310.707 208.531 310.66 208.237 310.66C207.664 310.66 207.191 310.767 206.817 310.98C206.457 311.193 206.277 311.493 206.277 311.88C206.277 312.253 206.404 312.54 206.657 312.74C206.924 312.927 207.257 313.08 207.657 313.2C208.071 313.307 208.504 313.413 208.957 313.52C209.424 313.613 209.864 313.747 210.277 313.92C210.691 314.093 211.024 314.34 211.277 314.66C211.544 314.98 211.677 315.42 211.677 315.98C211.677 316.753 211.351 317.32 210.697 317.68C210.044 318.027 209.237 318.2 208.277 318.2ZM213.324 319.76V318.8H213.684C214.004 318.8 214.204 318.727 214.284 318.58C214.378 318.433 214.424 318.247 214.424 318.02C214.064 318.047 213.804 317.98 213.644 317.82C213.484 317.66 213.404 317.433 213.404 317.14C213.404 316.9 213.464 316.7 213.584 316.54C213.704 316.38 213.924 316.3 214.244 316.3C214.524 316.3 214.731 316.387 214.864 316.56C214.998 316.72 215.064 317.02 215.064 317.46C215.064 318.14 214.964 318.693 214.764 319.12C214.564 319.547 214.218 319.76 213.724 319.76H213.324ZM224.421 318.18C223.674 318.18 223.061 318 222.581 317.64C222.101 317.267 221.741 316.767 221.501 316.14C221.274 315.513 221.161 314.8 221.161 314C221.161 312.773 221.427 311.767 221.961 310.98C222.507 310.18 223.327 309.78 224.421 309.78C224.981 309.78 225.447 309.88 225.821 310.08C226.207 310.267 226.514 310.5 226.741 310.78C226.981 311.06 227.154 311.327 227.261 311.58H227.281V309.86H228.601V318H227.501L227.301 316.42H227.261C227.141 316.687 226.967 316.96 226.741 317.24C226.514 317.507 226.207 317.733 225.821 317.92C225.447 318.093 224.981 318.18 224.421 318.18ZM224.921 317.04C225.747 317.04 226.341 316.767 226.701 316.22C227.074 315.673 227.261 314.94 227.261 314.02C227.261 313.033 227.067 312.28 226.681 311.76C226.307 311.24 225.721 310.98 224.921 310.98C224.041 310.98 223.407 311.273 223.021 311.86C222.647 312.433 222.461 313.147 222.461 314C222.461 314.893 222.654 315.627 223.041 316.2C223.427 316.76 224.054 317.04 224.921 317.04ZM230.096 318V309.86H231.196L231.416 311.88H231.456C231.469 311.813 231.529 311.673 231.636 311.46C231.743 311.247 231.903 311.02 232.116 310.78C232.343 310.527 232.636 310.313 232.996 310.14C233.356 309.953 233.816 309.86 234.376 309.86C235.083 309.86 235.636 309.987 236.036 310.24C236.449 310.493 236.756 310.833 236.956 311.26C237.156 311.673 237.283 312.12 237.336 312.6C237.389 313.08 237.416 313.54 237.416 313.98V318H236.176V313.98C236.176 313.1 236.023 312.387 235.716 311.84C235.423 311.293 234.836 311.02 233.956 311.02C233.356 311.02 232.863 311.167 232.476 311.46C232.103 311.74 231.829 312.12 231.656 312.6C231.496 313.067 231.416 313.58 231.416 314.14V318H230.096ZM242.722 318.2C241.935 318.2 241.275 318.02 240.742 317.66C240.222 317.3 239.828 316.807 239.562 316.18C239.308 315.54 239.182 314.827 239.182 314.04C239.182 312.827 239.482 311.827 240.082 311.04C240.682 310.253 241.568 309.86 242.742 309.86C243.288 309.86 243.742 309.953 244.102 310.14C244.475 310.313 244.775 310.527 245.002 310.78C245.228 311.033 245.395 311.267 245.502 311.48C245.608 311.693 245.675 311.833 245.702 311.9H245.742L245.762 306.74H247.082V318H245.962L245.762 316.2H245.722C245.695 316.267 245.622 316.407 245.502 316.62C245.382 316.833 245.202 317.06 244.962 317.3C244.735 317.54 244.435 317.753 244.062 317.94C243.702 318.113 243.255 318.2 242.722 318.2ZM243.042 317.06C243.828 317.06 244.468 316.793 244.962 316.26C245.468 315.713 245.722 314.973 245.722 314.04C245.722 313.12 245.488 312.393 245.022 311.86C244.555 311.313 243.928 311.04 243.142 311.04C242.515 311.04 242.002 311.187 241.602 311.48C241.202 311.76 240.908 312.127 240.722 312.58C240.535 313.033 240.442 313.52 240.442 314.04C240.442 314.547 240.528 315.033 240.702 315.5C240.875 315.953 241.148 316.327 241.522 316.62C241.895 316.913 242.402 317.06 243.042 317.06ZM253.134 318L257.094 306.74H259.214L263.234 318H261.874L260.654 314.48H255.714L254.494 318H253.134ZM258.194 307.3L256.074 313.4H260.294L258.194 307.3ZM268.074 318.2C267.314 318.2 266.634 318.04 266.034 317.72C265.434 317.4 264.961 316.933 264.614 316.32C264.268 315.707 264.094 314.967 264.094 314.1C264.121 313.247 264.301 312.5 264.634 311.86C264.981 311.22 265.454 310.727 266.054 310.38C266.654 310.02 267.341 309.84 268.114 309.84C268.834 309.84 269.461 309.973 269.994 310.24C270.528 310.507 270.954 310.867 271.274 311.32C271.594 311.773 271.794 312.273 271.874 312.82H270.694C270.561 312.233 270.268 311.78 269.814 311.46C269.374 311.14 268.821 310.98 268.154 310.98C267.301 310.98 266.621 311.267 266.114 311.84C265.621 312.4 265.368 313.133 265.354 314.04C265.354 314.96 265.594 315.693 266.074 316.24C266.568 316.773 267.254 317.04 268.134 317.04C268.774 317.04 269.328 316.88 269.794 316.56C270.261 316.24 270.561 315.78 270.694 315.18H271.874C271.794 315.74 271.588 316.247 271.254 316.7C270.934 317.153 270.501 317.52 269.954 317.8C269.421 318.067 268.794 318.2 268.074 318.2ZM273.457 318V306.74H274.757V311.88H274.797C274.824 311.813 274.884 311.673 274.977 311.46C275.084 311.247 275.244 311.02 275.457 310.78C275.671 310.527 275.957 310.313 276.317 310.14C276.677 309.953 277.131 309.86 277.677 309.86C278.371 309.86 278.924 309.993 279.337 310.26C279.751 310.513 280.057 310.853 280.257 311.28C280.471 311.693 280.611 312.14 280.677 312.62C280.744 313.1 280.777 313.553 280.777 313.98V318H279.517V313.98C279.517 313.1 279.364 312.387 279.057 311.84C278.764 311.293 278.184 311.02 277.317 311.02C276.704 311.02 276.211 311.167 275.837 311.46C275.464 311.74 275.191 312.12 275.017 312.6C274.844 313.067 274.757 313.58 274.757 314.14V318H273.457ZM283.46 308.98C283.166 308.98 282.966 308.907 282.86 308.76C282.766 308.6 282.72 308.4 282.72 308.16C282.72 307.96 282.766 307.787 282.86 307.64C282.966 307.48 283.166 307.4 283.46 307.4C283.753 307.4 283.946 307.48 284.04 307.64C284.146 307.787 284.2 307.96 284.2 308.16C284.2 308.4 284.146 308.6 284.04 308.76C283.946 308.907 283.753 308.98 283.46 308.98ZM282.82 318V309.86H284.1V318H282.82ZM289.675 318.2C288.782 318.2 288.042 318 287.455 317.6C286.882 317.187 286.455 316.66 286.175 316.02C285.908 315.367 285.775 314.693 285.775 314C285.775 313.24 285.922 312.547 286.215 311.92C286.522 311.28 286.962 310.773 287.535 310.4C288.122 310.027 288.822 309.84 289.635 309.84C290.675 309.84 291.542 310.18 292.235 310.86C292.928 311.527 293.302 312.427 293.355 313.56C293.368 313.613 293.375 313.693 293.375 313.8C293.375 313.893 293.375 313.98 293.375 314.06H287.015C287.015 315.007 287.242 315.753 287.695 316.3C288.162 316.833 288.815 317.1 289.655 317.1C290.282 317.1 290.815 316.94 291.255 316.62C291.708 316.3 291.988 315.867 292.095 315.32H293.355C293.222 316.147 292.828 316.833 292.175 317.38C291.522 317.927 290.688 318.2 289.675 318.2ZM287.055 313.36H292.055C292.055 313.08 291.975 312.747 291.815 312.36C291.668 311.973 291.415 311.64 291.055 311.36C290.708 311.067 290.228 310.92 289.615 310.92C289.055 310.92 288.595 311.04 288.235 311.28C287.875 311.52 287.602 311.827 287.415 312.2C287.228 312.573 287.108 312.96 287.055 313.36ZM300.818 309.86H302.098V310.14L299.018 318H297.198L294.098 310.14V309.86H295.378L298.098 316.94H298.138L300.818 309.86ZM306.804 318.2C305.91 318.2 305.17 318 304.584 317.6C304.01 317.187 303.584 316.66 303.304 316.02C303.037 315.367 302.904 314.693 302.904 314C302.904 313.24 303.05 312.547 303.344 311.92C303.65 311.28 304.09 310.773 304.664 310.4C305.25 310.027 305.95 309.84 306.764 309.84C307.804 309.84 308.67 310.18 309.364 310.86C310.057 311.527 310.43 312.427 310.484 313.56C310.497 313.613 310.504 313.693 310.504 313.8C310.504 313.893 310.504 313.98 310.504 314.06H304.144C304.144 315.007 304.37 315.753 304.824 316.3C305.29 316.833 305.944 317.1 306.784 317.1C307.41 317.1 307.944 316.94 308.384 316.62C308.837 316.3 309.117 315.867 309.224 315.32H310.484C310.35 316.147 309.957 316.833 309.304 317.38C308.65 317.927 307.817 318.2 306.804 318.2ZM304.184 313.36H309.184C309.184 313.08 309.104 312.747 308.944 312.36C308.797 311.973 308.544 311.64 308.184 311.36C307.837 311.067 307.357 310.92 306.744 310.92C306.184 310.92 305.724 311.04 305.364 311.28C305.004 311.52 304.73 311.827 304.544 312.2C304.357 312.573 304.237 312.96 304.184 313.36ZM322.093 318.2C321.053 318.2 320.12 317.987 319.293 317.56C318.467 317.12 317.807 316.467 317.313 315.6C316.833 314.733 316.6 313.667 316.613 312.4C316.613 311.12 316.847 310.047 317.313 309.18C317.793 308.3 318.453 307.64 319.293 307.2C320.133 306.76 321.093 306.54 322.173 306.54C323.56 306.54 324.693 306.913 325.573 307.66C326.453 308.393 327.013 309.407 327.253 310.7H325.913C325.74 309.687 325.3 308.94 324.593 308.46C323.887 307.98 323.08 307.74 322.173 307.74C320.84 307.74 319.793 308.14 319.033 308.94C318.273 309.727 317.893 310.853 317.893 312.32C317.893 313.853 318.26 315.02 318.993 315.82C319.74 316.607 320.78 317 322.113 317C323.113 317 323.967 316.76 324.673 316.28C325.38 315.787 325.813 315.04 325.973 314.04H327.333C327.093 315.32 326.527 316.333 325.633 317.08C324.753 317.827 323.573 318.2 322.093 318.2ZM332.467 318.2C331.161 318.2 330.181 317.813 329.527 317.04C328.887 316.253 328.567 315.253 328.567 314.04C328.554 312.813 328.874 311.813 329.527 311.04C330.194 310.253 331.174 309.853 332.467 309.84C333.747 309.84 334.714 310.227 335.367 311C336.034 311.76 336.367 312.773 336.367 314.04C336.367 314.827 336.227 315.533 335.947 316.16C335.667 316.787 335.241 317.287 334.667 317.66C334.094 318.02 333.361 318.2 332.467 318.2ZM332.467 317.08C333.161 317.08 333.694 316.927 334.067 316.62C334.454 316.313 334.721 315.927 334.867 315.46C335.027 314.98 335.107 314.493 335.107 314C335.107 313.507 335.027 313.02 334.867 312.54C334.721 312.06 334.454 311.667 334.067 311.36C333.694 311.053 333.161 310.9 332.467 310.9C331.774 310.9 331.234 311.053 330.847 311.36C330.474 311.667 330.207 312.06 330.047 312.54C329.901 313.02 329.827 313.507 329.827 314C329.827 314.493 329.901 314.98 330.047 315.46C330.207 315.927 330.474 316.313 330.847 316.62C331.234 316.927 331.774 317.08 332.467 317.08ZM337.928 318V309.86H339.028L339.108 311.88H339.148C339.175 311.787 339.235 311.633 339.328 311.42C339.421 311.193 339.568 310.96 339.768 310.72C339.968 310.48 340.228 310.28 340.548 310.12C340.868 309.947 341.275 309.86 341.768 309.86C342.515 309.86 343.061 310.067 343.408 310.48C343.768 310.893 344.008 311.36 344.128 311.88H344.168C344.208 311.787 344.281 311.633 344.388 311.42C344.495 311.193 344.655 310.96 344.868 310.72C345.081 310.48 345.355 310.28 345.688 310.12C346.035 309.947 346.455 309.86 346.948 309.86C347.468 309.86 347.895 309.967 348.228 310.18C348.561 310.38 348.815 310.653 348.988 311C349.175 311.333 349.308 311.687 349.388 312.06C349.468 312.433 349.515 312.793 349.528 313.14C349.541 313.487 349.548 313.767 349.548 313.98V318H348.428V313.98C348.428 313.767 348.415 313.493 348.388 313.16C348.361 312.827 348.295 312.5 348.188 312.18C348.081 311.847 347.895 311.573 347.628 311.36C347.375 311.133 347.008 311.02 346.528 311.02C345.995 311.02 345.568 311.167 345.248 311.46C344.928 311.753 344.695 312.14 344.548 312.62C344.401 313.087 344.328 313.593 344.328 314.14V318H343.208V313.98C343.208 313.767 343.195 313.493 343.168 313.16C343.141 312.827 343.075 312.5 342.968 312.18C342.861 311.847 342.675 311.573 342.408 311.36C342.155 311.133 341.788 311.02 341.308 311.02C340.775 311.02 340.348 311.167 340.028 311.46C339.708 311.753 339.475 312.14 339.328 312.62C339.181 313.087 339.108 313.593 339.108 314.14V318H337.928ZM351.131 318V309.86H352.231L352.311 311.88H352.351C352.378 311.787 352.438 311.633 352.531 311.42C352.624 311.193 352.771 310.96 352.971 310.72C353.171 310.48 353.431 310.28 353.751 310.12C354.071 309.947 354.478 309.86 354.971 309.86C355.718 309.86 356.264 310.067 356.611 310.48C356.971 310.893 357.211 311.36 357.331 311.88H357.371C357.411 311.787 357.484 311.633 357.591 311.42C357.698 311.193 357.858 310.96 358.071 310.72C358.284 310.48 358.558 310.28 358.891 310.12C359.238 309.947 359.658 309.86 360.151 309.86C360.671 309.86 361.098 309.967 361.431 310.18C361.764 310.38 362.018 310.653 362.191 311C362.378 311.333 362.511 311.687 362.591 312.06C362.671 312.433 362.718 312.793 362.731 313.14C362.744 313.487 362.751 313.767 362.751 313.98V318H361.631V313.98C361.631 313.767 361.618 313.493 361.591 313.16C361.564 312.827 361.498 312.5 361.391 312.18C361.284 311.847 361.098 311.573 360.831 311.36C360.578 311.133 360.211 311.02 359.731 311.02C359.198 311.02 358.771 311.167 358.451 311.46C358.131 311.753 357.898 312.14 357.751 312.62C357.604 313.087 357.531 313.593 357.531 314.14V318H356.411V313.98C356.411 313.767 356.398 313.493 356.371 313.16C356.344 312.827 356.278 312.5 356.171 312.18C356.064 311.847 355.878 311.573 355.611 311.36C355.358 311.133 354.991 311.02 354.511 311.02C353.978 311.02 353.551 311.167 353.231 311.46C352.911 311.753 352.678 312.14 352.531 312.62C352.384 313.087 352.311 313.593 352.311 314.14V318H351.131ZM368.014 318.2C366.708 318.2 365.728 317.813 365.074 317.04C364.434 316.253 364.114 315.253 364.114 314.04C364.101 312.813 364.421 311.813 365.074 311.04C365.741 310.253 366.721 309.853 368.014 309.84C369.294 309.84 370.261 310.227 370.914 311C371.581 311.76 371.914 312.773 371.914 314.04C371.914 314.827 371.774 315.533 371.494 316.16C371.214 316.787 370.788 317.287 370.214 317.66C369.641 318.02 368.908 318.2 368.014 318.2ZM368.014 317.08C368.708 317.08 369.241 316.927 369.614 316.62C370.001 316.313 370.268 315.927 370.414 315.46C370.574 314.98 370.654 314.493 370.654 314C370.654 313.507 370.574 313.02 370.414 312.54C370.268 312.06 370.001 311.667 369.614 311.36C369.241 311.053 368.708 310.9 368.014 310.9C367.321 310.9 366.781 311.053 366.394 311.36C366.021 311.667 365.754 312.06 365.594 312.54C365.448 313.02 365.374 313.507 365.374 314C365.374 314.493 365.448 314.98 365.594 315.46C365.754 315.927 366.021 316.313 366.394 316.62C366.781 316.927 367.321 317.08 368.014 317.08ZM373.475 318V309.86H374.575L374.795 311.88H374.835C374.848 311.813 374.908 311.673 375.015 311.46C375.122 311.247 375.282 311.02 375.495 310.78C375.722 310.527 376.015 310.313 376.375 310.14C376.735 309.953 377.195 309.86 377.755 309.86C378.462 309.86 379.015 309.987 379.415 310.24C379.828 310.493 380.135 310.833 380.335 311.26C380.535 311.673 380.662 312.12 380.715 312.6C380.768 313.08 380.795 313.54 380.795 313.98V318H379.555V313.98C379.555 313.1 379.402 312.387 379.095 311.84C378.802 311.293 378.215 311.02 377.335 311.02C376.735 311.02 376.242 311.167 375.855 311.46C375.482 311.74 375.208 312.12 375.035 312.6C374.875 313.067 374.795 313.58 374.795 314.14V318H373.475ZM392.207 318.26C391.127 318.26 390.187 318.033 389.387 317.58C388.587 317.113 387.967 316.447 387.527 315.58C387.1 314.713 386.887 313.66 386.887 312.42C386.9 311.18 387.133 310.12 387.587 309.24C388.053 308.36 388.7 307.693 389.527 307.24C390.353 306.773 391.32 306.54 392.427 306.54C393.853 306.54 394.993 306.873 395.847 307.54C396.713 308.193 397.267 309.153 397.507 310.42L396.267 310.58C396.053 309.593 395.607 308.873 394.927 308.42C394.247 307.967 393.413 307.74 392.427 307.74C391 307.74 389.94 308.147 389.247 308.96C388.553 309.773 388.18 310.907 388.127 312.36C388.127 313.84 388.507 314.987 389.267 315.8C390.04 316.613 391.113 317.02 392.487 317.02C393.54 317.02 394.42 316.74 395.127 316.18C395.847 315.62 396.267 314.793 396.387 313.7H393.287V312.7H397.747V318H396.827L396.527 315.52H396.487C396.38 315.88 396.16 316.273 395.827 316.7C395.493 317.127 395.027 317.493 394.427 317.8C393.84 318.107 393.1 318.26 392.207 318.26ZM403.014 318.2C401.708 318.2 400.728 317.813 400.074 317.04C399.434 316.253 399.114 315.253 399.114 314.04C399.101 312.813 399.421 311.813 400.074 311.04C400.741 310.253 401.721 309.853 403.014 309.84C404.294 309.84 405.261 310.227 405.914 311C406.581 311.76 406.914 312.773 406.914 314.04C406.914 314.827 406.774 315.533 406.494 316.16C406.214 316.787 405.788 317.287 405.214 317.66C404.641 318.02 403.908 318.2 403.014 318.2ZM403.014 317.08C403.708 317.08 404.241 316.927 404.614 316.62C405.001 316.313 405.268 315.927 405.414 315.46C405.574 314.98 405.654 314.493 405.654 314C405.654 313.507 405.574 313.02 405.414 312.54C405.268 312.06 405.001 311.667 404.614 311.36C404.241 311.053 403.708 310.9 403.014 310.9C402.321 310.9 401.781 311.053 401.394 311.36C401.021 311.667 400.754 312.06 400.594 312.54C400.448 313.02 400.374 313.507 400.374 314C400.374 314.493 400.448 314.98 400.594 315.46C400.754 315.927 401.021 316.313 401.394 316.62C401.781 316.927 402.321 317.08 403.014 317.08ZM411.335 318.18C410.588 318.18 409.975 318 409.495 317.64C409.015 317.267 408.655 316.767 408.415 316.14C408.188 315.513 408.075 314.8 408.075 314C408.075 312.773 408.342 311.767 408.875 310.98C409.422 310.18 410.242 309.78 411.335 309.78C411.895 309.78 412.362 309.88 412.735 310.08C413.122 310.267 413.428 310.5 413.655 310.78C413.895 311.06 414.068 311.327 414.175 311.58H414.195V309.86H415.515V318H414.415L414.215 316.42H414.175C414.055 316.687 413.882 316.96 413.655 317.24C413.428 317.507 413.122 317.733 412.735 317.92C412.362 318.093 411.895 318.18 411.335 318.18ZM411.835 317.04C412.662 317.04 413.255 316.767 413.615 316.22C413.988 315.673 414.175 314.94 414.175 314.02C414.175 313.033 413.982 312.28 413.595 311.76C413.222 311.24 412.635 310.98 411.835 310.98C410.955 310.98 410.322 311.273 409.935 311.86C409.562 312.433 409.375 313.147 409.375 314C409.375 314.893 409.568 315.627 409.955 316.2C410.342 316.76 410.968 317.04 411.835 317.04ZM417.29 318V306.74H418.55V318H417.29ZM423.59 318.2C422.817 318.2 422.177 318.04 421.67 317.72C421.177 317.387 420.803 317 420.55 316.56C420.31 316.12 420.19 315.727 420.19 315.38H421.43C421.43 315.393 421.437 315.493 421.45 315.68C421.477 315.867 421.55 316.08 421.67 316.32C421.79 316.56 421.997 316.773 422.29 316.96C422.583 317.133 423.01 317.22 423.57 317.22C424.17 317.22 424.683 317.113 425.11 316.9C425.55 316.687 425.763 316.353 425.75 315.9C425.75 315.513 425.617 315.22 425.35 315.02C425.097 314.807 424.763 314.647 424.35 314.54C423.937 314.42 423.503 314.307 423.05 314.2C422.597 314.093 422.163 313.96 421.75 313.8C421.35 313.627 421.023 313.387 420.77 313.08C420.517 312.773 420.39 312.347 420.39 311.8C420.39 311.133 420.69 310.607 421.29 310.22C421.89 309.82 422.657 309.62 423.59 309.62C424.11 309.62 424.637 309.707 425.17 309.88C425.703 310.04 426.143 310.327 426.49 310.74C426.837 311.14 426.997 311.707 426.97 312.44H425.77C425.797 311.933 425.683 311.553 425.43 311.3C425.177 311.047 424.87 310.88 424.51 310.8C424.163 310.707 423.843 310.66 423.55 310.66C422.977 310.66 422.503 310.767 422.13 310.98C421.77 311.193 421.59 311.493 421.59 311.88C421.59 312.253 421.717 312.54 421.97 312.74C422.237 312.927 422.57 313.08 422.97 313.2C423.383 313.307 423.817 313.413 424.27 313.52C424.737 313.613 425.177 313.747 425.59 313.92C426.003 314.093 426.337 314.34 426.59 314.66C426.857 314.98 426.99 315.42 426.99 315.98C426.99 316.753 426.663 317.32 426.01 317.68C425.357 318.027 424.55 318.2 423.59 318.2Z" fill="#E4E8EB"/>
<path d="M167.722 116H164.968V91.7716H174.178C176.846 91.7716 178.883 92.4171 180.288 93.7081C181.694 94.9992 182.397 96.9214 182.397 99.4748C182.397 101.856 181.666 103.692 180.202 104.983C178.768 106.274 176.76 106.92 174.178 106.92H167.722V116ZM173.876 94.1385H167.722V104.768H173.876C175.77 104.768 177.233 104.338 178.266 103.477C179.327 102.588 179.858 101.254 179.858 99.4748C179.858 97.6386 179.342 96.2902 178.309 95.4295C177.305 94.5688 175.827 94.1385 173.876 94.1385ZM191.445 116.43C190.011 116.43 188.849 116.172 187.96 115.656C187.099 115.139 186.439 114.451 185.98 113.59C185.521 112.701 185.205 111.74 185.033 110.707C184.89 109.645 184.818 108.584 184.818 107.522V98.485H187.572V107.565C187.572 108.713 187.687 109.774 187.917 110.75C188.146 111.725 188.605 112.5 189.294 113.074C190.011 113.647 191.044 113.934 192.392 113.934C193.683 113.934 194.687 113.647 195.405 113.074C196.151 112.471 196.696 111.697 197.04 110.75C197.384 109.803 197.585 108.813 197.642 107.78V98.485H200.483V116H198.116L197.642 112.084H197.556C197.413 112.572 197.112 113.16 196.653 113.848C196.194 114.537 195.534 115.139 194.673 115.656C193.841 116.172 192.765 116.43 191.445 116.43ZM213.837 116.43C212.689 116.43 211.714 116.244 210.911 115.871C210.136 115.469 209.49 115.01 208.974 114.494C208.486 113.977 208.113 113.49 207.855 113.031C207.597 112.572 207.439 112.27 207.382 112.127H207.296L206.865 116H204.455V91.7716H207.296L207.339 102.874H207.425C207.482 102.731 207.626 102.43 207.855 101.971C208.085 101.512 208.443 101.01 208.931 100.465C209.419 99.9194 210.05 99.4604 210.824 99.0874C211.628 98.6858 212.618 98.485 213.794 98.485C215.487 98.485 216.892 98.8723 218.011 99.6469C219.159 100.422 220.019 101.497 220.593 102.874C221.167 104.223 221.454 105.758 221.454 107.479C221.454 109.201 221.167 110.735 220.593 112.084C220.019 113.432 219.159 114.494 218.011 115.268C216.892 116.043 215.501 116.43 213.837 116.43ZM213.148 113.977C214.525 113.977 215.616 113.662 216.419 113.031C217.222 112.399 217.81 111.596 218.183 110.621C218.556 109.617 218.743 108.569 218.743 107.479C218.743 106.36 218.542 105.313 218.14 104.338C217.739 103.362 217.107 102.573 216.247 101.971C215.386 101.34 214.282 101.024 212.933 101.024C211.24 101.024 209.892 101.612 208.888 102.788C207.884 103.936 207.382 105.5 207.382 107.479C207.382 109.487 207.912 111.08 208.974 112.256C210.064 113.404 211.456 113.977 213.148 113.977ZM225.18 116V91.7716H227.891V116H225.18ZM233.959 96.5914C233.328 96.5914 232.897 96.4337 232.668 96.1181C232.467 95.7738 232.367 95.3434 232.367 94.827C232.367 94.3967 232.467 94.0237 232.668 93.7081C232.897 93.3639 233.328 93.1917 233.959 93.1917C234.59 93.1917 235.006 93.3639 235.207 93.7081C235.436 94.0237 235.551 94.3967 235.551 94.827C235.551 95.3434 235.436 95.7738 235.207 96.1181C235.006 96.4337 234.59 96.5914 233.959 96.5914ZM232.582 116V98.485H235.336V116H232.582ZM247.418 116.43C245.783 116.43 244.32 116.086 243.029 115.398C241.738 114.709 240.719 113.705 239.973 112.385C239.227 111.065 238.854 109.473 238.854 107.608C238.912 105.772 239.299 104.166 240.016 102.788C240.762 101.411 241.781 100.35 243.072 99.6039C244.363 98.8292 245.84 98.4419 247.504 98.4419C249.054 98.4419 250.402 98.7288 251.55 99.3026C252.697 99.8764 253.615 100.651 254.304 101.626C254.992 102.602 255.423 103.678 255.595 104.854H253.056C252.769 103.592 252.138 102.616 251.162 101.928C250.215 101.239 249.025 100.895 247.59 100.895C245.754 100.895 244.291 101.512 243.201 102.745C242.139 103.95 241.594 105.528 241.566 107.479C241.566 109.459 242.082 111.037 243.115 112.213C244.176 113.361 245.654 113.934 247.547 113.934C248.924 113.934 250.115 113.59 251.119 112.902C252.123 112.213 252.769 111.223 253.056 109.932H255.595C255.423 111.137 254.978 112.227 254.261 113.203C253.572 114.178 252.64 114.967 251.463 115.57C250.316 116.143 248.967 116.43 247.418 116.43ZM277.088 116.43C275.453 116.43 273.99 116.086 272.699 115.398C271.408 114.709 270.389 113.705 269.644 112.385C268.898 111.065 268.525 109.473 268.525 107.608C268.582 105.772 268.969 104.166 269.687 102.788C270.432 101.411 271.451 100.35 272.742 99.6039C274.033 98.8292 275.511 98.4419 277.175 98.4419C278.724 98.4419 280.072 98.7288 281.22 99.3026C282.367 99.8764 283.285 100.651 283.974 101.626C284.663 102.602 285.093 103.678 285.265 104.854H282.726C282.439 103.592 281.808 102.616 280.832 101.928C279.886 101.239 278.695 100.895 277.261 100.895C275.424 100.895 273.961 101.512 272.871 102.745C271.81 103.95 271.264 105.528 271.236 107.479C271.236 109.459 271.752 111.037 272.785 112.213C273.847 113.361 275.324 113.934 277.218 113.934C278.595 113.934 279.785 113.59 280.789 112.902C281.794 112.213 282.439 111.223 282.726 109.932H285.265C285.093 111.137 284.648 112.227 283.931 113.203C283.242 114.178 282.31 114.967 281.134 115.57C279.986 116.143 278.638 116.43 277.088 116.43ZM288.671 116V91.7716H291.468V102.831H291.554C291.612 102.688 291.741 102.387 291.942 101.928C292.171 101.469 292.516 100.981 292.975 100.465C293.434 99.9194 294.05 99.4604 294.825 99.0874C295.6 98.6858 296.575 98.485 297.751 98.485C299.243 98.485 300.434 98.7719 301.323 99.3457C302.213 99.8908 302.873 100.622 303.303 101.54C303.762 102.43 304.063 103.391 304.207 104.424C304.35 105.457 304.422 106.432 304.422 107.35V116H301.711V107.35C301.711 105.457 301.381 103.922 300.721 102.745C300.09 101.569 298.842 100.981 296.977 100.981C295.657 100.981 294.596 101.297 293.792 101.928C292.989 102.53 292.401 103.348 292.028 104.381C291.655 105.385 291.468 106.489 291.468 107.694V116H288.671ZM314.153 116.387C312.546 116.387 311.227 116 310.194 115.225C309.161 114.422 308.386 113.346 307.87 111.998C307.382 110.649 307.138 109.114 307.138 107.393C307.138 104.754 307.712 102.588 308.86 100.895C310.036 99.1735 311.8 98.3128 314.153 98.3128C315.358 98.3128 316.362 98.528 317.165 98.9583C317.997 99.36 318.657 99.8621 319.145 100.465C319.661 101.067 320.034 101.641 320.264 102.186H320.307V98.485H323.147V116H320.78L320.35 112.6H320.264C320.006 113.174 319.633 113.762 319.145 114.365C318.657 114.938 317.997 115.426 317.165 115.828C316.362 116.201 315.358 116.387 314.153 116.387ZM315.229 113.934C317.008 113.934 318.284 113.346 319.059 112.17C319.862 110.994 320.264 109.416 320.264 107.436C320.264 105.313 319.848 103.692 319.016 102.573C318.213 101.454 316.95 100.895 315.229 100.895C313.335 100.895 311.973 101.526 311.141 102.788C310.337 104.022 309.936 105.557 309.936 107.393C309.936 109.315 310.352 110.893 311.184 112.127C312.016 113.332 313.364 113.934 315.229 113.934ZM326.364 116V98.485H328.731L329.205 102.831H329.291C329.319 102.688 329.448 102.387 329.678 101.928C329.907 101.469 330.252 100.981 330.711 100.465C331.198 99.9194 331.83 99.4604 332.604 99.0874C333.379 98.6858 334.369 98.485 335.574 98.485C337.094 98.485 338.285 98.7575 339.146 99.3026C340.035 99.8477 340.695 100.579 341.125 101.497C341.555 102.387 341.828 103.348 341.943 104.381C342.058 105.414 342.115 106.403 342.115 107.35V116H339.447V107.35C339.447 105.457 339.117 103.922 338.457 102.745C337.826 101.569 336.563 100.981 334.67 100.981C333.379 100.981 332.317 101.297 331.485 101.928C330.682 102.53 330.094 103.348 329.721 104.381C329.377 105.385 329.205 106.489 329.205 107.694V116H326.364ZM345.57 116V98.485H347.937L348.41 102.831H348.496C348.525 102.688 348.654 102.387 348.884 101.928C349.113 101.469 349.458 100.981 349.917 100.465C350.404 99.9194 351.036 99.4604 351.81 99.0874C352.585 98.6858 353.575 98.485 354.78 98.485C356.3 98.485 357.491 98.7575 358.351 99.3026C359.241 99.8477 359.901 100.579 360.331 101.497C360.761 102.387 361.034 103.348 361.149 104.381C361.263 105.414 361.321 106.403 361.321 107.35V116H358.653V107.35C358.653 105.457 358.323 103.922 357.663 102.745C357.032 101.569 355.769 100.981 353.876 100.981C352.585 100.981 351.523 101.297 350.691 101.928C349.888 102.53 349.3 103.348 348.927 104.381C348.583 105.385 348.41 106.489 348.41 107.694V116H345.57ZM372.737 116.43C370.815 116.43 369.223 116 367.96 115.139C366.727 114.25 365.809 113.117 365.206 111.74C364.632 110.334 364.346 108.885 364.346 107.393C364.346 105.758 364.661 104.266 365.292 102.918C365.952 101.54 366.899 100.45 368.133 99.6469C369.395 98.8436 370.901 98.4419 372.651 98.4419C374.889 98.4419 376.754 99.1735 378.246 100.637C379.738 102.071 380.541 104.008 380.656 106.446C380.684 106.561 380.699 106.733 380.699 106.963C380.699 107.164 380.699 107.35 380.699 107.522H367.014C367.014 109.559 367.501 111.166 368.477 112.342C369.481 113.49 370.887 114.063 372.694 114.063C374.043 114.063 375.19 113.719 376.137 113.031C377.112 112.342 377.715 111.41 377.944 110.233H380.656C380.369 112.012 379.522 113.49 378.117 114.666C376.711 115.842 374.918 116.43 372.737 116.43ZM367.1 106.016H377.858C377.858 105.414 377.686 104.696 377.342 103.864C377.026 103.032 376.481 102.315 375.707 101.713C374.961 101.081 373.928 100.766 372.608 100.766C371.403 100.766 370.413 101.024 369.639 101.54C368.864 102.057 368.276 102.717 367.874 103.52C367.473 104.323 367.215 105.155 367.1 106.016ZM384.794 116V91.7716H387.506V116H384.794Z" fill="url(#paint7_linear_779_3616)"/>
<defs>
<filter id="filter0_b_779_3616" x="-33.5449" y="-33.5449" width="619.09" height="441.09" filterUnits="userSpaceOnUse" color-interpolation-filters="sRGB">
<feFlood flood-opacity="0" result="BackgroundImageFix"/>
<feGaussianBlur in="BackgroundImageFix" stdDeviation="16.7725"/>
<feComposite in2="SourceAlpha" operator="in" result="effect1_backgroundBlur_779_3616"/>
<feBlend mode="normal" in="SourceGraphic" in2="effect1_backgroundBlur_779_3616" result="shape"/>
</filter>
<filter id="filter1_b_779_3616" x="-20.5449" y="-20.5449" width="592.09" height="415.09" filterUnits="userSpaceOnUse" color-interpolation-filters="sRGB">
<feFlood flood-opacity="0" result="BackgroundImageFix"/>
<feGaussianBlur in="BackgroundImageFix" stdDeviation="16.7725"/>
<feComposite in2="SourceAlpha" operator="in" result="effect1_backgroundBlur_779_3616"/>
<feBlend mode="normal" in="SourceGraphic" in2="effect1_backgroundBlur_779_3616" result="shape"/>
</filter>
<filter id="filter2_f_779_3616" x="175" y="140" width="116" height="116" filterUnits="userSpaceOnUse" color-interpolation-filters="sRGB">
<feFlood flood-opacity="0" result="BackgroundImageFix"/>
<feBlend mode="normal" in="SourceGraphic" in2="BackgroundImageFix" result="shape"/>
<feGaussianBlur stdDeviation="20" result="effect1_foregroundBlur_779_3616"/>
</filter>
<filter id="filter3_b_779_3616" x="173.455" y="140.455" width="179.09" height="113.09" filterUnits="userSpaceOnUse" color-interpolation-filters="sRGB">
<feFlood flood-opacity="0" result="BackgroundImageFix"/>
<feGaussianBlur in="BackgroundImageFix" stdDeviation="16.7725"/>
<feComposite in2="SourceAlpha" operator="in" result="effect1_backgroundBlur_779_3616"/>
<feBlend mode="normal" in="SourceGraphic" in2="effect1_backgroundBlur_779_3616" result="shape"/>
</filter>
<filter id="filter4_bd_779_3616" x="185.018" y="151.018" width="100.616" height="90.9636" filterUnits="userSpaceOnUse" color-interpolation-filters="sRGB">
<feFlood flood-opacity="0" result="BackgroundImageFix"/>
<feGaussianBlur in="BackgroundImageFix" stdDeviation="13.4909"/>
<feComposite in2="SourceAlpha" operator="in" result="effect1_backgroundBlur_779_3616"/>
<feColorMatrix in="SourceAlpha" type="matrix" values="0 0 0 0 0 0 0 0 0 0 0 0 0 0 0 0 0 0 127 0" result="hardAlpha"/>
<feOffset dy="4"/>
<feGaussianBlur stdDeviation="3.35"/>
<feComposite in2="hardAlpha" operator="out"/>
<feColorMatrix type="matrix" values="0 0 0 0 0 0 0 0 0 0 0 0 0 0 0 0 0 0 0.16 0"/>
<feBlend mode="normal" in2="effect1_backgroundBlur_779_3616" result="effect2_dropShadow_779_3616"/>
<feBlend mode="normal" in="SourceGraphic" in2="effect2_dropShadow_779_3616" result="shape"/>
</filter>
<filter id="filter5_d_779_3616" x="215.941" y="177.871" width="36.1191" height="42.2832" filterUnits="userSpaceOnUse" color-interpolation-filters="sRGB">
<feFlood flood-opacity="0" result="BackgroundImageFix"/>
<feColorMatrix in="SourceAlpha" type="matrix" values="0 0 0 0 0 0 0 0 0 0 0 0 0 0 0 0 0 0 127 0" result="hardAlpha"/>
<feOffset dy="4"/>
<feGaussianBlur stdDeviation="5"/>
<feComposite in2="hardAlpha" operator="out"/>
<feColorMatrix type="matrix" values="0 0 0 0 0.0941176 0 0 0 0 0.34902 0 0 0 0 0.623529 0 0 0 0.16 0"/>
<feBlend mode="normal" in2="BackgroundImageFix" result="effect1_dropShadow_779_3616"/>
<feBlend mode="normal" in="SourceGraphic" in2="effect1_dropShadow_779_3616" result="shape"/>
</filter>
<linearGradient id="paint0_linear_779_3616" x1="-620.45" y1="-401.177" x2="695.863" y2="874.938" gradientUnits="userSpaceOnUse">
<stop stop-color="#1F44C5"/>
<stop offset="1" stop-color="#223987" stop-opacity="0"/>
</linearGradient>
<linearGradient id="paint1_linear_779_3616" x1="-121.135" y1="-100.633" x2="518.817" y2="550.33" gradientUnits="userSpaceOnUse">
<stop stop-color="#10192C" stop-opacity="0.16"/>
<stop offset="0.432393" stop-color="#101B2E" stop-opacity="0.56"/>
<stop offset="1" stop-color="#29457B" stop-opacity="0"/>
</linearGradient>
<linearGradient id="paint2_linear_779_3616" x1="-577.102" y1="-360.287" x2="648.241" y2="853.942" gradientUnits="userSpaceOnUse">
<stop stop-color="#1F44C5"/>
<stop offset="1" stop-color="#223987" stop-opacity="0"/>
</linearGradient>
<linearGradient id="paint3_linear_779_3616" x1="178.385" y1="158.98" x2="253.561" y2="282.395" gradientUnits="userSpaceOnUse">
<stop stop-color="#10192C" stop-opacity="0.16"/>
<stop offset="0.432393" stop-color="#101B2E" stop-opacity="0.56"/>
<stop offset="1" stop-color="#29457B" stop-opacity="0"/>
</linearGradient>
<linearGradient id="paint4_linear_779_3616" x1="81.1115" y1="124.657" x2="226.738" y2="357.554" gradientUnits="userSpaceOnUse">
<stop stop-color="#1F44C5"/>
<stop offset="1" stop-color="#223987" stop-opacity="0"/>
</linearGradient>
<linearGradient id="paint5_linear_779_3616" x1="261" y1="229.5" x2="213.985" y2="171.699" gradientUnits="userSpaceOnUse">
<stop stop-color="#10192C" stop-opacity="0.16"/>
<stop offset="0.204633" stop-color="#101B2E" stop-opacity="0.56"/>
<stop offset="1" stop-color="#29457B" stop-opacity="0"/>
</linearGradient>
<linearGradient id="paint6_linear_779_3616" x1="159.563" y1="138.311" x2="287.568" y2="244.325" gradientUnits="userSpaceOnUse">
<stop stop-color="#174FE8" stop-opacity="0.84"/>
<stop offset="1" stop-color="#1A3658" stop-opacity="0.85"/>
</linearGradient>
<linearGradient id="paint7_linear_779_3616" x1="157" y1="88" x2="400" y2="100" gradientUnits="userSpaceOnUse">
<stop stop-color="#18599F"/>
<stop offset="1" stop-color="white"/>
</linearGradient>
<clipPath id="clip0_779_3616">
<rect width="38" height="34" fill="white" transform="translate(215 182)"/>
</clipPath>
</defs>
</svg>
