<svg width="89" height="12" viewBox="0 0 89 12" fill="none" xmlns="http://www.w3.org/2000/svg">
<path d="M88.1152 6L78.1152 0.226497V11.7735L88.1152 6ZM0 7H2.00262V5H0V7ZM6.00785 7H10.0131V5H6.00785V7ZM14.0183 7H18.0236V5H14.0183V7ZM22.0288 7H26.034V5H22.0288V7ZM30.0393 7H34.0445V5H30.0393V7ZM38.0497 7H42.055V5H38.0497V7ZM46.0602 7H50.0654V5H46.0602V7ZM54.0707 7H58.0759V5H54.0707V7ZM62.0811 7H66.0864V5H62.0811V7ZM70.0916 7H74.0968V5H70.0916V7ZM78.1021 7H82.1073V5H78.1021V7Z" fill="#1EB941"/>
</svg>
