<svg width="61" height="60" viewBox="0 0 61 60" fill="none" xmlns="http://www.w3.org/2000/svg">
<circle cx="30.5" cy="30" r="30" fill="#D9D9D9"/>
<path d="M36.7747 24.9589L26.8994 29.3421C26.9072 29.4669 26.9125 29.5935 26.9125 29.7207C26.9125 29.9515 26.8982 30.1781 26.8727 30.401L33.6502 33.8311C34.7139 32.8435 36.1373 32.2394 37.7016 32.2394C40.9896 32.2394 43.6557 34.9048 43.6557 38.1934C43.6557 41.482 40.9896 44.1475 37.7016 44.1475C34.4131 44.1475 31.7476 41.482 31.7476 38.1934C31.7476 37.9633 31.7619 37.7368 31.7869 37.5127L25.0093 34.0836C23.9469 35.0707 22.5234 35.6748 20.958 35.6748C17.6699 35.6749 15.0039 33.0094 15.0039 29.7208C15.0039 26.4323 17.6699 23.7668 20.958 23.7668C22.6317 23.7668 24.1437 24.4583 25.2257 25.5695L35.1011 21.1875C35.0927 21.0614 35.0874 20.9348 35.0874 20.8076C35.0874 17.519 37.754 14.8535 41.0414 14.8535C44.3306 14.8535 46.9961 17.519 46.9961 20.8076C46.9961 24.0967 44.3306 26.7615 41.0414 26.7615C39.3689 26.7616 37.8563 26.0702 36.7747 24.9589Z" fill="black"/>
</svg>
