<svg width="20" height="18" viewBox="0 0 20 18" fill="none" xmlns="http://www.w3.org/2000/svg">
<path d="M8.99271 14.9C8.16372 14.9 7.38467 14.7439 6.65555 14.4317C5.92644 14.1194 5.29221 13.6957 4.75287 13.1605C4.21352 12.6253 3.78654 11.9959 3.47193 11.2723C3.15731 10.5488 3 9.77565 3 8.95297C3 8.1303 3.15731 7.35673 3.47193 6.63227C3.78654 5.90779 4.21352 5.27761 4.75287 4.74171C5.29221 4.2058 5.92644 3.78154 6.65555 3.46892C7.38467 3.15631 8.16372 3 8.99271 3C9.60116 3 10.1867 3.08834 10.7492 3.26501C11.3117 3.44169 11.8456 3.69531 12.3507 4.02586C12.4196 4.07146 12.4655 4.12845 12.4885 4.19684C12.5114 4.26523 12.4999 4.32792 12.454 4.38491C12.4081 4.44191 12.3478 4.47325 12.2732 4.47895C12.1986 4.48465 12.1326 4.4647 12.0752 4.41911C11.616 4.11135 11.1252 3.87768 10.6028 3.7181C10.0805 3.55852 9.54376 3.47874 8.99271 3.47874C7.45435 3.47874 6.15134 4.00876 5.08367 5.06882C4.01601 6.12888 3.48217 7.42261 3.48217 8.95C3.48217 10.4774 4.01601 11.7711 5.08367 12.8312C6.15134 13.8912 7.45435 14.4213 8.99271 14.4213C9.37367 14.4213 9.74731 14.3842 10.1136 14.3101C10.4799 14.236 10.8353 14.1249 11.1797 13.9767C11.2486 13.9539 11.3203 13.9482 11.395 13.9596C11.4696 13.971 11.5251 14.0062 11.5616 14.0652C11.594 14.1202 11.5999 14.1813 11.5792 14.2485C11.5586 14.3157 11.5115 14.3619 11.438 14.3871C11.0477 14.558 10.6487 14.6863 10.2412 14.7718C9.83364 14.8573 9.41748 14.9 8.99271 14.9ZM14.2622 11.925H12.4368C12.3685 11.925 12.3112 11.902 12.265 11.856C12.2188 11.81 12.1957 11.753 12.1957 11.685C12.1957 11.617 12.2188 11.5602 12.265 11.5147C12.3112 11.4691 12.3685 11.4463 12.4368 11.4463H14.2622V9.63391C14.2622 9.56609 14.2853 9.50924 14.3316 9.46336C14.378 9.41748 14.4354 9.39454 14.5038 9.39454C14.5723 9.39454 14.6295 9.41748 14.6755 9.46336C14.7214 9.50924 14.7443 9.56609 14.7443 9.63391V11.4463H16.5697C16.638 11.4463 16.6953 11.4693 16.7415 11.5153C16.7877 11.5612 16.8108 11.6182 16.8108 11.6862C16.8108 11.7542 16.7877 11.811 16.7415 11.8566C16.6953 11.9022 16.638 11.925 16.5697 11.925H14.7443V13.7374C14.7443 13.8052 14.7212 13.862 14.6748 13.9079C14.6285 13.9538 14.5711 13.9767 14.5026 13.9767C14.4342 13.9767 14.377 13.9538 14.331 13.9079C14.2851 13.862 14.2622 13.8052 14.2622 13.7374V11.925ZM7.99392 10.7966L14.4688 4.36782C14.5147 4.32222 14.5693 4.29658 14.6324 4.29088C14.6955 4.28518 14.7558 4.31082 14.8132 4.36782C14.8706 4.42481 14.8993 4.4818 14.8993 4.53879C14.8993 4.59579 14.8706 4.65278 14.8132 4.70977L8.35555 11.1214C8.25223 11.224 8.13169 11.2753 7.99392 11.2753C7.85616 11.2753 7.73562 11.224 7.6323 11.1214L5.85859 9.36034C5.81267 9.31475 5.78684 9.26061 5.7811 9.19792C5.77536 9.13522 5.80119 9.07538 5.85859 9.01839C5.91599 8.9614 5.97339 8.9329 6.0308 8.9329C6.0882 8.9329 6.1456 8.9614 6.203 9.01839L7.99392 10.7966Z" fill="#D5AA31"/>
<path d="M8.99271 14.9C8.16372 14.9 7.38467 14.7439 6.65555 14.4317C5.92644 14.1194 5.29221 13.6957 4.75287 13.1605C4.21352 12.6253 3.78654 11.9959 3.47193 11.2723C3.15731 10.5488 3 9.77565 3 8.95297C3 8.1303 3.15731 7.35673 3.47193 6.63227C3.78654 5.90779 4.21352 5.27761 4.75287 4.74171C5.29221 4.2058 5.92644 3.78154 6.65555 3.46892C7.38467 3.15631 8.16372 3 8.99271 3C9.60116 3 10.1867 3.08834 10.7492 3.26501C11.3117 3.44169 11.8456 3.69531 12.3507 4.02586C12.4196 4.07146 12.4655 4.12845 12.4885 4.19684C12.5114 4.26523 12.4999 4.32792 12.454 4.38491C12.4081 4.44191 12.3478 4.47325 12.2732 4.47895C12.1986 4.48465 12.1326 4.4647 12.0752 4.41911C11.616 4.11135 11.1252 3.87768 10.6028 3.7181C10.0805 3.55852 9.54376 3.47874 8.99271 3.47874C7.45435 3.47874 6.15134 4.00876 5.08367 5.06882C4.01601 6.12888 3.48217 7.42261 3.48217 8.95C3.48217 10.4774 4.01601 11.7711 5.08367 12.8312C6.15134 13.8912 7.45435 14.4213 8.99271 14.4213C9.37367 14.4213 9.74731 14.3842 10.1136 14.3101C10.4799 14.236 10.8353 14.1249 11.1797 13.9767C11.2486 13.9539 11.3203 13.9482 11.395 13.9596C11.4696 13.971 11.5251 14.0062 11.5616 14.0652C11.594 14.1202 11.5999 14.1813 11.5792 14.2485C11.5586 14.3157 11.5115 14.3619 11.438 14.3871C11.0477 14.558 10.6487 14.6863 10.2412 14.7718C9.83364 14.8573 9.41748 14.9 8.99271 14.9ZM14.2622 11.925H12.4368C12.3685 11.925 12.3112 11.902 12.265 11.856C12.2188 11.81 12.1957 11.753 12.1957 11.685C12.1957 11.617 12.2188 11.5602 12.265 11.5147C12.3112 11.4691 12.3685 11.4463 12.4368 11.4463H14.2622V9.63391C14.2622 9.56609 14.2853 9.50924 14.3316 9.46336C14.378 9.41748 14.4354 9.39454 14.5038 9.39454C14.5723 9.39454 14.6295 9.41748 14.6755 9.46336C14.7214 9.50924 14.7443 9.56609 14.7443 9.63391V11.4463H16.5697C16.638 11.4463 16.6953 11.4693 16.7415 11.5153C16.7877 11.5612 16.8108 11.6182 16.8108 11.6862C16.8108 11.7542 16.7877 11.811 16.7415 11.8566C16.6953 11.9022 16.638 11.925 16.5697 11.925H14.7443V13.7374C14.7443 13.8052 14.7212 13.862 14.6748 13.9079C14.6285 13.9538 14.5711 13.9767 14.5026 13.9767C14.4342 13.9767 14.377 13.9538 14.331 13.9079C14.2851 13.862 14.2622 13.8052 14.2622 13.7374V11.925ZM7.99392 10.7966L14.4688 4.36782C14.5147 4.32222 14.5693 4.29658 14.6324 4.29088C14.6955 4.28518 14.7558 4.31082 14.8132 4.36782C14.8706 4.42481 14.8993 4.4818 14.8993 4.53879C14.8993 4.59579 14.8706 4.65278 14.8132 4.70977L8.35555 11.1214C8.25223 11.224 8.13169 11.2753 7.99392 11.2753C7.85616 11.2753 7.73562 11.224 7.6323 11.1214L5.85859 9.36034C5.81267 9.31475 5.78684 9.26061 5.7811 9.19792C5.77536 9.13522 5.80119 9.07538 5.85859 9.01839C5.91599 8.9614 5.97339 8.9329 6.0308 8.9329C6.0882 8.9329 6.1456 8.9614 6.203 9.01839L7.99392 10.7966Z" fill="#F9E06D"/>
<path d="M8.99271 14.9C8.16372 14.9 7.38467 14.7439 6.65555 14.4317C5.92644 14.1194 5.29221 13.6957 4.75287 13.1605C4.21352 12.6253 3.78654 11.9959 3.47193 11.2723C3.15731 10.5488 3 9.77565 3 8.95297C3 8.1303 3.15731 7.35673 3.47193 6.63227C3.78654 5.90779 4.21352 5.27761 4.75287 4.74171C5.29221 4.2058 5.92644 3.78154 6.65555 3.46892C7.38467 3.15631 8.16372 3 8.99271 3C9.60116 3 10.1867 3.08834 10.7492 3.26501C11.3117 3.44169 11.8456 3.69531 12.3507 4.02586C12.4196 4.07146 12.4655 4.12845 12.4885 4.19684C12.5114 4.26523 12.4999 4.32792 12.454 4.38491C12.4081 4.44191 12.3478 4.47325 12.2732 4.47895C12.1986 4.48465 12.1326 4.4647 12.0752 4.41911C11.616 4.11135 11.1252 3.87768 10.6028 3.7181C10.0805 3.55852 9.54376 3.47874 8.99271 3.47874C7.45435 3.47874 6.15134 4.00876 5.08367 5.06882C4.01601 6.12888 3.48217 7.42261 3.48217 8.95C3.48217 10.4774 4.01601 11.7711 5.08367 12.8312C6.15134 13.8912 7.45435 14.4213 8.99271 14.4213C9.37367 14.4213 9.74731 14.3842 10.1136 14.3101C10.4799 14.236 10.8353 14.1249 11.1797 13.9767C11.2486 13.9539 11.3203 13.9482 11.395 13.9596C11.4696 13.971 11.5251 14.0062 11.5616 14.0652C11.594 14.1202 11.5999 14.1813 11.5792 14.2485C11.5586 14.3157 11.5115 14.3619 11.438 14.3871C11.0477 14.558 10.6487 14.6863 10.2412 14.7718C9.83364 14.8573 9.41748 14.9 8.99271 14.9ZM14.2622 11.925H12.4368C12.3685 11.925 12.3112 11.902 12.265 11.856C12.2188 11.81 12.1957 11.753 12.1957 11.685C12.1957 11.617 12.2188 11.5602 12.265 11.5147C12.3112 11.4691 12.3685 11.4463 12.4368 11.4463H14.2622V9.63391C14.2622 9.56609 14.2853 9.50924 14.3316 9.46336C14.378 9.41748 14.4354 9.39454 14.5038 9.39454C14.5723 9.39454 14.6295 9.41748 14.6755 9.46336C14.7214 9.50924 14.7443 9.56609 14.7443 9.63391V11.4463H16.5697C16.638 11.4463 16.6953 11.4693 16.7415 11.5153C16.7877 11.5612 16.8108 11.6182 16.8108 11.6862C16.8108 11.7542 16.7877 11.811 16.7415 11.8566C16.6953 11.9022 16.638 11.925 16.5697 11.925H14.7443V13.7374C14.7443 13.8052 14.7212 13.862 14.6748 13.9079C14.6285 13.9538 14.5711 13.9767 14.5026 13.9767C14.4342 13.9767 14.377 13.9538 14.331 13.9079C14.2851 13.862 14.2622 13.8052 14.2622 13.7374V11.925ZM7.99392 10.7966L14.4688 4.36782C14.5147 4.32222 14.5693 4.29658 14.6324 4.29088C14.6955 4.28518 14.7558 4.31082 14.8132 4.36782C14.8706 4.42481 14.8993 4.4818 14.8993 4.53879C14.8993 4.59579 14.8706 4.65278 14.8132 4.70977L8.35555 11.1214C8.25223 11.224 8.13169 11.2753 7.99392 11.2753C7.85616 11.2753 7.73562 11.224 7.6323 11.1214L5.85859 9.36034C5.81267 9.31475 5.78684 9.26061 5.7811 9.19792C5.77536 9.13522 5.80119 9.07538 5.85859 9.01839C5.91599 8.9614 5.97339 8.9329 6.0308 8.9329C6.0882 8.9329 6.1456 8.9614 6.203 9.01839L7.99392 10.7966Z" stroke="#D5AA31" stroke-width="0.702793"/>
<g filter="url(#filter0_f_186_13635)">
<path d="M8.99271 14.9C8.16372 14.9 7.38467 14.7439 6.65555 14.4317C5.92644 14.1194 5.29221 13.6957 4.75287 13.1605C4.21352 12.6253 3.78654 11.9959 3.47193 11.2723C3.15731 10.5488 3 9.77565 3 8.95297C3 8.1303 3.15731 7.35673 3.47193 6.63227C3.78654 5.90779 4.21352 5.27761 4.75287 4.74171C5.29221 4.2058 5.92644 3.78154 6.65555 3.46892C7.38467 3.15631 8.16372 3 8.99271 3C9.60116 3 10.1867 3.08834 10.7492 3.26501C11.3117 3.44169 11.8456 3.69531 12.3507 4.02586C12.4196 4.07146 12.4655 4.12845 12.4885 4.19684C12.5114 4.26523 12.4999 4.32792 12.454 4.38491C12.4081 4.44191 12.3478 4.47325 12.2732 4.47895C12.1986 4.48465 12.1326 4.4647 12.0752 4.41911C11.616 4.11135 11.1252 3.87768 10.6028 3.7181C10.0805 3.55852 9.54376 3.47874 8.99271 3.47874C7.45435 3.47874 6.15134 4.00876 5.08367 5.06882C4.01601 6.12888 3.48217 7.42261 3.48217 8.95C3.48217 10.4774 4.01601 11.7711 5.08367 12.8312C6.15134 13.8912 7.45435 14.4213 8.99271 14.4213C9.37367 14.4213 9.74731 14.3842 10.1136 14.3101C10.4799 14.236 10.8353 14.1249 11.1797 13.9767C11.2486 13.9539 11.3203 13.9482 11.395 13.9596C11.4696 13.971 11.5251 14.0062 11.5616 14.0652C11.594 14.1202 11.5999 14.1813 11.5792 14.2485C11.5586 14.3157 11.5115 14.3619 11.438 14.3871C11.0477 14.558 10.6487 14.6863 10.2412 14.7718C9.83364 14.8573 9.41748 14.9 8.99271 14.9ZM14.2622 11.925H12.4368C12.3685 11.925 12.3112 11.902 12.265 11.856C12.2188 11.81 12.1957 11.753 12.1957 11.685C12.1957 11.617 12.2188 11.5602 12.265 11.5147C12.3112 11.4691 12.3685 11.4463 12.4368 11.4463H14.2622V9.63391C14.2622 9.56609 14.2853 9.50924 14.3316 9.46336C14.378 9.41748 14.4354 9.39454 14.5038 9.39454C14.5723 9.39454 14.6295 9.41748 14.6755 9.46336C14.7214 9.50924 14.7443 9.56609 14.7443 9.63391V11.4463H16.5697C16.638 11.4463 16.6953 11.4693 16.7415 11.5153C16.7877 11.5612 16.8108 11.6182 16.8108 11.6862C16.8108 11.7542 16.7877 11.811 16.7415 11.8566C16.6953 11.9022 16.638 11.925 16.5697 11.925H14.7443V13.7374C14.7443 13.8052 14.7212 13.862 14.6748 13.9079C14.6285 13.9538 14.5711 13.9767 14.5026 13.9767C14.4342 13.9767 14.377 13.9538 14.331 13.9079C14.2851 13.862 14.2622 13.8052 14.2622 13.7374V11.925ZM7.99392 10.7966L14.4688 4.36782C14.5147 4.32222 14.5693 4.29658 14.6324 4.29088C14.6955 4.28518 14.7558 4.31082 14.8132 4.36782C14.8706 4.42481 14.8993 4.4818 14.8993 4.53879C14.8993 4.59579 14.8706 4.65278 14.8132 4.70977L8.35555 11.1214C8.25223 11.224 8.13169 11.2753 7.99392 11.2753C7.85616 11.2753 7.73562 11.224 7.6323 11.1214L5.85859 9.36034C5.81267 9.31475 5.78684 9.26061 5.7811 9.19792C5.77536 9.13522 5.80119 9.07538 5.85859 9.01839C5.91599 8.9614 5.97339 8.9329 6.0308 8.9329C6.0882 8.9329 6.1456 8.9614 6.203 9.01839L7.99392 10.7966Z" fill="#D5AA31"/>
<path d="M8.99271 14.9C8.16372 14.9 7.38467 14.7439 6.65555 14.4317C5.92644 14.1194 5.29221 13.6957 4.75287 13.1605C4.21352 12.6253 3.78654 11.9959 3.47193 11.2723C3.15731 10.5488 3 9.77565 3 8.95297C3 8.1303 3.15731 7.35673 3.47193 6.63227C3.78654 5.90779 4.21352 5.27761 4.75287 4.74171C5.29221 4.2058 5.92644 3.78154 6.65555 3.46892C7.38467 3.15631 8.16372 3 8.99271 3C9.60116 3 10.1867 3.08834 10.7492 3.26501C11.3117 3.44169 11.8456 3.69531 12.3507 4.02586C12.4196 4.07146 12.4655 4.12845 12.4885 4.19684C12.5114 4.26523 12.4999 4.32792 12.454 4.38491C12.4081 4.44191 12.3478 4.47325 12.2732 4.47895C12.1986 4.48465 12.1326 4.4647 12.0752 4.41911C11.616 4.11135 11.1252 3.87768 10.6028 3.7181C10.0805 3.55852 9.54376 3.47874 8.99271 3.47874C7.45435 3.47874 6.15134 4.00876 5.08367 5.06882C4.01601 6.12888 3.48217 7.42261 3.48217 8.95C3.48217 10.4774 4.01601 11.7711 5.08367 12.8312C6.15134 13.8912 7.45435 14.4213 8.99271 14.4213C9.37367 14.4213 9.74731 14.3842 10.1136 14.3101C10.4799 14.236 10.8353 14.1249 11.1797 13.9767C11.2486 13.9539 11.3203 13.9482 11.395 13.9596C11.4696 13.971 11.5251 14.0062 11.5616 14.0652C11.594 14.1202 11.5999 14.1813 11.5792 14.2485C11.5586 14.3157 11.5115 14.3619 11.438 14.3871C11.0477 14.558 10.6487 14.6863 10.2412 14.7718C9.83364 14.8573 9.41748 14.9 8.99271 14.9ZM14.2622 11.925H12.4368C12.3685 11.925 12.3112 11.902 12.265 11.856C12.2188 11.81 12.1957 11.753 12.1957 11.685C12.1957 11.617 12.2188 11.5602 12.265 11.5147C12.3112 11.4691 12.3685 11.4463 12.4368 11.4463H14.2622V9.63391C14.2622 9.56609 14.2853 9.50924 14.3316 9.46336C14.378 9.41748 14.4354 9.39454 14.5038 9.39454C14.5723 9.39454 14.6295 9.41748 14.6755 9.46336C14.7214 9.50924 14.7443 9.56609 14.7443 9.63391V11.4463H16.5697C16.638 11.4463 16.6953 11.4693 16.7415 11.5153C16.7877 11.5612 16.8108 11.6182 16.8108 11.6862C16.8108 11.7542 16.7877 11.811 16.7415 11.8566C16.6953 11.9022 16.638 11.925 16.5697 11.925H14.7443V13.7374C14.7443 13.8052 14.7212 13.862 14.6748 13.9079C14.6285 13.9538 14.5711 13.9767 14.5026 13.9767C14.4342 13.9767 14.377 13.9538 14.331 13.9079C14.2851 13.862 14.2622 13.8052 14.2622 13.7374V11.925ZM7.99392 10.7966L14.4688 4.36782C14.5147 4.32222 14.5693 4.29658 14.6324 4.29088C14.6955 4.28518 14.7558 4.31082 14.8132 4.36782C14.8706 4.42481 14.8993 4.4818 14.8993 4.53879C14.8993 4.59579 14.8706 4.65278 14.8132 4.70977L8.35555 11.1214C8.25223 11.224 8.13169 11.2753 7.99392 11.2753C7.85616 11.2753 7.73562 11.224 7.6323 11.1214L5.85859 9.36034C5.81267 9.31475 5.78684 9.26061 5.7811 9.19792C5.77536 9.13522 5.80119 9.07538 5.85859 9.01839C5.91599 8.9614 5.97339 8.9329 6.0308 8.9329C6.0882 8.9329 6.1456 8.9614 6.203 9.01839L7.99392 10.7966Z" fill="#F9E06D"/>
<path d="M8.99271 14.9C8.16372 14.9 7.38467 14.7439 6.65555 14.4317C5.92644 14.1194 5.29221 13.6957 4.75287 13.1605C4.21352 12.6253 3.78654 11.9959 3.47193 11.2723C3.15731 10.5488 3 9.77565 3 8.95297C3 8.1303 3.15731 7.35673 3.47193 6.63227C3.78654 5.90779 4.21352 5.27761 4.75287 4.74171C5.29221 4.2058 5.92644 3.78154 6.65555 3.46892C7.38467 3.15631 8.16372 3 8.99271 3C9.60116 3 10.1867 3.08834 10.7492 3.26501C11.3117 3.44169 11.8456 3.69531 12.3507 4.02586C12.4196 4.07146 12.4655 4.12845 12.4885 4.19684C12.5114 4.26523 12.4999 4.32792 12.454 4.38491C12.4081 4.44191 12.3478 4.47325 12.2732 4.47895C12.1986 4.48465 12.1326 4.4647 12.0752 4.41911C11.616 4.11135 11.1252 3.87768 10.6028 3.7181C10.0805 3.55852 9.54376 3.47874 8.99271 3.47874C7.45435 3.47874 6.15134 4.00876 5.08367 5.06882C4.01601 6.12888 3.48217 7.42261 3.48217 8.95C3.48217 10.4774 4.01601 11.7711 5.08367 12.8312C6.15134 13.8912 7.45435 14.4213 8.99271 14.4213C9.37367 14.4213 9.74731 14.3842 10.1136 14.3101C10.4799 14.236 10.8353 14.1249 11.1797 13.9767C11.2486 13.9539 11.3203 13.9482 11.395 13.9596C11.4696 13.971 11.5251 14.0062 11.5616 14.0652C11.594 14.1202 11.5999 14.1813 11.5792 14.2485C11.5586 14.3157 11.5115 14.3619 11.438 14.3871C11.0477 14.558 10.6487 14.6863 10.2412 14.7718C9.83364 14.8573 9.41748 14.9 8.99271 14.9ZM14.2622 11.925H12.4368C12.3685 11.925 12.3112 11.902 12.265 11.856C12.2188 11.81 12.1957 11.753 12.1957 11.685C12.1957 11.617 12.2188 11.5602 12.265 11.5147C12.3112 11.4691 12.3685 11.4463 12.4368 11.4463H14.2622V9.63391C14.2622 9.56609 14.2853 9.50924 14.3316 9.46336C14.378 9.41748 14.4354 9.39454 14.5038 9.39454C14.5723 9.39454 14.6295 9.41748 14.6755 9.46336C14.7214 9.50924 14.7443 9.56609 14.7443 9.63391V11.4463H16.5697C16.638 11.4463 16.6953 11.4693 16.7415 11.5153C16.7877 11.5612 16.8108 11.6182 16.8108 11.6862C16.8108 11.7542 16.7877 11.811 16.7415 11.8566C16.6953 11.9022 16.638 11.925 16.5697 11.925H14.7443V13.7374C14.7443 13.8052 14.7212 13.862 14.6748 13.9079C14.6285 13.9538 14.5711 13.9767 14.5026 13.9767C14.4342 13.9767 14.377 13.9538 14.331 13.9079C14.2851 13.862 14.2622 13.8052 14.2622 13.7374V11.925ZM7.99392 10.7966L14.4688 4.36782C14.5147 4.32222 14.5693 4.29658 14.6324 4.29088C14.6955 4.28518 14.7558 4.31082 14.8132 4.36782C14.8706 4.42481 14.8993 4.4818 14.8993 4.53879C14.8993 4.59579 14.8706 4.65278 14.8132 4.70977L8.35555 11.1214C8.25223 11.224 8.13169 11.2753 7.99392 11.2753C7.85616 11.2753 7.73562 11.224 7.6323 11.1214L5.85859 9.36034C5.81267 9.31475 5.78684 9.26061 5.7811 9.19792C5.77536 9.13522 5.80119 9.07538 5.85859 9.01839C5.91599 8.9614 5.97339 8.9329 6.0308 8.9329C6.0882 8.9329 6.1456 8.9614 6.203 9.01839L7.99392 10.7966Z" stroke="#D5AA31" stroke-width="0.702793"/>
</g>
<defs>
<filter id="filter0_f_186_13635" x="0.648438" y="0.648682" width="18.5137" height="16.6028" filterUnits="userSpaceOnUse" color-interpolation-filters="sRGB">
<feFlood flood-opacity="0" result="BackgroundImageFix"/>
<feBlend mode="normal" in="SourceGraphic" in2="BackgroundImageFix" result="shape"/>
<feGaussianBlur stdDeviation="1" result="effect1_foregroundBlur_186_13635"/>
</filter>
</defs>
</svg>
