<svg width="32" height="32" viewBox="0 0 32 32" fill="none" xmlns="http://www.w3.org/2000/svg">
<path d="M15.5052 24.5961C14.3281 24.5961 13.2219 24.3744 12.1866 23.9311C11.1514 23.4878 10.2508 22.8861 9.485 22.1262C8.71918 21.3662 8.11291 20.4725 7.66618 19.4451C7.21946 18.4177 6.99609 17.32 6.99609 16.1519C6.99609 14.9838 7.21946 13.8854 7.66618 12.8567C8.11291 11.828 8.71918 10.9332 9.485 10.1723C10.2508 9.41134 11.1514 8.80893 12.1866 8.36504C13.2219 7.92116 14.3281 7.69922 15.5052 7.69922C16.3691 7.69922 17.2005 7.82465 17.9992 8.07551C18.798 8.32638 19.5559 8.68649 20.2732 9.15585C20.371 9.22058 20.4362 9.30151 20.4688 9.39862C20.5014 9.49572 20.4851 9.58474 20.4199 9.66566C20.3547 9.74659 20.2691 9.7911 20.1632 9.79919C20.0572 9.80728 19.9635 9.77896 19.882 9.71422C19.2299 9.27723 18.5331 8.94544 17.7914 8.71886C17.0497 8.49227 16.2876 8.37898 15.5052 8.37898C13.3208 8.37898 11.4707 9.13157 9.95471 10.6367C8.43872 12.1419 7.68073 13.9789 7.68073 16.1477C7.68073 18.3164 8.43872 20.1534 9.95471 21.6586C11.4707 23.1637 13.3208 23.9163 15.5052 23.9163C16.0461 23.9163 16.5766 23.8637 17.0968 23.7585C17.6169 23.6533 18.1215 23.4955 18.6105 23.2851C18.7083 23.2528 18.8102 23.2447 18.9161 23.2608C19.0221 23.277 19.101 23.327 19.1527 23.4107C19.1988 23.4888 19.2071 23.5756 19.1778 23.671C19.1484 23.7664 19.0816 23.832 18.9773 23.8678C18.423 24.1105 17.8566 24.2926 17.2779 24.414C16.6992 24.5354 16.1083 24.5961 15.5052 24.5961ZM22.9873 20.3719H20.3954C20.2985 20.3719 20.2172 20.3392 20.1515 20.2739C20.0859 20.2086 20.0531 20.1277 20.0531 20.0311C20.0531 19.9346 20.0859 19.854 20.1515 19.7892C20.2172 19.7245 20.2985 19.6921 20.3954 19.6921H22.9873V17.1187C22.9873 17.0224 23.0202 16.9417 23.086 16.8766C23.1517 16.8114 23.2332 16.7789 23.3305 16.7789C23.4277 16.7789 23.5089 16.8114 23.5741 16.8766C23.6393 16.9417 23.6719 17.0224 23.6719 17.1187V19.6921H26.2638C26.3608 19.6921 26.4421 19.7248 26.5077 19.7901C26.5733 19.8554 26.6061 19.9363 26.6061 20.0328C26.6061 20.1294 26.5733 20.21 26.5077 20.2748C26.4421 20.3395 26.3608 20.3719 26.2638 20.3719H23.6719V22.9452C23.6719 23.0415 23.639 23.1223 23.5733 23.1874C23.5075 23.2526 23.426 23.2851 23.3288 23.2851C23.2315 23.2851 23.1503 23.2526 23.0851 23.1874C23.0199 23.1223 22.9873 23.0415 22.9873 22.9452V20.3719ZM14.087 18.7696L23.2807 9.64139C23.3459 9.57665 23.4233 9.54023 23.513 9.53214C23.6027 9.52405 23.6882 9.56046 23.7697 9.64139C23.8512 9.72231 23.892 9.80323 23.892 9.88416C23.892 9.96508 23.8512 10.046 23.7697 10.1269L14.6005 19.2308C14.4538 19.3765 14.2826 19.4493 14.087 19.4493C13.8914 19.4493 13.7202 19.3765 13.5735 19.2308L11.055 16.7303C10.9898 16.6656 10.9531 16.5887 10.945 16.4997C10.9368 16.4107 10.9735 16.3257 11.055 16.2448C11.1365 16.1638 11.218 16.1234 11.2995 16.1234C11.381 16.1234 11.4625 16.1638 11.544 16.2448L14.087 18.7696Z" fill="#D6D5D5" stroke="#D6D5D5" stroke-width="0.702793"/>
</svg>
