<svg width="64" height="64" viewBox="0 0 64 64" fill="none" xmlns="http://www.w3.org/2000/svg">
<path d="M41 22H37H32H27H23V17.86V17L30 15L32 17L34 15L41 17V17.86V22Z" fill="#FDDC51"/>
<path d="M9 22V19L16 17L18 19L20 17L23 17.86V22H18H9Z" fill="#FDD320"/>
<path d="M55 19V22H46H41V17.86L44 17L46 19L48 17L55 19Z" fill="#FDD320"/>
<path d="M50 10V12C50 13.0609 49.5786 14.0783 48.8284 14.8284C48.0783 15.5786 47.0609 16 46 16C44.9391 16 43.9217 15.5786 43.1716 14.8284C42.4214 14.0783 42 13.0609 42 12V10C42 8.93913 42.4214 7.92172 43.1716 7.17157C43.9217 6.42143 44.9391 6 46 6C47.0609 6 48.0783 6.42143 48.8284 7.17157C49.5786 7.92172 50 8.93913 50 10Z" fill="#FDD320"/>
<path d="M22 10V12C22 13.0609 21.5786 14.0783 20.8284 14.8284C20.0783 15.5786 19.0609 16 18 16C16.9391 16 15.9217 15.5786 15.1716 14.8284C14.4214 14.0783 14 13.0609 14 12V10C14 8.93913 14.4214 7.92172 15.1716 7.17157C15.9217 6.42143 16.9391 6 18 6C19.0609 6 20.0783 6.42143 20.8284 7.17157C21.5786 7.92172 22 8.93913 22 10Z" fill="#FDD320"/>
<path d="M36 8V10C36 11.0609 35.5786 12.0783 34.8284 12.8284C34.0783 13.5786 33.0609 14 32 14C30.9391 14 29.9217 13.5786 29.1716 12.8284C28.4214 12.0783 28 11.0609 28 10V8C28 6.93913 28.4214 5.92172 29.1716 5.17157C29.9217 4.42143 30.9391 4 32 4C33.0609 4 34.0783 4.42143 34.8284 5.17157C35.5786 5.92172 36 6.93913 36 8Z" fill="#FDDC51"/>
<path d="M44.2312 29.1211C42.7869 27.6801 40.896 26.7725 38.8683 26.5472C36.8406 26.3219 34.7965 26.7923 33.0712 27.8811L36.8012 31.5911L36.9012 31.7011C37.4515 32.2766 37.7507 33.0472 37.7329 33.8433C37.715 34.6393 37.3817 35.3958 36.8062 35.9461C36.2307 36.4964 35.4601 36.7956 34.664 36.7777C33.8679 36.7599 33.1115 36.4266 32.5612 35.8511L32.2112 35.5111L28.0012 31.2511L29.4212 29.8311L34.0012 34.4211C34.0938 34.5156 34.2042 34.5907 34.3261 34.6422C34.448 34.6937 34.5789 34.7205 34.7112 34.7211C34.8428 34.7218 34.9733 34.6966 35.0951 34.6468C35.2169 34.5971 35.3277 34.5238 35.4212 34.4311C35.5956 34.2456 35.6926 34.0006 35.6926 33.7461C35.6926 33.4915 35.5956 33.2465 35.4212 33.0611L35.0612 32.6911L31.3412 29.0011C31.1812 28.8411 31.0212 28.7011 30.8612 28.5611C29.0749 27.1252 26.8081 26.425 24.5232 26.6031C22.2383 26.7812 20.1075 27.8243 18.5652 29.5196C17.023 31.2148 16.1856 33.4346 16.2239 35.7261C16.2622 38.0176 17.1732 40.2082 18.7712 41.8511L20.1912 43.2811L27.2512 36.2011L28.6712 37.6211L19.4712 46.8111C19.3785 46.9045 19.3052 47.0153 19.2554 47.1372C19.2056 47.259 19.1804 47.3895 19.1812 47.5211C19.1849 47.7848 19.2928 48.0364 19.4812 48.2211C19.6691 48.4022 19.9203 48.5026 20.1812 48.5011C20.4456 48.5053 20.7008 48.4046 20.8912 48.2211L28.0012 41.1511L29.4212 42.5711L22.3512 49.6411C22.1664 49.8273 22.0623 50.0787 22.0612 50.3411C22.0604 50.4727 22.0857 50.6031 22.1354 50.725C22.1852 50.8468 22.2585 50.9576 22.3512 51.0511C22.4446 51.1438 22.5554 51.2171 22.6773 51.2668C22.7991 51.3166 22.9296 51.3418 23.0612 51.3411C23.3235 51.34 23.5749 51.2358 23.7612 51.0511L30.7912 44.0011L32.2112 45.4211L25.1312 52.4911C24.9464 52.6773 24.8423 52.9287 24.8412 53.1911C24.8417 53.3234 24.8685 53.4543 24.92 53.5761C24.9715 53.698 25.0467 53.8085 25.1412 53.9011C25.3291 54.0822 25.5803 54.1826 25.8412 54.1811C26.1056 54.1853 26.3608 54.0846 26.5512 53.9011L33.6212 46.8211L35.0012 48.2211L28.0012 55.3011C27.818 55.488 27.7153 55.7393 27.7153 56.0011C27.7153 56.2628 27.818 56.5141 28.0012 56.7011C28.0831 56.806 28.1903 56.8885 28.3126 56.941C28.435 56.9934 28.5687 57.0141 28.7012 57.0011C28.8335 57.0005 28.9644 56.9737 29.0863 56.9222C29.2081 56.8707 29.3186 56.7956 29.4112 56.7011L36.4812 49.6411L44.2612 41.8611C45.0972 41.0253 45.7604 40.033 46.2129 38.9409C46.6654 37.8488 46.8983 36.6782 46.8983 35.4961C46.8983 34.3139 46.6654 33.1434 46.2129 32.0512C45.7604 30.9591 45.0972 29.9668 44.2612 29.1311L44.2312 29.1211Z" fill="#909090"/>
<path d="M43.6 46.71L42.9 46L41.48 47.41L42.19 48.12C42.3774 48.3063 42.6308 48.4108 42.895 48.4108C43.1592 48.4108 43.4126 48.3063 43.6 48.12C43.7863 47.9326 43.8908 47.6792 43.8908 47.415C43.8908 47.1508 43.7863 46.8974 43.6 46.71ZM35.08 55.2L34.38 54.49L33 55.9L33.7 56.6C33.7926 56.6945 33.9031 56.7697 34.0249 56.8212C34.1468 56.8727 34.2777 56.8995 34.41 56.9C34.6752 56.9 34.9296 56.7946 35.1171 56.6071C35.3046 56.4196 35.41 56.1652 35.41 55.9C35.4043 55.7673 35.3721 55.637 35.3155 55.5168C35.2588 55.3966 35.1788 55.2889 35.08 55.2ZM37.91 52.37L37.21 51.66L35.8 53.08L36.5 53.78C36.6399 53.921 36.8186 54.0172 37.0133 54.0563C37.2081 54.0954 37.41 54.0755 37.5935 53.9994C37.7769 53.9232 37.9335 53.7941 38.0433 53.6286C38.1531 53.4631 38.2112 53.2686 38.21 53.07C38.2143 52.8105 38.1174 52.5595 37.94 52.37H37.91ZM40.74 49.54L40.04 48.83L38.62 50.24L39.33 50.95C39.5174 51.1363 39.7708 51.2408 40.035 51.2408C40.2992 51.2408 40.5526 51.1363 40.74 50.95C40.8327 50.8566 40.906 50.7457 40.9558 50.6239C41.0055 50.5021 41.0308 50.3716 41.03 50.24C41.037 49.9818 40.9438 49.731 40.77 49.54H40.74ZM43.57 46.71L42.87 46L41.48 47.41L42.19 48.12C42.3774 48.3063 42.6308 48.4108 42.895 48.4108C43.1592 48.4108 43.4126 48.3063 43.6 48.12C43.7863 47.9326 43.8908 47.6792 43.8908 47.415C43.8908 47.1508 43.7863 46.8974 43.6 46.71H43.57ZM37.91 52.37L37.21 51.66L35.8 53.08L36.5 53.78C36.6399 53.921 36.8186 54.0172 37.0133 54.0563C37.2081 54.0954 37.41 54.0755 37.5935 53.9994C37.7769 53.9232 37.9335 53.7941 38.0433 53.6286C38.1531 53.4631 38.2112 53.2686 38.21 53.07C38.2143 52.8105 38.1174 52.5595 37.94 52.37H37.91Z" fill="#FDDC51"/>
</svg>
