<svg width="22" height="23" viewBox="0 0 22 23" fill="none" xmlns="http://www.w3.org/2000/svg">
<path d="M10.9615 0.503662C4.93757 0.503662 0.0541992 5.38703 0.0541992 11.411C0.0541992 17.4349 4.93757 22.3183 10.9615 22.3183C16.9855 22.3183 21.8688 17.4349 21.8688 11.411C21.8618 5.38994 16.9826 0.510674 10.9615 0.503662Z" fill="#FFDD09" fill-opacity="0.15"/>
<path d="M17.2538 7.95699L11.0321 16.4002C10.8837 16.597 10.6625 16.726 10.418 16.7582C10.1736 16.7903 9.92653 16.7229 9.73231 16.571L5.2894 13.0189C4.89734 12.7051 4.83385 12.133 5.1476 11.7409C5.46135 11.3489 6.03352 11.2854 6.42557 11.5991L10.1304 14.5632L15.7904 6.88171C15.976 6.6032 16.2996 6.44922 16.6328 6.4809C16.966 6.51258 17.2548 6.7248 17.3846 7.0333C17.5144 7.34179 17.4641 7.69665 17.2538 7.95699Z" fill="#FFDD09"/>
</svg>
