<svg width="61" height="60" viewBox="0 0 61 60" fill="none" xmlns="http://www.w3.org/2000/svg">
<circle cx="30.5" cy="30" r="30" fill="#D9D9D9"/>
<path d="M45.1886 22.0354C44.1025 22.5182 42.9337 22.8439 41.7072 22.9896C42.9594 22.2399 43.9196 21.0525 44.3724 19.636C43.2011 20.331 41.9045 20.8354 40.5234 21.1077C39.4181 19.9298 37.8426 19.1934 36.0992 19.1934C32.7522 19.1934 30.0384 21.9071 30.0384 25.2547C30.0384 25.7291 30.0918 26.1915 30.1956 26.6359C25.1579 26.3828 20.6912 23.9701 17.7016 20.3028C17.1798 21.1976 16.8812 22.2387 16.8812 23.3506C16.8812 25.4532 17.9511 27.3088 19.5775 28.3955C18.5844 28.3637 17.6494 28.0908 16.832 27.6368C16.8314 27.662 16.8314 27.6878 16.8314 27.7136C16.8314 30.6498 18.9208 33.0991 21.6939 33.6568C21.1854 33.7948 20.6498 33.8691 20.0969 33.8691C19.7058 33.8691 19.3262 33.8314 18.9562 33.76C19.728 36.1679 21.9662 37.9209 24.6182 37.9694C22.5437 39.5953 19.9307 40.5644 17.0905 40.5644C16.6017 40.5644 16.1189 40.5356 15.6445 40.4793C18.3277 42.1999 21.5134 43.2026 24.936 43.2026C36.0854 43.2026 42.1816 33.9669 42.1816 25.957C42.1816 25.6943 42.1762 25.4323 42.1648 25.172C43.3487 24.3192 44.3766 23.2511 45.1886 22.0354Z" fill="black"/>
</svg>
