<svg width="26" height="17" viewBox="0 0 26 17" fill="none" xmlns="http://www.w3.org/2000/svg">
<rect x="1.54346" y="1" width="23.1818" height="15" rx="2.72727" fill="#2666AC"/>
<rect x="1.20255" y="0.659091" width="23.8636" height="15.6818" rx="3.06818" stroke="black" stroke-opacity="0.1" stroke-width="0.681818"/>
<path d="M4.46489 5.62331H5.54355L6.59424 9.86603L8.86741 5.62331H10.0539L6.90985 11.5H5.92307L4.46489 5.62331ZM10.797 5.62331H11.8757L11.0647 11.5H10.006L10.797 5.62331ZM16.1304 6.44229L15.3274 7.15341C14.9971 6.72727 14.6895 6.5142 14.4045 6.5142C14.2634 6.5142 14.1462 6.55682 14.053 6.64205C13.9597 6.72461 13.9131 6.82449 13.9131 6.94167C13.9131 7.05087 13.9557 7.17205 14.041 7.30522C14.1262 7.43839 14.3845 7.73269 14.816 8.18812C15.0451 8.43049 15.1955 8.60227 15.2674 8.70348C15.4406 8.93786 15.5644 9.15758 15.639 9.36266C15.7162 9.56507 15.7548 9.77148 15.7548 9.98189C15.7548 10.4533 15.587 10.8488 15.2515 11.1684C14.9159 11.488 14.4857 11.6478 13.9611 11.6478C13.1621 11.6478 12.5109 11.2683 12.0075 10.5092L12.8544 9.82608C13.1954 10.3454 13.5642 10.6051 13.9611 10.6051C14.1502 10.6051 14.3086 10.5439 14.4365 10.4213C14.567 10.2988 14.6322 10.151 14.6322 9.97789C14.6322 9.84206 14.5923 9.70357 14.5124 9.56241C14.4351 9.42125 14.2114 9.15492 13.8412 8.76341C13.4497 8.35059 13.1927 8.03897 13.0702 7.82857C12.905 7.54359 12.8225 7.26394 12.8225 6.98961C12.8225 6.6274 12.941 6.30247 13.178 6.01483C13.4763 5.65527 13.8785 5.4755 14.3845 5.4755C15.0797 5.4755 15.6616 5.79776 16.1304 6.44229ZM19.4023 5.62331H20.3331L21.7953 11.5H20.7247L20.413 10.2496H18.0919L17.4168 11.5H16.2302L19.4023 5.62331ZM20.1454 9.21085L19.674 7.28125L18.6392 9.21085H20.1454Z" fill="white"/>
<path d="M2.90918 5.77295H5.52282L5.86372 7.13659L2.90918 5.77295Z" fill="#EEA84D"/>
</svg>
