<svg width="22" height="22" viewBox="0 0 22 22" fill="none" xmlns="http://www.w3.org/2000/svg">
<path d="M17.8249 0.287476H4.17498C2.14535 0.287476 0.5 1.93283 0.5 3.96248V17.6125C0.5 19.6421 2.14535 21.2875 4.17498 21.2875H17.8249C19.8545 21.2875 21.4999 19.6421 21.4999 17.6125V3.96248C21.4999 1.93283 19.8545 0.287476 17.8249 0.287476Z" fill="url(#paint0_linear_1171_4218)"/>
<path d="M9.49664 7.30302L10.1529 9.08473C10.1688 9.12461 10.1741 9.16791 10.1684 9.21045C10.1626 9.25299 10.146 9.29332 10.1201 9.32755C9.97925 9.5318 9.81639 9.71996 9.63445 9.88864C9.58154 9.93018 9.5466 9.99044 9.53683 10.057C9.52706 10.1235 9.54321 10.1913 9.58195 10.2463C9.98555 10.7877 11.0323 12.1002 12.394 12.5694C12.4464 12.5868 12.5031 12.5869 12.5556 12.5698C12.6081 12.5526 12.6538 12.5192 12.686 12.4743L13.2307 11.7491C13.2679 11.7001 13.3211 11.6656 13.3811 11.6518C13.441 11.638 13.5039 11.6458 13.5588 11.6736L15.2651 12.5268C15.3244 12.5547 15.3709 12.6041 15.3953 12.665C15.4196 12.7259 15.42 12.7937 15.3963 12.8549C15.2093 13.3865 14.6219 14.6825 13.3652 14.4725C11.7218 14.2204 10.2271 13.3768 9.16196 12.1002C8.13165 10.814 6.09728 7.50645 9.2243 7.13239C9.28218 7.12664 9.34034 7.14027 9.38963 7.17115C9.43893 7.20204 9.47657 7.24842 9.49664 7.30302Z" fill="white"/>
<path d="M11.5232 18.2694C10.1505 18.2713 8.80071 17.9175 7.60545 17.2424L3.66797 18.253L5.11499 15.0013C4.2403 13.7711 3.77325 12.2976 3.77953 10.7881C3.77953 6.6636 7.25436 3.30688 11.5232 3.30688C15.7921 3.30688 19.267 6.6636 19.267 10.7881C19.267 14.9127 15.7921 18.2694 11.5232 18.2694ZM7.81217 15.8314L8.0517 15.9791C9.09509 16.6231 10.2971 16.9639 11.5232 16.9634C15.0703 16.9634 17.9545 14.1974 17.9545 10.7947C17.9545 7.39204 15.0703 4.61939 11.5232 4.61939C7.97623 4.61939 5.09202 7.38548 5.09202 10.7881C5.09349 12.1416 5.55646 13.4542 6.40452 14.5091L6.65061 14.8208L5.46609 16.8289L7.81217 15.8314Z" fill="white"/>
<defs>
<linearGradient id="paint0_linear_1171_4218" x1="10.9999" y1="1.59998" x2="10.9999" y2="21.5533" gradientUnits="userSpaceOnUse">
<stop stop-color="#1DF47C"/>
<stop offset="0.31" stop-color="#12DF63"/>
<stop offset="0.75" stop-color="#05C443"/>
<stop offset="1" stop-color="#00BA37"/>
</linearGradient>
</defs>
</svg>
