<svg width="125" height="125" viewBox="0 0 125 125" fill="none" xmlns="http://www.w3.org/2000/svg">
<g filter="url(#filter0_d_1171_4193)">
<path d="M95.9746 10H29.0249C19.07 10 11 18.0701 11 28.025V94.975C11 104.93 19.07 113 29.0249 113H95.9746C105.929 113 113.999 104.93 113.999 94.975V28.025C113.999 18.0701 105.929 10 95.9746 10Z" fill="url(#paint0_linear_1171_4193)"/>
<path d="M55.1342 44.4096L58.3529 53.1485C58.4309 53.3441 58.457 53.5565 58.4288 53.7651C58.4006 53.9737 58.319 54.1716 58.192 54.3394C57.5013 55.3413 56.7025 56.2642 55.8101 57.0915C55.5506 57.2952 55.3792 57.5908 55.3313 57.9172C55.2834 58.2436 55.3626 58.576 55.5526 58.8457C57.5322 61.5012 62.666 67.9387 69.3449 70.2401C69.6022 70.3251 69.88 70.3256 70.1376 70.2417C70.3953 70.1577 70.6194 69.9936 70.7772 69.7733L73.4488 66.2166C73.6311 65.9761 73.8922 65.8072 74.1863 65.7395C74.4805 65.6719 74.7891 65.7097 75.0582 65.8465L83.4269 70.0308C83.7178 70.1679 83.9461 70.4102 84.0655 70.7088C84.185 71.0075 84.1868 71.3403 84.0706 71.6402C83.1533 74.2474 80.2725 80.6044 74.1086 79.5744C66.0483 78.3377 58.7171 74.2 53.4926 67.9387C48.4392 61.6299 38.4612 45.4074 53.7984 43.5727C54.0823 43.5445 54.3676 43.6114 54.6093 43.7628C54.8511 43.9143 55.0357 44.1418 55.1342 44.4096Z" fill="white"/>
<path d="M65.0712 98.1968C58.3383 98.2062 51.7178 96.4707 45.8554 93.1595L26.543 98.1164L33.6403 82.1675C29.3501 76.1336 27.0593 68.9066 27.0902 61.5031C27.0902 41.2732 44.1334 24.8093 65.0712 24.8093C86.0091 24.8093 103.052 41.2732 103.052 61.5031C103.052 81.7329 86.0091 98.1968 65.0712 98.1968ZM46.8693 86.2392L48.0441 86.9634C53.1617 90.122 59.0574 91.7937 65.0712 91.7915C82.4685 91.7915 96.6148 78.2245 96.6148 61.5353C96.6148 44.846 82.4685 31.2468 65.0712 31.2468C47.674 31.2468 33.5276 44.8139 33.5276 61.5031C33.5348 68.1417 35.8056 74.5794 39.9651 79.7534L41.1721 81.2823L35.3623 91.1317L46.8693 86.2392Z" fill="white"/>
</g>
<defs>
<filter id="filter0_d_1171_4193" x="0.283263" y="0.474012" width="124.433" height="124.433" filterUnits="userSpaceOnUse" color-interpolation-filters="sRGB">
<feFlood flood-opacity="0" result="BackgroundImageFix"/>
<feColorMatrix in="SourceAlpha" type="matrix" values="0 0 0 0 0 0 0 0 0 0 0 0 0 0 0 0 0 0 127 0" result="hardAlpha"/>
<feOffset dy="1.19075"/>
<feGaussianBlur stdDeviation="5.35837"/>
<feComposite in2="hardAlpha" operator="out"/>
<feColorMatrix type="matrix" values="0 0 0 0 0.219608 0 0 0 0 0.764706 0 0 0 0 0.368627 0 0 0 1 0"/>
<feBlend mode="normal" in2="BackgroundImageFix" result="effect1_dropShadow_1171_4193"/>
<feBlend mode="normal" in="SourceGraphic" in2="effect1_dropShadow_1171_4193" result="shape"/>
</filter>
<linearGradient id="paint0_linear_1171_4193" x1="62.4997" y1="16.4375" x2="62.4997" y2="114.304" gradientUnits="userSpaceOnUse">
<stop stop-color="#1DF47C"/>
<stop offset="0.31" stop-color="#12DF63"/>
<stop offset="0.75" stop-color="#05C443"/>
<stop offset="1" stop-color="#00BA37"/>
</linearGradient>
</defs>
</svg>
