<svg width="22" height="22" viewBox="0 0 22 22" fill="none" xmlns="http://www.w3.org/2000/svg">
<g clip-path="url(#clip0_1171_4227)">
<mask id="path-2-inside-1_1171_4227" fill="white">
<path d="M0.5 0.287476H21.5V21.2875H0.5V0.287476Z"/>
</mask>
<path d="M0.5 0.287476H21.5V21.2875H0.5V0.287476Z" fill="url(#paint0_linear_1171_4227)"/>
<path d="M0.5 0.396096H21.5V0.178855H0.5V0.396096Z" fill="url(#paint1_linear_1171_4227)" mask="url(#path-2-inside-1_1171_4227)"/>
<g filter="url(#filter0_f_1171_4227)">
<circle cx="2.38427" cy="2.60436" r="1.66552" fill="url(#paint2_linear_1171_4227)"/>
</g>
<path d="M18.944 2.16528C16.9173 1.04661 15.1438 1.55192 10.9093 0.577489C10.2602 0.428128 9.28119 0.351752 8.278 0.315747L4.39453 0.324052C4.39453 0.324052 6.3796 0.247613 8.278 0.315747L21.498 0.287476V6.60388C21.498 6.60388 20.9708 3.28395 18.944 2.16528Z" fill="url(#paint3_linear_1171_4227)"/>
<g filter="url(#filter1_f_1171_4227)">
<ellipse cx="17.0245" cy="3.29289" rx="1.33312" ry="1.33354" fill="url(#paint4_linear_1171_4227)"/>
<path d="M18.3485 3.29289C18.3485 4.0243 17.7557 4.61723 17.0245 4.61723C16.2933 4.61723 15.7006 4.0243 15.7006 3.29289C15.7006 2.56147 16.2933 1.96855 17.0245 1.96855C17.7557 1.96855 18.3485 2.56147 18.3485 3.29289Z" stroke="url(#paint5_linear_1171_4227)" stroke-width="0.0183994"/>
</g>
<g filter="url(#filter2_d_1171_4227)">
<ellipse cx="17.1183" cy="3.20011" rx="1.33312" ry="1.33354" fill="url(#paint6_linear_1171_4227)"/>
</g>
<g filter="url(#filter3_d_1171_4227)">
<ellipse cx="11.0029" cy="11.5234" rx="8.18262" ry="8.18516" fill="url(#paint7_linear_1171_4227)"/>
<path d="M19.0935 11.5234C19.0935 15.9932 15.4712 19.6166 11.0029 19.6166C6.53463 19.6166 2.91231 15.9932 2.91231 11.5234C2.91231 7.05366 6.53463 3.43025 11.0029 3.43025C15.4712 3.43025 19.0935 7.05366 19.0935 11.5234Z" stroke="url(#paint8_linear_1171_4227)" stroke-width="0.183994"/>
</g>
<g filter="url(#filter4_d_1171_4227)">
<ellipse cx="11.0013" cy="11.524" rx="5.88413" ry="5.88596" fill="url(#paint9_linear_1171_4227)"/>
<path d="M16.7935 11.524C16.7935 14.724 14.2002 17.318 11.0013 17.318C7.80244 17.318 5.20918 14.724 5.20918 11.524C5.20918 8.32408 7.80244 5.73006 11.0013 5.73006C14.2002 5.73006 16.7935 8.32408 16.7935 11.524Z" stroke="url(#paint10_linear_1171_4227)" stroke-width="0.183994"/>
</g>
<g filter="url(#filter5_di_1171_4227)">
<ellipse cx="11.143" cy="11.5703" rx="3.44773" ry="3.4488" fill="url(#paint11_linear_1171_4227)"/>
<path d="M14.4988 11.5703C14.4988 13.4242 12.9963 14.9271 11.143 14.9271C9.28975 14.9271 7.78731 13.4242 7.78731 11.5703C7.78731 9.71632 9.28975 8.21346 11.143 8.21346C12.9963 8.21346 14.4988 9.71632 14.4988 11.5703Z" stroke="url(#paint12_linear_1171_4227)" stroke-width="0.183994"/>
</g>
</g>
<defs>
<filter id="filter0_f_1171_4227" x="0.646336" y="0.866429" width="3.47686" height="3.47588" filterUnits="userSpaceOnUse" color-interpolation-filters="sRGB">
<feFlood flood-opacity="0" result="BackgroundImageFix"/>
<feBlend mode="normal" in="SourceGraphic" in2="BackgroundImageFix" result="shape"/>
<feGaussianBlur stdDeviation="0.0362069" result="effect1_foregroundBlur_1171_4227"/>
</filter>
<filter id="filter1_f_1171_4227" x="15.4154" y="1.68336" width="3.21995" height="3.2191" filterUnits="userSpaceOnUse" color-interpolation-filters="sRGB">
<feFlood flood-opacity="0" result="BackgroundImageFix"/>
<feBlend mode="normal" in="SourceGraphic" in2="BackgroundImageFix" result="shape"/>
<feGaussianBlur stdDeviation="0.137996" result="effect1_foregroundBlur_1171_4227"/>
</filter>
<filter id="filter2_d_1171_4227" x="13.7612" y="1.77458" width="4.69191" height="4.69105" filterUnits="userSpaceOnUse" color-interpolation-filters="sRGB">
<feFlood flood-opacity="0" result="BackgroundImageFix"/>
<feColorMatrix in="SourceAlpha" type="matrix" values="0 0 0 0 0 0 0 0 0 0 0 0 0 0 0 0 0 0 127 0" result="hardAlpha"/>
<feOffset dx="-1.01197" dy="0.919971"/>
<feGaussianBlur stdDeviation="0.505984"/>
<feComposite in2="hardAlpha" operator="out"/>
<feColorMatrix type="matrix" values="0 0 0 0 0.980392 0 0 0 0 0.498039 0 0 0 0 0.0117647 0 0 0 0.79 0"/>
<feBlend mode="normal" in2="BackgroundImageFix" result="effect1_dropShadow_1171_4227"/>
<feBlend mode="normal" in="SourceGraphic" in2="effect1_dropShadow_1171_4227" result="shape"/>
</filter>
<filter id="filter3_d_1171_4227" x="-0.95157" y="2.97027" width="21.887" height="21.8902" filterUnits="userSpaceOnUse" color-interpolation-filters="sRGB">
<feFlood flood-opacity="0" result="BackgroundImageFix"/>
<feColorMatrix in="SourceAlpha" type="matrix" values="0 0 0 0 0 0 0 0 0 0 0 0 0 0 0 0 0 0 127 0" result="hardAlpha"/>
<feOffset dx="-1.01197" dy="2.39193"/>
<feGaussianBlur stdDeviation="1.37996"/>
<feComposite in2="hardAlpha" operator="out"/>
<feColorMatrix type="matrix" values="0 0 0 0 0.956863 0 0 0 0 0.419608 0 0 0 0 0.0862745 0 0 0 0.82 0"/>
<feBlend mode="normal" in2="BackgroundImageFix" result="effect1_dropShadow_1171_4227"/>
<feBlend mode="normal" in="SourceGraphic" in2="effect1_dropShadow_1171_4227" result="shape"/>
</filter>
<filter id="filter4_d_1171_4227" x="3.46124" y="4.99408" width="13.7935" height="13.7959" filterUnits="userSpaceOnUse" color-interpolation-filters="sRGB">
<feFlood flood-opacity="0" result="BackgroundImageFix"/>
<feColorMatrix in="SourceAlpha" type="matrix" values="0 0 0 0 0 0 0 0 0 0 0 0 0 0 0 0 0 0 127 0" result="hardAlpha"/>
<feOffset dx="-0.64398" dy="0.367988"/>
<feGaussianBlur stdDeviation="0.505984"/>
<feComposite in2="hardAlpha" operator="out"/>
<feColorMatrix type="matrix" values="0 0 0 0 0.968627 0 0 0 0 0.0470588 0 0 0 0 0.309804 0 0 0 1 0"/>
<feBlend mode="normal" in2="BackgroundImageFix" result="effect1_dropShadow_1171_4227"/>
<feBlend mode="normal" in="SourceGraphic" in2="effect1_dropShadow_1171_4227" result="shape"/>
</filter>
<filter id="filter5_di_1171_4227" x="6.31536" y="8.12146" width="8.55048" height="9.19751" filterUnits="userSpaceOnUse" color-interpolation-filters="sRGB">
<feFlood flood-opacity="0" result="BackgroundImageFix"/>
<feColorMatrix in="SourceAlpha" type="matrix" values="0 0 0 0 0 0 0 0 0 0 0 0 0 0 0 0 0 0 127 0" result="hardAlpha"/>
<feOffset dx="-0.551983" dy="0.827974"/>
<feGaussianBlur stdDeviation="0.413987"/>
<feComposite in2="hardAlpha" operator="out"/>
<feColorMatrix type="matrix" values="0 0 0 0 0.968627 0 0 0 0 0.113725 0 0 0 0 0.270588 0 0 0 1 0"/>
<feBlend mode="normal" in2="BackgroundImageFix" result="effect1_dropShadow_1171_4227"/>
<feBlend mode="normal" in="SourceGraphic" in2="effect1_dropShadow_1171_4227" result="shape"/>
<feColorMatrix in="SourceAlpha" type="matrix" values="0 0 0 0 0 0 0 0 0 0 0 0 0 0 0 0 0 0 127 0" result="hardAlpha"/>
<feOffset dx="-0.64398" dy="2.29993"/>
<feGaussianBlur stdDeviation="1.60995"/>
<feComposite in2="hardAlpha" operator="arithmetic" k2="-1" k3="1"/>
<feColorMatrix type="matrix" values="0 0 0 0 0.992157 0 0 0 0 0.584314 0 0 0 0 0.0784314 0 0 0 1 0"/>
<feBlend mode="normal" in2="shape" result="effect2_innerShadow_1171_4227"/>
</filter>
<linearGradient id="paint0_linear_1171_4227" x1="18.6397" y1="-0.962525" x2="2.55532" y2="20.286" gradientUnits="userSpaceOnUse">
<stop stop-color="#FDD01F"/>
<stop offset="0.369907" stop-color="#FDD320"/>
<stop offset="0.496817" stop-color="#F8C240"/>
<stop offset="1" stop-color="#F8861B"/>
</linearGradient>
<linearGradient id="paint1_linear_1171_4227" x1="11" y1="0.287476" x2="11" y2="21.2875" gradientUnits="userSpaceOnUse">
<stop stop-color="#FDE77F"/>
<stop offset="1" stop-color="#F99D40"/>
</linearGradient>
<linearGradient id="paint2_linear_1171_4227" x1="3.83254" y1="2.45953" x2="1.33427" y2="3.14746" gradientUnits="userSpaceOnUse">
<stop stop-color="#FCAF0C"/>
<stop offset="1" stop-color="#FCB50D" stop-opacity="0"/>
</linearGradient>
<linearGradient id="paint3_linear_1171_4227" x1="18.7992" y1="3.46355" x2="19.9157" y2="0.899015" gradientUnits="userSpaceOnUse">
<stop stop-color="#FFDD4D"/>
<stop offset="1" stop-color="#FEF4CB"/>
</linearGradient>
<linearGradient id="paint4_linear_1171_4227" x1="16.0592" y1="3.70674" x2="17.5768" y2="1.63791" gradientUnits="userSpaceOnUse">
<stop stop-color="#F97B04"/>
<stop offset="1" stop-color="#FEE43B"/>
</linearGradient>
<linearGradient id="paint5_linear_1171_4227" x1="17.76" y1="2.05132" x2="15.4149" y2="4.16586" gradientUnits="userSpaceOnUse">
<stop stop-color="#FEF1AC"/>
<stop offset="1" stop-color="#FB7C06"/>
</linearGradient>
<linearGradient id="paint6_linear_1171_4227" x1="17.8078" y1="2.05051" x2="17.302" y2="2.74012" gradientUnits="userSpaceOnUse">
<stop stop-color="#FEF3B3"/>
<stop offset="1" stop-color="#FEE43B"/>
</linearGradient>
<linearGradient id="paint7_linear_1171_4227" x1="16.3814" y1="6.32722" x2="4.28813" y2="16.8079" gradientUnits="userSpaceOnUse">
<stop stop-color="#FFBF26"/>
<stop offset="1" stop-color="#FF2872"/>
</linearGradient>
<linearGradient id="paint8_linear_1171_4227" x1="15.6459" y1="8.30453" x2="10.3588" y2="10.6945" gradientUnits="userSpaceOnUse">
<stop stop-color="#FFE171"/>
<stop offset="0.516562" stop-color="#FE9A15"/>
<stop offset="1" stop-color="#FF2086" stop-opacity="0.49"/>
</linearGradient>
<linearGradient id="paint9_linear_1171_4227" x1="20.2412" y1="7.89128" x2="4.14995" y2="15.6127" gradientUnits="userSpaceOnUse">
<stop stop-color="#FFBF26"/>
<stop offset="1" stop-color="#FF2872"/>
</linearGradient>
<linearGradient id="paint10_linear_1171_4227" x1="14.3401" y1="9.20932" x2="8.60949" y2="13.8215" gradientUnits="userSpaceOnUse">
<stop stop-color="#FFE171"/>
<stop offset="0.550196" stop-color="#FE9A15"/>
<stop offset="1" stop-color="#F92A4B" stop-opacity="0"/>
</linearGradient>
<linearGradient id="paint11_linear_1171_4227" x1="10.3616" y1="11.5243" x2="19.0997" y2="-2.40643" gradientUnits="userSpaceOnUse">
<stop stop-color="#FFBF26"/>
<stop offset="1" stop-color="#FF2872"/>
</linearGradient>
<linearGradient id="paint12_linear_1171_4227" x1="13.0993" y1="10.214" x2="7.09671" y2="13.8218" gradientUnits="userSpaceOnUse">
<stop stop-color="#FFE171"/>
<stop offset="0.550196" stop-color="#FE9A15"/>
<stop offset="1" stop-color="#F92A4B"/>
</linearGradient>
<clipPath id="clip0_1171_4227">
<path d="M0.5 7.26013C0.5 3.97319 0.5 2.32972 1.52112 1.3086C2.54224 0.287476 4.18571 0.287476 7.47266 0.287476H14.5273C17.8143 0.287476 19.4578 0.287476 20.4789 1.3086C21.5 2.32972 21.5 3.97319 21.5 7.26013V14.3148C21.5 17.6018 21.5 19.2452 20.4789 20.2664C19.4578 21.2875 17.8143 21.2875 14.5273 21.2875H7.47266C4.18571 21.2875 2.54224 21.2875 1.52112 20.2664C0.5 19.2452 0.5 17.6018 0.5 14.3148V7.26013Z" fill="white"/>
</clipPath>
</defs>
</svg>
